<svg xmlns="http://www.w3.org/2000/svg" width="46.578" height="57.209" viewBox="0 0 46.578 57.209">
  <path id="Apple_logo_black" d="M45.091,19.5A12.958,12.958,0,0,0,38.9,30.4a12.614,12.614,0,0,0,7.678,11.569,30,30,0,0,1-3.931,8.119c-2.449,3.524-5.006,7.043-8.9,7.043s-4.892-2.26-9.383-2.26c-4.377,0-5.933,2.334-9.492,2.334s-6.042-3.261-8.9-7.266A35.044,35.044,0,0,1,0,31C0,19.876,7.232,13.977,14.349,13.977c3.782,0,6.934,2.483,9.309,2.483,2.26,0,5.784-2.632,10.087-2.632A13.489,13.489,0,0,1,45.091,19.5ZM31.7,9.12a12.775,12.775,0,0,0,3.038-7.97A5.493,5.493,0,0,0,34.632,0a12.8,12.8,0,0,0-8.416,4.337,12.438,12.438,0,0,0-3.153,7.753,5.253,5.253,0,0,0,.109,1.036,4.477,4.477,0,0,0,.778.074A11.088,11.088,0,0,0,31.7,9.12Z" transform="translate(0 0)"/>
</svg>
