<svg width="40" height="63" viewBox="0 0 40 63" fill="none" xmlns="http://www.w3.org/2000/svg">
<path d="M17.0392 50.4492V44.1328V31.5H27.5111L27.8191 50.4492H32.1311L21.9672 60.375L11.8032 50.4492H17.0392Z" fill="url(#paint0_linear_788_30667)"/>
<path d="M17.5801 0C18.3451 0 19.1102 0 19.8752 0C21.7594 1.1375 23.7135 2.13063 25.7375 2.97937C25.6064 3.51312 25.7178 3.78875 26.0719 3.80625C26.3255 3.82312 26.5328 3.87673 26.6555 3.95719L28.5244 5.22375C28.2708 5.23688 28.0982 5.355 28.0064 5.57812C27.0184 5.01375 26.0654 4.39906 25.1473 3.73406C25.108 3.70344 24.8763 3.47812 24.4523 3.05813C24.0544 2.66437 23.5998 2.62937 23.0883 2.95312C21.7812 2.0125 20.7932 1.42406 20.1244 1.18781C17.7725 0.365312 15.9823 0.95375 14.7539 2.95312C14.3604 3.59188 14.0326 4.02063 13.7703 4.23938C13.0053 4.11688 12.5681 4.39031 12.4588 5.05969C10.1943 4.49531 9.11018 5.43375 9.20635 7.875C9.16701 7.7875 9.11236 7.73062 9.04242 7.70437C8.99848 7.69095 8.94463 7.69889 8.88827 7.72709C8.8319 7.7553 8.77579 7.80238 8.72766 7.86187C8.25553 8.435 7.82712 9.03875 7.44242 9.67313C7.40744 9.73 7.19979 10.01 6.81947 10.5131C6.43914 11.0163 6.28832 11.6134 6.36701 12.3047C5.0293 13.5909 4.38231 15.0675 4.42602 16.7344C4.47411 18.6462 4.22275 20.265 3.67193 21.5906C2.78449 23.7388 1.87302 25.8781 0.937499 28.0088C0.819467 28.2756 0.624931 28.455 0.353893 28.5469C0.100341 27.9781 0.0500678 27.4991 0.203073 27.1097C0.504713 26.3484 1.33531 24.4759 2.69488 21.4922C3.06646 20.6784 3.27848 19.8494 3.33094 19.005C3.3834 18.1388 3.42275 17.2703 3.44898 16.3997C3.48832 15.1616 3.72657 14.1531 4.16373 13.3744C4.6446 12.5169 5.26537 11.655 6.02602 10.7888C6.80417 9.90063 7.63695 8.6975 8.52438 7.17937C8.62282 7.00778 8.67281 6.79401 8.66865 6.5625C8.62493 4.97875 9.58668 4.08406 11.5539 3.87844C12.5943 3.76906 13.4031 3.27906 13.9801 2.40844C14.7801 1.20969 15.9801 0.406875 17.5801 0Z" fill="#FFA0C3"/>
<path d="M23.0883 2.95313C26.9659 5.94563 28.9921 9.93782 29.167 14.9297C29.3025 18.7491 28.6752 22.4306 27.285 25.9744C26.9921 26.7181 26.9768 26.9675 27.2391 26.7225C27.3222 26.6481 27.3987 26.5409 27.4686 26.4009C30.3451 20.9847 30.8763 15.1659 29.0621 8.9447C28.9659 8.62095 28.8238 8.32126 28.6358 8.04563C28.4347 7.75251 28.3189 7.54032 28.2883 7.40907C28.2183 7.09407 28.3604 7.12251 28.7145 7.49438C30.8435 9.70813 31.6959 12.4031 31.2719 15.5794C31.0883 16.9488 30.8916 18.3181 30.6817 19.6875C30.1178 21.77 30.2096 21.8247 30.9571 19.8516C31.8271 17.1128 32.1637 14.6519 31.967 12.4688C31.7178 9.73876 30.3976 7.44188 28.0063 5.57813C28.0981 5.35501 28.2708 5.23688 28.5243 5.22376C30.8763 6.72438 32.5899 8.65813 33.6653 11.025C34.0282 11.8169 34.7101 14.2188 35.7112 18.2306C36.9528 23.2138 37.932 28.2516 38.6489 33.3441C38.732 33.9391 38.9549 34.4728 39.3178 34.9453C39.3309 36.7916 39.5582 38.6094 39.9998 40.3988C39.9998 41.0025 39.9998 41.6041 39.9998 42.2034C37.9407 42.6234 35.8752 42.6694 33.803 42.3413C33.7116 42.3269 33.6277 42.2822 33.5646 42.2144C33.5016 42.1465 33.4632 42.0595 33.4555 41.9672C33.4118 41.4247 33.3703 40.8866 33.3309 40.3528C33.2916 39.7884 33.1582 39.2744 32.9309 38.8106C31.8905 36.7238 30.6315 34.7791 29.1539 32.9766C28.3801 31.8303 27.4402 30.8547 26.3342 30.0497C26.155 29.9184 26.0588 29.9644 26.0457 30.1875C25.8533 33.1144 25.1407 35.9034 23.908 38.5547C23.1517 39.6878 22.5834 40.9084 22.203 42.2166C21.7659 43.7041 20.7582 44.4063 19.1801 44.3231C18.5768 44.2925 17.9757 44.2925 17.3768 44.3231L12.4981 44.0934C11.261 44.0322 11.097 43.5116 12.0063 42.5316L13.685 40.7334C13.7538 40.6586 13.8025 40.571 13.8256 40.4806C13.8488 40.3902 13.8455 40.3005 13.8162 40.2216C13.0205 38.1916 12.6489 36.0959 12.7014 33.9347C12.7058 33.9128 12.8238 33.0663 13.0555 31.395C13.2478 29.995 13.0817 28.6431 12.5571 27.3394C12.3954 26.9413 12.2402 26.9434 12.0916 27.3459C11.3528 29.3628 10.0916 30.9619 8.30796 32.1431C8.23957 32.1874 8.19205 32.2588 8.17501 32.3429C8.15797 32.4269 8.17267 32.5174 8.21616 32.5959L9.53419 34.9716C9.56943 35.0351 9.58073 35.119 9.56684 35.214C9.55295 35.309 9.5144 35.4114 9.4555 35.5097C9.35495 35.6759 9.32654 35.8706 9.37025 36.0938L7.21288 38.0363C5.66096 38.1763 4.41725 37.8984 3.48173 37.2028C0.745118 35.1597 -0.297505 32.2744 0.353861 28.5469C0.624899 28.455 0.819435 28.2756 0.937468 28.0088C1.87299 25.8781 2.78446 23.7388 3.67189 21.5906C4.22271 20.265 4.47408 18.6463 4.42599 16.7344C4.38228 15.0675 5.02927 13.5909 6.36698 12.3047C6.48938 12.9916 6.6096 13.6784 6.72763 14.3653C6.75386 14.5009 6.79758 14.6213 6.85878 14.7263C7.18665 15.2556 7.3484 15.2359 7.34402 14.6672C7.33965 14.5666 7.3178 14.4441 7.27845 14.2997C7.09922 13.6434 7.12763 13.0419 7.3637 12.495C7.77463 11.5456 7.9932 11.025 8.01943 10.9331C8.29484 9.87438 8.69047 8.85501 9.20632 7.87501C9.11014 5.43376 10.1943 4.49532 12.4588 5.0597C13.1976 5.65907 13.7987 5.94126 14.2621 5.90626C15.8402 5.77938 17.3768 5.95438 18.8719 6.43126C19.8774 6.75063 21.1407 6.69813 22.6621 6.27376C24.2009 5.84938 25.1539 6.17751 25.5211 7.25813C25.7003 7.77438 25.6347 8.58376 25.3243 9.68626C24.708 11.8825 24.4566 14.1247 24.5703 16.4128C24.5834 16.6359 24.6577 16.6556 24.7932 16.4719C25.9692 14.9013 26.2271 13.1644 25.567 11.2613C25.4945 11.0565 25.4876 10.8381 25.5473 10.6378C25.932 9.37345 26.0959 8.08282 26.0391 6.76595C26.0349 6.65822 26.01 6.55369 25.966 6.45885C25.9221 6.36402 25.8599 6.28091 25.7834 6.2147C24.9703 5.50595 24.0194 5.35938 22.9309 5.77501C22.8301 5.81419 22.7243 5.83269 22.6203 5.8293C22.5163 5.8259 22.4165 5.80069 22.3276 5.75532C19.6478 4.3772 16.7954 3.87188 13.7703 4.23938C14.0325 4.02063 14.3604 3.59188 14.7539 2.95313C15.9823 0.953759 17.7724 0.365321 20.1244 1.18782C20.7932 1.42407 21.7812 2.01251 23.0883 2.95313ZM21.3834 9.13501C21.6457 9.28376 21.8817 9.51345 22.0916 9.82407C22.6686 10.6816 23.0774 11.2241 23.3178 11.4516C23.7637 11.8716 23.7746 11.7031 23.3506 10.9463C22.6817 9.74751 21.72 8.83532 20.4653 8.2097C20.1331 8.04345 20.0172 8.07845 20.1178 8.3147C20.1551 8.40695 20.2491 8.49874 20.3801 8.57063L21.3834 9.13501ZM9.58009 13.8141C9.52442 13.843 9.4757 13.8832 9.43723 13.9318C9.39877 13.9805 9.37145 14.0366 9.35714 14.0963C9.02927 15.5488 9.26534 16.94 10.0653 18.27C10.4369 18.8825 10.6205 18.8847 10.6162 18.2766C10.6162 18.1628 10.5856 18.0425 10.5244 17.9156C9.92544 16.7563 9.8708 15.5859 10.3604 14.4047C10.4172 14.2603 10.5265 14.0788 10.6883 13.86C11.1692 13.2038 10.7998 13.1884 9.58009 13.8141ZM22.7866 14.5753C21.6806 13.5341 21.4817 13.5953 22.1899 14.7591C22.2599 14.8772 22.297 15.0019 22.3014 15.1331C22.3495 16.5769 22.0325 17.9309 21.3506 19.1953C21.2457 19.3922 21.2741 19.4184 21.4358 19.2741C22.8172 18.0447 23.4315 16.4959 23.2784 14.6278C23.4577 12.8953 23.2937 12.8778 22.7866 14.5753ZM19.0621 22.1484C19.0489 18.8453 18.8151 18.5172 18.3604 21.1641C18.1724 22.2534 17.956 23.0344 17.7112 23.5069C17.6831 23.5627 17.6612 23.6223 17.6472 23.6812C17.6333 23.7401 17.6277 23.7967 17.6309 23.8467C17.634 23.8967 17.6459 23.9388 17.6655 23.9697C17.6851 24.0007 17.712 24.0197 17.744 24.0253C17.9407 24.0472 18.2468 23.7978 18.6621 23.2772C18.9209 22.9586 19.0621 22.56 19.0621 22.1484ZM13.8621 21.3544C13.3899 20.9563 13.3593 21.1269 13.7703 21.8663C13.8621 22.0325 13.908 22.2381 13.908 22.4831C13.9123 22.7369 13.9582 22.9819 14.0457 23.2181C14.0981 23.3538 14.1877 23.4653 14.3145 23.5528C14.7692 23.8766 14.8544 23.7256 14.5703 23.1C14.5308 23.0129 14.5105 22.9157 14.5105 22.8142C14.5105 22.7127 14.5308 22.609 14.5703 22.5094C14.767 21.9844 14.6183 21.6453 14.1244 21.4922C14.0194 21.4572 13.932 21.4113 13.8621 21.3544ZM16.1309 31.7625C15.7069 32.8606 15.4162 33.9938 15.2588 35.1619C15.25 35.2363 15.2478 35.3106 15.2522 35.385C15.3222 36.505 15.4227 36.5028 15.5539 35.3784C15.685 34.2278 15.9866 33.1275 16.4588 32.0775C16.4981 31.99 16.5178 31.9003 16.5178 31.8084C16.5003 31.1566 16.3713 31.1413 16.1309 31.7625Z" fill="#D93872"/>
<path d="M28.0064 5.57813C30.3977 7.44188 31.7179 9.73876 31.9671 12.4688C32.1638 14.6519 31.8272 17.1128 30.9572 19.8516L30.6818 19.6875C30.8917 18.3181 31.0884 16.9488 31.272 15.5794C31.696 12.4031 30.8436 9.70813 28.7146 7.49438C28.3605 7.12251 28.2184 7.09407 28.2884 7.40907C28.319 7.54032 28.4348 7.75251 28.6359 8.04563C28.8239 8.32126 28.966 8.62094 29.0622 8.94469C30.8764 15.1659 30.3452 20.9847 27.4687 26.4009C27.3988 26.5409 27.3223 26.6481 27.2392 26.7225C26.9769 26.9675 26.9922 26.7181 27.2851 25.9744C28.6753 22.4306 29.3026 18.7491 29.1671 14.9297C28.9922 9.93782 26.966 5.94563 23.0884 2.95313C23.5999 2.62938 24.0545 2.66438 24.4523 3.05813C24.8764 3.47813 25.1081 3.70344 25.1474 3.73407C26.0654 4.39907 27.0184 5.01376 28.0064 5.57813Z" fill="white"/>
<path d="M25.7377 2.97937C29.0558 3.84562 31.6656 5.87343 33.5672 9.06281C34.7345 11.0228 35.5388 12.9019 35.9804 14.7C36.3651 16.2444 36.5662 17.0472 36.5836 17.1084C38.2448 22.9316 39.1563 28.8772 39.3181 34.9453C38.9552 34.4728 38.7323 33.9391 38.6492 33.3441C37.9323 28.2516 36.953 23.2137 35.7115 18.2306C34.7104 14.2187 34.0284 11.8169 33.6656 11.025C32.5902 8.65812 30.8765 6.72437 28.5246 5.22375L26.6558 3.95718C26.533 3.87673 26.3258 3.82312 26.0722 3.80625C25.7181 3.78875 25.6066 3.51312 25.7377 2.97937Z" fill="#FFA0C2"/>
<path d="M12.459 5.05969C12.5683 4.39031 13.0054 4.11687 13.7705 4.23937C16.7956 3.87187 19.6481 4.37719 22.3278 5.75531C22.4167 5.80068 22.5165 5.82589 22.6205 5.82929C22.7245 5.83268 22.8303 5.81418 22.9311 5.775C24.0196 5.35937 24.9705 5.50594 25.7836 6.21469C25.8601 6.2809 25.9223 6.36401 25.9663 6.45884C26.0103 6.55368 26.0351 6.65821 26.0393 6.76594C26.0961 8.08281 25.9322 9.37344 25.5475 10.6378C25.4878 10.8381 25.4947 11.0565 25.5672 11.2612C26.2273 13.1644 25.9694 14.9012 24.7934 16.4719C24.6579 16.6556 24.5836 16.6359 24.5705 16.4128C24.4568 14.1247 24.7082 11.8825 25.3246 9.68625C25.6349 8.58375 25.7005 7.77437 25.5213 7.25812C25.1541 6.1775 24.2011 5.84937 22.6623 6.27375C21.141 6.69812 19.8776 6.75062 18.8721 6.43125C17.377 5.95437 15.8404 5.77937 14.2623 5.90625C13.7989 5.94125 13.1978 5.65906 12.459 5.05969Z" fill="white"/>
<path d="M9.20675 7.87499C8.6909 8.85499 8.29527 9.87436 8.01986 10.9331C7.99363 11.025 7.77505 11.5456 7.36412 12.495C7.12806 13.0419 7.09964 13.6434 7.27888 14.2997C7.31822 14.444 7.34008 14.5665 7.34445 14.6672C7.34882 15.2359 7.18707 15.2556 6.85921 14.7262C6.798 14.6212 6.75429 14.5009 6.72806 14.3653C6.61003 13.6784 6.48981 12.9915 6.3674 12.3047C6.28871 11.6134 6.43953 11.0162 6.81986 10.5131C7.20019 10.01 7.40784 9.72998 7.44281 9.67311C7.82751 9.03873 8.25593 8.43498 8.72806 7.86186C8.77619 7.80237 8.8323 7.75528 8.88866 7.72708C8.94503 7.69887 8.99888 7.69094 9.04281 7.70436C9.11276 7.73061 9.1674 7.78748 9.20675 7.87499Z" fill="white"/>
<path d="M21.3836 9.135L20.3803 8.57063C20.2494 8.49874 20.1553 8.40695 20.118 8.31469C20.0175 8.07844 20.1333 8.04344 20.4656 8.20969C21.7202 8.83532 22.682 9.7475 23.3508 10.9463C23.7749 11.7031 23.7639 11.8716 23.318 11.4516C23.0776 11.2241 22.6689 10.6816 22.0918 9.82407C21.882 9.51344 21.6459 9.28375 21.3836 9.135Z" fill="#C87863"/>
<path d="M9.58027 13.8141C10.7999 13.1884 11.1693 13.2037 10.6885 13.86C10.5267 14.0787 10.4174 14.2603 10.3606 14.4047C9.87098 15.5859 9.92563 16.7562 10.5245 17.9156C10.5857 18.0425 10.6163 18.1628 10.6163 18.2766C10.6207 18.8847 10.4371 18.8825 10.0655 18.27C9.26552 16.94 9.02945 15.5487 9.35732 14.0962C9.37163 14.0366 9.39895 13.9805 9.43741 13.9318C9.47588 13.8831 9.5246 13.843 9.58027 13.8141Z" fill="#EAC7BF"/>
<path d="M23.2789 14.6278L22.7871 14.5753C23.2942 12.8778 23.4581 12.8953 23.2789 14.6278Z" fill="#D69A8B"/>
<path d="M22.787 14.5753L23.2788 14.6278C23.4319 16.4959 22.8176 18.0447 21.4362 19.2741C21.2745 19.4184 21.2461 19.3922 21.351 19.1953C22.0329 17.9309 22.3499 16.5769 22.3018 15.1331C22.2974 15.0019 22.2603 14.8772 22.1903 14.7591C21.4821 13.5953 21.681 13.5341 22.787 14.5753Z" fill="white"/>
<path d="M19.0624 22.1484C19.0625 22.56 18.9212 22.9586 18.6624 23.2772C18.2471 23.7978 17.9411 24.0472 17.7444 24.0253C17.7123 24.0197 17.6854 24.0007 17.6658 23.9697C17.6462 23.9387 17.6344 23.8967 17.6312 23.8467C17.6281 23.7967 17.6337 23.7401 17.6476 23.6812C17.6615 23.6223 17.6834 23.5627 17.7116 23.5069C17.9564 23.0344 18.1728 22.2534 18.3608 21.1641C18.8154 18.5172 19.0493 18.8453 19.0624 22.1484Z" fill="white"/>
<path d="M30.6821 19.6875L30.9575 19.8516C30.21 21.8247 30.1182 21.77 30.6821 19.6875Z" fill="#CE8472"/>
<path d="M14.1248 21.4922C14.6188 21.6453 14.7674 21.9844 14.5707 22.5094C14.5313 22.609 14.511 22.7127 14.511 22.8142C14.511 22.9157 14.5313 23.0129 14.5707 23.1C14.8549 23.7256 14.7696 23.8766 14.315 23.5528C14.1882 23.4653 14.0986 23.3537 14.0461 23.2181C13.9587 22.9819 13.9128 22.7369 13.9084 22.4831C13.9084 22.2381 13.8625 22.0325 13.7707 21.8662C13.3598 21.1269 13.3904 20.9562 13.8625 21.3544C13.9325 21.4112 14.0199 21.4572 14.1248 21.4922Z" fill="#EAC7BF"/>
<path d="M16.1314 31.7625C16.3718 31.1412 16.5008 31.1566 16.5182 31.8084C16.5182 31.9003 16.4986 31.99 16.4592 32.0775C15.9871 33.1275 15.6855 34.2278 15.5543 35.3784C15.4232 36.5028 15.3226 36.505 15.2527 35.385C15.2483 35.3106 15.2505 35.2362 15.2592 35.1619C15.4166 33.9937 15.7073 32.8606 16.1314 31.7625Z" fill="#D6B29D"/>
<path d="M9.37027 36.0938C9.88611 35.9931 10.0413 36.2119 9.83584 36.75C9.4118 37.8613 8.53748 38.29 7.21289 38.0363L9.37027 36.0938Z" fill="#D69A8B"/>
<defs>
<linearGradient id="paint0_linear_788_30667" x1="21.9672" y1="31.5" x2="21.9672" y2="60.375" gradientUnits="userSpaceOnUse">
<stop stop-color="#D9D9D9"/>
<stop offset="1" stop-color="#D93872"/>
</linearGradient>
</defs>
</svg>
