<svg id="Teamwork_5" xmlns="http://www.w3.org/2000/svg" width="453.771" height="386.241" viewBox="0 0 453.771 386.241">
  <g id="Group_346" data-name="Group 346" transform="translate(202.424 36.752)">
    <g id="Group_339" data-name="Group 339" transform="translate(134.861 181.54)">
      <path id="Path_1147" data-name="Path 1147" d="M1451.95,1076.5h-36.024l-33.226,60.859,15.939,2.932a39.354,39.354,0,0,0,13.479.1h0a38.421,38.421,0,0,0,30.767-28.408Z" transform="translate(-1363.997 -1076.031)" fill="#5b5f75"/>
      <path id="Path_1147_-_Outline" data-name="Path 1147 - Outline" d="M1415.263,1075.5h36.023a.337.337,0,0,1,.327.42l-9.065,35.484a38.758,38.758,0,0,1-31.036,28.656h0a39.7,39.7,0,0,1-13.594-.1l-15.94-2.932a.337.337,0,0,1-.235-.493l33.226-60.859A.338.338,0,0,1,1415.263,1075.5Zm35.59.674h-35.39l-32.908,60.275,15.481,2.848a39.03,39.03,0,0,0,13.362.1,38.067,38.067,0,0,0,30.5-28.158Z" transform="translate(-1363.334 -1075.368)" fill="#141414"/>
      <path id="Path_1148" data-name="Path 1148" d="M1408.1,1081.328l-8.054,35.35a24.73,24.73,0,0,1-24.094,19.208H1328.2v12.772h58.332a24.721,24.721,0,0,0,24.061-19.073l10.615-45.223a6.719,6.719,0,0,0-5.358-8.155h0A6.746,6.746,0,0,0,1408.1,1081.328Z" transform="translate(-1327.863 -1075.771)" fill="#5b5f75"/>
      <path id="Path_1148_-_Outline" data-name="Path 1148 - Outline" d="M1414.024,1075.108h0a7.3,7.3,0,0,1,1.219.1h0a7.057,7.057,0,0,1,5.628,8.564L1410.257,1129a25.043,25.043,0,0,1-24.388,19.333h-58.332a.337.337,0,0,1-.337-.337v-12.771a.337.337,0,0,1,.337-.337h47.751a24.374,24.374,0,0,0,23.766-18.946l8.054-35.349a6.924,6.924,0,0,1,.926-2.227,7,7,0,0,1,1.577-1.733,7.149,7.149,0,0,1,4.414-1.523Zm1.1.767a6.61,6.61,0,0,0-1.1-.094,6.5,6.5,0,0,0-4,1.379,6.321,6.321,0,0,0-1.425,1.566,6.245,6.245,0,0,0-.836,2.012l-8.054,35.351a25.052,25.052,0,0,1-24.423,19.47h-47.414v12.1h58a24.375,24.375,0,0,0,23.733-18.813l10.615-45.223a6.368,6.368,0,0,0-5.087-7.746Z" transform="translate(-1327.2 -1075.108)" fill="#141414"/>
      <g id="Group_338" data-name="Group 338" transform="translate(5.83 72.574)">
        <rect id="Rectangle_577" data-name="Rectangle 577" width="12.94" height="75.114" transform="translate(35.55 80.541) rotate(180)" fill="#5b5f75"/>
        <path id="Rectangle_577_-_Outline" data-name="Rectangle 577 - Outline" d="M.337,0h12.94a.337.337,0,0,1,.337.337V75.451a.337.337,0,0,1-.337.337H.337A.337.337,0,0,1,0,75.451V.337A.337.337,0,0,1,.337,0Zm12.6.674H.674v74.44H12.94Z" transform="translate(35.887 80.878) rotate(180)" fill="#141414"/>
        <path id="Path_1149" data-name="Path 1149" d="M1394.748,1537.21h22.51a1.352,1.352,0,0,0,1.348-1.348v-7.515a1.352,1.352,0,0,0-1.348-1.348h-22.51a1.352,1.352,0,0,0-1.348,1.348v7.515A1.352,1.352,0,0,0,1394.748,1537.21Z" transform="translate(-1376.921 -1447.294)" fill="#313441"/>
        <path id="Path_1149_-_Outline" data-name="Path 1149 - Outline" d="M1416.6,1536.884h-22.51a1.687,1.687,0,0,1-1.685-1.685v-7.515a1.687,1.687,0,0,1,1.685-1.685h22.51a1.687,1.687,0,0,1,1.685,1.685v7.515A1.687,1.687,0,0,1,1416.6,1536.884Zm-22.51-10.211a1.012,1.012,0,0,0-1.011,1.011v7.515a1.012,1.012,0,0,0,1.011,1.011h22.51a1.012,1.012,0,0,0,1.011-1.011v-7.515a1.012,1.012,0,0,0-1.011-1.011Z" transform="translate(-1376.258 -1446.631)" fill="#141414"/>
        <rect id="Rectangle_578" data-name="Rectangle 578" width="21.331" height="7.313" transform="translate(39.762 7.65) rotate(180)" fill="#313441"/>
        <path id="Rectangle_578_-_Outline" data-name="Rectangle 578 - Outline" d="M.337,0H21.668a.337.337,0,0,1,.337.337V7.65a.337.337,0,0,1-.337.337H.337A.337.337,0,0,1,0,7.65V.337A.337.337,0,0,1,.337,0ZM21.331.674H.674V7.313H21.331Z" transform="translate(40.099 7.986) rotate(180)" fill="#141414"/>
        <path id="Path_1150" data-name="Path 1150" d="M1346.848,1552.311h54.76a1.352,1.352,0,0,0,1.348-1.348v-7.515a1.352,1.352,0,0,0-1.348-1.348h-54.76a1.352,1.352,0,0,0-1.348,1.348v7.515A1.352,1.352,0,0,0,1346.848,1552.311Z" transform="translate(-1345.163 -1457.306)" fill="#313441"/>
        <path id="Path_1150_-_Outline" data-name="Path 1150 - Outline" d="M1400.944,1551.984h-54.76a1.687,1.687,0,0,1-1.685-1.685v-7.515a1.687,1.687,0,0,1,1.685-1.685h54.76a1.687,1.687,0,0,1,1.685,1.685v7.515A1.687,1.687,0,0,1,1400.944,1551.984Zm-54.76-10.211a1.012,1.012,0,0,0-1.011,1.011v7.515a1.012,1.012,0,0,0,1.011,1.011h54.76a1.012,1.012,0,0,0,1.011-1.011v-7.515a1.012,1.012,0,0,0-1.011-1.011Z" transform="translate(-1344.5 -1456.642)" fill="#141414"/>
      </g>
    </g>
    <path id="Path_1151" data-name="Path 1151" d="M1099.214,1010.7v20.556l-37.136,11.761a36.389,36.389,0,0,0-24.431,26.453L1005.6,1178.18h44.482l25.948-82.561,7.009,82.561h41.988l4.482-85.358h8.863a50.039,50.039,0,0,0,49.975-47.514l1.752-34.574h-90.884Z" transform="translate(-979.113 -850.864)" fill="#1a1f20"/>
    <path id="Path_1151_-_Outline" data-name="Path 1151 - Outline" d="M1098.551,1009.7a.336.336,0,0,1,.147.034h90.737a.337.337,0,0,1,.337.354l-1.752,34.574a50.731,50.731,0,0,1-1.451,9.75,50.151,50.151,0,0,1-7.989,17.163,50.5,50.5,0,0,1-21.88,17.216,50.158,50.158,0,0,1-9.181,2.749,50.717,50.717,0,0,1-9.81.956h-8.543l-4.465,85.039a.337.337,0,0,1-.336.319h-41.988a.337.337,0,0,1-.336-.308l-6.865-80.857-25.435,80.93a.337.337,0,0,1-.322.236h-44.482a.337.337,0,0,1-.323-.432l32.044-108.7a36.7,36.7,0,0,1,24.655-26.688l36.9-11.686v-20.309A.337.337,0,0,1,1098.551,1009.7Zm90.53.708h-90.193v20.185a.337.337,0,0,1-.235.321l-37.136,11.761a36.044,36.044,0,0,0-24.2,26.208c0,.006,0,.013,0,.019l-31.92,108.279h43.784l25.874-82.325a.337.337,0,0,1,.657.073l6.983,82.252h41.359l4.465-85.039a.337.337,0,0,1,.336-.319h8.863a50.036,50.036,0,0,0,9.68-.943,49.447,49.447,0,0,0,17.308-7.017,49.621,49.621,0,0,0,22.651-39.234Z" transform="translate(-978.45 -850.201)" fill="#141414"/>
    <g id="Group_340" data-name="Group 340" transform="translate(74.911 326.946)">
      <path id="Path_1152" data-name="Path 1152" d="M1215.54,1529.436h-57.894a7.364,7.364,0,0,1-7.346-7.346,7.312,7.312,0,0,1,5.089-6.976l11.626-3.707,11.929-3.808h42.022l1.584,11.559.269,1.988A7.319,7.319,0,0,1,1215.54,1529.436Z" transform="translate(-1149.963 -1507.263)" fill="#31383f"/>
      <path id="Path_1152_-_Outline" data-name="Path 1152 - Outline" d="M1214.877,1529.11h-57.894a7.667,7.667,0,0,1-2.991-.6,7.862,7.862,0,0,1-4.093-4.093,7.684,7.684,0,0,1,4.723-10.287l11.627-3.707,11.929-3.808a.336.336,0,0,1,.1-.016H1220.3a.337.337,0,0,1,.334.292l1.584,11.558.27,1.989a7.5,7.5,0,0,1-.263,3.273,7.683,7.683,0,0,1-7.349,5.4Zm-36.544-21.837-11.879,3.792-11.626,3.707a7.01,7.01,0,0,0-4.307,9.384,6.727,6.727,0,0,0,1.508,2.219l.006.006a6.723,6.723,0,0,0,2.219,1.509,6.994,6.994,0,0,0,2.729.547h57.894a7.015,7.015,0,0,0,6.706-4.924,6.838,6.838,0,0,0,.239-2.983l-.27-1.989-1.544-11.267Z" transform="translate(-1149.3 -1506.6)" fill="#141414"/>
    </g>
    <g id="Group_341" data-name="Group 341" transform="translate(0 326.946)">
      <path id="Path_1153" data-name="Path 1153" d="M993.24,1529.436H935.346A7.364,7.364,0,0,1,928,1522.09a7.312,7.312,0,0,1,5.089-6.976l11.626-3.707,9.435-3.808h44.482l1.584,11.559.27,1.988A7.3,7.3,0,0,1,993.24,1529.436Z" transform="translate(-927.663 -1507.263)" fill="#31383f"/>
      <path id="Path_1153_-_Outline" data-name="Path 1153 - Outline" d="M992.577,1529.11H934.683a7.668,7.668,0,0,1-2.991-.6,7.861,7.861,0,0,1-4.093-4.093,7.684,7.684,0,0,1,4.723-10.287l11.615-3.7,9.424-3.8a.336.336,0,0,1,.126-.025h44.482a.337.337,0,0,1,.334.292l1.584,11.558.27,1.989a7.63,7.63,0,0,1-7.579,8.672Zm-39.025-21.837-9.375,3.783-.024.009-11.626,3.707a7.01,7.01,0,0,0-4.307,9.384,6.726,6.726,0,0,0,1.509,2.219l.006.006a6.723,6.723,0,0,0,2.219,1.509,6.993,6.993,0,0,0,2.729.547h57.894a6.946,6.946,0,0,0,6.911-7.906l-.27-1.989-1.544-11.267Z" transform="translate(-927 -1506.6)" fill="#141414"/>
    </g>
    <g id="Group_345" data-name="Group 345" transform="translate(88.624)">
      <path id="Path_1154" data-name="Path 1154" d="M1340.293,548.107c-6.2-17.119-42.392-15.03-44.92,15.7s-21.8,43,3.437,57.018,54.187,6.133,57.759-10.143.135-19.242.741-38.82S1354.177,546.321,1340.293,548.107Z" transform="translate(-1253.618 -537.049)" fill="#5b5f75"/>
      <path id="Path_1154_-_Outline" data-name="Path 1154 - Outline" d="M1321.55,536.386a25.028,25.028,0,0,1,5.98.709,20.9,20.9,0,0,1,5.331,2.094,16.7,16.7,0,0,1,4.278,3.43,14.57,14.57,0,0,1,2.712,4.457,32.908,32.908,0,0,1,4.019-.27h0a16.056,16.056,0,0,1,5.184.74,9.3,9.3,0,0,1,3.8,2.358,11.018,11.018,0,0,1,2.164,3.32,20.56,20.56,0,0,1,1.332,4.6,44.543,44.543,0,0,1,.621,5.961c.1,2.173.1,4.6.015,7.431a143.963,143.963,0,0,0,.5,17.357,83.6,83.6,0,0,1,.378,9.581,64.838,64.838,0,0,1-1.629,11.945,17.1,17.1,0,0,1-3.614,7.256,24.241,24.241,0,0,1-6.821,5.571,35.879,35.879,0,0,1-9.283,3.573,47.243,47.243,0,0,1-11.029,1.263,54.853,54.853,0,0,1-13.606-1.746,58.652,58.652,0,0,1-13.9-5.551,33.876,33.876,0,0,1-9.254-6.994,14.555,14.555,0,0,1-3.573-7.352,21.164,21.164,0,0,1,.5-8.13c.648-2.881,1.7-6.05,2.822-9.4,1.133-3.4,2.417-7.253,3.5-11.466a83.386,83.386,0,0,0,2.4-13.995,32.826,32.826,0,0,1,3.185-11.963,26.193,26.193,0,0,1,14.864-13.193,27.558,27.558,0,0,1,4.554-1.187A27.2,27.2,0,0,1,1321.55,536.386Zm18.079,11.395a.337.337,0,0,1-.317-.222,13.889,13.889,0,0,0-2.677-4.493,16.041,16.041,0,0,0-4.107-3.29,20.22,20.22,0,0,0-5.159-2.025,24.352,24.352,0,0,0-5.819-.69,26.54,26.54,0,0,0-4.46.381,26.9,26.9,0,0,0-4.443,1.158,25.521,25.521,0,0,0-14.486,12.858,32.16,32.16,0,0,0-3.117,11.718,84.026,84.026,0,0,1-2.418,14.107c-1.086,4.236-2.374,8.1-3.51,11.511-1.112,3.338-2.163,6.491-2.8,9.339a20.53,20.53,0,0,0-.493,7.873,13.9,13.9,0,0,0,3.417,7.018,33.227,33.227,0,0,0,9.072,6.847,57.974,57.974,0,0,0,13.739,5.487,54.177,54.177,0,0,0,13.439,1.724,46.565,46.565,0,0,0,10.871-1.244,35.2,35.2,0,0,0,9.109-3.5,23.563,23.563,0,0,0,6.633-5.413,16.428,16.428,0,0,0,3.475-6.971,64.219,64.219,0,0,0,1.614-11.822,83.133,83.133,0,0,0-.377-9.507,144.48,144.48,0,0,1-.5-17.43c.087-2.81.082-5.224-.015-7.38a43.875,43.875,0,0,0-.61-5.87,19.914,19.914,0,0,0-1.286-4.446,10.358,10.358,0,0,0-2.031-3.121,8.646,8.646,0,0,0-3.528-2.189,15.4,15.4,0,0,0-4.967-.7h0a32.852,32.852,0,0,0-4.2.3Z" transform="translate(-1252.954 -536.386)" fill="#141414"/>
      <path id="Path_1155" data-name="Path 1155" d="M1200.026,918.1l-8.054,19.141a12.485,12.485,0,0,0,4.617,15.265h0a12.513,12.513,0,0,0,16.546-2.46l16.377-19.848-29.486-12.1" transform="translate(-1190.655 -789.469)" fill="#fff"/>
      <path id="Path_1155_-_Outline" data-name="Path 1155 - Outline" d="M1202.811,954.259h0A12.832,12.832,0,0,1,1191,936.447l8.054-19.141a.337.337,0,0,1,.438-.181l29.486,12.1a.337.337,0,0,1,.132.526L1212.731,949.6a12.881,12.881,0,0,1-9.92,4.662Zm-3.268-36.384-7.924,18.833a12.181,12.181,0,0,0,1.411,11.934,12.216,12.216,0,0,0,9.78,4.944h0a12.186,12.186,0,0,0,9.4-4.418l16.086-19.495Z" transform="translate(-1189.992 -788.806)" fill="#141414"/>
      <path id="Path_1156" data-name="Path 1156" d="M1305.787,734.876l17.557,3.5a18.721,18.721,0,0,1,13.783,11.525l17.456,44.482s-18.062.472-25.678,11.121l1.786,21.1h-90.884s1.18-4.28-.606-11.39-2.7-11.9-2.7-11.9l-18.8-7.919,12.131-40.034a18.714,18.714,0,0,1,12.637-12.536l20.724-6.1a88.823,88.823,0,0,1,16.512-3.2h0A90.186,90.186,0,0,1,1305.787,734.876Z" transform="translate(-1208.363 -666.834)" fill="#acd3f7"/>
      <path id="Path_1156_-_Outline" data-name="Path 1156 - Outline" d="M1287.523,732.136a89.954,89.954,0,0,1,17.668,1.747l17.556,3.5a19.049,19.049,0,0,1,14.03,11.732l17.456,44.482a.337.337,0,0,1-.3.46c-.011,0-1.144.032-2.926.24a50.687,50.687,0,0,0-6.995,1.32,36.38,36.38,0,0,0-8.385,3.292,21.479,21.479,0,0,0-7.036,6.027l1.775,20.971a.337.337,0,0,1-.336.365h-90.884a.337.337,0,0,1-.325-.427,14.554,14.554,0,0,0,.356-2.981,26.082,26.082,0,0,0-.126-3.528,33.079,33.079,0,0,0-.838-4.709c-1.578-6.282-2.483-10.8-2.666-11.737l-18.638-7.849a.337.337,0,0,1-.192-.408l12.131-40.034a19.06,19.06,0,0,1,12.864-12.761l20.725-6.1a89.377,89.377,0,0,1,16.575-3.213C1281.841,732.268,1284.705,732.136,1287.523,732.136Zm65.911,61.273-17.284-44.043a18.387,18.387,0,0,0-13.535-11.317l-17.557-3.5a89.28,89.28,0,0,0-17.536-1.734c-2.8,0-5.64.132-8.45.391a88.708,88.708,0,0,0-16.448,3.189l-20.724,6.1a18.363,18.363,0,0,0-12.409,12.31l-12.044,39.744,18.524,7.8a.337.337,0,0,1,.2.248c.009.048.929,4.858,2.692,11.876a33.719,33.719,0,0,1,.857,4.828,26.691,26.691,0,0,1,.126,3.628,17.537,17.537,0,0,1-.283,2.679h90.1l-1.755-20.73a.338.338,0,0,1,.062-.224,22.073,22.073,0,0,1,7.335-6.328,37.069,37.069,0,0,1,8.548-3.355,51.173,51.173,0,0,1,7.089-1.336C1352.074,793.5,1352.937,793.437,1353.433,793.409Z" transform="translate(-1207.7 -666.171)" fill="#141414"/>
      <g id="Group_344" data-name="Group 344" transform="translate(46.641 16.247)">
        <path id="Path_1157" data-name="Path 1157" d="M1397.723,682.4v18.2s-4.616,6.032-14.793,5.661c-8.593-.3-9.166-4.179-9.132-5.324a1.525,1.525,0,0,1,.034-.337v-7.312Z" transform="translate(-1358.498 -649.443)" fill="#fff"/>
        <path id="Path_1157_-_Outline" data-name="Path 1157 - Outline" d="M1397.06,681.4a.337.337,0,0,1,.337.337v18.2a.337.337,0,0,1-.069.2,13.706,13.706,0,0,1-3.457,2.92,18.555,18.555,0,0,1-4.41,1.988,21.64,21.64,0,0,1-6.3.9c-.3,0-.6-.006-.908-.017-3.755-.132-6.454-.953-8.021-2.438a4.611,4.611,0,0,1-1.213-1.84,3.948,3.948,0,0,1-.223-1.388,2,2,0,0,1,.034-.367v-7.277a.337.337,0,0,1,.2-.307l23.892-10.885A.338.338,0,0,1,1397.06,681.4Zm-.337,18.414V682.261l-23.218,10.578v7.1a.3.3,0,0,1-.01.081,1.277,1.277,0,0,0-.024.256s0,.007,0,.01A3.633,3.633,0,0,0,1374.7,703a7.017,7.017,0,0,0,2.62,1.473,17.8,17.8,0,0,0,4.961.781c.3.011.592.016.884.016a20.983,20.983,0,0,0,6.082-.866,17.9,17.9,0,0,0,4.243-1.9,15.443,15.443,0,0,0,2.492-1.907A9.779,9.779,0,0,0,1396.723,699.814Z" transform="translate(-1357.835 -648.78)" fill="#141414"/>
        <path id="Path_1158" data-name="Path 1158" d="M1397.726,682.4v4.01a36.382,36.382,0,0,1-23.926,14.524,1.536,1.536,0,0,1,.034-.337v-7.312Z" transform="translate(-1358.501 -649.443)" fill="#31383f"/>
        <path id="Path_1159" data-name="Path 1159" d="M1338.3,597.563c.2,3.943.944,5.56.505,10.649s.607,20.286,11.255,22.039a25.686,25.686,0,0,0,28.644-18.534c4.145,2.325,8.761-3.842,6.773-7.178s-5.863-1.382-7.009,1.247a40,40,0,0,0-1.483,3.741,157.73,157.73,0,0,1-4.414-15.771,52.756,52.756,0,0,1-1.146-8.155A62.124,62.124,0,0,1,1338.3,597.563Z" transform="translate(-1334.964 -585.263)" fill="#fff"/>
        <path id="Path_1159_-_Outline" data-name="Path 1159 - Outline" d="M1370.762,584.6a.337.337,0,0,1,.337.337h0a53.651,53.651,0,0,0,1.14,8.093,147.068,147.068,0,0,0,4.095,14.79c.23-.612.6-1.538,1.163-2.831a5.68,5.68,0,0,1,1.833-2.256,4.617,4.617,0,0,1,2.675-.958,3.259,3.259,0,0,1,1.685.457,4.119,4.119,0,0,1,1.414,1.472,4.032,4.032,0,0,1,.5,2.447,6.322,6.322,0,0,1-.825,2.517,7.06,7.06,0,0,1-2.04,2.279,4.882,4.882,0,0,1-2.8.956,4.122,4.122,0,0,1-1.692-.365,26.413,26.413,0,0,1-3.948,8.068,25.225,25.225,0,0,1-6.129,5.954,26.735,26.735,0,0,1-14.992,4.669,23.729,23.729,0,0,1-3.84-.308,11.022,11.022,0,0,1-6.508-3.573,17.747,17.747,0,0,1-3.543-6.422,34.054,34.054,0,0,1-1.486-12.4,29.87,29.87,0,0,0-.179-7.143c-.127-1.037-.258-2.11-.327-3.46a.337.337,0,0,1,.319-.354,59.474,59.474,0,0,0,13.416-2.3,64.331,64.331,0,0,0,10.408-4.042,52.693,52.693,0,0,0,9.106-5.549A.336.336,0,0,1,1370.762,584.6Zm5.56,24.6a.337.337,0,0,1-.319-.23c-.008-.024-.83-2.476-1.781-5.634-.879-2.917-2.051-7.051-2.646-10.182a69.335,69.335,0,0,1-1.119-7.557c-.407.3-1.048.768-1.912,1.342a61.434,61.434,0,0,1-6.8,3.889,65.009,65.009,0,0,1-10.517,4.084,60.2,60.2,0,0,1-13.231,2.3c.071,1.172.189,2.14.3,3.078a30.445,30.445,0,0,1,.182,7.282,31.3,31.3,0,0,0,.076,5.284,31.633,31.633,0,0,0,1.378,6.852,17.08,17.08,0,0,0,3.4,6.18,10.817,10.817,0,0,0,2.67,2.159,10.385,10.385,0,0,0,3.448,1.2,23.057,23.057,0,0,0,3.731.3A26.085,26.085,0,0,0,1367.794,625a24.551,24.551,0,0,0,5.965-5.795,25.83,25.83,0,0,0,3.957-8.246.337.337,0,0,1,.489-.2,3.522,3.522,0,0,0,1.738.468,4.215,4.215,0,0,0,2.41-.832,6.385,6.385,0,0,0,1.843-2.062,5.642,5.642,0,0,0,.739-2.245,3.364,3.364,0,0,0-.411-2.041,3.455,3.455,0,0,0-1.179-1.237,2.594,2.594,0,0,0-1.342-.363,3.944,3.944,0,0,0-2.276.827,5,5,0,0,0-1.615,1.982c-1.121,2.572-1.466,3.693-1.469,3.7a.337.337,0,0,1-.317.239Z" transform="translate(-1334.301 -584.6)" fill="#141414"/>
        <path id="Path_1160" data-name="Path 1160" d="M1367.373,652.015a.335.335,0,0,1-.129-.026l-1.38-.572a2.072,2.072,0,0,1-1.1-1.02,2,2,0,0,1-.107-1.48l2.156-7.276a.337.337,0,0,1,.646.192l-2.157,7.279,0,.007a1.326,1.326,0,0,0,.071.985,1.4,1.4,0,0,0,.744.689l0,0,1.382.573a.337.337,0,0,1-.129.648Z" transform="translate(-1352.377 -622.259)" fill="#141414"/>
        <path id="Path_1161" data-name="Path 1161" d="M1461.977,648.855a.337.337,0,0,1-.313-.213,2.321,2.321,0,0,1,.054-1.8,3.352,3.352,0,0,1,1.048-1.324c.7-.532,1.42-.648,1.875-.3a.337.337,0,0,1-.408.537c-.191-.146-.637-.019-1.06.3a2.7,2.7,0,0,0-.835,1.052,1.676,1.676,0,0,0-.048,1.286.337.337,0,0,1-.313.461Z" transform="translate(-1416.652 -624.659)" fill="#141414"/>
        <g id="Group_342" data-name="Group 342" transform="translate(16.007 33.462)">
          <path id="Path_1162" data-name="Path 1162" d="M1376.9,686.012a4.387,4.387,0,0,0,4.785,3.808h.168a4.384,4.384,0,0,0,3.572-2.9,4.086,4.086,0,0,0,.2-2.022Z" transform="translate(-1376.563 -684.563)" fill="#31383f"/>
          <path id="Path_1163" data-name="Path 1163" d="M1390.864,692.958c0,.1.034.168.034.27h.168a4.383,4.383,0,0,0,3.572-2.9,2.716,2.716,0,0,0-1.55-.27A2.609,2.609,0,0,0,1390.864,692.958Z" transform="translate(-1385.809 -687.97)" fill="#fff"/>
          <path id="Path_1164" data-name="Path 1164" d="M1384.965,683.9a.337.337,0,0,1,.333.289,4.438,4.438,0,0,1-.218,2.181,4.554,4.554,0,0,1-1.449,2.079,4.848,4.848,0,0,1-2.395,1.042.357.357,0,0,1-.047,0h-.152c-.152.015-.305.022-.457.022a4.724,4.724,0,0,1-4.679-4.124.337.337,0,0,1,.292-.377l8.728-1.112Zm-3.8,4.92a4.172,4.172,0,0,0,2.039-.893,3.877,3.877,0,0,0,1.237-1.775l0-.01a3.722,3.722,0,0,0,.219-1.527l-8.037,1.024a4.05,4.05,0,0,0,3.954,3.2c.135,0,.272-.007.407-.02l.033,0Z" transform="translate(-1375.9 -683.9)" fill="#141414"/>
        </g>
        <circle id="Ellipse_16" data-name="Ellipse 16" cx="1.281" cy="1.281" r="1.281" transform="translate(21.87 20.859)" fill="#141414"/>
        <circle id="Ellipse_17" data-name="Ellipse 17" cx="1.281" cy="1.281" r="1.281" transform="translate(6.672 20.859)" fill="#141414"/>
        <path id="Path_1165" data-name="Path 1165" d="M1394.176,630.637a.337.337,0,0,1-.182-.054,5.775,5.775,0,0,0-2.245-.851,7.1,7.1,0,0,0-2.072-.009,7.877,7.877,0,0,0-2.1.577.337.337,0,1,1-.29-.608,8.462,8.462,0,0,1,2.294-.636,7.78,7.78,0,0,1,2.268.01,6.45,6.45,0,0,1,2.505.95.337.337,0,0,1-.183.62Z" transform="translate(-1367.319 -614.023)" fill="#141414"/>
        <path id="Path_1166" data-name="Path 1166" d="M1341.337,630.637a.337.337,0,0,1-.183-.62,6.447,6.447,0,0,1,2.505-.95,7.775,7.775,0,0,1,2.268-.011,8.453,8.453,0,0,1,2.294.636.337.337,0,0,1-.29.608,7.951,7.951,0,0,0-2.117-.58,7.088,7.088,0,0,0-2.063.013,5.775,5.775,0,0,0-2.233.849A.336.336,0,0,1,1341.337,630.637Z" transform="translate(-1336.754 -614.023)" fill="#141414"/>
        <g id="Group_343" data-name="Group 343" transform="translate(0 18.264)">
          <path id="Ellipse_18" data-name="Ellipse 18" d="M5.066-1A6.064,6.064,0,0,1,9.355,9.355,6.066,6.066,0,1,1,2.7-.523,6.028,6.028,0,0,1,5.066-1Zm0,11.457a5.392,5.392,0,0,0,3.813-9.2A5.392,5.392,0,1,0,1.253,8.878,5.356,5.356,0,0,0,5.066,10.457Z" transform="translate(1 1)" fill="#141414"/>
          <path id="Ellipse_19" data-name="Ellipse 19" d="M5.066-1A6.064,6.064,0,0,1,9.355,9.355,6.066,6.066,0,1,1,2.7-.523,6.028,6.028,0,0,1,5.066-1Zm0,11.457a5.392,5.392,0,0,0,3.813-9.2A5.392,5.392,0,1,0,1.253,8.878,5.356,5.356,0,0,0,5.066,10.457Z" transform="translate(17.243 1)" fill="#141414"/>
          <path id="Line_55" data-name="Line 55" d="M4.931-.326H-.663A.337.337,0,0,1-1-.663.337.337,0,0,1-.663-1H4.931a.337.337,0,0,1,.337.337A.337.337,0,0,1,4.931-.326Z" transform="translate(12.053 4.707)" fill="#141414"/>
          <path id="Line_56" data-name="Line 56" d="M13.052-.326H-.663A.337.337,0,0,1-1-.663.337.337,0,0,1-.663-1H13.052a.337.337,0,0,1,.337.337A.337.337,0,0,1,13.052-.326Z" transform="translate(27.925 3.864)" fill="#141414"/>
        </g>
      </g>
      <path id="Path_1167" data-name="Path 1167" d="M1424.771,883.5l1.18,3.2-25.611-13.715s-7.616-17.388-15-20.758-9.941-.371-10.143,1.954c-5.526-1.348-7.245,2.157-5.964,4.111-3.875-1.045-5.56.236-5.088,3.5.371,2.494,10.581,4.179,13.109,7.481s5.156,15.3,10.446,17.456c3.437,1.415,21.23,17.152,33.26,28a21.945,21.945,0,0,0,24.8,3.2h0a21.954,21.954,0,0,0,11.154-25l-5.257-20.556S1433.6,870.326,1424.771,883.5Z" transform="translate(-1305.409 -744.795)" fill="#fff"/>
      <path id="Path_1167_-_Outline" data-name="Path 1167 - Outline" d="M1378.973,849.721a14.575,14.575,0,0,1,5.849,1.54,17.1,17.1,0,0,1,5.576,4.756,54.643,54.643,0,0,1,4.84,7.022,96.29,96.29,0,0,1,4.7,9.045l24.727,13.242-.873-2.369a.338.338,0,0,1,.036-.3,23.236,23.236,0,0,1,5.95-6.08,27.059,27.059,0,0,1,6.827-3.435,36.734,36.734,0,0,1,11.7-1.87h0a26.559,26.559,0,0,1,2.735.118.337.337,0,0,1,.288.251l5.257,20.556a22.285,22.285,0,0,1-36.508,22.137c-5.359-4.833-13.151-11.8-19.846-17.534-3.426-2.935-6.266-5.293-8.442-7.008a29.6,29.6,0,0,0-4.875-3.4c-1.623-.662-3.135-2.239-4.62-4.821a61.143,61.143,0,0,1-3.291-7.15,28.947,28.947,0,0,0-2.675-5.592c-1.2-1.57-4.379-2.819-7.182-3.921a40.545,40.545,0,0,1-3.955-1.7,6.732,6.732,0,0,1-1.36-.906,1.9,1.9,0,0,1-.677-1.106,4.039,4.039,0,0,1,.622-3.3,3.127,3.127,0,0,1,2.487-.943,8.35,8.35,0,0,1,1.709.2,2.929,2.929,0,0,1,.227-2.283,3.474,3.474,0,0,1,1.473-1.411,5.527,5.527,0,0,1,2.575-.563,9.715,9.715,0,0,1,2.01.227,3.953,3.953,0,0,1,1.168-2.158,4.229,4.229,0,0,1,1.464-.893A6.046,6.046,0,0,1,1378.973,849.721Zm46.316,36.657a.338.338,0,0,1-.159-.04l-25.611-13.715a.339.339,0,0,1-.15-.162,94.753,94.753,0,0,0-4.715-9.085,53.924,53.924,0,0,0-4.777-6.93,16.461,16.461,0,0,0-5.335-4.571,13.93,13.93,0,0,0-5.57-1.479,5.379,5.379,0,0,0-1.854.3,3.563,3.563,0,0,0-1.232.749,3.3,3.3,0,0,0-1.011,2.108.337.337,0,0,1-.416.3,9.429,9.429,0,0,0-2.214-.291,4.866,4.866,0,0,0-2.264.486,2.805,2.805,0,0,0-1.192,1.133,2.216,2.216,0,0,0,.066,2.271.337.337,0,0,1-.369.51,8.761,8.761,0,0,0-2.225-.344,2.5,2.5,0,0,0-1.978.71,3.43,3.43,0,0,0-.464,2.766c.066.443.634.953,1.687,1.514a40.181,40.181,0,0,0,3.885,1.672c1.467.577,2.984,1.173,4.309,1.839a9.064,9.064,0,0,1,3.162,2.3,29.111,29.111,0,0,1,2.764,5.746c1.865,4.559,4.185,10.234,7.543,11.6a29.305,29.305,0,0,1,5.037,3.494c2.183,1.721,5.03,4.084,8.463,7.025,6.7,5.74,14.5,12.71,19.859,17.546a21.614,21.614,0,0,0,35.4-21.469l-5.2-20.327c-.388-.033-1.247-.092-2.43-.092h0a36.054,36.054,0,0,0-11.478,1.834,23.811,23.811,0,0,0-12.339,9.111l1.12,3.039a.337.337,0,0,1-.316.453Z" transform="translate(-1304.747 -744.132)" fill="#141414"/>
      <path id="Line_57" data-name="Line 57" d="M9.783,4.392a.336.336,0,0,1-.139-.03L-.8-.356A.337.337,0,0,1-.97-.8.337.337,0,0,1-.524-.97L9.922,3.747a.337.337,0,0,1-.139.644Z" transform="translate(121.239 142.571)" fill="#141414"/>
      <path id="Path_1168" data-name="Path 1168" d="M1411.836,873.445a.337.337,0,0,1-.309-.2,20.1,20.1,0,0,0-4.133-6.023,25.157,25.157,0,0,0-4.981-3.877,26.521,26.521,0,0,0-5.964-2.683.337.337,0,1,1,.176-.651,19.049,19.049,0,0,1,1.819.628,29.525,29.525,0,0,1,4.3,2.117,25.837,25.837,0,0,1,5.123,3.983,20.77,20.77,0,0,1,4.279,6.234.337.337,0,0,1-.308.473Z" transform="translate(-1326.711 -750.948)" fill="#141414"/>
      <path id="Path_1169" data-name="Path 1169" d="M1394.945,884.973a.337.337,0,0,1-.3-.183,30.769,30.769,0,0,0-1.783-2.925,25.151,25.151,0,0,0-4.633-5.223,15.5,15.5,0,0,0-3.069-1.9,22.89,22.89,0,0,0-3.074-1.191,23.679,23.679,0,0,0-3.3-.784.337.337,0,1,1,.094-.667,23.942,23.942,0,0,1,3.4.808,23.6,23.6,0,0,1,3.165,1.226,16.18,16.18,0,0,1,3.2,1.98,21.1,21.1,0,0,1,2.695,2.655,32.975,32.975,0,0,1,3.9,5.71.337.337,0,0,1-.3.491Z" transform="translate(-1314.976 -758.97)" fill="#141414"/>
      <path id="Line_58" data-name="Line 58" d="M10.457,28.014a.337.337,0,0,1-.314-.214L-.977-.54A.337.337,0,0,1-.786-.977a.337.337,0,0,1,.437.191l11.12,28.34a.337.337,0,0,1-.314.46Z" transform="translate(105.838 103.65)"/>
      <path id="Path_1170" data-name="Path 1170" d="M1271.533,872.6a.337.337,0,0,1-.337-.333,32.8,32.8,0,0,1,1.231-9.176,70.356,70.356,0,0,1,2.721-7.659c1.4-3.5,2.729-6.811,2.956-10.217a.337.337,0,1,1,.672.045c-.234,3.513-1.579,6.87-3,10.423a69.863,69.863,0,0,0-2.7,7.587,32.139,32.139,0,0,0-1.207,8.99.337.337,0,0,1-.333.341Z" transform="translate(-1243.83 -740.936)"/>
    </g>
    <path id="Path_1171" data-name="Path 1171" d="M1211.669,1172.17a.337.337,0,0,1-.335-.306l-1.045-11.458a26.074,26.074,0,0,1,18.435-27.312l24.533-7.38a.337.337,0,1,1,.194.645l-24.532,7.38a25.368,25.368,0,0,0-17.959,26.605L1212,1171.8a.337.337,0,0,1-.3.366Z" transform="translate(-1114.753 -927.111)" fill="#141414"/>
  </g>
  <g id="Group_357" data-name="Group 357" transform="translate(0 43.011)">
    <g id="Group_349" data-name="Group 349" transform="translate(10.636 178.347)">
      <g id="Group_348" data-name="Group 348">
        <path id="Path_1172" data-name="Path 1172" d="M375.2,1085.6h36.024l33.227,60.859-15.939,2.932a39.357,39.357,0,0,1-13.479.1h0a38.421,38.421,0,0,1-30.767-28.408Z" transform="translate(-369.359 -1085.131)" fill="#5b5f75"/>
        <path id="Path_1172_-_Outline" data-name="Path 1172 - Outline" d="M374.537,1084.6H410.56a.337.337,0,0,1,.3.175l33.227,60.859a.337.337,0,0,1-.235.493l-15.939,2.932a39.7,39.7,0,0,1-13.6.1h0a38.741,38.741,0,0,1-31.036-28.657l-9.065-35.484a.337.337,0,0,1,.326-.42Zm35.824.674h-35.39l8.957,35.064a38.083,38.083,0,0,0,30.5,28.159,39.025,39.025,0,0,0,13.362-.1l15.481-2.847Z" transform="translate(-368.696 -1084.468)" fill="#141414"/>
        <path id="Path_1173" data-name="Path 1173" d="M372.123,1090.429l8.054,35.35a24.73,24.73,0,0,0,24.094,19.208h47.751v12.772h-58.3a24.721,24.721,0,0,1-24.061-19.073l-10.615-45.223a6.719,6.719,0,0,1,5.358-8.155h0A6.766,6.766,0,0,1,372.123,1090.429Z" transform="translate(-358.531 -1084.871)" fill="#5b5f75"/>
        <path id="Path_1173_-_Outline" data-name="Path 1173 - Outline" d="M364.884,1084.208a7.128,7.128,0,0,1,5.959,3.255,7.028,7.028,0,0,1,.944,2.226l8.054,35.351a24.379,24.379,0,0,0,23.766,18.946h47.75a.337.337,0,0,1,.337.337v12.772a.337.337,0,0,1-.337.337h-58.3A25.049,25.049,0,0,1,368.67,1138.1l-10.615-45.223a7.023,7.023,0,0,1,6.829-8.667Zm86.136,60.452H403.607a25.047,25.047,0,0,1-24.423-19.47l-8.054-35.35a6.39,6.39,0,0,0-2.284-3.579,6.375,6.375,0,0,0-5.047-1.286,6.331,6.331,0,0,0-4.2,2.762,6.383,6.383,0,0,0-.888,4.984l10.615,45.223a24.37,24.37,0,0,0,23.733,18.813H451.02Z" transform="translate(-357.867 -1084.208)" fill="#141414"/>
        <g id="Group_347" data-name="Group 347" transform="translate(29.834 72.55)">
          <rect id="Rectangle_579" data-name="Rectangle 579" width="12.94" height="72.047" transform="translate(22.612 5.493)" fill="#5b5f75"/>
          <path id="Rectangle_579_-_Outline" data-name="Rectangle 579 - Outline" d="M-.663-1h12.94a.337.337,0,0,1,.337.337V71.384a.337.337,0,0,1-.337.337H-.663A.337.337,0,0,1-1,71.384V-.663A.337.337,0,0,1-.663-1Zm12.6.674H-.326V71.047H11.94Z" transform="translate(23.275 6.156)" fill="#141414"/>
          <path id="Path_1174" data-name="Path 1174" d="M519.158,1537.21H496.648a1.352,1.352,0,0,1-1.348-1.348v-7.515a1.352,1.352,0,0,1,1.348-1.348h22.511a1.352,1.352,0,0,1,1.348,1.348v7.515A1.352,1.352,0,0,1,519.158,1537.21Z" transform="translate(-478.822 -1450.336)" fill="#313441"/>
          <path id="Path_1174_-_Outline" data-name="Path 1174 - Outline" d="M518.5,1536.884h-22.51a1.687,1.687,0,0,1-1.685-1.685v-7.515a1.687,1.687,0,0,1,1.685-1.685H518.5a1.687,1.687,0,0,1,1.685,1.685v7.515A1.687,1.687,0,0,1,518.5,1536.884Zm-22.51-10.211a1.012,1.012,0,0,0-1.011,1.011v7.515a1.012,1.012,0,0,0,1.011,1.011H518.5a1.012,1.012,0,0,0,1.011-1.011v-7.515a1.012,1.012,0,0,0-1.011-1.011Z" transform="translate(-478.158 -1449.673)" fill="#141414"/>
          <rect id="Rectangle_580" data-name="Rectangle 580" width="21.331" height="7.313" transform="translate(18.399 0.337)" fill="#313441"/>
          <path id="Rectangle_580_-_Outline" data-name="Rectangle 580 - Outline" d="M-.663-1H20.668A.337.337,0,0,1,21-.663V6.65a.337.337,0,0,1-.337.337H-.663A.337.337,0,0,1-1,6.65V-.663A.337.337,0,0,1-.663-1Zm20.994.674H-.326V6.313H20.331Z" transform="translate(19.062 1)" fill="#141414"/>
          <path id="Path_1175" data-name="Path 1175" d="M503.508,1552.311h-54.76a1.352,1.352,0,0,1-1.348-1.348v-7.515a1.352,1.352,0,0,1,1.348-1.348h54.76a1.352,1.352,0,0,1,1.348,1.348v7.515A1.352,1.352,0,0,1,503.508,1552.311Z" transform="translate(-447.063 -1460.348)" fill="#313441"/>
          <path id="Path_1175_-_Outline" data-name="Path 1175 - Outline" d="M502.845,1551.984h-54.76a1.687,1.687,0,0,1-1.685-1.685v-7.515a1.687,1.687,0,0,1,1.685-1.685h54.76a1.687,1.687,0,0,1,1.685,1.685v7.515A1.687,1.687,0,0,1,502.845,1551.984Zm-54.76-10.211a1.012,1.012,0,0,0-1.011,1.011v7.515a1.012,1.012,0,0,0,1.011,1.011h54.76a1.012,1.012,0,0,0,1.011-1.011v-7.515a1.012,1.012,0,0,0-1.011-1.011Z" transform="translate(-446.4 -1459.685)" fill="#141414"/>
        </g>
      </g>
      <path id="Path_1176" data-name="Path 1176" d="M602.244,1233.479l-1.078-3.976-21.938-81.617a53.576,53.576,0,0,0-37.574-37.742l-25.712-7.043H425.8v19.242a34.473,34.473,0,0,0,34.473,34.473H484.6l-.371,72.62-.067,11.323h46.773l.438-7.346.2-3.976,3.74-72.62h.741l18.366,72.62,2.864,11.323h46.773Z" transform="translate(-402.908 -1096.734)" fill="#acd3f7"/>
      <path id="Path_1176_-_Outline" data-name="Path 1176 - Outline" d="M530.276,1240.431H483.5a.337.337,0,0,1-.337-.339l.067-11.322.369-72.281H459.61a35.07,35.07,0,0,1-7.015-.707,34.62,34.62,0,0,1-12.448-5.238,34.91,34.91,0,0,1-12.611-15.315,34.648,34.648,0,0,1-2.029-6.535,35.074,35.074,0,0,1-.707-7.015v-19.241a.337.337,0,0,1,.337-.337H515.28a.333.333,0,0,1,.089.012l25.712,7.043a53.922,53.922,0,0,1,37.81,37.979l21.938,81.618,1.078,3.976,0,.006,1.82,7.279a.337.337,0,0,1-.327.419H556.628a.337.337,0,0,1-.327-.255l-2.864-11.322-18.3-72.366h-.159l-3.724,72.3-.2,3.976s0,0,0,0l-.438,7.346A.337.337,0,0,1,530.276,1240.431Zm-46.434-.674h46.117l.419-7.026.2-3.977,3.741-72.62a.337.337,0,0,1,.336-.319h.741a.337.337,0,0,1,.327.254l21.166,83.688h46.079l-1.714-6.857-1.077-3.973-21.938-81.618a53.217,53.217,0,0,0-37.337-37.5l-25.668-7.031H425.474v18.9a34.391,34.391,0,0,0,.694,6.88,33.948,33.948,0,0,0,5.136,12.206,34.24,34.24,0,0,0,15.019,12.368,33.968,33.968,0,0,0,6.407,1.989,34.408,34.408,0,0,0,6.88.693h24.33a.337.337,0,0,1,.337.339l-.371,72.62Z" transform="translate(-402.245 -1096.071)" fill="#141414"/>
      <path id="Path_1177" data-name="Path 1177" d="M792.3,1292.843a.337.337,0,0,1-.325-.248l-19.511-70.969a8.111,8.111,0,0,0-7.83-5.953.337.337,0,0,1,0-.674,8.773,8.773,0,0,1,8.48,6.448l19.511,70.969a.337.337,0,0,1-.236.414A.329.329,0,0,1,792.3,1292.843Z" transform="translate(-627.339 -1170.925)"/>
      <path id="Path_1178" data-name="Path 1178" d="M532.474,1227.449a.337.337,0,0,1-.337-.337v-74.339a16.059,16.059,0,0,0-16.074-16.074h-27.97a11.687,11.687,0,0,1-11.693-11.693v-12.569a.337.337,0,1,1,.674,0v12.569a11.013,11.013,0,0,0,11.019,11.019h27.97a16.733,16.733,0,0,1,16.748,16.748v74.339A.337.337,0,0,1,532.474,1227.449Z" transform="translate(-436.456 -1102.701)"/>
      <path id="Path_1179" data-name="Path 1179" d="M644.075,1511.8l17.287,10.042a5.605,5.605,0,0,1,2.8,4.819h0a5.58,5.58,0,0,1-5.594,5.594H601.784a5.613,5.613,0,0,1-5.594-5.83l.64-14.625Z" transform="translate(-515.876 -1367.709)" fill="#31383f"/>
      <path id="Path_1179_-_Outline" data-name="Path 1179 - Outline" d="M596.167,1510.8h47.245a.336.336,0,0,1,.169.046l17.287,10.042h0a6.072,6.072,0,0,1,2.163,2.164,5.912,5.912,0,0,1-5.131,8.876H601.121a5.857,5.857,0,0,1-2.367-.495,5.99,5.99,0,0,1-3.17-3.305,5.845,5.845,0,0,1-.393-2.381l.64-14.626A.337.337,0,0,1,596.167,1510.8Zm47.154.674H596.49l-.626,14.3a5.175,5.175,0,0,0,.348,2.108,5.319,5.319,0,0,0,2.812,2.932,5.192,5.192,0,0,0,2.1.438H657.9a5.234,5.234,0,0,0,4.549-7.863,5.393,5.393,0,0,0-1.922-1.922Z" transform="translate(-515.213 -1367.046)" fill="#141414"/>
      <path id="Path_1180" data-name="Path 1180" d="M861.337,1511.8l17.725,10.042a5.605,5.605,0,0,1,2.8,4.819h0a5.58,5.58,0,0,1-5.594,5.594H819.484a5.613,5.613,0,0,1-5.594-5.83l.64-14.625Z" transform="translate(-660.214 -1367.709)" fill="#31383f"/>
      <path id="Path_1180_-_Outline" data-name="Path 1180 - Outline" d="M813.867,1510.8h46.807a.338.338,0,0,1,.166.044l17.725,10.042,0,0a6.07,6.07,0,0,1,2.163,2.164,5.912,5.912,0,0,1-5.131,8.876H818.821a5.858,5.858,0,0,1-2.367-.495,5.991,5.991,0,0,1-3.17-3.305,5.846,5.846,0,0,1-.393-2.381l.64-14.626A.337.337,0,0,1,813.867,1510.8Zm46.718.674h-46.4l-.626,14.3a5.175,5.175,0,0,0,.348,2.108,5.317,5.317,0,0,0,2.812,2.932,5.191,5.191,0,0,0,2.1.438H875.6a5.234,5.234,0,0,0,4.549-7.863,5.4,5.4,0,0,0-1.921-1.922Z" transform="translate(-659.551 -1367.046)" fill="#141414"/>
      <path id="Path_1181" data-name="Path 1181" d="M646.313,1478.2l-.2,3.976-.438,7.346H598.9l.067-11.323Z" transform="translate(-517.676 -1345.431)" fill="#31383f"/>
      <path id="Path_1181_-_Outline" data-name="Path 1181 - Outline" d="M598.3,1477.2H645.65a.337.337,0,0,1,.337.354l-.2,3.976v0l-.438,7.346a.337.337,0,0,1-.336.317H598.237a.337.337,0,0,1-.337-.339l.067-11.323A.337.337,0,0,1,598.3,1477.2Zm46.992.674H598.639l-.063,10.649h46.117l.419-7.028Z" transform="translate(-517.013 -1344.768)" fill="#141414"/>
      <path id="Path_1182" data-name="Path 1182" d="M857.038,1489.523H810.264L807.4,1478.2h46.773l1.078,3.976Z" transform="translate(-655.915 -1345.431)" fill="#31383f"/>
      <path id="Path_1182_-_Outline" data-name="Path 1182 - Outline" d="M856.374,1489.2H809.6a.337.337,0,0,1-.327-.254l-2.864-11.323a.337.337,0,0,1,.327-.42H853.51a.337.337,0,0,1,.325.249l1.078,3.976,0,.009,1.786,7.346a.337.337,0,0,1-.328.417Zm-46.511-.674h46.082l-1.684-6.925-1.01-3.724H807.17Z" transform="translate(-655.252 -1344.768)" fill="#141414"/>
      <path id="Path_1183" data-name="Path 1183" d="M698.659,1164.639h-.016a.337.337,0,0,1-.321-.352l.135-2.9a36.07,36.07,0,0,0-26.509-36.626.337.337,0,1,1,.178-.65,36.716,36.716,0,0,1,27,37.309l-.135,2.9A.337.337,0,0,1,698.659,1164.639Z" transform="translate(-565.943 -1110.657)"/>
      <path id="Line_59" data-name="Line 59" d="M-.663,5.032A.337.337,0,0,1-1,4.7V-.663A.337.337,0,0,1-.663-1a.337.337,0,0,1,.337.337V4.7A.337.337,0,0,1-.663,5.032Z" transform="translate(82.325 51.612)"/>
    </g>
    <path id="Line_60" data-name="Line 60" d="M6.716,3.954a.335.335,0,0,1-.169-.046L-.832-.372A.337.337,0,0,1-.955-.832.337.337,0,0,1-.494-.955l7.38,4.28a.337.337,0,0,1-.169.629Z" transform="translate(219.97 327.213)" fill="#141414"/>
    <path id="Path_1184" data-name="Path 1184" d="M746.842,865.2s6.167-15.5,10.278-15.838c4.145-.337,3.4,4.078,1.988,6.6s-2.662,5.358-.539,6.5,6.773-1.651,8.02-3.5,3.943-8.9,7.279-7.683,1.651,5.291,1.651,5.291a2.312,2.312,0,0,1,3.639.876c1.314,2.629-1.415,7.852-1.415,7.852s2.932.337,1.179,4.213c-1.752,3.841-6.976,7.279-11.457,8.121-4.482.876-10.581,1.382-10.581,1.382l-24.9,28.677a23.836,23.836,0,0,1-17.355,7.481h0A23.839,23.839,0,0,1,693.464,902.3l-2.662-5.223-.2-12.064,21.061-10.75,5.088,10.75Z" transform="translate(-567.839 -750.143)" fill="#fff"/>
    <path id="Path_1184_-_Outline" data-name="Path 1184 - Outline" d="M756.891,848.346a3.487,3.487,0,0,1,1.592.337,2.384,2.384,0,0,1,.989.932,4.31,4.31,0,0,1,.331,2.9,9.669,9.669,0,0,1-1.063,2.958c-.921,1.645-1.929,3.7-1.55,5.006a1.681,1.681,0,0,0,.877,1.036,2.18,2.18,0,0,0,1.041.227,8.077,8.077,0,0,0,3.723-1.257,9.208,9.208,0,0,0,2.816-2.366c.246-.366.562-.963.928-1.654A29.4,29.4,0,0,1,769,852.429c1.174-1.537,2.3-2.284,3.429-2.284a2.6,2.6,0,0,1,.889.16,3.275,3.275,0,0,1,1.983,1.768,5.053,5.053,0,0,1,.121,3.153,2.976,2.976,0,0,1,1.087-.223,2.518,2.518,0,0,1,2.286,1.635,4.743,4.743,0,0,1,.368,2.514,12.26,12.26,0,0,1-.563,2.65,21.118,21.118,0,0,1-1.035,2.614,2.317,2.317,0,0,1,1.282,1.028c.488.86.393,2.054-.282,3.547a11.063,11.063,0,0,1-1.958,2.86,17.2,17.2,0,0,1-2.862,2.463,19.938,19.938,0,0,1-3.375,1.884,16.4,16.4,0,0,1-3.506,1.106c-4.077.8-9.548,1.293-10.48,1.375l-24.813,28.574-.009.01A24.182,24.182,0,0,1,692.5,901.8v0l-2.662-5.223a.338.338,0,0,1-.037-.147l-.2-12.064a.337.337,0,0,1,.184-.306l21.061-10.75a.337.337,0,0,1,.458.156l4.922,10.4,29.681-19.543c.256-.632,1.713-4.183,3.572-7.726a38.558,38.558,0,0,1,3.372-5.478,11.468,11.468,0,0,1,1.773-1.9,3.417,3.417,0,0,1,1.807-.852C756.588,848.352,756.743,848.346,756.891,848.346Zm2.217,14.068a2.842,2.842,0,0,1-1.361-.308,2.354,2.354,0,0,1-1.2-1.442c-.447-1.538.563-3.655,1.609-5.523.917-1.638,1.466-3.945.739-5.185a2.128,2.128,0,0,0-2-.936c-.13,0-.266.006-.406.017a2.782,2.782,0,0,0-1.437.7,10.824,10.824,0,0,0-1.664,1.783,37.915,37.915,0,0,0-3.309,5.38c-2.024,3.857-3.567,7.722-3.583,7.761a.336.336,0,0,1-.128.157l-30.093,19.815a.337.337,0,0,1-.49-.137l-4.94-10.436-20.565,10.5.2,11.776,2.626,5.153a23.507,23.507,0,0,0,37.967,5.319l24.9-28.672a.337.337,0,0,1,.227-.115c.061-.005,6.133-.514,10.544-1.377h0a15.731,15.731,0,0,0,3.362-1.062,19.267,19.267,0,0,0,3.26-1.82,13.286,13.286,0,0,0,4.591-5.048,5.355,5.355,0,0,0,.524-1.869,1.942,1.942,0,0,0-.211-1.061,1.78,1.78,0,0,0-1.226-.808.336.336,0,0,1-.259-.491,20.278,20.278,0,0,0,1.181-2.9c.648-2.049.728-3.656.232-4.65a1.9,1.9,0,0,0-1.683-1.262,2.783,2.783,0,0,0-1.453.5.337.337,0,0,1-.513-.4,5.13,5.13,0,0,0,.141-3.441,2.628,2.628,0,0,0-1.6-1.4,1.924,1.924,0,0,0-.658-.119,2.518,2.518,0,0,0-1.464.551,7.263,7.263,0,0,0-1.43,1.469,28.877,28.877,0,0,0-2.368,3.94c-.374.708-.7,1.319-.964,1.715a9.89,9.89,0,0,1-3.036,2.572A8.966,8.966,0,0,1,759.107,862.414Z" transform="translate(-567.176 -749.48)" fill="#141414"/>
    <path id="Path_1185" data-name="Path 1185" d="M911.437,902.905a.337.337,0,0,1,0-.674,9.653,9.653,0,0,0,2.32-.4,10.873,10.873,0,0,0,2.211-.914,9.951,9.951,0,0,0,2.308-1.75h0a13.945,13.945,0,0,1,3.455-2.847,4.244,4.244,0,0,1,2.695-.283.337.337,0,1,1-.094.668,3.62,3.62,0,0,0-2.309.223,13.446,13.446,0,0,0-3.267,2.713,10.621,10.621,0,0,1-2.477,1.876,11.538,11.538,0,0,1-2.358.97,10.082,10.082,0,0,1-2.479.422Z" transform="translate(-714.034 -781.039)" fill="#141414"/>
    <path id="Path_1186" data-name="Path 1186" d="M906.337,879.167a.337.337,0,0,1-.014-.674,15.4,15.4,0,0,0,2.352-.332,10.762,10.762,0,0,0,4.195-1.787,8.62,8.62,0,0,0,2.3-2.832,10.978,10.978,0,0,1,2.958-3.569.337.337,0,0,1,.418.529,10.4,10.4,0,0,0-2.793,3.378,14.407,14.407,0,0,1-.963,1.509,8.07,8.07,0,0,1-1.5,1.516,9.105,9.105,0,0,1-2.23,1.242,14.268,14.268,0,0,1-2.249.674,15.762,15.762,0,0,1-2.455.344Z" transform="translate(-710.653 -763.771)" fill="#141414"/>
    <path id="Path_1187" data-name="Path 1187" d="M880.537,898.814a.337.337,0,0,1-.235-.579,6.486,6.486,0,0,0,1.063-1.581,10.306,10.306,0,0,0,.758-2.026,12.95,12.95,0,0,0,.4-2.9.337.337,0,0,1,.674.02,13.611,13.611,0,0,1-.431,3.077,10.948,10.948,0,0,1-.818,2.167,6.932,6.932,0,0,1-1.178,1.728A.336.336,0,0,1,880.537,898.814Z" transform="translate(-693.547 -778.026)" fill="#141414"/>
    <path id="Path_1188" data-name="Path 1188" d="M482.907,796.182s-10.885,10.885-22.241,11.929l.91,49.739H371.4l-1.786-44.684s-8.964-15.535-25.813-12.974l14.827-38.854a34.905,34.905,0,0,1,23.589-21.264l25.678-6.875,17.557,1.213,21.938,7.043a34.8,34.8,0,0,1,21.735,20.286Z" transform="translate(-337.905 -673.136)" fill="#1a1f20"/>
    <path id="Path_1188_-_Outline" data-name="Path 1188 - Outline" d="M460.913,857.524H370.736a.337.337,0,0,1-.337-.324l-1.783-44.6a23.537,23.537,0,0,0-1.369-1.983,32.28,32.28,0,0,0-4.17-4.508,27.075,27.075,0,0,0-6.83-4.493,22.7,22.7,0,0,0-9.4-2.036,24.45,24.45,0,0,0-3.661.281.337.337,0,0,1-.366-.453l14.827-38.854a35.245,35.245,0,0,1,23.816-21.469l25.678-6.875a.338.338,0,0,1,.11-.011l17.557,1.213a.346.346,0,0,1,.08.015l21.938,7.043a35.122,35.122,0,0,1,21.946,20.483l13.782,34.439a.337.337,0,0,1-.075.364,54.8,54.8,0,0,1-6.909,5.612,45.273,45.273,0,0,1-7.167,4.082,27.086,27.086,0,0,1-8.061,2.3l.9,49.428a.337.337,0,0,1-.337.343Zm-89.853-.674h89.51l-.9-49.4a.337.337,0,0,1,.306-.342,26.1,26.1,0,0,0,8.16-2.277,44.594,44.594,0,0,0,7.059-4.021,55.346,55.346,0,0,0,6.656-5.379l-13.7-34.23a34.46,34.46,0,0,0-21.525-20.091l-21.9-7.031-17.46-1.206-25.624,6.86A34.573,34.573,0,0,0,358.279,760.8l-14.624,38.321a24.961,24.961,0,0,1,3.193-.209,23.368,23.368,0,0,1,9.688,2.1,27.754,27.754,0,0,1,7.005,4.613,32.95,32.95,0,0,1,4.255,4.606,22.341,22.341,0,0,1,1.445,2.107.338.338,0,0,1,.045.155Z" transform="translate(-337.242 -672.473)" fill="#141414"/>
    <path id="Path_1189" data-name="Path 1189" d="M517.043,728.383a7.211,7.211,0,0,0-6.6,4.92A14.587,14.587,0,0,0,512.7,745.94c4.92,7.178,14.254-6.874,17.692-6.807s15.906,10.885,15.8,2.089c-.067-6.6-5.425-10.143-12.2-11.929a37.191,37.191,0,0,0-10.75-1.146Z" transform="translate(-447.997 -669.768)" fill="#5b5f75"/>
    <g id="Group_353" data-name="Group 353" transform="translate(55.065 0)">
      <path id="Path_1190" data-name="Path 1190" d="M545.1,702.944v.708s-2.359,4.785-12.3,4.92c-9.907.135-12.3-6.571-12.3-6.571s.775-7.649.708-13.614a27.993,27.993,0,0,0-.337-4.853V683.5h0l25.139,8.357C545.032,693.07,545.066,700.585,545.1,702.944Z" transform="translate(-510.124 -640.184)" fill="#fff"/>
      <path id="Path_1190_-_Outline" data-name="Path 1190 - Outline" d="M531.843,708.247a16.672,16.672,0,0,1-6.074-1.05,12.04,12.04,0,0,1-3.779-2.325,9.454,9.454,0,0,1-2.47-3.422.336.336,0,0,1-.018-.147c.008-.076.772-7.7.706-13.576,0,0,0,0,0,0a27.6,27.6,0,0,0-.331-4.79.339.339,0,0,1-.006-.063v-.034a.337.337,0,0,1,.443-.32l25.139,8.357a.337.337,0,0,1,.156.531,4.066,4.066,0,0,0-.488,1.75c-.12.816-.211,1.882-.272,3.168-.107,2.275-.093,4.706-.076,5.952,0,0,0,0,0,0v.708a.337.337,0,0,1-.035.149,7.4,7.4,0,0,1-2.538,2.541,14,14,0,0,1-3.855,1.728,23.638,23.638,0,0,1-6.2.839ZM520.18,701.29a6.836,6.836,0,0,0,.48.929,10.016,10.016,0,0,0,1.812,2.182,11.389,11.389,0,0,0,3.566,2.178,16.024,16.024,0,0,0,5.8.994l.289,0a23.029,23.029,0,0,0,5.984-.8,13.42,13.42,0,0,0,3.664-1.623,8.538,8.538,0,0,0,1.844-1.591,4.7,4.7,0,0,0,.475-.655v-.619c-.018-1.255-.032-3.7.076-5.991.062-1.308.155-2.4.278-3.234a7.134,7.134,0,0,1,.4-1.672l-24.228-8.054a31.546,31.546,0,0,1,.256,4.39C520.944,693.308,520.263,700.45,520.18,701.29Z" transform="translate(-509.461 -639.521)" fill="#141414"/>
      <path id="Path_1191" data-name="Path 1191" d="M545.9,702.944c-11.154.539-19.781-7.077-23.858-14.558a27.994,27.994,0,0,0-.337-4.853V683.5l25.139,8.357C545.828,693.07,545.862,700.585,545.9,702.944Z" transform="translate(-510.92 -640.185)" fill="#31383f"/>
      <g id="Group_352" data-name="Group 352">
        <path id="Path_1192" data-name="Path 1192" d="M501.3,599.49c-4.785,1.483-11.053-9.166-11.558-18.265s5.459-9.334,5.459-9.334-3-16.04,16.58-16.849,30.362,4.448,26.622,17.119" transform="translate(-489.71 -554.961)" fill="#5b5f75"/>
        <path id="Path_1193" data-name="Path 1193" d="M504.145,603.924l-3.235,16.512s-1.281-7.919-6.268-6.773-3.269,6.369-1.483,8.155,5.324,0,5.324,0S504.651,642,520.961,641.8s17.321-17.826,16.613-22.578,2.494-14.524,1.483-20.084C527.026,597.555,519.175,606.822,504.145,603.924Z" transform="translate(-490.804 -584.13)" fill="#fff"/>
        <path id="Path_1193_-_Outline" data-name="Path 1193 - Outline" d="M535.588,597.955h0a21.9,21.9,0,0,1,2.847.186.337.337,0,0,1,.288.274c.548,3.016-.107,7.167-.74,11.181-.547,3.468-1.064,6.743-.741,8.914a25.836,25.836,0,0,1-.334,7.843,24.913,24.913,0,0,1-1.49,5.045,18.144,18.144,0,0,1-2.868,4.746,14.527,14.527,0,0,1-4.95,3.787,17.7,17.7,0,0,1-7.3,1.544l-.247,0a18.66,18.66,0,0,1-5.688-.875,19.425,19.425,0,0,1-4.775-2.3,26.745,26.745,0,0,1-6.976-6.956,39.885,39.885,0,0,1-3.9-6.929c-.571-1.3-.93-2.292-1.1-2.8a8.032,8.032,0,0,1-2.947.668,3.274,3.274,0,0,1-2.413-.892,7.028,7.028,0,0,1-1.535-2.588,5.632,5.632,0,0,1-.2-3.3,3.625,3.625,0,0,1,1.092-1.739,5.117,5.117,0,0,1,2.284-1.1,4.64,4.64,0,0,1,1.035-.122,4.065,4.065,0,0,1,2.828,1.166,7.905,7.905,0,0,1,1.7,2.472,14.267,14.267,0,0,1,.744,2l2.936-14.987a.337.337,0,0,1,.394-.266,29.946,29.946,0,0,0,5.731.559c5.34,0,9.771-1.477,14.055-2.9,2.041-.68,3.968-1.323,5.982-1.813A26.016,26.016,0,0,1,535.588,597.955Zm2.513.824a21.237,21.237,0,0,0-2.513-.15c-4.258,0-8.04,1.26-12.045,2.595-4.336,1.445-8.819,2.939-14.268,2.939a30.459,30.459,0,0,1-5.529-.51l-3.171,16.184a.337.337,0,0,1-.663-.011,14.547,14.547,0,0,0-1.06-3.367A7.224,7.224,0,0,0,497.3,614.2a3.41,3.41,0,0,0-2.365-.982,3.966,3.966,0,0,0-.884.1,3.489,3.489,0,0,0-2.88,2.364,4.967,4.967,0,0,0,.186,2.895,6.325,6.325,0,0,0,1.374,2.329,2.628,2.628,0,0,0,1.936.7,7.758,7.758,0,0,0,3-.758.337.337,0,0,1,.474.2,31.526,31.526,0,0,0,1.2,3.1,39.55,39.55,0,0,0,3.832,6.809,26.062,26.062,0,0,0,6.8,6.774,18.75,18.75,0,0,0,4.606,2.22,17.992,17.992,0,0,0,5.478.841l.239,0c4.969-.062,8.92-1.775,11.746-5.094a17.476,17.476,0,0,0,2.76-4.57,24.236,24.236,0,0,0,1.449-4.908,25.109,25.109,0,0,0,.33-7.619c-.339-2.273.186-5.6.742-9.119C537.925,605.642,538.552,601.665,538.1,598.779Z" transform="translate(-490.139 -583.467)" fill="#141414"/>
        <path id="Path_1194" data-name="Path 1194" d="M501.064,653.461a.337.337,0,0,1-.3-.486,2.329,2.329,0,0,0-.691-2.747.912.912,0,0,0-1.283.223.337.337,0,1,1-.5-.45,1.734,1.734,0,0,1,1.091-.616,1.579,1.579,0,0,1,1.07.285,3,3,0,0,1,.919,3.6A.337.337,0,0,1,501.064,653.461Z" transform="translate(-495.339 -617.559)" fill="#141414"/>
        <g id="Group_351" data-name="Group 351" transform="translate(21.26 25.122)">
          <path id="Path_1195" data-name="Path 1195" d="M590.548,658.148a.337.337,0,0,1-.23-.583l1.584-1.483.006-.005a1.616,1.616,0,0,0,.359-1.894l-3.032-6.2a.337.337,0,0,1,.605-.3l3.033,6.2v0a2.293,2.293,0,0,1-.515,2.685l-1.581,1.48A.336.336,0,0,1,590.548,658.148Z" transform="translate(-576.933 -641.438)" fill="#141414"/>
          <circle id="Ellipse_20" data-name="Ellipse 20" cx="1.281" cy="1.281" r="1.281" transform="translate(2.999 7.612)" fill="#141414"/>
          <circle id="Ellipse_21" data-name="Ellipse 21" cx="1.281" cy="1.281" r="1.281" transform="translate(19.073 6.702)" fill="#141414"/>
          <path id="Path_1196" data-name="Path 1196" d="M601.836,631.192a.337.337,0,0,1-.219-.593,4.96,4.96,0,0,1,1.744-.868,5.735,5.735,0,0,1,1.967-.207,6.862,6.862,0,0,1,2.518.691.337.337,0,1,1-.292.607,6.208,6.208,0,0,0-2.25-.624,5.063,5.063,0,0,0-1.727.172,4.39,4.39,0,0,0-1.523.742A.336.336,0,0,1,601.836,631.192Z" transform="translate(-585.088 -629.51)" fill="#141414"/>
          <path id="Path_1197" data-name="Path 1197" d="M553.136,633.492a.337.337,0,0,1-.219-.593,4.961,4.961,0,0,1,1.744-.868,5.731,5.731,0,0,1,1.967-.207,6.862,6.862,0,0,1,2.518.691.337.337,0,0,1-.292.607,6.209,6.209,0,0,0-2.25-.624,5.065,5.065,0,0,0-1.727.172,4.394,4.394,0,0,0-1.523.742A.334.334,0,0,1,553.136,633.492Z" transform="translate(-552.799 -631.035)" fill="#141414"/>
          <g id="Group_350" data-name="Group 350" transform="translate(4.814 20.451)">
            <path id="Path_1198" data-name="Path 1198" d="M576.919,691.5a4.418,4.418,0,0,1-4.414,4.246h-.169a4.433,4.433,0,0,1-3.842-2.561,3.98,3.98,0,0,1-.4-1.988Z" transform="translate(-567.748 -690.863)" fill="#31383f"/>
            <path id="Path_1199" data-name="Path 1199" d="M573.344,698.587a.744.744,0,0,1-.034.27h-.168A4.433,4.433,0,0,1,569.3,696.3a2.565,2.565,0,0,1,1.516-.4A2.6,2.6,0,0,1,573.344,698.587Z" transform="translate(-568.554 -693.971)" fill="#fff"/>
            <path id="Path_1200" data-name="Path 1200" d="M567.427,690.2h.012l8.829.3a.337.337,0,0,1,.325.351,4.752,4.752,0,0,1-4.751,4.569h-.182a4.77,4.77,0,0,1-4.132-2.751,4.3,4.3,0,0,1-.438-2.151A.337.337,0,0,1,567.427,690.2Zm8.464.965-8.13-.279a3.573,3.573,0,0,0,.372,1.489l0,.008a4.1,4.1,0,0,0,3.543,2.366h.162A4.077,4.077,0,0,0,575.891,691.165Z" transform="translate(-567.085 -690.2)" fill="#141414"/>
          </g>
        </g>
        <path id="Ellipse_22" data-name="Ellipse 22" d="M6.009-1a7.007,7.007,0,0,1,4.956,11.966A7.009,7.009,0,1,1,3.281-.449,6.966,6.966,0,0,1,6.009-1Zm0,13.345A6.333,6.333,0,0,0,10.489,1.53,6.335,6.335,0,1,0,3.543,11.847,6.3,6.3,0,0,0,6.009,12.345Z" transform="translate(19.834 29.556)" fill="#141414"/>
        <path id="Ellipse_23" data-name="Ellipse 23" d="M6.009-1a7.007,7.007,0,0,1,4.956,11.966A7.009,7.009,0,1,1,3.281-.449,6.966,6.966,0,0,1,6.009-1Zm0,13.345A6.333,6.333,0,0,0,10.489,1.53,6.335,6.335,0,1,0,3.543,11.847,6.3,6.3,0,0,0,6.009,12.345Z" transform="translate(38.132 29.556)" fill="#141414"/>
        <path id="Line_61" data-name="Line 61" d="M4.527-.326H-.663A.337.337,0,0,1-1-.663.337.337,0,0,1-.663-1h5.19a.337.337,0,0,1,.337.337A.337.337,0,0,1,4.527-.326Z" transform="translate(33.044 35.048)" fill="#141414"/>
        <path id="Line_62" data-name="Line 62" d="M8.773-.326H-.663A.337.337,0,0,1-1-.663.337.337,0,0,1-.663-1H8.773a.337.337,0,0,1,.337.337A.337.337,0,0,1,8.773-.326Z" transform="translate(10.634 33.768)" fill="#141414"/>
      </g>
    </g>
    <g id="Group_356" data-name="Group 356" transform="translate(67.826 93.964)">
      <g id="Group_355" data-name="Group 355">
        <g id="Group_354" data-name="Group 354" transform="translate(0 0.034)">
          <path id="Path_1201" data-name="Path 1201" d="M530.7,880.292a2.191,2.191,0,0,1-1.685-.741,2.359,2.359,0,0,1-.472-1.853l6.47-40.1a3.3,3.3,0,0,1,3.134-2.7h21.634a2.19,2.19,0,0,1,1.685.741,2.358,2.358,0,0,1,.472,1.854l-6.47,40.1a3.3,3.3,0,0,1-3.134,2.7Z" transform="translate(-528.2 -834.563)" fill="#fff"/>
          <path id="Path_1202" data-name="Path 1202" d="M559.2,834.574a1.884,1.884,0,0,1,1.449.64,1.963,1.963,0,0,1,.4,1.584l-6.47,40.1a2.977,2.977,0,0,1-2.8,2.426h-21.7a1.884,1.884,0,0,1-1.449-.64,1.964,1.964,0,0,1-.4-1.584L534.7,837a2.977,2.977,0,0,1,2.8-2.426h21.7m0-.674H537.562a3.662,3.662,0,0,0-3.471,3l-6.47,40.1a2.477,2.477,0,0,0,2.494,3h21.634a3.662,3.662,0,0,0,3.471-3l6.47-40.1a2.464,2.464,0,0,0-2.494-3Z" transform="translate(-527.58 -833.9)" fill="#141414"/>
        </g>
        <path id="Path_1203" data-name="Path 1203" d="M561.149,879.9H539.514a2.477,2.477,0,0,1-2.494-3l6.47-40.1a3.662,3.662,0,0,1,3.471-3H568.6a2.477,2.477,0,0,1,2.494,3l-6.47,40.1A3.691,3.691,0,0,1,561.149,879.9Z" transform="translate(-533.813 -833.8)" fill="#31383f"/>
      </g>
      <path id="Path_1204" data-name="Path 1204" d="M561.745,853.182h0a1.375,1.375,0,0,1-1.382-1.651l.708-4.28a2.013,2.013,0,0,1,1.921-1.651h0a1.375,1.375,0,0,1,1.382,1.651l-.708,4.28A2.043,2.043,0,0,1,561.745,853.182Z" transform="translate(-549.304 -841.623)" fill="#fff"/>
    </g>
    <path id="Path_1205" data-name="Path 1205" d="M416.506,897.956c-5.526,3.943-20.05,4.381-20.05,4.381l-33.125,31.2h0a20.337,20.337,0,0,1-27.093-.067h0a26.923,26.923,0,0,1-7.582-28.408l4.246-13.008c16.883-2.527,27.6,9.537,27.6,9.537l-1.786,3.437,1.786-1.112,24.937-15.265s6.234-10.851,9.5-14.322,5.729-3.134,6.369-1.112c.64,2.056-2.494,8.66-2.494,8.66s2.932.91,8.02-.337,9.1-5.257,11.559-4.886c2.426.4,2.831,4.92.944,6.5,2.46.4,2.527,3.875-.034,6.47C420.583,890.036,422,894.013,416.506,897.956Z" transform="translate(-326.971 -764.969)" fill="#fff"/>
    <path id="Path_1205_-_Outline" data-name="Path 1205 - Outline" d="M398.675,870.707a2.316,2.316,0,0,1,2.288,1.749,4.933,4.933,0,0,1-.112,2.4,23.745,23.745,0,0,1-.9,2.923c-.5,1.364-1.052,2.61-1.325,3.21a12.637,12.637,0,0,0,2.457.216,21.156,21.156,0,0,0,5-.648,25.874,25.874,0,0,0,6.58-2.959c1.841-1.052,3.431-1.961,4.726-1.961a2.58,2.58,0,0,1,.383.028h.005A2.936,2.936,0,0,1,420,878.016a5.607,5.607,0,0,1,.072,2.578,4.118,4.118,0,0,1-.771,1.731,2.391,2.391,0,0,1,1.409,1.539,4.235,4.235,0,0,1-.1,2.6,7.043,7.043,0,0,1-1.435,2.427,2.083,2.083,0,0,1,.423.465,3.262,3.262,0,0,1,.493,1.308,5.136,5.136,0,0,1-.6,3.17,10.887,10.887,0,0,1-3.454,3.736,18.143,18.143,0,0,1-5.571,2.4,52.016,52.016,0,0,1-6.677,1.33c-3.839.535-7.174.684-7.861.71L362.9,933.123l-.007.006a20.675,20.675,0,0,1-27.543-.068,27.35,27.35,0,0,1-8.112-13.243,27.112,27.112,0,0,1,.435-15.521l4.246-13.007a.337.337,0,0,1,.27-.229,31.738,31.738,0,0,1,4.682-.352,30.939,30.939,0,0,1,9.679,1.561,33.838,33.838,0,0,1,7.3,3.432,34.658,34.658,0,0,1,4.615,3.432,20.843,20.843,0,0,1,1.622,1.573.337.337,0,0,1,.047.379l-1.219,2.346.742-.462h0l24.864-15.221c.265-.459,1.721-2.967,3.489-5.8a62.035,62.035,0,0,1,6.018-8.515,11.255,11.255,0,0,1,2.511-2.072A4.369,4.369,0,0,1,398.675,870.707Zm2.408,11.169a11.144,11.144,0,0,1-3.035-.336.337.337,0,0,1-.2-.466c.008-.016.787-1.663,1.477-3.536.881-2.389,1.236-4.122,1-4.88a1.894,1.894,0,0,0-.614-.944,1.624,1.624,0,0,0-1.031-.333c-1.15,0-2.626.9-4.157,2.52a62.481,62.481,0,0,0-5.936,8.408c-1.942,3.106-3.5,5.823-3.52,5.85a.337.337,0,0,1-.116.12l-24.937,15.265-1.784,1.111a.337.337,0,0,1-.477-.441l1.676-3.226c-.231-.243-.714-.733-1.424-1.362a34,34,0,0,0-4.528-3.363,33.162,33.162,0,0,0-7.151-3.356,30.264,30.264,0,0,0-9.454-1.523,31.039,31.039,0,0,0-4.377.314l-4.181,12.809A26.586,26.586,0,0,0,335.8,932.56a20,20,0,0,0,26.64.069l33.122-31.2a.338.338,0,0,1,.221-.092c.036,0,3.668-.116,7.923-.71a51.339,51.339,0,0,0,6.586-1.312,17.5,17.5,0,0,0,5.356-2.3,10.231,10.231,0,0,0,3.246-3.495,4.47,4.47,0,0,0,.536-2.757,1.824,1.824,0,0,0-.891-1.476.337.337,0,0,1-.138-.558,6.522,6.522,0,0,0,1.574-2.484,3.566,3.566,0,0,0,.1-2.175,1.746,1.746,0,0,0-1.458-1.241.337.337,0,0,1-.162-.591,3.159,3.159,0,0,0,.963-1.785,4.92,4.92,0,0,0-.062-2.263,3.2,3.2,0,0,0-.639-1.261,1.755,1.755,0,0,0-1.041-.6,1.926,1.926,0,0,0-.28-.02c-1.116,0-2.634.868-4.392,1.872a26.408,26.408,0,0,1-6.754,3.028A21.83,21.83,0,0,1,401.083,881.876Z" transform="translate(-326.305 -764.306)" fill="#141414"/>
    <path id="Line_63" data-name="Line 63" d="M-.663,6.245a.337.337,0,0,1-.3-.193A.337.337,0,0,1-.807,5.6L13.076-.968a.337.337,0,0,1,.449.16.337.337,0,0,1-.16.449L-.519,6.213A.336.336,0,0,1-.663,6.245Z" transform="translate(18.488 140.726)" fill="#141414"/>
    <path id="Path_1206" data-name="Path 1206" d="M570.961,905.8a29.818,29.818,0,0,1-14.861,4.751" transform="translate(-478.663 -787.573)" fill="#fff"/>
    <path id="Path_1206_-_Outline" data-name="Path 1206 - Outline" d="M555.437,910.225a.337.337,0,0,1,0-.674,27.5,27.5,0,0,0,7.7-1.387,26.829,26.829,0,0,0,6.974-3.3.337.337,0,0,1,.386.552,30.118,30.118,0,0,1-15.049,4.812Z" transform="translate(-478 -786.91)" fill="#141414"/>
    <path id="Path_1207" data-name="Path 1207" d="M574.375,925c-3.437,4.516-13.075,4.718-13.075,4.718" transform="translate(-482.111 -800.303)" fill="#fff"/>
    <path id="Path_1207_-_Outline" data-name="Path 1207 - Outline" d="M560.637,929.392a.337.337,0,0,1-.007-.674,30.681,30.681,0,0,0,5.2-.66,19.948,19.948,0,0,0,4.255-1.386,8.926,8.926,0,0,0,3.363-2.539.337.337,0,1,1,.536.408,9.588,9.588,0,0,1-3.617,2.743,20.636,20.636,0,0,1-4.406,1.435,30.772,30.772,0,0,1-5.313.673Z" transform="translate(-481.448 -799.64)" fill="#141414"/>
    <path id="Line_64" data-name="Line 64" d="M-.663,28.082a.336.336,0,0,1-.147-.034.337.337,0,0,1-.157-.45L12.782-.81a.337.337,0,0,1,.45-.157.337.337,0,0,1,.157.45L-.36,27.891A.337.337,0,0,1-.663,28.082Z" transform="translate(34.157 108.882)" fill="#141414"/>
    <path id="Line_65" data-name="Line 65" d="M.247,32.9a.337.337,0,0,1-.337-.328L-1-.654A.337.337,0,0,1-.672-1a.337.337,0,0,1,.346.328l.91,33.227a.337.337,0,0,1-.328.346Z" transform="translate(122.514 102.411)" fill="#141414"/>
    <path id="Line_66" data-name="Line 66" d="M-.663,6.245a.337.337,0,0,1-.283-.154.337.337,0,0,1,.1-.466L9.3-.946a.337.337,0,0,1,.466.1.337.337,0,0,1-.1.466L-.48,6.191A.335.335,0,0,1-.663,6.245Z" transform="translate(139.397 135.638)" fill="#141414"/>
  </g>
  <g id="Group_362" data-name="Group 362" transform="translate(129.804 152.274)">
    <g id="Group_360" data-name="Group 360" transform="translate(0 53.041)">
      <g id="Group_358" data-name="Group 358" transform="translate(95.063 11.053)">
        <rect id="Rectangle_581" data-name="Rectangle 581" width="12.94" height="149.553" transform="translate(22.612 5.493)" fill="#5b5f75"/>
        <path id="Rectangle_581_-_Outline" data-name="Rectangle 581 - Outline" d="M-.663-1h12.94a.337.337,0,0,1,.337.337V148.89a.337.337,0,0,1-.337.337H-.663A.337.337,0,0,1-1,148.89V-.663A.337.337,0,0,1-.663-1Zm12.6.674H-.326V148.553H11.94Z" transform="translate(23.275 6.156)" fill="#141414"/>
        <path id="Path_1208" data-name="Path 1208" d="M1066.358,1537.21h-22.51a1.352,1.352,0,0,1-1.348-1.348v-7.515a1.352,1.352,0,0,1,1.348-1.348h22.51a1.352,1.352,0,0,1,1.348,1.348v7.515A1.352,1.352,0,0,1,1066.358,1537.21Z" transform="translate(-1026.021 -1372.796)" fill="#313441"/>
        <path id="Path_1208_-_Outline" data-name="Path 1208 - Outline" d="M1065.7,1536.884h-22.51a1.687,1.687,0,0,1-1.685-1.685v-7.515a1.686,1.686,0,0,1,1.685-1.685h22.51a1.687,1.687,0,0,1,1.685,1.685v7.515A1.687,1.687,0,0,1,1065.7,1536.884Zm-22.51-10.211a1.012,1.012,0,0,0-1.011,1.011v7.515a1.012,1.012,0,0,0,1.011,1.011h22.51a1.012,1.012,0,0,0,1.011-1.011v-7.515a1.012,1.012,0,0,0-1.011-1.011Z" transform="translate(-1025.359 -1372.134)" fill="#141414"/>
        <rect id="Rectangle_582" data-name="Rectangle 582" width="21.331" height="7.313" transform="translate(18.399 0.337)" fill="#313441"/>
        <path id="Rectangle_582_-_Outline" data-name="Rectangle 582 - Outline" d="M-.663-1H20.668A.337.337,0,0,1,21-.663V6.65a.337.337,0,0,1-.337.337H-.663A.337.337,0,0,1-1,6.65V-.663A.337.337,0,0,1-.663-1Zm20.994.674H-.326V6.313H20.331Z" transform="translate(19.062 1)" fill="#141414"/>
        <path id="Path_1209" data-name="Path 1209" d="M1050.708,1552.311h-54.76a1.352,1.352,0,0,1-1.348-1.348v-7.515a1.352,1.352,0,0,1,1.348-1.348h54.76a1.352,1.352,0,0,1,1.348,1.348v7.515A1.352,1.352,0,0,1,1050.708,1552.311Z" transform="translate(-994.263 -1382.808)" fill="#313441"/>
        <path id="Path_1209_-_Outline" data-name="Path 1209 - Outline" d="M1050.045,1551.984h-54.76a1.687,1.687,0,0,1-1.685-1.685v-7.515a1.687,1.687,0,0,1,1.685-1.685h54.76a1.687,1.687,0,0,1,1.685,1.685v7.515A1.687,1.687,0,0,1,1050.045,1551.984Zm-54.76-10.211a1.012,1.012,0,0,0-1.011,1.011v7.515a1.012,1.012,0,0,0,1.011,1.011h54.76a1.012,1.012,0,0,0,1.011-1.011v-7.515a1.012,1.012,0,0,0-1.011-1.011Z" transform="translate(-993.6 -1382.145)" fill="#141414"/>
      </g>
      <g id="Group_359" data-name="Group 359">
        <path id="Path_1210" data-name="Path 1210" d="M1114.194,1050.035H956.351a1.654,1.654,0,0,1-1.651-1.651v-9.132a1.654,1.654,0,0,1,1.651-1.651h157.843a1.654,1.654,0,0,1,1.651,1.651v9.132A1.654,1.654,0,0,1,1114.194,1050.035Z" transform="translate(-872.745 -1037.263)" fill="#5b5f75"/>
        <path id="Path_1210_-_Outline" data-name="Path 1210 - Outline" d="M1113.531,1049.708H955.688a1.99,1.99,0,0,1-1.988-1.988v-9.132a1.99,1.99,0,0,1,1.988-1.988h157.843a1.99,1.99,0,0,1,1.988,1.988v9.132A1.99,1.99,0,0,1,1113.531,1049.708Zm-157.843-12.435a1.316,1.316,0,0,0-1.314,1.314v9.132a1.316,1.316,0,0,0,1.314,1.314h157.843a1.316,1.316,0,0,0,1.314-1.314v-9.132a1.316,1.316,0,0,0-1.314-1.314Z" transform="translate(-872.083 -1036.6)" fill="#141414"/>
        <path id="Path_1211" data-name="Path 1211" d="M806.35,1050.035h-92.2a1.654,1.654,0,0,1-1.651-1.651v-9.132a1.654,1.654,0,0,1,1.651-1.651h92.2a1.654,1.654,0,0,1,1.651,1.651v9.132A1.654,1.654,0,0,1,806.35,1050.035Z" transform="translate(-712.163 -1037.263)" fill="#5b5f75"/>
        <path id="Path_1211_-_Outline" data-name="Path 1211 - Outline" d="M805.687,1049.708h-92.2a1.99,1.99,0,0,1-1.988-1.988v-9.132a1.99,1.99,0,0,1,1.988-1.988h92.2a1.99,1.99,0,0,1,1.988,1.988v9.132A1.99,1.99,0,0,1,805.687,1049.708Zm-92.2-12.435a1.316,1.316,0,0,0-1.314,1.314v9.132a1.316,1.316,0,0,0,1.314,1.314h92.2A1.316,1.316,0,0,0,807,1047.72v-9.132a1.316,1.316,0,0,0-1.314-1.314Z" transform="translate(-711.5 -1036.6)" fill="#141414"/>
      </g>
    </g>
    <g id="Group_361" data-name="Group 361" transform="translate(87.771)">
      <path id="Path_1212" data-name="Path 1212" d="M1226.862,1022.2h-69.688a.676.676,0,0,0-.674.674v3.808a.676.676,0,0,0,.674.674h69.688a.676.676,0,0,0,.674-.674v-3.808A.7.7,0,0,0,1226.862,1022.2Z" transform="translate(-1094.313 -974.011)" fill="#5b5f75"/>
      <path id="Path_1212_-_Outline" data-name="Path 1212 - Outline" d="M1156.511,1021.2H1226.2a1.037,1.037,0,0,1,1.011,1.011v3.808a1.012,1.012,0,0,1-1.011,1.011h-69.688a1.012,1.012,0,0,1-1.011-1.011v-3.808A1.012,1.012,0,0,1,1156.511,1021.2Zm69.688,5.156a.337.337,0,0,0,.337-.337v-3.808a.365.365,0,0,0-.337-.337h-69.688a.337.337,0,0,0-.337.337v3.808a.337.337,0,0,0,.337.337Z" transform="translate(-1093.65 -973.348)" fill="#141414"/>
      <path id="Path_1213" data-name="Path 1213" d="M1069.082,933.241H988.475a3.5,3.5,0,0,1-3.37-2.595l-12.03-46.1a3.473,3.473,0,0,1,3.37-4.347h80.606a3.5,3.5,0,0,1,3.37,2.595l12.03,46.1A3.489,3.489,0,0,1,1069.082,933.241Z" transform="translate(-972.624 -879.863)" fill="#5b5f75"/>
      <path id="Path_1213_-_Outline" data-name="Path 1213 - Outline" d="M1068.418,932.915H987.812a3.832,3.832,0,0,1-3.7-2.845v0l-12.03-46.1a3.81,3.81,0,0,1,3.7-4.769h80.606a3.832,3.832,0,0,1,3.7,2.845v0l12.03,46.1a3.825,3.825,0,0,1-3.7,4.769ZM984.767,929.9a3.158,3.158,0,0,0,3.044,2.345h80.606a3.152,3.152,0,0,0,3.044-3.925l-12.03-46.1a3.157,3.157,0,0,0-3.044-2.345H975.781a3.136,3.136,0,0,0-3.044,3.925l12.03,46.1Z" transform="translate(-971.96 -879.2)" fill="#141414"/>
      <path id="Path_1214" data-name="Path 1214" d="M1106.342,956.782h-4.549a1.406,1.406,0,0,1-1.348-1.045l-.438-1.719a1.373,1.373,0,0,1,1.348-1.719h4.549a1.406,1.406,0,0,1,1.348,1.045l.438,1.719A1.385,1.385,0,0,1,1106.342,956.782Z" transform="translate(-1056.825 -927.667)" fill="#31383f"/>
      <circle id="Ellipse_24" data-name="Ellipse 24" cx="0.708" cy="0.708" r="0.708" transform="translate(105.961 50.076)" fill="#141414"/>
      <circle id="Ellipse_25" data-name="Ellipse 25" cx="0.708" cy="0.708" r="0.708" transform="translate(109.365 50.076)" fill="#141414"/>
      <circle id="Ellipse_26" data-name="Ellipse 26" cx="0.708" cy="0.708" r="0.708" transform="translate(112.734 50.076)" fill="#141414"/>
    </g>
  </g>
  <g id="Group_363" data-name="Group 363" transform="translate(300.933 66.419)">
    <path id="Path_1215" data-name="Path 1215" d="M1225.618,633.448l-.4,1.584a.434.434,0,0,1-.842,0l-.4-1.584a3.742,3.742,0,0,0-2.729-2.73l-1.584-.4a.434.434,0,0,1,0-.843l1.584-.4a3.742,3.742,0,0,0,2.729-2.73l.4-1.584a.434.434,0,0,1,.842,0l.4,1.584a3.742,3.742,0,0,0,2.729,2.73l1.584.4a.434.434,0,0,1,0,.843l-1.584.4A3.742,3.742,0,0,0,1225.618,633.448Z" transform="translate(-1219.325 -624.425)" fill="#31383f"/>
  </g>
  <g id="Group_364" data-name="Group 364" transform="translate(12.34 77.472)">
    <path id="Path_1216" data-name="Path 1216" d="M369.218,666.248l-.4,1.584a.434.434,0,0,1-.842,0l-.4-1.584a3.742,3.742,0,0,0-2.73-2.73l-1.584-.4a.434.434,0,0,1,0-.842l1.584-.4a3.742,3.742,0,0,0,2.73-2.73l.4-1.584a.434.434,0,0,1,.842,0l.4,1.584a3.742,3.742,0,0,0,2.73,2.73l1.584.4a.434.434,0,0,1,0,.842l-1.584.4A3.742,3.742,0,0,0,369.218,666.248Z" transform="translate(-362.925 -657.225)" fill="#31383f"/>
  </g>
  <g id="Group_365" data-name="Group 365" transform="translate(442.836 86.47)">
    <path id="Path_1217" data-name="Path 1217" d="M1646.718,692.948l-.4,1.584a.434.434,0,0,1-.842,0l-.4-1.584a3.742,3.742,0,0,0-2.73-2.73l-1.584-.4a.434.434,0,0,1,0-.842l1.584-.4a3.742,3.742,0,0,0,2.73-2.729l.4-1.584a.434.434,0,0,1,.842,0l.4,1.584a3.742,3.742,0,0,0,2.73,2.729l1.584.4a.434.434,0,0,1,0,.842l-1.584.4A3.742,3.742,0,0,0,1646.718,692.948Z" transform="translate(-1640.425 -683.925)" fill="#31383f"/>
  </g>
  <g id="Group_366" data-name="Group 366" transform="translate(176.552)">
    <path id="Path_1218" data-name="Path 1218" d="M856.518,436.348l-.4,1.584a.434.434,0,0,1-.842,0l-.4-1.584a3.742,3.742,0,0,0-2.73-2.73l-1.584-.4a.434.434,0,0,1,0-.842l1.584-.4a3.742,3.742,0,0,0,2.73-2.73l.4-1.584a.434.434,0,0,1,.842,0l.4,1.584a3.742,3.742,0,0,0,2.73,2.73l1.584.4a.434.434,0,0,1,0,.842l-1.584.4A3.853,3.853,0,0,0,856.518,436.348Z" transform="translate(-850.225 -427.325)" fill="#31383f"/>
  </g>
  <g id="Group_367" data-name="Group 367" transform="translate(181.699 92.999)">
    <path id="Path_1219" data-name="Path 1219" d="M866.5,738.75l17.928,8.526,1.011-10.076Z" transform="translate(-866.163 -725.776)" fill="#fff"/>
    <path id="Path_1219_-_Outline" data-name="Path 1219 - Outline" d="M884.775,736.2a.337.337,0,0,1,.335.371L884.1,746.646a.337.337,0,0,1-.48.271l-17.928-8.526a.337.337,0,0,1,.117-.64l18.938-1.55Zm-1.3,9.9.923-9.2-17.287,1.415Z" transform="translate(-865.5 -725.113)" fill="#141414"/>
    <path id="Path_1220" data-name="Path 1220" d="M866.5,716.937,890.9,704.3l-4.179,10.952Z" transform="translate(-866.163 -703.963)" fill="#fff"/>
    <path id="Path_1220_-_Outline" data-name="Path 1220 - Outline" d="M865.837,716.611a.337.337,0,0,1-.155-.636l24.4-12.637a.337.337,0,0,1,.47.419l-4.179,10.952a.337.337,0,0,1-.287.216l-20.219,1.685ZM889.6,704.343,867.488,715.8l18.328-1.527Z" transform="translate(-865.5 -703.3)" fill="#141414"/>
    <path id="Path_1221" data-name="Path 1221" d="M866.5,738.485l33.462,6.335-13.243-8.02Z" transform="translate(-866.163 -725.511)" fill="#fff"/>
    <path id="Path_1221_-_Outline" data-name="Path 1221 - Outline" d="M886.056,735.8a.337.337,0,0,1,.174.049l13.243,8.02a.337.337,0,0,1-.237.619l-33.462-6.335a.337.337,0,0,1,.035-.667l20.219-1.685Zm11.473,7.679-11.554-7-17.64,1.47Z" transform="translate(-865.5 -724.848)" fill="#141414"/>
  </g>
  <g id="Group_368" data-name="Group 368" transform="translate(264.26 15.762)">
    <path id="Path_1222" data-name="Path 1222" d="M1173.538,509.55l-17.928,8.526L1154.6,508Z" transform="translate(-1139.739 -496.576)" fill="#fff"/>
    <path id="Path_1222_-_Outline" data-name="Path 1222 - Outline" d="M1153.937,507h.027l18.938,1.55a.337.337,0,0,1,.117.64l-17.927,8.526a.337.337,0,0,1-.48-.271l-1.011-10.076a.337.337,0,0,1,.335-.371Zm17.662,2.121-17.287-1.415.922,9.2Z" transform="translate(-1139.076 -495.913)" fill="#141414"/>
    <path id="Path_1223" data-name="Path 1223" d="M1162.8,487.737,1138.4,475.1l4.179,10.986Z" transform="translate(-1128.998 -474.763)" fill="#fff"/>
    <path id="Path_1223_-_Outline" data-name="Path 1223 - Outline" d="M1162.135,487.411h-.028l-20.219-1.651a.337.337,0,0,1-.288-.216l-4.179-10.986a.337.337,0,0,1,.47-.419l24.4,12.637a.337.337,0,0,1-.155.636Zm-19.98-2.307,18.335,1.5-22.124-11.459Z" transform="translate(-1128.335 -474.1)" fill="#141414"/>
    <path id="Path_1224" data-name="Path 1224" d="M1144.962,509.351,1111.5,515.72l13.243-8.02Z" transform="translate(-1111.163 -496.377)" fill="#fff"/>
    <path id="Path_1224_-_Outline" data-name="Path 1224 - Outline" d="M1124.08,506.7h.027l20.219,1.651a.337.337,0,0,1,.035.667l-33.462,6.369a.337.337,0,0,1-.238-.619l13.243-8.02A.337.337,0,0,1,1124.08,506.7Zm17.715,2.122-17.634-1.44-11.55,6.995Z" transform="translate(-1110.5 -495.714)" fill="#141414"/>
  </g>
  <path id="Path_1225" data-name="Path 1225" d="M1035.261,688.976h0c-.294,0-.593-.006-.89-.011a.337.337,0,0,1,.006-.674h.006c.294.005.591.009.882.011a.337.337,0,0,1,0,.674Zm1.772-.009a.337.337,0,0,1-.006-.674c.294-.005.591-.012.881-.021h.01a.337.337,0,0,1,.01.674c-.293.009-.593.016-.89.022Zm-4.428-.055h-.014c-.293-.012-.592-.026-.889-.041a.337.337,0,0,1,.035-.673c.294.015.59.029.881.041a.337.337,0,0,1-.014.674Zm7.084-.045a.337.337,0,0,1-.019-.673c.294-.017.589-.036.879-.058a.337.337,0,1,1,.049.672c-.293.021-.592.041-.889.058Zm-9.738-.106h-.025c-.293-.021-.591-.044-.887-.069a.337.337,0,1,1,.056-.672c.293.024.589.047.88.068a.337.337,0,0,1-.024.673Zm12.387-.107a.337.337,0,0,1-.034-.672c.293-.031.587-.063.875-.1a.337.337,0,0,1,.081.669c-.292.035-.59.069-.886.1Zm-15.034-.124-.035,0c-.292-.03-.59-.062-.884-.094a.337.337,0,1,1,.075-.67c.292.033.587.064.878.094a.337.337,0,0,1-.034.672Zm17.67-.218a.337.337,0,0,1-.052-.67c.291-.046.583-.094.868-.144a.337.337,0,0,1,.117.664c-.29.051-.586.1-.88.146A.354.354,0,0,1,1044.973,688.312Zm-20.309-.088-.044,0c-.292-.038-.589-.078-.882-.119a.337.337,0,1,1,.093-.667c.29.04.585.08.875.118a.337.337,0,0,1-.043.671Zm-2.631-.378a.346.346,0,0,1-.053,0c-.291-.046-.586-.094-.877-.142a.337.337,0,1,1,.111-.665c.289.048.582.1.871.141a.337.337,0,0,1-.052.67Zm25.554-.021a.337.337,0,0,1-.072-.666c.287-.063.575-.129.856-.2a.337.337,0,0,1,.158.655c-.286.069-.578.136-.871.2A.34.34,0,0,1,1047.586,687.825Zm-28.174-.427a.343.343,0,0,1-.062-.006c-.291-.054-.585-.11-.874-.166a.337.337,0,1,1,.128-.662c.287.056.579.111.868.165a.337.337,0,0,1-.061.668Zm30.75-.227a.337.337,0,0,1-.094-.661c.282-.082.564-.168.839-.256a.337.337,0,0,1,.205.642c-.28.09-.568.178-.855.261A.334.334,0,0,1,1050.162,687.171Zm-33.356-.292a.338.338,0,0,1-.071-.007c-.29-.062-.583-.126-.869-.19a.337.337,0,1,1,.147-.658c.284.064.575.127.863.189a.337.337,0,0,1-.07.667Zm44.309-.363a.337.337,0,0,1,0-.674c.291,0,.588,0,.881-.009a.337.337,0,0,1,.012.674c-.3.005-.6.009-.891.009Zm-1.771-.023h-.01c-.3-.009-.6-.02-.891-.034a.337.337,0,1,1,.031-.673c.291.013.587.025.88.033a.337.337,0,0,1-.01.674Zm4.427-.045a.337.337,0,0,1-.016-.674c.291-.014.587-.031.88-.049a.337.337,0,1,1,.042.673c-.3.019-.6.035-.89.05Zm-7.082-.1h-.028c-.3-.024-.6-.051-.889-.08a.337.337,0,1,1,.067-.671c.289.029.584.055.876.079a.337.337,0,0,1-.027.673Zm-4.009-.019a.337.337,0,0,1-.12-.652l.274-.106c0-.01,0-.02,0-.031a.337.337,0,0,1,.386-.28c.286.045.579.089.87.129a.337.337,0,1,1-.092.668l-.421-.06c-.255.106-.517.21-.779.31A.334.334,0,0,1,1052.681,686.326Zm-38.466-.042a.336.336,0,0,1-.081-.01c-.29-.071-.579-.144-.861-.217a.337.337,0,0,1,.168-.653c.279.072.566.145.854.215a.337.337,0,0,1-.08.664Zm52.208-.024a.337.337,0,0,1-.031-.673c.291-.027.586-.056.877-.087a.337.337,0,1,1,.071.67c-.294.031-.593.061-.886.088Zm2.641-.3a.337.337,0,0,1-.044-.671c.29-.039.583-.08.873-.124a.337.337,0,1,1,.1.667c-.293.043-.589.085-.882.125A.347.347,0,0,1,1069.063,685.96Zm-17.635-.347a.333.333,0,0,1-.067-.007c-.292-.059-.586-.122-.873-.187a.337.337,0,1,1,.148-.657c.282.064.571.126.859.184a.337.337,0,0,1-.067.667Zm-39.783-.01a.336.336,0,0,1-.093-.013c-.292-.083-.579-.168-.854-.252a.337.337,0,0,1,.2-.645c.272.083.556.166.844.249a.337.337,0,0,1-.093.661Zm60.044-.051a.337.337,0,0,1-.058-.669c.288-.051.58-.1.867-.159a.337.337,0,1,1,.126.662c-.291.055-.585.109-.876.161A.343.343,0,0,1,1071.689,685.552Zm-16.573-.288a.337.337,0,0,1-.15-.639c.262-.13.523-.265.776-.4a.337.337,0,0,1,.32.593c-.26.14-.528.279-.8.412A.335.335,0,0,1,1055.117,685.264Zm19.18-.227a.337.337,0,0,1-.072-.666c.286-.062.575-.128.86-.194a.337.337,0,0,1,.153.656c-.288.067-.58.133-.869.2A.34.34,0,0,1,1074.3,685.038Zm-25.454-.04a.336.336,0,0,1-.09-.012c-.288-.08-.577-.164-.859-.249a.337.337,0,1,1,.2-.645c.277.084.56.166.843.244a.337.337,0,0,1-.09.662Zm-39.732-.195a.335.335,0,0,1-.112-.019c-.3-.106-.585-.212-.841-.313a.337.337,0,1,1,.247-.627c.249.1.524.2.818.3a.337.337,0,0,1-.112.655Zm67.77-.385a.337.337,0,0,1-.085-.663c.283-.074.57-.151.851-.229a.337.337,0,1,1,.179.65c-.285.079-.574.156-.86.231A.337.337,0,0,1,1076.881,684.418Zm-30.571-.227a.338.338,0,0,1-.115-.02c-.281-.1-.563-.209-.837-.318a.337.337,0,0,1,.249-.627c.268.106.544.211.819.311a.337.337,0,0,1-.115.654Zm11.12-.231a.337.337,0,0,1-.182-.621c.245-.157.489-.321.725-.485a.337.337,0,0,1,.386.552c-.243.17-.495.338-.747.5A.335.335,0,0,1,1057.431,683.96Zm22.007-.267a.337.337,0,0,1-.1-.659c.28-.086.563-.175.841-.264a.337.337,0,1,1,.207.641c-.281.09-.567.18-.85.267A.337.337,0,0,1,1079.438,683.692Zm-35.582-.52a.336.336,0,0,1-.143-.032c-.271-.128-.542-.26-.805-.395a.337.337,0,1,1,.306-.6c.256.131.521.261.786.385a.337.337,0,0,1-.144.642Zm38.106-.313a.337.337,0,0,1-.113-.655c.276-.1.555-.2.828-.3a.337.337,0,0,1,.235.632c-.276.1-.558.2-.837.3A.338.338,0,0,1,1081.962,682.859Zm-22.388-.467a.337.337,0,0,1-.216-.6c.223-.186.444-.379.656-.573a.337.337,0,1,1,.455.5c-.219.2-.448.4-.678.593A.335.335,0,0,1,1059.574,682.391Zm-18.062-.469a.334.334,0,0,1-.173-.049c-.257-.155-.513-.316-.761-.478a.337.337,0,0,1,.369-.564c.241.158.49.314.739.465a.337.337,0,0,1-.174.626Zm42.934-.008a.337.337,0,0,1-.127-.649c.272-.111.545-.224.813-.338a.337.337,0,1,1,.264.62c-.271.115-.548.231-.823.343A.336.336,0,0,1,1084.446,681.914Zm2.437-1.061a.337.337,0,0,1-.142-.643c.266-.124.534-.251.795-.378a.337.337,0,1,1,.295.606c-.265.129-.536.258-.805.383A.336.336,0,0,1,1086.884,680.853Zm-25.392-.3a.337.337,0,0,1-.25-.563c.194-.214.385-.436.568-.658a.337.337,0,1,1,.521.428c-.19.231-.388.461-.59.683A.336.336,0,0,1,1061.491,680.554Zm-22.171-.132a.335.335,0,0,1-.206-.071c-.237-.184-.473-.375-.7-.567a.337.337,0,0,1,.435-.515c.22.186.447.37.677.549a.337.337,0,0,1-.207.6Zm49.942-.753a.337.337,0,0,1-.159-.634c.259-.138.519-.28.772-.421a.337.337,0,0,1,.328.589c-.257.143-.521.287-.784.427A.333.333,0,0,1,1089.263,679.669Zm-51.931-1.007a.336.336,0,0,1-.239-.1c-.211-.214-.42-.434-.619-.655a.337.337,0,1,1,.5-.451c.193.214.394.426.6.633a.337.337,0,0,1-.24.574Zm25.8-.2a.337.337,0,0,1-.279-.525c.161-.239.317-.486.466-.734a.337.337,0,0,1,.577.348c-.155.257-.318.513-.484.761A.337.337,0,0,1,1063.127,678.463Zm28.443-.111a.337.337,0,0,1-.176-.624c.25-.153.5-.31.744-.467a.337.337,0,1,1,.365.567c-.247.159-.5.319-.757.475A.335.335,0,0,1,1091.57,678.351Zm2.218-1.463a.337.337,0,0,1-.2-.612c.239-.17.478-.344.709-.517a.337.337,0,1,1,.4.539c-.235.176-.478.354-.722.527A.334.334,0,0,1,1093.788,676.888Zm-58.188-.239a.337.337,0,0,1-.271-.136c-.179-.24-.354-.488-.521-.736a.337.337,0,1,1,.559-.376c.161.239.33.478.5.71a.337.337,0,0,1-.27.538Zm28.842-.494a.337.337,0,0,1-.3-.483c.124-.259.244-.526.357-.793a.337.337,0,0,1,.621.262c-.117.277-.242.553-.37.821A.337.337,0,0,1,1064.442,676.155Zm31.449-.89a.337.337,0,0,1-.217-.6c.225-.189.448-.382.663-.573a.337.337,0,0,1,.448.5c-.22.2-.448.393-.678.586A.336.336,0,0,1,1095.892,675.265Zm-61.719-.855a.336.336,0,0,1-.3-.177c-.142-.263-.28-.533-.409-.8a.337.337,0,0,1,.608-.291c.125.261.258.522.395.775a.337.337,0,0,1-.3.5Zm31.249-.722a.341.341,0,0,1-.1-.016.337.337,0,0,1-.217-.424c.088-.273.172-.554.25-.835a.337.337,0,0,1,.65.18c-.08.29-.167.58-.258.862A.337.337,0,0,1,1065.422,673.688Zm32.424-.224a.337.337,0,0,1-.24-.573c.206-.209.408-.422.6-.634a.337.337,0,0,1,.5.455c-.2.218-.407.437-.618.652A.336.336,0,0,1,1097.846,673.464Zm-64.764-1.475a.337.337,0,0,1-.316-.22c-.1-.279-.2-.566-.293-.852a.337.337,0,0,1,.642-.2c.088.277.183.553.283.823a.337.337,0,0,1-.316.454Zm66.518-.521a.337.337,0,0,1-.266-.544c.179-.231.354-.466.52-.7a.337.337,0,1,1,.549.39c-.171.241-.352.484-.537.722A.336.336,0,0,1,1099.6,671.469Zm-33.52-.354a.342.342,0,0,1-.064-.006.337.337,0,0,1-.267-.395c.055-.282.105-.572.15-.86a.337.337,0,1,1,.666.1c-.046.3-.1.595-.155.885A.337.337,0,0,1,1066.08,671.115Zm-33.75-1.673a.337.337,0,0,1-.328-.263c-.05-.22-.1-.444-.14-.667-.014-.072-.028-.144-.041-.216a.337.337,0,1,1,.662-.124q.02.106.041.212c.042.217.087.434.135.647a.337.337,0,0,1-.329.411Zm68.754-.175a.337.337,0,0,1-.292-.5c.145-.253.283-.51.411-.765a.337.337,0,1,1,.6.3c-.134.265-.278.533-.428.8A.337.337,0,0,1,1101.083,669.268Zm-34.638-.788h-.03a.337.337,0,0,1-.306-.365c.026-.292.048-.585.065-.873a.337.337,0,0,1,.673.04c-.017.294-.04.594-.067.892A.337.337,0,0,1,1066.446,668.48Zm35.763-1.617a.337.337,0,0,1-.317-.453c.1-.271.191-.548.271-.821a.337.337,0,1,1,.646.191c-.085.286-.18.576-.285.861A.337.337,0,0,1,1102.209,666.863Zm-70.331-.042a.337.337,0,0,1-.334-.3c-.037-.3-.069-.6-.1-.892a.337.337,0,0,1,.671-.061c.026.287.057.579.093.87a.337.337,0,0,1-.293.376Zm34.685-1a.337.337,0,0,1-.337-.336c0-.292-.006-.586-.016-.874a.337.337,0,1,1,.674-.024c.01.295.016.6.017.9a.337.337,0,0,1-.336.338Zm-34.876-1.654a.337.337,0,0,1-.337-.331c-.005-.3,0-.6,0-.9a.337.337,0,0,1,.337-.33h.007a.337.337,0,0,1,.33.344c-.006.287-.007.581,0,.874a.337.337,0,0,1-.331.343Zm34.734-1a.337.337,0,0,1-.335-.3c-.031-.29-.068-.581-.109-.865a.337.337,0,0,1,.667-.1c.043.293.08.592.112.891a.337.337,0,0,1-.3.371Zm-34.621-1.655-.036,0a.337.337,0,0,1-.3-.371c.032-.3.07-.6.115-.893a.337.337,0,1,1,.666.1c-.043.283-.08.574-.111.863A.337.337,0,0,1,1031.8,661.518Zm34.185-.964a.337.337,0,0,1-.328-.262c-.065-.284-.137-.568-.214-.845a.337.337,0,1,1,.65-.179c.079.286.153.58.221.873a.337.337,0,0,1-.329.413Zm-33.723-1.65a.337.337,0,0,1-.327-.419c.074-.292.156-.585.243-.87a.337.337,0,0,1,.644.2c-.084.274-.163.556-.234.837A.337.337,0,0,1,1032.262,658.9Zm32.96-.894a.337.337,0,0,1-.315-.218c-.1-.271-.212-.542-.326-.806a.337.337,0,0,1,.619-.267c.118.273.232.554.337.836a.337.337,0,0,1-.315.456Zm-32.112-1.623a.337.337,0,0,1-.309-.47c.119-.277.246-.553.38-.821a.337.337,0,0,1,.6.3c-.128.257-.25.522-.364.787A.337.337,0,0,1,1033.109,656.387Zm31-.788a.337.337,0,0,1-.295-.173c-.14-.253-.289-.5-.441-.748a.337.337,0,0,1,.572-.357c.158.253.312.515.458.778a.337.337,0,0,1-.294.5Zm-29.751-1.555a.337.337,0,0,1-.282-.521c.164-.252.337-.5.514-.745a.337.337,0,1,1,.543.4c-.17.232-.335.471-.492.713A.337.337,0,0,1,1034.357,654.044Zm28.287-.66a.336.336,0,0,1-.266-.13c-.177-.227-.363-.453-.552-.67a.337.337,0,0,1,.509-.442c.2.226.39.461.574.7a.337.337,0,0,1-.265.544Zm-26.654-1.432a.337.337,0,0,1-.246-.567c.2-.22.419-.436.636-.644a.337.337,0,0,1,.466.487c-.208.2-.413.406-.609.616A.336.336,0,0,1,1035.991,651.952Zm24.86-.525a.335.335,0,0,1-.229-.09c-.211-.2-.43-.389-.651-.574a.337.337,0,0,1,.432-.517c.23.193.458.394.678.6a.337.337,0,0,1-.23.584Zm-22.888-1.253a.337.337,0,0,1-.2-.606c.239-.181.486-.358.736-.526a.337.337,0,0,1,.376.559c-.24.161-.477.331-.706.5A.336.336,0,0,1,1037.962,650.174Zm20.807-.4a.335.335,0,0,1-.187-.057c-.239-.161-.485-.317-.733-.466a.337.337,0,0,1,.347-.578c.257.154.514.317.762.484a.337.337,0,0,1-.188.617Zm-18.566-1.026a.337.337,0,0,1-.157-.635c.265-.139.537-.273.811-.4a.337.337,0,0,1,.281.612c-.263.121-.525.25-.779.383A.336.336,0,0,1,1040.2,648.751Zm16.255-.281a.337.337,0,0,1-.143-.032c-.26-.122-.528-.24-.8-.35a.337.337,0,1,1,.256-.624c.278.114.556.236.826.363a.337.337,0,0,1-.143.642Zm-13.815-.766a.337.337,0,0,1-.109-.656c.283-.1.573-.187.861-.27a.337.337,0,1,1,.185.648c-.278.079-.557.167-.829.26A.338.338,0,0,1,1042.643,647.7Zm11.335-.182a.341.341,0,0,1-.1-.014c-.276-.083-.558-.16-.839-.23a.337.337,0,0,1,.163-.654c.291.072.584.153.87.239a.337.337,0,0,1-.1.66Zm-8.765-.486a.337.337,0,0,1-.06-.669c.294-.054.594-.1.891-.141a.337.337,0,1,1,.089.668c-.287.038-.576.084-.859.136A.342.342,0,0,1,1045.213,647.037Zm6.174-.094a.34.34,0,0,1-.051,0c-.285-.043-.575-.08-.863-.109a.337.337,0,0,1,.069-.67c.3.03.6.068.895.113a.337.337,0,0,1-.05.67Zm-3.534-.2a.337.337,0,0,1-.013-.674c.3-.011.6-.016.9-.013a.337.337,0,0,1,0,.674h0c-.289,0-.582,0-.87.013Z" transform="translate(-778.244 -572.349)" fill="#acd3f7"/>
  <path id="Path_1226" data-name="Path 1226" d="M756.293,578.359h-.008c-.3-.007-.6-.024-.906-.05a.337.337,0,1,1,.058-.671c.287.025.577.041.863.047a.337.337,0,0,1-.008.674Zm1.769-.073a.337.337,0,0,1-.036-.672c.286-.031.574-.072.854-.121a.337.337,0,0,1,.117.664c-.3.052-.6.1-.9.128Zm-4.4-.237a.348.348,0,0,1-.07-.007c-.294-.063-.59-.135-.88-.215a.337.337,0,0,1,.18-.65c.277.077.56.146.841.206a.337.337,0,0,1-.07.667Zm7-.317a.337.337,0,0,1-.1-.657c.273-.089.545-.189.808-.3a.337.337,0,1,1,.256.624c-.279.114-.566.22-.854.314A.335.335,0,0,1,760.657,577.732Zm-9.536-.466a.337.337,0,0,1-.128-.025c-.278-.114-.557-.238-.828-.368a.337.337,0,1,1,.292-.607c.259.124.525.243.791.352a.337.337,0,0,1-.128.649Zm11.951-.631a.337.337,0,0,1-.173-.626c.245-.147.488-.3.721-.469a.337.337,0,1,1,.389.55c-.247.175-.5.342-.764.5A.336.336,0,0,1,763.072,576.634Zm-14.308-.59a.336.336,0,0,1-.181-.053c-.254-.162-.506-.333-.749-.509a.337.337,0,1,1,.4-.546c.233.168.473.332.716.487a.337.337,0,0,1-.181.621Zm16.414-1.022a.337.337,0,0,1-.234-.58c.2-.2.406-.406.6-.62a.337.337,0,1,1,.5.449c-.2.226-.415.447-.631.656A.336.336,0,0,1,765.177,575.022Zm-18.515-.6a.336.336,0,0,1-.229-.09c-.221-.2-.438-.419-.645-.636a.337.337,0,0,1,.487-.465c.2.208.405.412.616.607a.337.337,0,0,1-.229.584Zm20.21-1.44a.337.337,0,0,1-.28-.524c.157-.237.309-.484.453-.734a.337.337,0,1,1,.585.334c-.151.264-.311.524-.477.773A.337.337,0,0,1,766.872,572.983Zm-21.982-.535a.336.336,0,0,1-.271-.136c-.18-.241-.354-.492-.519-.744a.337.337,0,0,1,.565-.368c.157.241.323.48.495.71a.337.337,0,0,1-.27.538Zm-62.654-1.61a.337.337,0,0,1-.315-.457c.105-.276.221-.557.344-.835a.337.337,0,0,1,.616.274c-.118.267-.23.536-.331.8A.337.337,0,0,1,682.237,570.838Zm85.879-.2a.337.337,0,0,1-.311-.466c.109-.263.213-.535.309-.809a.337.337,0,1,1,.636.222c-.1.286-.208.571-.322.846A.337.337,0,0,1,768.115,570.637Zm-24.607-.455a.337.337,0,0,1-.3-.188c-.132-.269-.258-.547-.375-.825a.337.337,0,1,1,.622-.26c.111.266.232.531.358.788a.337.337,0,0,1-.3.486Zm-60.137-1.743a.337.337,0,0,1-.293-.5c.145-.257.3-.517.459-.774a.337.337,0,0,1,.573.355c-.155.249-.3.5-.444.75A.337.337,0,0,1,683.371,568.439Zm85.553-.33a.337.337,0,0,1-.328-.414c.065-.278.125-.564.179-.852a.337.337,0,0,1,.663.123c-.055.3-.118.595-.185.883A.337.337,0,0,1,768.924,568.109Zm-26.37-.4a.337.337,0,0,1-.324-.244c-.083-.287-.158-.582-.225-.876a.337.337,0,0,1,.657-.149c.064.282.137.564.216.84a.337.337,0,0,1-.324.43Zm-57.741-1.5a.337.337,0,0,1-.272-.535c.173-.237.355-.478.54-.716a.337.337,0,0,1,.531.415c-.181.232-.358.467-.527.7A.336.336,0,0,1,684.813,566.209Zm84.539-.72-.033,0a.337.337,0,0,1-.3-.368c.028-.285.051-.577.068-.87a.337.337,0,0,1,.673.04c-.018.3-.042.6-.07.9A.337.337,0,0,1,769.353,565.488Zm-27.317-.387a.337.337,0,0,1-.334-.3c-.034-.3-.062-.6-.082-.9a.337.337,0,1,1,.672-.044c.019.29.045.581.079.865a.337.337,0,0,1-.3.374Zm-55.556-.964a.337.337,0,0,1-.253-.56c.194-.22.4-.444.6-.664a.337.337,0,0,1,.494.458c-.2.216-.4.435-.588.651A.336.336,0,0,1,686.479,564.138Zm82.984-1.3a.337.337,0,0,1-.337-.333c0-.287-.011-.581-.023-.874a.337.337,0,0,1,.322-.351h.014a.337.337,0,0,1,.336.323c.013.3.021.6.024.9a.337.337,0,0,1-.333.341Zm-27.555-.387h0a.337.337,0,0,1-.333-.341c0-.3.013-.6.028-.9a.337.337,0,1,1,.673.035c-.015.286-.024.579-.027.871A.337.337,0,0,1,741.908,562.446Zm-53.6-.236a.337.337,0,0,1-.236-.578c.209-.205.426-.413.644-.618a.337.337,0,1,1,.461.491c-.214.2-.428.406-.633.608A.336.336,0,0,1,688.31,562.21Zm1.954-1.8a.337.337,0,0,1-.221-.592c.222-.192.45-.387.68-.578a.337.337,0,0,1,.432.517c-.226.189-.452.381-.67.57A.335.335,0,0,1,690.264,560.412Zm79.048-.23a.337.337,0,0,1-.335-.3c-.029-.287-.062-.58-.1-.872a.337.337,0,1,1,.669-.085c.038.3.072.6.1.89a.337.337,0,0,1-.3.369ZM742.1,559.8a.347.347,0,0,1-.047,0,.337.337,0,0,1-.287-.381c.042-.3.091-.6.146-.889a.337.337,0,0,1,.662.125c-.053.281-.1.57-.141.857A.337.337,0,0,1,742.1,559.8Zm-49.785-1.074a.337.337,0,0,1-.207-.6c.231-.18.469-.362.706-.542a.337.337,0,0,1,.406.538c-.235.177-.469.357-.7.535A.336.336,0,0,1,692.319,558.724Zm76.628-1.174a.337.337,0,0,1-.331-.279c-.05-.285-.1-.576-.162-.865a.337.337,0,1,1,.661-.131c.058.294.113.59.164.879a.337.337,0,0,1-.274.39A.333.333,0,0,1,768.947,557.55Zm-26.285-.347a.337.337,0,0,1-.323-.432c.085-.289.179-.578.278-.86a.337.337,0,0,1,.635.224c-.1.271-.186.549-.268.826A.337.337,0,0,1,742.663,557.2Zm-48.212-.064a.337.337,0,0,1-.2-.612c.24-.17.485-.342.731-.511a.337.337,0,0,1,.382.555c-.243.167-.486.337-.723.506A.336.336,0,0,1,694.451,557.139Zm2.2-1.494a.337.337,0,0,1-.184-.619c.246-.16.5-.322.749-.481a.337.337,0,1,1,.361.569c-.248.157-.5.318-.742.477A.336.336,0,0,1,696.649,555.645Zm71.752-.7a.337.337,0,0,1-.326-.254c-.072-.282-.151-.563-.235-.837a.337.337,0,1,1,.644-.2c.087.284.169.576.244.868a.337.337,0,0,1-.327.42Zm-24.788-.221a.337.337,0,0,1-.3-.483c.13-.271.269-.541.413-.8a.337.337,0,1,1,.591.324c-.138.252-.272.512-.4.771A.337.337,0,0,1,743.613,554.724Zm-44.71-.488a.337.337,0,0,1-.174-.626c.251-.151.509-.3.764-.454a.337.337,0,0,1,.341.582c-.253.148-.508.3-.758.45A.336.336,0,0,1,698.9,554.235Zm2.3-1.331a.337.337,0,0,1-.164-.631c.257-.143.519-.287.779-.429a.337.337,0,0,1,.322.592c-.258.14-.518.284-.773.425A.336.336,0,0,1,701.2,552.9Zm43.75-.472a.337.337,0,0,1-.276-.53c.172-.245.353-.489.538-.726a.337.337,0,1,1,.531.415c-.178.228-.352.462-.517.7A.337.337,0,0,1,744.953,552.432Zm22.6,0a.337.337,0,0,1-.31-.205c-.113-.266-.235-.531-.361-.788a.337.337,0,0,1,.6-.3c.132.268.258.545.376.822a.337.337,0,0,1-.31.469Zm-64.011-.782a.337.337,0,0,1-.155-.636c.261-.135.528-.272.792-.405a.337.337,0,0,1,.3.6c-.262.133-.527.268-.787.4A.336.336,0,0,1,703.545,551.647Zm2.378-1.187a.337.337,0,0,1-.146-.641c.265-.128.536-.256.8-.382a.337.337,0,0,1,.287.61c-.266.125-.534.253-.8.38A.336.336,0,0,1,705.923,550.46Zm40.721-.075a.337.337,0,0,1-.242-.571c.207-.214.423-.428.642-.634a.337.337,0,0,1,.461.491c-.211.2-.42.4-.619.61A.336.336,0,0,1,746.644,550.385Zm19.674-.3a.337.337,0,0,1-.284-.155c-.155-.242-.319-.483-.488-.716a.337.337,0,0,1,.546-.4c.176.243.348.495.51.748a.337.337,0,0,1-.283.519Zm-57.985-.741a.337.337,0,0,1-.138-.645c.269-.12.542-.242.813-.36a.337.337,0,0,1,.27.617c-.269.118-.541.238-.808.358A.336.336,0,0,1,708.333,549.34Zm40.288-.728a.337.337,0,0,1-.207-.6c.234-.182.477-.363.722-.538a.337.337,0,0,1,.391.549c-.237.169-.472.344-.7.52A.336.336,0,0,1,748.621,548.612Zm-37.849-.326a.337.337,0,0,1-.13-.648c.272-.113.549-.227.822-.338a.337.337,0,1,1,.254.624c-.272.11-.547.224-.817.336A.336.336,0,0,1,710.773,548.286Zm53.928-.309a.336.336,0,0,1-.249-.11c-.193-.212-.4-.421-.6-.624a.337.337,0,0,1,.472-.481c.215.211.427.43.628.651a.337.337,0,0,1-.249.564Zm-51.461-.681a.337.337,0,0,1-.122-.651c.275-.106.554-.213.831-.317a.337.337,0,0,1,.238.631c-.275.1-.552.209-.825.315A.336.336,0,0,1,713.239,547.3Zm37.577-.179a.337.337,0,0,1-.173-.626c.254-.152.517-.3.78-.446a.337.337,0,1,1,.323.591c-.256.14-.512.286-.758.433A.336.336,0,0,1,750.816,547.116Zm-35.086-.747a.337.337,0,0,1-.113-.654c.278-.1.56-.2.838-.3a.337.337,0,0,1,.221.637c-.277.1-.557.195-.833.294A.339.339,0,0,1,715.731,546.369Zm47.025-.2a.336.336,0,0,1-.209-.073c-.224-.178-.458-.353-.695-.522a.337.337,0,1,1,.391-.549c.246.175.488.357.722.542a.337.337,0,0,1-.209.6Zm-9.587-.288a.337.337,0,0,1-.141-.643c.268-.123.544-.245.82-.362a.337.337,0,0,1,.262.621c-.27.114-.539.233-.8.353A.337.337,0,0,1,753.169,545.882Zm-34.924-.375a.337.337,0,0,1-.105-.657c.28-.092.565-.184.846-.274a.337.337,0,0,1,.2.642c-.279.089-.562.18-.84.272A.337.337,0,0,1,718.245,545.507Zm74.209-.582a.337.337,0,0,1,0-.674c.291,0,.588-.005.882-.011h.006a.337.337,0,0,1,.006.674c-.3.005-.6.009-.89.011Zm-1.772-.013h-.007c-.3-.006-.6-.014-.89-.025a.337.337,0,1,1,.023-.674c.291.01.587.018.881.024a.337.337,0,0,1-.007.674Zm-35.051-.027a.337.337,0,0,1-.112-.655c.278-.1.563-.195.849-.287a.337.337,0,1,1,.207.641c-.279.09-.559.184-.831.281A.334.334,0,0,1,755.631,544.886Zm39.479-.026a.337.337,0,0,1-.014-.674c.291-.012.588-.027.881-.043a.337.337,0,0,1,.037.673c-.3.016-.6.031-.889.043Zm-7.083-.058h-.022c-.3-.019-.6-.04-.889-.063a.337.337,0,0,1,.053-.672c.29.023.585.044.878.063a.337.337,0,0,1-.021.673Zm-67.247-.091a.337.337,0,0,1-.1-.66c.283-.085.57-.17.853-.252a.337.337,0,0,1,.188.647c-.281.082-.566.166-.847.25A.342.342,0,0,1,720.78,544.71Zm76.983-.01a.337.337,0,0,1-.026-.673c.291-.022.587-.047.88-.073a.337.337,0,1,1,.059.671c-.3.026-.594.051-.887.073Zm-37.2-.022a.335.335,0,0,1-.169-.046c-.248-.144-.5-.286-.763-.421a.337.337,0,0,1,.313-.6c.267.14.532.287.788.435a.337.337,0,0,1-.17.628Zm24.821-.108-.038,0c-.3-.033-.594-.069-.885-.106a.337.337,0,0,1,.086-.668c.288.037.582.072.874.1a.337.337,0,0,1-.037.672Zm15.03-.117a.337.337,0,0,1-.036-.672c.29-.032.585-.065.877-.1a.337.337,0,1,1,.08.669c-.294.035-.592.069-.884.1Zm-17.663-.246a.342.342,0,0,1-.055,0c-.294-.049-.589-.1-.879-.154a.337.337,0,1,1,.122-.663c.285.053.577.1.866.151a.337.337,0,0,1-.054.669Zm20.3-.081a.337.337,0,0,1-.046-.671c.29-.04.584-.083.875-.126a.337.337,0,0,1,.1.667c-.293.044-.589.086-.881.127A.338.338,0,0,1,803.047,544.127ZM758.17,544.1a.337.337,0,0,1-.136-.646c-.259-.11-.526-.219-.794-.322a.337.337,0,0,1,.242-.629c.281.108.561.222.832.338a.337.337,0,0,1,.177.442.343.343,0,0,1-.029.054c.162-.041.325-.082.487-.121a.337.337,0,1,1,.158.655c-.285.069-.571.141-.851.216A.338.338,0,0,1,758.17,544.1Zm-34.835-.123a.337.337,0,0,1-.088-.662c.285-.078.574-.155.859-.229a.337.337,0,0,1,.171.652c-.283.074-.57.151-.853.228A.339.339,0,0,1,723.336,543.98Zm82.339-.256a.337.337,0,0,1-.055-.669c.288-.048.581-.1.869-.15a.337.337,0,0,1,.118.664c-.291.051-.585.1-.875.151A.351.351,0,0,1,805.675,543.724Zm-25.538-.014a.34.34,0,0,1-.065-.006c-.286-.056-.577-.11-.865-.162a.337.337,0,0,1,.118-.664c.292.052.587.107.876.164a.337.337,0,0,1-.064.668Zm-19.376-.2a.337.337,0,0,1-.064-.668c.289-.056.585-.109.879-.16a.337.337,0,0,1,.114.664c-.289.049-.58.1-.864.157A.339.339,0,0,1,760.761,543.51Zm-34.851-.192a.337.337,0,0,1-.079-.665c.287-.07.579-.139.865-.206a.337.337,0,1,1,.153.656c-.285.066-.574.135-.859.2A.336.336,0,0,1,725.909,543.318Zm51.607-.053a.358.358,0,0,1-.049,0c-.289-.042-.582-.082-.872-.119a.337.337,0,0,1,.086-.669c.294.038.591.078.883.121a.337.337,0,0,1-.048.671Zm30.772-.016a.337.337,0,0,1-.064-.668c.288-.056.579-.115.866-.174a.337.337,0,1,1,.135.66c-.289.059-.583.118-.872.175A.344.344,0,0,1,808.289,543.249Zm-44.9-.159a.337.337,0,0,1-.043-.671c.292-.038.59-.073.886-.106a.337.337,0,0,1,.073.67c-.292.032-.585.067-.873.1Zm11.494-.142-.033,0c-.291-.028-.586-.054-.877-.077a.337.337,0,1,1,.054-.672c.295.024.593.05.888.078a.337.337,0,0,1-.032.672Zm-8.849-.122a.337.337,0,0,1-.024-.673c.294-.021.594-.04.89-.056a.337.337,0,0,1,.036.673c-.293.016-.588.034-.878.055Zm6.2-.068h-.016c-.292-.014-.588-.026-.88-.035a.337.337,0,0,1,.01-.674h.011c.3.009.595.021.891.035a.337.337,0,0,1-.016.674Zm-43.727-.03a.337.337,0,0,1-.07-.667c.29-.062.583-.123.871-.181a.337.337,0,0,1,.134.661c-.286.058-.577.118-.865.18A.336.336,0,0,1,728.5,542.727Zm40.183-.022a.337.337,0,0,1-.006-.674c.3-.006.595-.009.892-.009h0a.337.337,0,0,1,0,.674c-.293,0-.589,0-.88.009Zm42.207,0a.337.337,0,0,1-.073-.666c.286-.064.576-.13.86-.2a.337.337,0,0,1,.153.656c-.287.067-.578.133-.866.2A.342.342,0,0,1,810.891,542.7Zm-55.2-.126a.334.334,0,0,1-.1-.015c-.275-.085-.558-.168-.84-.247a.337.337,0,0,1,.18-.649c.289.08.579.165.86.253a.337.337,0,0,1-.1.659Zm-24.58-.365a.337.337,0,0,1-.06-.669c.292-.053.586-.105.877-.155a.337.337,0,1,1,.114.664c-.288.049-.58.1-.87.154A.338.338,0,0,1,731.108,542.212Zm82.369-.126a.337.337,0,0,1-.082-.664c.286-.072.574-.147.855-.221a.337.337,0,0,1,.172.652c-.283.075-.573.149-.861.222A.333.333,0,0,1,813.477,542.086Zm-60.358-.185a.342.342,0,0,1-.072-.008c-.282-.062-.571-.121-.859-.176a.337.337,0,1,1,.127-.662c.294.057.589.117.876.18a.337.337,0,0,1-.072.666Zm-19.389-.125a.337.337,0,0,1-.049-.67c.293-.044.589-.086.881-.127a.337.337,0,0,1,.092.668c-.289.04-.582.082-.873.125A.327.327,0,0,1,733.73,541.777Zm16.774-.345a.351.351,0,0,1-.048,0c-.286-.041-.58-.08-.872-.115a.337.337,0,0,1,.081-.669c.3.036.6.075.886.117a.337.337,0,0,1-.047.671Zm-14.139,0a.337.337,0,0,1-.038-.672c.294-.034.592-.066.884-.1a.337.337,0,1,1,.069.67c-.289.03-.584.062-.876.1Zm79.678-.034a.337.337,0,0,1-.093-.661c.292-.084.576-.168.844-.249a.337.337,0,1,1,.195.645c-.271.082-.558.167-.853.251A.338.338,0,0,1,816.043,541.395Zm-77.032-.221a.337.337,0,0,1-.026-.673c.3-.023.595-.044.888-.063a.337.337,0,1,1,.043.673c-.29.019-.586.04-.879.062Zm8.851-.034h-.027c-.289-.023-.584-.044-.877-.062A.337.337,0,0,1,747,540.4c.3.018.6.039.89.063a.337.337,0,0,1-.027.673Zm-6.2-.117a.337.337,0,0,1-.012-.674c.3-.011.6-.019.891-.026a.337.337,0,0,1,.015.674c-.291.006-.587.015-.881.026Zm3.543-.021H745.2c-.29-.008-.587-.013-.881-.016a.337.337,0,0,1,0-.674h0c.3,0,.6.008.892.016a.337.337,0,0,1-.008.674Z" transform="translate(-562.07 -502.237)" fill="#acd3f7"/>
</svg>
