<svg xmlns="http://www.w3.org/2000/svg" width="34.68" height="34.68" viewBox="0 0 34.68 34.68">
  <g id="facebook" transform="translate(111 124)">
    <g id="linkedin-svgrepo-com" transform="translate(-111 -124)">
      <path id="Path_1112" data-name="Path 1112" d="M17.34,0A17.34,17.34,0,1,1,0,17.34,17.34,17.34,0,0,1,17.34,0Z" fill="#245ee2"/>
      <path id="Path_1113" data-name="Path 1113" d="M81.95,87.986H85.2V77.163H81.95Zm12.65-11.2a4.874,4.874,0,0,0-3.986,1.846V77.127H87.355V87.986h3.259V82.114a2.578,2.578,0,0,1,2.561-2.452c1.424,0,1.775,1.211,1.775,2.421v5.9H98.2V81.842c0-4.267-2.023-5.054-3.6-5.054Zm-11.042-.707a1.623,1.623,0,1,0-1.15-.475,1.626,1.626,0,0,0,1.15.475Z" transform="translate(-72.179 -64.16)"/>
    </g>
  </g>
</svg>
