<svg xmlns="http://www.w3.org/2000/svg" width="33.6" height="33.6" viewBox="0 0 33.6 33.6">
  <g id="twitter" transform="translate(-18.6 -5)">
    <g id="Group_14" data-name="Group 14">
      <circle id="Ellipse_3" data-name="Ellipse 3" cx="16.8" cy="16.8" r="16.8" transform="translate(18.6 5)" fill="#111617"/>
    </g>
    <path id="Path_186" data-name="Path 186" d="M35.4,5A16.8,16.8,0,1,0,52.2,21.8,16.8,16.8,0,0,0,35.4,5Zm6.834,13.762c.007.144.009.287.009.427a9.408,9.408,0,0,1-14.485,7.929,6.508,6.508,0,0,0,.789.044,6.627,6.627,0,0,0,4.109-1.416,3.316,3.316,0,0,1-3.091-2.3,3.325,3.325,0,0,0,1.493-.058A3.311,3.311,0,0,1,28.4,20.148v-.04a3.318,3.318,0,0,0,1.5.415A3.307,3.307,0,0,1,28.88,16.1a9.409,9.409,0,0,0,6.82,3.46,3.309,3.309,0,0,1,5.638-3.019,6.647,6.647,0,0,0,2.1-.8,3.325,3.325,0,0,1-1.454,1.832,6.651,6.651,0,0,0,1.9-.523,6.709,6.709,0,0,1-1.65,1.713Z" fill="#245ee2"/>
  </g>
</svg>
