<svg width="59" height="60" viewBox="0 0 59 60" fill="none" xmlns="http://www.w3.org/2000/svg">
<path d="M33.503 10.5145L33.503 17.2055L33.503 34.9992L22.1944 34.9992L21.8618 10.5145L17.2054 10.5145L28.1813 4.76604e-06L39.1572 10.5145L33.503 10.5145Z" fill="url(#paint0_linear_1016_29712)"/>
<path d="M36.0173 23.1121C38.4775 23.3003 40.109 23.3081 40.9119 23.1356C43.4987 22.5748 45.6603 23.2238 47.3966 25.0826C48.5476 26.3179 49.9043 27.2512 51.4666 27.8825C51.6357 27.9513 51.8316 27.9616 52.0243 27.9119C54.7812 27.2374 56.8063 28.1002 58.0996 30.5001C58.1502 30.5934 58.1796 30.691 58.1839 30.7794C58.1881 30.8679 58.167 30.9429 58.1234 30.9942C58.0205 31.1119 57.8762 31.0844 57.6903 30.9119C56.567 29.8609 55.325 29.4256 53.9644 29.606C53.3157 29.6923 53.1397 29.8766 53.4364 30.1589C53.4952 30.2158 53.5735 30.2581 53.6651 30.2826C53.7567 30.3071 53.8591 30.3131 53.9644 30.3001C56.2703 30.0531 57.9039 31.0021 58.865 33.1471C59.1181 33.7118 59.0153 33.7844 58.5565 33.3648C57.1642 32.0903 55.5247 31.8295 53.6381 32.5824C53.4662 32.6508 53.3246 32.7828 53.2406 32.953C52.5642 34.3569 52.226 35.8216 52.226 37.347C52.23 38.4254 52.0658 39.1744 51.7336 39.594C51.0414 40.4685 49.9854 40.7646 48.5654 40.4822C47.4817 40.2705 47.0565 39.5823 47.2898 38.4176C47.4718 37.5235 47.1435 36.8843 46.305 36.5C45.4665 36.1196 44.8791 35.2902 44.5429 34.0118C44.4242 33.5608 44.2739 33.551 44.092 33.9824C43.8626 34.5353 43.5323 34.9667 43.1012 35.2765C42.7848 35.5 42.2864 35.6098 41.6061 35.6059C40.7834 35.6059 39.9666 35.6823 39.1558 35.8353C39.0735 35.8501 38.9888 35.838 38.9147 35.8008C38.8407 35.7635 38.7815 35.7033 38.7464 35.6294C38.4498 35.0137 38.1373 34.4079 37.809 33.8118C37.5796 33.3922 37.4847 33.3687 37.5242 33.7412C37.5321 33.8 37.5499 33.8569 37.5776 33.9118C38.0008 34.7392 38.0602 35.598 37.7556 36.4882C37.6211 36.896 37.7517 37.0137 38.1472 36.8411C39.4485 36.2804 40.8012 36.0804 42.2053 36.2412C42.2449 36.249 42.769 36.2686 43.7775 36.3C44.7861 36.3353 45.2153 36.947 45.065 38.1352C44.8079 40.1666 44.6616 41.8802 44.626 43.2763C44.5943 44.4449 44.4776 45.2135 44.2759 45.5821C43.8804 46.3194 43.1665 46.7899 42.1341 46.9938C40.4136 47.3389 39.2646 47.5585 38.6871 47.6527C38.5974 47.6666 38.5064 47.6543 38.4267 47.6174C38.347 47.5806 38.2825 47.5209 38.2421 47.4468C38.0206 47.0389 37.9039 46.6037 37.8921 46.1409C37.8802 45.4743 37.8703 45.039 37.8624 44.8351C37.8229 43.5998 38.6377 43.243 40.3068 43.7645C41.0425 43.9959 41.5151 43.7429 41.7248 43.0057C41.9186 42.3234 41.9166 41.5293 41.7188 40.6234C41.7118 40.5894 41.6969 40.5574 41.6753 40.5301C41.6537 40.5028 41.6259 40.4808 41.5943 40.466C41.5626 40.4511 41.5279 40.4438 41.4929 40.4446C41.4578 40.4454 41.4235 40.4542 41.3925 40.4705C40.3088 41.0116 39.2448 41.592 38.2006 42.2116C36.6739 43.1214 34.8287 43.4586 32.6652 43.2233C32.4631 43.2018 32.2695 43.1304 32.1017 43.0153C31.9339 42.9003 31.7972 42.7454 31.704 42.5645C31.091 41.3567 30.7113 40.0411 30.5649 38.6176C30.5372 38.3823 30.4759 38.2803 30.381 38.3117C30.3307 38.3254 30.2887 38.3644 30.2634 38.4211C30.2381 38.4778 30.2314 38.5479 30.2445 38.6176L31.1048 43.2822C31.1135 43.3265 31.1144 43.3719 31.1075 43.4157C31.1005 43.4594 31.0857 43.5007 31.0641 43.5369C31.0425 43.5732 31.0145 43.6037 30.9817 43.6266C30.9489 43.6496 30.9121 43.6645 30.8734 43.6704L26.3169 44.341C25.5496 44.4547 25.1244 44.1057 25.0413 43.2939C24.982 42.69 24.7665 42.1802 24.3947 41.7646C24.2562 41.6077 24.2167 41.6312 24.276 41.8351C24.6438 43.1018 24.5904 44.1606 24.1158 45.0115C22.8857 47.1997 20.9694 48.2742 18.3668 48.235C16.5671 48.2075 15.0463 48.8232 13.8044 50.082C13.0687 50.8271 12.8314 51.7741 13.0924 52.9231C13.2388 53.5702 13.1003 54.1525 12.6771 54.6701C12.2618 55.1799 12.0561 55.7956 12.0601 56.5172C12.068 57.4309 11.7674 58.274 11.1583 59.0465C11.0408 59.1955 10.8703 59.2944 10.6817 59.3228C10.4931 59.3513 10.3006 59.3071 10.1438 59.1994C8.61306 58.1367 8.22347 56.9701 8.97497 55.6995C9.07134 55.5349 9.11288 55.3455 9.09363 55.1584C9.01848 54.4211 9.13714 53.7545 9.44961 53.1584C9.94402 52.2173 10.213 51.6349 10.2565 51.4114C10.4305 50.5291 10.4641 49.682 10.3573 48.8703C10.2624 48.1526 10.3 47.486 10.4701 46.8703C10.6204 46.3331 11.0001 45.8292 11.6092 45.3586C12.3291 44.8096 13.0608 44.2763 13.8044 43.7586C14.3898 43.3547 14.6291 42.7175 14.5223 41.8469C14.5175 41.8116 14.5047 41.7778 14.4848 41.748C14.4649 41.7182 14.4384 41.6931 14.4072 41.6745C14.376 41.656 14.3409 41.6444 14.3044 41.6406C14.2678 41.6369 14.2308 41.641 14.196 41.6528C13.6303 41.8528 13.0549 41.9802 12.4695 42.0351C11.8643 42.094 11.3185 41.9489 10.832 41.5999C8.92949 40.2273 8.4865 38.3274 9.503 35.9C9.57937 35.7106 9.592 35.5165 9.5386 35.3529C9.31315 34.6314 8.84445 34.2 8.1325 34.0589C7.63018 33.9569 7.07644 34.0922 6.47128 34.4647C5.69604 34.9353 4.95838 35.4627 4.25829 36.047C3.16663 36.9568 1.80206 37.298 0.164572 37.0706C0.132323 37.0663 0.101728 37.0538 0.0757251 37.0344C0.0497219 37.015 0.0291824 36.9893 0.0160777 36.9598C0.00297309 36.9303 -0.00225676 36.8979 0.000889887 36.8658C0.00403654 36.8337 0.0154541 36.8029 0.034047 36.7764C2.51006 33.1334 5.79295 32.0315 9.88271 33.4706C10.8557 33.8118 11.1662 34.4628 10.8142 35.4235C10.3751 36.6078 10.2723 37.9548 10.5057 39.4646C10.6678 40.5116 11.2315 40.8116 12.1966 40.3646C13.3713 39.8273 14.2889 39.0431 14.9494 38.0117C15.8236 36.6431 16.2626 35.9569 16.2665 35.9529C17.5204 34.5883 19.2587 33.7471 21.4816 33.4295C22.6326 33.2648 23.5225 32.5216 24.1514 31.2001C24.5628 31.1452 24.7447 31.353 24.6972 31.8236C24.63 32.5256 24.6715 33.1726 24.8218 33.7647C25.0196 34.5569 25.1422 34.5471 25.1897 33.7353C25.2806 32.1354 25.4487 30.5472 25.694 28.9707C26.3268 24.8885 28.7791 22.8944 33.0508 22.9885C34.5775 23.0238 35.5664 23.065 36.0173 23.1121ZM34.4866 26.059C34.3481 25.863 34.2453 25.8336 34.1781 25.9708C34.1548 26.0241 34.155 26.087 34.1787 26.149C34.2025 26.2111 34.2483 26.2686 34.3086 26.312C35.4675 27.1394 36.1854 28.1394 36.4622 29.3119C36.573 29.7746 36.6659 29.808 36.7411 29.4119C36.753 29.3452 36.751 29.2805 36.7352 29.2178C36.4306 27.9747 35.7503 26.9924 34.6942 26.2708C34.623 26.2198 34.5538 26.1492 34.4866 26.059ZM47.4085 29.459C46.9813 29.1492 46.7499 28.8707 46.7143 28.6237C46.659 28.2472 46.8014 28.1492 47.1415 28.3296C48.4903 29.0551 49.3209 29.3727 49.6333 29.2825C49.6643 29.274 49.688 29.254 49.7023 29.2242C49.7165 29.1945 49.7209 29.156 49.715 29.1121C49.7091 29.0683 49.6932 29.0206 49.6685 28.9733C49.6439 28.926 49.6114 28.8807 49.574 28.8413C48.5456 27.7825 47.3017 27.0904 45.8422 26.7649C45.8061 26.757 45.7687 26.7567 45.7326 26.7642C45.6966 26.7717 45.6629 26.7867 45.6339 26.8081C45.6049 26.8295 45.5814 26.8568 45.5651 26.888C45.5488 26.9192 45.5401 26.9535 45.5396 26.9884C45.5357 28.3257 46.0439 29.4119 47.0644 30.2472C47.2384 30.3923 47.4382 30.4746 47.6636 30.4942C48.5417 30.5687 48.4566 30.2236 47.4085 29.459ZM50.8437 33.9412C50.551 34.6039 50.7033 34.7667 51.3005 34.4294C51.3844 34.3823 51.4554 34.3169 51.5071 34.239C51.5588 34.1611 51.5897 34.073 51.5972 33.9824C51.6288 33.5393 51.4963 33.3902 51.1996 33.5353C51.0454 33.6098 50.9267 33.7451 50.8437 33.9412Z" fill="#5C9139"/>
<path d="M45.8363 38.4177C46.0736 37.4961 46.2002 37.5098 46.216 38.4588C46.2397 40.2196 46.3505 41.9744 46.5483 43.7234C46.655 44.6685 46.6135 45.4763 46.4237 46.1469C46.2338 46.8135 45.7078 47.341 44.8455 47.7292C43.8053 48.2037 42.7373 48.6057 41.6417 48.9351C41.5481 48.9618 41.4513 48.9656 41.3615 48.9459C41.2717 48.9263 41.1923 48.8839 41.1315 48.8233C40.7518 48.4429 40.7498 48.0978 41.1256 47.788C41.2996 47.6429 41.5745 47.5567 41.9502 47.5292C44.1415 47.3802 45.2292 46.1489 45.2133 43.8352C45.1975 41.8862 45.4052 40.0804 45.8363 38.4177Z" fill="#5C9139"/>
<path d="M24.4834 45.3293C24.5971 45.1395 24.7633 44.9857 24.9629 44.8858C25.1624 44.7858 25.3871 44.7438 25.6107 44.7646C26.3899 44.843 26.5936 45.2783 26.2218 46.0704C25.7116 47.1606 24.9897 48.0371 24.0563 48.6998C23.4076 49.1586 22.4188 49.4763 21.0898 49.6527C19.5314 49.8566 18.4872 50.0488 17.9572 50.2292C16.7983 50.6252 16.2149 51.3723 16.207 52.4703C16.1991 53.3173 16.1635 53.8546 16.1002 54.082C16.0013 54.435 15.8866 54.784 15.7561 55.1291C15.6335 55.4506 15.5583 55.8016 15.5306 56.182C15.4318 57.5898 14.9018 58.8192 13.9406 59.8701C13.8832 59.934 13.8061 59.9772 13.7214 59.9932C13.6366 60.0091 13.5489 59.9969 13.4719 59.9584C12.665 59.5505 12.2517 59.0623 12.2319 58.4937C12.2319 58.4858 12.3407 57.9447 12.5582 56.8702C12.7521 55.9369 13.0922 55.0585 13.5787 54.235C13.675 54.067 13.7146 53.8752 13.6914 53.6879C13.3908 51.1625 14.3322 49.6233 16.5155 49.0704C16.5353 49.0665 17.3797 48.9978 19.0489 48.8645C21.3746 48.6841 23.1861 47.5057 24.4834 45.3293Z" fill="#5C9139"/>
<defs>
<linearGradient id="paint0_linear_1016_29712" x1="28.1813" y1="30.5875" x2="28.1813" y2="-1.11866e-05" gradientUnits="userSpaceOnUse">
<stop stop-color="#D9D9D9"/>
<stop offset="1" stop-color="#5C9139"/>
</linearGradient>
</defs>
</svg>
