<svg width="42" height="42" viewBox="0 0 42 42" fill="none" xmlns="http://www.w3.org/2000/svg">
<path d="M18.3106 7.81748L18.3106 12.4076L18.3106 24.6143L26.0021 24.6143L26.2283 7.81748L29.3954 7.81748L21.9301 0.604432L14.4648 7.81748L18.3106 7.81748Z" fill="url(#paint0_linear_1065_9683)"/>
<path d="M16.6006 16.4596C14.9273 16.5887 13.8176 16.5941 13.2715 16.4757C11.5121 16.091 10.0419 16.5362 8.86092 17.8114C8.07808 18.6588 7.15535 19.2991 6.09272 19.7322C5.9777 19.7794 5.8445 19.7864 5.71341 19.7524C3.83835 19.2896 2.46098 19.8815 1.58129 21.5279C1.54689 21.5919 1.52687 21.6588 1.52398 21.7195C1.52109 21.7802 1.53547 21.8317 1.56515 21.8668C1.63509 21.9475 1.73329 21.9287 1.85973 21.8103C2.62374 21.0894 3.46845 20.7908 4.39388 20.9145C4.83507 20.9737 4.95478 21.1001 4.75301 21.2938C4.71297 21.3328 4.65972 21.3618 4.59742 21.3786C4.53512 21.3954 4.46546 21.3996 4.39388 21.3907C2.8255 21.2212 1.71445 21.8722 1.06074 23.3438C0.888568 23.7311 0.958515 23.7809 1.27058 23.4931C2.21752 22.6187 3.3326 22.4399 4.61582 22.9564C4.7327 23.0033 4.82904 23.0939 4.88618 23.2106C5.3462 24.1737 5.57621 25.1785 5.57621 26.2249C5.57352 26.9647 5.68516 27.4786 5.91114 27.7664C6.38192 28.3663 7.1002 28.5694 8.06597 28.3757C8.80308 28.2305 9.09228 27.7583 8.93356 26.9594C8.80981 26.346 9.03309 25.9075 9.60341 25.6439C10.1737 25.3829 10.5732 24.8139 10.8019 23.9369C10.8826 23.6276 10.9848 23.6208 11.1086 23.9168C11.2646 24.2961 11.4892 24.592 11.7825 24.8045C11.9977 24.9579 12.3366 25.0332 12.7993 25.0305C13.3589 25.0305 13.9144 25.083 14.4659 25.1879C14.5219 25.1981 14.5795 25.1897 14.6299 25.1642C14.6802 25.1386 14.7205 25.0973 14.7443 25.0466C14.9461 24.6243 15.1586 24.2086 15.3819 23.7997C15.538 23.5119 15.6025 23.4957 15.5756 23.7513C15.5702 23.7917 15.5581 23.8307 15.5393 23.8683C15.2514 24.436 15.2111 25.0251 15.4182 25.6358C15.5097 25.9156 15.4209 25.9963 15.1519 25.8779C14.2668 25.4932 13.3468 25.356 12.3918 25.4663C12.3649 25.4717 12.0084 25.4851 11.3224 25.5067C10.6364 25.5309 10.3446 25.9505 10.4468 26.7657C10.6216 28.1592 10.7212 29.3348 10.7454 30.2925C10.7669 31.0942 10.8463 31.6214 10.9835 31.8743C11.2525 32.3801 11.7381 32.7029 12.4402 32.8428C13.6104 33.0795 14.3919 33.2302 14.7847 33.2947C14.8457 33.3043 14.9076 33.2959 14.9618 33.2706C15.016 33.2453 15.0599 33.2044 15.0873 33.1535C15.238 32.8737 15.3174 32.5751 15.3254 32.2577C15.3335 31.8003 15.3402 31.5017 15.3456 31.3618C15.3725 30.5144 14.8183 30.2696 13.6831 30.6274C13.1827 30.7861 12.8612 30.6126 12.7186 30.1069C12.5868 29.6388 12.5882 29.094 12.7227 28.4726C12.7274 28.4492 12.7376 28.4273 12.7523 28.4086C12.767 28.3898 12.7859 28.3748 12.8074 28.3646C12.8289 28.3544 12.8525 28.3494 12.8764 28.3499C12.9002 28.3504 12.9236 28.3565 12.9446 28.3677C13.6817 28.7389 14.4054 29.1371 15.1156 29.5621C16.154 30.1862 17.409 30.4176 18.8805 30.2562C19.0179 30.2414 19.1496 30.1924 19.2638 30.1135C19.3779 30.0346 19.4708 29.9283 19.5342 29.8042C19.9512 28.9756 20.2095 28.0731 20.309 27.0966C20.3278 26.9351 20.3695 26.8652 20.4341 26.8867C20.4683 26.8961 20.4969 26.9229 20.5141 26.9618C20.5313 27.0006 20.5358 27.0488 20.5269 27.0966L19.9418 30.2965C19.9358 30.3269 19.9352 30.3581 19.94 30.3881C19.9447 30.4181 19.9548 30.4464 19.9695 30.4713C19.9842 30.4962 20.0032 30.5171 20.0255 30.5328C20.0478 30.5486 20.0728 30.5588 20.0992 30.5629L23.1982 31.0229C23.7201 31.1009 24.0093 30.8615 24.0658 30.3046C24.1062 29.8903 24.2528 29.5406 24.5057 29.2554C24.5998 29.1478 24.6267 29.164 24.5864 29.3038C24.3362 30.1728 24.3725 30.8991 24.6953 31.4829C25.532 32.984 26.8354 33.7211 28.6055 33.6942C29.8295 33.6754 30.8639 34.0978 31.7086 34.9613C32.209 35.4724 32.3704 36.1221 32.1929 36.9103C32.0933 37.3542 32.1875 37.7537 32.4753 38.1088C32.7578 38.4585 32.8977 38.8809 32.895 39.3759C32.8896 40.0027 33.0941 40.5811 33.5084 41.1111C33.5883 41.2133 33.7042 41.2811 33.8325 41.3006C33.9608 41.3201 34.0917 41.2898 34.1984 41.216C35.2395 40.4869 35.5045 39.6866 34.9933 38.815C34.9278 38.7021 34.8995 38.5721 34.9126 38.4437C34.9638 37.938 34.883 37.4807 34.6705 37.0717C34.3342 36.4261 34.1513 36.0266 34.1217 35.8733C34.0034 35.268 33.9805 34.6869 34.0531 34.13C34.1177 33.6377 34.0921 33.1804 33.9765 32.758C33.8742 32.3895 33.616 32.0438 33.2017 31.721C32.7121 31.3444 32.2144 30.9785 31.7086 30.6234C31.3105 30.3463 31.1477 29.9091 31.2204 29.3119C31.2236 29.2877 31.2323 29.2645 31.2458 29.2441C31.2594 29.2236 31.2774 29.2064 31.2986 29.1937C31.3198 29.1809 31.3437 29.173 31.3686 29.1704C31.3934 29.1678 31.4186 29.1707 31.4423 29.1788C31.827 29.316 32.2184 29.4034 32.6166 29.441C33.0282 29.4814 33.3994 29.3819 33.7303 29.1424C35.0243 28.2009 35.3256 26.8975 34.6342 25.2323C34.5823 25.1023 34.5737 24.9692 34.61 24.857C34.7633 24.362 35.0821 24.0661 35.5664 23.9692C35.908 23.8993 36.2846 23.9921 36.6962 24.2477C37.2235 24.5705 37.7252 24.9323 38.2014 25.3331C38.9439 25.9573 39.872 26.1913 40.9857 26.0353C41.0077 26.0323 41.0285 26.0238 41.0462 26.0105C41.0638 25.9972 41.0778 25.9796 41.0867 25.9593C41.0956 25.939 41.0992 25.9168 41.0971 25.8948C41.0949 25.8728 41.0871 25.8517 41.0745 25.8335C39.3904 23.3343 37.1576 22.5784 34.3759 23.5657C33.7142 23.7997 33.503 24.2463 33.7424 24.9054C34.041 25.7178 34.111 26.6419 33.9522 27.6776C33.8419 28.3959 33.4586 28.6017 32.8022 28.295C32.0032 27.9265 31.3791 27.3884 30.9298 26.6809C30.3353 25.742 30.0367 25.2713 30.034 25.2686C29.1812 24.3324 27.9989 23.7554 26.487 23.5374C25.7041 23.4245 25.0989 22.9147 24.6711 22.0081C24.3913 21.9704 24.2676 22.113 24.2999 22.4358C24.3456 22.9174 24.3174 23.3612 24.2151 23.7675C24.0806 24.3109 23.9972 24.3041 23.9649 23.7473C23.9031 22.6497 23.7887 21.5602 23.6219 20.4787C23.1915 17.6782 21.5236 16.3103 18.6182 16.3748C17.5798 16.399 16.9073 16.4273 16.6006 16.4596ZM17.6417 18.4813C17.7358 18.3467 17.8058 18.3266 17.8515 18.4207C17.8674 18.4572 17.8672 18.5004 17.851 18.543C17.8349 18.5856 17.8037 18.625 17.7627 18.6548C16.9745 19.2224 16.4862 19.9084 16.2979 20.7128C16.2226 21.0302 16.1594 21.0531 16.1083 20.7814C16.1002 20.7356 16.1015 20.6912 16.1123 20.6482C16.3195 19.7954 16.7822 19.1215 17.5004 18.6265C17.5489 18.5915 17.5959 18.5431 17.6417 18.4813ZM8.85285 20.8136C9.14339 20.6011 9.30077 20.4101 9.32498 20.2406C9.36264 19.9824 9.26579 19.9151 9.03444 20.0389C8.11709 20.5365 7.55215 20.7545 7.33963 20.6926C7.31856 20.6868 7.30244 20.673 7.29274 20.6526C7.28304 20.6322 7.28006 20.6058 7.28407 20.5757C7.28808 20.5457 7.29895 20.5129 7.31569 20.4805C7.33244 20.448 7.35454 20.4169 7.37998 20.3899C8.07942 19.6636 8.92549 19.1888 9.91816 18.9655C9.94272 18.96 9.96818 18.9599 9.99269 18.965C10.0172 18.9701 10.0401 18.9804 10.0598 18.9951C10.0795 19.0098 10.0955 19.0285 10.1066 19.0499C10.1177 19.0713 10.1236 19.0948 10.124 19.1188C10.1267 20.0362 9.78096 20.7814 9.0869 21.3544C8.96853 21.4539 8.83268 21.5104 8.67934 21.5238C8.08212 21.575 8.13995 21.3382 8.85285 20.8136ZM6.51643 23.8885C6.7155 24.3432 6.61193 24.4548 6.20571 24.2234C6.14862 24.1911 6.10037 24.1463 6.0652 24.0928C6.03003 24.0393 6.009 23.9789 6.00395 23.9168C5.98243 23.6128 6.07255 23.5105 6.27431 23.6101C6.37923 23.6612 6.45994 23.754 6.51643 23.8885Z" fill="#5C9139"/>
<path d="M9.92173 26.9594C9.76032 26.3272 9.67423 26.3366 9.66347 26.9877C9.64733 28.1956 9.57201 29.3994 9.4375 30.5992C9.36486 31.2476 9.39311 31.8017 9.52224 32.2618C9.65137 32.7191 10.0092 33.0809 10.5956 33.3473C11.3031 33.6728 12.0295 33.9485 12.7747 34.1745C12.8383 34.1929 12.9042 34.1954 12.9652 34.1819C13.0263 34.1684 13.0804 34.1394 13.1217 34.0978C13.38 33.8369 13.3813 33.6001 13.1257 33.3876C13.0074 33.2881 12.8204 33.2289 12.5648 33.2101C11.0745 33.1078 10.3347 32.2631 10.3454 30.6759C10.3562 29.3389 10.215 28.1001 9.92173 26.9594Z" fill="#5C9139"/>
<path d="M24.4455 31.7009C24.3682 31.5707 24.2551 31.4652 24.1194 31.3966C23.9837 31.3281 23.8309 31.2992 23.6788 31.3135C23.1488 31.3673 23.0103 31.6659 23.2631 32.2093C23.6102 32.9572 24.1011 33.5585 24.736 34.0131C25.1772 34.3278 25.8498 34.5458 26.7537 34.6668C27.8136 34.8067 28.5238 34.9385 28.8843 35.0623C29.6725 35.334 30.0693 35.8465 30.0747 36.5997C30.0801 37.1808 30.1043 37.5493 30.1473 37.7054C30.2146 37.9475 30.2926 38.1869 30.3814 38.4236C30.4648 38.6442 30.5159 38.885 30.5347 39.146C30.602 40.1117 30.9624 40.9551 31.6162 41.6761C31.6552 41.7199 31.7076 41.7496 31.7653 41.7605C31.8229 41.7714 31.8826 41.763 31.9349 41.7366C32.4837 41.4568 32.7649 41.1219 32.7783 40.7318C32.7783 40.7264 32.7043 40.3552 32.5564 39.6181C32.4246 38.9778 32.1932 38.3752 31.8623 37.8103C31.7968 37.6951 31.7699 37.5635 31.7856 37.435C31.9901 35.7025 31.3498 34.6466 29.8649 34.2673C29.8514 34.2646 29.277 34.2175 28.1418 34.1261C26.56 34.0023 25.3279 33.1939 24.4455 31.7009Z" fill="#5C9139"/>
<defs>
<linearGradient id="paint0_linear_1065_9683" x1="21.9301" y1="21.5878" x2="21.9301" y2="0.604421" gradientUnits="userSpaceOnUse">
<stop stop-color="#D9D9D9"/>
<stop offset="1" stop-color="#5C9139"/>
</linearGradient>
</defs>
</svg>
