<svg xmlns="http://www.w3.org/2000/svg" xmlns:xlink="http://www.w3.org/1999/xlink" width="811" height="705" viewBox="0 0 811 705">
  <defs>
    <clipPath id="clip-path">
      <rect id="Rectangle_380" data-name="Rectangle 380" width="811" height="705" transform="translate(182 1175)" fill="#fff" stroke="#707070" stroke-width="1"/>
    </clipPath>
    <clipPath id="clip-path-2">
      <path id="Path_394" data-name="Path 394" d="M0-1558.991H941.009V-2500H0Z" transform="translate(0 2500)" fill="none"/>
    </clipPath>
    <clipPath id="clip-path-3">
      <path id="Path_425" data-name="Path 425" d="M446.5-1530.576l359.741-45.876a18.142,18.142,0,0,0,15.847-18l187.844-309.223c0-8.494-195.3-88.661-203.725-87.586l-359.741,45.877a18.143,18.143,0,0,0-15.848,18v382.823a14.1,14.1,0,0,0,15.882,13.987" transform="translate(-430.614 1991.271)" fill="none"/>
    </clipPath>
    <clipPath id="clip-path-4">
      <path id="Path_424" data-name="Path 424" d="M0-1558.991H941.009V-2500H0Z" transform="translate(0 2500)" fill="#fff"/>
    </clipPath>
  </defs>
  <g id="Mask_Group_19" data-name="Mask Group 19" transform="translate(-182 -1175)" clip-path="url(#clip-path)">
    <g id="Group_189" data-name="Group 189" transform="translate(4)">
      <g id="Group_186" data-name="Group 186" transform="translate(56.496 3556.992)">
        <g id="Group_70" data-name="Group 70" transform="translate(0 -2500)" clip-path="url(#clip-path-2)">
          <path id="Path_368" data-name="Path 368" d="M1736.412-1328.847c-9.527,3.275-16.374,25.61-20.842,34.245-.1.2-.2.384-.3.572a2.825,2.825,0,0,1-5.258-.715c-2.371-10.584-3.376-21.237,6.452-29.634,16.374-14,19.351-26.8,18.455-41.694a36.455,36.455,0,0,1,5.706-21.376,103.408,103.408,0,0,0,7.573-14.623c39.387-92.765-23.725-66.424-29.356-44.111-4.016,15.933,2.085,25.614-11.808,36.729-17.623,14.1-19.05,29.186-18.655,36.135s6.549,17.273-7.144,30.771-14.093,28.987-8.932,44.672-4.566,27.993-9.922,34.347a.213.213,0,0,0-.026.034,2.023,2.023,0,0,1-3.482-.576c-2.4-6.6-7.457-9.44-10.98-10.972-4.566-1.987-9.527-10.919-13.3-23.427s-28.577-23.826-38.3-18.463-15.481,28.588-7.543,40.3,47.83,22.633,45.846,39.707,27.387,27.2,27.387,27.2a10.433,10.433,0,0,0,4.908-2.473c7.716,4.618,19.238,9.143,25.757.388.967-1.3,1.938-2.763,2.9-4.359,2.7-.158,6.771-1.664,12.873-5.469,22.923-14.292,16.968-26.205,20.544-36.331s19.05-25.61,19.05-25.61c20.243-31.866-2.081-48.541-11.608-45.266" transform="translate(-988.412 1856.166)" fill="#2a353d"/>
          <path id="Path_369" data-name="Path 369" d="M1837.872-1180.022a.849.849,0,0,1-.851-.836c-.96-59.972,15.052-116.346,28.656-153.08,14.74-39.793,29.909-65.765,30.063-66.025a.847.847,0,0,1,1.159-.3.844.844,0,0,1,.3,1.163c-.151.256-15.259,26.126-29.943,65.788-13.551,36.59-29.495,92.734-28.539,152.428a.843.843,0,0,1-.832.862h-.015" transform="translate(-1145.535 1814.281)"/>
          <path id="Path_370" data-name="Path 370" d="M1676-950.781a.851.851,0,0,1-.836-.7c-8.669-49.745-59.562-82.383-60.078-82.707a.85.85,0,0,1-.263-1.171.851.851,0,0,1,1.171-.263c.519.327,52.045,33.353,60.842,83.848a.847.847,0,0,1-.689.982.645.645,0,0,1-.147.015" transform="translate(-1006.917 1586.903)"/>
          <path id="Path_371" data-name="Path 371" d="M1871.3-942.482a.778.778,0,0,1-.226-.03.844.844,0,0,1-.591-1.043c9.692-35.1,37.061-72.939,37.335-73.316a.849.849,0,0,1,1.186-.188.854.854,0,0,1,.188,1.189c-.275.373-27.462,37.968-37.076,72.766a.844.844,0,0,1-.817.621" transform="translate(-1166.409 1575.344)"/>
          <path id="Path_372" data-name="Path 372" d="M1854.281-1044.517a.845.845,0,0,1-.583-.233.847.847,0,0,1-.034-1.2c8.593-9.083,13.927-22.806,13.98-22.942a.85.85,0,0,1,1.1-.489.853.853,0,0,1,.489,1.1c-.222.572-5.511,14.175-14.333,23.5a.843.843,0,0,1-.614.267" transform="translate(-1155.793 1607.906)"/>
          <path id="Path_373" data-name="Path 373" d="M1849.338-998.605a.847.847,0,0,1-.715-.388.848.848,0,0,1,.252-1.174c10.566-6.839,14.83-18.828,14.872-18.948a.848.848,0,0,1,1.08-.523.847.847,0,0,1,.523,1.08c-.177.512-4.5,12.662-15.553,19.818a.858.858,0,0,1-.459.135" transform="translate(-1152.709 1576.881)"/>
          <path id="Path_374" data-name="Path 374" d="M1890.521-909.593a.85.85,0,0,1-.8-.557.851.851,0,0,1,.5-1.092c8.134-2.974,21.109-21.2,21.24-21.384a.846.846,0,0,1,1.182-.2.851.851,0,0,1,.2,1.186c-.546.768-13.415,18.843-22.042,22a.856.856,0,0,1-.29.053" transform="translate(-1178.392 1522.815)"/>
          <path id="Path_375" data-name="Path 375" d="M1666.252-1021.827a.5.5,0,0,1-.105-.008.842.842,0,0,1-.738-.945c1.543-12.568-6.4-21.7-6.474-21.79a.851.851,0,0,1,.072-1.2.855.855,0,0,1,1.2.075c.346.391,8.526,9.8,6.884,23.122a.848.848,0,0,1-.839.745" transform="translate(-1034.373 1593.279)"/>
          <path id="Path_376" data-name="Path 376" d="M1695.2-929.143a.827.827,0,0,1-.324-.064c-14.213-5.9-29.3-18.5-29.454-18.624a.847.847,0,0,1-.105-1.193.849.849,0,0,1,1.2-.105c.151.124,15.045,12.557,29.013,18.353a.853.853,0,0,1,.459,1.11.848.848,0,0,1-.787.523" transform="translate(-1038.36 1533.007)"/>
          <path id="Path_377" data-name="Path 377" d="M1897.92-1240.256a.847.847,0,0,1-.783-.523c-5.115-12.222-1.784-27.752-1.641-28.407a.85.85,0,0,1,1.012-.647.849.849,0,0,1,.647,1.013c-.034.154-3.358,15.666,1.547,27.387a.854.854,0,0,1-.455,1.114.921.921,0,0,1-.327.064" transform="translate(-1181.278 1732.885)"/>
          <path id="Path_378" data-name="Path 378" d="M1766.279-741.122h-26.792a34.6,34.6,0,0,1-34.607-34.607V-815.42h96.005v39.692a34.6,34.6,0,0,1-34.607,34.607" transform="translate(-1063.157 1449.502)" fill="#acd3f7"/>
          <path id="Path_379" data-name="Path 379" d="M1704.318-815.982v38.845a33.8,33.8,0,0,0,33.76,33.76h26.792a33.8,33.8,0,0,0,33.76-33.76v-38.845Zm60.552,74.3h-26.792a35.5,35.5,0,0,1-35.457-35.457v-39.692a.85.85,0,0,1,.851-.851h96.005a.85.85,0,0,1,.851.851v39.692a35.5,35.5,0,0,1-35.457,35.457" transform="translate(-1061.748 1450.911)"/>
          <path id="Path_380" data-name="Path 380" d="M1121.485-1991.48a.843.843,0,0,1-.5-.16.85.85,0,0,1-.343-.83l6.218-36.918-6.587-1.109a20.66,20.66,0,0,1-13.483-8.444,20.649,20.649,0,0,1-3.561-15.5l15.692-93.217a20.648,20.648,0,0,1,8.446-13.482,20.648,20.648,0,0,1,15.5-3.563l225.206,37.918a20.642,20.642,0,0,1,13.483,8.444,20.668,20.668,0,0,1,3.564,15.5l-15.7,93.217a20.658,20.658,0,0,1-8.443,13.482,20.641,20.641,0,0,1-15.5,3.563l-27.109-4.564a.848.848,0,0,1-.693-.978.85.85,0,0,1,.975-.7l27.108,4.564a18.956,18.956,0,0,0,14.236-3.271,18.956,18.956,0,0,0,7.754-12.381l15.7-93.217a18.968,18.968,0,0,0-3.271-14.238,18.972,18.972,0,0,0-12.384-7.753l-225.206-37.918a18.956,18.956,0,0,0-14.239,3.271,18.972,18.972,0,0,0-7.754,12.382l-15.692,93.217a18.951,18.951,0,0,0,3.271,14.238,18.96,18.96,0,0,0,12.38,7.753l7.423,1.25a.848.848,0,0,1,.7.978l-6.071,36.057,53.991-28.672a.867.867,0,0,1,.542-.088l68.317,11.5a.848.848,0,0,1,.7.978.856.856,0,0,1-.979.7l-68.035-11.455-55.26,29.344a.84.84,0,0,1-.4.1" transform="translate(-687.789 2291.095)" fill="#5b5f75"/>
          <path id="Path_381" data-name="Path 381" d="M765.318-1385.806a19.428,19.428,0,0,0,16.968-19.268l1.269-266.977-4.765-10.293s-8.638-5.762-13.174-8.342a15,15,0,0,0-9.357-1.841l-385.164,49.12a19.425,19.425,0,0,0-16.968,19.269v264.658c.457,16.234,22.279,26.021,22.279,26.021l388.913-52.346" transform="translate(-220.831 1996.54)" fill="#5b5f75"/>
          <path id="Path_382" data-name="Path 382" d="M407.6-1314.287,795.1-1363.7a19.54,19.54,0,0,0,17.07-19.385v-266.258a15.187,15.187,0,0,0-17.107-15.064L407.566-1615a19.542,19.542,0,0,0-17.07,19.384v266.26a15.184,15.184,0,0,0,17.107,15.064" transform="translate(-243.512 1979.008)" fill="#2a353d"/>
          <path id="Path_383" data-name="Path 383" d="M795.573-1665.088a14.332,14.332,0,0,0-1.811.115l-387.495,49.417a18.732,18.732,0,0,0-16.329,18.542v266.26a14.343,14.343,0,0,0,4.862,10.761,14.356,14.356,0,0,0,11.289,3.459l387.492-49.414a18.733,18.733,0,0,0,16.328-18.545v-266.258a14.337,14.337,0,0,0-4.859-10.76A14.347,14.347,0,0,0,795.573-1665.088ZM406.2-1315.69h0Zm-1.92.971a16.039,16.039,0,0,1-10.6-4,16.04,16.04,0,0,1-5.438-12.034v-266.26a20.433,20.433,0,0,1,17.812-20.226l387.5-49.417a16.035,16.035,0,0,1,12.625,3.872,16.041,16.041,0,0,1,5.439,12.034v266.258a20.434,20.434,0,0,1-17.815,20.228L406.3-1314.847a15.934,15.934,0,0,1-2.027.128" transform="translate(-242.105 1980.411)"/>
          <path id="Path_384" data-name="Path 384" d="M446.5-1306.037l359.741-45.876a18.142,18.142,0,0,0,15.847-18V-1617.1a14.1,14.1,0,0,0-15.88-13.985l-82.931,10.576-276.81,35.3a18.143,18.143,0,0,0-15.848,18v247.188a14.1,14.1,0,0,0,15.882,13.987" transform="translate(-268.529 1958.22)"/>
          <path id="Path_385" data-name="Path 385" d="M806.58-1631.755a13.359,13.359,0,0,0-1.679.107L445.162-1585.77a17.329,17.329,0,0,0-15.106,17.154v247.188a13.253,13.253,0,0,0,4.493,9.944,13.253,13.253,0,0,0,10.432,3.2l359.739-45.876a17.332,17.332,0,0,0,15.109-17.156v-247.188a13.249,13.249,0,0,0-4.494-9.943A13.251,13.251,0,0,0,806.58-1631.755ZM443.305-1306.478a14.953,14.953,0,0,1-9.878-3.73,14.956,14.956,0,0,1-5.069-11.221v-247.188a19.03,19.03,0,0,1,16.59-18.839l359.739-45.877a14.947,14.947,0,0,1,11.77,3.609,14.951,14.951,0,0,1,5.07,11.218v247.188a19.03,19.03,0,0,1-16.592,18.839L445.2-1306.6a15.2,15.2,0,0,1-1.891.12" transform="translate(-267.123 1959.624)"/>
          <path id="Path_386" data-name="Path 386" d="M635.409-664.308l396.127-51.086a5.458,5.458,0,0,0,4.807-5.59c-.026-1.788-.173-14.4-.173-14.4L826.72-855.122c-10.494-5.992-24.075-8.307-36.059-6.771L399.535-811.44a6.707,6.707,0,0,0-5.306,4.016l-.629,1.472s.336,10.517.2,12.971a5.382,5.382,0,0,0,2.77,5.055L600.765-671.177a55.617,55.617,0,0,0,34.645,6.869" transform="translate(-245.448 1478.77)" fill="#2a353d"/>
          <path id="Path_387" data-name="Path 387" d="M637.541-679.222l394.708-50.988a5.507,5.507,0,0,0,2.033-10.242l-203.1-116a55.59,55.59,0,0,0-34.644-6.869L401.828-812.33a5.5,5.5,0,0,0-2.031,10.238l203.1,116a55.618,55.618,0,0,0,34.645,6.869" transform="translate(-247.579 1479.652)"/>
          <path id="Path_388" data-name="Path 388" d="M802.111-864.309a54.53,54.53,0,0,0-6.873.437l-394.71,50.991a4.544,4.544,0,0,0-3.976,3.711,4.549,4.549,0,0,0,2.258,4.95l203.1,116a55.065,55.065,0,0,0,34.114,6.764l394.708-50.988a4.544,4.544,0,0,0,3.979-3.711,4.552,4.552,0,0,0-2.258-4.95l-203.1-116A55.139,55.139,0,0,0,802.111-864.309ZM636.132-680.616h0Zm-6.979,1.295a56.844,56.844,0,0,1-28.087-7.426l-203.1-116a6.267,6.267,0,0,1-3.081-6.753,6.269,6.269,0,0,1,5.425-5.066l394.708-50.988a56.832,56.832,0,0,1,35.175,6.975l203.1,116a6.262,6.262,0,0,1,3.079,6.749,6.265,6.265,0,0,1-5.424,5.07L636.241-679.773h0a55.763,55.763,0,0,1-7.084.452" transform="translate(-246.17 1481.046)" fill="#5b5f75"/>
          <path id="Path_389" data-name="Path 389" d="M878.611-826.422a48.74,48.74,0,0,0-6.2.4L530.151-781.491a4.028,4.028,0,0,0-3.522,3.286,4.03,4.03,0,0,0,2,4.385l80.473,45.5a49.705,49.705,0,0,0,30.762,6.1L982.13-766.759a4.024,4.024,0,0,0,3.519-3.286,4.023,4.023,0,0,0-2-4.385l-80.471-45.5A49.724,49.724,0,0,0,878.611-826.422ZM639.973-721.38h0Zm-6.3,1.25a51.411,51.411,0,0,1-25.409-6.719l-80.473-45.5a5.743,5.743,0,0,1-2.826-6.188,5.739,5.739,0,0,1,4.97-4.641L872.2-827.714a51.406,51.406,0,0,1,31.821,6.312l80.471,45.5a5.747,5.747,0,0,1,2.827,6.188,5.75,5.75,0,0,1-4.972,4.645L640.083-720.54s0,0,0,0a50.758,50.758,0,0,1-6.41.407" transform="translate(-327.293 1457.422)" fill="#5b5f75"/>
          <path id="Path_390" data-name="Path 390" d="M1314.73-586.472a13.049,13.049,0,0,0-1.577.1l-95.26,12.308a.46.46,0,0,0-.41.38.464.464,0,0,0,.233.512l46.015,25.163a12.649,12.649,0,0,0,7.848,1.562l95.26-12.308a.46.46,0,0,0,.41-.38.465.465,0,0,0-.233-.512L1321-584.812A12.684,12.684,0,0,0,1314.73-586.472Zm-43.042,40.866h0Zm-1.686.952a14.368,14.368,0,0,1-7.1-1.875l-46.015-25.166a2.149,2.149,0,0,1-1.069-2.319,2.145,2.145,0,0,1,1.859-1.739l95.26-12.3a14.385,14.385,0,0,1,8.891,1.762l46.015,25.166a2.149,2.149,0,0,1,1.069,2.322,2.146,2.146,0,0,1-1.859,1.735l-95.26,12.3a13.592,13.592,0,0,1-1.792.113" transform="translate(-758.153 1307.789)" fill="#5b5f75"/>
          <path id="Path_391" data-name="Path 391" d="M769.008-729.762a.85.85,0,0,1-.842-.749.85.85,0,0,1,.74-.945l143.179-17.4a.85.85,0,0,1,.945.742.85.85,0,0,1-.742.945l-143.177,17.4a.959.959,0,0,1-.1.008" transform="translate(-479.022 1407.999)" fill="#5b5f75"/>
          <path id="Path_392" data-name="Path 392" d="M935.31-672a.849.849,0,0,1-.842-.745.854.854,0,0,1,.74-.949l41.568-5.051a.855.855,0,0,1,.945.742.85.85,0,0,1-.742.945l-41.566,5.051a.967.967,0,0,1-.1.008" transform="translate(-582.728 1364.277)" fill="#5b5f75"/>
          <path id="Path_393" data-name="Path 393" d="M1329.123-665.294a.849.849,0,0,1-.843-.745.848.848,0,0,1,.742-.945l41.566-5.055a.853.853,0,0,1,.945.742.845.845,0,0,1-.738.945l-41.57,5.055a.913.913,0,0,1-.1,0" transform="translate(-828.307 1360.093)" fill="#5b5f75"/>
        </g>
        <g id="Group_72" data-name="Group 72" transform="translate(162.085 -2308.513)" clip-path="url(#clip-path-3)">
          <g id="Group_71" data-name="Group 71" transform="translate(-162.085 -191.487)" clip-path="url(#clip-path-4)">
            <path id="Path_395" data-name="Path 395" d="M790.7-574.882l1.959-91.282s13.839,32.544,22.952,91.282H919.123c-9.158-84.627-38.815-161.413-47.276-182.025a12.826,12.826,0,0,0-8.029-7.393c-20.22-6.342-90.721-23.055-163.293,23.484a12.9,12.9,0,0,0-5.9,9.937c-1.305,18.35-4.382,75.3.365,156H790.7" transform="translate(-431.797 1422.719)"/>
            <path id="Path_396" data-name="Path 396" d="M1560.231-1722.8s.418-37.66,1.1-47.855c.764-11.6-15.086,1.565-15.7,37.105l14.6,10.75" transform="translate(-963.85 2047.743)" fill="#5b5f75"/>
            <path id="Path_397" data-name="Path 397" d="M1545.075-1735.384l12.918,9.508c.09-7.392.489-37.369,1.076-46.247.124-1.9-.248-2.854-.644-3.108-.343-.224-.9.016-1.2.177C1553.615-1773.132,1545.6-1760.486,1545.075-1735.384Zm13.746,12.022a.857.857,0,0,1-.5-.165l-14.6-10.75a.853.853,0,0,1-.346-.7c.414-24.1,7.882-38.818,13.05-41.576a2.739,2.739,0,0,1,2.928-.105c1.1.707,1.57,2.271,1.415,4.647-.666,10.056-1.088,47.432-1.1,47.808a.85.85,0,0,1-.467.75.86.86,0,0,1-.38.09" transform="translate(-962.44 2049.155)"/>
            <path id="Path_398" data-name="Path 398" d="M1328.972-1632.789c3.67-7.865,11.318-24.7,11.853-29.56.546-4.987-3.373-9.224-5.145-10.86-1.046-.969-2.04-1.992-3.023-3.026l-9.162-9.643c-2.292-2.292-3.177-5.785-6.655-5.615-6.636.323-9.662,11.357-9.662,11.357s-5.842-5.626-9.531-3.577-11.217,18.913-4.769,37.623c5.718,16.584,8.887,12.215,8.706,23.985-2.04,21.819-9.866,64.016-23.3,81.189-3.7,4.729-8.056,7.522-12.871,6.98a45.621,45.621,0,0,1-31.577-18.263l-48.9,47.623s29.747,45.345,87.984,40.414c83.5-7.073,54.055-158.365,54.048-158.4-.023-.711-.034-1.28-.023-1.667a21.681,21.681,0,0,1,2.033-8.557" transform="translate(-738.918 1995.822)"/>
            <path id="Path_399" data-name="Path 399" d="M1184.629-1505.881a98.407,98.407,0,0,0,21.6,21.3,95.612,95.612,0,0,0,56.619,18.527c2.789,0,5.646-.117,8.586-.365,16.242-1.378,29.311-8.465,38.837-21.071,32.19-42.586,14.631-135.39,14.45-136.322a.8.8,0,0,1-.015-.133c-.026-.734-.034-1.321-.023-1.72a22.3,22.3,0,0,1,2.112-8.893c3.365-7.211,11.251-24.5,11.778-29.294.5-4.618-3.241-8.633-4.878-10.144-1.092-1.011-2.119-2.071-3.064-3.065l-9.162-9.642a17.506,17.506,0,0,1-1.886-2.379c-1.336-1.9-2.258-3.062-4.11-2.973-5.955.29-8.857,10.629-8.883,10.734a.849.849,0,0,1-.595.594.843.843,0,0,1-.813-.207c-1.5-1.444-5.966-4.874-8.533-3.447-3.437,1.91-10.645,18.41-4.374,36.6a54.61,54.61,0,0,0,5.91,12.7c1.9,3.049,2.943,4.727,2.842,11.575-2.488,26.591-12.124,73.31-27.421,85.75a12.885,12.885,0,0,1-9.7,3.248,47.126,47.126,0,0,1-31.592-17.815Zm78.213,41.525a97.3,97.3,0,0,1-57.665-18.888,97.8,97.8,0,0,1-22.366-22.279.846.846,0,0,1,.12-1.073l48.9-47.623a.861.861,0,0,1,.689-.237.862.862,0,0,1,.617.38,45.167,45.167,0,0,0,30.959,17.887,11.231,11.231,0,0,0,8.443-2.88c14.894-12.113,24.338-58.275,26.792-84.525.094-6.283-.745-7.63-2.586-10.585a56.231,56.231,0,0,1-6.075-13.045c-6.677-19.378,1.3-36.5,5.157-38.641,3.229-1.792,7.584,1.232,9.531,2.827,1.058-3.036,4.219-10.429,10.035-10.712,2.887-.152,4.257,1.809,5.582,3.694a16.179,16.179,0,0,0,1.713,2.169l9.18,9.658c.922.973,1.923,2.009,2.981,2.987,1.826,1.688,6,6.191,5.413,11.577-.534,4.864-7.7,20.774-11.924,29.826a20.717,20.717,0,0,0-1.957,8.223c-.008.362,0,.889.023,1.548a330.777,330.777,0,0,1,5.01,52.382c.407,26.4-2.695,62.615-19.784,85.221-9.832,13-23.307,20.322-40.049,21.737q-4.483.378-8.736.373" transform="translate(-737.51 1997.23)" fill="#5b5f75"/>
            <path id="Path_400" data-name="Path 400" d="M1517.729-1629.715c-2.91,0-6.7-1.647-10.505-6.311-7.667-9.395-2.518-28.011-2.292-28.8a.846.846,0,0,1,1.046-.585.852.852,0,0,1,.587,1.048c-.053.184-5.134,18.554,1.976,27.263,4.423,5.419,8.695,6.273,11.006,5.362,1.765-.695,2.725-2.465,2.575-4.734a16.836,16.836,0,0,0-4.291-10.139.851.851,0,0,1-.011-1.2.845.845,0,0,1,1.2-.016,18.262,18.262,0,0,1,4.8,11.241c.2,3.044-1.159,5.446-3.644,6.426a6.662,6.662,0,0,1-2.443.442" transform="translate(-937.285 1979.573)"/>
            <path id="Path_401" data-name="Path 401" d="M798.027-1373.585l48.379-93.491-47.739-41.359s-69.654-37.67-114.472-30.77c-22.629,3.484-59.474,7.306-80.037,16.651-21.8,9.907-54.971,26.288-66.572,47.239l-12.177,49.648c19.1,17.875,72.52,32.393,72.52,32.393l-38.68,158.244c41.952,42.447,189.413,22.6,233.3,16.347L778.3-1382.141l19.724,8.556" transform="translate(-327.643 1901.378)" fill="#1a1f20"/>
            <path id="Path_402" data-name="Path 402" d="M558.781-1236.675c28.152,27.884,108.148,33.376,231.448,15.88L776.05-1383.45a.842.842,0,0,1,.35-.764.851.851,0,0,1,.836-.09l19,8.24,47.709-92.193-47.167-40.859c-2.744-1.468-70.515-37.306-113.857-30.634-3.982.612-8.405,1.237-13.089,1.9-22.226,3.135-49.887,7.034-66.726,14.687-23.034,10.464-54.93,26.694-66.125,46.779l-12.031,49.053c19.037,17.379,71.27,31.716,71.8,31.859a.847.847,0,0,1,.6,1.02ZM668.5-1209.111c-55.936,0-93.708-8.951-111.258-26.706a.85.85,0,0,1-.22-.8L595.5-1394.057c-6.981-1.95-54.1-15.542-72.08-32.375a.853.853,0,0,1-.244-.824l12.178-49.648a.833.833,0,0,1,.082-.207c11.263-20.341,41.7-36.123,66.964-47.6,17.062-7.752,44.858-11.671,67.191-14.821,4.678-.659,9.1-1.283,13.067-1.894,44.59-6.859,114.307,30.483,115,30.863a.842.842,0,0,1,.154.1l47.739,41.363a.846.846,0,0,1,.2,1.031l-48.379,93.487a.845.845,0,0,1-1.092.388l-18.421-7.987,14.126,162.042a.844.844,0,0,1-.727.911c-47.408,6.756-88.5,10.118-122.767,10.118" transform="translate(-326.237 1902.762)" fill="#5b5f75"/>
            <path id="Path_403" data-name="Path 403" d="M868.84-1451.917a.862.862,0,0,1-.3-.057l-76.611-29.45a.852.852,0,0,1-.488-1.1.854.854,0,0,1,1.1-.489l76.611,29.454a.848.848,0,0,1,.488,1.1.849.849,0,0,1-.793.546" transform="translate(-493.502 1865.844)" fill="#5b5f75"/>
            <path id="Path_404" data-name="Path 404" d="M862.393-1271.687,739.409-1309.67a5.936,5.936,0,0,0-7.421,3.922l-49.653,160.773a5.936,5.936,0,0,0,3.918,7.423l122.984,37.979a5.935,5.935,0,0,0,7.423-3.918l49.651-160.773a5.935,5.935,0,0,0-3.918-7.423" transform="translate(-425.336 1757.88)" fill="#5b5f75"/>
            <path id="Path_405" data-name="Path 405" d="M736.242-1310.492a5.065,5.065,0,0,0-2.368.591,5.055,5.055,0,0,0-2.484,3l-49.653,160.777a5.046,5.046,0,0,0,.362,3.873,5.047,5.047,0,0,0,3,2.484l122.982,37.983a5.093,5.093,0,0,0,6.361-3.358l49.655-160.777a5.1,5.1,0,0,0-3.361-6.361l-122.982-37.979A5.061,5.061,0,0,0,736.242-1310.492Zm73.332,210.628a6.708,6.708,0,0,1-2-.3l-122.982-37.983a6.731,6.731,0,0,1-4-3.312,6.737,6.737,0,0,1-.483-5.168l49.654-160.777a6.744,6.744,0,0,1,3.313-4,6.754,6.754,0,0,1,5.169-.482L861.232-1273.9a6.79,6.79,0,0,1,4.483,8.48L816.06-1104.645a6.794,6.794,0,0,1-6.485,4.78" transform="translate(-423.927 1759.286)"/>
            <path id="Path_406" data-name="Path 406" d="M833.2-1095.772l-101.084-31.219,47-152.2,101.085,31.219-47.005,152.2" transform="translate(-456.546 1738.707)" fill="#2a353d"/>
            <path id="Path_407" data-name="Path 407" d="M731.773-1128.957l99.462,30.718,46.5-150.576-99.464-30.714Zm100.022,32.627a.854.854,0,0,1-.252-.038l-101.082-31.219a.845.845,0,0,1-.561-1.058l47-152.2a.851.851,0,0,1,.415-.5.84.84,0,0,1,.647-.06l101.084,31.219a.847.847,0,0,1,.561,1.061l-47.005,152.2a.848.848,0,0,1-.809.6" transform="translate(-455.139 1740.112)"/>
            <path id="Path_408" data-name="Path 408" d="M963.705-1283.112l-55.349-17.1a7.253,7.253,0,0,0-9.07,4.792l-3.912,12.666,69.211,21.372,3.911-12.666a7.252,7.252,0,0,0-4.792-9.068" transform="translate(-558.353 1752.016)" fill="#5b5f75"/>
            <path id="Path_409" data-name="Path 409" d="M895.03-1284.719l67.589,20.872,3.659-11.853a6.337,6.337,0,0,0-.455-4.882,6.355,6.355,0,0,0-3.772-3.128l-55.351-17.1a6.416,6.416,0,0,0-8.009,4.231Zm68.15,22.784a.975.975,0,0,1-.252-.038l-69.209-21.376a.848.848,0,0,1-.561-1.061l3.911-12.666a8.048,8.048,0,0,1,3.958-4.773,8.051,8.051,0,0,1,6.174-.576l55.351,17.092a8.053,8.053,0,0,1,4.773,3.956,8.06,8.06,0,0,1,.58,6.177l-3.915,12.666a.848.848,0,0,1-.809.6" transform="translate(-556.946 1753.424)" fill="#1a1f20"/>
            <path id="Path_410" data-name="Path 410" d="M978.33-1326.051a3.075,3.075,0,0,1-2.033-3.847,3.071,3.071,0,0,1,3.847-2.029,3.072,3.072,0,0,1,2.029,3.843A3.071,3.071,0,0,1,978.33-1326.051Zm3.986-12.914a15.567,15.567,0,0,0-19.468,10.283l-4.594,14.872L988-1304.622,992.6-1319.5a15.565,15.565,0,0,0-10.28-19.468" transform="translate(-597.564 1776.417)" fill="#2a353d"/>
            <path id="Path_411" data-name="Path 411" d="M977.171-1328.272a2.231,2.231,0,0,0,2.785-1.472,2.221,2.221,0,0,0-.158-1.7,2.219,2.219,0,0,0-1.314-1.088,2.221,2.221,0,0,0-1.7.158,2.232,2.232,0,0,0-1.088,1.314,2.239,2.239,0,0,0,.158,1.7A2.219,2.219,0,0,0,977.171-1328.272Zm.655,1.8a3.965,3.965,0,0,1-1.156-.173,3.92,3.92,0,0,1-2.315-1.92,3.914,3.914,0,0,1-.279-2.989,3.9,3.9,0,0,1,1.92-2.315,3.9,3.9,0,0,1,2.989-.279,3.9,3.9,0,0,1,2.315,1.92,3.9,3.9,0,0,1,.279,2.989A3.934,3.934,0,0,1,977.826-1326.476Zm-19.917,10.694,28.127,8.687,4.344-14.062a14.735,14.735,0,0,0-9.719-18.406,14.642,14.642,0,0,0-11.218,1.046,14.626,14.626,0,0,0-7.19,8.672Zm28.688,10.6a.842.842,0,0,1-.252-.041l-29.748-9.184a.849.849,0,0,1-.561-1.062l4.594-14.875a16.314,16.314,0,0,1,8.02-9.673,16.308,16.308,0,0,1,12.512-1.167A16.437,16.437,0,0,1,992-1320.657l-4.6,14.875a.853.853,0,0,1-.809.6" transform="translate(-596.157 1777.829)"/>
            <path id="Path_412" data-name="Path 412" d="M940.424-1179.793l-81.96-25.313,2.1-6.794,81.958,25.313-2.1,6.794" transform="translate(-535.335 1696.745)" fill="#2a353d"/>
            <path id="Path_413" data-name="Path 413" d="M928.993-1142.773l-81.961-25.313,2.1-6.794,81.959,25.313-2.1,6.794" transform="translate(-528.206 1673.66)" fill="#acd3f7"/>
            <path id="Path_414" data-name="Path 414" d="M917.562-1105.763,835.6-1131.072l2.1-6.8,81.96,25.313-2.1,6.794" transform="translate(-521.077 1650.58)" fill="#acd3f7"/>
            <path id="Path_415" data-name="Path 415" d="M541.689-1222.41l60.329,26.649s-16.76,30.737,40.515,52.034,69.224,11.386,69.224,11.386l19.671-32.047s6.843,1.333,2.586,12.376-6.647,15.621,4.66,14.589,22.26-15.813,22.26-15.813,1.551,11.115-4.144,19.343c0,0,5.179,3.154-2.07,13.2,0,0,2.416,4.622-7.761,13.2,0,0,6.745,5.687-12.945,9.832-10.867,2.289-24.845-1.547-24.845-1.547s-83.418,21.794-133.073-8.285-34.408-114.916-34.408-114.916" transform="translate(-336.419 1703.299)"/>
            <path id="Path_416" data-name="Path 416" d="M540.954-1222.594a192.4,192.4,0,0,0-1.229,44.916c2.171,22.577,10.078,52.708,35.416,68.054,20.021,12.128,45.78,15.715,69.244,15.719a283.187,283.187,0,0,0,63.174-7.532.829.829,0,0,1,.439,0c.138.038,13.908,3.756,24.447,1.536,10.807-2.274,12.99-4.875,13.328-6.222a2.331,2.331,0,0,0-.76-2.127.849.849,0,0,1-.3-.651.853.853,0,0,1,.3-.647c9.384-7.908,7.569-12.135,7.551-12.18a.886.886,0,0,1,.072-.87c3.565-4.935,3.93-8,3.61-9.7a3.479,3.479,0,0,0-1.3-2.281.865.865,0,0,1-.376-.553.845.845,0,0,1,.128-.651c3.982-5.751,4.284-13.084,4.156-16.63-3.327,4.005-12.184,13.581-21.5,14.431-4.679.422-7.182-.072-8.383-1.664-1.724-2.288-.252-6.083,2.191-12.365l.662-1.713c1.521-3.948,1.747-7.106.647-9.131a4.316,4.316,0,0,0-2.07-1.92l-19.32,31.471a.867.867,0,0,1-.182.211c-.5.418-12.982,9.975-70.062-11.247-22.68-8.431-36.651-19.317-41.526-32.352a26.929,26.929,0,0,1,.163-20.055Zm103.776,130.446c-22.654,0-49.561-3.358-70.469-16.024-20.541-12.444-33.069-36.432-36.23-69.382a191.989,191.989,0,0,1,1.426-46.411.845.845,0,0,1,.438-.6.854.854,0,0,1,.742-.026l60.329,26.649a.849.849,0,0,1,.46.5.854.854,0,0,1-.057.681,25.166,25.166,0,0,0-.447,19.516c4.71,12.534,18.34,23.07,40.512,31.313,53.17,19.769,67.031,12.391,68.3,11.589l19.579-31.9a.842.842,0,0,1,.885-.388,5.921,5.921,0,0,1,3.749,2.917c1.389,2.511,1.212,6.079-.531,10.6l-.666,1.716c-2.074,5.341-3.572,9.2-2.417,10.728.772,1.024,3.015,1.348,6.873.994,10.8-.986,21.545-15.327,21.651-15.474a.853.853,0,0,1,.892-.316.854.854,0,0,1,.632.7c.064.459,1.46,11-3.862,19.313a5.552,5.552,0,0,1,1.381,2.751c.583,2.88-.64,6.493-3.629,10.735.384,1.5.595,6.079-7.505,13.148a3.71,3.71,0,0,1,.655,3.109c-.772,3.072-5.691,5.586-14.623,7.468-10.328,2.176-23.134-1-25.027-1.506a284.566,284.566,0,0,1-47.858,7.11c-4.734.294-9.838.482-15.18.482" transform="translate(-335.024 1704.703)" fill="#5b5f75"/>
            <path id="Path_417" data-name="Path 417" d="M1187.432-1205.308a.847.847,0,0,1-.843-.749l-5.179-43.772a.849.849,0,0,1,.741-.941.853.853,0,0,1,.945.741l5.179,43.772a.853.853,0,0,1-.745.945.88.88,0,0,1-.1,0" transform="translate(-736.719 1720.989)" fill="#5b5f75"/>
            <path id="Path_418" data-name="Path 418" d="M725.361-1178.234a.858.858,0,0,1-.54-.192.851.851,0,0,1-.115-1.2l10.474-12.7a.851.851,0,0,1,1.2-.117.851.851,0,0,1,.114,1.2l-10.474,12.7a.848.848,0,0,1-.655.309" transform="translate(-451.803 1684.73)" fill="#5b5f75"/>
            <path id="Path_419" data-name="Path 419" d="M828.164-1841.736s-10.45-21.247-14.134-24.986-6.531-7.69,4.308-14.939,39.156-26.612,56.507-26.488,29.507,11.083,24.166,18.986-7.788,11.231-3.674,11.743,6.391,5.1-5.273,11.861-52.325,36.082-61.9,23.823" transform="translate(-505.565 2130.924)" fill="#5b5f75"/>
            <path id="Path_420" data-name="Path 420" d="M886.914-1721.223l-6.242-22.293c13.507-2.99,17.553-21.345,14.35-35.656-2.33-10.389-8.454-34.044-8.454-34.044-14.1,8.284-52.244,9.158-52.244,9.158s3.963,6.315,1.687,9.43-.857,15.068-.857,15.068-4.935-4.643-10.216-1.094c-2.971,2,.422,10.522,2.858,15.3a11.606,11.606,0,0,0,7.668,5.724s.863-.515,2.627,3.7l-5.661,29.834a36.943,36.943,0,0,1-22.133,27.233l68.748,22.584,29.461-25.872a26.525,26.525,0,0,1-21.59-19.077" transform="translate(-505.297 2071.725)"/>
            <path id="Path_421" data-name="Path 421" d="M834.491-1760.3l0,0Zm0,0h0Zm0,0h0Zm-23.251,59.91,66.208,21.752,27.779-24.4A27.42,27.42,0,0,1,884.69-1722.4l-6.243-22.294a.848.848,0,0,1,.089-.665.849.849,0,0,1,.545-.393,16.019,16.019,0,0,0,10.213-7.5c4.3-6.764,5.672-17.42,3.493-27.147-2.018-9-6.952-28.229-8.172-32.953-13.312,7.023-43.328,8.449-50.275,8.688,1.1,2.136,2.884,6.477.949,9.125-1.705,2.334-1.084,11.235-.7,14.467a.848.848,0,0,1-.461.858.848.848,0,0,1-.964-.139c-.181-.169-4.519-4.127-9.161-1.007-2,1.346.063,8.17,3.141,14.214a10.719,10.719,0,0,0,6.922,5.243,1.269,1.269,0,0,1,.5.065c.575.19,1.5.828,2.9,4.172a.85.85,0,0,1,.051.486l-5.661,29.833A37.676,37.676,0,0,1,811.233-1700.389Zm66.4,23.559a.8.8,0,0,1-.265-.045l-68.748-22.583a.85.85,0,0,1-.583-.774.849.849,0,0,1,.523-.817,35.99,35.99,0,0,0,21.625-26.608l5.613-29.581c-.944-2.2-1.532-2.8-1.719-2.945a.97.97,0,0,1-.175-.013,12.376,12.376,0,0,1-8.275-6.174c-1.613-3.169-6.566-13.713-2.574-16.4a8.7,8.7,0,0,1,9.656.016c-.315-3.63-.7-11.177,1.2-13.788,1.585-2.17-.7-6.856-1.72-8.478a.852.852,0,0,1-.028-.854.851.851,0,0,1,.728-.446c.379-.008,38.087-.963,51.834-9.041a.85.85,0,0,1,.757-.052.854.854,0,0,1,.5.571c.06.237,6.154,23.788,8.458,34.071,2.273,10.145.813,21.3-3.715,28.429a17.78,17.78,0,0,1-10.411,8.026l6.007,21.451a25.716,25.716,0,0,0,20.9,18.466.851.851,0,0,1,.689.6.852.852,0,0,1-.252.877l-29.462,25.87a.845.845,0,0,1-.56.214" transform="translate(-503.891 2073.13)" fill="#5b5f75"/>
            <path id="Path_422" data-name="Path 422" d="M928.17-1648.96a26.455,26.455,0,0,1-13.9-3.52,20.953,20.953,0,0,1-9.341-11.91.848.848,0,0,1,.621-1.026.847.847,0,0,1,1.027.62,19.6,19.6,0,0,0,8.6,10.879c6.089,3.657,14.26,4.237,24.288,1.729a.849.849,0,0,1,1.03.617.849.849,0,0,1-.618,1.03,48.433,48.433,0,0,1-11.705,1.581" transform="translate(-564.295 1979.572)"/>
            <path id="Path_423" data-name="Path 423" d="M615.576-835.753a.848.848,0,0,1-.841-.742.851.851,0,0,1,.735-.952l234.2-29.864a.852.852,0,0,1,.949.734.847.847,0,0,1-.734.949l-234.2,29.868a1.075,1.075,0,0,1-.109.008" transform="translate(-383.343 1481.864)"/>
          </g>
        </g>
        <g id="Group_73" data-name="Group 73" transform="translate(0 -2500)" clip-path="url(#clip-path-2)">
          <path id="Path_426" data-name="Path 426" d="M1292.492-2024.167a38.637,38.637,0,0,1-44.2,32.117,38.635,38.635,0,0,1-32.115-44.2,38.633,38.633,0,0,1,44.2-32.117,38.637,38.637,0,0,1,32.119,44.2" transform="translate(-758.101 2231.136)"/>
          <path id="Path_427" data-name="Path 427" d="M1252.838-2069.418a37.5,37.5,0,0,0-22.129,7.226,37.536,37.536,0,0,0-15.109,24.659,37.531,37.531,0,0,0,6.749,28.121,37.546,37.546,0,0,0,24.662,15.11,37.834,37.834,0,0,0,43.23-31.412,37.547,37.547,0,0,0-6.753-28.121,37.539,37.539,0,0,0-24.658-15.11A38.355,38.355,0,0,0,1252.838-2069.418Zm.105,77.282a39.59,39.59,0,0,1-6.2-.49,39.223,39.223,0,0,1-25.765-15.788,39.231,39.231,0,0,1-7.058-29.385,39.222,39.222,0,0,1,15.79-25.767,39.2,39.2,0,0,1,29.382-7.055,39.222,39.222,0,0,1,25.769,15.788,39.21,39.21,0,0,1,7.054,29.384,39.542,39.542,0,0,1-38.973,33.313" transform="translate(-756.689 2232.55)" fill="#5b5f75"/>
          <path id="Path_429" data-name="Path 429" d="M1566.8-1952.5l-103.97-16.463,1.268-8.008,103.97,16.464-1.268,8.008" transform="translate(-912.216 2173.842)"/>
          <path id="Path_430" data-name="Path 430" d="M1462.392-1971.078l102.3,16.2,1-6.33-102.3-16.2Zm103,18.017a.848.848,0,0,1-.132-.011l-103.97-16.463a.849.849,0,0,1-.708-.971l1.269-8.008a.846.846,0,0,1,.339-.554.838.838,0,0,1,.632-.152l103.97,16.464a.842.842,0,0,1,.553.339.843.843,0,0,1,.154.632l-1.269,8.008a.853.853,0,0,1-.839.716" transform="translate(-910.807 2175.25)" fill="#5b5f75"/>
          <path id="Path_431" data-name="Path 431" d="M1559.6-1907.067,1455.63-1923.53l1.268-8.008,103.974,16.463-1.268,8.008" transform="translate(-907.726 2145.509)"/>
          <path id="Path_432" data-name="Path 432" d="M1455.2-1925.643l102.3,16.2,1-6.33-102.291-16.2Zm103,18.018a.817.817,0,0,1-.135-.01l-103.97-16.464a.844.844,0,0,1-.553-.339.841.841,0,0,1-.151-.632l1.265-8.008a.854.854,0,0,1,.971-.706l103.974,16.464a.843.843,0,0,1,.553.339.841.841,0,0,1,.151.632l-1.269,8.008a.845.845,0,0,1-.835.716" transform="translate(-906.323 2146.916)" fill="#5b5f75"/>
          <path id="Path_435" data-name="Path 435" d="M512.2-1968.405a.874.874,0,0,1-.147-.012.849.849,0,0,1-.69-.982c.043-.249,4.605-25.164,27.191-53.874,13.249-16.841,30.024-31.694,49.858-44.149,24.77-15.552,54.408-27.385,88.092-35.168a.849.849,0,0,1,1.018.636.849.849,0,0,1-.636,1.019c-75.833,17.522-116.356,52.475-137,78.713-22.325,28.378-26.811,52.872-26.854,53.115a.849.849,0,0,1-.835.7" transform="translate(-318.877 2252.191)" fill="#5b5f75"/>
          <path id="Path_436" data-name="Path 436" d="M539.43-1817.425c-.02,0-.041,0-.061,0a.848.848,0,0,1-.787-.906A176.361,176.361,0,0,1,547.7-1858.9c7.158-20.561,21.391-48.97,48.549-67.539a.85.85,0,0,1,1.18.221.849.849,0,0,1-.222,1.18c-51.274,35.058-56.881,106.112-56.932,106.825a.849.849,0,0,1-.846.789" transform="translate(-335.857 2142.422)" fill="#5b5f75"/>
          <path id="Path_437" data-name="Path 437" d="M1993.623-923.572a.851.851,0,0,1-.516-.173.847.847,0,0,1-.158-1.189c.38-.5,38.216-50.284,55.794-106.217a.846.846,0,0,1,1.062-.553.851.851,0,0,1,.557,1.065c-17.668,56.223-55.685,106.24-56.065,106.737a.841.841,0,0,1-.674.331" transform="translate(-1242.687 1584.4)" fill="#5b5f75"/>
          <path id="Path_438" data-name="Path 438" d="M1958.533-750.432a.873.873,0,0,1-.583-.23.85.85,0,0,1-.034-1.2c25.994-27.624,51.387-70.459,51.639-70.888a.847.847,0,0,1,1.163-.3.843.843,0,0,1,.3,1.159c-.252.433-25.739,43.426-51.865,71.189a.844.844,0,0,1-.617.267" transform="translate(-1220.805 1454.333)" fill="#5b5f75"/>
          <path id="Path_439" data-name="Path 439" d="M998.574-2131.358a7.206,7.206,0,0,0-7.2,7.2,7.206,7.206,0,0,0,7.2,7.2,7.207,7.207,0,0,0,7.2-7.2A7.207,7.207,0,0,0,998.574-2131.358Zm0,16.093a8.9,8.9,0,0,1-8.894-8.9,8.9,8.9,0,0,1,8.894-8.9,8.908,8.908,0,0,1,8.9,8.9,8.908,8.908,0,0,1-8.9,8.9" transform="translate(-617.161 2271.175)" fill="#5b5f75"/>
          <path id="Path_440" data-name="Path 440" d="M461.862-571.852A6.862,6.862,0,0,0,455.007-565a6.862,6.862,0,0,0,6.855,6.854A6.862,6.862,0,0,0,468.716-565,6.862,6.862,0,0,0,461.862-571.852Zm0,15.406A8.561,8.561,0,0,1,453.309-565a8.561,8.561,0,0,1,8.553-8.552A8.561,8.561,0,0,1,470.414-565a8.561,8.561,0,0,1-8.552,8.552" transform="translate(-282.682 1298.672)" fill="#5b5f75"/>
        </g>
      </g>
      <g id="Group_187" data-name="Group 187" transform="translate(-540.375 815.046)">
        <path id="Path_904" data-name="Path 904" d="M702.71-163.086c-1.781,0-3.563-.028-5.341-.064q-1.268.01-2.537.011-10.163,0-20.3-.774c-7.392-.676-19.113-2.209-31.2-3.016-3.368-.3-6.386-.486-9.243-.486a49.193,49.193,0,0,0-13,1.622,33.652,33.652,0,0,0-8.02,1.354,2.921,2.921,0,0,1-1.093-2.014,42.908,42.908,0,0,1,13.565-1.707c.341,0,.681,0,1.018,0,12.179.076,24.493,1.244,36.4,2.376,7.61.724,15.481,1.471,23.226,1.925,4.97.289,9.677.438,14.149.438,17.642,0,31.688-2.294,44.353-7.131a78.9,78.9,0,0,0,25.774-15.889,2.324,2.324,0,0,1,.456,2.1,3.087,3.087,0,0,1-1.508,1.721c-1.455,1.061-2.947,2.074-4.48,3.018-7.516,4.663-15.9,7.623-24.218,10.506-7.55,2.818-15.591,3.817-23.51,5.05a93.522,93.522,0,0,1-14.5.953" transform="translate(734.206 752.378)"/>
        <g id="Group_76" data-name="Group 76" transform="translate(1265.584 482.483)">
          <path id="Path_901" data-name="Path 901" d="M583.789-76.159h.055c19.131,0,36.74-7.1,52.4-21.136,1.033-.923,2.055-1.874,3.08-2.828,4.626-4.3,9.409-8.751,15.325-11.022,5.154-1.98,10.774-2.115,15.644-2.083,12.179.076,24.493,1.244,36.4,2.376,7.61.724,15.481,1.471,23.226,1.925,24.58,1.437,42.625-.628,58.5-6.693,20.288-7.749,35.744-22.495,42.407-40.455,7.5-20.2,2.046-44.311-12.669-56.08-10.708-8.563-24.658-10.55-38.031-11.851a579.642,579.642,0,0,0-84.853-1.989c-19.587.983-39.492,3.817-52.391,17.781-12.979,14.056-14.58,33.89-16.274,54.888-1.437,17.8-2.922,36.2-11.964,50.929-6.31,10.277-16.18,18.682-30.863,26.237m.069,2.255q-2.327,0-4.684-.135a1.126,1.126,0,0,1-1.04-.91,1.128,1.128,0,0,1,.621-1.233c16.544-7.878,27.339-16.583,33.977-27.394,8.76-14.264,10.222-32.4,11.638-49.93,1.65-20.455,3.357-41.61,16.865-56.236,13.446-14.557,33.867-17.495,53.933-18.5a581.909,581.909,0,0,1,85.183,2c13.709,1.334,28.031,3.387,39.22,12.332,15.442,12.348,21.193,37.552,13.375,58.623-6.888,18.57-22.822,33.8-43.716,41.779-16.189,6.182-34.522,8.295-59.439,6.835-7.786-.454-15.676-1.2-23.306-1.929-11.858-1.127-24.124-2.291-36.2-2.367-4.659-.034-10.032.094-14.819,1.934-5.508,2.115-10.13,6.414-14.6,10.568-1.036.962-2.069,1.922-3.11,2.857C621.661-81.2,603.55-73.9,583.858-73.9" transform="translate(-578.113 228.968)" fill="#5b5f75"/>
          <g id="Group_75" data-name="Group 75" transform="translate(1.128 1.123)">
            <path id="Path_900" data-name="Path 900" d="M578.605-75.8c13.35-6.359,26.463-14.812,34.451-27.822,19.232-31.314,3.714-79.294,28.37-105.989,13.354-14.459,34.105-17.186,53.161-18.143a579.061,579.061,0,0,1,85.02,1.993c13.549,1.318,27.758,3.4,38.624,12.092,15.9,12.71,20.313,37.7,13.022,57.352s-24.333,33.961-43.062,41.115-39.094,7.926-58.969,6.764-39.662-4.175-59.57-4.3c-5.142-.032-10.394.149-15.229,2.007-6.991,2.683-12.378,8.547-18.059,13.639C621.1-83.4,602.117-74.441,578.605-75.8" transform="translate(-578.605 228.478)" fill="none"/>
            <path id="Path_903" data-name="Path 903" d="M700.343-162.916c-4.473,0-9.179-.149-14.15-.438-7.745-.454-15.616-1.2-23.226-1.925-11.909-1.132-24.222-2.3-36.4-2.376-.337,0-.676,0-1.017,0a42.908,42.908,0,0,0-13.565,1.707,2.465,2.465,0,0,1,.364-1.512c.935-1.476,2.912-1.6,4.406-2.255a58.755,58.755,0,0,1,11.152-2.587,80.483,80.483,0,0,1,9.741-.541c6.088,0,12.195.516,18.26.9,9.768.736,19.482,2.049,29.259,2.672,5.172.273,10.348.424,15.384.424,10.451,0,20.3-.648,28.251-2.193,9.2-1.432,19.614-5.371,26.466-8.4a76.5,76.5,0,0,0,8.366-4.477q1.495-.942,2.947-1.952a3.574,3.574,0,0,1,1.987-.951l.082,0h.025a2.313,2.313,0,0,1,1.794.885A78.9,78.9,0,0,1,744.7-170.047c-12.664,4.837-26.711,7.131-44.352,7.131" transform="translate(-535.51 282.272)" fill="#5b5f75"/>
            <path id="Path_905" data-name="Path 905" d="M711.661-207.154c-30.1,0-60.358-.548-90.286-1.638a1.127,1.127,0,0,1-1.086-1.169,1.13,1.13,0,0,1,1.166-1.084c39.651,1.446,79.874,1.936,119.554,1.462h.014a1.128,1.128,0,0,1,1.127,1.114,1.126,1.126,0,0,1-1.114,1.141q-14.646.175-29.376.174" transform="translate(-524.776 250.99)" fill="#5b5f75"/>
            <path id="Path_906" data-name="Path 906" d="M619.631-197.531a1.126,1.126,0,0,1-1.127-1.12,1.127,1.127,0,0,1,1.123-1.132L657-199.93h0a1.127,1.127,0,0,1,1.127,1.121,1.127,1.127,0,0,1-1.123,1.132l-37.371.147h0" transform="translate(-527.079 265.344)" fill="#4285f4"/>
            <path id="Path_907" data-name="Path 907" d="M644.743-197.212a1.126,1.126,0,0,1-1.128-1.109,1.126,1.126,0,0,1,1.109-1.143l65.312-1.036h.018a1.129,1.129,0,0,1,1.127,1.109,1.13,1.13,0,0,1-1.109,1.146l-65.314,1.033h-.016" transform="translate(-494.65 264.608)" fill="#4285f4"/>
          </g>
        </g>
      </g>
    </g>
  </g>
</svg>
