<svg xmlns="http://www.w3.org/2000/svg" xmlns:xlink="http://www.w3.org/1999/xlink" width="64" height="64" viewBox="0 0 64 64">
  <defs>
    <clipPath id="clip-path">
      <rect id="Rectangle_1" data-name="Rectangle 1" width="64" height="64" fill="#fff"/>
    </clipPath>
  </defs>
  <g id="Mask_Group_1" data-name="Mask Group 1" clip-path="url(#clip-path)">
    <g id="Group_20446" data-name="Group 20446" transform="translate(12.007 0.636)">
      <path id="Path_40" data-name="Path 40" d="M23.517,110.007q-6.077,0-9-2.876-2.893-2.9-2.893-8.946V85.993q0-6.1,2.919-8.946,2.919-2.876,8.969-2.824h6.369q6.1,0,9,2.876t2.893,8.946V98.185q0,6.043-2.893,8.946-2.892,2.876-9,2.876Zm0-4.433h6.369a12.133,12.133,0,0,0,4.458-.66,4.109,4.109,0,0,0,2.282-2.3,11.532,11.532,0,0,0,.69-4.433V86.046a11.444,11.444,0,0,0-.69-4.407,4.109,4.109,0,0,0-2.282-2.3,11.713,11.713,0,0,0-4.458-.686H23.517a11.749,11.749,0,0,0-4.432.633,4.11,4.11,0,0,0-2.309,2.269,11.53,11.53,0,0,0-.69,4.433V98.185a11.949,11.949,0,0,0,.663,4.433,4.21,4.21,0,0,0,2.309,2.3A12.133,12.133,0,0,0,23.517,105.574Z" transform="translate(-7.205 -47.8)" fill="#242947"/>
      <path id="Path_41" data-name="Path 41" d="M37.4,15.656a2.073,2.073,0,0,1-1.9-1.241,15.621,15.621,0,0,0-3.608-5.1,16.787,16.787,0,0,0-5.443-3.436,17.774,17.774,0,0,0-12.9,0A16.787,16.787,0,0,0,8.1,9.313a15.624,15.624,0,0,0-3.608,5.1,2.072,2.072,0,1,1-3.8-1.663A19.746,19.746,0,0,1,5.252,6.3,20.912,20.912,0,0,1,12.03,2.019a21.918,21.918,0,0,1,15.926,0A20.912,20.912,0,0,1,34.735,6.3a19.743,19.743,0,0,1,4.557,6.45,2.073,2.073,0,0,1-1.9,2.9Z" transform="translate(0 0)" fill="#4285f4"/>
    </g>
  </g>
</svg>
