<svg width="86" height="86" viewBox="0 0 86 86" fill="none" xmlns="http://www.w3.org/2000/svg">
<g clip-path="url(#clip0_428_3450)">
<path d="M77.565 86H36.715C29.7063 86.0011 22.783 84.4609 16.4358 81.4886C10.0885 78.5162 4.4726 74.1844 -0.0141602 68.8C-0.0141602 68.0397 0.287861 67.3106 0.825465 66.773C1.36307 66.2354 2.09222 65.9333 2.85251 65.9333L83.2625 70.09C83.9977 70.1268 84.6905 70.445 85.1975 70.9787C85.7045 71.5124 85.9868 72.2206 85.9858 72.9567L84.316 80.5623C83.9766 82.1012 83.1229 83.4785 81.8956 84.467C80.6684 85.4555 79.1409 85.9963 77.565 86Z" fill="#E5E5E5"/>
<path d="M54.4665 71.4696V2.14999C54.4665 1.57978 54.24 1.03292 53.8368 0.629719C53.4336 0.226516 52.8867 0 52.3165 0C51.7463 0 51.1994 0.226516 50.7962 0.629719C50.393 1.03292 50.1665 1.57978 50.1665 2.14999V71.2474L54.4665 71.4696Z" fill="#CBCBCB"/>
<path d="M50.1665 57.3334L11.7299 54.6835C11.3542 54.6576 10.9873 54.5579 10.6502 54.3901C10.3131 54.2224 10.0123 53.9899 9.76507 53.7059C9.51782 53.4219 9.32896 53.0919 9.20926 52.7349C9.08956 52.3779 9.04135 52.0008 9.06743 51.6251C9.07255 51.5393 9.08213 51.4538 9.0961 51.3689C10.7036 41.3255 14.8027 31.8451 21.0185 23.7942C27.2344 15.7433 35.3689 9.37865 44.6786 5.28187L50.1665 2.8667L47.1063 11.4667C42.9156 26.8284 44.5765 42.4267 50.1665 57.3334Z" fill="#00D8A2"/>
<path d="M54.4668 57.3333H76.5401C77.0295 57.3325 77.514 57.2355 77.9659 57.0475C78.4177 56.8596 78.8282 56.5845 79.1737 56.2379C79.5193 55.8914 79.7932 55.4802 79.9798 55.0278C80.1664 54.5753 80.2621 54.0906 80.2614 53.6012C80.264 53.2054 80.2035 52.8117 80.0823 52.4348L79.9156 51.9385C76.3772 41.326 70.5946 31.6001 62.9611 23.4224L54.4758 14.3333L55.8141 16.1715C58.9045 20.422 60.8456 25.3981 61.4495 30.6185C62.0534 35.8389 61.2997 41.1267 59.2613 45.9705L54.4668 57.3333Z" fill="#FD3581"/>
<path d="M83.2767 70.09L5.58105 66.0767C10.0595 71.0138 15.5212 74.9597 21.6152 77.6608C27.7091 80.3619 34.3007 81.7585 40.9665 81.7609H81.8165C82.5894 81.7606 83.3568 81.6304 84.0865 81.3757C84.1866 81.111 84.271 80.8406 84.3392 80.5659L86.009 72.962C86.0099 72.2259 85.7276 71.5177 85.2206 70.984C84.7137 70.4504 84.0208 70.1322 83.2857 70.0954L83.2767 70.09Z" fill="#F2F2F2"/>
<path d="M47.1067 11.4667L50.1668 2.8667L44.679 5.28187C39.396 7.61714 34.4731 10.694 30.059 14.4194C22.9711 22.8467 18.3055 33.0412 16.5605 43.9138C16.5719 44.76 16.8981 45.5717 17.4755 46.1905C18.0528 46.8092 18.84 47.1908 19.6834 47.2606L47.5331 49.1813C43.9952 36.8778 43.8479 23.847 47.1067 11.4667Z" fill="#6CE79A"/>
<path d="M79.8942 51.9386C76.9219 43.0396 72.3653 34.7513 66.4442 27.4734C66.9336 32.5039 66.1646 37.5772 64.2064 42.2367L61.8342 47.8787C61.4105 48.885 61.4034 50.0183 61.8146 51.0297C62.2258 52.0412 63.0215 52.8482 64.0272 53.2734C64.5375 53.4888 65.0858 53.5997 65.6397 53.5995H80.2418C80.2435 53.206 80.1831 52.8148 80.0626 52.4403L79.8942 51.9386Z" fill="#FE5694"/>
</g>
<defs>
<clipPath id="clip0_428_3450">
<rect width="86" height="86" fill="white"/>
</clipPath>
</defs>
</svg>
