<svg width="100" height="85" viewBox="0 0 100 85" fill="none" xmlns="http://www.w3.org/2000/svg">
<g clip-path="url(#clip0_428_3458)">
<path d="M14.8184 62.9779V84.0149C14.8184 84.2741 14.9212 84.5227 15.1044 84.706C15.2875 84.8892 15.5359 84.9922 15.7949 84.9922H20.9707C21.2297 84.9922 21.4781 84.8892 21.6613 84.706C21.8444 84.5227 21.9473 84.2741 21.9473 84.0149V58.9805L14.8184 62.9779Z" fill="#F2F2F2"/>
<path d="M47.3418 45.1742V84.0149C47.3418 84.2741 47.4447 84.5227 47.6278 84.706C47.8109 84.8893 48.0594 84.9923 48.3184 84.9923H53.4941C53.7531 84.9923 54.0015 84.8893 54.1846 84.706C54.3678 84.5227 54.4707 84.2741 54.4707 84.0149V41.1748L47.3418 45.1742Z" fill="#F2F2F2"/>
<path d="M79.8574 26.5609V84.0147C79.8574 84.2739 79.9603 84.5225 80.1435 84.7058C80.3266 84.8891 80.575 84.9921 80.834 84.9921H86.0117C86.2707 84.9921 86.5191 84.8891 86.7023 84.7058C86.8854 84.5225 86.9883 84.2739 86.9883 84.0147V22.5615L79.8574 26.5609Z" fill="#F2F2F2"/>
<path d="M31.1387 53.8533C35.2851 53.8533 38.6465 50.4891 38.6465 46.3392C38.6465 42.1893 35.2851 38.8252 31.1387 38.8252C26.9922 38.8252 23.6309 42.1893 23.6309 46.3392C23.6309 50.4891 26.9922 53.8533 31.1387 53.8533Z" fill="#F2F2F2"/>
<path d="M74.2012 30.1258C77.7921 28.0509 79.0225 23.4554 76.9492 19.8615C74.876 16.2676 70.2843 15.0362 66.6934 17.1112C63.1024 19.1861 61.8721 23.7816 63.9453 27.3755C66.0185 30.9694 70.6102 32.2008 74.2012 30.1258Z" fill="#F2F2F2"/>
<path d="M4.63462 67.6926L7.44515 72.5638C7.50911 72.6764 7.59482 72.7752 7.69725 72.8544C7.79969 72.9336 7.91678 72.9916 8.04182 73.025C8.16685 73.0585 8.29733 73.0668 8.42558 73.0493C8.55383 73.0319 8.67729 72.9891 8.78888 72.9235L99.5076 20.5032C99.6202 20.4392 99.7189 20.3534 99.798 20.2509C99.8771 20.1484 99.935 20.0312 99.9685 19.906C100.002 19.7809 100.01 19.6503 99.9928 19.522C99.9753 19.3936 99.9326 19.27 99.867 19.1583L97.0565 14.2871C96.9925 14.1745 96.9068 14.0757 96.8044 13.9966C96.702 13.9174 96.5848 13.8594 96.4598 13.8259C96.3348 13.7924 96.2043 13.7842 96.0761 13.8016C95.9478 13.819 95.8243 13.8618 95.7127 13.9274L4.99397 66.3536C4.88145 66.4176 4.78278 66.5034 4.70367 66.6059C4.62456 66.7084 4.56659 66.8257 4.53315 66.9508C4.49971 67.0759 4.49147 67.2065 4.50888 67.3348C4.5263 67.4632 4.56905 67.5868 4.63462 67.6985V67.6926Z" fill="#CBCBCB"/>
<path d="M31.2421 46.5169C30.8865 46.7222 30.5748 46.9956 30.3249 47.3215C30.0749 47.6474 29.8916 48.0194 29.7853 48.4162C29.679 48.813 29.6519 49.2269 29.7054 49.6342C29.759 50.0415 29.8922 50.4342 30.0975 50.79L34.6034 58.609C34.8085 58.9648 35.0817 59.2767 35.4073 59.5269C35.7329 59.7771 36.1046 59.9606 36.501 60.0669C36.8975 60.1733 37.3111 60.2005 37.718 60.1468C38.125 60.0932 38.5174 59.9599 38.8729 59.7545C39.2283 59.549 39.5397 59.2755 39.7895 58.9495C40.0393 58.6236 40.2224 58.2516 40.3285 57.8548C40.4346 57.458 40.4616 57.0441 40.4079 56.6369C40.3541 56.2297 40.2208 55.837 40.0155 55.4814L35.5096 47.6624C35.0953 46.9443 34.4131 46.4202 33.6128 46.2054C32.8125 45.9906 31.9598 46.1026 31.2421 46.5169Z" fill="#6C9DF8"/>
<path d="M70.5565 23.7989C70.2009 24.0042 69.8893 24.2776 69.6393 24.6035C69.3894 24.9294 69.206 25.3013 69.0997 25.6982C68.9935 26.095 68.9663 26.5088 69.0199 26.9162C69.0735 27.3235 69.2067 27.7162 69.412 28.072L73.9178 35.891C74.123 36.2468 74.3961 36.5587 74.7217 36.8089C75.0473 37.059 75.419 37.2425 75.8155 37.3489C76.212 37.4553 76.6255 37.4825 77.0325 37.4288C77.4394 37.3752 77.8319 37.2419 78.1873 37.0364C78.5427 36.831 78.8542 36.5575 79.104 36.2315C79.3537 35.9056 79.5369 35.5336 79.643 35.1368C79.7491 34.74 79.776 34.3261 79.7223 33.9189C79.6686 33.5117 79.5353 33.119 79.3299 32.7634L74.8241 24.9444C74.4098 24.2263 73.7275 23.7022 72.9272 23.4874C72.127 23.2726 71.2742 23.3846 70.5565 23.7989Z" fill="#6C9DF8"/>
<path d="M28.5977 23.5663C28.3965 23.5667 28.1973 23.5268 28.0118 23.449C27.6398 23.2935 27.3447 22.9966 27.1912 22.6235C27.0378 22.2504 27.0386 21.8316 27.1934 21.459L28.629 18.0168L22.3028 11.14L15.1837 15.2449C15.0109 15.3449 14.8202 15.4099 14.6223 15.4361C14.4245 15.4623 14.2235 15.4493 14.0307 15.3977C13.8379 15.3462 13.6571 15.2571 13.4987 15.1356C13.3403 15.0142 13.2074 14.8627 13.1075 14.6898C13.0076 14.5169 12.9426 14.326 12.9165 14.128C12.8903 13.93 12.9033 13.7288 12.9548 13.5359C13.0063 13.3429 13.0953 13.162 13.2167 13.0035C13.338 12.8449 13.4894 12.7119 13.6622 12.6119L20.8477 8.46001C21.4267 8.12135 22.1042 7.99171 22.7671 8.09275C23.43 8.19378 24.0383 8.51938 24.4903 9.01517L30.9044 15.9897C31.2842 16.4044 31.5379 16.9189 31.6358 17.4729C31.7337 18.0269 31.6717 18.5973 31.4571 19.1173L30.0001 22.6143C29.8844 22.8916 29.6894 23.1285 29.4395 23.2951C29.1896 23.4618 28.896 23.5507 28.5958 23.5506L28.5977 23.5663Z" fill="#E5E5E5"/>
<path d="M0.130712 50.8544L2.49396 54.9594C2.55792 55.072 2.64363 55.1708 2.74607 55.25C2.8485 55.3291 2.96565 55.3871 3.09068 55.4206C3.21571 55.4541 3.34614 55.4623 3.47439 55.4449C3.60264 55.4275 3.72615 55.3847 3.83774 55.3191L17.7674 47.2714L14.4276 41.4619L0.492012 49.5135C0.379329 49.5773 0.280495 49.663 0.201189 49.7654C0.121883 49.8679 0.0637239 49.9851 0.0300996 50.1102C-0.00352477 50.2354 -0.01197 50.366 0.00530404 50.4944C0.0225781 50.6228 0.0652198 50.7466 0.130712 50.8584V50.8544Z" fill="#F2F2F2"/>
<path d="M53.2754 5.96973L41.7246 7.69381C41.0503 7.79436 40.4407 8.15111 40.0224 8.68989C39.6041 9.22867 39.4093 9.90804 39.4786 10.5868C39.5357 11.1522 39.7729 11.6843 40.1551 12.1046C40.5374 12.5248 41.0445 12.8109 41.6016 12.9208L59.3086 16.4276L53.2754 5.96973Z" fill="#F2F2F2"/>
<path d="M10.5038 14.9478L16.5097 25.3607L20.8281 39.2238L30.0331 33.3459L17.1913 11.0853C16.9711 10.7033 16.6083 10.4244 16.1827 10.3101C15.7571 10.1957 15.3036 10.2552 14.9218 10.4754L11.1074 12.6784C10.9187 12.7876 10.7535 12.933 10.621 13.1062C10.4886 13.2795 10.3916 13.4771 10.3356 13.6879C10.2795 13.8987 10.2655 14.1184 10.2944 14.3346C10.3233 14.5508 10.3944 14.7592 10.5038 14.9478Z" fill="#F2F2F2"/>
<path d="M77.1092 0.977387C76.1204 0.671979 75.1114 0.436186 74.0897 0.271729C71.1307 0.711545 68.9002 2.06226 66.3377 2.57245H55.6385L49.9998 3.6847C49.5186 3.78239 49.0918 4.0579 48.8044 4.45637C48.517 4.85484 48.3901 5.34703 48.449 5.83492L49.5193 14.6821C49.5854 15.2291 49.4893 15.7834 49.2431 16.2762C48.9969 16.769 48.6115 17.1786 48.1346 17.4539L24.2459 31.2583C23.3842 31.7563 22.3603 31.892 21.3988 31.6354C20.4373 31.3789 19.6167 30.7512 19.117 29.89L16.5135 25.3765L8.70099 29.8958C7.9844 30.3097 7.35629 30.8608 6.85253 31.5176C6.34877 32.1744 5.97926 32.9241 5.76506 33.7239C5.55086 34.5237 5.49619 35.3579 5.60417 36.1788C5.71215 36.9998 5.98067 37.7914 6.39439 38.5084L13.7127 51.1947C13.8242 51.3876 13.9725 51.5567 14.1492 51.6922C14.3259 51.8278 14.5276 51.9272 14.7427 51.9847C14.9578 52.0423 15.1821 52.0568 15.4028 52.0276C15.6236 51.9984 15.8364 51.9259 16.0291 51.8144L75.5233 17.4383C75.979 17.1748 76.4821 17.0038 77.0039 16.9351C77.5257 16.8663 78.056 16.9011 78.5643 17.0375L82.7791 18.1674C83.1533 18.2677 83.5436 18.2933 83.9276 18.2426C84.3117 18.192 84.682 18.0661 85.0174 17.8722L89.6581 15.1903C90.1374 14.9131 90.4871 14.4568 90.6303 13.9216C90.7735 13.3864 90.6984 12.8162 90.4217 12.3364L89.6405 10.9954C86.8757 6.19347 82.3995 2.61496 77.1092 0.977387Z" fill="#6CE79A"/>
<path d="M90.4042 12.3208L89.623 10.9799C86.8562 6.18459 82.3819 2.61208 77.0956 0.977477C76.1068 0.672069 75.0978 0.436276 74.0761 0.271818C71.5117 -0.136723 68.8866 1.4857 66.3241 1.99785L55.621 2.58427L49.9824 3.69456C49.5011 3.79225 49.0743 4.06776 48.7869 4.46623C48.4995 4.8647 48.3727 5.35689 48.4316 5.84478L48.6269 7.43398L63.1054 4.09529C66.6822 3.25256 70.4083 3.27534 73.9745 4.16175C79.248 5.50466 83.621 8.74562 86.2109 13.2376L86.9355 14.4926C87.4765 15.4289 87.0742 16.6721 86.041 17.2702L89.6347 15.1924C89.8749 15.0556 90.0855 14.8725 90.2544 14.6536C90.4234 14.4348 90.5472 14.1846 90.6188 13.9175C90.6904 13.6504 90.7083 13.3717 90.6714 13.0976C90.6346 12.8236 90.5438 12.5595 90.4042 12.3208Z" fill="#00D8A2"/>
<path d="M74.0898 0.275514C71.5177 -0.137178 68.8926 -0.0875324 66.3379 0.422119L55.6348 2.57234C55.8459 3.39471 56.1692 4.18403 56.5957 4.91803C57.2113 5.98514 58.0308 6.92047 59.0076 7.67059C59.9843 8.42071 61.0991 8.97094 62.2883 9.28986C63.4775 9.60879 64.7178 9.69015 65.9385 9.52931C67.1591 9.36848 68.3361 8.96861 69.4023 8.35251C70.8198 7.53348 71.9984 6.35731 72.8207 4.94098C73.6431 3.52465 74.0806 1.91751 74.0898 0.279427V0.275514Z" fill="#FE5694"/>
<path d="M73.2988 3.98171C73.8079 2.80945 74.0737 1.54589 74.0801 0.267701C71.5079 -0.14499 68.8829 -0.0953449 66.3281 0.414307L55.625 2.56452C55.8361 3.38689 56.1595 4.17622 56.5859 4.91021C56.7012 5.10569 56.8242 5.30116 56.9531 5.49664L63.1074 4.07749C66.4556 3.29133 69.9365 3.25861 73.2988 3.98171Z" fill="#FD3581"/>
</g>
<defs>
<clipPath id="clip0_428_3458">
<rect width="100" height="85" fill="white"/>
</clipPath>
</defs>
</svg>
