<svg width="86" height="86" viewBox="0 0 86 86" fill="none" xmlns="http://www.w3.org/2000/svg">
<g clip-path="url(#clip0_428_3584)">
<path d="M69.5391 13.7737H66.8516V51.7354H69.5391V13.7737Z" fill="#EBE1DC"/>
<path d="M72.2617 24.0199H64.1253L54.719 52.2191L52.1743 51.3692L61.8812 22.2512C61.9703 21.9839 62.1412 21.7514 62.3697 21.5865C62.5982 21.4216 62.8727 21.3327 63.1544 21.3324H73.2326C73.5141 21.3326 73.7885 21.4213 74.0169 21.5858C74.2454 21.7504 74.4164 21.9825 74.5058 22.2495L84.3739 51.3708L81.8275 52.2225L72.2617 24.0199Z" fill="white"/>
<path d="M19.1484 13.7737H16.4609V51.7354H19.1484V13.7737Z" fill="#EBE1DC"/>
<path d="M1.62402 51.3708L11.4905 22.2562C11.5789 21.9875 11.7499 21.7534 11.9792 21.5876C12.2084 21.4217 12.4841 21.3324 12.7671 21.3324H22.8452C23.1267 21.3326 23.4011 21.4213 23.6296 21.5858C23.858 21.7504 24.029 21.9825 24.1184 22.2495L33.8236 51.3692L31.2772 52.2191L21.871 24.0199H13.7346L4.16036 52.2225L1.62402 51.3708Z" fill="white"/>
<path d="M37.9609 15.1175H7.72656C7.05834 15.1175 6.41749 14.8521 5.94499 14.3796C5.47248 13.9071 5.20703 13.2662 5.20703 12.5979C5.20703 11.9297 5.47248 11.2888 5.94499 10.8163C6.41749 10.3438 7.05834 10.0784 7.72656 10.0784H37.9609C38.6292 10.0784 39.27 10.3438 39.7425 10.8163C40.215 11.2888 40.4805 11.9297 40.4805 12.5979C40.4805 13.2662 40.215 13.9071 39.7425 14.3796C39.27 14.8521 38.6292 15.1175 37.9609 15.1175Z" fill="white"/>
<path d="M73.2344 15.1175H48.0391C47.3708 15.1175 46.73 14.8521 46.2575 14.3796C45.785 13.9071 45.5195 13.2662 45.5195 12.5979C45.5195 11.9297 45.785 11.2888 46.2575 10.8163C46.73 10.3438 47.3708 10.0784 48.0391 10.0784H73.2344C73.9026 10.0784 74.5434 10.3438 75.016 10.8163C75.4885 11.2888 75.7539 11.9297 75.7539 12.5979C75.7539 13.2662 75.4885 13.9071 75.016 14.3796C74.5434 14.8521 73.9026 15.1175 73.2344 15.1175Z" fill="white"/>
<path d="M43 15.1174C42.3318 15.1174 41.6909 15.3829 41.2184 15.8554C40.7459 16.3279 40.4805 16.9688 40.4805 17.637V52.9111C40.4805 53.5794 40.7459 54.2202 41.2184 54.6928C41.6909 55.1653 42.3318 55.4307 43 55.4307C43.6682 55.4307 44.3091 55.1653 44.7816 54.6928C45.2541 54.2202 45.5195 53.5794 45.5195 52.9111V17.637C45.5195 16.9688 45.2541 16.3279 44.7816 15.8554C44.3091 15.3829 43.6682 15.1174 43 15.1174Z" fill="#7EACFA"/>
<path d="M45.5195 52.9096V17.6354C45.5195 16.9672 45.2541 16.3263 44.7816 15.8538C44.3091 15.3813 43.6682 15.1158 43 15.1158V55.4291C43.6682 55.4291 44.3091 55.1637 44.7816 54.6912C45.2541 54.2187 45.5195 53.5778 45.5195 52.9096Z" fill="#6C9DF8"/>
<path d="M43 0C42.3318 0 41.6909 0.265456 41.2184 0.737969C40.7459 1.21048 40.4805 1.85135 40.4805 2.51958V7.55874C40.4805 8.22698 40.7459 8.86784 41.2184 9.34035C41.6909 9.81287 42.3318 10.0783 43 10.0783C43.6682 10.0783 44.3091 9.81287 44.7816 9.34035C45.2541 8.86784 45.5195 8.22698 45.5195 7.55874V2.51958C45.5195 1.85135 45.2541 1.21048 44.7816 0.737969C44.3091 0.265456 43.6682 0 43 0Z" fill="#7EACFA"/>
<path d="M45.5195 7.55874V2.51958C45.5195 1.85135 45.2541 1.21048 44.7816 0.737969C44.3091 0.265456 43.6682 0 43 0V10.0783C43.6682 10.0783 44.3091 9.81287 44.7816 9.34035C45.2541 8.86784 45.5195 8.22698 45.5195 7.55874Z" fill="#6C9DF8"/>
<path d="M50.5586 73.4022V62.9879C50.5588 62.5967 50.468 62.2108 50.2932 61.8608L45.2541 51.7825C44.8258 50.9275 43.9104 50.5009 43 50.5009C42.0896 50.5009 41.1742 50.9275 40.7475 51.7825L35.7085 61.8608C35.5331 62.2107 35.4417 62.5965 35.4414 62.9879V73.4022C35.4414 75.4069 34.6451 77.3295 33.2275 78.747C31.81 80.1645 29.8875 80.9609 27.8828 80.9609L32.9219 83.4805H53.0781L58.1172 80.9609C56.1125 80.9609 54.19 80.1645 52.7725 78.747C51.3549 77.3295 50.5586 75.4069 50.5586 73.4022Z" fill="white"/>
<path d="M43 20.1567C47.1745 20.1567 50.5586 16.7725 50.5586 12.5979C50.5586 8.42335 47.1745 5.03918 43 5.03918C38.8255 5.03918 35.4414 8.42335 35.4414 12.5979C35.4414 16.7725 38.8255 20.1567 43 20.1567Z" fill="white"/>
<path d="M58.1172 80.9609C56.1125 80.9609 54.19 80.1645 52.7725 78.747C51.3549 77.3295 50.5586 75.4069 50.5586 73.4022V62.9879C50.5588 62.5967 50.468 62.2108 50.2932 61.8608L45.2541 51.7825C44.8258 50.9275 43.9104 50.5009 43 50.5009V83.4805H53.0781L58.1172 80.9609Z" fill="#D9DFE8"/>
<path d="M50.5586 12.5979C50.5586 10.5932 49.7622 8.67063 48.3447 7.25309C46.9272 5.83555 45.0047 5.03918 43 5.03918V20.1567C45.0047 20.1567 46.9272 19.3603 48.3447 17.9428C49.7622 16.5252 50.5586 14.6026 50.5586 12.5979Z" fill="#D9DFE8"/>
<path d="M58.1172 80.9608H27.8828C27.2146 80.9608 26.5737 81.2263 26.1012 81.6988C25.6287 82.1713 25.3633 82.8122 25.3633 83.4804C25.3633 84.1486 25.6287 84.7895 26.1012 85.262C26.5737 85.7345 27.2146 86 27.8828 86H58.1172C58.7854 86 59.4263 85.7345 59.8988 85.262C60.3713 84.7895 60.6367 84.1486 60.6367 83.4804C60.6367 82.8122 60.3713 82.1713 59.8988 81.6988C59.4263 81.2263 58.7854 80.9608 58.1172 80.9608Z" fill="#7EACFA"/>
<path d="M60.6367 83.4804C60.6367 82.8122 60.3713 82.1713 59.8988 81.6988C59.4263 81.2263 58.7854 80.9608 58.1172 80.9608H43V86H58.1172C58.7854 86 59.4263 85.7345 59.8988 85.262C60.3713 84.7895 60.6367 84.1486 60.6367 83.4804Z" fill="#6C9DF8"/>
<path d="M68.1951 65.5073C55.2901 65.5073 51.2722 54.5388 50.8305 54.0349C50.6386 53.6508 50.5481 53.224 50.5675 52.7951C50.5869 52.3662 50.7156 51.9493 50.9413 51.5841C51.167 51.2186 51.4824 50.9169 51.8575 50.7075C52.2326 50.4982 52.6551 50.3883 53.0846 50.3882H83.487C83.9165 50.3883 84.339 50.4982 84.7141 50.7075C85.0892 50.9169 85.4046 51.2186 85.6303 51.5841C85.855 51.9499 85.9825 52.3671 86.0007 52.796C86.0189 53.2249 85.9273 53.6513 85.7344 54.0349C85.2859 54.5388 81.0934 65.5057 68.1951 65.5057V65.5073Z" fill="#6CE79A"/>
<path d="M17.8062 65.5073C4.89944 65.5073 0.715334 54.5388 0.271896 54.0349C0.0800412 53.6508 -0.01048 53.224 0.008922 52.7951C0.028324 52.3662 0.157001 51.9493 0.382751 51.5841C0.608419 51.2186 0.923806 50.9169 1.29893 50.7075C1.67406 50.4982 2.09646 50.3883 2.52603 50.3882H32.9284C33.358 50.3883 33.7804 50.4982 34.1555 50.7075C34.5306 50.9169 34.846 51.2186 35.0717 51.5841C35.2964 51.9499 35.4239 52.3671 35.4421 52.796C35.4603 53.2249 35.3687 53.6513 35.1758 54.0349C34.7273 54.5388 30.7045 65.5057 17.8062 65.5057V65.5073Z" fill="#FF7383"/>
</g>
<defs>
<clipPath id="clip0_428_3584">
<rect width="86" height="86" fill="white"/>
</clipPath>
</defs>
</svg>
