<svg width="85" height="85" viewBox="0 0 85 85" fill="none" xmlns="http://www.w3.org/2000/svg">
<path d="M83.7549 79.1475H1.24512C0.557314 79.1475 0 78.5901 0 77.9023C0 77.2145 0.557314 76.6572 1.24512 76.6572H83.7549C84.4427 76.6572 85 77.2145 85 77.9023C85 78.5901 84.4427 79.1475 83.7549 79.1475Z" fill="white"/>
<path d="M6.8999 85C6.2121 85 5.65479 84.4427 5.65479 83.7549V1.24512C5.65479 0.557314 6.2121 0 6.8999 0C7.58771 0 8.14502 0.557314 8.14502 1.24512V83.7549C8.14502 84.4427 7.58771 85 6.8999 85Z" fill="#CBCBCB"/>
<path d="M31.0874 72.4018C30.3996 72.4018 29.8423 71.8445 29.8423 71.1567V65.3773C29.8423 64.6895 30.3996 64.1322 31.0874 64.1322C31.7752 64.1322 32.3325 64.6895 32.3325 65.3773V71.1567C32.3325 71.8445 31.775 72.4018 31.0874 72.4018Z" fill="#FF546A"/>
<path d="M16.5923 67.6681C15.9045 67.6681 15.3472 67.1108 15.3472 66.423V55.6632C15.3472 54.9754 15.9045 54.4181 16.5923 54.4181C17.2801 54.4181 17.8374 54.9754 17.8374 55.6632V66.423C17.8374 67.1107 17.2801 67.6681 16.5923 67.6681Z" fill="#00D8A2"/>
<path d="M45.5825 64.5064C44.8947 64.5064 44.3374 63.9491 44.3374 63.2613V55.6631C44.3374 54.9753 44.8947 54.418 45.5825 54.418C46.2703 54.418 46.8276 54.9753 46.8276 55.6631V63.2613C46.8276 63.9489 46.2703 64.5064 45.5825 64.5064Z" fill="#00D8A2"/>
<path d="M60.0776 54.495C59.3898 54.495 58.8325 53.9377 58.8325 53.2499V46.8938C58.8325 46.206 59.3898 45.6487 60.0776 45.6487C60.7654 45.6487 61.3228 46.206 61.3228 46.8938V53.2499C61.3228 53.9377 60.7653 54.495 60.0776 54.495Z" fill="#FF546A"/>
<path d="M74.5728 74.4147C73.885 74.4147 73.3276 73.8573 73.3276 73.1695V64.1125C73.3276 63.4247 73.885 62.8674 74.5728 62.8674C75.2606 62.8674 75.8179 63.4247 75.8179 64.1125V73.1695C75.8179 73.8573 75.2606 74.4147 74.5728 74.4147Z" fill="#FF546A"/>
<path d="M31.0874 61.2118C30.3996 61.2118 29.8423 60.6545 29.8423 59.9667V50.3853C29.8423 49.6975 30.3996 49.1401 31.0874 49.1401C31.7752 49.1401 32.3325 49.6975 32.3325 50.3853V59.9667C32.3325 60.6545 31.775 61.2118 31.0874 61.2118Z" fill="#FF546A"/>
<path d="M16.5923 47.6958C15.9045 47.6958 15.3472 47.1384 15.3472 46.4506V37.3508C15.3472 36.663 15.9045 36.1057 16.5923 36.1057C17.2801 36.1057 17.8374 36.663 17.8374 37.3508V46.4506C17.8374 47.1383 17.2801 47.6958 16.5923 47.6958Z" fill="#00D8A2"/>
<path d="M45.5825 39.1555C44.8947 39.1555 44.3374 38.5982 44.3374 37.9104V31.4318C44.3374 30.744 44.8947 30.1866 45.5825 30.1866C46.2703 30.1866 46.8276 30.744 46.8276 31.4318V37.9104C46.8276 38.5982 46.2703 39.1555 45.5825 39.1555Z" fill="#00D8A2"/>
<path d="M60.0776 40.8156C59.3898 40.8156 58.8325 40.2583 58.8325 39.5705V35.4513C58.8325 34.7635 59.3898 34.2062 60.0776 34.2062C60.7654 34.2062 61.3228 34.7635 61.3228 35.4513V39.5705C61.3228 40.2583 60.7653 40.8156 60.0776 40.8156Z" fill="#FF546A"/>
<path d="M74.5728 51.4177C73.885 51.4177 73.3276 50.8604 73.3276 50.1726V41.2308C73.3276 40.543 73.885 39.9857 74.5728 39.9857C75.2606 39.9857 75.8179 40.543 75.8179 41.2308V50.1726C75.8179 50.8602 75.2606 51.4177 74.5728 51.4177Z" fill="#FF546A"/>
<path d="M34.0166 68.6976H27.6599C26.782 68.6976 26.0703 67.9859 26.0703 67.108V59.4147C26.0703 58.5368 26.782 57.8251 27.6599 57.8251H34.0166C34.8945 57.8251 35.6063 58.5368 35.6063 59.4147V67.108C35.6063 67.9859 34.8945 68.6976 34.0166 68.6976Z" fill="#FF7383"/>
<path d="M34.515 57.825H30.7134C31.5913 57.825 32.303 58.5367 32.303 59.4146V67.1079C32.303 67.9858 31.5913 68.6975 30.7134 68.6975H34.515C35.3929 68.6975 36.1046 67.9858 36.1046 67.1079V59.4146C36.1046 58.5367 35.3929 57.825 34.515 57.825Z" fill="#FF546A"/>
<path d="M19.5215 58.9834H13.1648C12.2869 58.9834 11.5752 58.2717 11.5752 57.3938V46.3801C11.5752 45.5022 12.2869 44.7905 13.1648 44.7905H19.5215C20.3994 44.7905 21.1111 45.5022 21.1111 46.3801V57.3938C21.1111 58.2717 20.3994 58.9834 19.5215 58.9834Z" fill="#6CE79A"/>
<path d="M20.0194 44.7904H16.2178C17.0957 44.7904 17.8074 45.5021 17.8074 46.38V57.3937C17.8074 58.2715 17.0957 58.9832 16.2178 58.9832H20.0194C20.8973 58.9832 21.609 58.2715 21.609 57.3937V46.38C21.609 45.5021 20.8973 44.7904 20.0194 44.7904Z" fill="#00D8A2"/>
<path d="M48.5118 58.9834H42.155C41.2771 58.9834 40.5654 58.2717 40.5654 57.3938V37.84C40.5654 36.9621 41.2771 36.2504 42.155 36.2504H48.5118C49.3897 36.2504 50.1014 36.9621 50.1014 37.84V57.3938C50.1014 58.2717 49.3897 58.9834 48.5118 58.9834Z" fill="#6CE79A"/>
<path d="M49.0101 36.2502H45.2085C46.0864 36.2502 46.7981 36.962 46.7981 37.8398V57.3937C46.7981 58.2716 46.0864 58.9833 45.2085 58.9833H49.0101C49.888 58.9833 50.5997 58.2716 50.5997 57.3937V37.84C50.5997 36.962 49.888 36.2502 49.0101 36.2502Z" fill="#00D8A2"/>
<path d="M63.0069 50.2141H56.6501C55.7723 50.2141 55.0605 49.5024 55.0605 48.6245V39.5001C55.0605 38.6222 55.7723 37.9105 56.6501 37.9105H63.0069C63.8848 37.9105 64.5965 38.6222 64.5965 39.5001V48.6245C64.5965 49.5024 63.8848 50.2141 63.0069 50.2141Z" fill="#FF7383"/>
<path d="M63.5052 37.9104H59.7036C60.5815 37.9104 61.2932 38.6221 61.2932 39.5V48.6244C61.2932 49.5023 60.5815 50.214 59.7036 50.214H63.5052C64.3831 50.214 65.0948 49.5023 65.0948 48.6244V39.5002C65.0948 38.6221 64.3831 37.9104 63.5052 37.9104Z" fill="#FF546A"/>
<path d="M77.502 67.4331H71.1453C70.2674 67.4331 69.5557 66.7214 69.5557 65.8435V50.102C69.5557 49.2242 70.2674 48.5125 71.1453 48.5125H77.502C78.3799 48.5125 79.0916 49.2242 79.0916 50.102V65.8435C79.0916 66.7214 78.3799 67.4331 77.502 67.4331Z" fill="#FF7383"/>
<path d="M78.0003 48.5125H74.1987C75.0766 48.5125 75.7883 49.2242 75.7883 50.102V65.8435C75.7883 66.7214 75.0766 67.4331 74.1987 67.4331H78.0003C78.8782 67.4331 79.5899 66.7214 79.5899 65.8435V50.102C79.5899 49.2242 78.8782 48.5125 78.0003 48.5125Z" fill="#FF546A"/>
<path d="M77.5615 26.0366C77.4591 25.711 77.2273 25.4417 76.921 25.2918L71.8767 22.8245C71.2582 22.5227 70.5133 22.7784 70.211 23.3958C69.9089 24.0137 70.1647 24.7593 70.7823 25.0614L73.1047 26.1973L60.2355 27.6076L45.6427 22.1727C45.2184 22.0145 44.7414 22.0995 44.3976 22.3945L31.0662 33.829L25.253 29.0997C24.9771 28.875 24.6181 28.7797 24.2672 28.8366L12.4968 30.7532C11.818 30.8638 11.3575 31.5036 11.4681 32.1821C11.5785 32.861 12.2196 33.3218 12.8969 33.2109L24.1153 31.3843L30.3015 36.4169C30.5308 36.6033 30.8092 36.6963 31.0873 36.6963C31.3761 36.6963 31.6648 36.596 31.8979 36.3961L45.4616 24.7624L59.643 30.0442C59.8251 30.1119 60.0201 30.1367 60.2134 30.1151L73.7171 28.6351L72.2346 31.3099C71.9012 31.9114 72.1185 32.6692 72.72 33.0024C72.9113 33.1085 73.1181 33.1586 73.3225 33.1586C73.7604 33.1586 74.1853 32.9271 74.4125 32.517L77.4627 27.0136C77.6284 26.7154 77.6641 26.362 77.5615 26.0366Z" fill="#6CE79A"/>
<path d="M38.5869 18.7339H23.6159C22.703 18.7339 21.9629 17.9938 21.9629 17.0809V2.89801C21.9629 1.98509 22.703 1.245 23.6159 1.245H38.5869C39.4998 1.245 40.2399 1.98509 40.2399 2.89801V17.0809C40.2399 17.9938 39.4998 18.7339 38.5869 18.7339Z" fill="#6CE79A"/>
<path d="M38.5869 1.24512H35.1245C36.0374 1.24512 36.7775 1.98521 36.7775 2.89813V17.081C36.7775 17.9939 36.0374 18.734 35.1245 18.734H38.5869C39.4999 18.734 40.24 17.9939 40.24 17.081V2.89797C40.24 1.98521 39.4999 1.24512 38.5869 1.24512Z" fill="#00D8A2"/>
<path d="M34.067 13.802C33.6366 13.802 33.2181 13.5787 32.9875 13.1793L31.1016 9.9126L29.2156 13.1793C28.872 13.7748 28.1105 13.9785 27.5148 13.635C26.9193 13.2912 26.7153 12.5297 27.0591 11.9342L30.0233 6.7998C30.2458 6.41465 30.6567 6.17725 31.1016 6.17725C31.5465 6.17725 31.9574 6.41465 32.1799 6.7998L35.1441 11.9342C35.4879 12.5297 35.2839 13.2912 34.6884 13.635C34.4925 13.7481 34.2783 13.802 34.067 13.802Z" fill="#FAF7F8"/>
<path d="M67.5488 18.7339H52.5778C51.6649 18.7339 50.9248 17.9938 50.9248 17.0809V2.89801C50.9248 1.98509 51.6649 1.245 52.5778 1.245H67.5488C68.4617 1.245 69.2018 1.98509 69.2018 2.89801V17.0809C69.2018 17.9938 68.4617 18.7339 67.5488 18.7339Z" fill="#FF7383"/>
<path d="M67.5488 1.24512H64.0864C64.9993 1.24512 65.7394 1.98521 65.7394 2.89813V17.081C65.7394 17.9939 64.9993 18.734 64.0864 18.734H67.5488C68.4618 18.734 69.2019 17.9939 69.2019 17.081V2.89797C69.2019 1.98521 68.4618 1.24512 67.5488 1.24512Z" fill="#FF546A"/>
<path d="M60.0635 13.8019C59.6186 13.8019 59.2077 13.5645 58.9852 13.1793L56.021 8.04493C55.6772 7.44944 55.8812 6.68792 56.4767 6.3441C57.0719 6.00062 57.8337 6.20415 58.1776 6.79982L60.0635 10.0665L61.9494 6.79982C62.2931 6.20415 63.0543 6.00045 63.6503 6.3441C64.2458 6.68792 64.4498 7.44944 64.106 8.04493L61.1418 13.1793C60.9193 13.5645 60.5084 13.8019 60.0635 13.8019Z" fill="#FAF7F8"/>
</svg>
