<svg xmlns="http://www.w3.org/2000/svg" xmlns:xlink="http://www.w3.org/1999/xlink" width="153" height="50" viewBox="0 0 153 50">
  <defs>
    <clipPath id="clip-path">
      <rect id="Rectangle_17" data-name="Rectangle 17" width="153" height="50" fill="#fff"/>
    </clipPath>
  </defs>
  <g id="Mask_Group_6" data-name="Mask Group 6" clip-path="url(#clip-path)">
    <path id="Vector" d="M12.86,3.6h2.927a9.869,9.869,0,0,1,5.263.667A9.31,9.31,0,0,1,25.26,9.88c.436,1.231.436,1.231,1.489.795h.822V.929H.023V2.648h1.13A3.288,3.288,0,0,1,3.72,3.853c1.053,1.693,1.232,3.59,1.232,13.464,0,10.489-.231,13.054-1.232,14.362a2.774,2.774,0,0,1-2.131,1.128c-1.566.282-1.566.257-1.566.949a1.025,1.025,0,0,0,0,.718H17.4a1.615,1.615,0,0,0,0-1.462,8.862,8.862,0,0,0-1.284-.256,8.579,8.579,0,0,1-1.386-.282,4.615,4.615,0,0,1-1.874-4.18,59.583,59.583,0,0,1-.385-7.36V18.907H13.5a13.879,13.879,0,0,1,3.8.41A4.744,4.744,0,0,1,19.51,22.7l.231.795h1.566V12.137H19.869l-.231,1.1A4.565,4.565,0,0,1,17.3,16.625a4.292,4.292,0,0,1-1.874.128H12.475v-2.77c0-2.872.154-8.925.257-9.874ZM133.013,23.934a9.315,9.315,0,0,0-5.314-4.026,12.84,12.84,0,0,1-4.6-2.565,2.561,2.561,0,0,1-.745-2.282,3.055,3.055,0,0,1,.9-2.154,3.11,3.11,0,0,1,3.081-.846,6.466,6.466,0,0,1,4.544,4.821c.41,1.154.462,1.154,1.206.846l.462-.18V11.162l-.333-.154a19.868,19.868,0,0,0-7.882-1.077,9.246,9.246,0,0,0-6.162,2.565,7.075,7.075,0,0,0-2.234,5.539,6.073,6.073,0,0,0,1.745,4.206,10.431,10.431,0,0,0,4.365,2.565c3.979,1.564,5.134,2.565,5.134,4.385a3.386,3.386,0,0,1-2.567,3.36,6.352,6.352,0,0,1-2.722,0,7.9,7.9,0,0,1-4.8-5.411l-.334-.821H116.3a2.049,2.049,0,0,0-.642.154H115.4v7.283h.437a26.48,26.48,0,0,0,5.34,1.18h2.568a10.077,10.077,0,0,0,3.312-.308,7.985,7.985,0,0,0,6.059-5.129,5.962,5.962,0,0,0,.462-2.308A6.383,6.383,0,0,0,133.013,23.934ZM108.828,10.675a11.848,11.848,0,0,0-9.679.231,11.261,11.261,0,0,0-5.879,7,13.68,13.68,0,0,0-.693,5.129,14.014,14.014,0,0,0,.231,2.821,11.393,11.393,0,0,0,9.217,9.181,18,18,0,0,0,4.494,0,12.33,12.33,0,0,0,4.364-1.667,7.7,7.7,0,0,0,2.722-2.565,1.281,1.281,0,0,0-.616-.8,3.288,3.288,0,0,0-.821.436,7.351,7.351,0,0,1-4.314,1.205,6.859,6.859,0,0,1-5.468-2.154,6.125,6.125,0,0,1-1.309-1.744,11.911,11.911,0,0,1-1.258-5.129v-1h14.223v-.513a12.719,12.719,0,0,0,0-1.539,10.257,10.257,0,0,0-5.213-8.9Zm-7.163,8.873h-1.8V18.035c.591-3.872,2.054-6.181,3.851-6.181s2.568,2.282,2.9,6.463V19.5H105.08ZM64.747,9.828a5.4,5.4,0,0,0-2.567.539A8.6,8.6,0,0,0,58.2,14.342l-.334.615V9.828h-.128c-.308,0-9.807,1.9-10.115,2.026s-.205.154-.205.615,0,.539.205.564l1,.205a1.849,1.849,0,0,1,1.438.744c.642.846.77,2.334.77,8.668a49.475,49.475,0,0,1-.359,8.54A2.1,2.1,0,0,1,48.7,32.858l-.873.18h-.334v.718a1.025,1.025,0,0,0,0,.744H61.846v-.744a1.871,1.871,0,0,0,0-.744,14.363,14.363,0,0,1-2.567-.333,2.564,2.564,0,0,1-1.361-2.565,89.245,89.245,0,0,1-.257-9.181c.051-3.334,0-3.539.282-3.77a4.624,4.624,0,0,1,3-.949,6.706,6.706,0,0,1,2.927.744,3.856,3.856,0,0,0,1,.385s2.567-6.206,2.567-6.488a3.031,3.031,0,0,0-2.7-1.026ZM47.443,20.6a11.513,11.513,0,0,0-5.289-9.13,13.363,13.363,0,0,0-12.015-.333A11.6,11.6,0,0,0,24.516,17.8a17.114,17.114,0,0,0,0,9.848,10.743,10.743,0,0,0,2.747,4.642,10.428,10.428,0,0,0,5.931,2.872,25.889,25.889,0,0,0,4.313,0,13.583,13.583,0,0,0,1.566-.333,11.417,11.417,0,0,0,8.19-9.1A22.39,22.39,0,0,0,47.443,20.6ZM36.762,33.423c-2.567.769-4.493-1.718-5.135-6.95a48.013,48.013,0,0,1,0-8.232c.514-4.206,1.823-6.335,3.851-6.335a2.569,2.569,0,0,1,2.157.949c1.72,1.718,2.567,5.129,2.567,10.258a18.986,18.986,0,0,1-1.335,8.514,3.9,3.9,0,0,1-2.105,1.667ZM82.975,10.341a8.564,8.564,0,0,0-2.182,0,9.714,9.714,0,0,0-4.031.872l-.8.333V5.982a38.2,38.2,0,0,0,0-5.642c-.308,0-10.115,1.872-10.27,1.949a.794.794,0,0,0,0,.59c0,.539,0,.513,1.155.769a3.315,3.315,0,0,1,.924.359,3.154,3.154,0,0,1,.95,1.77,29.331,29.331,0,0,1,.282,5.9V34.192l.693.154c1.027.231,3.928.718,4.878.821a35.964,35.964,0,0,0,5.7,0,11.628,11.628,0,0,0,9.6-7.206,17.65,17.65,0,0,0,.976-3.9,23.048,23.048,0,0,0-.18-5.411,9.878,9.878,0,0,0-7.7-8.309ZM76.249,32.987c0-.333-.257-11.566-.205-16.054V13.419l.745-.179a5.346,5.346,0,0,1,1.515,0,2.569,2.569,0,0,1,1.592.359,7.692,7.692,0,0,1,3.312,5.847,28.177,28.177,0,0,1,0,5.616,12.328,12.328,0,0,1-2.978,7.36,3.571,3.571,0,0,1-1.823.923,4.574,4.574,0,0,1-1.566,0c-.488,0-.488-.154-.488-.359Z" transform="translate(9.719 7.19)" fill="#fff"/>
  </g>
</svg>
