<svg width="265" height="265" viewBox="0 0 265 265" fill="none" xmlns="http://www.w3.org/2000/svg">
<g clip-path="url(#clip0_428_3350)">
<path d="M13.7069 1H251.293C258.311 1 264 6.68907 264 13.7069V251.293C264 258.311 258.311 264 251.293 264H13.7069C6.68907 264 1 258.311 1 251.293V13.7069C1 6.68907 6.68907 1 13.7069 1Z" fill="white" stroke="#4285F4" stroke-width="2"/>
<path d="M163.002 167.151V175.375H95.2173V167.48L118.281 167.37L122.585 167.343H124.495H124.568L134.821 167.288L135.15 167.279H137.206L141.446 167.252L163.002 167.151Z" fill="#2B374F"/>
<path d="M48.0562 112.616L107.809 114.032L96.5512 135.808L55.796 133.386L48.0562 112.616Z" fill="#F05C42"/>
<path d="M163.861 74.3461C163.861 78.3485 162.153 81.5925 160.051 81.5925C157.949 81.5925 156.25 78.3485 156.25 74.3461C156.25 70.3437 157.949 67.1089 160.051 67.1089C162.153 67.1089 163.861 70.3894 163.861 74.3461Z" fill="#F1E4C4"/>
<path d="M107.809 75.8539C107.809 79.8472 106.11 83.0912 104.008 83.0912C101.906 83.0912 100.197 79.8472 100.197 75.8539C100.197 71.8606 101.906 68.6075 104.008 68.6075C106.11 68.6075 107.809 71.8515 107.809 75.8539Z" fill="#F1E4C4"/>
<path d="M143.347 102.4H116.372V132.61H143.347V102.4Z" fill="#F8B38C"/>
<path d="M159.886 74.8762C159.886 93.1521 153.682 107.928 131.942 107.928C110.203 107.928 104.008 93.1338 104.008 74.8762C104.008 56.6186 108.367 41.8152 131.97 41.8152C155.573 41.8152 159.886 56.6186 159.886 74.8762Z" fill="#F8B38C"/>
<path d="M104.008 72.6923C104.008 72.6923 102.792 53.6215 103.797 47.5813C104.803 41.5411 112.935 32.4215 112.935 32.4215L119.067 36.168L125.792 32.4032L134.081 36.1132L140.368 32.1473C140.368 32.1473 144.023 35.8025 144.991 36.6158C145.96 37.4291 151.863 33.4266 151.863 33.4266C151.863 33.4266 161.001 42.9392 160.772 51.4923C160.544 60.0454 159.923 74.8763 159.923 74.8763C159.923 74.8763 161.568 62.0832 151.086 54.0692C147.175 51.0903 139.856 55.6592 132.573 55.6318C126.012 55.6318 119.478 50.743 115.503 52.6528C107.179 56.6278 104.008 72.6923 104.008 72.6923Z" fill="#79473E"/>
<path d="M152.667 77.782C152.667 77.782 151.754 79.2441 151.324 79.902C149.944 82.0037 146.709 83.4841 143.831 83.4841C140.953 83.4841 137.718 82.0037 136.338 79.902L134.995 77.782C134.995 77.782 136 76.0824 136.576 75.3422C137.486 74.3172 138.603 73.4965 139.854 72.9343C141.105 72.372 142.46 72.0808 143.831 72.08C146.664 72.08 149.844 73.5146 151.251 75.5615C151.726 76.2468 152.667 77.782 152.667 77.782Z" fill="white"/>
<path d="M147.806 77.9374C147.806 78.6603 147.592 79.367 147.19 79.9681C146.788 80.5692 146.217 81.0377 145.55 81.3143C144.882 81.591 144.147 81.6634 143.438 81.5224C142.729 81.3813 142.077 81.0332 141.566 80.522C141.055 80.0108 140.707 79.3595 140.566 78.6505C140.425 77.9415 140.497 77.2065 140.774 76.5386C141.05 75.8707 141.519 75.2999 142.12 74.8982C142.721 74.4966 143.428 74.2822 144.151 74.2822C145.12 74.2822 146.05 74.6673 146.735 75.3528C147.421 76.0383 147.806 76.968 147.806 77.9374Z" fill="#0C8485"/>
<path d="M145.677 77.9374C145.677 78.2486 145.584 78.5529 145.411 78.8115C145.238 79.0702 144.992 79.2716 144.704 79.3903C144.417 79.509 144.1 79.5396 143.795 79.4782C143.49 79.4168 143.21 79.2662 142.99 79.0455C142.771 78.8247 142.622 78.5438 142.562 78.2383C142.503 77.9329 142.535 77.6166 142.655 77.3295C142.776 77.0425 142.979 76.7977 143.238 76.6261C143.498 76.4545 143.803 76.3638 144.114 76.3656C144.32 76.3644 144.525 76.4043 144.716 76.4829C144.906 76.5616 145.08 76.6775 145.225 76.8238C145.37 76.9701 145.485 77.1439 145.563 77.3351C145.64 77.5263 145.679 77.731 145.677 77.9374Z" fill="#231F20"/>
<path d="M145.677 76.4114C145.677 76.5921 145.623 76.7688 145.523 76.919C145.422 77.0693 145.28 77.1864 145.113 77.2556C144.946 77.3247 144.762 77.3428 144.585 77.3076C144.407 77.2723 144.245 77.1853 144.117 77.0575C143.989 76.9297 143.902 76.7669 143.867 76.5896C143.831 76.4123 143.85 76.2286 143.919 76.0617C143.988 75.8947 144.105 75.752 144.255 75.6515C144.406 75.5511 144.582 75.4976 144.763 75.4976C145.005 75.4976 145.238 75.5938 145.409 75.7652C145.58 75.9366 145.677 76.169 145.677 76.4114Z" fill="white"/>
<path d="M127.904 77.9374C127.904 77.9374 126.99 79.3995 126.551 80.0574C125.181 82.1591 121.982 83.6395 119.067 83.6395C116.152 83.6395 112.954 82.15 111.574 80.0483C111.145 79.3995 110.231 77.9374 110.231 77.9374C110.231 77.9374 111.236 76.2378 111.803 75.4976C112.714 74.4702 113.832 73.6475 115.085 73.0836C116.337 72.5197 117.694 72.2275 119.067 72.2262C121.891 72.2262 125.071 73.67 126.487 75.7169C126.953 76.3931 127.904 77.9374 127.904 77.9374Z" fill="white"/>
<path d="M123.042 78.0927C123.042 78.8156 122.828 79.5223 122.426 80.1234C122.025 80.7245 121.454 81.193 120.786 81.4696C120.118 81.7463 119.383 81.8186 118.674 81.6776C117.965 81.5366 117.314 81.1885 116.803 80.6773C116.291 80.1661 115.943 79.5148 115.802 78.8058C115.661 78.0967 115.734 77.3618 116.01 76.6939C116.287 76.026 116.755 75.4551 117.356 75.0535C117.957 74.6519 118.664 74.4375 119.387 74.4375C120.357 74.4375 121.286 74.8226 121.972 75.5081C122.657 76.1936 123.042 77.1233 123.042 78.0927Z" fill="#0C8485"/>
<path d="M120.913 78.0927C120.913 78.4036 120.821 78.7074 120.648 78.9659C120.475 79.2244 120.23 79.4259 119.943 79.5448C119.656 79.6638 119.34 79.6949 119.035 79.6342C118.73 79.5736 118.45 79.4239 118.23 79.2041C118.01 78.9843 117.86 78.7042 117.8 78.3993C117.739 78.0945 117.77 77.7784 117.889 77.4912C118.008 77.204 118.21 76.9586 118.468 76.7859C118.727 76.6132 119.03 76.521 119.341 76.521C119.758 76.521 120.158 76.6866 120.453 76.9814C120.747 77.2761 120.913 77.6759 120.913 78.0927Z" fill="#231F20"/>
<path d="M120.913 76.5667C120.913 76.7475 120.859 76.9242 120.759 77.0744C120.659 77.2247 120.516 77.3418 120.349 77.411C120.182 77.4802 119.998 77.4983 119.821 77.463C119.644 77.4277 119.481 77.3407 119.353 77.2129C119.225 77.0851 119.138 76.9223 119.103 76.745C119.068 76.5678 119.086 76.384 119.155 76.217C119.224 76.0501 119.341 75.9074 119.492 75.807C119.642 75.7066 119.819 75.653 119.999 75.653C120.242 75.653 120.474 75.7492 120.645 75.9206C120.817 76.092 120.913 76.3244 120.913 76.5667Z" fill="white"/>
<path d="M132.299 99.1008C130.614 99.1038 128.939 98.8543 127.328 98.3606C127.089 98.2705 126.894 98.0929 126.781 97.8638C126.668 97.6347 126.647 97.3713 126.721 97.1271C126.796 96.8829 126.96 96.6762 127.182 96.5489C127.403 96.4216 127.664 96.3832 127.913 96.4416C130.895 97.3876 134.106 97.3266 137.051 96.268C137.173 96.1984 137.308 96.1552 137.448 96.1411C137.587 96.127 137.729 96.1423 137.862 96.186C137.995 96.2298 138.118 96.301 138.223 96.3952C138.327 96.4893 138.41 96.6042 138.467 96.7325C138.524 96.8608 138.554 96.9997 138.554 97.1401C138.554 97.2805 138.525 97.4194 138.468 97.5479C138.411 97.6763 138.328 97.7914 138.224 97.8857C138.12 97.9801 137.997 98.0516 137.864 98.0956C136.091 98.7836 134.201 99.1249 132.299 99.1008Z" fill="#DC8E68"/>
<path d="M151.05 69.8412C150.974 69.85 150.897 69.85 150.822 69.8412C142.597 66.9445 137.782 69.2198 137.736 69.2472C137.657 69.2893 137.57 69.3148 137.48 69.3224C137.39 69.3299 137.3 69.3193 137.215 69.2911C137.13 69.263 137.051 69.2179 136.983 69.1585C136.916 69.0991 136.861 69.0267 136.822 68.9457C136.781 68.866 136.757 68.779 136.75 68.6898C136.743 68.6005 136.754 68.5108 136.782 68.4258C136.81 68.3408 136.855 68.2622 136.913 68.1946C136.972 68.127 137.044 68.0717 137.124 68.0319C137.343 67.9314 142.47 65.4824 151.251 68.5619C151.396 68.6179 151.518 68.7225 151.595 68.8579C151.672 68.9932 151.7 69.1511 151.675 69.3048C151.649 69.4584 151.571 69.5985 151.454 69.7012C151.336 69.804 151.187 69.8631 151.032 69.8686L151.05 69.8412Z" fill="#081928"/>
<path d="M112.26 69.8413C112.104 69.8358 111.955 69.7766 111.838 69.6739C111.721 69.5711 111.643 69.4311 111.617 69.2774C111.591 69.1237 111.619 68.9659 111.696 68.8305C111.773 68.6952 111.895 68.5906 112.04 68.5345C120.822 65.4551 125.948 67.904 126.168 68.0045C126.248 68.0443 126.319 68.0996 126.378 68.1672C126.437 68.2349 126.481 68.3134 126.509 68.3984C126.537 68.4834 126.548 68.5732 126.541 68.6624C126.534 68.7517 126.51 68.8387 126.469 68.9183C126.43 68.9994 126.376 69.0718 126.308 69.1312C126.241 69.1905 126.162 69.2356 126.077 69.2638C125.991 69.292 125.901 69.3026 125.811 69.295C125.722 69.2875 125.635 69.2619 125.555 69.2199C125.501 69.2199 120.667 66.9354 112.47 69.8139C112.401 69.8311 112.331 69.8403 112.26 69.8413Z" fill="#081928"/>
<path d="M134.575 71.9613C134.575 73.2223 133.094 74.2458 131.276 74.2458C129.457 74.2458 127.968 73.2223 127.968 71.9613C127.968 70.7002 129.448 69.6859 131.276 69.6859C133.103 69.6859 134.575 70.6911 134.575 71.9613Z" fill="#0F3041"/>
<path d="M128.927 75.7809H100.947V79.8838H128.927V75.7809Z" fill="#081928"/>
<path d="M161.33 76.8317H133.35V80.9346H161.33V76.8317Z" fill="#081928"/>
<path d="M114.937 61.5531C112.168 61.5513 109.46 62.371 107.156 63.9086C104.853 65.4462 103.057 67.6325 101.996 70.1909C100.935 72.7493 100.657 75.5649 101.197 78.2813C101.737 80.9978 103.071 83.493 105.029 85.4514C106.987 87.4098 109.483 88.7433 112.199 89.2832C114.916 89.823 117.731 89.5451 120.29 88.4843C122.848 87.4236 125.034 85.6279 126.572 83.3243C128.109 81.0207 128.929 78.3129 128.927 75.5433C128.923 71.8343 127.447 68.2787 124.824 65.6561C122.202 63.0334 118.646 61.5579 114.937 61.5531Z" fill="#081928"/>
<path d="M147.34 62.4669C144.573 62.4669 141.868 63.2874 139.568 64.8247C137.267 66.3619 135.474 68.5469 134.415 71.1033C133.356 73.6596 133.079 76.4726 133.619 79.1864C134.159 81.9003 135.491 84.3931 137.448 86.3496C139.404 88.3062 141.897 89.6386 144.611 90.1785C147.325 90.7183 150.138 90.4412 152.694 89.3823C155.25 88.3234 157.435 86.5303 158.973 84.2296C160.51 81.9289 161.33 79.2241 161.33 76.4571C161.326 72.7481 159.85 69.1925 157.227 66.5699C154.605 63.9473 151.049 62.4718 147.34 62.4669Z" fill="#081928"/>
<path d="M137.243 71.9703H125.354V82.1226H137.243V71.9703Z" fill="#081928"/>
<path d="M109.783 67.6482C109.783 67.6482 122.576 67.7213 117.834 63.2254C113.091 58.7296 102.409 63.2803 97.6844 66.442C91.7631 70.3987 88.117 79.9387 86.7189 82.7441C85.3208 85.5494 76.9048 89.5792 76.9048 89.5792L79.9203 98.7172C79.9203 98.7172 91.3701 92.8597 94.011 94.2944C96.6519 95.729 110.843 97.8765 113.201 97.7303C115.558 97.584 117.185 94.2304 114.919 93.1065C112.652 91.9825 104.721 88.8847 102.82 80.9622C100.919 73.0396 109.783 67.6482 109.783 67.6482Z" fill="#E5A488"/>
<path d="M153.435 67.6482C153.435 67.6482 140.642 67.7213 145.394 63.2254C150.145 58.7296 160.809 63.2803 165.497 66.442C171.427 70.3987 175.074 79.9387 176.462 82.7441C177.851 85.5494 186.286 89.5792 186.286 89.5792L183.27 98.7172C183.27 98.7172 171.82 92.8597 169.17 94.2944C166.52 95.729 152.338 97.8765 149.981 97.7303C147.623 97.584 146.006 94.2304 148.263 93.1065C150.52 91.9825 158.47 88.8847 160.361 80.9622C162.253 73.0396 153.435 67.6482 153.435 67.6482Z" fill="#E5A488"/>
<path d="M126.405 79.9569C126.405 82.2251 125.732 84.4423 124.472 86.3282C123.212 88.2141 121.421 89.684 119.326 90.552C117.23 91.42 114.924 91.6471 112.7 91.2046C110.475 90.7621 108.432 89.6699 106.828 88.066C105.224 86.4622 104.132 84.4188 103.689 82.1942C103.247 79.9696 103.474 77.6637 104.342 75.5682C105.21 73.4727 106.68 71.6816 108.566 70.4215C110.451 69.1614 112.669 68.4888 114.937 68.4888C117.978 68.4888 120.895 69.697 123.046 71.8477C125.197 73.9984 126.405 76.9154 126.405 79.9569Z" fill="#EEEFEF"/>
<path d="M128.753 77.7547C128.65 77.0825 128.494 76.4195 128.287 75.7717C127.358 72.8504 125.504 70.3104 123.005 68.5345C122.132 67.9182 121.19 67.4031 120.2 66.9993C119.493 66.7077 118.762 66.4754 118.016 66.3048C115.874 65.8322 113.652 65.8687 111.526 66.4115C109.401 66.9543 107.433 67.9881 105.78 69.43C105.335 69.8217 104.914 70.2398 104.519 70.6819C104.373 70.8281 104.245 70.9834 104.108 71.1479L103.962 71.3398C102.926 72.667 102.134 74.1676 101.623 75.7717C101.42 76.4107 101.267 77.0645 101.166 77.7272C101.052 78.4283 100.994 79.1371 100.992 79.8472V80.1396C101.022 82.1989 101.507 84.226 102.413 86.0759C103.318 87.9258 104.621 89.5527 106.228 90.8402C108.709 92.8367 111.798 93.9263 114.982 93.9288C115.275 93.9288 115.558 93.9288 115.841 93.9288C119.395 93.71 122.732 92.1435 125.17 89.5488C127.609 86.9541 128.965 83.5267 128.963 79.966V79.8746C128.949 79.1636 128.879 78.4547 128.753 77.7547ZM114.937 88.9029C112.883 88.8971 110.894 88.1872 109.301 86.8917C107.708 85.5962 106.607 83.7935 106.183 81.7845C106.06 81.183 105.999 80.5707 106 79.9569V79.8655C106.013 78.4341 106.37 77.0269 107.041 75.7626C107.249 75.3746 107.484 75.0021 107.745 74.6477C109.058 72.8786 110.977 71.6555 113.134 71.2121C115.292 70.7687 117.538 71.1363 119.442 72.2445C120.775 73.0259 121.884 74.1395 122.659 75.4767C123.434 76.8139 123.849 78.3291 123.864 79.8746V79.966C123.87 80.8493 123.737 81.728 123.471 82.5703C122.909 84.3973 121.778 85.9969 120.242 87.136C118.707 88.2751 116.848 88.8941 114.937 88.9029Z" fill="#0F3041"/>
<path d="M158.808 79.9569C158.808 82.2251 158.136 84.4423 156.876 86.3282C155.615 88.2141 153.824 89.684 151.729 90.552C149.633 91.42 147.327 91.6471 145.103 91.2046C142.878 90.7621 140.835 89.6699 139.231 88.066C137.627 86.4622 136.535 84.4188 136.092 82.1942C135.65 79.9696 135.877 77.6637 136.745 75.5682C137.613 73.4727 139.083 71.6816 140.969 70.4215C142.855 69.1614 145.072 68.4888 147.34 68.4888C150.382 68.4888 153.299 69.697 155.449 71.8477C157.6 73.9984 158.808 76.9154 158.808 79.9569Z" fill="#EEEFEF"/>
<path d="M161.212 78.239C161.158 77.7684 161.075 77.3015 160.965 76.8409C160.737 75.8373 160.397 74.8625 159.951 73.935V73.8711V73.7797C159.237 72.3577 158.289 71.0663 157.145 69.96C155.186 68.0482 152.709 66.7525 150.022 66.2328C147.334 65.7131 144.553 65.9923 142.022 67.0359C140.903 67.5068 139.849 68.1211 138.888 68.8635C136.279 70.8392 134.448 73.6696 133.716 76.8592C133.598 77.3187 133.512 77.7858 133.46 78.2573C133.386 78.83 133.349 79.4069 133.35 79.9843C133.35 80.3042 133.35 80.6331 133.35 80.9438C133.35 81.3459 133.423 81.7297 133.478 82.1226C133.988 85.4258 135.661 88.4382 138.196 90.6164C140.731 92.7946 143.961 93.9953 147.304 94.0019H147.377C150.849 93.9726 154.187 92.6584 156.747 90.3127C159.307 87.9671 160.907 84.7564 161.239 81.3002C161.239 81.1997 161.239 81.1083 161.239 80.9986C161.239 80.6879 161.285 80.359 161.285 80.0392C161.301 79.4381 161.276 78.8367 161.212 78.239ZM138.449 80.9347C138.412 80.6162 138.394 80.2958 138.394 79.9752C138.389 78.9045 138.581 77.8419 138.961 76.8409C139.711 74.8338 141.162 73.1657 143.045 72.144C144.358 71.421 145.833 71.0437 147.331 71.0474C149.151 71.0485 150.927 71.6045 152.423 72.6413C153.918 73.6781 155.062 75.1463 155.701 76.85C156.084 77.8505 156.279 78.9131 156.277 79.9843C156.278 80.305 156.259 80.6253 156.222 80.9438C155.998 83.0437 155.038 84.9964 153.511 86.4557C151.985 87.9149 149.991 88.7864 147.883 88.9156C145.775 89.0448 143.689 88.4234 141.996 87.1616C140.303 85.8997 139.111 84.0789 138.632 82.0221C138.55 81.6639 138.492 81.3006 138.458 80.9347H138.449Z" fill="#0F3041"/>
<path d="M163.039 114.023V167.151C163.039 167.361 160.298 168.211 160.005 168.321C158.936 168.714 157.858 169.079 156.78 169.417C147.554 172.178 137.937 173.4 128.315 173.036C121.456 172.931 114.615 172.32 107.846 171.208C105.571 170.815 103.277 170.294 101.066 169.71C99.9782 169.408 98.8908 169.07 97.8217 168.695C96.8875 168.507 96.009 168.107 95.2539 167.526C95.2539 167.526 95.2539 167.48 95.2539 167.453V120.739L105.306 114.023H116.39C116.833 116.879 118.25 119.494 120.403 121.423C122.555 123.352 125.309 124.476 128.196 124.605C128.726 124.65 129.274 124.678 129.841 124.678C130.799 124.679 131.755 124.605 132.701 124.459C135.356 124.099 137.825 122.893 139.741 121.02C141.657 119.147 142.918 116.706 143.338 114.06L163.039 114.023Z" fill="#2B374F"/>
<path d="M77.8827 78.9151C81.9125 77.0876 90.8494 96.8529 85.659 102.427C80.4687 108.001 58.9854 133.496 55.7963 133.423C52.6071 133.35 37.6575 123.417 48.0565 111.309C58.4554 99.2014 73.862 80.6879 77.8827 78.9151Z" fill="#D64329"/>
<path d="M185.509 80.9345C181.48 79.107 173.63 99.2835 178.327 104.108C183.024 108.933 205.595 132.582 208.482 133.35C211.37 134.117 228.458 123.088 216.213 111.236C203.968 99.384 189.539 82.7439 185.509 80.9345Z" fill="#D64329"/>
<path d="M48.0562 112.616L107.809 114.032L96.5512 135.808L55.796 133.386L48.0562 112.616Z" fill="#2B374F"/>
<path d="M77.8827 78.9151C81.9125 77.0876 90.8494 96.8529 85.659 102.427C80.4687 108.001 58.9854 133.496 55.7963 133.423C52.6071 133.35 37.6575 123.417 48.0565 111.309C58.4554 99.2014 73.862 80.6879 77.8827 78.9151Z" fill="#1E2B3C"/>
<path d="M216.204 113.365L156.46 114.105L159.658 135.881L208.473 133.46L216.204 113.365Z" fill="#2B374F"/>
<path d="M185.509 80.9345C181.48 79.107 173.63 99.2835 178.327 104.108C183.024 108.933 205.595 132.582 208.482 133.35C211.37 134.117 228.458 123.088 216.213 111.236C203.968 99.384 189.539 82.7439 185.509 80.9345Z" fill="#1E2B3C"/>
<path d="M120.977 126.506L114.937 123.243L123.042 169.947H136.767L144.479 122.604L120.977 126.506Z" fill="#E6E6E6"/>
<path d="M123.864 126.35C123.752 126.162 123.692 125.948 123.689 125.729C123.685 125.51 123.74 125.294 123.846 125.102C123.952 124.911 124.107 124.751 124.295 124.638C124.482 124.525 124.696 124.463 124.915 124.459L129.841 124.678L134.501 124.322C134.716 124.321 134.928 124.376 135.116 124.481C135.303 124.586 135.461 124.738 135.573 124.922C135.685 125.105 135.748 125.315 135.755 125.53C135.763 125.745 135.715 125.958 135.616 126.149L133.276 130.334L130.937 134.52C130.827 134.709 130.669 134.867 130.479 134.976C130.289 135.086 130.074 135.143 129.854 135.143C129.635 135.143 129.42 135.086 129.229 134.976C129.039 134.867 128.882 134.709 128.771 134.52L126.313 130.408L123.864 126.35Z" fill="#6C9DF8"/>
<path d="M116.371 114.032C115.106 115.362 114.406 117.131 114.418 118.966C114.43 120.801 115.153 122.561 116.435 123.874L124.349 131.979C124.551 132.183 124.8 132.334 125.074 132.417C125.349 132.501 125.64 132.514 125.921 132.457C126.202 132.4 126.465 132.274 126.685 132.09C126.905 131.906 127.076 131.67 127.182 131.403L129.832 124.678C126.869 124.19 124.078 122.956 121.722 121.094C119.366 119.232 117.522 116.802 116.362 114.032H116.371Z" fill="white"/>
<path d="M143.347 114.032C144.603 115.377 145.291 117.155 145.269 118.995C145.247 120.835 144.516 122.596 143.228 123.91L135.314 132.016C135.113 132.22 134.863 132.37 134.589 132.454C134.314 132.537 134.024 132.551 133.742 132.494C133.461 132.437 133.199 132.31 132.979 132.126C132.759 131.942 132.588 131.707 132.482 131.44L129.841 124.678C132.809 124.191 135.605 122.959 137.967 121.097C140.329 119.235 142.18 116.805 143.347 114.032Z" fill="white"/>
<path d="M135.561 175.375H123.672L123.937 172.89L123.956 172.652L124.23 169.956V169.947L124.495 167.343L124.513 167.151L127.94 133.386H131.732L134.821 167.288L134.894 168.101L135.058 169.947L135.159 171.035L135.305 172.652L135.342 172.972L135.561 175.375Z" fill="#7EACFA"/>
<path d="M126.35 175.366H122.695C122.084 174.518 121.517 173.64 120.996 172.734C119.992 170.991 119.077 169.197 118.254 167.361C115.952 162.267 114.093 156.984 112.698 151.571L115.632 145.567H111.547C110.322 136.521 103.323 124.212 116.344 114.032V114.233C116.344 115.147 116.554 118.912 117.011 124.376C117.008 124.41 117.008 124.443 117.011 124.477C117.203 126.898 117.459 129.631 117.788 132.582C118.958 142.972 120.986 156.03 124.468 167.133L124.523 167.316C124.523 167.316 124.523 167.379 124.523 167.416C124.788 168.266 125.071 169.097 125.354 169.92C125.588 170.917 125.765 171.927 125.884 172.944C126.094 173.858 126.213 174.745 126.35 175.366Z" fill="#3A4A62"/>
<path d="M148.135 145.567H144.059L146.984 151.571C145.596 156.949 143.744 162.195 141.446 167.252C140.589 169.144 139.637 170.992 138.595 172.789C138.047 173.703 137.489 174.617 136.95 175.366H133.295C133.432 174.717 133.56 173.877 133.688 173.027C133.814 171.99 134 170.962 134.245 169.947C134.419 169.454 134.592 168.951 134.757 168.439L134.867 168.092L135.123 167.279C138.631 156.149 140.678 143.036 141.848 132.601C142.177 129.649 142.442 126.908 142.634 124.486C142.68 123.938 142.725 123.417 142.762 122.896C143.164 117.934 143.292 114.672 143.319 114.105V114.041C156.386 124.212 149.332 136.484 148.135 145.567Z" fill="#3A4A62"/>
<path d="M210.255 175.375H204.644H53.7862H48.1755L24.3438 234.406H234.973L210.255 175.375Z" fill="#D9DFE8"/>
<path d="M218.095 175.375H214.266H111.236H107.407L91.1323 234.406H237.778L218.095 175.375Z" fill="#D0D5DD"/>
</g>
<defs>
<clipPath id="clip0_428_3350">
<rect width="265" height="265" fill="white"/>
</clipPath>
</defs>
</svg>
