<svg xmlns="http://www.w3.org/2000/svg" xmlns:xlink="http://www.w3.org/1999/xlink" width="290" height="50" viewBox="0 0 290 50">
  <defs>
    <clipPath id="clip-path">
      <rect id="Rectangle_20" data-name="Rectangle 20" width="290" height="50" transform="translate(-12)" fill="#fff"/>
    </clipPath>
    <clipPath id="clip-path-2">
      <rect id="Rectangle_15" data-name="Rectangle 15" width="286.956" height="43.204" transform="translate(0 0.339)" fill="#fff"/>
    </clipPath>
  </defs>
  <g id="Mask_Group_7" data-name="Mask Group 7" transform="translate(12)" clip-path="url(#clip-path)">
    <g id="marketwatch-logo_1" data-name="marketwatch-logo 1" transform="translate(-10.64 3.059)" clip-path="url(#clip-path-2)">
      <path id="Path_77" data-name="Path 77" d="M59.425,26.979a7.662,7.662,0,0,1-2.383,4.382,7.034,7.034,0,0,1-4.48,1.839,4.491,4.491,0,0,1-2.1-.448,4.715,4.715,0,0,1-1.689-1.383,5.007,5.007,0,0,1-.923-2.028,5.132,5.132,0,0,1,.037-2.247,7.607,7.607,0,0,1,2.351-4.376A6.984,6.984,0,0,1,54.7,20.873a4.4,4.4,0,0,1,2.142.39,4.622,4.622,0,0,1,1.731,1.379A4.92,4.92,0,0,1,59.5,24.7,5.043,5.043,0,0,1,59.425,26.979Zm2.187-12.039-.492,2.523a6.35,6.35,0,0,0-2.639-2.68,5.956,5.956,0,0,0-3.622-.646,14.244,14.244,0,0,0-9.116,3.857,15.526,15.526,0,0,0-4.718,9.042c-1.2,6.908,1.968,12.956,9.268,12.956a8.767,8.767,0,0,0,4.058-.824,9.19,9.19,0,0,0,3.3-2.616l-.437,2.58h6.808L68.31,15.025h-6.7Zm10.663.029H78.7l-.437,2.522a7.31,7.31,0,0,1,2.8-2.585,6.909,6.909,0,0,1,3.655-.769l-1.258,7.252c-3.226,0-5.468.745-6.206,4.443L74.9,39.075H67.982Z" transform="translate(7.776 3.413)" fill="#fff"/>
      <path id="Path_78" data-name="Path 78" d="M82.508,7.214,76.575,40.78h6.917l2.05-11.638h.109L90.081,40.78h7.792l-6.015-13.53,10.526-10.577h-8.12l-7.956,8.743H86.2l3.226-18.2Z" transform="translate(14.602 1.708)" fill="#fff"/>
      <path id="Path_79" data-name="Path 79" d="M102.894,24.33a6.7,6.7,0,0,1,2.4-3.015,6.238,6.238,0,0,1,3.59-1.112,3.816,3.816,0,0,1,1.657.163,3.943,3.943,0,0,1,1.45.857,4.179,4.179,0,0,1,.991,1.4,4.355,4.355,0,0,1,.358,1.7Zm6.971-10.2a15.069,15.069,0,0,0-9.291,3.932,16.382,16.382,0,0,0-5.035,9.082,10.835,10.835,0,0,0-.036,4.725,10.561,10.561,0,0,0,1.972,4.249A9.947,9.947,0,0,0,101.044,39a9.478,9.478,0,0,0,4.42.923,12.453,12.453,0,0,0,6.917-2.178,17.819,17.819,0,0,0,5.769-6.163h-7.026a5.993,5.993,0,0,1-2.071,1.661,5.73,5.73,0,0,1-2.549.575,3.924,3.924,0,0,1-1.774-.193,4.072,4.072,0,0,1-1.528-.964,4.31,4.31,0,0,1-.993-1.553,4.494,4.494,0,0,1-.271-1.848h17.252a8.97,8.97,0,0,0,.492-1.892C120.993,19.858,116.892,14.126,109.866,14.126Z" transform="translate(18.165 3.424)" fill="#fff"/>
      <path id="Path_80" data-name="Path 80" d="M39.642,7.214,27.5,26.333h-.109V7.214H21.516L0,40.78H8.339L20.423,21.661h.109V40.78h5.933L38.549,21.661h.109V40.78h6.917V7.214Zm115.674,9.459h-4.347l1.259-7.137h-6.043l-.492,2.866a5.064,5.064,0,0,1-1.653,3.213,4.618,4.618,0,0,1-3.3,1.173L139.7,22.12h3.417L139.814,40.78h6.862l3.309-18.661h4.4Z" transform="translate(0 1.708)" fill="#fff"/>
      <path id="Path_81" data-name="Path 81" d="M243.007,8.948h6.862L247.791,20.9a7.3,7.3,0,0,1,2.856-2.622,6.9,6.9,0,0,1,3.732-.731,6.742,6.742,0,0,1,3.22.616,7.074,7.074,0,0,1,2.6,2.078c1.476,2.35,1.312,4.5.547,8.8L258.4,42.514h-6.863l2.3-13.128c.219-1.147.875-5.074-2.734-5.074a4.721,4.721,0,0,0-3.267,1.371,5.179,5.179,0,0,0-1.517,3.33l-2.379,13.472h-6.752Zm-28.925,9.431h-4.238l1.175-7.137h-6.042l-.6,2.752a5.057,5.057,0,0,1-1.651,3.213,4.618,4.618,0,0,1-3.3,1.173l-.93,5.446h3.39l-3.28,18.661h6.862l3.28-18.661h4.4ZM180.973,36.609a7.025,7.025,0,0,0,4.563-1.794,7.651,7.651,0,0,0,2.436-4.426,5.041,5.041,0,0,0,.075-2.278,4.918,4.918,0,0,0-.932-2.059,4.622,4.622,0,0,0-1.731-1.379,4.4,4.4,0,0,0-2.141-.39,6.982,6.982,0,0,0-4.457,1.844,7.613,7.613,0,0,0-2.352,4.376,5.144,5.144,0,0,0-.037,2.247,5,5,0,0,0,.923,2.028,4.712,4.712,0,0,0,1.69,1.383,4.489,4.489,0,0,0,2.1.448M192.7,42.342h-6.944l.437-2.58a9.207,9.207,0,0,1-3.326,2.721,8.774,8.774,0,0,1-4.138.863c-7.3,0-10.5-6.048-9.268-12.956a15.524,15.524,0,0,1,4.722-9,14.246,14.246,0,0,1,9.084-3.843,5.959,5.959,0,0,1,3.57.7,6.36,6.36,0,0,1,2.583,2.678l.492-2.523h6.807ZM179.5.349l-13.4,8.6h3.8L157.762,28.039V8.948h-6.043L139.581,28.039V8.948h-7.026V42.486h5.987L150.681,23.28V42.486h5.932L178.185,8.948h3.39Zm57.031,32.993a16.216,16.216,0,0,1-5.521,7.125,15.1,15.1,0,0,1-8.313,2.879,9.5,9.5,0,0,1-4.545-.868,9.966,9.966,0,0,1-3.675-2.937,10.606,10.606,0,0,1-2-4.366,10.85,10.85,0,0,1,.106-4.843,16.1,16.1,0,0,1,5.125-9.056,14.8,14.8,0,0,1,9.392-3.728,9.319,9.319,0,0,1,3.905.574,9.665,9.665,0,0,1,3.367,2.152,10.215,10.215,0,0,1,2.277,3.376,10.613,10.613,0,0,1,.812,4.046h-6.972a4.29,4.29,0,0,0-1.573-2.6,3.935,3.935,0,0,0-2.828-.815,6.531,6.531,0,0,0-4.351,1.779,7.135,7.135,0,0,0-2.184,4.326,4.889,4.889,0,0,0-.179,2.232,4.792,4.792,0,0,0,.834,2.063,4.512,4.512,0,0,0,1.654,1.419,4.28,4.28,0,0,0,2.093.449,6.329,6.329,0,0,0,3.123-.877,6.7,6.7,0,0,0,2.344-2.334h7.108Z" transform="translate(25.277 0.002)" fill="#fff"/>
    </g>
  </g>
</svg>
