<svg width="26" height="21" viewBox="0 0 26 21" fill="none" xmlns="http://www.w3.org/2000/svg">
<g clip-path="url(#clip0_601_23626)">
<path d="M4.71243 20.1479V18.8078C4.71243 18.2952 4.40018 17.9596 3.86415 17.9596C3.59614 17.9596 3.30471 18.048 3.10435 18.3395C2.94822 18.0949 2.72444 17.9596 2.38877 17.9596C2.16499 17.9596 1.94121 18.0272 1.76427 18.2718V18.0038H1.2959V20.1479H1.76427V18.964C1.76427 18.5841 1.96463 18.4045 2.27688 18.4045C2.58913 18.4045 2.74526 18.6049 2.74526 18.964V20.1479H3.21363V18.964C3.21363 18.5841 3.43741 18.4045 3.72624 18.4045C4.03849 18.4045 4.19462 18.6049 4.19462 18.964V20.1479H4.71243ZM11.66 18.0038H10.9002V17.3559H10.4318V18.0038H10.0077V18.4279H10.4318V19.4115C10.4318 19.9033 10.6322 20.1921 11.1682 20.1921C11.3686 20.1921 11.5923 20.1245 11.7485 20.036L11.6132 19.6327C11.4778 19.7212 11.3217 19.7446 11.2098 19.7446C10.9861 19.7446 10.8976 19.6093 10.8976 19.3881V18.4279H11.6574V18.0038H11.66ZM15.636 17.957C15.368 17.957 15.1884 18.0923 15.0765 18.2692V18.0012H14.6081V20.1453H15.0765V18.9379C15.0765 18.5815 15.2326 18.3785 15.5241 18.3785C15.6126 18.3785 15.7244 18.4019 15.8155 18.4227L15.9508 17.9752C15.8571 17.957 15.7244 17.957 15.636 17.957ZM9.62776 18.1807C9.40399 18.0246 9.09173 17.957 8.75607 17.957C8.22004 17.957 7.86355 18.225 7.86355 18.6491C7.86355 19.0056 8.13157 19.2086 8.59994 19.2736L8.82372 19.297C9.06832 19.3413 9.20362 19.4089 9.20362 19.5208C9.20362 19.6769 9.02408 19.7888 8.71183 19.7888C8.39958 19.7888 8.15238 19.6769 7.99626 19.565L7.77248 19.9215C8.01708 20.1011 8.35274 20.1895 8.68841 20.1895C9.31291 20.1895 9.672 19.8981 9.672 19.4974C9.672 19.1175 9.38057 18.9171 8.93561 18.8495L8.71183 18.8261C8.51147 18.8026 8.35535 18.7584 8.35535 18.6257C8.35535 18.4696 8.51147 18.3811 8.75867 18.3811C9.02668 18.3811 9.2947 18.493 9.43001 18.5606L9.62776 18.1807ZM22.0891 17.957C21.8211 17.957 21.6416 18.0923 21.5297 18.2692V18.0012H21.0613V20.1453H21.5297V18.9379C21.5297 18.5815 21.6858 18.3785 21.9772 18.3785C22.0657 18.3785 22.1776 18.4019 22.2687 18.4227L22.404 17.9804C22.3129 17.957 22.1802 17.957 22.0891 17.957ZM16.1043 19.0759C16.1043 19.7238 16.5519 20.1921 17.2441 20.1921C17.5563 20.1921 17.7801 20.1245 18.0039 19.9476L17.7801 19.5676C17.6005 19.703 17.4236 19.768 17.2206 19.768C16.8407 19.768 16.5727 19.5 16.5727 19.0759C16.5727 18.6725 16.8407 18.4045 17.2206 18.3837C17.421 18.3837 17.6005 18.4514 17.7801 18.5841L18.0039 18.2042C17.7801 18.0246 17.5563 17.9596 17.2441 17.9596C16.5519 17.957 16.1043 18.4279 16.1043 19.0759ZM20.4368 19.0759V18.0038H19.9684V18.2718C19.8123 18.0715 19.5885 17.9596 19.2971 17.9596C18.6934 17.9596 18.225 18.4279 18.225 19.0759C18.225 19.7238 18.6934 20.1921 19.2971 20.1921C19.6093 20.1921 19.8331 20.0803 19.9684 19.8799V20.1479H20.4368V19.0759ZM18.7168 19.0759C18.7168 18.6959 18.9614 18.3837 19.3648 18.3837C19.7447 18.3837 20.0127 18.6751 20.0127 19.0759C20.0127 19.4558 19.7447 19.768 19.3648 19.768C18.964 19.7446 18.7168 19.4532 18.7168 19.0759ZM13.112 17.957C12.4875 17.957 12.0399 18.4045 12.0399 19.0733C12.0399 19.7446 12.4875 20.1895 13.1354 20.1895C13.4476 20.1895 13.7599 20.1011 14.0071 19.8981L13.7833 19.5624C13.6037 19.6978 13.38 19.7862 13.1588 19.7862C12.8674 19.7862 12.5785 19.6509 12.5109 19.2736H14.0955C14.0955 19.206 14.0955 19.1617 14.0955 19.0941C14.1164 18.4045 13.713 17.957 13.112 17.957ZM13.112 18.3603C13.4034 18.3603 13.6037 18.5398 13.648 18.8729H12.5317C12.5759 18.5841 12.7763 18.3603 13.112 18.3603ZM24.7485 19.0759V17.1555H24.2801V18.2718C24.124 18.0715 23.9002 17.9596 23.6087 17.9596C23.0051 17.9596 22.5367 18.4279 22.5367 19.0759C22.5367 19.7238 23.0051 20.1921 23.6087 20.1921C23.921 20.1921 24.1448 20.0803 24.2801 19.8799V20.1479H24.7485V19.0759ZM23.0285 19.0759C23.0285 18.6959 23.2731 18.3837 23.6764 18.3837C24.0563 18.3837 24.3243 18.6751 24.3243 19.0759C24.3243 19.4558 24.0563 19.768 23.6764 19.768C23.2731 19.7446 23.0285 19.4532 23.0285 19.0759ZM7.34834 19.0759V18.0038H6.87997V18.2718C6.72384 18.0715 6.50006 17.9596 6.20863 17.9596C5.60495 17.9596 5.13657 18.4279 5.13657 19.0759C5.13657 19.7238 5.60495 20.1921 6.20863 20.1921C6.52088 20.1921 6.74466 20.0803 6.87997 19.8799V20.1479H7.34834V19.0759ZM5.60755 19.0759C5.60755 18.6959 5.85214 18.3837 6.25547 18.3837C6.63537 18.3837 6.90338 18.6751 6.90338 19.0759C6.90338 19.4558 6.63537 19.768 6.25547 19.768C5.85214 19.7446 5.60755 19.4532 5.60755 19.0759Z" fill="black"/>
<path d="M16.5077 1.71997H9.47168V14.3609H16.5077V1.71997Z" fill="#FF5A00"/>
<path d="M9.93995 8.04043C9.93995 5.47218 11.1473 3.19275 13 1.71998C11.6365 0.647918 9.91653 0 8.04043 0C3.59608 0 0 3.59608 0 8.04043C0 12.4848 3.59608 16.0809 8.04043 16.0809C9.91653 16.0809 11.6365 15.4329 13 14.3609C11.1447 12.9089 9.93995 10.6087 9.93995 8.04043Z" fill="#EB001B"/>
<path d="M26 8.04043C26 12.4848 22.4039 16.0809 17.9596 16.0809C16.0835 16.0809 14.3635 15.4329 13 14.3609C14.8761 12.8855 16.06 10.6087 16.06 8.04043C16.06 5.47218 14.8527 3.19275 13 1.71998C14.3609 0.647918 16.0809 0 17.957 0C22.4039 0 26 3.6195 26 8.04043Z" fill="#F79E1B"/>
</g>
<defs>
<clipPath id="clip0_601_23626">
<rect width="26" height="20.1922" fill="white"/>
</clipPath>
</defs>
</svg>
