<svg width="595" height="466" viewBox="0 0 595 466" fill="none" xmlns="http://www.w3.org/2000/svg">
<path d="M24 1H571C583.979 1 594.5 11.5213 594.5 24.5V441.5C594.5 454.479 583.979 465 571 465H24C11.0213 465 0.5 454.479 0.5 441.5V24.5C0.5 11.5213 11.0213 1 24 1Z" fill="white"/>
<path d="M24 1H571C583.979 1 594.5 11.5213 594.5 24.5V441.5C594.5 454.479 583.979 465 571 465H24C11.0213 465 0.5 454.479 0.5 441.5V24.5C0.5 11.5213 11.0213 1 24 1Z" fill="url(#paint0_radial_2714_76093)"/>
<path d="M48.368 61.788C47.136 61.788 46.048 61.58 45.104 61.164C44.16 60.732 43.416 60.124 42.872 59.34C42.328 58.54 42.048 57.572 42.032 56.436H45.272C45.304 57.22 45.584 57.884 46.112 58.428C46.656 58.956 47.4 59.22 48.344 59.22C49.16 59.22 49.808 59.028 50.288 58.644C50.768 58.244 51.008 57.716 51.008 57.06C51.008 56.372 50.792 55.836 50.36 55.452C49.944 55.068 49.384 54.756 48.68 54.516C47.976 54.276 47.224 54.02 46.424 53.748C45.128 53.3 44.136 52.724 43.448 52.02C42.776 51.316 42.44 50.38 42.44 49.212C42.424 48.22 42.656 47.372 43.136 46.668C43.632 45.948 44.304 45.396 45.152 45.012C46 44.612 46.976 44.412 48.08 44.412C49.2 44.412 50.184 44.612 51.032 45.012C51.896 45.412 52.568 45.972 53.048 46.692C53.544 47.412 53.808 48.268 53.84 49.26H50.552C50.536 48.668 50.304 48.148 49.856 47.7C49.424 47.236 48.816 47.004 48.032 47.004C47.36 46.988 46.792 47.156 46.328 47.508C45.88 47.844 45.656 48.34 45.656 48.996C45.656 49.556 45.832 50.004 46.184 50.34C46.536 50.66 47.016 50.932 47.624 51.156C48.232 51.38 48.928 51.62 49.712 51.876C50.544 52.164 51.304 52.5 51.992 52.884C52.68 53.268 53.232 53.78 53.648 54.42C54.064 55.044 54.272 55.852 54.272 56.844C54.272 57.724 54.048 58.54 53.6 59.292C53.152 60.044 52.488 60.652 51.608 61.116C50.728 61.564 49.648 61.788 48.368 61.788ZM63.1643 61.788C61.9643 61.788 60.9003 61.532 59.9723 61.02C59.0443 60.508 58.3163 59.788 57.7883 58.86C57.2603 57.932 56.9963 56.86 56.9963 55.644C56.9963 54.412 57.2523 53.316 57.7643 52.356C58.2923 51.396 59.0123 50.652 59.9243 50.124C60.8523 49.58 61.9403 49.308 63.1883 49.308C64.3563 49.308 65.3883 49.564 66.2843 50.076C67.1803 50.588 67.8763 51.292 68.3723 52.188C68.8843 53.068 69.1403 54.052 69.1403 55.14C69.1403 55.316 69.1323 55.5 69.1163 55.692C69.1163 55.884 69.1083 56.084 69.0923 56.292H60.0443C60.1083 57.22 60.4283 57.948 61.0043 58.476C61.5963 59.004 62.3083 59.268 63.1403 59.268C63.7643 59.268 64.2843 59.132 64.7003 58.86C65.1323 58.572 65.4523 58.204 65.6603 57.756H68.7803C68.5563 58.508 68.1803 59.196 67.6523 59.82C67.1403 60.428 66.5003 60.908 65.7323 61.26C64.9803 61.612 64.1243 61.788 63.1643 61.788ZM63.1883 51.804C62.4363 51.804 61.7723 52.02 61.1963 52.452C60.6203 52.868 60.2523 53.508 60.0923 54.372H66.0203C65.9723 53.588 65.6843 52.964 65.1563 52.5C64.6283 52.036 63.9723 51.804 63.1883 51.804ZM77.3171 61.5C76.0691 61.5 75.0691 61.196 74.3171 60.588C73.5651 59.98 73.1891 58.9 73.1891 57.348V52.164H71.1491V49.596H73.1891L73.5491 46.404H76.2611V49.596H79.4771V52.164H76.2611V57.372C76.2611 57.948 76.3811 58.348 76.6211 58.572C76.8771 58.78 77.3091 58.884 77.9171 58.884H79.4051V61.5H77.3171ZM93.2974 61.788C91.8094 61.788 90.6574 61.324 89.8414 60.396C89.0414 59.468 88.6414 58.108 88.6414 56.316V49.596H91.6894V56.028C91.6894 57.052 91.8974 57.836 92.3134 58.38C92.7294 58.924 93.3854 59.196 94.2814 59.196C95.1294 59.196 95.8254 58.892 96.3694 58.284C96.9294 57.676 97.2094 56.828 97.2094 55.74V49.596H100.281V61.5H97.5694L97.3294 59.484C96.9614 60.188 96.4254 60.748 95.7214 61.164C95.0334 61.58 94.2254 61.788 93.2974 61.788ZM103.935 66.78V49.596H106.671L107.007 51.3C107.391 50.772 107.895 50.308 108.519 49.908C109.159 49.508 109.983 49.308 110.991 49.308C112.111 49.308 113.111 49.58 113.991 50.124C114.871 50.668 115.567 51.412 116.079 52.356C116.591 53.3 116.847 54.372 116.847 55.572C116.847 56.772 116.591 57.844 116.079 58.788C115.567 59.716 114.871 60.452 113.991 60.996C113.111 61.524 112.111 61.788 110.991 61.788C110.095 61.788 109.311 61.62 108.639 61.284C107.967 60.948 107.423 60.476 107.007 59.868V66.78H103.935ZM110.343 59.1C111.319 59.1 112.127 58.772 112.767 58.116C113.407 57.46 113.727 56.612 113.727 55.572C113.727 54.532 113.407 53.676 112.767 53.004C112.127 52.332 111.319 51.996 110.343 51.996C109.351 51.996 108.535 52.332 107.895 53.004C107.271 53.66 106.959 54.508 106.959 55.548C106.959 56.588 107.271 57.444 107.895 58.116C108.535 58.772 109.351 59.1 110.343 59.1ZM126.31 61.5V49.596H129.022L129.262 51.612C129.63 50.908 130.158 50.348 130.846 49.932C131.55 49.516 132.374 49.308 133.318 49.308C134.79 49.308 135.934 49.772 136.75 50.7C137.566 51.628 137.974 52.988 137.974 54.78V61.5H134.902V55.068C134.902 54.044 134.694 53.26 134.278 52.716C133.862 52.172 133.214 51.9 132.334 51.9C131.47 51.9 130.758 52.204 130.198 52.812C129.654 53.42 129.382 54.268 129.382 55.356V61.5H126.31ZM147.124 61.788C145.972 61.788 144.932 61.524 144.004 60.996C143.092 60.468 142.364 59.74 141.82 58.812C141.292 57.868 141.028 56.78 141.028 55.548C141.028 54.316 141.3 53.236 141.844 52.308C142.388 51.364 143.116 50.628 144.028 50.1C144.956 49.572 145.996 49.308 147.148 49.308C148.284 49.308 149.308 49.572 150.22 50.1C151.148 50.628 151.876 51.364 152.404 52.308C152.948 53.236 153.22 54.316 153.22 55.548C153.22 56.78 152.948 57.868 152.404 58.812C151.876 59.74 151.148 60.468 150.22 60.996C149.292 61.524 148.26 61.788 147.124 61.788ZM147.124 59.124C147.924 59.124 148.62 58.828 149.212 58.236C149.804 57.628 150.1 56.732 150.1 55.548C150.1 54.364 149.804 53.476 149.212 52.884C148.62 52.276 147.932 51.972 147.148 51.972C146.332 51.972 145.628 52.276 145.036 52.884C144.46 53.476 144.172 54.364 144.172 55.548C144.172 56.732 144.46 57.628 145.036 58.236C145.628 58.828 146.324 59.124 147.124 59.124ZM161.302 61.5C160.054 61.5 159.054 61.196 158.302 60.588C157.55 59.98 157.174 58.9 157.174 57.348V52.164H155.134V49.596H157.174L157.534 46.404H160.246V49.596H163.462V52.164H160.246V57.372C160.246 57.948 160.366 58.348 160.605 58.572C160.862 58.78 161.294 58.884 161.902 58.884H163.39V61.5H161.302ZM168.255 47.748C167.695 47.748 167.231 47.58 166.863 47.244C166.511 46.908 166.335 46.484 166.335 45.972C166.335 45.46 166.511 45.044 166.863 44.724C167.231 44.388 167.695 44.22 168.255 44.22C168.815 44.22 169.271 44.388 169.623 44.724C169.991 45.044 170.175 45.46 170.175 45.972C170.175 46.484 169.991 46.908 169.623 47.244C169.271 47.58 168.815 47.748 168.255 47.748ZM166.719 61.5V49.596H169.791V61.5H166.719ZM174.05 61.5V52.164H172.418V49.596H174.05V48.204C174.05 46.764 174.41 45.74 175.13 45.132C175.866 44.524 176.858 44.22 178.105 44.22H179.426V46.836H178.586C178.058 46.836 177.682 46.94 177.458 47.148C177.234 47.356 177.122 47.708 177.122 48.204V49.596H184.802V61.5H181.73V52.164H177.122V61.5H174.05ZM183.29 47.892C182.73 47.892 182.266 47.724 181.898 47.388C181.546 47.052 181.37 46.628 181.37 46.116C181.37 45.604 181.546 45.188 181.898 44.868C182.266 44.532 182.73 44.364 183.29 44.364C183.85 44.364 184.306 44.532 184.658 44.868C185.026 45.188 185.21 45.604 185.21 46.116C185.21 46.628 185.026 47.052 184.658 47.388C184.306 47.724 183.85 47.892 183.29 47.892ZM194.384 61.788C193.168 61.788 192.096 61.524 191.168 60.996C190.24 60.468 189.504 59.732 188.96 58.788C188.432 57.844 188.168 56.764 188.168 55.548C188.168 54.332 188.432 53.252 188.96 52.308C189.504 51.364 190.24 50.628 191.168 50.1C192.096 49.572 193.168 49.308 194.384 49.308C195.904 49.308 197.184 49.708 198.224 50.508C199.264 51.292 199.928 52.38 200.216 53.772H196.976C196.816 53.196 196.496 52.748 196.016 52.428C195.552 52.092 195 51.924 194.36 51.924C193.512 51.924 192.792 52.244 192.2 52.884C191.608 53.524 191.312 54.412 191.312 55.548C191.312 56.684 191.608 57.572 192.2 58.212C192.792 58.852 193.512 59.172 194.36 59.172C195 59.172 195.552 59.012 196.016 58.692C196.496 58.372 196.816 57.916 196.976 57.324H200.216C199.928 58.668 199.264 59.748 198.224 60.564C197.184 61.38 195.904 61.788 194.384 61.788ZM207.547 61.788C206.523 61.788 205.683 61.628 205.027 61.308C204.371 60.972 203.883 60.532 203.563 59.988C203.243 59.444 203.083 58.844 203.083 58.188C203.083 57.084 203.515 56.188 204.379 55.5C205.243 54.812 206.539 54.468 208.267 54.468H211.291V54.18C211.291 53.364 211.059 52.764 210.595 52.38C210.131 51.996 209.555 51.804 208.867 51.804C208.243 51.804 207.699 51.956 207.235 52.26C206.771 52.548 206.483 52.98 206.371 53.556H203.371C203.451 52.692 203.739 51.94 204.235 51.3C204.747 50.66 205.403 50.172 206.203 49.836C207.003 49.484 207.899 49.308 208.891 49.308C210.587 49.308 211.923 49.732 212.899 50.58C213.875 51.428 214.363 52.628 214.363 54.18V61.5H211.747L211.459 59.58C211.107 60.22 210.611 60.748 209.971 61.164C209.347 61.58 208.539 61.788 207.547 61.788ZM208.243 59.388C209.123 59.388 209.803 59.1 210.283 58.524C210.779 57.948 211.091 57.236 211.219 56.388H208.603C207.787 56.388 207.203 56.54 206.851 56.844C206.499 57.132 206.323 57.492 206.323 57.924C206.323 58.388 206.499 58.748 206.851 59.004C207.203 59.26 207.667 59.388 208.243 59.388ZM222.934 61.5C221.686 61.5 220.686 61.196 219.934 60.588C219.182 59.98 218.806 58.9 218.806 57.348V52.164H216.766V49.596H218.806L219.166 46.404H221.878V49.596H225.094V52.164H221.878V57.372C221.878 57.948 221.998 58.348 222.238 58.572C222.494 58.78 222.926 58.884 223.534 58.884H225.022V61.5H222.934ZM229.888 47.748C229.328 47.748 228.864 47.58 228.496 47.244C228.144 46.908 227.968 46.484 227.968 45.972C227.968 45.46 228.144 45.044 228.496 44.724C228.864 44.388 229.328 44.22 229.888 44.22C230.448 44.22 230.904 44.388 231.256 44.724C231.624 45.044 231.808 45.46 231.808 45.972C231.808 46.484 231.624 46.908 231.256 47.244C230.904 47.58 230.448 47.748 229.888 47.748ZM228.352 61.5V49.596H231.424V61.5H228.352ZM240.842 61.788C239.69 61.788 238.65 61.524 237.722 60.996C236.81 60.468 236.082 59.74 235.538 58.812C235.01 57.868 234.746 56.78 234.746 55.548C234.746 54.316 235.018 53.236 235.562 52.308C236.106 51.364 236.834 50.628 237.746 50.1C238.674 49.572 239.714 49.308 240.866 49.308C242.002 49.308 243.026 49.572 243.938 50.1C244.866 50.628 245.594 51.364 246.122 52.308C246.666 53.236 246.938 54.316 246.938 55.548C246.938 56.78 246.666 57.868 246.122 58.812C245.594 59.74 244.866 60.468 243.938 60.996C243.01 61.524 241.978 61.788 240.842 61.788ZM240.842 59.124C241.642 59.124 242.338 58.828 242.93 58.236C243.522 57.628 243.818 56.732 243.818 55.548C243.818 54.364 243.522 53.476 242.93 52.884C242.338 52.276 241.65 51.972 240.866 51.972C240.05 51.972 239.346 52.276 238.754 52.884C238.178 53.476 237.89 54.364 237.89 55.548C237.89 56.732 238.178 57.628 238.754 58.236C239.346 58.828 240.042 59.124 240.842 59.124ZM250.185 61.5V49.596H252.897L253.137 51.612C253.505 50.908 254.033 50.348 254.721 49.932C255.425 49.516 256.249 49.308 257.193 49.308C258.665 49.308 259.809 49.772 260.625 50.7C261.441 51.628 261.849 52.988 261.849 54.78V61.5H258.777V55.068C258.777 54.044 258.569 53.26 258.153 52.716C257.737 52.172 257.089 51.9 256.209 51.9C255.345 51.9 254.633 52.204 254.073 52.812C253.529 53.42 253.257 54.268 253.257 55.356V61.5H250.185ZM272.057 61.5V52.164H270.425V49.596H272.057V48.204C272.057 46.764 272.417 45.74 273.137 45.132C273.873 44.524 274.865 44.22 276.113 44.22H277.433V46.836H276.593C276.065 46.836 275.689 46.94 275.465 47.148C275.241 47.356 275.129 47.708 275.129 48.204V49.596H277.697V52.164H275.129V61.5H272.057ZM285.874 61.788C284.722 61.788 283.682 61.524 282.754 60.996C281.842 60.468 281.114 59.74 280.57 58.812C280.042 57.868 279.778 56.78 279.778 55.548C279.778 54.316 280.05 53.236 280.594 52.308C281.138 51.364 281.866 50.628 282.778 50.1C283.706 49.572 284.746 49.308 285.898 49.308C287.034 49.308 288.058 49.572 288.97 50.1C289.898 50.628 290.626 51.364 291.154 52.308C291.698 53.236 291.97 54.316 291.97 55.548C291.97 56.78 291.698 57.868 291.154 58.812C290.626 59.74 289.898 60.468 288.97 60.996C288.042 61.524 287.01 61.788 285.874 61.788ZM285.874 59.124C286.674 59.124 287.37 58.828 287.962 58.236C288.554 57.628 288.85 56.732 288.85 55.548C288.85 54.364 288.554 53.476 287.962 52.884C287.37 52.276 286.682 51.972 285.898 51.972C285.082 51.972 284.378 52.276 283.786 52.884C283.21 53.476 282.922 54.364 282.922 55.548C282.922 56.732 283.21 57.628 283.786 58.236C284.378 58.828 285.074 59.124 285.874 59.124ZM295.216 61.5V49.596H297.952L298.24 51.828C298.672 51.06 299.256 50.452 299.992 50.004C300.744 49.54 301.624 49.308 302.632 49.308V52.548H301.768C301.096 52.548 300.496 52.652 299.968 52.86C299.44 53.068 299.024 53.428 298.72 53.94C298.432 54.452 298.288 55.164 298.288 56.076V61.5H295.216ZM312.939 66.78L315.699 60.708H314.979L310.347 49.596H313.683L317.019 57.972L320.499 49.596H323.763L316.203 66.78H312.939ZM330.952 61.788C329.8 61.788 328.76 61.524 327.832 60.996C326.92 60.468 326.192 59.74 325.648 58.812C325.12 57.868 324.856 56.78 324.856 55.548C324.856 54.316 325.128 53.236 325.672 52.308C326.216 51.364 326.944 50.628 327.856 50.1C328.784 49.572 329.824 49.308 330.976 49.308C332.112 49.308 333.136 49.572 334.048 50.1C334.976 50.628 335.704 51.364 336.232 52.308C336.776 53.236 337.048 54.316 337.048 55.548C337.048 56.78 336.776 57.868 336.232 58.812C335.704 59.74 334.976 60.468 334.048 60.996C333.12 61.524 332.088 61.788 330.952 61.788ZM330.952 59.124C331.752 59.124 332.448 58.828 333.04 58.236C333.632 57.628 333.928 56.732 333.928 55.548C333.928 54.364 333.632 53.476 333.04 52.884C332.448 52.276 331.76 51.972 330.976 51.972C330.16 51.972 329.456 52.276 328.864 52.884C328.288 53.476 328 54.364 328 55.548C328 56.732 328.288 57.628 328.864 58.236C329.456 58.828 330.152 59.124 330.952 59.124ZM344.758 61.788C343.27 61.788 342.118 61.324 341.302 60.396C340.502 59.468 340.102 58.108 340.102 56.316V49.596H343.15V56.028C343.15 57.052 343.358 57.836 343.774 58.38C344.19 58.924 344.846 59.196 345.742 59.196C346.59 59.196 347.286 58.892 347.83 58.284C348.39 57.676 348.67 56.828 348.67 55.74V49.596H351.742V61.5H349.03L348.79 59.484C348.422 60.188 347.886 60.748 347.182 61.164C346.494 61.58 345.686 61.788 344.758 61.788ZM355.396 61.5V49.596H358.132L358.42 51.828C358.852 51.06 359.436 50.452 360.172 50.004C360.924 49.54 361.804 49.308 362.812 49.308V52.548H361.948C361.276 52.548 360.676 52.652 360.148 52.86C359.62 53.068 359.204 53.428 358.9 53.94C358.612 54.452 358.468 55.164 358.468 56.076V61.5H355.396ZM43.112 99.5V90.164H41.48V87.596H43.112V86.204C43.112 84.764 43.472 83.74 44.192 83.132C44.928 82.524 45.92 82.22 47.168 82.22H48.488V84.836H47.648C47.12 84.836 46.744 84.94 46.52 85.148C46.296 85.356 46.184 85.708 46.184 86.204V87.596H48.752V90.164H46.184V99.5H43.112ZM55.3203 99.788C54.2963 99.788 53.4563 99.628 52.8003 99.308C52.1443 98.972 51.6563 98.532 51.3363 97.988C51.0163 97.444 50.8563 96.844 50.8563 96.188C50.8563 95.084 51.2883 94.188 52.1523 93.5C53.0163 92.812 54.3123 92.468 56.0403 92.468H59.0643V92.18C59.0643 91.364 58.8323 90.764 58.3683 90.38C57.9043 89.996 57.3283 89.804 56.6403 89.804C56.0163 89.804 55.4723 89.956 55.0083 90.26C54.5443 90.548 54.2563 90.98 54.1443 91.556H51.1443C51.2243 90.692 51.5123 89.94 52.0083 89.3C52.5203 88.66 53.1763 88.172 53.9763 87.836C54.7763 87.484 55.6723 87.308 56.6643 87.308C58.3603 87.308 59.6963 87.732 60.6723 88.58C61.6483 89.428 62.1363 90.628 62.1363 92.18V99.5H59.5203L59.2323 97.58C58.8803 98.22 58.3843 98.748 57.7443 99.164C57.1203 99.58 56.3123 99.788 55.3203 99.788ZM56.0163 97.388C56.8963 97.388 57.5763 97.1 58.0563 96.524C58.5523 95.948 58.8643 95.236 58.9923 94.388H56.3763C55.5603 94.388 54.9763 94.54 54.6243 94.844C54.2723 95.132 54.0963 95.492 54.0963 95.924C54.0963 96.388 54.2723 96.748 54.6243 97.004C54.9763 97.26 55.4403 97.388 56.0163 97.388ZM68.4323 99.5L64.0643 87.596H67.2803L70.3043 96.596L73.3283 87.596H76.5443L72.1523 99.5H68.4323ZM84.1079 99.788C82.9559 99.788 81.9159 99.524 80.9879 98.996C80.0759 98.468 79.3479 97.74 78.8039 96.812C78.2759 95.868 78.0119 94.78 78.0119 93.548C78.0119 92.316 78.2839 91.236 78.8279 90.308C79.3719 89.364 80.0999 88.628 81.0119 88.1C81.9399 87.572 82.9799 87.308 84.1319 87.308C85.2679 87.308 86.2919 87.572 87.2039 88.1C88.1319 88.628 88.8599 89.364 89.3879 90.308C89.9319 91.236 90.2039 92.316 90.2039 93.548C90.2039 94.78 89.9319 95.868 89.3879 96.812C88.8599 97.74 88.1319 98.468 87.2039 98.996C86.2759 99.524 85.2439 99.788 84.1079 99.788ZM84.1079 97.124C84.9079 97.124 85.6039 96.828 86.1959 96.236C86.7879 95.628 87.0839 94.732 87.0839 93.548C87.0839 92.364 86.7879 91.476 86.1959 90.884C85.6039 90.276 84.9159 89.972 84.1319 89.972C83.3159 89.972 82.6119 90.276 82.0199 90.884C81.4439 91.476 81.1559 92.364 81.1559 93.548C81.1559 94.732 81.4439 95.628 82.0199 96.236C82.6119 96.828 83.3079 97.124 84.1079 97.124ZM93.4506 99.5V87.596H96.1866L96.4746 89.828C96.9066 89.06 97.4906 88.452 98.2266 88.004C98.9786 87.54 99.8586 87.308 100.867 87.308V90.548H100.003C99.3306 90.548 98.7306 90.652 98.2026 90.86C97.6746 91.068 97.2586 91.428 96.9546 91.94C96.6666 92.452 96.5226 93.164 96.5226 94.076V99.5H93.4506ZM105.122 85.748C104.562 85.748 104.098 85.58 103.73 85.244C103.378 84.908 103.202 84.484 103.202 83.972C103.202 83.46 103.378 83.044 103.73 82.724C104.098 82.388 104.562 82.22 105.122 82.22C105.682 82.22 106.138 82.388 106.49 82.724C106.858 83.044 107.042 83.46 107.042 83.972C107.042 84.484 106.858 84.908 106.49 85.244C106.138 85.58 105.682 85.748 105.122 85.748ZM103.586 99.5V87.596H106.658V99.5H103.586ZM115.669 99.5C114.421 99.5 113.421 99.196 112.669 98.588C111.917 97.98 111.541 96.9 111.541 95.348V90.164H109.501V87.596H111.541L111.901 84.404H114.613V87.596H117.829V90.164H114.613V95.372C114.613 95.948 114.733 96.348 114.973 96.572C115.229 96.78 115.661 96.884 116.269 96.884H117.757V99.5H115.669ZM126.446 99.788C125.246 99.788 124.182 99.532 123.254 99.02C122.326 98.508 121.598 97.788 121.07 96.86C120.542 95.932 120.278 94.86 120.278 93.644C120.278 92.412 120.534 91.316 121.046 90.356C121.574 89.396 122.294 88.652 123.206 88.124C124.134 87.58 125.222 87.308 126.47 87.308C127.638 87.308 128.67 87.564 129.566 88.076C130.462 88.588 131.158 89.292 131.654 90.188C132.166 91.068 132.422 92.052 132.422 93.14C132.422 93.316 132.414 93.5 132.398 93.692C132.398 93.884 132.39 94.084 132.374 94.292H123.326C123.39 95.22 123.71 95.948 124.286 96.476C124.878 97.004 125.59 97.268 126.422 97.268C127.046 97.268 127.566 97.132 127.982 96.86C128.414 96.572 128.734 96.204 128.942 95.756H132.062C131.838 96.508 131.462 97.196 130.934 97.82C130.422 98.428 129.782 98.908 129.014 99.26C128.262 99.612 127.406 99.788 126.446 99.788ZM126.47 89.804C125.718 89.804 125.054 90.02 124.478 90.452C123.902 90.868 123.534 91.508 123.374 92.372H129.302C129.254 91.588 128.966 90.964 128.438 90.5C127.91 90.036 127.254 89.804 126.47 89.804ZM146.644 99.788C145.588 99.788 144.66 99.62 143.86 99.284C143.06 98.932 142.42 98.452 141.94 97.844C141.46 97.236 141.172 96.532 141.076 95.732H144.172C144.268 96.196 144.524 96.596 144.94 96.932C145.372 97.252 145.924 97.412 146.596 97.412C147.268 97.412 147.756 97.276 148.06 97.004C148.38 96.732 148.54 96.42 148.54 96.068C148.54 95.556 148.316 95.212 147.868 95.036C147.42 94.844 146.796 94.66 145.996 94.484C145.484 94.372 144.964 94.236 144.436 94.076C143.908 93.916 143.42 93.716 142.972 93.476C142.54 93.22 142.188 92.9 141.916 92.516C141.644 92.116 141.508 91.628 141.508 91.052C141.508 89.996 141.924 89.108 142.756 88.388C143.604 87.668 144.788 87.308 146.308 87.308C147.716 87.308 148.836 87.636 149.668 88.292C150.516 88.948 151.02 89.852 151.18 91.004H148.276C148.1 90.124 147.436 89.684 146.284 89.684C145.708 89.684 145.26 89.796 144.94 90.02C144.636 90.244 144.484 90.524 144.484 90.86C144.484 91.212 144.716 91.492 145.18 91.7C145.644 91.908 146.26 92.1 147.028 92.276C147.86 92.468 148.62 92.684 149.308 92.924C150.012 93.148 150.572 93.492 150.988 93.956C151.404 94.404 151.612 95.052 151.612 95.9C151.628 96.636 151.436 97.3 151.036 97.892C150.636 98.484 150.06 98.948 149.308 99.284C148.556 99.62 147.668 99.788 146.644 99.788ZM159.762 99.5C158.514 99.5 157.514 99.196 156.762 98.588C156.01 97.98 155.634 96.9 155.634 95.348V90.164H153.594V87.596H155.634L155.994 84.404H158.706V87.596H161.922V90.164H158.706V95.372C158.706 95.948 158.826 96.348 159.066 96.572C159.322 96.78 159.754 96.884 160.362 96.884H161.85V99.5H159.762ZM170.467 99.788C169.315 99.788 168.275 99.524 167.347 98.996C166.435 98.468 165.707 97.74 165.163 96.812C164.635 95.868 164.371 94.78 164.371 93.548C164.371 92.316 164.643 91.236 165.187 90.308C165.731 89.364 166.459 88.628 167.371 88.1C168.299 87.572 169.339 87.308 170.491 87.308C171.627 87.308 172.651 87.572 173.563 88.1C174.491 88.628 175.219 89.364 175.747 90.308C176.291 91.236 176.563 92.316 176.563 93.548C176.563 94.78 176.291 95.868 175.747 96.812C175.219 97.74 174.491 98.468 173.563 98.996C172.635 99.524 171.603 99.788 170.467 99.788ZM170.467 97.124C171.267 97.124 171.963 96.828 172.555 96.236C173.147 95.628 173.443 94.732 173.443 93.548C173.443 92.364 173.147 91.476 172.555 90.884C171.963 90.276 171.275 89.972 170.491 89.972C169.675 89.972 168.971 90.276 168.379 90.884C167.803 91.476 167.515 92.364 167.515 93.548C167.515 94.732 167.803 95.628 168.379 96.236C168.971 96.828 169.667 97.124 170.467 97.124ZM185.642 99.788C184.426 99.788 183.354 99.524 182.426 98.996C181.498 98.468 180.762 97.732 180.218 96.788C179.69 95.844 179.426 94.764 179.426 93.548C179.426 92.332 179.69 91.252 180.218 90.308C180.762 89.364 181.498 88.628 182.426 88.1C183.354 87.572 184.426 87.308 185.642 87.308C187.162 87.308 188.442 87.708 189.482 88.508C190.522 89.292 191.186 90.38 191.474 91.772H188.234C188.074 91.196 187.754 90.748 187.274 90.428C186.81 90.092 186.258 89.924 185.618 89.924C184.77 89.924 184.05 90.244 183.458 90.884C182.866 91.524 182.57 92.412 182.57 93.548C182.57 94.684 182.866 95.572 183.458 96.212C184.05 96.852 184.77 97.172 185.618 97.172C186.258 97.172 186.81 97.012 187.274 96.692C187.754 96.372 188.074 95.916 188.234 95.324H191.474C191.186 96.668 190.522 97.748 189.482 98.564C188.442 99.38 187.162 99.788 185.642 99.788ZM194.701 99.5V82.22H197.773V92.42L201.997 87.596H205.645L200.773 93.02L206.437 99.5H202.597L197.773 93.524V99.5H194.701ZM213.175 99.788C212.119 99.788 211.191 99.62 210.391 99.284C209.591 98.932 208.951 98.452 208.471 97.844C207.991 97.236 207.703 96.532 207.607 95.732H210.703C210.799 96.196 211.055 96.596 211.471 96.932C211.903 97.252 212.455 97.412 213.127 97.412C213.799 97.412 214.287 97.276 214.591 97.004C214.911 96.732 215.071 96.42 215.071 96.068C215.071 95.556 214.847 95.212 214.399 95.036C213.951 94.844 213.327 94.66 212.527 94.484C212.015 94.372 211.495 94.236 210.967 94.076C210.439 93.916 209.951 93.716 209.503 93.476C209.071 93.22 208.719 92.9 208.447 92.516C208.175 92.116 208.039 91.628 208.039 91.052C208.039 89.996 208.455 89.108 209.287 88.388C210.135 87.668 211.319 87.308 212.839 87.308C214.247 87.308 215.367 87.636 216.199 88.292C217.047 88.948 217.551 89.852 217.711 91.004H214.807C214.631 90.124 213.967 89.684 212.815 89.684C212.239 89.684 211.791 89.796 211.471 90.02C211.167 90.244 211.015 90.524 211.015 90.86C211.015 91.212 211.247 91.492 211.711 91.7C212.175 91.908 212.791 92.1 213.559 92.276C214.391 92.468 215.151 92.684 215.839 92.924C216.543 93.148 217.103 93.492 217.519 93.956C217.935 94.404 218.143 95.052 218.143 95.9C218.159 96.636 217.967 97.3 217.567 97.892C217.167 98.484 216.591 98.948 215.839 99.284C215.087 99.62 214.199 99.788 213.175 99.788Z" fill="#242947"/>
<g filter="url(#filter0_d_2714_76093)">
<rect x="41" y="177" width="512" height="41" rx="10" fill="white"/>
<path d="M89.228 202.168C88.5093 202.168 87.8793 202.042 87.338 201.79C86.7967 201.538 86.372 201.179 86.064 200.712C85.7653 200.245 85.6113 199.69 85.602 199.046H87.17C87.1793 199.569 87.3613 200.012 87.716 200.376C88.0707 200.74 88.57 200.922 89.214 200.922C89.7833 200.922 90.2267 200.787 90.544 200.516C90.8707 200.236 91.034 199.881 91.034 199.452C91.034 199.107 90.9547 198.827 90.796 198.612C90.6467 198.397 90.4367 198.22 90.166 198.08C89.9047 197.94 89.6013 197.814 89.256 197.702C88.9107 197.59 88.5467 197.469 88.164 197.338C87.408 197.086 86.8387 196.759 86.456 196.358C86.0827 195.957 85.896 195.429 85.896 194.776C85.8867 194.225 86.0127 193.745 86.274 193.334C86.5447 192.923 86.918 192.606 87.394 192.382C87.8793 192.149 88.444 192.032 89.088 192.032C89.7227 192.032 90.278 192.149 90.754 192.382C91.2393 192.615 91.6173 192.942 91.888 193.362C92.1587 193.773 92.2987 194.253 92.308 194.804H90.74C90.74 194.552 90.6747 194.314 90.544 194.09C90.4133 193.857 90.222 193.665 89.97 193.516C89.718 193.367 89.41 193.292 89.046 193.292C88.5793 193.283 88.192 193.399 87.884 193.642C87.5853 193.885 87.436 194.221 87.436 194.65C87.436 195.033 87.548 195.327 87.772 195.532C87.996 195.737 88.304 195.91 88.696 196.05C89.088 196.181 89.536 196.335 90.04 196.512C90.5253 196.671 90.9593 196.862 91.342 197.086C91.7247 197.31 92.028 197.604 92.252 197.968C92.4853 198.332 92.602 198.794 92.602 199.354C92.602 199.849 92.476 200.311 92.224 200.74C91.972 201.16 91.594 201.505 91.09 201.776C90.586 202.037 89.9653 202.168 89.228 202.168ZM97.0805 202C96.3991 202 95.8578 201.837 95.4565 201.51C95.0551 201.174 94.8545 200.581 94.8545 199.732V196.302H93.6645V195.056H94.8545L95.0365 193.292H96.3385V195.056H98.2985V196.302H96.3385V199.732C96.3385 200.115 96.4178 200.381 96.5765 200.53C96.7445 200.67 97.0291 200.74 97.4305 200.74H98.2285V202H97.0805ZM102.899 202.168C102.236 202.168 101.639 202.019 101.107 201.72C100.584 201.412 100.169 200.987 99.8609 200.446C99.5529 199.895 99.3989 199.256 99.3989 198.528C99.3989 197.8 99.5529 197.165 99.8609 196.624C100.178 196.073 100.603 195.649 101.135 195.35C101.667 195.042 102.26 194.888 102.913 194.888C103.576 194.888 104.168 195.042 104.691 195.35C105.223 195.649 105.643 196.073 105.951 196.624C106.268 197.165 106.427 197.8 106.427 198.528C106.427 199.256 106.268 199.895 105.951 200.446C105.643 200.987 105.223 201.412 104.691 201.72C104.159 202.019 103.562 202.168 102.899 202.168ZM102.899 200.894C103.254 200.894 103.58 200.805 103.879 200.628C104.187 200.451 104.434 200.189 104.621 199.844C104.808 199.489 104.901 199.051 104.901 198.528C104.901 198.005 104.808 197.571 104.621 197.226C104.444 196.871 104.201 196.605 103.893 196.428C103.594 196.251 103.268 196.162 102.913 196.162C102.558 196.162 102.227 196.251 101.919 196.428C101.62 196.605 101.378 196.871 101.191 197.226C101.004 197.571 100.911 198.005 100.911 198.528C100.911 199.051 101.004 199.489 101.191 199.844C101.378 200.189 101.62 200.451 101.919 200.628C102.218 200.805 102.544 200.894 102.899 200.894ZM111.322 202.168C110.64 202.168 110.029 202.014 109.488 201.706C108.956 201.398 108.536 200.973 108.228 200.432C107.929 199.881 107.78 199.247 107.78 198.528C107.78 197.809 107.929 197.179 108.228 196.638C108.536 196.087 108.956 195.658 109.488 195.35C110.029 195.042 110.64 194.888 111.322 194.888C112.18 194.888 112.899 195.112 113.478 195.56C114.066 196.008 114.444 196.615 114.612 197.38H113.058C112.964 196.997 112.759 196.699 112.442 196.484C112.124 196.269 111.751 196.162 111.322 196.162C110.958 196.162 110.622 196.255 110.314 196.442C110.006 196.619 109.758 196.885 109.572 197.24C109.385 197.585 109.292 198.015 109.292 198.528C109.292 199.041 109.385 199.475 109.572 199.83C109.758 200.175 110.006 200.441 110.314 200.628C110.622 200.815 110.958 200.908 111.322 200.908C111.751 200.908 112.124 200.801 112.442 200.586C112.759 200.371 112.964 200.068 113.058 199.676H114.612C114.453 200.423 114.08 201.025 113.492 201.482C112.904 201.939 112.18 202.168 111.322 202.168ZM116.221 202V191.92H117.705V197.926L120.365 195.056H122.143L119.189 198.206L122.577 202H120.701L117.705 198.444V202H116.221ZM126.13 202.168C125.253 202.168 124.529 201.953 123.96 201.524C123.391 201.095 123.064 200.525 122.98 199.816H124.478C124.553 200.133 124.73 200.409 125.01 200.642C125.29 200.866 125.659 200.978 126.116 200.978C126.564 200.978 126.891 200.885 127.096 200.698C127.301 200.511 127.404 200.297 127.404 200.054C127.404 199.699 127.259 199.461 126.97 199.34C126.69 199.209 126.298 199.093 125.794 198.99C125.402 198.906 125.01 198.794 124.618 198.654C124.235 198.514 123.913 198.318 123.652 198.066C123.4 197.805 123.274 197.455 123.274 197.016C123.274 196.409 123.507 195.905 123.974 195.504C124.441 195.093 125.094 194.888 125.934 194.888C126.709 194.888 127.334 195.075 127.81 195.448C128.295 195.821 128.58 196.349 128.664 197.03H127.236C127.189 196.731 127.049 196.498 126.816 196.33C126.592 196.162 126.289 196.078 125.906 196.078C125.533 196.078 125.243 196.157 125.038 196.316C124.833 196.465 124.73 196.661 124.73 196.904C124.73 197.147 124.87 197.338 125.15 197.478C125.439 197.618 125.817 197.744 126.284 197.856C126.751 197.959 127.18 198.08 127.572 198.22C127.973 198.351 128.295 198.547 128.538 198.808C128.781 199.069 128.902 199.452 128.902 199.956C128.911 200.591 128.664 201.118 128.16 201.538C127.665 201.958 126.989 202.168 126.13 202.168Z" fill="#2A353D"/>
<path d="M273.994 202V192.2H277.69C278.707 192.2 279.477 192.438 280 192.914C280.523 193.39 280.784 193.987 280.784 194.706C280.784 195.331 280.616 195.831 280.28 196.204C279.944 196.568 279.538 196.815 279.062 196.946C279.435 197.021 279.767 197.17 280.056 197.394C280.355 197.618 280.588 197.898 280.756 198.234C280.924 198.57 281.008 198.934 281.008 199.326C281.008 199.83 280.882 200.287 280.63 200.698C280.387 201.099 280.028 201.417 279.552 201.65C279.076 201.883 278.493 202 277.802 202H273.994ZM275.478 196.4H277.508C278.077 196.4 278.511 196.269 278.81 196.008C279.109 195.737 279.258 195.369 279.258 194.902C279.258 194.445 279.109 194.081 278.81 193.81C278.521 193.539 278.077 193.404 277.48 193.404H275.478V196.4ZM275.478 200.782H277.606C278.203 200.782 278.665 200.642 278.992 200.362C279.328 200.082 279.496 199.69 279.496 199.186C279.496 198.682 279.323 198.285 278.978 197.996C278.633 197.697 278.166 197.548 277.578 197.548H275.478V200.782ZM286.303 202.168C285.603 202.168 284.968 202.033 284.399 201.762C283.839 201.482 283.391 201.057 283.055 200.488C282.728 199.919 282.565 199.195 282.565 198.318V192.2H284.049V198.332C284.049 199.191 284.254 199.821 284.665 200.222C285.075 200.623 285.631 200.824 286.331 200.824C287.021 200.824 287.572 200.623 287.983 200.222C288.393 199.821 288.599 199.191 288.599 198.332V192.2H290.083V198.318C290.083 199.195 289.91 199.919 289.565 200.488C289.229 201.057 288.771 201.482 288.193 201.762C287.623 202.033 286.993 202.168 286.303 202.168ZM294.478 202V198.388L291.23 192.2H292.91L295.22 196.932L297.516 192.2H299.182L295.962 198.388V202H294.478ZM298.876 203.442L302.376 191.206H303.832L300.318 203.442H298.876ZM308.427 202.168C307.709 202.168 307.079 202.042 306.537 201.79C305.996 201.538 305.571 201.179 305.263 200.712C304.965 200.245 304.811 199.69 304.801 199.046H306.369C306.379 199.569 306.561 200.012 306.915 200.376C307.27 200.74 307.769 200.922 308.413 200.922C308.983 200.922 309.426 200.787 309.743 200.516C310.07 200.236 310.233 199.881 310.233 199.452C310.233 199.107 310.154 198.827 309.995 198.612C309.846 198.397 309.636 198.22 309.365 198.08C309.104 197.94 308.801 197.814 308.455 197.702C308.11 197.59 307.746 197.469 307.363 197.338C306.607 197.086 306.038 196.759 305.655 196.358C305.282 195.957 305.095 195.429 305.095 194.776C305.086 194.225 305.212 193.745 305.473 193.334C305.744 192.923 306.117 192.606 306.593 192.382C307.079 192.149 307.643 192.032 308.287 192.032C308.922 192.032 309.477 192.149 309.953 192.382C310.439 192.615 310.817 192.942 311.087 193.362C311.358 193.773 311.498 194.253 311.507 194.804H309.939C309.939 194.552 309.874 194.314 309.743 194.09C309.613 193.857 309.421 193.665 309.169 193.516C308.917 193.367 308.609 193.292 308.245 193.292C307.779 193.283 307.391 193.399 307.083 193.642C306.785 193.885 306.635 194.221 306.635 194.65C306.635 195.033 306.747 195.327 306.971 195.532C307.195 195.737 307.503 195.91 307.895 196.05C308.287 196.181 308.735 196.335 309.239 196.512C309.725 196.671 310.159 196.862 310.541 197.086C310.924 197.31 311.227 197.604 311.451 197.968C311.685 198.332 311.801 198.794 311.801 199.354C311.801 199.849 311.675 200.311 311.423 200.74C311.171 201.16 310.793 201.505 310.289 201.776C309.785 202.037 309.165 202.168 308.427 202.168ZM313.424 202V192.2H319.654V193.404H314.908V196.456H319.234V197.632H314.908V200.796H319.654V202H313.424ZM321.422 202V192.2H322.906V200.824H327.358V202H321.422ZM328.955 202V192.2H330.439V200.824H334.891V202H328.955Z" fill="#2A353D"/>
<path d="M461.29 202V193.404H458.392V192.2H465.658V193.404H462.774V202H461.29ZM466.991 202V191.92H468.475V196.176C468.708 195.775 469.03 195.462 469.441 195.238C469.861 195.005 470.323 194.888 470.827 194.888C471.657 194.888 472.311 195.149 472.787 195.672C473.263 196.195 473.501 196.974 473.501 198.01V202H472.031V198.164C472.031 196.82 471.494 196.148 470.421 196.148C469.861 196.148 469.394 196.344 469.021 196.736C468.657 197.128 468.475 197.688 468.475 198.416V202H466.991ZM475.249 202V195.056H476.579L476.705 196.372C476.947 195.915 477.283 195.555 477.713 195.294C478.151 195.023 478.679 194.888 479.295 194.888V196.442H478.889C478.478 196.442 478.109 196.512 477.783 196.652C477.465 196.783 477.209 197.011 477.013 197.338C476.826 197.655 476.733 198.099 476.733 198.668V202H475.249ZM483.624 202.168C482.942 202.168 482.336 202.019 481.804 201.72C481.281 201.412 480.87 200.987 480.572 200.446C480.273 199.905 480.124 199.275 480.124 198.556C480.124 197.828 480.268 197.189 480.558 196.638C480.856 196.087 481.267 195.658 481.79 195.35C482.322 195.042 482.938 194.888 483.638 194.888C484.319 194.888 484.912 195.042 485.416 195.35C485.92 195.649 486.312 196.05 486.592 196.554C486.872 197.058 487.012 197.613 487.012 198.22C487.012 198.313 487.007 198.416 486.998 198.528C486.998 198.631 486.993 198.747 486.984 198.878H481.58C481.626 199.55 481.846 200.063 482.238 200.418C482.639 200.763 483.101 200.936 483.624 200.936C484.044 200.936 484.394 200.843 484.674 200.656C484.963 200.46 485.178 200.199 485.318 199.872H486.802C486.615 200.525 486.242 201.071 485.682 201.51C485.131 201.949 484.445 202.168 483.624 202.168ZM483.624 196.106C483.129 196.106 482.69 196.255 482.308 196.554C481.925 196.843 481.692 197.282 481.608 197.87H485.528C485.5 197.329 485.308 196.899 484.954 196.582C484.599 196.265 484.156 196.106 483.624 196.106ZM491.323 202.168C490.446 202.168 489.723 201.953 489.153 201.524C488.584 201.095 488.257 200.525 488.173 199.816H489.671C489.746 200.133 489.923 200.409 490.203 200.642C490.483 200.866 490.852 200.978 491.309 200.978C491.757 200.978 492.084 200.885 492.289 200.698C492.495 200.511 492.597 200.297 492.597 200.054C492.597 199.699 492.453 199.461 492.163 199.34C491.883 199.209 491.491 199.093 490.987 198.99C490.595 198.906 490.203 198.794 489.811 198.654C489.429 198.514 489.107 198.318 488.845 198.066C488.593 197.805 488.467 197.455 488.467 197.016C488.467 196.409 488.701 195.905 489.167 195.504C489.634 195.093 490.287 194.888 491.127 194.888C491.902 194.888 492.527 195.075 493.003 195.448C493.489 195.821 493.773 196.349 493.857 197.03H492.429C492.383 196.731 492.243 196.498 492.009 196.33C491.785 196.162 491.482 196.078 491.099 196.078C490.726 196.078 490.437 196.157 490.231 196.316C490.026 196.465 489.923 196.661 489.923 196.904C489.923 197.147 490.063 197.338 490.343 197.478C490.633 197.618 491.011 197.744 491.477 197.856C491.944 197.959 492.373 198.08 492.765 198.22C493.167 198.351 493.489 198.547 493.731 198.808C493.974 199.069 494.095 199.452 494.095 199.956C494.105 200.591 493.857 201.118 493.353 201.538C492.859 201.958 492.182 202.168 491.323 202.168ZM495.715 202V191.92H497.199V196.176C497.433 195.775 497.755 195.462 498.165 195.238C498.585 195.005 499.047 194.888 499.551 194.888C500.382 194.888 501.035 195.149 501.511 195.672C501.987 196.195 502.225 196.974 502.225 198.01V202H500.755V198.164C500.755 196.82 500.219 196.148 499.145 196.148C498.585 196.148 498.119 196.344 497.745 196.736C497.381 197.128 497.199 197.688 497.199 198.416V202H495.715ZM507.221 202.168C506.558 202.168 505.961 202.019 505.429 201.72C504.906 201.412 504.491 200.987 504.183 200.446C503.875 199.895 503.721 199.256 503.721 198.528C503.721 197.8 503.875 197.165 504.183 196.624C504.5 196.073 504.925 195.649 505.457 195.35C505.989 195.042 506.582 194.888 507.235 194.888C507.898 194.888 508.49 195.042 509.013 195.35C509.545 195.649 509.965 196.073 510.273 196.624C510.59 197.165 510.749 197.8 510.749 198.528C510.749 199.256 510.59 199.895 510.273 200.446C509.965 200.987 509.545 201.412 509.013 201.72C508.481 202.019 507.884 202.168 507.221 202.168ZM507.221 200.894C507.576 200.894 507.902 200.805 508.201 200.628C508.509 200.451 508.756 200.189 508.943 199.844C509.13 199.489 509.223 199.051 509.223 198.528C509.223 198.005 509.13 197.571 508.943 197.226C508.766 196.871 508.523 196.605 508.215 196.428C507.916 196.251 507.59 196.162 507.235 196.162C506.88 196.162 506.549 196.251 506.241 196.428C505.942 196.605 505.7 196.871 505.513 197.226C505.326 197.571 505.233 198.005 505.233 198.528C505.233 199.051 505.326 199.489 505.513 199.844C505.7 200.189 505.942 200.451 506.241 200.628C506.54 200.805 506.866 200.894 507.221 200.894ZM512.354 202V191.92H513.838V202H512.354ZM518.881 202.168C518.209 202.168 517.617 202.009 517.103 201.692C516.59 201.375 516.189 200.941 515.899 200.39C515.61 199.839 515.465 199.214 515.465 198.514C515.465 197.814 515.61 197.193 515.899 196.652C516.189 196.101 516.59 195.672 517.103 195.364C517.626 195.047 518.223 194.888 518.895 194.888C519.446 194.888 519.927 194.995 520.337 195.21C520.757 195.425 521.084 195.728 521.317 196.12V191.92H522.801V202H521.471L521.317 200.922C521.093 201.249 520.785 201.538 520.393 201.79C520.001 202.042 519.497 202.168 518.881 202.168ZM519.147 200.88C519.782 200.88 520.3 200.661 520.701 200.222C521.112 199.783 521.317 199.219 521.317 198.528C521.317 197.828 521.112 197.263 520.701 196.834C520.3 196.395 519.782 196.176 519.147 196.176C518.513 196.176 517.99 196.395 517.579 196.834C517.169 197.263 516.963 197.828 516.963 198.528C516.963 198.985 517.057 199.391 517.243 199.746C517.43 200.101 517.687 200.381 518.013 200.586C518.349 200.782 518.727 200.88 519.147 200.88Z" fill="#2A353D"/>
</g>
<g filter="url(#filter1_d_2714_76093)">
<rect x="42" y="224" width="511" height="84.6667" rx="10" fill="white"/>
<g filter="url(#filter2_d_2714_76093)">
<rect x="72" y="247" width="81.0667" height="38.6667" rx="10.1333" fill="#1A66E4"/>
<path d="M91.5398 272.333H89.4743L94.1154 259.436H96.3636L101.005 272.333H98.9392L95.293 261.779H95.1923L91.5398 272.333ZM91.8861 267.283H98.5865V268.92H91.8861V267.283ZM103.957 272.333H101.891L106.532 259.436H108.78L113.422 272.333H111.356L107.71 261.779H107.609L103.957 272.333ZM104.303 267.283H111.003V268.92H104.303V267.283ZM115.284 272.333V259.436H119.881C120.884 259.436 121.716 259.619 122.375 259.984C123.034 260.349 123.527 260.849 123.855 261.483C124.182 262.112 124.346 262.822 124.346 263.611C124.346 264.405 124.18 265.118 123.848 265.752C123.521 266.382 123.025 266.882 122.362 267.251C121.703 267.616 120.874 267.799 119.875 267.799H116.713V266.149H119.698C120.332 266.149 120.847 266.04 121.241 265.822C121.636 265.599 121.926 265.297 122.11 264.915C122.295 264.533 122.387 264.098 122.387 263.611C122.387 263.124 122.295 262.692 122.11 262.314C121.926 261.936 121.634 261.64 121.235 261.426C120.84 261.212 120.32 261.105 119.673 261.105H117.23V272.333H115.284ZM126.627 272.333V259.436H128.573V270.658H134.417V272.333H126.627Z" fill="white"/>
</g>
<rect x="285.9" y="250.042" width="52.1333" height="32.5833" rx="16.2917" fill="#3EB850"/>
<rect x="308.708" y="253.301" width="26.0667" height="26.0667" rx="13.0333" fill="white"/>
<rect x="470.867" y="250.042" width="52.1333" height="32.5833" rx="16.2917" fill="#C1C4D6"/>
<rect x="474.125" y="253.301" width="26.0667" height="26.0667" rx="13.0333" fill="white"/>
</g>
<mask id="path-14-inside-1_2714_76093" fill="white">
<path d="M359 335C359 329.477 363.477 325 369 325H543C548.523 325 553 329.477 553 335V362C553 367.523 548.523 372 543 372H369C363.477 372 359 367.523 359 362V335Z"/>
</mask>
<path d="M359 335C359 329.477 363.477 325 369 325H543C548.523 325 553 329.477 553 335V362C553 367.523 548.523 372 543 372H369C363.477 372 359 367.523 359 362V335Z" fill="white"/>
<path d="M387.662 353.168C386.962 353.168 386.327 353.033 385.758 352.762C385.198 352.482 384.75 352.057 384.414 351.488C384.087 350.919 383.924 350.195 383.924 349.318V343.2H385.408V349.332C385.408 350.191 385.613 350.821 386.024 351.222C386.435 351.623 386.99 351.824 387.69 351.824C388.381 351.824 388.931 351.623 389.342 351.222C389.753 350.821 389.958 350.191 389.958 349.332V343.2H391.442V349.318C391.442 350.195 391.269 350.919 390.924 351.488C390.588 352.057 390.131 352.482 389.552 352.762C388.983 353.033 388.353 353.168 387.662 353.168ZM393.29 356.08V346.056H394.62L394.774 347.134C394.998 346.807 395.306 346.518 395.698 346.266C396.09 346.014 396.594 345.888 397.21 345.888C397.882 345.888 398.474 346.047 398.988 346.364C399.501 346.681 399.902 347.115 400.192 347.666C400.49 348.217 400.64 348.842 400.64 349.542C400.64 350.242 400.49 350.867 400.192 351.418C399.902 351.959 399.501 352.389 398.988 352.706C398.474 353.014 397.877 353.168 397.196 353.168C396.654 353.168 396.174 353.061 395.754 352.846C395.343 352.631 395.016 352.328 394.774 351.936V356.08H393.29ZM396.944 351.88C397.578 351.88 398.101 351.665 398.512 351.236C398.922 350.797 399.128 350.228 399.128 349.528C399.128 349.071 399.034 348.665 398.848 348.31C398.661 347.955 398.404 347.68 398.078 347.484C397.751 347.279 397.373 347.176 396.944 347.176C396.309 347.176 395.786 347.395 395.376 347.834C394.974 348.273 394.774 348.837 394.774 349.528C394.774 350.228 394.974 350.797 395.376 351.236C395.786 351.665 396.309 351.88 396.944 351.88ZM402.245 356.08V346.056H403.575L403.729 347.134C403.953 346.807 404.261 346.518 404.653 346.266C405.045 346.014 405.549 345.888 406.165 345.888C406.837 345.888 407.429 346.047 407.943 346.364C408.456 346.681 408.857 347.115 409.147 347.666C409.445 348.217 409.595 348.842 409.595 349.542C409.595 350.242 409.445 350.867 409.147 351.418C408.857 351.959 408.456 352.389 407.943 352.706C407.429 353.014 406.832 353.168 406.151 353.168C405.609 353.168 405.129 353.061 404.709 352.846C404.298 352.631 403.971 352.328 403.729 351.936V356.08H402.245ZM405.899 351.88C406.533 351.88 407.056 351.665 407.467 351.236C407.877 350.797 408.083 350.228 408.083 349.528C408.083 349.071 407.989 348.665 407.803 348.31C407.616 347.955 407.359 347.68 407.033 347.484C406.706 347.279 406.328 347.176 405.899 347.176C405.264 347.176 404.741 347.395 404.331 347.834C403.929 348.273 403.729 348.837 403.729 349.528C403.729 350.228 403.929 350.797 404.331 351.236C404.741 351.665 405.264 351.88 405.899 351.88ZM414.448 353.168C413.766 353.168 413.16 353.019 412.628 352.72C412.105 352.412 411.694 351.987 411.396 351.446C411.097 350.905 410.948 350.275 410.948 349.556C410.948 348.828 411.092 348.189 411.382 347.638C411.68 347.087 412.091 346.658 412.614 346.35C413.146 346.042 413.762 345.888 414.462 345.888C415.143 345.888 415.736 346.042 416.24 346.35C416.744 346.649 417.136 347.05 417.416 347.554C417.696 348.058 417.836 348.613 417.836 349.22C417.836 349.313 417.831 349.416 417.822 349.528C417.822 349.631 417.817 349.747 417.808 349.878H412.404C412.45 350.55 412.67 351.063 413.062 351.418C413.463 351.763 413.925 351.936 414.448 351.936C414.868 351.936 415.218 351.843 415.498 351.656C415.787 351.46 416.002 351.199 416.142 350.872H417.626C417.439 351.525 417.066 352.071 416.506 352.51C415.955 352.949 415.269 353.168 414.448 353.168ZM414.448 347.106C413.953 347.106 413.514 347.255 413.132 347.554C412.749 347.843 412.516 348.282 412.432 348.87H416.352C416.324 348.329 416.132 347.899 415.778 347.582C415.423 347.265 414.98 347.106 414.448 347.106ZM419.376 353V346.056H420.706L420.832 347.372C421.074 346.915 421.41 346.555 421.84 346.294C422.278 346.023 422.806 345.888 423.422 345.888V347.442H423.016C422.605 347.442 422.236 347.512 421.91 347.652C421.592 347.783 421.336 348.011 421.14 348.338C420.953 348.655 420.86 349.099 420.86 349.668V353H419.376Z" fill="#2A353D"/>
<path d="M493.882 353.5V352.674C494.545 352.151 495.17 351.624 495.758 351.092C496.355 350.551 496.883 350.019 497.34 349.496C497.807 348.973 498.171 348.46 498.432 347.956C498.703 347.452 498.838 346.967 498.838 346.5C498.838 346.155 498.777 345.833 498.656 345.534C498.544 345.235 498.357 344.997 498.096 344.82C497.835 344.633 497.48 344.54 497.032 344.54C496.603 344.54 496.243 344.638 495.954 344.834C495.665 345.021 495.445 345.273 495.296 345.59C495.156 345.907 495.086 346.248 495.086 346.612H493.952C493.952 345.968 494.087 345.417 494.358 344.96C494.629 344.493 494.997 344.139 495.464 343.896C495.931 343.653 496.458 343.532 497.046 343.532C497.914 343.532 498.623 343.779 499.174 344.274C499.734 344.759 500.014 345.487 500.014 346.458C500.014 347.037 499.869 347.611 499.58 348.18C499.291 348.74 498.922 349.286 498.474 349.818C498.026 350.341 497.545 350.831 497.032 351.288C496.528 351.745 496.057 352.156 495.618 352.52H500.35V353.5H493.882ZM503.812 348.25C503.392 348.25 503.009 348.157 502.664 347.97C502.328 347.774 502.062 347.503 501.866 347.158C501.67 346.803 501.572 346.383 501.572 345.898C501.572 345.413 501.67 344.997 501.866 344.652C502.071 344.297 502.342 344.027 502.678 343.84C503.023 343.644 503.406 343.546 503.826 343.546C504.246 343.546 504.624 343.644 504.96 343.84C505.296 344.027 505.562 344.297 505.758 344.652C505.954 344.997 506.052 345.413 506.052 345.898C506.052 346.383 505.949 346.803 505.744 347.158C505.548 347.503 505.282 347.774 504.946 347.97C504.61 348.157 504.232 348.25 503.812 348.25ZM502.944 353.5L508.642 343.7H509.818L504.12 353.5H502.944ZM503.812 347.34C504.138 347.34 504.423 347.219 504.666 346.976C504.918 346.733 505.044 346.374 505.044 345.898C505.044 345.413 504.922 345.049 504.68 344.806C504.437 344.554 504.152 344.428 503.826 344.428C503.499 344.428 503.205 344.554 502.944 344.806C502.692 345.049 502.566 345.413 502.566 345.898C502.566 346.374 502.692 346.733 502.944 346.976C503.196 347.219 503.485 347.34 503.812 347.34ZM509.048 353.668C508.628 353.668 508.245 353.575 507.9 353.388C507.564 353.192 507.298 352.921 507.102 352.576C506.906 352.221 506.808 351.801 506.808 351.316C506.808 350.831 506.906 350.415 507.102 350.07C507.307 349.715 507.578 349.445 507.914 349.258C508.25 349.062 508.628 348.964 509.048 348.964C509.468 348.964 509.846 349.062 510.182 349.258C510.518 349.445 510.784 349.715 510.98 350.07C511.176 350.415 511.274 350.831 511.274 351.316C511.274 351.801 511.176 352.221 510.98 352.576C510.784 352.921 510.518 353.192 510.182 353.388C509.846 353.575 509.468 353.668 509.048 353.668ZM509.034 352.758C509.37 352.758 509.659 352.637 509.902 352.394C510.154 352.151 510.28 351.792 510.28 351.316C510.28 350.831 510.158 350.467 509.916 350.224C509.673 349.981 509.384 349.86 509.048 349.86C508.721 349.86 508.432 349.981 508.18 350.224C507.928 350.467 507.802 350.831 507.802 351.316C507.802 351.792 507.923 352.151 508.166 352.394C508.418 352.637 508.707 352.758 509.034 352.758Z" fill="#777E87"/>
<path d="M527.037 344.443C527.409 344.039 527.596 343.837 527.794 343.719C528.271 343.435 528.86 343.427 529.345 343.696C529.546 343.808 529.738 344.004 530.123 344.396C530.507 344.789 530.699 344.985 530.808 345.19C531.072 345.687 531.063 346.287 530.785 346.775C530.67 346.978 530.472 347.168 530.077 347.549L525.375 352.077C524.626 352.798 524.252 353.159 523.784 353.342C523.316 353.525 522.802 353.511 521.773 353.484L521.633 353.481C521.319 353.472 521.163 353.468 521.072 353.365C520.981 353.262 520.993 353.102 521.018 352.783L521.032 352.61C521.102 351.712 521.136 351.263 521.312 350.859C521.487 350.455 521.79 350.128 522.395 349.472L527.037 344.443Z" fill="#D0E2FF" stroke="#2A353D" stroke-width="0.75" stroke-linejoin="round"/>
<path d="M526.5 344.5L530 348" stroke="#2A353D" stroke-width="0.75" stroke-linejoin="round"/>
<path d="M358 335C358 328.925 362.925 324 369 324H543C549.075 324 554 328.925 554 335H552C552 330.029 547.971 326 543 326H369C364.029 326 360 330.029 360 335H358ZM554 362C554 368.075 549.075 373 543 373H369C362.925 373 358 368.075 358 362H360C360 366.971 364.029 371 369 371H543C547.971 371 552 366.971 552 362H554ZM369 373C362.925 373 358 368.075 358 362V335C358 328.925 362.925 324 369 324V326C364.029 326 360 330.029 360 335V362C360 366.971 364.029 371 369 371V373ZM543 324C549.075 324 554 328.925 554 335V362C554 368.075 549.075 373 543 373V371C547.971 371 552 366.971 552 362V335C552 330.029 547.971 326 543 326V324Z" fill="#4285F4" mask="url(#path-14-inside-1_2714_76093)"/>
<g filter="url(#filter3_d_2714_76093)">
<rect x="226" y="191" width="144" height="85" rx="8" fill="#242947" shape-rendering="crispEdges"/>
<path d="M309.179 216.745C311.877 218.303 311.877 222.197 309.179 223.755L295.446 231.684C292.748 233.242 289.375 231.294 289.375 228.178L289.375 212.322C289.375 209.206 292.748 207.258 295.446 208.816L309.179 216.745Z" fill="white"/>
<path d="M248.053 256.156C247.386 256.156 246.805 256.035 246.311 255.792C245.817 255.549 245.436 255.211 245.167 254.778C244.899 254.345 244.764 253.842 244.764 253.27H245.908C245.908 253.625 245.991 253.955 246.155 254.258C246.32 254.553 246.558 254.791 246.87 254.973C247.191 255.146 247.585 255.233 248.053 255.233C248.669 255.233 249.145 255.086 249.483 254.791C249.821 254.496 249.99 254.128 249.99 253.686C249.99 253.322 249.912 253.032 249.756 252.815C249.6 252.59 249.388 252.408 249.119 252.269C248.859 252.13 248.556 252.009 248.209 251.905C247.871 251.801 247.516 251.684 247.143 251.554C246.441 251.311 245.921 251.012 245.583 250.657C245.245 250.293 245.076 249.821 245.076 249.24C245.068 248.755 245.18 248.326 245.414 247.953C245.648 247.572 245.978 247.277 246.402 247.069C246.836 246.852 247.347 246.744 247.936 246.744C248.517 246.744 249.02 246.852 249.444 247.069C249.878 247.286 250.211 247.585 250.445 247.966C250.688 248.347 250.814 248.781 250.822 249.266H249.678C249.678 249.015 249.613 248.768 249.483 248.525C249.353 248.274 249.154 248.07 248.885 247.914C248.625 247.758 248.296 247.68 247.897 247.68C247.403 247.671 246.996 247.797 246.675 248.057C246.363 248.317 246.207 248.677 246.207 249.136C246.207 249.526 246.316 249.825 246.532 250.033C246.758 250.241 247.07 250.414 247.468 250.553C247.867 250.683 248.326 250.835 248.846 251.008C249.28 251.164 249.67 251.346 250.016 251.554C250.363 251.762 250.632 252.031 250.822 252.36C251.022 252.689 251.121 253.11 251.121 253.621C251.121 254.054 251.009 254.466 250.783 254.856C250.558 255.237 250.216 255.549 249.756 255.792C249.306 256.035 248.738 256.156 248.053 256.156ZM256.004 256.156C255.389 256.156 254.843 256.017 254.366 255.74C253.889 255.454 253.512 255.06 253.235 254.557C252.966 254.054 252.832 253.461 252.832 252.776C252.832 252.1 252.966 251.511 253.235 251.008C253.504 250.497 253.876 250.102 254.353 249.825C254.838 249.539 255.397 249.396 256.03 249.396C256.654 249.396 257.191 249.539 257.642 249.825C258.101 250.102 258.452 250.471 258.695 250.93C258.938 251.389 259.059 251.883 259.059 252.412C259.059 252.507 259.055 252.603 259.046 252.698C259.046 252.793 259.046 252.902 259.046 253.023H253.911C253.937 253.517 254.05 253.929 254.249 254.258C254.457 254.579 254.713 254.821 255.016 254.986C255.328 255.151 255.657 255.233 256.004 255.233C256.455 255.233 256.832 255.129 257.135 254.921C257.438 254.713 257.659 254.431 257.798 254.076H258.877C258.704 254.674 258.37 255.172 257.876 255.571C257.391 255.961 256.767 256.156 256.004 256.156ZM256.004 250.319C255.484 250.319 255.02 250.479 254.613 250.8C254.214 251.112 253.985 251.571 253.924 252.178H257.98C257.954 251.597 257.755 251.142 257.382 250.813C257.009 250.484 256.55 250.319 256.004 250.319ZM263.905 256.156C263.29 256.156 262.744 256.017 262.267 255.74C261.791 255.454 261.414 255.06 261.136 254.557C260.868 254.054 260.733 253.461 260.733 252.776C260.733 252.1 260.868 251.511 261.136 251.008C261.405 250.497 261.778 250.102 262.254 249.825C262.74 249.539 263.299 249.396 263.931 249.396C264.555 249.396 265.093 249.539 265.543 249.825C266.003 250.102 266.354 250.471 266.596 250.93C266.839 251.389 266.96 251.883 266.96 252.412C266.96 252.507 266.956 252.603 266.947 252.698C266.947 252.793 266.947 252.902 266.947 253.023H261.812C261.838 253.517 261.951 253.929 262.15 254.258C262.358 254.579 262.614 254.821 262.917 254.986C263.229 255.151 263.559 255.233 263.905 255.233C264.356 255.233 264.733 255.129 265.036 254.921C265.34 254.713 265.561 254.431 265.699 254.076H266.778C266.605 254.674 266.271 255.172 265.777 255.571C265.292 255.961 264.668 256.156 263.905 256.156ZM263.905 250.319C263.385 250.319 262.922 250.479 262.514 250.8C262.116 251.112 261.886 251.571 261.825 252.178H265.881C265.855 251.597 265.656 251.142 265.283 250.813C264.911 250.484 264.451 250.319 263.905 250.319ZM272.848 256V246.64H273.94V250.657C274.157 250.258 274.465 249.951 274.863 249.734C275.262 249.509 275.695 249.396 276.163 249.396C276.909 249.396 277.507 249.63 277.957 250.098C278.408 250.557 278.633 251.268 278.633 252.23V256H277.554V252.347C277.554 251.004 277.013 250.332 275.929 250.332C275.366 250.332 274.894 250.536 274.512 250.943C274.131 251.342 273.94 251.914 273.94 252.659V256H272.848ZM283.726 256.156C283.119 256.156 282.573 256.017 282.088 255.74C281.602 255.463 281.217 255.073 280.931 254.57C280.653 254.059 280.515 253.461 280.515 252.776C280.515 252.091 280.658 251.498 280.944 250.995C281.23 250.484 281.615 250.089 282.101 249.812C282.595 249.535 283.145 249.396 283.752 249.396C284.358 249.396 284.904 249.535 285.39 249.812C285.875 250.089 286.256 250.484 286.534 250.995C286.82 251.498 286.963 252.091 286.963 252.776C286.963 253.461 286.82 254.059 286.534 254.57C286.248 255.073 285.858 255.463 285.364 255.74C284.878 256.017 284.332 256.156 283.726 256.156ZM283.726 255.22C284.098 255.22 284.445 255.129 284.766 254.947C285.086 254.765 285.346 254.492 285.546 254.128C285.745 253.764 285.845 253.313 285.845 252.776C285.845 252.239 285.745 251.788 285.546 251.424C285.355 251.06 285.099 250.787 284.779 250.605C284.458 250.423 284.116 250.332 283.752 250.332C283.379 250.332 283.032 250.423 282.712 250.605C282.391 250.787 282.131 251.06 281.932 251.424C281.732 251.788 281.633 252.239 281.633 252.776C281.633 253.313 281.732 253.764 281.932 254.128C282.131 254.492 282.387 254.765 282.699 254.947C283.019 255.129 283.362 255.22 283.726 255.22ZM290.04 256L288.155 249.552H289.247L290.612 254.609L292.12 249.552H293.355L294.876 254.609L296.228 249.552H297.333L295.448 256H294.33L292.744 250.683L291.158 256H290.04ZM303.644 248.122C303.427 248.122 303.245 248.053 303.098 247.914C302.959 247.767 302.89 247.585 302.89 247.368C302.89 247.16 302.959 246.987 303.098 246.848C303.245 246.709 303.427 246.64 303.644 246.64C303.852 246.64 304.03 246.709 304.177 246.848C304.324 246.987 304.398 247.16 304.398 247.368C304.398 247.585 304.324 247.767 304.177 247.914C304.03 248.053 303.852 248.122 303.644 248.122ZM303.098 256V249.552H304.19V256H303.098ZM309.139 256C308.55 256 308.086 255.857 307.748 255.571C307.41 255.285 307.241 254.769 307.241 254.024V250.475H306.123V249.552H307.241L307.384 248.005H308.333V249.552H310.231V250.475H308.333V254.024C308.333 254.431 308.416 254.709 308.58 254.856C308.745 254.995 309.035 255.064 309.451 255.064H310.127V256H309.139ZM317.359 256L315.474 249.552H316.566L317.931 254.609L319.439 249.552H320.674L322.195 254.609L323.547 249.552H324.652L322.767 256H321.649L320.063 250.683L318.477 256H317.359ZM329.057 256.156C328.45 256.156 327.904 256.017 327.419 255.74C326.933 255.463 326.548 255.073 326.262 254.57C325.984 254.059 325.846 253.461 325.846 252.776C325.846 252.091 325.989 251.498 326.275 250.995C326.561 250.484 326.946 250.089 327.432 249.812C327.926 249.535 328.476 249.396 329.083 249.396C329.689 249.396 330.235 249.535 330.721 249.812C331.206 250.089 331.587 250.484 331.865 250.995C332.151 251.498 332.294 252.091 332.294 252.776C332.294 253.461 332.151 254.059 331.865 254.57C331.579 255.073 331.189 255.463 330.695 255.74C330.209 256.017 329.663 256.156 329.057 256.156ZM329.057 255.22C329.429 255.22 329.776 255.129 330.097 254.947C330.417 254.765 330.677 254.492 330.877 254.128C331.076 253.764 331.176 253.313 331.176 252.776C331.176 252.239 331.076 251.788 330.877 251.424C330.686 251.06 330.43 250.787 330.11 250.605C329.789 250.423 329.447 250.332 329.083 250.332C328.71 250.332 328.363 250.423 328.043 250.605C327.722 250.787 327.462 251.06 327.263 251.424C327.063 251.788 326.964 252.239 326.964 252.776C326.964 253.313 327.063 253.764 327.263 254.128C327.462 254.492 327.718 254.765 328.03 254.947C328.35 255.129 328.693 255.22 329.057 255.22ZM334.312 256V249.552H335.3L335.391 250.787C335.59 250.362 335.894 250.024 336.301 249.773C336.708 249.522 337.211 249.396 337.809 249.396V250.54H337.51C337.129 250.54 336.778 250.609 336.457 250.748C336.136 250.878 335.881 251.103 335.69 251.424C335.499 251.745 335.404 252.187 335.404 252.75V256H334.312ZM339.535 256V246.64H340.627V252.269L343.266 249.552H344.605L341.745 252.464L344.969 256H343.578L340.627 252.659V256H339.535ZM348.675 256.156C347.903 256.156 347.262 255.961 346.751 255.571C346.239 255.181 345.94 254.652 345.854 253.985H346.972C347.041 254.323 347.219 254.618 347.505 254.869C347.799 255.112 348.194 255.233 348.688 255.233C349.147 255.233 349.485 255.138 349.702 254.947C349.918 254.748 350.027 254.514 350.027 254.245C350.027 253.855 349.884 253.595 349.598 253.465C349.32 253.335 348.926 253.218 348.415 253.114C348.068 253.045 347.721 252.945 347.375 252.815C347.028 252.685 346.738 252.503 346.504 252.269C346.27 252.026 346.153 251.71 346.153 251.32C346.153 250.757 346.361 250.297 346.777 249.942C347.201 249.578 347.773 249.396 348.493 249.396C349.177 249.396 349.736 249.569 350.17 249.916C350.612 250.254 350.867 250.739 350.937 251.372H349.858C349.814 251.043 349.671 250.787 349.429 250.605C349.195 250.414 348.878 250.319 348.48 250.319C348.09 250.319 347.786 250.401 347.57 250.566C347.362 250.731 347.258 250.947 347.258 251.216C347.258 251.476 347.392 251.68 347.661 251.827C347.938 251.974 348.311 252.1 348.779 252.204C349.177 252.291 349.554 252.399 349.91 252.529C350.274 252.65 350.568 252.837 350.794 253.088C351.028 253.331 351.145 253.686 351.145 254.154C351.153 254.735 350.932 255.216 350.482 255.597C350.04 255.97 349.437 256.156 348.675 256.156Z" fill="white"/>
</g>
<path d="M24 1H571C583.979 1 594.5 11.5213 594.5 24.5V441.5C594.5 454.479 583.979 465 571 465H24C11.0213 465 0.5 454.479 0.5 441.5V24.5C0.5 11.5213 11.0213 1 24 1Z" stroke="#D0E3FF"/>
<defs>
<filter id="filter0_d_2714_76093" x="17.44" y="177" width="559.12" height="91.56" filterUnits="userSpaceOnUse" color-interpolation-filters="sRGB">
<feFlood flood-opacity="0" result="BackgroundImageFix"/>
<feColorMatrix in="SourceAlpha" type="matrix" values="0 0 0 0 0 0 0 0 0 0 0 0 0 0 0 0 0 0 127 0" result="hardAlpha"/>
<feOffset dy="27"/>
<feGaussianBlur stdDeviation="11.78"/>
<feComposite in2="hardAlpha" operator="out"/>
<feColorMatrix type="matrix" values="0 0 0 0 0.395764 0 0 0 0 0.446586 0 0 0 0 0.579167 0 0 0 0.25 0"/>
<feBlend mode="normal" in2="BackgroundImageFix" result="effect1_dropShadow_2714_76093"/>
<feBlend mode="normal" in="SourceGraphic" in2="effect1_dropShadow_2714_76093" result="shape"/>
</filter>
<filter id="filter1_d_2714_76093" x="18.44" y="224" width="558.12" height="135.227" filterUnits="userSpaceOnUse" color-interpolation-filters="sRGB">
<feFlood flood-opacity="0" result="BackgroundImageFix"/>
<feColorMatrix in="SourceAlpha" type="matrix" values="0 0 0 0 0 0 0 0 0 0 0 0 0 0 0 0 0 0 127 0" result="hardAlpha"/>
<feOffset dy="27"/>
<feGaussianBlur stdDeviation="11.78"/>
<feComposite in2="hardAlpha" operator="out"/>
<feColorMatrix type="matrix" values="0 0 0 0 0.395764 0 0 0 0 0.446586 0 0 0 0 0.579167 0 0 0 0.25 0"/>
<feBlend mode="normal" in2="BackgroundImageFix" result="effect1_dropShadow_2714_76093"/>
<feBlend mode="normal" in="SourceGraphic" in2="effect1_dropShadow_2714_76093" result="shape"/>
</filter>
<filter id="filter2_d_2714_76093" x="69.4667" y="245.733" width="86.1333" height="43.7337" filterUnits="userSpaceOnUse" color-interpolation-filters="sRGB">
<feFlood flood-opacity="0" result="BackgroundImageFix"/>
<feColorMatrix in="SourceAlpha" type="matrix" values="0 0 0 0 0 0 0 0 0 0 0 0 0 0 0 0 0 0 127 0" result="hardAlpha"/>
<feOffset dy="1.26667"/>
<feGaussianBlur stdDeviation="1.26667"/>
<feColorMatrix type="matrix" values="0 0 0 0 0.0627451 0 0 0 0 0.0941176 0 0 0 0 0.156863 0 0 0 0.05 0"/>
<feBlend mode="normal" in2="BackgroundImageFix" result="effect1_dropShadow_2714_76093"/>
<feBlend mode="normal" in="SourceGraphic" in2="effect1_dropShadow_2714_76093" result="shape"/>
</filter>
<filter id="filter3_d_2714_76093" x="211" y="189" width="174" height="115" filterUnits="userSpaceOnUse" color-interpolation-filters="sRGB">
<feFlood flood-opacity="0" result="BackgroundImageFix"/>
<feColorMatrix in="SourceAlpha" type="matrix" values="0 0 0 0 0 0 0 0 0 0 0 0 0 0 0 0 0 0 127 0" result="hardAlpha"/>
<feOffset dy="13"/>
<feGaussianBlur stdDeviation="7.5"/>
<feComposite in2="hardAlpha" operator="out"/>
<feColorMatrix type="matrix" values="0 0 0 0 0.345833 0 0 0 0 0.340069 0 0 0 0 0.340069 0 0 0 0.25 0"/>
<feBlend mode="normal" in2="BackgroundImageFix" result="effect1_dropShadow_2714_76093"/>
<feBlend mode="normal" in="SourceGraphic" in2="effect1_dropShadow_2714_76093" result="shape"/>
</filter>
<radialGradient id="paint0_radial_2714_76093" cx="0" cy="0" r="1" gradientUnits="userSpaceOnUse" gradientTransform="translate(298 285.313) rotate(90) scale(233.146 277.423)">
<stop stop-color="#C7DCFF"/>
<stop offset="1" stop-color="white" stop-opacity="0"/>
</radialGradient>
</defs>
</svg>
