<svg xmlns="http://www.w3.org/2000/svg" xmlns:xlink="http://www.w3.org/1999/xlink" width="1520.37" height="1137.67" viewBox="0 0 1520.37 1137.67">
  <defs>
    <clipPath id="clip-path">
      <rect id="Rectangle_666" data-name="Rectangle 666" width="1520.37" height="1137.67" transform="translate(0.336)" fill="#fff"/>
    </clipPath>
  </defs>
  <g id="point-4" transform="translate(-0.336)" clip-path="url(#clip-path)">
    <path id="Path_1866" data-name="Path 1866" d="M1342.32,0H101.534c-42.9,0-77.673,35.366-77.673,78.991v979.685c0,43.63,34.775,78.994,77.673,78.994H1342.32c42.9,0,77.672-35.363,77.672-78.994V78.991C1419.992,35.366,1385.217,0,1342.32,0Z" transform="translate(100.826 -0.165)" fill="#1c2036"/>
    <path id="Path_1883" data-name="Path 1883" d="M195.882,8.209h404.25a48.7,48.7,0,0,1,48.7,48.716V991.887a48.712,48.712,0,0,1-48.7,48.681H195.882Z" transform="translate(827.827 44.626)" fill="#696c83"/>
    <path id="Path_1867" data-name="Path 1867" d="M460.33,38.32H64.238a15.178,15.178,0,1,0,0,30.355H460.33a15.178,15.178,0,1,0,0-30.355Z" transform="translate(207.288 161.901)" fill="#696c83"/>
    <path id="Path_1868" data-name="Path 1868" d="M624.492,22.845H72.51a23.446,23.446,0,1,0,0,46.891H624.492a23.446,23.446,0,1,0,0-46.891Z" transform="translate(207.288 96.519)" fill="#696c83"/>
    <path id="Path_1869" data-name="Path 1869" d="M460.33,87.8H64.238a15.178,15.178,0,1,0,0,30.356H460.33a15.178,15.178,0,1,0,0-30.356Z" transform="translate(207.288 370.949)" fill="#696c83"/>
    <path id="Path_1870" data-name="Path 1870" d="M624.492,72.331H72.51a23.446,23.446,0,1,0,0,46.892H624.492a23.446,23.446,0,1,0,0-46.892Z" transform="translate(207.288 305.598)" fill="#696c83"/>
    <path id="Path_1871" data-name="Path 1871" d="M460.33,137.285H64.238a15.179,15.179,0,1,0,0,30.357H460.33a15.179,15.179,0,1,0,0-30.357Z" transform="translate(207.288 580.025)" fill="#696c83"/>
    <path id="Path_1872" data-name="Path 1872" d="M624.492,121.81H72.51a23.447,23.447,0,1,0,0,46.894H624.492a23.447,23.447,0,1,0,0-46.894Z" transform="translate(207.288 514.644)" fill="#696c83"/>
    <path id="Path_1873" data-name="Path 1873" d="M460.33,186.764H64.238a15.179,15.179,0,1,0,0,30.357H460.33a15.179,15.179,0,1,0,0-30.357Z" transform="translate(207.288 789.072)" fill="#696c83"/>
    <path id="Path_1874" data-name="Path 1874" d="M624.492,171.289H72.51a23.447,23.447,0,1,0,0,46.894H624.492a23.447,23.447,0,1,0,0-46.894Z" transform="translate(207.288 723.691)" fill="#696c83"/>
    <path id="Path_1875" data-name="Path 1875" d="M103.727,268.736A102.712,102.712,0,1,0,.966,166.024,102.737,102.737,0,0,0,103.727,268.736Z" transform="translate(4.37 267.523)" fill="#d93872"/>
    <path id="Path_1876" data-name="Path 1876" d="M107.622,62.354a107.9,107.9,0,1,0,76.235,31.554A107.764,107.764,0,0,0,107.622,62.354Zm0,205.421a97.487,97.487,0,1,1,44.22-10.56A97.744,97.744,0,0,1,107.622,267.774Z" transform="translate(0.17 263.443)" fill="#d93872"/>
    <path id="Path_1877" data-name="Path 1877" d="M103.727,316.8A102.712,102.712,0,1,0,.966,214.084,102.736,102.736,0,0,0,103.727,316.8Z" transform="translate(4.37 470.463)" fill="#10a861"/>
    <path id="Path_1878" data-name="Path 1878" d="M107.622,110.414a107.862,107.862,0,1,0,76.247,31.543A107.764,107.764,0,0,0,107.622,110.414Zm0,205.383a97.466,97.466,0,1,1,44.222-10.56A97.736,97.736,0,0,1,107.622,315.8Z" transform="translate(0.17 466.496)" fill="#10a861"/>
    <path id="Path_1879" data-name="Path 1879" d="M103.727,364.845A102.71,102.71,0,1,0,.966,262.132,102.736,102.736,0,0,0,103.727,364.845Z" transform="translate(4.37 673.41)" fill="#2a353d"/>
    <path id="Path_1880" data-name="Path 1880" d="M107.559,158.474a107.861,107.861,0,1,0,76.206,31.5A107.734,107.734,0,0,0,107.559,158.474Zm0,205.383a97.512,97.512,0,1,1,44.22-10.565A97.735,97.735,0,0,1,107.559,363.857Z" transform="translate(0.234 669.548)" fill="#2a353d"/>
    <path id="Path_1881" data-name="Path 1881" d="M103.727,220.683A102.711,102.711,0,1,0,.966,117.971,102.736,102.736,0,0,0,103.727,220.683Z" transform="translate(4.37 64.575)" fill="#4285f4"/>
    <path id="Path_1882" data-name="Path 1882" d="M107.559,14.3a107.862,107.862,0,1,0,76.288,31.584A107.728,107.728,0,0,0,107.559,14.3Zm0,205.384a97.493,97.493,0,1,1,44.22-10.562A97.743,97.743,0,0,1,107.559,219.685Z" transform="translate(0.234 60.423)" fill="#3e7fdd"/>
    <path id="Path_1884" data-name="Path 1884" d="M507.361,23H229.44C218.151,23,209,33.527,209,46.512s9.151,23.512,20.44,23.512H507.361c11.289,0,20.44-10.527,20.44-23.512S518.649,23,507.361,23Z" transform="translate(883.266 97.174)" fill="#242947"/>
    <path id="Path_1885" data-name="Path 1885" d="M514.233,43H222.567C215.073,43,209,50.018,209,58.675s6.073,15.675,13.567,15.675H514.233c7.495,0,13.567-7.018,13.567-15.675S521.728,43,514.233,43Z" transform="translate(883.266 181.674)" fill="#242947"/>
    <path id="Path_1886" data-name="Path 1886" d="M514.233,54H222.567C215.073,54,209,61.018,209,69.675s6.073,15.675,13.567,15.675H514.233c7.495,0,13.567-7.018,13.567-15.675S521.728,54,514.233,54Z" transform="translate(883.266 228.148)" fill="#242947"/>
    <path id="Path_1887" data-name="Path 1887" d="M514.233,72H222.567C215.073,72,209,79.018,209,87.675s6.073,15.675,13.567,15.675H514.233c7.495,0,13.567-7.018,13.567-15.675S521.728,72,514.233,72Z" transform="translate(883.266 304.198)" fill="#242947"/>
    <path id="Path_1888" data-name="Path 1888" d="M514.233,83H222.567C215.073,83,209,90.018,209,98.675s6.073,15.675,13.567,15.675H514.233c7.495,0,13.567-7.018,13.567-15.675S521.728,83,514.233,83Z" transform="translate(883.266 350.672)" fill="#242947"/>
    <path id="Path_1889" data-name="Path 1889" d="M514.233,101H222.567C215.073,101,209,108.017,209,116.675s6.073,15.675,13.567,15.675H514.233c7.495,0,13.567-7.017,13.567-15.675S521.728,101,514.233,101Z" transform="translate(883.266 426.722)" fill="#242947"/>
    <path id="Path_1890" data-name="Path 1890" d="M514.233,112H222.567a13.072,13.072,0,1,0,0,26.125H514.233a13.072,13.072,0,1,0,0-26.125Z" transform="translate(883.266 473.197)" fill="#242947"/>
    <path id="Path_1891" data-name="Path 1891" d="M514.233,130H222.567C215.073,130,209,137.017,209,145.675s6.073,15.675,13.567,15.675H514.233c7.495,0,13.567-7.017,13.567-15.675S521.728,130,514.233,130Z" transform="translate(883.266 549.246)" fill="#242947"/>
    <path id="Path_1892" data-name="Path 1892" d="M514.233,140H222.567C215.073,140,209,147.017,209,155.675s6.073,15.675,13.567,15.675H514.233c7.495,0,13.567-7.017,13.567-15.675S521.728,140,514.233,140Z" transform="translate(883.266 591.496)" fill="#242947"/>
    <path id="Path_1893" data-name="Path 1893" d="M514.233,159H222.567C215.073,159,209,166.017,209,174.675s6.073,15.675,13.567,15.675H514.233c7.495,0,13.567-7.017,13.567-15.675S521.728,159,514.233,159Z" transform="translate(883.266 671.77)" fill="#242947"/>
    <path id="Path_1894" data-name="Path 1894" d="M514.233,169H222.567C215.073,169,209,176.017,209,184.675s6.073,15.675,13.567,15.675H514.233c7.495,0,13.567-7.017,13.567-15.675S521.728,169,514.233,169Z" transform="translate(883.266 714.02)" fill="#242947"/>
    <path id="Path_1895" data-name="Path 1895" d="M514.233,187H222.567C215.073,187,209,194.017,209,202.675s6.073,15.675,13.567,15.675H514.233c7.495,0,13.567-7.017,13.567-15.675S521.728,187,514.233,187Z" transform="translate(883.266 790.069)" fill="#242947"/>
    <text id="AAPL" transform="translate(107.336 197.834)" fill="#fff" font-size="43" font-family="DMSans-Bold, DM Sans" font-weight="700"><tspan x="-55.04" y="0">AAPL</tspan></text>
    <text id="AAPL-2" data-name="AAPL" transform="translate(107.336 197.835)" fill="#fff" font-size="43" font-family="DMSans-Bold, DM Sans" font-weight="700"><tspan x="-55.04" y="0">AAPL</tspan></text>
    <text id="MSFT" transform="translate(108.336 448.834)" fill="#fff" font-size="43" font-family="DMSans-Bold, DM Sans" font-weight="700"><tspan x="-56.373" y="0">MSFT</tspan></text>
    <text id="MSFT-2" data-name="MSFT" transform="translate(108.336 448.835)" fill="#fff" font-size="43" font-family="DMSans-Bold, DM Sans" font-weight="700"><tspan x="-56.373" y="0">MSFT</tspan></text>
    <text id="AMZN" transform="translate(108.336 699.834)" fill="#fff" font-size="43" font-family="DMSans-Bold, DM Sans" font-weight="700"><tspan x="-61.726" y="0">AMZN</tspan></text>
    <text id="AMD" transform="translate(108.336 950.834)" fill="#fff" font-size="43" font-family="DMSans-Bold, DM Sans" font-weight="700"><tspan x="-49.342" y="0">AMD</tspan></text>
  </g>
</svg>
