<svg xmlns="http://www.w3.org/2000/svg" width="1520.367" height="1137.67" viewBox="0 0 1520.367 1137.67">
  <g id="Group_487" data-name="Group 487" transform="translate(-2276 -251)">
    <g id="Group_470" data-name="Group 470" transform="translate(2276 250.999)">
      <path id="Path_1648" data-name="Path 1648" d="M1245.773.583H124.3c-42.885,0-77.651,35.361-77.651,78.982V720.148c0,43.62,34.766,78.983,77.651,78.983H1245.773c42.885,0,77.648-35.363,77.648-78.983V79.565C1323.421,35.944,1288.657.583,1245.773.583Z" transform="translate(196.945 -0.582)" fill="#696c83"/>
      <path id="Path_1649" data-name="Path 1649" d="M1223,19.989H101.525c-42.885,0-77.651,35.361-77.651,78.982V739.556c0,43.62,34.766,78.978,77.651,78.978H1223c42.884,0,77.648-35.358,77.648-78.978V98.971C1300.649,55.35,1265.885,19.989,1223,19.989Z" transform="translate(101.126 81.012)" fill="#1c2036"/>
      <path id="Path_1654" data-name="Path 1654" d="M642.948,205.53H46.742a22.818,22.818,0,1,0,0,45.637H642.948a22.818,22.818,0,1,0,0-45.637Z" transform="translate(100.798 886.504)" fill="#4285f4"/>
      <path id="Path_1655" data-name="Path 1655" d="M1037.88,182.266H59.166a35.216,35.216,0,1,0,0,70.431H1037.88a35.216,35.216,0,1,0,0-70.431Z" transform="translate(100.798 787.468)" fill="#171e2e"/>
      <path id="Path_1656" data-name="Path 1656" d="M119.96,285.212c65.636,0,118.845-53.092,118.845-118.583S185.6,48.045,119.96,48.045,1.115,101.137,1.115,166.629,54.324,285.212,119.96,285.212Z" transform="translate(4.709 199.752)" fill="#696c83"/>
      <path id="Path_1657" data-name="Path 1657" d="M124.669,58.554a112.772,112.772,0,1,1,0,225.544c-62.432,0-113.021-50.517-113.021-112.772S62.237,58.554,124.669,58.554Zm0-11.622C55.909,46.932,0,102.718,0,171.326S55.909,295.721,124.669,295.721s124.669-55.785,124.669-124.394S193.429,46.932,124.669,46.932Z" transform="translate(0 195.053)" fill="#9597a7"/>
      <path id="Path_1658" data-name="Path 1658" d="M34.852,95.267A13.559,13.559,0,1,0,21.264,81.708,13.574,13.574,0,0,0,34.852,95.267Z" transform="translate(89.779 284.623)" fill="#10a861"/>
      <path id="Path_1659" data-name="Path 1659" d="M29.129,65.916a31.931,31.931,0,0,1,0,50.439" transform="translate(122.989 275.195)" fill="none" stroke="#10a861" stroke-linecap="round" stroke-linejoin="round" stroke-width="2.263"/>
      <path id="Path_1660" data-name="Path 1660" d="M28.592,116.355a31.93,31.93,0,0,1,0-50.439" transform="translate(68.59 275.195)" fill="none" stroke="#10a861" stroke-linecap="round" stroke-linejoin="round" stroke-width="2.263"/>
      <path id="Path_1661" data-name="Path 1661" d="M33.087,62.889A52.845,52.845,0,0,1,46.559,78.7a52.289,52.289,0,0,1,0,50.439A52.65,52.65,0,0,1,33.048,144.98" transform="translate(139.534 262.418)" fill="none" stroke="#10a861" stroke-linecap="round" stroke-linejoin="round" stroke-width="2.263"/>
      <path id="Path_1662" data-name="Path 1662" d="M30.865,144.98a52.112,52.112,0,0,1-.039-82.09" transform="translate(45.893 262.418)" fill="none" stroke="#10a861" stroke-linecap="round" stroke-linejoin="round" stroke-width="2.263"/>
    </g>
    <g id="Group_483" data-name="Group 483">
      <g id="Group" transform="translate(2632 507)">
        <path id="Path_1738" data-name="Path 1738" d="M802.838,90.438H11.935C5.342,90.438,0,87.353,0,83.547s5.342-6.89,11.935-6.89h790.9c6.593,0,11.935,3.084,11.935,6.89S809.431,90.438,802.838,90.438Z" transform="translate(0 365.251)" fill="#696c83"/>
        <path id="Path_1739" data-name="Path 1739" d="M12.833,490a7.177,7.177,0,0,1-7.178-7.178V7.178a7.178,7.178,0,1,1,14.355,0V482.824A7.177,7.177,0,0,1,12.833,490Z" transform="translate(26.944 0)" fill="#696c83"/>
        <g id="Group_471" data-name="Group 471" transform="translate(-26.187 -43)">
          <g id="Group_472" data-name="Group 472">
            <path id="Path_1773" data-name="Path 1773" d="M28.649,68.976a8.682,8.682,0,0,1-8.682-8.683V42.243a8.682,8.682,0,0,1,17.365,0V60.292A8.682,8.682,0,0,1,28.649,68.976Z" transform="translate(115.194 191.816)" fill="#34864d"/>
            <path id="Path_1774" data-name="Path 1774" d="M28.649,87.5a8.681,8.681,0,0,1-8.682-8.682V60.837a8.682,8.682,0,0,1,17.365,0V78.818A8.681,8.681,0,0,1,28.649,87.5Z" transform="translate(115.194 299.086)" fill="#34864d"/>
            <path id="Path_1789" data-name="Path 1789" d="M46.45,145.382H26.7a8.1,8.1,0,0,1-8.1-8.1V45.6a8.1,8.1,0,0,1,8.1-8.1H46.45a8.1,8.1,0,0,1,8.1,8.1v91.674A8.1,8.1,0,0,1,46.45,145.382Z" transform="translate(107.271 214.539)" fill="#42a861"/>
          </g>
          <g id="Group_478" data-name="Group 478" transform="translate(359.609)">
            <path id="Path_1773-2" data-name="Path 1773" d="M28.649,68.976a8.682,8.682,0,0,1-8.682-8.683V42.243a8.682,8.682,0,0,1,17.365,0V60.292A8.682,8.682,0,0,1,28.649,68.976Z" transform="translate(115.194 191.816)" fill="#c32960"/>
            <path id="Path_1774-2" data-name="Path 1774" d="M28.649,87.5a8.681,8.681,0,0,1-8.682-8.682V60.837a8.682,8.682,0,0,1,17.365,0V78.818A8.681,8.681,0,0,1,28.649,87.5Z" transform="translate(115.194 299.086)" fill="#c32960"/>
            <path id="Path_1789-2" data-name="Path 1789" d="M46.45,145.382H26.7a8.1,8.1,0,0,1-8.1-8.1V45.6a8.1,8.1,0,0,1,8.1-8.1H46.45a8.1,8.1,0,0,1,8.1,8.1v91.674A8.1,8.1,0,0,1,46.45,145.382Z" transform="translate(107.271 214.539)" fill="#d93872"/>
          </g>
          <g id="Group_474" data-name="Group 474">
            <path id="Path_1776" data-name="Path 1776" d="M39.275,82.187a8.681,8.681,0,0,1-8.683-8.682V55.524a8.682,8.682,0,0,1,17.365,0V73.505A8.682,8.682,0,0,1,39.275,82.187Z" transform="translate(176.492 268.438)" fill="#c32960"/>
            <path id="Path_1777" data-name="Path 1777" d="M39.275,68.769a8.681,8.681,0,0,1-8.683-8.682V42.243a8.682,8.682,0,0,1,17.365,0V60.085A8.682,8.682,0,0,1,39.275,68.769Z" transform="translate(176.492 191.816)" fill="#c32960"/>
            <path id="Path_1790" data-name="Path 1790" d="M57.075,109.539H37.322a8.1,8.1,0,0,1-8.1-8.1V45.584a8.1,8.1,0,0,1,8.1-8.1H57.075a8.1,8.1,0,0,1,8.1,8.1v55.852A8.1,8.1,0,0,1,57.075,109.539Z" transform="translate(168.568 214.422)" fill="#d93872"/>
          </g>
          <g id="Group_477" data-name="Group 477" transform="translate(359.609)">
            <path id="Path_1776-2" data-name="Path 1776" d="M39.275,82.187a8.681,8.681,0,0,1-8.683-8.682V55.524a8.682,8.682,0,0,1,17.365,0V73.505A8.682,8.682,0,0,1,39.275,82.187Z" transform="translate(176.492 268.438)" fill="#c32960"/>
            <path id="Path_1777-2" data-name="Path 1777" d="M39.275,68.769a8.681,8.681,0,0,1-8.683-8.682V42.243a8.682,8.682,0,0,1,17.365,0V60.085A8.682,8.682,0,0,1,39.275,68.769Z" transform="translate(176.492 191.816)" fill="#c32960"/>
            <path id="Path_1790-2" data-name="Path 1790" d="M57.075,109.539H37.322a8.1,8.1,0,0,1-8.1-8.1V45.584a8.1,8.1,0,0,1,8.1-8.1H57.075a8.1,8.1,0,0,1,8.1,8.1v55.852A8.1,8.1,0,0,1,57.075,109.539Z" transform="translate(168.568 214.422)" fill="#d93872"/>
          </g>
          <g id="Group_473" data-name="Group 473">
            <path id="Path_1775" data-name="Path 1775" d="M49.9,87.5a8.681,8.681,0,0,1-8.682-8.682V60.837a8.682,8.682,0,0,1,17.365,0V78.818A8.681,8.681,0,0,1,49.9,87.5Z" transform="translate(237.787 299.086)" fill="#34864d"/>
            <path id="Path_1782" data-name="Path 1782" d="M49.9,74.221a8.682,8.682,0,0,1-8.682-8.683V47.555a8.682,8.682,0,0,1,17.365,0V65.538A8.682,8.682,0,0,1,49.9,74.221Z" transform="translate(237.787 222.463)" fill="#34864d"/>
            <path id="Path_1791" data-name="Path 1791" d="M67.7,114.734H47.947a8.1,8.1,0,0,1-8.1-8.1V50.917a8.1,8.1,0,0,1,8.1-8.1H67.7a8.1,8.1,0,0,1,8.1,8.1V106.63A8.1,8.1,0,0,1,67.7,114.734Z" transform="translate(229.865 245.188)" fill="#42a861"/>
          </g>
          <g id="Group_479" data-name="Group 479" transform="translate(359.609)">
            <path id="Path_1775-2" data-name="Path 1775" d="M49.9,87.5a8.681,8.681,0,0,1-8.682-8.682V60.837a8.682,8.682,0,0,1,17.365,0V78.818A8.681,8.681,0,0,1,49.9,87.5Z" transform="translate(237.787 299.086)" fill="#34864d"/>
            <path id="Path_1782-2" data-name="Path 1782" d="M49.9,74.221a8.682,8.682,0,0,1-8.682-8.683V47.555a8.682,8.682,0,0,1,17.365,0V65.538A8.682,8.682,0,0,1,49.9,74.221Z" transform="translate(237.787 222.463)" fill="#34864d"/>
            <path id="Path_1791-2" data-name="Path 1791" d="M67.7,114.734H47.947a8.1,8.1,0,0,1-8.1-8.1V50.917a8.1,8.1,0,0,1,8.1-8.1H67.7a8.1,8.1,0,0,1,8.1,8.1V106.63A8.1,8.1,0,0,1,67.7,114.734Z" transform="translate(229.865 245.188)" fill="#42a861"/>
          </g>
          <g id="Group_475" data-name="Group 475">
            <path id="Path_1778" data-name="Path 1778" d="M60.524,82.187a8.681,8.681,0,0,1-8.682-8.682V55.524a8.682,8.682,0,0,1,17.365,0V73.505A8.682,8.682,0,0,1,60.524,82.187Z" transform="translate(299.084 268.438)" fill="#c32960"/>
            <path id="Path_1779" data-name="Path 1779" d="M60.524,68.769a8.681,8.681,0,0,1-8.682-8.682V42.243a8.682,8.682,0,0,1,17.365,0V60.085A8.683,8.683,0,0,1,60.524,68.769Z" transform="translate(299.084 191.816)" fill="#c32960"/>
            <path id="Path_1792" data-name="Path 1792" d="M78.325,109.539H58.572a8.1,8.1,0,0,1-8.1-8.1V45.584a8.1,8.1,0,0,1,8.1-8.1H78.325a8.1,8.1,0,0,1,8.1,8.1v55.852A8.1,8.1,0,0,1,78.325,109.539Z" transform="translate(291.162 214.422)" fill="#d93872"/>
          </g>
          <g id="Group_480" data-name="Group 480" transform="translate(359.609)">
            <path id="Path_1778-2" data-name="Path 1778" d="M60.524,82.187a8.681,8.681,0,0,1-8.682-8.682V55.524a8.682,8.682,0,0,1,17.365,0V73.505A8.682,8.682,0,0,1,60.524,82.187Z" transform="translate(299.084 268.438)" fill="#c32960"/>
            <path id="Path_1779-2" data-name="Path 1779" d="M60.524,68.769a8.681,8.681,0,0,1-8.682-8.682V42.243a8.682,8.682,0,0,1,17.365,0V60.085A8.683,8.683,0,0,1,60.524,68.769Z" transform="translate(299.084 191.816)" fill="#c32960"/>
            <path id="Path_1792-2" data-name="Path 1792" d="M78.325,109.539H58.572a8.1,8.1,0,0,1-8.1-8.1V45.584a8.1,8.1,0,0,1,8.1-8.1H78.325a8.1,8.1,0,0,1,8.1,8.1v55.852A8.1,8.1,0,0,1,78.325,109.539Z" transform="translate(291.162 214.422)" fill="#d93872"/>
          </g>
          <g id="Group_476" data-name="Group 476">
            <path id="Path_1780" data-name="Path 1780" d="M71.149,63.594a8.682,8.682,0,0,1-8.682-8.683V36.931a8.682,8.682,0,0,1,17.365,0v17.98A8.681,8.681,0,0,1,71.149,63.594Z" transform="translate(360.381 161.168)" fill="#34864d"/>
            <path id="Path_1781" data-name="Path 1781" d="M71.149,87.5a8.681,8.681,0,0,1-8.682-8.682V60.837a8.682,8.682,0,0,1,17.365,0V78.818A8.681,8.681,0,0,1,71.149,87.5Z" transform="translate(360.381 299.086)" fill="#34864d"/>
            <path id="Path_1793" data-name="Path 1793" d="M88.95,176.031H69.2a8.1,8.1,0,0,1-8.1-8.1V40.291a8.1,8.1,0,0,1,8.1-8.1H88.95a8.1,8.1,0,0,1,8.1,8.1V167.927A8.1,8.1,0,0,1,88.95,176.031Z" transform="translate(352.458 183.891)" fill="#42a861"/>
          </g>
          <g id="Group_481" data-name="Group 481" transform="translate(359.609)">
            <path id="Path_1780-2" data-name="Path 1780" d="M71.149,63.594a8.682,8.682,0,0,1-8.682-8.683V36.931a8.682,8.682,0,0,1,17.365,0v17.98A8.681,8.681,0,0,1,71.149,63.594Z" transform="translate(360.381 161.168)" fill="#34864d"/>
            <path id="Path_1781-2" data-name="Path 1781" d="M71.149,87.5a8.681,8.681,0,0,1-8.682-8.682V60.837a8.682,8.682,0,0,1,17.365,0V78.818A8.681,8.681,0,0,1,71.149,87.5Z" transform="translate(360.381 299.086)" fill="#34864d"/>
            <path id="Path_1793-2" data-name="Path 1793" d="M88.95,176.031H69.2a8.1,8.1,0,0,1-8.1-8.1V40.291a8.1,8.1,0,0,1,8.1-8.1H88.95a8.1,8.1,0,0,1,8.1,8.1V167.927A8.1,8.1,0,0,1,88.95,176.031Z" transform="translate(352.458 183.891)" fill="#42a861"/>
          </g>
        </g>
      </g>
      <g id="Group_482" data-name="Group 482" transform="translate(16.898 -55.191)">
        <path id="Path_1794" data-name="Path 1794" d="M-2006.457,16280.991l81.506-27.757,65.034,57.313,146.112-73.5,59.989,53.762,82.3-28.81,60.655,43.612,149.094-96.417" transform="translate(4735 -15644.176)" fill="none" stroke="#c4e6ff" stroke-linecap="round" stroke-linejoin="bevel" stroke-width="10"/>
        <path id="Path_1795" data-name="Path 1795" d="M-1395.254,16209.96h52.526l-13.419,47.906" transform="translate(4718.785 -15647.769)" fill="none" stroke="#c4e6ff" stroke-linecap="round" stroke-linejoin="round" stroke-width="10"/>
      </g>
    </g>
  </g>
</svg>
