<svg id="icon2" xmlns="http://www.w3.org/2000/svg" width="24.99" height="25" viewBox="0 0 24.99 25">
  <path id="Path_1114" data-name="Path 1114" d="M13.313,0c.381.072.773.1,1.153.206a6.491,6.491,0,0,1,5.016,5.18,6.281,6.281,0,0,1-2.3,6.325c-.085.072-.169.144-.275.227.476.2.931.371,1.376.557a8.226,8.226,0,0,1,.8.392.959.959,0,0,1,.434,1.331.992.992,0,0,1-1.355.392A11.813,11.813,0,0,0,15.09,13.5a11.037,11.037,0,0,0-7.238.939,10.794,10.794,0,0,0-4.868,4.716,10.066,10.066,0,0,0-.963,2.683A.975.975,0,0,0,2.847,23c.127.021.265.021.4.031H10.73a1.139,1.139,0,0,1,.847.3.959.959,0,0,1-.286,1.558l-.222.093H2.656c-.042-.01-.074-.041-.116-.041A2.915,2.915,0,0,1,.36,23.4a6.652,6.652,0,0,1-.36-1v-.733c.138-.506.243-1.011.413-1.5A12.758,12.758,0,0,1,7.5,12.423c.392-.175.794-.32,1.217-.485-.1-.083-.18-.144-.265-.217A6.256,6.256,0,0,1,6.148,5.386,6.477,6.477,0,0,1,11.164.206c.37-.1.762-.134,1.153-.206h1.005Zm-5.3,6.635a4.806,4.806,0,0,0,9.609.021,4.806,4.806,0,0,0-9.609-.031Z" fill="#2a353d"/>
  <path id="Path_1115" data-name="Path 1115" d="M127.635,148.706a8.806,8.806,0,0,1-1.134-.359,3.588,3.588,0,0,1,1.077-6.794,4.6,4.6,0,0,1,.624-.038h4.819c-.076-.085-.113-.132-.17-.189-.293-.293-.6-.576-.879-.888a.868.868,0,0,1,.028-1.2.841.841,0,0,1,1.191-.076c.69.652,1.37,1.314,1.984,2.022a3.521,3.521,0,0,1,.416,1.039v.444a2.406,2.406,0,0,1-.576,1.257q-.879.893-1.786,1.786a.814.814,0,0,1-.765.208.885.885,0,0,1-.463-1.484c.3-.331.643-.643.964-.964.038-.038.076-.094.132-.161-1.71,0-3.392-.009-5.065,0a1.7,1.7,0,0,0-1.625,1.087,1.737,1.737,0,0,0,.312,1.918,1.82,1.82,0,0,0,1.361.614.835.835,0,0,1,.784.567.822.822,0,0,1-.18.926,2.566,2.566,0,0,1-.463.293h-.576Z" transform="translate(-110.602 -123.715)" fill="#2a353d"/>
</svg>
