<svg width="394" height="472" viewBox="0 0 394 472" fill="none" xmlns="http://www.w3.org/2000/svg">
<path d="M3 411.033L180.994 411.033L180.994 232.551L3 411.033Z" fill="#4285F5"/>
<path d="M3 411.033L180.994 232.551L180.994 3.35394L3 411.033Z" fill="#11A861"/>
<path d="M3 411.033L180.994 411.033L180.994 232.551M3 411.033L180.994 232.551M3 411.033L180.994 3.35394L180.994 232.551" stroke="black" stroke-width="0.975309"/>
<path d="M200.987 413.848L203.803 411.033L200.987 408.217L198.172 411.033L200.987 413.848ZM200.987 226.81L198.172 229.625L200.987 232.441L203.803 229.625L200.987 226.81ZM201.475 411.033L201.475 229.625L200.5 229.625L200.5 411.033L201.475 411.033Z" fill="black"/>
<path d="M0.184526 425.663L3 428.478L5.81547 425.663L3 422.847L0.184526 425.663ZM184.297 425.663L181.481 422.847L178.666 425.663L181.481 428.478L184.297 425.663ZM3 426.15H181.481V425.175H3V426.15Z" fill="black"/>
<g clip-path="url(#clip0_2627_48841)">
<path d="M163.971 440.079V459.878" stroke="#2A353D" stroke-width="1.5" stroke-linecap="round" stroke-linejoin="round"/>
<path d="M154.071 449.978H173.87" stroke="#2A353D" stroke-width="1.5" stroke-linecap="round" stroke-linejoin="round"/>
</g>
<path d="M21.0713 454.979H40.8703" stroke="#2A353D" stroke-width="1.5" stroke-linecap="round" stroke-linejoin="round"/>
<path d="M218.528 210.711L220.16 206.775H221.552L220.688 210.711H218.528ZM223.807 217.975V206.775H228.303C229.465 206.775 230.351 207.047 230.959 207.591C231.577 208.124 231.887 208.812 231.887 209.655C231.887 210.359 231.695 210.924 231.311 211.351C230.937 211.767 230.479 212.05 229.935 212.199C230.575 212.327 231.103 212.647 231.519 213.159C231.935 213.66 232.143 214.247 232.143 214.919C232.143 215.804 231.823 216.535 231.183 217.111C230.543 217.687 229.636 217.975 228.463 217.975H223.807ZM225.855 211.479H227.999C228.575 211.479 229.017 211.346 229.327 211.079C229.636 210.812 229.791 210.434 229.791 209.943C229.791 209.474 229.636 209.106 229.327 208.839C229.028 208.562 228.575 208.423 227.967 208.423H225.855V211.479ZM225.855 216.311H228.143C228.751 216.311 229.22 216.172 229.551 215.895C229.892 215.607 230.063 215.207 230.063 214.695C230.063 214.172 229.887 213.762 229.535 213.463C229.183 213.164 228.708 213.015 228.111 213.015H225.855V216.311ZM237.329 218.167C236.337 218.167 235.569 217.858 235.025 217.239C234.491 216.62 234.225 215.714 234.225 214.519V210.039H236.257V214.327C236.257 215.01 236.395 215.532 236.673 215.895C236.95 216.258 237.387 216.439 237.985 216.439C238.55 216.439 239.014 216.236 239.377 215.831C239.75 215.426 239.937 214.86 239.937 214.135V210.039H241.985V217.975H240.177L240.017 216.631C239.771 217.1 239.414 217.474 238.945 217.751C238.486 218.028 237.947 218.167 237.329 218.167ZM245.579 221.495L247.419 217.447H246.939L243.851 210.039H246.075L248.299 215.623L250.619 210.039H252.795L247.755 221.495H245.579ZM262.578 218.151C261.757 218.151 261.042 218.012 260.434 217.735C259.826 217.447 259.352 217.047 259.01 216.535C258.68 216.023 258.514 215.426 258.514 214.743C258.514 214.018 258.717 213.362 259.122 212.775C259.528 212.188 260.13 211.719 260.93 211.367C260.61 210.994 260.381 210.642 260.242 210.311C260.104 209.98 260.034 209.628 260.034 209.255C260.034 208.743 260.162 208.29 260.418 207.895C260.674 207.49 261.037 207.17 261.506 206.935C261.986 206.7 262.557 206.583 263.218 206.583C263.89 206.583 264.461 206.706 264.93 206.951C265.4 207.196 265.752 207.527 265.986 207.943C266.232 208.359 266.344 208.823 266.322 209.335H264.37C264.37 208.94 264.253 208.647 264.018 208.455C263.794 208.252 263.522 208.151 263.202 208.151C262.84 208.151 262.546 208.252 262.322 208.455C262.109 208.658 262.002 208.919 262.002 209.239C262.002 209.506 262.088 209.778 262.258 210.055C262.429 210.332 262.68 210.652 263.01 211.015L266.146 214.119C266.37 213.756 266.605 213.335 266.85 212.855L267.202 212.151H269.298L268.738 213.239C268.312 214.103 267.885 214.834 267.458 215.431L270.034 217.975H267.586L266.338 216.727C265.794 217.228 265.213 217.591 264.594 217.815C263.986 218.039 263.314 218.151 262.578 218.151ZM260.498 214.615C260.498 215.138 260.69 215.58 261.074 215.943C261.469 216.295 261.992 216.471 262.642 216.471C263.57 216.471 264.376 216.14 265.058 215.479L262.098 212.551C261.554 212.786 261.149 213.079 260.882 213.431C260.626 213.783 260.498 214.178 260.498 214.615ZM276.166 217.975V206.775H278.214V211.431H283.238V206.775H285.286V217.975H283.238V213.095H278.214V217.975H276.166ZM291.723 218.167C290.955 218.167 290.262 217.991 289.643 217.639C289.035 217.287 288.55 216.802 288.187 216.183C287.835 215.554 287.659 214.828 287.659 214.007C287.659 213.186 287.84 212.466 288.203 211.847C288.566 211.218 289.051 210.727 289.659 210.375C290.278 210.023 290.971 209.847 291.739 209.847C292.496 209.847 293.179 210.023 293.787 210.375C294.406 210.727 294.891 211.218 295.243 211.847C295.606 212.466 295.787 213.186 295.787 214.007C295.787 214.828 295.606 215.554 295.243 216.183C294.891 216.802 294.406 217.287 293.787 217.639C293.168 217.991 292.48 218.167 291.723 218.167ZM291.723 216.391C292.256 216.391 292.72 216.194 293.115 215.799C293.51 215.394 293.707 214.796 293.707 214.007C293.707 213.218 293.51 212.626 293.115 212.231C292.72 211.826 292.262 211.623 291.739 211.623C291.195 211.623 290.726 211.826 290.331 212.231C289.947 212.626 289.755 213.218 289.755 214.007C289.755 214.796 289.947 215.394 290.331 215.799C290.726 216.194 291.19 216.391 291.723 216.391ZM298.118 217.975V206.455H300.166V217.975H298.118ZM306.407 218.167C305.66 218.167 304.993 217.986 304.407 217.623C303.82 217.26 303.356 216.764 303.015 216.135C302.673 215.506 302.503 214.791 302.503 213.991C302.503 213.191 302.673 212.482 303.015 211.863C303.356 211.234 303.82 210.743 304.407 210.391C304.993 210.028 305.66 209.847 306.407 209.847C307.004 209.847 307.527 209.959 307.975 210.183C308.423 210.407 308.785 210.722 309.063 211.127V206.455H311.111V217.975H309.287L309.063 216.839C308.807 217.191 308.465 217.5 308.039 217.767C307.623 218.034 307.079 218.167 306.407 218.167ZM306.839 216.375C307.5 216.375 308.039 216.156 308.455 215.719C308.881 215.271 309.095 214.7 309.095 214.007C309.095 213.314 308.881 212.748 308.455 212.311C308.039 211.863 307.5 211.639 306.839 211.639C306.188 211.639 305.649 211.858 305.223 212.295C304.796 212.732 304.583 213.298 304.583 213.991C304.583 214.684 304.796 215.255 305.223 215.703C305.649 216.151 306.188 216.375 306.839 216.375ZM313.312 210.711L314.192 206.775H316.352L314.72 210.711H313.312ZM219.088 249.975V238.775H221.52L225.088 245.879L228.608 238.775H231.04V249.975H228.992V242.247L225.872 248.375H224.256L221.136 242.247V249.975H219.088ZM236.401 250.167C235.718 250.167 235.158 250.06 234.721 249.847C234.284 249.623 233.958 249.33 233.745 248.967C233.532 248.604 233.425 248.204 233.425 247.767C233.425 247.031 233.713 246.434 234.289 245.975C234.865 245.516 235.729 245.287 236.881 245.287H238.897V245.095C238.897 244.551 238.742 244.151 238.433 243.895C238.124 243.639 237.74 243.511 237.281 243.511C236.865 243.511 236.502 243.612 236.193 243.815C235.884 244.007 235.692 244.295 235.617 244.679H233.617C233.67 244.103 233.862 243.602 234.193 243.175C234.534 242.748 234.972 242.423 235.505 242.199C236.038 241.964 236.636 241.847 237.297 241.847C238.428 241.847 239.318 242.13 239.969 242.695C240.62 243.26 240.945 244.06 240.945 245.095V249.975H239.201L239.009 248.695C238.774 249.122 238.444 249.474 238.017 249.751C237.601 250.028 237.062 250.167 236.401 250.167ZM236.865 248.567C237.452 248.567 237.905 248.375 238.225 247.991C238.556 247.607 238.764 247.132 238.849 246.567H237.105C236.561 246.567 236.172 246.668 235.937 246.871C235.702 247.063 235.585 247.303 235.585 247.591C235.585 247.9 235.702 248.14 235.937 248.311C236.172 248.482 236.481 248.567 236.865 248.567ZM243.399 249.975V242.039H245.223L245.415 243.527C245.703 243.015 246.093 242.61 246.583 242.311C247.085 242.002 247.671 241.847 248.343 241.847V244.007H247.767C247.319 244.007 246.919 244.076 246.567 244.215C246.215 244.354 245.938 244.594 245.735 244.935C245.543 245.276 245.447 245.751 245.447 246.359V249.975H243.399ZM250.243 249.975V238.455H252.291V245.255L255.107 242.039H257.539L254.291 245.655L258.067 249.975H255.507L252.291 245.991V249.975H250.243ZM263.037 250.167C262.237 250.167 261.527 249.996 260.909 249.655C260.29 249.314 259.805 248.834 259.453 248.215C259.101 247.596 258.925 246.882 258.925 246.071C258.925 245.25 259.095 244.519 259.437 243.879C259.789 243.239 260.269 242.743 260.877 242.391C261.495 242.028 262.221 241.847 263.053 241.847C263.831 241.847 264.519 242.018 265.117 242.359C265.714 242.7 266.178 243.17 266.509 243.767C266.85 244.354 267.021 245.01 267.021 245.735C267.021 245.852 267.015 245.975 267.005 246.103C267.005 246.231 266.999 246.364 266.989 246.503H260.957C260.999 247.122 261.213 247.607 261.597 247.959C261.991 248.311 262.466 248.487 263.021 248.487C263.437 248.487 263.783 248.396 264.061 248.215C264.349 248.023 264.562 247.778 264.701 247.479H266.781C266.631 247.98 266.381 248.439 266.029 248.855C265.687 249.26 265.261 249.58 264.749 249.815C264.247 250.05 263.677 250.167 263.037 250.167ZM263.053 243.511C262.551 243.511 262.109 243.655 261.725 243.943C261.341 244.22 261.095 244.647 260.989 245.223H264.941C264.909 244.7 264.717 244.284 264.365 243.975C264.013 243.666 263.575 243.511 263.053 243.511ZM272.639 249.975C271.807 249.975 271.14 249.772 270.639 249.367C270.137 248.962 269.887 248.242 269.887 247.207V243.751H268.527V242.039H269.887L270.127 239.911H271.935V242.039H274.079V243.751H271.935V247.223C271.935 247.607 272.015 247.874 272.174 248.023C272.345 248.162 272.633 248.231 273.039 248.231H274.031V249.975H272.639ZM280.697 249.975V238.775H284.841C285.737 238.775 286.479 238.924 287.065 239.223C287.652 239.522 288.089 239.932 288.377 240.455C288.665 240.978 288.809 241.564 288.809 242.215C288.809 242.834 288.671 243.404 288.393 243.927C288.116 244.439 287.684 244.855 287.097 245.175C286.511 245.484 285.759 245.639 284.841 245.639H282.745V249.975H280.697ZM282.745 243.975H284.713C285.428 243.975 285.94 243.82 286.249 243.511C286.569 243.191 286.729 242.759 286.729 242.215C286.729 241.66 286.569 241.228 286.249 240.919C285.94 240.599 285.428 240.439 284.713 240.439H282.745V243.975ZM294.318 250.167C293.518 250.167 292.809 249.996 292.19 249.655C291.571 249.314 291.086 248.834 290.734 248.215C290.382 247.596 290.206 246.882 290.206 246.071C290.206 245.25 290.377 244.519 290.718 243.879C291.07 243.239 291.55 242.743 292.158 242.391C292.777 242.028 293.502 241.847 294.334 241.847C295.113 241.847 295.801 242.018 296.398 242.359C296.995 242.7 297.459 243.17 297.79 243.767C298.131 244.354 298.302 245.01 298.302 245.735C298.302 245.852 298.297 245.975 298.286 246.103C298.286 246.231 298.281 246.364 298.27 246.503H292.238C292.281 247.122 292.494 247.607 292.878 247.959C293.273 248.311 293.747 248.487 294.302 248.487C294.718 248.487 295.065 248.396 295.342 248.215C295.63 248.023 295.843 247.778 295.982 247.479H298.062C297.913 247.98 297.662 248.439 297.31 248.855C296.969 249.26 296.542 249.58 296.03 249.815C295.529 250.05 294.958 250.167 294.318 250.167ZM294.334 243.511C293.833 243.511 293.39 243.655 293.006 243.943C292.622 244.22 292.377 244.647 292.27 245.223H296.222C296.19 244.7 295.998 244.284 295.646 243.975C295.294 243.666 294.857 243.511 294.334 243.511ZM300.524 249.975V242.039H302.348L302.54 243.527C302.828 243.015 303.218 242.61 303.708 242.311C304.21 242.002 304.796 241.847 305.468 241.847V244.007H304.892C304.444 244.007 304.044 244.076 303.692 244.215C303.34 244.354 303.063 244.594 302.86 244.935C302.668 245.276 302.572 245.751 302.572 246.359V249.975H300.524ZM307.736 249.975V243.751H306.648V242.039H307.736V241.111C307.736 240.151 307.976 239.468 308.456 239.063C308.947 238.658 309.608 238.455 310.44 238.455H311.32V240.199H310.76C310.408 240.199 310.157 240.268 310.008 240.407C309.859 240.546 309.784 240.78 309.784 241.111V242.039H311.496V243.751H309.784V249.975H307.736ZM317.114 250.167C316.346 250.167 315.652 249.991 315.034 249.639C314.426 249.287 313.94 248.802 313.578 248.183C313.226 247.554 313.05 246.828 313.05 246.007C313.05 245.186 313.231 244.466 313.594 243.847C313.956 243.218 314.442 242.727 315.05 242.375C315.668 242.023 316.362 241.847 317.13 241.847C317.887 241.847 318.57 242.023 319.178 242.375C319.796 242.727 320.282 243.218 320.634 243.847C320.996 244.466 321.178 245.186 321.178 246.007C321.178 246.828 320.996 247.554 320.634 248.183C320.282 248.802 319.796 249.287 319.178 249.639C318.559 249.991 317.871 250.167 317.114 250.167ZM317.114 248.391C317.647 248.391 318.111 248.194 318.506 247.799C318.9 247.394 319.098 246.796 319.098 246.007C319.098 245.218 318.9 244.626 318.506 244.231C318.111 243.826 317.652 243.623 317.13 243.623C316.586 243.623 316.116 243.826 315.722 244.231C315.338 244.626 315.146 245.218 315.146 246.007C315.146 246.796 315.338 247.394 315.722 247.799C316.116 248.194 316.58 248.391 317.114 248.391ZM323.509 249.975V242.039H325.333L325.525 243.527C325.813 243.015 326.202 242.61 326.693 242.311C327.194 242.002 327.781 241.847 328.453 241.847V244.007H327.877C327.429 244.007 327.029 244.076 326.677 244.215C326.325 244.354 326.047 244.594 325.845 244.935C325.653 245.276 325.557 245.751 325.557 246.359V249.975H323.509ZM330.353 249.975V242.039H332.161L332.337 243.111C332.593 242.727 332.929 242.423 333.345 242.199C333.771 241.964 334.262 241.847 334.817 241.847C336.043 241.847 336.913 242.322 337.425 243.271C337.713 242.834 338.097 242.487 338.577 242.231C339.067 241.975 339.601 241.847 340.177 241.847C341.211 241.847 342.006 242.156 342.561 242.775C343.115 243.394 343.393 244.3 343.393 245.495V249.975H341.345V245.687C341.345 245.004 341.211 244.482 340.945 244.119C340.689 243.756 340.289 243.575 339.745 243.575C339.19 243.575 338.742 243.778 338.401 244.183C338.07 244.588 337.905 245.154 337.905 245.879V249.975H335.857V245.687C335.857 245.004 335.723 244.482 335.457 244.119C335.19 243.756 334.779 243.575 334.225 243.575C333.681 243.575 333.238 243.778 332.897 244.183C332.566 244.588 332.401 245.154 332.401 245.879V249.975H330.353ZM348.573 250.167C347.89 250.167 347.33 250.06 346.893 249.847C346.456 249.623 346.13 249.33 345.917 248.967C345.704 248.604 345.597 248.204 345.597 247.767C345.597 247.031 345.885 246.434 346.461 245.975C347.037 245.516 347.901 245.287 349.053 245.287H351.069V245.095C351.069 244.551 350.914 244.151 350.605 243.895C350.296 243.639 349.912 243.511 349.453 243.511C349.037 243.511 348.674 243.612 348.365 243.815C348.056 244.007 347.864 244.295 347.789 244.679H345.789C345.842 244.103 346.034 243.602 346.365 243.175C346.706 242.748 347.144 242.423 347.677 242.199C348.21 241.964 348.808 241.847 349.469 241.847C350.6 241.847 351.49 242.13 352.141 242.695C352.792 243.26 353.117 244.06 353.117 245.095V249.975H351.373L351.181 248.695C350.946 249.122 350.616 249.474 350.189 249.751C349.773 250.028 349.234 250.167 348.573 250.167ZM349.037 248.567C349.624 248.567 350.077 248.375 350.397 247.991C350.728 247.607 350.936 247.132 351.021 246.567H349.277C348.733 246.567 348.344 246.668 348.109 246.871C347.874 247.063 347.757 247.303 347.757 247.591C347.757 247.9 347.874 248.14 348.109 248.311C348.344 248.482 348.653 248.567 349.037 248.567ZM355.571 249.975V242.039H357.379L357.539 243.383C357.785 242.914 358.137 242.54 358.595 242.263C359.065 241.986 359.614 241.847 360.243 241.847C361.225 241.847 361.987 242.156 362.531 242.775C363.075 243.394 363.347 244.3 363.347 245.495V249.975H361.299V245.687C361.299 245.004 361.161 244.482 360.883 244.119C360.606 243.756 360.174 243.575 359.587 243.575C359.011 243.575 358.537 243.778 358.163 244.183C357.801 244.588 357.619 245.154 357.619 245.879V249.975H355.571ZM369.694 250.167C368.883 250.167 368.168 249.991 367.55 249.639C366.931 249.287 366.44 248.796 366.078 248.167C365.726 247.538 365.55 246.818 365.55 246.007C365.55 245.196 365.726 244.476 366.078 243.847C366.44 243.218 366.931 242.727 367.55 242.375C368.168 242.023 368.883 241.847 369.694 241.847C370.707 241.847 371.56 242.114 372.254 242.647C372.947 243.17 373.39 243.895 373.582 244.823H371.422C371.315 244.439 371.102 244.14 370.782 243.927C370.472 243.703 370.104 243.591 369.678 243.591C369.112 243.591 368.632 243.804 368.238 244.231C367.843 244.658 367.646 245.25 367.646 246.007C367.646 246.764 367.843 247.356 368.238 247.783C368.632 248.21 369.112 248.423 369.678 248.423C370.104 248.423 370.472 248.316 370.782 248.103C371.102 247.89 371.315 247.586 371.422 247.191H373.582C373.39 248.087 372.947 248.807 372.254 249.351C371.56 249.895 370.707 250.167 369.694 250.167ZM379.755 250.167C378.955 250.167 378.246 249.996 377.627 249.655C377.009 249.314 376.523 248.834 376.171 248.215C375.819 247.596 375.643 246.882 375.643 246.071C375.643 245.25 375.814 244.519 376.155 243.879C376.507 243.239 376.987 242.743 377.595 242.391C378.214 242.028 378.939 241.847 379.771 241.847C380.55 241.847 381.238 242.018 381.835 242.359C382.433 242.7 382.897 243.17 383.227 243.767C383.569 244.354 383.739 245.01 383.739 245.735C383.739 245.852 383.734 245.975 383.723 246.103C383.723 246.231 383.718 246.364 383.707 246.503H377.675C377.718 247.122 377.931 247.607 378.315 247.959C378.71 248.311 379.185 248.487 379.739 248.487C380.155 248.487 380.502 248.396 380.779 248.215C381.067 248.023 381.281 247.778 381.419 247.479H383.499C383.35 247.98 383.099 248.439 382.747 248.855C382.406 249.26 381.979 249.58 381.467 249.815C380.966 250.05 380.395 250.167 379.755 250.167ZM379.771 243.511C379.27 243.511 378.827 243.655 378.443 243.943C378.059 244.22 377.814 244.647 377.707 245.223H381.659C381.627 244.7 381.435 244.284 381.083 243.975C380.731 243.666 380.294 243.511 379.771 243.511Z" fill="black"/>
<path d="M1.632 146.975V130.175H7.8C9.144 130.175 10.248 130.407 11.112 130.871C11.992 131.319 12.648 131.935 13.08 132.719C13.512 133.487 13.728 134.343 13.728 135.287C13.728 136.311 13.456 137.247 12.912 138.095C12.384 138.943 11.552 139.559 10.416 139.943L13.896 146.975H10.368L7.248 140.351H4.704V146.975H1.632ZM4.704 138.095H7.608C8.632 138.095 9.384 137.847 9.864 137.351C10.344 136.855 10.584 136.199 10.584 135.383C10.584 134.583 10.344 133.943 9.864 133.463C9.4 132.983 8.64 132.743 7.584 132.743H4.704V138.095ZM22.0706 147.263C20.8706 147.263 19.8066 147.007 18.8786 146.495C17.9506 145.983 17.2226 145.263 16.6946 144.335C16.1666 143.407 15.9026 142.335 15.9026 141.119C15.9026 139.887 16.1586 138.791 16.6706 137.831C17.1986 136.871 17.9186 136.127 18.8306 135.599C19.7586 135.055 20.8466 134.783 22.0946 134.783C23.2626 134.783 24.2946 135.039 25.1906 135.551C26.0866 136.063 26.7826 136.767 27.2786 137.663C27.7906 138.543 28.0466 139.527 28.0466 140.615C28.0466 140.791 28.0386 140.975 28.0226 141.167C28.0226 141.359 28.0146 141.559 27.9986 141.767H18.9506C19.0146 142.695 19.3346 143.423 19.9106 143.951C20.5026 144.479 21.2146 144.743 22.0466 144.743C22.6706 144.743 23.1906 144.607 23.6066 144.335C24.0386 144.047 24.3586 143.679 24.5666 143.231H27.6866C27.4626 143.983 27.0866 144.671 26.5586 145.295C26.0466 145.903 25.4066 146.383 24.6386 146.735C23.8866 147.087 23.0306 147.263 22.0706 147.263ZM22.0946 137.279C21.3426 137.279 20.6786 137.495 20.1026 137.927C19.5266 138.343 19.1586 138.983 18.9986 139.847H24.9266C24.8786 139.063 24.5906 138.439 24.0626 137.975C23.5346 137.511 22.8786 137.279 22.0946 137.279ZM36.2234 146.975C34.9754 146.975 33.9754 146.671 33.2234 146.063C32.4714 145.455 32.0954 144.375 32.0954 142.823V137.639H30.0554V135.071H32.0954L32.4554 131.879H35.1674V135.071H38.3834V137.639H35.1674V142.847C35.1674 143.423 35.2874 143.823 35.5274 144.047C35.7834 144.255 36.2154 144.359 36.8234 144.359H38.3114V146.975H36.2234ZM45.9849 147.263C44.4969 147.263 43.3449 146.799 42.5289 145.871C41.7289 144.943 41.3289 143.583 41.3289 141.791V135.071H44.3769V141.503C44.3769 142.527 44.5849 143.311 45.0009 143.855C45.4169 144.399 46.0729 144.671 46.9689 144.671C47.8169 144.671 48.5129 144.367 49.0569 143.759C49.6169 143.151 49.8969 142.303 49.8969 141.215V135.071H52.9689V146.975H50.2569L50.0169 144.959C49.6489 145.663 49.1129 146.223 48.4089 146.639C47.7209 147.055 46.9129 147.263 45.9849 147.263ZM56.6225 146.975V135.071H59.3585L59.6465 137.303C60.0785 136.535 60.6625 135.927 61.3985 135.479C62.1505 135.015 63.0305 134.783 64.0385 134.783V138.023H63.1745C62.5025 138.023 61.9025 138.127 61.3745 138.335C60.8465 138.543 60.4305 138.903 60.1265 139.415C59.8385 139.927 59.6945 140.639 59.6945 141.551V146.975H56.6225ZM66.6381 146.975V135.071H69.3501L69.5901 137.087C69.9581 136.383 70.4861 135.823 71.1741 135.407C71.8781 134.991 72.7021 134.783 73.6461 134.783C75.1181 134.783 76.2621 135.247 77.0781 136.175C77.8941 137.103 78.3021 138.463 78.3021 140.255V146.975H75.2301V140.543C75.2301 139.519 75.0221 138.735 74.6061 138.191C74.1901 137.647 73.5421 137.375 72.6621 137.375C71.7981 137.375 71.0861 137.679 70.5261 138.287C69.9821 138.895 69.7101 139.743 69.7101 140.831V146.975H66.6381Z" fill="black"/>
<path d="M227.336 74.7792C226.216 74.7792 225.235 74.5338 224.392 74.0432C223.56 73.5525 222.904 72.8752 222.424 72.0112C221.955 71.1365 221.72 70.1285 221.72 68.9872C221.72 67.8458 221.955 66.8432 222.424 65.9792C222.904 65.1045 223.56 64.4218 224.392 63.9312C225.235 63.4405 226.216 63.1952 227.336 63.1952C228.445 63.1952 229.421 63.4405 230.264 63.9312C231.107 64.4218 231.763 65.1045 232.232 65.9792C232.701 66.8432 232.936 67.8458 232.936 68.9872C232.936 70.1285 232.701 71.1365 232.232 72.0112C231.763 72.8752 231.107 73.5525 230.264 74.0432C229.421 74.5338 228.445 74.7792 227.336 74.7792ZM227.336 72.9392C228.403 72.9392 229.251 72.5872 229.88 71.8832C230.52 71.1792 230.84 70.2138 230.84 68.9872C230.84 67.7605 230.52 66.7952 229.88 66.0912C229.251 65.3872 228.403 65.0352 227.336 65.0352C226.269 65.0352 225.416 65.3872 224.776 66.0912C224.136 66.7952 223.816 67.7605 223.816 68.9872C223.816 70.2138 224.136 71.1792 224.776 71.8832C225.416 72.5872 226.269 72.9392 227.336 72.9392ZM238.117 74.5872L234.021 63.3872H236.213L239.381 72.4912L242.565 63.3872H244.725L240.629 74.5872H238.117ZM249.165 74.5872V65.0352H245.901V63.3872H254.493V65.0352H251.213V74.5872H249.165ZM256.51 74.5872V63.3872H258.558V72.9872H263.518V74.5872H256.51ZM267.125 74.5872V70.6032L263.365 63.3872H265.685L268.165 68.5552L270.629 63.3872H272.917L269.173 70.6032V74.5872H267.125ZM274.729 74.5872V63.3872H278.841C279.737 63.3872 280.473 63.5418 281.049 63.8512C281.635 64.1498 282.073 64.5605 282.361 65.0832C282.649 65.5952 282.793 66.1658 282.793 66.7952C282.793 67.4778 282.611 68.1018 282.249 68.6672C281.897 69.2325 281.342 69.6432 280.585 69.8992L282.905 74.5872H280.553L278.473 70.1712H276.777V74.5872H274.729ZM276.777 68.6672H278.713C279.395 68.6672 279.897 68.5018 280.217 68.1712C280.537 67.8405 280.697 67.4032 280.697 66.8592C280.697 66.3258 280.537 65.8992 280.217 65.5792C279.907 65.2592 279.401 65.0992 278.697 65.0992H276.777V68.6672ZM289.51 74.5872V63.3872H293.654C294.55 63.3872 295.291 63.5365 295.878 63.8352C296.465 64.1338 296.902 64.5445 297.19 65.0672C297.478 65.5898 297.622 66.1765 297.622 66.8272C297.622 67.4458 297.483 68.0165 297.206 68.5392C296.929 69.0512 296.497 69.4672 295.91 69.7872C295.323 70.0965 294.571 70.2512 293.654 70.2512H291.558V74.5872H289.51ZM291.558 68.5872H293.526C294.241 68.5872 294.753 68.4325 295.062 68.1232C295.382 67.8032 295.542 67.3712 295.542 66.8272C295.542 66.2725 295.382 65.8405 295.062 65.5312C294.753 65.2112 294.241 65.0512 293.526 65.0512H291.558V68.5872ZM303.13 74.7792C302.33 74.7792 301.621 74.6085 301.002 74.2672C300.384 73.9258 299.898 73.4458 299.546 72.8272C299.194 72.2085 299.018 71.4938 299.018 70.6832C299.018 69.8618 299.189 69.1312 299.53 68.4912C299.882 67.8512 300.362 67.3552 300.97 67.0032C301.589 66.6405 302.314 66.4592 303.146 66.4592C303.925 66.4592 304.613 66.6298 305.21 66.9712C305.808 67.3125 306.272 67.7818 306.602 68.3792C306.944 68.9658 307.114 69.6218 307.114 70.3472C307.114 70.4645 307.109 70.5872 307.098 70.7152C307.098 70.8432 307.093 70.9765 307.082 71.1152H301.05C301.093 71.7338 301.306 72.2192 301.69 72.5712C302.085 72.9232 302.56 73.0992 303.114 73.0992C303.53 73.0992 303.877 73.0085 304.154 72.8272C304.442 72.6352 304.656 72.3898 304.794 72.0912H306.874C306.725 72.5925 306.474 73.0512 306.122 73.4672C305.781 73.8725 305.354 74.1925 304.842 74.4272C304.341 74.6618 303.77 74.7792 303.13 74.7792ZM303.146 68.1232C302.645 68.1232 302.202 68.2672 301.818 68.5552C301.434 68.8325 301.189 69.2592 301.082 69.8352H305.034C305.002 69.3125 304.81 68.8965 304.458 68.5872C304.106 68.2778 303.669 68.1232 303.146 68.1232ZM309.337 74.5872V66.6512H311.161L311.353 68.1392C311.641 67.6272 312.03 67.2218 312.521 66.9232C313.022 66.6138 313.609 66.4592 314.281 66.4592V68.6192H313.705C313.257 68.6192 312.857 68.6885 312.505 68.8272C312.153 68.9658 311.876 69.2058 311.673 69.5472C311.481 69.8885 311.385 70.3632 311.385 70.9712V74.5872H309.337ZM316.549 74.5872V68.3632H315.461V66.6512H316.549V65.7232C316.549 64.7632 316.789 64.0805 317.269 63.6752C317.759 63.2698 318.421 63.0672 319.253 63.0672H320.133V64.8112H319.573C319.221 64.8112 318.97 64.8805 318.821 65.0192C318.671 65.1578 318.597 65.3925 318.597 65.7232V66.6512H320.309V68.3632H318.597V74.5872H316.549ZM325.926 74.7792C325.158 74.7792 324.465 74.6032 323.846 74.2512C323.238 73.8992 322.753 73.4138 322.39 72.7952C322.038 72.1658 321.862 71.4405 321.862 70.6192C321.862 69.7978 322.043 69.0778 322.406 68.4592C322.769 67.8298 323.254 67.3392 323.862 66.9872C324.481 66.6352 325.174 66.4592 325.942 66.4592C326.699 66.4592 327.382 66.6352 327.99 66.9872C328.609 67.3392 329.094 67.8298 329.446 68.4592C329.809 69.0778 329.99 69.7978 329.99 70.6192C329.99 71.4405 329.809 72.1658 329.446 72.7952C329.094 73.4138 328.609 73.8992 327.99 74.2512C327.371 74.6032 326.683 74.7792 325.926 74.7792ZM325.926 73.0032C326.459 73.0032 326.923 72.8058 327.318 72.4112C327.713 72.0058 327.91 71.4085 327.91 70.6192C327.91 69.8298 327.713 69.2378 327.318 68.8432C326.923 68.4378 326.465 68.2352 325.942 68.2352C325.398 68.2352 324.929 68.4378 324.534 68.8432C324.15 69.2378 323.958 69.8298 323.958 70.6192C323.958 71.4085 324.15 72.0058 324.534 72.4112C324.929 72.8058 325.393 73.0032 325.926 73.0032ZM332.321 74.5872V66.6512H334.145L334.337 68.1392C334.625 67.6272 335.015 67.2218 335.505 66.9232C336.007 66.6138 336.593 66.4592 337.265 66.4592V68.6192H336.689C336.241 68.6192 335.841 68.6885 335.489 68.8272C335.137 68.9658 334.86 69.2058 334.657 69.5472C334.465 69.8885 334.369 70.3632 334.369 70.9712V74.5872H332.321ZM339.165 74.5872V66.6512H340.973L341.149 67.7232C341.405 67.3392 341.741 67.0352 342.157 66.8112C342.584 66.5765 343.074 66.4592 343.629 66.4592C344.856 66.4592 345.725 66.9338 346.237 67.8832C346.525 67.4458 346.909 67.0992 347.389 66.8432C347.88 66.5872 348.413 66.4592 348.989 66.4592C350.024 66.4592 350.818 66.7685 351.373 67.3872C351.928 68.0058 352.205 68.9125 352.205 70.1072V74.5872H350.157V70.2992C350.157 69.6165 350.024 69.0938 349.757 68.7312C349.501 68.3685 349.101 68.1872 348.557 68.1872C348.002 68.1872 347.554 68.3898 347.213 68.7952C346.882 69.2005 346.717 69.7658 346.717 70.4912V74.5872H344.669V70.2992C344.669 69.6165 344.536 69.0938 344.269 68.7312C344.002 68.3685 343.592 68.1872 343.037 68.1872C342.493 68.1872 342.05 68.3898 341.709 68.7952C341.378 69.2005 341.213 69.7658 341.213 70.4912V74.5872H339.165ZM357.385 74.7792C356.703 74.7792 356.143 74.6725 355.705 74.4592C355.268 74.2352 354.943 73.9418 354.729 73.5792C354.516 73.2165 354.409 72.8165 354.409 72.3792C354.409 71.6432 354.697 71.0458 355.273 70.5872C355.849 70.1285 356.713 69.8992 357.865 69.8992H359.881V69.7072C359.881 69.1632 359.727 68.7632 359.417 68.5072C359.108 68.2512 358.724 68.1232 358.265 68.1232C357.849 68.1232 357.487 68.2245 357.177 68.4272C356.868 68.6192 356.676 68.9072 356.601 69.2912H354.601C354.655 68.7152 354.847 68.2138 355.177 67.7872C355.519 67.3605 355.956 67.0352 356.489 66.8112C357.023 66.5765 357.62 66.4592 358.281 66.4592C359.412 66.4592 360.303 66.7418 360.953 67.3072C361.604 67.8725 361.929 68.6725 361.929 69.7072V74.5872H360.185L359.993 73.3072C359.759 73.7338 359.428 74.0858 359.001 74.3632C358.585 74.6405 358.047 74.7792 357.385 74.7792ZM357.849 73.1792C358.436 73.1792 358.889 72.9872 359.209 72.6032C359.54 72.2192 359.748 71.7445 359.833 71.1792H358.089C357.545 71.1792 357.156 71.2805 356.921 71.4832C356.687 71.6752 356.569 71.9152 356.569 72.2032C356.569 72.5125 356.687 72.7525 356.921 72.9232C357.156 73.0938 357.465 73.1792 357.849 73.1792ZM364.384 74.5872V66.6512H366.192L366.352 67.9952C366.597 67.5258 366.949 67.1525 367.408 66.8752C367.877 66.5978 368.426 66.4592 369.056 66.4592C370.037 66.4592 370.8 66.7685 371.344 67.3872C371.888 68.0058 372.16 68.9125 372.16 70.1072V74.5872H370.112V70.2992C370.112 69.6165 369.973 69.0938 369.696 68.7312C369.418 68.3685 368.986 68.1872 368.4 68.1872C367.824 68.1872 367.349 68.3898 366.976 68.7952C366.613 69.2005 366.432 69.7658 366.432 70.4912V74.5872H364.384ZM378.506 74.7792C377.695 74.7792 376.981 74.6032 376.362 74.2512C375.743 73.8992 375.253 73.4085 374.89 72.7792C374.538 72.1498 374.362 71.4298 374.362 70.6192C374.362 69.8085 374.538 69.0885 374.89 68.4592C375.253 67.8298 375.743 67.3392 376.362 66.9872C376.981 66.6352 377.695 66.4592 378.506 66.4592C379.519 66.4592 380.373 66.7258 381.066 67.2592C381.759 67.7818 382.202 68.5072 382.394 69.4352H380.234C380.127 69.0512 379.914 68.7525 379.594 68.5392C379.285 68.3152 378.917 68.2032 378.49 68.2032C377.925 68.2032 377.445 68.4165 377.05 68.8432C376.655 69.2698 376.458 69.8618 376.458 70.6192C376.458 71.3765 376.655 71.9685 377.05 72.3952C377.445 72.8218 377.925 73.0352 378.49 73.0352C378.917 73.0352 379.285 72.9285 379.594 72.7152C379.914 72.5018 380.127 72.1978 380.234 71.8032H382.394C382.202 72.6992 381.759 73.4192 381.066 73.9632C380.373 74.5072 379.519 74.7792 378.506 74.7792ZM388.568 74.7792C387.768 74.7792 387.059 74.6085 386.44 74.2672C385.821 73.9258 385.336 73.4458 384.984 72.8272C384.632 72.2085 384.456 71.4938 384.456 70.6832C384.456 69.8618 384.627 69.1312 384.968 68.4912C385.32 67.8512 385.8 67.3552 386.408 67.0032C387.027 66.6405 387.752 66.4592 388.584 66.4592C389.363 66.4592 390.051 66.6298 390.648 66.9712C391.245 67.3125 391.709 67.7818 392.04 68.3792C392.381 68.9658 392.552 69.6218 392.552 70.3472C392.552 70.4645 392.547 70.5872 392.536 70.7152C392.536 70.8432 392.531 70.9765 392.52 71.1152H386.488C386.531 71.7338 386.744 72.2192 387.128 72.5712C387.523 72.9232 387.997 73.0992 388.552 73.0992C388.968 73.0992 389.315 73.0085 389.592 72.8272C389.88 72.6352 390.093 72.3898 390.232 72.0912H392.312C392.163 72.5925 391.912 73.0512 391.56 73.4672C391.219 73.8725 390.792 74.1925 390.28 74.4272C389.779 74.6618 389.208 74.7792 388.568 74.7792ZM388.584 68.1232C388.083 68.1232 387.64 68.2672 387.256 68.5552C386.872 68.8325 386.627 69.2592 386.52 69.8352H390.472C390.44 69.3125 390.248 68.8965 389.896 68.5872C389.544 68.2778 389.107 68.1232 388.584 68.1232ZM221.816 106.587V105.099C222.499 104.534 223.16 103.974 223.8 103.419C224.451 102.864 225.027 102.315 225.528 101.771C226.04 101.227 226.445 100.699 226.744 100.187C227.053 99.6645 227.208 99.1578 227.208 98.6672C227.208 98.2085 227.08 97.8032 226.824 97.4512C226.579 97.0992 226.168 96.9232 225.592 96.9232C225.005 96.9232 224.563 97.1152 224.264 97.4992C223.965 97.8832 223.816 98.3472 223.816 98.8912H221.832C221.853 98.0698 222.035 97.3872 222.376 96.8432C222.717 96.2885 223.171 95.8778 223.736 95.6112C224.301 95.3338 224.936 95.1952 225.64 95.1952C226.781 95.1952 227.667 95.5098 228.296 96.1392C228.936 96.7578 229.256 97.5632 229.256 98.5552C229.256 99.1738 229.112 99.7765 228.824 100.363C228.547 100.95 228.179 101.515 227.72 102.059C227.261 102.603 226.765 103.115 226.232 103.595C225.699 104.064 225.181 104.502 224.68 104.907H229.528V106.587H221.816ZM232.561 106.699C232.187 106.699 231.878 106.582 231.633 106.347C231.398 106.112 231.281 105.83 231.281 105.499C231.281 105.158 231.398 104.87 231.633 104.635C231.878 104.4 232.187 104.283 232.561 104.283C232.934 104.283 233.238 104.4 233.473 104.635C233.718 104.87 233.841 105.158 233.841 105.499C233.841 105.83 233.718 106.112 233.473 106.347C233.238 106.582 232.934 106.699 232.561 106.699ZM235.8 106.587V105.099C236.483 104.534 237.144 103.974 237.784 103.419C238.435 102.864 239.011 102.315 239.512 101.771C240.024 101.227 240.43 100.699 240.728 100.187C241.038 99.6645 241.192 99.1578 241.192 98.6672C241.192 98.2085 241.064 97.8032 240.808 97.4512C240.563 97.0992 240.152 96.9232 239.576 96.9232C238.99 96.9232 238.547 97.1152 238.248 97.4992C237.95 97.8832 237.8 98.3472 237.8 98.8912H235.816C235.838 98.0698 236.019 97.3872 236.36 96.8432C236.702 96.2885 237.155 95.8778 237.72 95.6112C238.286 95.3338 238.92 95.1952 239.624 95.1952C240.766 95.1952 241.651 95.5098 242.28 96.1392C242.92 96.7578 243.24 97.5632 243.24 98.5552C243.24 99.1738 243.096 99.7765 242.808 100.363C242.531 100.95 242.163 101.515 241.704 102.059C241.246 102.603 240.75 103.115 240.216 103.595C239.683 104.064 239.166 104.502 238.664 104.907H243.512V106.587H235.8ZM249.729 106.779C248.908 106.779 248.198 106.635 247.601 106.347C247.014 106.059 246.55 105.664 246.209 105.163C245.878 104.651 245.686 104.075 245.633 103.435H247.633C247.729 103.894 247.964 104.278 248.337 104.587C248.71 104.886 249.174 105.035 249.729 105.035C250.326 105.035 250.812 104.816 251.185 104.379C251.569 103.942 251.761 103.398 251.761 102.747C251.761 102.075 251.569 101.542 251.185 101.147C250.812 100.752 250.337 100.555 249.761 100.555C249.281 100.555 248.865 100.672 248.513 100.907C248.161 101.142 247.91 101.435 247.761 101.787H245.793L246.753 95.3872H252.961V97.1792H248.289L247.777 99.7712C248.012 99.5152 248.332 99.3072 248.737 99.1472C249.142 98.9765 249.596 98.8912 250.097 98.8912C250.897 98.8912 251.564 99.0725 252.097 99.4352C252.63 99.7872 253.036 100.256 253.313 100.843C253.59 101.419 253.729 102.048 253.729 102.731C253.729 103.51 253.558 104.203 253.217 104.811C252.886 105.419 252.417 105.899 251.809 106.251C251.212 106.603 250.518 106.779 249.729 106.779ZM255.335 106.587L258.215 102.619L255.335 98.6512H257.527L259.543 101.467L261.543 98.6512H263.751L260.855 102.619L263.751 106.587H261.543L259.543 103.771L257.527 106.587H255.335ZM269.916 106.587V95.3872H271.964V106.587H269.916ZM274.587 106.587V98.6512H276.395L276.571 99.7232C276.827 99.3392 277.163 99.0352 277.579 98.8112C278.006 98.5765 278.496 98.4592 279.051 98.4592C280.278 98.4592 281.147 98.9338 281.659 99.8832C281.947 99.4458 282.331 99.0992 282.811 98.8432C283.302 98.5872 283.835 98.4592 284.411 98.4592C285.446 98.4592 286.24 98.7685 286.795 99.3872C287.35 100.006 287.627 100.912 287.627 102.107V106.587H285.579V102.299C285.579 101.616 285.446 101.094 285.179 100.731C284.923 100.368 284.523 100.187 283.979 100.187C283.424 100.187 282.976 100.39 282.635 100.795C282.304 101.2 282.139 101.766 282.139 102.491V106.587H280.091V102.299C280.091 101.616 279.958 101.094 279.691 100.731C279.424 100.368 279.014 100.187 278.459 100.187C277.915 100.187 277.472 100.39 277.131 100.795C276.8 101.2 276.635 101.766 276.635 102.491V106.587H274.587ZM290.071 110.107V98.6512H291.895L292.119 99.7872C292.375 99.4352 292.711 99.1258 293.127 98.8592C293.554 98.5925 294.103 98.4592 294.775 98.4592C295.522 98.4592 296.189 98.6405 296.775 99.0032C297.362 99.3658 297.826 99.8618 298.167 100.491C298.509 101.12 298.679 101.835 298.679 102.635C298.679 103.435 298.509 104.15 298.167 104.779C297.826 105.398 297.362 105.888 296.775 106.251C296.189 106.603 295.522 106.779 294.775 106.779C294.178 106.779 293.655 106.667 293.207 106.443C292.759 106.219 292.397 105.904 292.119 105.499V110.107H290.071ZM294.343 104.987C294.994 104.987 295.533 104.768 295.959 104.331C296.386 103.894 296.599 103.328 296.599 102.635C296.599 101.942 296.386 101.371 295.959 100.923C295.533 100.475 294.994 100.251 294.343 100.251C293.682 100.251 293.138 100.475 292.711 100.923C292.295 101.36 292.087 101.926 292.087 102.619C292.087 103.312 292.295 103.883 292.711 104.331C293.138 104.768 293.682 104.987 294.343 104.987ZM301.009 106.587V98.6512H302.833L303.025 100.139C303.313 99.6272 303.702 99.2218 304.193 98.9232C304.694 98.6138 305.281 98.4592 305.953 98.4592V100.619H305.377C304.929 100.619 304.529 100.688 304.177 100.827C303.825 100.966 303.547 101.206 303.345 101.547C303.153 101.888 303.057 102.363 303.057 102.971V106.587H301.009ZM311.52 106.779C310.752 106.779 310.059 106.603 309.44 106.251C308.832 105.899 308.347 105.414 307.984 104.795C307.632 104.166 307.456 103.44 307.456 102.619C307.456 101.798 307.637 101.078 308 100.459C308.363 99.8298 308.848 99.3392 309.456 98.9872C310.075 98.6352 310.768 98.4592 311.536 98.4592C312.293 98.4592 312.976 98.6352 313.584 98.9872C314.203 99.3392 314.688 99.8298 315.04 100.459C315.403 101.078 315.584 101.798 315.584 102.619C315.584 103.44 315.403 104.166 315.04 104.795C314.688 105.414 314.203 105.899 313.584 106.251C312.965 106.603 312.277 106.779 311.52 106.779ZM311.52 105.003C312.053 105.003 312.517 104.806 312.912 104.411C313.307 104.006 313.504 103.408 313.504 102.619C313.504 101.83 313.307 101.238 312.912 100.843C312.517 100.438 312.059 100.235 311.536 100.235C310.992 100.235 310.523 100.438 310.128 100.843C309.744 101.238 309.552 101.83 309.552 102.619C309.552 103.408 309.744 104.006 310.128 104.411C310.523 104.806 310.987 105.003 311.52 105.003ZM319.668 106.587L316.756 98.6512H318.9L320.916 104.651L322.932 98.6512H325.076L322.148 106.587H319.668ZM326.868 106.587V98.6512H328.676L328.852 99.7232C329.108 99.3392 329.444 99.0352 329.86 98.8112C330.287 98.5765 330.777 98.4592 331.332 98.4592C332.559 98.4592 333.428 98.9338 333.94 99.8832C334.228 99.4458 334.612 99.0992 335.092 98.8432C335.583 98.5872 336.116 98.4592 336.692 98.4592C337.727 98.4592 338.521 98.7685 339.076 99.3872C339.631 100.006 339.908 100.912 339.908 102.107V106.587H337.86V102.299C337.86 101.616 337.727 101.094 337.46 100.731C337.204 100.368 336.804 100.187 336.26 100.187C335.705 100.187 335.257 100.39 334.916 100.795C334.585 101.2 334.42 101.766 334.42 102.491V106.587H332.372V102.299C332.372 101.616 332.239 101.094 331.972 100.731C331.705 100.368 331.295 100.187 330.74 100.187C330.196 100.187 329.753 100.39 329.412 100.795C329.081 101.2 328.916 101.766 328.916 102.491V106.587H326.868ZM346.209 106.779C345.409 106.779 344.699 106.608 344.081 106.267C343.462 105.926 342.977 105.446 342.625 104.827C342.273 104.208 342.097 103.494 342.097 102.683C342.097 101.862 342.267 101.131 342.609 100.491C342.961 99.8512 343.441 99.3552 344.049 99.0032C344.667 98.6405 345.393 98.4592 346.225 98.4592C347.003 98.4592 347.691 98.6298 348.289 98.9712C348.886 99.3125 349.35 99.7818 349.681 100.379C350.022 100.966 350.193 101.622 350.193 102.347C350.193 102.464 350.187 102.587 350.177 102.715C350.177 102.843 350.171 102.976 350.161 103.115H344.129C344.171 103.734 344.385 104.219 344.769 104.571C345.163 104.923 345.638 105.099 346.193 105.099C346.609 105.099 346.955 105.008 347.233 104.827C347.521 104.635 347.734 104.39 347.873 104.091H349.953C349.803 104.592 349.553 105.051 349.201 105.467C348.859 105.872 348.433 106.192 347.921 106.427C347.419 106.662 346.849 106.779 346.209 106.779ZM346.225 100.123C345.723 100.123 345.281 100.267 344.897 100.555C344.513 100.832 344.267 101.259 344.161 101.835H348.113C348.081 101.312 347.889 100.896 347.537 100.587C347.185 100.278 346.747 100.123 346.225 100.123ZM352.415 106.587V98.6512H354.223L354.383 99.9952C354.628 99.5258 354.98 99.1525 355.439 98.8752C355.908 98.5978 356.458 98.4592 357.087 98.4592C358.068 98.4592 358.831 98.7685 359.375 99.3872C359.919 100.006 360.191 100.912 360.191 102.107V106.587H358.143V102.299C358.143 101.616 358.004 101.094 357.727 100.731C357.45 100.368 357.018 100.187 356.431 100.187C355.855 100.187 355.38 100.39 355.007 100.795C354.644 101.2 354.463 101.766 354.463 102.491V106.587H352.415ZM366.185 106.587C365.353 106.587 364.687 106.384 364.185 105.979C363.684 105.574 363.433 104.854 363.433 103.819V100.363H362.073V98.6512H363.433L363.673 96.5232H365.481V98.6512H367.625V100.363H365.481V103.835C365.481 104.219 365.561 104.486 365.721 104.635C365.892 104.774 366.18 104.843 366.585 104.843H367.577V106.587H366.185Z" fill="black"/>
<path d="M71.632 459.008V442.208H77.8C79.144 442.208 80.248 442.44 81.112 442.904C81.992 443.352 82.648 443.968 83.08 444.752C83.512 445.52 83.728 446.376 83.728 447.32C83.728 448.344 83.456 449.28 82.912 450.128C82.384 450.976 81.552 451.592 80.416 451.976L83.896 459.008H80.368L77.248 452.384H74.704V459.008H71.632ZM74.704 450.128H77.608C78.632 450.128 79.384 449.88 79.864 449.384C80.344 448.888 80.584 448.232 80.584 447.416C80.584 446.616 80.344 445.976 79.864 445.496C79.4 445.016 78.64 444.776 77.584 444.776H74.704V450.128ZM88.6691 445.256C88.1091 445.256 87.6451 445.088 87.2771 444.752C86.9251 444.416 86.7491 443.992 86.7491 443.48C86.7491 442.968 86.9251 442.552 87.2771 442.232C87.6451 441.896 88.1091 441.728 88.6691 441.728C89.2291 441.728 89.6851 441.896 90.0371 442.232C90.4051 442.552 90.5891 442.968 90.5891 443.48C90.5891 443.992 90.4051 444.416 90.0371 444.752C89.6851 445.088 89.2291 445.256 88.6691 445.256ZM87.1331 459.008V447.104H90.2051V459.008H87.1331ZM98.8316 459.296C97.7756 459.296 96.8476 459.128 96.0476 458.792C95.2476 458.44 94.6076 457.96 94.1276 457.352C93.6476 456.744 93.3596 456.04 93.2636 455.24H96.3596C96.4556 455.704 96.7116 456.104 97.1276 456.44C97.5596 456.76 98.1116 456.92 98.7836 456.92C99.4556 456.92 99.9436 456.784 100.248 456.512C100.568 456.24 100.728 455.928 100.728 455.576C100.728 455.064 100.504 454.72 100.056 454.544C99.6076 454.352 98.9836 454.168 98.1836 453.992C97.6716 453.88 97.1516 453.744 96.6236 453.584C96.0956 453.424 95.6076 453.224 95.1596 452.984C94.7276 452.728 94.3756 452.408 94.1036 452.024C93.8316 451.624 93.6956 451.136 93.6956 450.56C93.6956 449.504 94.1116 448.616 94.9436 447.896C95.7916 447.176 96.9756 446.816 98.4956 446.816C99.9036 446.816 101.024 447.144 101.856 447.8C102.704 448.456 103.208 449.36 103.368 450.512H100.464C100.288 449.632 99.6236 449.192 98.4716 449.192C97.8956 449.192 97.4476 449.304 97.1276 449.528C96.8236 449.752 96.6716 450.032 96.6716 450.368C96.6716 450.72 96.9036 451 97.3676 451.208C97.8316 451.416 98.4476 451.608 99.2156 451.784C100.048 451.976 100.808 452.192 101.496 452.432C102.2 452.656 102.76 453 103.176 453.464C103.592 453.912 103.8 454.56 103.8 455.408C103.816 456.144 103.624 456.808 103.224 457.4C102.824 457.992 102.248 458.456 101.496 458.792C100.744 459.128 99.8556 459.296 98.8316 459.296ZM107.021 459.008V441.728H110.093V451.928L114.317 447.104H117.965L113.093 452.528L118.757 459.008H114.917L110.093 453.032V459.008H107.021Z" fill="black"/>
<path d="M200.5 232.815L203.315 230L200.5 227.185L197.685 230L200.5 232.815ZM200.5 0.184525L197.685 3L200.5 5.81548L203.315 3L200.5 0.184525ZM200.988 230L200.988 3L200.012 3L200.012 230L200.988 230Z" fill="black"/>
<path d="M213.717 328.132L218.416 320.536L213.652 313.112H216.807L220.175 318.348L223.265 313.112H226.355L221.656 320.665L226.462 328.132H223.308L219.896 322.832L216.807 328.132H213.717Z" fill="black"/>
<defs>
<clipPath id="clip0_2627_48841">
<rect width="24" height="24" fill="white" transform="translate(147 449.979) rotate(-45)"/>
</clipPath>
</defs>
</svg>
