<svg xmlns="http://www.w3.org/2000/svg" width="24.422" height="25.003" viewBox="0 0 24.422 25.003">
  <g id="setting" transform="translate(-0.562 -0.258)">
    <path id="Path_39" data-name="Path 39" d="M12.125.258h1.3a3.226,3.226,0,0,1,2.026.385,3.237,3.237,0,0,1,1,1.8l.381,1.138a1.442,1.442,0,0,0,.552.678l.352.2a1.459,1.459,0,0,0,.95.118l1.4-.393a5.692,5.692,0,0,1,1.5-.3,1.848,1.848,0,0,1,.691.131c.647.263.965.816,1.447,1.652l.574,1a3.243,3.243,0,0,1,.683,1.962A3.241,3.241,0,0,1,23.9,10.4l-1.176,1.315a1.955,1.955,0,0,0,0,2.083L23.9,15.117a3.237,3.237,0,0,1,1.074,1.775,3.243,3.243,0,0,1-.683,1.962l-.574,1c-.483.837-.8,1.39-1.448,1.653a1.8,1.8,0,0,1-.691.131,5.7,5.7,0,0,1-1.5-.305l-1.395-.393a1.458,1.458,0,0,0-.951.119l-.352.2a1.441,1.441,0,0,0-.551.678l-.382,1.14a3.235,3.235,0,0,1-1,1.8,3.227,3.227,0,0,1-2.026.385h-1.3a3.227,3.227,0,0,1-2.026-.384,3.238,3.238,0,0,1-1-1.8l-.381-1.138a1.442,1.442,0,0,0-.552-.678l-.352-.2a1.459,1.459,0,0,0-.951-.119l-1.4.393a5.691,5.691,0,0,1-1.5.3,1.8,1.8,0,0,1-.691-.131c-.647-.263-.965-.816-1.447-1.652l-.574-1a3.242,3.242,0,0,1-.683-1.962,3.239,3.239,0,0,1,1.075-1.776L2.824,13.8a1.955,1.955,0,0,0,0-2.083L1.646,10.4A3.236,3.236,0,0,1,.572,8.626a3.242,3.242,0,0,1,.683-1.962l.574-1c.482-.837.8-1.39,1.448-1.653a1.8,1.8,0,0,1,.691-.131,5.7,5.7,0,0,1,1.5.305l1.395.393a1.458,1.458,0,0,0,.951-.118l.352-.2a1.442,1.442,0,0,0,.551-.678L9.1,2.443a3.234,3.234,0,0,1,1-1.8A3.226,3.226,0,0,1,12.125.258Zm6.255,6.1a3.2,3.2,0,0,1-1.458-.353l-.037-.02-.426-.247A3.176,3.176,0,0,1,15.2,4.193l-.013-.035L14.8,3a4.5,4.5,0,0,0-.371-.941,4.381,4.381,0,0,0-1-.054h-1.3a4.388,4.388,0,0,0-1,.054,4.471,4.471,0,0,0-.37.939l-.4,1.2A3.176,3.176,0,0,1,9.088,5.74l-.035.021-.429.246a3.221,3.221,0,0,1-2.174.271l-.04-.01-1.419-.4a5.492,5.492,0,0,0-1.023-.239.159.159,0,0,0-.034,0,4.549,4.549,0,0,0-.594.908l-.574,1a4.48,4.48,0,0,0-.459.909,4.477,4.477,0,0,0,.638.793L4.18,10.62a3.667,3.667,0,0,1,0,4.279l-.034.041-1.2,1.341a4.489,4.489,0,0,0-.639.794,4.478,4.478,0,0,0,.459.908l.574,1a4.576,4.576,0,0,0,.593.908.139.139,0,0,0,.035,0,5.477,5.477,0,0,0,1.022-.239L6.45,19.24a3.221,3.221,0,0,1,2.175.271l.037.02.426.247a3.176,3.176,0,0,1,1.26,1.547l.013.035.388,1.16a4.5,4.5,0,0,0,.371.941,4.377,4.377,0,0,0,1,.054h1.3a4.4,4.4,0,0,0,1-.054,4.472,4.472,0,0,0,.37-.939l.4-1.2a3.175,3.175,0,0,1,1.26-1.548l.034-.021.429-.246A3.22,3.22,0,0,1,19.1,19.24l.04.01,1.419.4a5.487,5.487,0,0,0,1.023.239.159.159,0,0,0,.034,0,4.545,4.545,0,0,0,.593-.907l.575-1a4.475,4.475,0,0,0,.459-.909,4.479,4.479,0,0,0-.637-.792L21.367,14.9a3.667,3.667,0,0,1,0-4.279l.034-.041,1.2-1.341a4.489,4.489,0,0,0,.639-.794,4.484,4.484,0,0,0-.459-.908l-.574-1a4.573,4.573,0,0,0-.593-.908.143.143,0,0,0-.034,0,5.479,5.479,0,0,0-1.022.239L19.1,6.279A3.193,3.193,0,0,1,18.38,6.36Z" transform="translate(0)" fill="#2a353d"/>
    <path id="Path_40" data-name="Path 40" d="M11.712,6.75A4.942,4.942,0,1,1,6.77,11.692,4.948,4.948,0,0,1,11.712,6.75Zm0,8.141a3.2,3.2,0,1,0-3.2-3.2A3.2,3.2,0,0,0,11.712,14.891Z" transform="translate(1.011 1.058)" fill="#2a353d"/>
  </g>
</svg>
