<svg xmlns="http://www.w3.org/2000/svg" xmlns:xlink="http://www.w3.org/1999/xlink" width="58" height="60" viewBox="0 0 58 60">
  <defs>
    <clipPath id="clip-path">
      <rect id="Rectangle_590" data-name="Rectangle 590" width="58" height="60" transform="translate(1224 1039)" fill="#fff" stroke="#707070" stroke-width="1"/>
    </clipPath>
  </defs>
  <g id="Mask_Group_30" data-name="Mask Group 30" transform="translate(-1224 -1039)" clip-path="url(#clip-path)">
    <g id="noun-share-4909407" transform="translate(1210.703 1038)">
      <path id="Path_1250" data-name="Path 1250" d="M36.412,37.708a2.614,2.614,0,0,0,2.859-.487l14.215-13.2a3.971,3.971,0,0,0,0-5.823h0L39.272,5A2.647,2.647,0,0,0,34.823,6.94v6.23H28.206A17.226,17.226,0,0,0,11,30.375v7.941a1.324,1.324,0,0,0,1.162,1.314,1.343,1.343,0,0,0,.161.009,1.324,1.324,0,0,0,1.282-1c.025-.1,2.537-9.586,14.6-9.586h6.618v6.23a2.613,2.613,0,0,0,1.588,2.426ZM28.206,26.4c-7.748,0-12.157,3.462-14.559,6.6V30.375A14.576,14.576,0,0,1,28.206,15.817h7.941a1.324,1.324,0,0,0,1.324-1.324V6.94l14.216,13.2a1.324,1.324,0,0,1,0,1.94L37.47,35.282V27.728A1.324,1.324,0,0,0,36.147,26.4Z" transform="translate(12.885 2.418)" fill="#2a353d"/>
      <path id="Path_1251" data-name="Path 1251" d="M3,51.97a6.626,6.626,0,0,0,6.618,6.618H51.97a6.626,6.626,0,0,0,6.618-6.618V36.088a1.324,1.324,0,0,0-2.647,0V51.97a3.971,3.971,0,0,1-3.971,3.971H9.618A3.971,3.971,0,0,1,5.647,51.97V9.618A3.971,3.971,0,0,1,9.618,5.647H28.147a1.324,1.324,0,0,0,0-2.647H9.618A6.626,6.626,0,0,0,3,9.618Z" transform="translate(10.297 0)" fill="#2a353d"/>
    </g>
  </g>
</svg>
