<svg xmlns="http://www.w3.org/2000/svg" xmlns:xlink="http://www.w3.org/1999/xlink" width="52" height="60" viewBox="0 0 52 60">
  <defs>
    <clipPath id="clip-path">
      <rect id="Rectangle_588" data-name="Rectangle 588" width="52" height="60" transform="translate(893 1039)" fill="#fff" stroke="#707070" stroke-width="1"/>
    </clipPath>
  </defs>
  <g id="Mask_Group_28" data-name="Mask Group 28" transform="translate(-893 -1039)" clip-path="url(#clip-path)">
    <g id="noun-sign-up-4303406" transform="translate(840.159 1022.697)">
      <path id="Path_1242" data-name="Path 1242" d="M57.607,53.927l-5.335,1.435,6.03,3.571V54.546C58.3,53.917,57.963,53.833,57.607,53.927Z" transform="translate(32.949 -1.806)" fill="#2a353d" fill-rule="evenodd"/>
      <path id="Path_1243" data-name="Path 1243" d="M40.52,58.511l-8.109,2.172a1.066,1.066,0,0,0-.689.989v5.2c0,.44.314.718.689.612l8.1-2.172Z" transform="translate(32.717 -1.735)" fill="#2a353d" fill-rule="evenodd"/>
      <path id="Path_1244" data-name="Path 1244" d="M66.672,12.261a5.539,5.539,0,0,0-1.516.157L25.368,22.055c-2.806.68-5.106,3.3-5.106,5.842V67.928c0,2.535,2.3,4.052,5.106,3.373l16.014-3.878a2.631,2.631,0,0,1-.706-1.755L25.368,69.375c-1.668.4-2.974-.462-2.974-1.966V27.378a3.8,3.8,0,0,1,2.974-3.4l39.787-9.638c1.67-.4,2.975.461,2.975,1.96V56.339a3.808,3.808,0,0,1-2.975,3.4l-1.68.4-1.095,2.191,2.773-.674c2.811-.676,5.107-3.306,5.107-5.842V15.791A3.481,3.481,0,0,0,66.672,12.261Z" transform="translate(32.579 4.046)" fill="#2a353d" fill-rule="evenodd"/>
      <path id="Path_1245" data-name="Path 1245" d="M58.259,43.714a.581.581,0,0,0-.274.01L32.418,50.5a1.061,1.061,0,0,0-.7.989v5.2a.558.558,0,0,0,.7.612l8.66-2.3,1.068-2.2L33.852,55V52.047l22.709-6.018v2.947l-9.9,2.628,2.259,1.323,9.067-2.4a1.053,1.053,0,0,0,.7-.984v-5.2A.6.6,0,0,0,58.259,43.714Z" transform="translate(32.638 -1.892)" fill="#2a353d" fill-rule="evenodd"/>
      <path id="Path_1246" data-name="Path 1246" d="M45.517,55.909l13.1,7.4-3.466,1.12a.8.8,0,0,0-.456,1.167l3.781,6.686-4.041,1.156L50.15,66.351A.806.806,0,0,0,49.233,66L45.548,67.11Zm-.749-2.387a.809.809,0,0,0-.764.459l-1.282,2.687a.752.752,0,0,0-.079.335L42.626,70.87a.813.813,0,0,0,1.037.791l4.142-1.251L52.087,77.5a.809.809,0,0,0,.921.352l5.617-1.612a.833.833,0,0,0,.5-.431l1.256-2.631a.836.836,0,0,0,0-.8l-2.7-4.638,1.67-.449a.887.887,0,0,0,.466-.514l1.272-2.8v0c.005-.005.005-.011.011-.016a.816.816,0,0,0-.252-1L45.213,53.679A.789.789,0,0,0,44.768,53.522Z" transform="translate(32.895 -1.691)" fill="#2a353d"/>
      <path id="Path_1248" data-name="Path 1248" d="M41.886,29.46v2.948L33.83,34.569V31.617Zm1.413-2.3L32.411,30.073a1.066,1.066,0,0,0-.689.989v5.2c0,.44.314.718.689.612L43.3,33.957a1.048,1.048,0,0,0,.691-.984v-5.2C43.991,27.146,43.655,27.063,43.3,27.157Z" transform="translate(32.724 5.657)" fill="#2a353d" fill-rule="evenodd"/>
      <path id="Path_1249" data-name="Path 1249" d="M56.229,25.616v2.953l-8.062,2.157V27.773Zm1.68-2.309a.545.545,0,0,0-.271.011L46.754,26.234a1.053,1.053,0,0,0-.69.984v5.2a.556.556,0,0,0,.69.612l10.884-2.921a1.048,1.048,0,0,0,.7-.98v-5.2A.592.592,0,0,0,57.91,23.307Z" transform="translate(32.905 5.612)" fill="#2a353d" fill-rule="evenodd"/>
    </g>
  </g>
</svg>
