<svg xmlns="http://www.w3.org/2000/svg" width="24.996" height="25" viewBox="0 0 24.996 25">
  <g id="stock-etf" transform="translate(-3.25 -2.25)">
    <path id="Path_35" data-name="Path 35" d="M7.212,23.019a.962.962,0,0,1-.962-.962V18.212a.962.962,0,1,1,1.923,0v3.846A.962.962,0,0,1,7.212,23.019Z" transform="translate(0.846 4.231)" fill="#2a353d"/>
    <path id="Path_36" data-name="Path 36" d="M17.212,23.865a.962.962,0,0,1-.962-.962V15.212a.962.962,0,1,1,1.923,0V22.9A.962.962,0,0,1,17.212,23.865Z" transform="translate(6.227 3.385)" fill="#2a353d"/>
    <path id="Path_37" data-name="Path 37" d="M17.212,8.019a.962.962,0,0,1-.962-.962V3.212a.962.962,0,1,1,1.923,0V7.058A.962.962,0,0,1,17.212,8.019Z" transform="translate(6.227)" fill="#2a353d"/>
    <path id="Path_38" data-name="Path 38" d="M7.212,11.865A.962.962,0,0,1,6.25,10.9V3.212a.962.962,0,1,1,1.923,0V10.9A.962.962,0,0,1,7.212,11.865Z" transform="translate(0.846)" fill="#2a353d"/>
    <path id="Path_39" data-name="Path 39" d="M8.058,20.865A6.908,6.908,0,0,1,5.427,20.6a3.5,3.5,0,0,1-1.908-1.908,6.907,6.907,0,0,1-.268-2.631,6.907,6.907,0,0,1,.268-2.631,3.5,3.5,0,0,1,1.908-1.908,6.908,6.908,0,0,1,2.631-.268,6.908,6.908,0,0,1,2.631.268A3.5,3.5,0,0,1,12.6,13.426a6.907,6.907,0,0,1,.268,2.631,6.907,6.907,0,0,1-.268,2.631A3.5,3.5,0,0,1,10.689,20.6,6.908,6.908,0,0,1,8.058,20.865Zm0-7.692a6.56,6.56,0,0,0-1.9.122,1.592,1.592,0,0,0-.867.867,6.56,6.56,0,0,0-.122,1.9,6.559,6.559,0,0,0,.122,1.9,1.592,1.592,0,0,0,.867.867,6.562,6.562,0,0,0,1.9.122,6.56,6.56,0,0,0,1.9-.122,1.592,1.592,0,0,0,.867-.867,6.56,6.56,0,0,0,.122-1.9,6.559,6.559,0,0,0-.122-1.9,1.592,1.592,0,0,0-.867-.867A6.562,6.562,0,0,0,8.058,13.173Z" transform="translate(0 2.538)" fill="#2a353d"/>
    <path id="Path_40" data-name="Path 40" d="M18.058,14.865a6.908,6.908,0,0,1-2.631-.268,3.5,3.5,0,0,1-1.908-1.908,6.908,6.908,0,0,1-.268-2.631,6.908,6.908,0,0,1,.268-2.631,3.5,3.5,0,0,1,1.908-1.908,6.907,6.907,0,0,1,2.631-.268,6.907,6.907,0,0,1,2.631.268A3.5,3.5,0,0,1,22.6,7.426a6.908,6.908,0,0,1,.268,2.631,6.908,6.908,0,0,1-.268,2.631A3.5,3.5,0,0,1,20.689,14.6,6.908,6.908,0,0,1,18.058,14.865Zm0-7.692a6.559,6.559,0,0,0-1.9.122,1.592,1.592,0,0,0-.867.867,6.562,6.562,0,0,0-.122,1.9,6.561,6.561,0,0,0,.122,1.9,1.592,1.592,0,0,0,.867.867,6.562,6.562,0,0,0,1.9.122,6.561,6.561,0,0,0,1.9-.122,1.592,1.592,0,0,0,.867-.867,6.562,6.562,0,0,0,.122-1.9,6.56,6.56,0,0,0-.122-1.9,1.592,1.592,0,0,0-.867-.867A6.56,6.56,0,0,0,18.058,7.173Z" transform="translate(5.381 0.846)" fill="#2a353d"/>
  </g>
</svg>
