<svg xmlns="http://www.w3.org/2000/svg" width="265" height="265" viewBox="0 0 265 265">
  <g id="Group_373" data-name="Group 373" transform="translate(-153.031 -32)">
    <g id="Group_427318846" data-name="Group 427318846" transform="translate(116.031 -8)">
      <path id="Path_1254" data-name="Path 1254" d="M50.707,41H288.293A12.707,12.707,0,0,1,301,53.707V291.293A12.707,12.707,0,0,1,288.293,304H50.707A12.707,12.707,0,0,1,38,291.293V53.707A12.707,12.707,0,0,1,50.707,41Z" fill="#fff" stroke="#4285f4" stroke-width="2"/>
      <path id="Path_1255" data-name="Path 1255" d="M98.827,75.355h115.5a8.022,8.022,0,0,1,6.222,2.961l15.535,19.071a1.334,1.334,0,0,1-1.033,2.175H78.1a1.334,1.334,0,0,1-1.033-2.175L92.6,78.315a8,8,0,0,1,6.223-2.961Z" fill="#8cabb6"/>
      <path id="Path_1256" data-name="Path 1256" d="M84.819,272.314h143.5a9.522,9.522,0,0,0,9.522-9.522V102.686a9.522,9.522,0,0,0-9.522-9.521H84.819a9.522,9.522,0,0,0-9.522,9.521V262.792A9.522,9.522,0,0,0,84.819,272.314Z" fill="#839eac"/>
      <path id="Path_1257" data-name="Path 1257" d="M93.527,258.652H219.621a5.83,5.83,0,0,0,5.83-5.83V112.665a5.83,5.83,0,0,0-5.83-5.83H93.527a5.83,5.83,0,0,0-5.83,5.83V252.822A5.83,5.83,0,0,0,93.527,258.652Z" fill="#536579"/>
      <path id="Path_1258" data-name="Path 1258" d="M91.8,254.129H221.34V111.358H91.8Z" fill="#688093"/>
      <path id="Path_1259" data-name="Path 1259" d="M101.642,244.1h122.7V121.4h-122.7Z" fill="#536579"/>
      <path id="Path_1260" data-name="Path 1260" d="M228.613,272.277H218.26l-7.685-18.011,27.094-3.472v12.427a9.056,9.056,0,0,1-9.056,9.056Z" opacity="0.12"/>
      <path id="Path_1261" data-name="Path 1261" d="M214.331,75.355H194.483L176.664,93.174h55.988l-12.1-14.858a8.026,8.026,0,0,0-6.223-2.961Z" fill="#fff" opacity="0.13"/>
      <path id="Path_1262" data-name="Path 1262" d="M169.482,75.355,151.663,93.174h14.456l17.828-17.819Z" fill="#fff" opacity="0.13"/>
      <path id="Path_1263" data-name="Path 1263" d="M101.632,121.392v52.342l1.709-10.052a41.743,41.743,0,0,1,41.121-34.724h75.525v-7.53Z" opacity="0.12"/>
      <path id="Path_1264" data-name="Path 1264" d="M210.565,195.573H94.76v7.073h115.8Z" fill="#8cabb6"/>
      <path id="Path_1265" data-name="Path 1265" d="M210.574,190.52H101.632l-6.872,5.053H210.574Z" fill="#839eac"/>
      <path id="Path_1266" data-name="Path 1266" d="M210.574,208.522H101.632l-6.872-5.876H210.574Z" opacity="0.12"/>
      <path id="Path_1267" data-name="Path 1267" d="M154.5,249.112c24.785,0,44.877-.883,44.877-1.973s-20.092-1.974-44.877-1.974-44.876.883-44.876,1.974S129.72,249.112,154.5,249.112Z" opacity="0.11"/>
      <path id="Path_1268" data-name="Path 1268" d="M133.706,252.018c11.567,0,20.944-.7,20.944-1.562s-9.377-1.563-20.944-1.563-20.944.7-20.944,1.563S122.139,252.018,133.706,252.018Z" opacity="0.11"/>
      <path id="Path_1269" data-name="Path 1269" d="M193.386,241.8h-41.66a.247.247,0,0,0-.247.247v4.843a.248.248,0,0,0,.247.247h41.66a.248.248,0,0,0,.247-.247v-4.843A.247.247,0,0,0,193.386,241.8Z" fill="#a1cc5c"/>
      <path id="Path_1270" data-name="Path 1270" d="M151.479,246.435h42.145v.448a.249.249,0,0,1-.247.247H151.726a.249.249,0,0,1-.247-.247Z" fill="#7ab22f"/>
      <path id="Path_1271" data-name="Path 1271" d="M177.469,241.8h-9.842v5.337h9.842Z" fill="#c4cc67"/>
      <path id="Path_1272" data-name="Path 1272" d="M176.389,241.8h-7.666v5.337h7.666Z" fill="#e8e3bd"/>
      <path id="Path_1273" data-name="Path 1273" d="M177.469,246.435h-9.842v.7h9.842Z" opacity="0.17"/>
      <path id="Path_1274" data-name="Path 1274" d="M195.853,236.465h-41.66a.247.247,0,0,0-.246.247v4.843a.246.246,0,0,0,.246.247h41.66a.246.246,0,0,0,.247-.247v-4.843A.247.247,0,0,0,195.853,236.465Z" fill="#a1cc5c"/>
      <path id="Path_1275" data-name="Path 1275" d="M153.966,241.1h42.153v.447a.247.247,0,0,1-.247.247H154.2a.246.246,0,0,1-.246-.247V241.1Z" fill="#7ab22f"/>
      <path id="Path_1276" data-name="Path 1276" d="M179.945,236.465H170.1V241.8h9.842Z" fill="#c4cc67"/>
      <path id="Path_1277" data-name="Path 1277" d="M178.857,236.465H171.19V241.8h7.667Z" fill="#e8e3bd"/>
      <path id="Path_1278" data-name="Path 1278" d="M179.945,241.1H170.1v.7h9.842Z" opacity="0.17"/>
      <path id="Path_1279" data-name="Path 1279" d="M193.386,231.12h-41.66a.247.247,0,0,0-.247.247v4.843a.247.247,0,0,0,.247.246h41.66a.247.247,0,0,0,.247-.246v-4.843A.247.247,0,0,0,193.386,231.12Z" fill="#a1cc5c"/>
      <path id="Path_1280" data-name="Path 1280" d="M151.479,235.762h42.145v.448a.244.244,0,0,1-.073.174.247.247,0,0,1-.174.072H151.726a.247.247,0,0,1-.174-.072.244.244,0,0,1-.073-.174Z" fill="#7ab22f"/>
      <path id="Path_1281" data-name="Path 1281" d="M177.469,231.12h-9.842v5.336h9.842Z" fill="#c4cc67"/>
      <path id="Path_1282" data-name="Path 1282" d="M176.389,231.12h-7.666v5.336h7.666Z" fill="#e8e3bd"/>
      <path id="Path_1283" data-name="Path 1283" d="M177.469,235.762h-9.842v.7h9.842Z" opacity="0.17"/>
      <path id="Path_1284" data-name="Path 1284" d="M163.222,231.129l14.941,16.01H157.95l-.868-16.01Z" opacity="0.17"/>
      <path id="Path_1285" data-name="Path 1285" d="M160.444,241.8h-41.66a.246.246,0,0,0-.246.247v4.843a.247.247,0,0,0,.246.247h41.66a.248.248,0,0,0,.247-.247v-4.843A.247.247,0,0,0,160.444,241.8Z" fill="#a1cc5c"/>
      <path id="Path_1286" data-name="Path 1286" d="M118.538,246.435h42.153v.448a.248.248,0,0,1-.247.247H118.793a.244.244,0,0,1-.174-.073.247.247,0,0,1-.072-.174v-.448Z" fill="#7ab22f"/>
      <path id="Path_1287" data-name="Path 1287" d="M162.921,236.465h-41.66a.248.248,0,0,0-.247.247v4.843a.247.247,0,0,0,.247.247h41.66a.246.246,0,0,0,.246-.247v-4.843A.247.247,0,0,0,162.921,236.465Z" fill="#a1cc5c"/>
      <path id="Path_1288" data-name="Path 1288" d="M121.014,241.1h42.153v.447a.246.246,0,0,1-.246.247h-41.66a.246.246,0,0,1-.247-.247Z" fill="#7ab22f"/>
      <path id="Path_1289" data-name="Path 1289" d="M160.444,231.12h-41.66a.246.246,0,0,0-.246.247v4.843a.246.246,0,0,0,.246.246h41.66a.247.247,0,0,0,.247-.246v-4.843A.247.247,0,0,0,160.444,231.12Z" fill="#a1cc5c"/>
      <path id="Path_1290" data-name="Path 1290" d="M118.538,235.762h42.153v.448a.246.246,0,0,1-.247.246H118.793a.246.246,0,0,1-.246-.246v-.448Z" fill="#7ab22f"/>
      <path id="Path_1291" data-name="Path 1291" d="M162.921,225.783h-41.66a.248.248,0,0,0-.247.247v4.843a.248.248,0,0,0,.247.247h41.66a.247.247,0,0,0,.246-.247V226.03A.247.247,0,0,0,162.921,225.783Z" fill="#a1cc5c"/>
      <path id="Path_1292" data-name="Path 1292" d="M121.014,230.425h42.153v.448a.251.251,0,0,1-.072.175.247.247,0,0,1-.174.072h-41.66a.246.246,0,0,1-.247-.247Z" fill="#7ab22f"/>
      <path id="Path_1293" data-name="Path 1293" d="M160.444,220.447h-41.66a.246.246,0,0,0-.246.246v4.843a.246.246,0,0,0,.246.247h41.66a.247.247,0,0,0,.247-.247v-4.843A.247.247,0,0,0,160.444,220.447Z" fill="#a1cc5c"/>
      <path id="Path_1294" data-name="Path 1294" d="M118.538,225.08h42.153v.42a.248.248,0,0,1-.247.247H118.793a.244.244,0,0,1-.174-.073.247.247,0,0,1-.072-.174v-.448Z" fill="#7ab22f"/>
      <path id="Path_1295" data-name="Path 1295" d="M150.722,250.337v-2.3a.356.356,0,0,0-.357-.356H134.7a.356.356,0,0,0-.356.356v2.3a.355.355,0,0,0,.356.356h15.662A.356.356,0,0,0,150.722,250.337Z" fill="#fb0"/>
      <path id="Path_1296" data-name="Path 1296" d="M150.356,247.9h-.274v2.559h.274Z" fill="#fff" opacity="0.24"/>
      <path id="Path_1297" data-name="Path 1297" d="M150.722,238.284v-2.3a.356.356,0,0,0-.357-.356H134.7a.356.356,0,0,0-.356.356v2.3a.356.356,0,0,0,.356.356h15.662A.356.356,0,0,0,150.722,238.284Z" fill="#fb0"/>
      <path id="Path_1298" data-name="Path 1298" d="M150.356,235.844h-.274V238.4h.274Z" fill="#fff" opacity="0.24"/>
      <path id="Path_1299" data-name="Path 1299" d="M152.02,241.29v-2.3a.357.357,0,0,0-.356-.356H136a.356.356,0,0,0-.356.356v2.3a.356.356,0,0,0,.356.357h15.663A.357.357,0,0,0,152.02,241.29Z" fill="#fb0"/>
      <path id="Path_1300" data-name="Path 1300" d="M151.662,238.86h-.274v2.558h.274Z" fill="#fff" opacity="0.24"/>
      <path id="Path_1301" data-name="Path 1301" d="M150.713,238.86h-.275v2.558h.275Z" fill="#fff" opacity="0.24"/>
      <path id="Path_1302" data-name="Path 1302" d="M134.7,247.678h3.755v.173a2.512,2.512,0,0,0,2.513,2.522h9.741a.311.311,0,0,1-.292.311H134.648c-.137,0-.247-.128-.293-.3a.42.42,0,0,0,.092.191.327.327,0,0,1-.075-.108.338.338,0,0,1-.026-.129v-2.294a.349.349,0,0,1,.025-.139.348.348,0,0,1,.193-.2A.349.349,0,0,1,134.7,247.678Z" opacity="0.11"/>
      <path id="Path_1303" data-name="Path 1303" d="M136.009,238.64h3.756v.183a2.513,2.513,0,0,0,2.513,2.513h9.741a.32.32,0,0,1-.292.32H135.918c-.137,0-.247-.128-.292-.311a.45.45,0,0,0,.091.2.359.359,0,0,1-.1-.247v-2.293a.348.348,0,0,1,.024-.15.367.367,0,0,1,.086-.126.343.343,0,0,1,.132-.076A.336.336,0,0,1,136.009,238.64Z" opacity="0.11"/>
      <path id="Path_1304" data-name="Path 1304" d="M142.068,238.321h-4.423a1.829,1.829,0,0,1-1.781-1.828v-.914H134.7a.364.364,0,0,0-.356.366v2.293a.336.336,0,0,0,.091.229.257.257,0,0,0,.21.128H150.42c.137,0,.256-.128.293-.311Z" opacity="0.11"/>
      <path id="Path_1305" data-name="Path 1305" d="M101.632,121.391l-9.823-10.033,121.864.064v9.969Z" opacity="0.06"/>
      <path id="Path_1306" data-name="Path 1306" d="M237.852,263.331l18.394,6.1V96.463l-18.394,6.1Z" fill="#839eac"/>
      <path id="Path_1307" data-name="Path 1307" d="M239.606,101.023h16.622V264.857h-16.6a8.363,8.363,0,0,1-3.024-.566L210.575,254.3V111.45l26.034-9.869A8.409,8.409,0,0,1,239.606,101.023Z" fill="#839eac"/>
      <path id="Path_1308" data-name="Path 1308" d="M239.606,101.023h16.622V264.857h-16.6a9,9,0,0,1-1.563-.146V101.142A8.775,8.775,0,0,1,239.606,101.023Z" fill="#688093"/>
      <path id="Path_1309" data-name="Path 1309" d="M221.705,236.393V107.219l-11.13,4.231V254.3l11.13,4.112,16.357,6.3-3.317-2.486a32.165,32.165,0,0,1-13.04-25.832Z" opacity="0.08"/>
      <path id="Path_1310" data-name="Path 1310" d="M256.246,269.426l-.018-4.569H242.457Z" opacity="0.08"/>
      <path id="Path_1311" data-name="Path 1311" d="M256.245,96.463l-.018,4.56H242.5Z" opacity="0.08"/>
      <path id="Path_1312" data-name="Path 1312" d="M238.061,264.711l2.1.146V101.023h-.439a7.9,7.9,0,0,0-1.827.174l-.2.045-2.175,161.6Z" opacity="0.08"/>
      <path id="Path_1313" data-name="Path 1313" d="M248.324,136.442a7.2,7.2,0,1,0-7.2-7.2A7.2,7.2,0,0,0,248.324,136.442Z" opacity="0.17"/>
      <path id="Path_1314" data-name="Path 1314" d="M248.131,134.879a7.2,7.2,0,1,0-7.2-7.2A7.2,7.2,0,0,0,248.131,134.879Z" fill="#b3b3b3"/>
      <path id="Path_1315" data-name="Path 1315" d="M254.519,124.343a7.328,7.328,0,0,1,.384,2.33,7.2,7.2,0,0,1-13.589,3.336,7.2,7.2,0,1,0,13.205-5.666Z" opacity="0.21"/>
      <path id="Path_1316" data-name="Path 1316" d="M249.411,122.881a7.55,7.55,0,0,1,3.564.914,6.223,6.223,0,0,0-11.057,3.884,6,6,0,0,0,.137,1.288,7.5,7.5,0,0,1,7.356-6.086Z" fill="#fff" opacity="0.28"/>
      <path id="Path_1317" data-name="Path 1317" d="M248.324,245.421a7.2,7.2,0,1,0-7.2-7.2A7.2,7.2,0,0,0,248.324,245.421Z" opacity="0.17"/>
      <path id="Path_1318" data-name="Path 1318" d="M248.131,243.849a7.2,7.2,0,1,0-7.2-7.2A7.2,7.2,0,0,0,248.131,243.849Z" fill="#b3b3b3"/>
      <path id="Path_1319" data-name="Path 1319" d="M254.519,233.322a7.2,7.2,0,0,1-13.205,5.657,7.2,7.2,0,1,0,13.205-5.657Z" opacity="0.21"/>
      <path id="Path_1320" data-name="Path 1320" d="M249.411,231.851a7.449,7.449,0,0,1,3.564.914,6.214,6.214,0,0,0-11.057,3.874,6.1,6.1,0,0,0,.137,1.3,7.5,7.5,0,0,1,7.356-6.086Z" fill="#fff" opacity="0.28"/>
      <path id="Path_1321" data-name="Path 1321" d="M248.324,209.1a7.2,7.2,0,1,0-7.2-7.2A7.2,7.2,0,0,0,248.324,209.1Z" opacity="0.17"/>
      <path id="Path_1322" data-name="Path 1322" d="M248.131,207.526a7.2,7.2,0,1,0-7.2-7.2A7.2,7.2,0,0,0,248.131,207.526Z" fill="#b3b3b3"/>
      <path id="Path_1323" data-name="Path 1323" d="M254.519,197a7.2,7.2,0,0,1-13.205,5.656A7.2,7.2,0,1,0,254.519,197Z" opacity="0.21"/>
      <path id="Path_1324" data-name="Path 1324" d="M249.411,195.518a7.449,7.449,0,0,1,3.564.914,6.214,6.214,0,0,0-11.057,3.893,6,6,0,0,0,.137,1.288,7.505,7.505,0,0,1,7.356-6.1Z" fill="#fff" opacity="0.28"/>
      <path id="Path_1325" data-name="Path 1325" d="M248.324,172.765a7.2,7.2,0,1,0-7.2-7.2A7.2,7.2,0,0,0,248.324,172.765Z" opacity="0.17"/>
      <path id="Path_1326" data-name="Path 1326" d="M248.131,171.2a7.2,7.2,0,1,0-7.2-7.2A7.2,7.2,0,0,0,248.131,171.2Z" fill="#b3b3b3"/>
      <path id="Path_1327" data-name="Path 1327" d="M254.519,160.676a7.2,7.2,0,0,1-13.205,5.656,7.2,7.2,0,1,0,13.205-5.656Z" opacity="0.21"/>
      <path id="Path_1328" data-name="Path 1328" d="M249.411,159.2a7.55,7.55,0,0,1,3.564.914A6.223,6.223,0,0,0,241.918,164a6,6,0,0,0,.137,1.288,7.5,7.5,0,0,1,7.356-6.086Z" fill="#fff" opacity="0.28"/>
      <path id="Path_1329" data-name="Path 1329" d="M221.7,107.219l16.028-5.986-.073-.429-16.6,6.214Z" opacity="0.08"/>
      <path id="Path_1330" data-name="Path 1330" d="M157.109,193.618c24.219,0,43.853-.863,43.853-1.928s-19.634-1.928-43.853-1.928-43.853.863-43.853,1.928S132.889,193.618,157.109,193.618Z" fill="#768e99"/>
      <path id="Path_1331" data-name="Path 1331" d="M188.762,185.933H148.044a.238.238,0,0,0-.238.237v4.743a.238.238,0,0,0,.238.237h40.718a.237.237,0,0,0,.238-.237V186.17A.237.237,0,0,0,188.762,185.933Z" fill="#a1cc5c"/>
      <path id="Path_1332" data-name="Path 1332" d="M147.807,190.456H189v.439a.246.246,0,0,1-.246.246h-40.71a.247.247,0,0,1-.174-.072.244.244,0,0,1-.073-.174v-.439Z" fill="#7ab22f"/>
      <path id="Path_1333" data-name="Path 1333" d="M173.21,185.933h-9.623v5.217h9.623Z" fill="#c4cc67"/>
      <path id="Path_1334" data-name="Path 1334" d="M172.15,185.933h-7.493v5.217h7.493Z" fill="#e8e3bd"/>
      <path id="Path_1335" data-name="Path 1335" d="M173.21,190.456h-9.623v.685h9.623Z" opacity="0.17"/>
      <path id="Path_1336" data-name="Path 1336" d="M191.175,180.715H150.456a.237.237,0,0,0-.237.238V185.7a.238.238,0,0,0,.237.238h40.719a.239.239,0,0,0,.238-.238v-4.742A.238.238,0,0,0,191.175,180.715Z" fill="#a1cc5c"/>
      <path id="Path_1337" data-name="Path 1337" d="M150.219,185.238h41.212v.439a.248.248,0,0,1-.247.247H150.465a.244.244,0,0,1-.174-.073.247.247,0,0,1-.072-.174Z" fill="#7ab22f"/>
      <path id="Path_1338" data-name="Path 1338" d="M175.632,180.715h-9.623v5.218h9.623Z" fill="#c4cc67"/>
      <path id="Path_1339" data-name="Path 1339" d="M174.562,180.715h-7.493v5.218h7.493Z" fill="#e8e3bd"/>
      <path id="Path_1340" data-name="Path 1340" d="M175.632,185.238h-9.623v.686h9.623Z" opacity="0.17"/>
      <path id="Path_1341" data-name="Path 1341" d="M188.762,175.5H148.044a.239.239,0,0,0-.238.238v4.742a.238.238,0,0,0,.238.238h40.718a.237.237,0,0,0,.238-.238v-4.742A.238.238,0,0,0,188.762,175.5Z" fill="#a1cc5c"/>
      <path id="Path_1342" data-name="Path 1342" d="M147.807,180.03H189v.438a.246.246,0,0,1-.246.247h-40.71a.248.248,0,0,1-.247-.247v-.438Z" fill="#7ab22f"/>
      <path id="Path_1343" data-name="Path 1343" d="M173.21,175.5h-9.623v5.218h9.623Z" fill="#c4cc67"/>
      <path id="Path_1344" data-name="Path 1344" d="M172.15,175.5h-7.493v5.218h7.493Z" fill="#e8e3bd"/>
      <path id="Path_1345" data-name="Path 1345" d="M173.21,180.03h-9.623v.685h9.623Z" opacity="0.17"/>
      <path id="Path_1346" data-name="Path 1346" d="M188.762,170.28H148.044a.238.238,0,0,0-.238.237v4.743a.238.238,0,0,0,.238.237h40.718a.237.237,0,0,0,.238-.237v-4.743A.237.237,0,0,0,188.762,170.28Z" fill="#a1cc5c"/>
      <path id="Path_1347" data-name="Path 1347" d="M147.807,174.812H189v.429a.246.246,0,0,1-.246.247h-40.71a.247.247,0,0,1-.174-.072.244.244,0,0,1-.073-.175V174.8Z" fill="#7ab22f"/>
      <path id="Path_1348" data-name="Path 1348" d="M173.21,170.28h-9.623V175.5h9.623Z" fill="#c4cc67"/>
      <path id="Path_1349" data-name="Path 1349" d="M172.15,170.28h-7.493V175.5h7.493Z" fill="#e8e3bd"/>
      <path id="Path_1350" data-name="Path 1350" d="M173.21,174.812h-9.623v.685h9.623Z" opacity="0.17"/>
      <path id="Path_1351" data-name="Path 1351" d="M191.175,165.062H150.456a.237.237,0,0,0-.237.237v4.743a.238.238,0,0,0,.237.238h40.719a.239.239,0,0,0,.238-.238V165.3A.238.238,0,0,0,191.175,165.062Z" fill="#a1cc5c"/>
      <path id="Path_1352" data-name="Path 1352" d="M150.219,169.594h41.212v.439a.248.248,0,0,1-.247.247H150.465a.244.244,0,0,1-.174-.073.247.247,0,0,1-.072-.174Z" fill="#7ab22f"/>
      <path id="Path_1353" data-name="Path 1353" d="M175.632,165.062h-9.623v5.218h9.623Z" fill="#c4cc67"/>
      <path id="Path_1354" data-name="Path 1354" d="M174.562,165.062h-7.493v5.218h7.493Z" fill="#e8e3bd"/>
      <path id="Path_1355" data-name="Path 1355" d="M175.632,169.594h-9.623v.686h9.623Z" opacity="0.17"/>
      <path id="Path_1356" data-name="Path 1356" d="M188.762,159.844H148.044a.238.238,0,0,0-.238.238v4.742a.239.239,0,0,0,.238.238h40.718a.238.238,0,0,0,.238-.238v-4.742A.237.237,0,0,0,188.762,159.844Z" fill="#a1cc5c"/>
      <path id="Path_1357" data-name="Path 1357" d="M147.807,164.376H189v.439a.247.247,0,0,1-.072.174.244.244,0,0,1-.174.073h-40.71a.249.249,0,0,1-.247-.247v-.439Z" fill="#7ab22f"/>
      <path id="Path_1358" data-name="Path 1358" d="M173.21,159.844h-9.623v5.218h9.623Z" fill="#c4cc67"/>
      <path id="Path_1359" data-name="Path 1359" d="M172.15,159.844h-7.493v5.218h7.493Z" fill="#e8e3bd"/>
      <path id="Path_1360" data-name="Path 1360" d="M173.21,164.376h-9.623v.686h9.623Z" opacity="0.17"/>
      <path id="Path_1361" data-name="Path 1361" d="M160.7,159.606l13.186,31.545H154.13l-.841-31.992Z" opacity="0.17"/>
      <path id="Path_1362" data-name="Path 1362" d="M156.569,185.933H115.851a.238.238,0,0,0-.238.237v4.743a.238.238,0,0,0,.238.237h40.718a.237.237,0,0,0,.238-.237V186.17A.237.237,0,0,0,156.569,185.933Z" fill="#a1cc5c"/>
      <path id="Path_1363" data-name="Path 1363" d="M115.586,190.456H156.78v.439a.244.244,0,0,1-.073.174.247.247,0,0,1-.174.072H115.86a.247.247,0,0,1-.174-.072.244.244,0,0,1-.073-.174v-.439Z" fill="#7ab22f"/>
      <path id="Path_1364" data-name="Path 1364" d="M158.991,180.715H118.273a.238.238,0,0,0-.238.238V185.7a.239.239,0,0,0,.238.238h40.718a.238.238,0,0,0,.238-.238v-4.742A.237.237,0,0,0,158.991,180.715Z" fill="#a1cc5c"/>
      <path id="Path_1365" data-name="Path 1365" d="M118.035,185.238h41.194v.439a.248.248,0,0,1-.247.247h-40.7a.248.248,0,0,1-.247-.247Z" fill="#7ab22f"/>
      <path id="Path_1366" data-name="Path 1366" d="M156.569,175.5H115.851a.239.239,0,0,0-.238.238v4.742a.238.238,0,0,0,.238.238h40.718a.237.237,0,0,0,.238-.238v-4.742A.238.238,0,0,0,156.569,175.5Z" fill="#a1cc5c"/>
      <path id="Path_1367" data-name="Path 1367" d="M115.586,180.03H156.78v.438a.248.248,0,0,1-.247.247H115.86a.248.248,0,0,1-.247-.247v-.438Z" fill="#7ab22f"/>
      <path id="Path_1368" data-name="Path 1368" d="M158.991,170.28H118.273a.238.238,0,0,0-.238.237v4.743a.238.238,0,0,0,.238.237h40.718a.237.237,0,0,0,.238-.237v-4.743A.237.237,0,0,0,158.991,170.28Z" fill="#a1cc5c"/>
      <path id="Path_1369" data-name="Path 1369" d="M118.035,174.812h41.194v.429a.246.246,0,0,1-.247.247h-40.7a.246.246,0,0,1-.247-.247v-.429Z" fill="#7ab22f"/>
      <path id="Path_1370" data-name="Path 1370" d="M156.569,165.062H115.851a.238.238,0,0,0-.238.237v4.743a.239.239,0,0,0,.238.238h40.718a.238.238,0,0,0,.238-.238V165.3A.237.237,0,0,0,156.569,165.062Z" fill="#a1cc5c"/>
      <path id="Path_1371" data-name="Path 1371" d="M115.586,169.594H156.78v.439a.249.249,0,0,1-.247.247H115.86a.249.249,0,0,1-.247-.247v-.439Z" fill="#7ab22f"/>
      <path id="Path_1372" data-name="Path 1372" d="M158.041,159.844H117.323a.237.237,0,0,0-.238.238v4.742a.238.238,0,0,0,.238.238h40.718a.239.239,0,0,0,.238-.238v-4.742A.238.238,0,0,0,158.041,159.844Z" fill="#a1cc5c"/>
      <path id="Path_1373" data-name="Path 1373" d="M117.085,164.376h41.194v.439a.249.249,0,0,1-.247.247h-40.7a.244.244,0,0,1-.175-.073.247.247,0,0,1-.072-.174Z" fill="#7ab22f"/>
      <path id="Path_1374" data-name="Path 1374" d="M160.463,154.626H119.744a.238.238,0,0,0-.238.238v4.742a.239.239,0,0,0,.238.238h40.719a.238.238,0,0,0,.237-.238v-4.742A.237.237,0,0,0,160.463,154.626Z" fill="#a1cc5c"/>
      <path id="Path_1375" data-name="Path 1375" d="M119.506,159.159H160.7v.438a.247.247,0,0,1-.247.247H119.744a.246.246,0,0,1-.247-.247v-.438Z" fill="#7ab22f"/>
      <path id="Path_1376" data-name="Path 1376" d="M158.041,149.408H117.323a.238.238,0,0,0-.238.238v4.743a.237.237,0,0,0,.238.237h40.718a.238.238,0,0,0,.238-.237v-4.743A.239.239,0,0,0,158.041,149.408Z" fill="#a1cc5c"/>
      <path id="Path_1377" data-name="Path 1377" d="M117.085,153.941h41.194v.439a.244.244,0,0,1-.073.174.247.247,0,0,1-.174.072h-40.7a.246.246,0,0,1-.247-.246Z" fill="#7ab22f"/>
      <path id="Path_1378" data-name="Path 1378" d="M115.311,149.408H156.03a.238.238,0,0,0,.238-.237v-4.743a.238.238,0,0,0-.238-.237H115.311a.237.237,0,0,0-.237.237v4.743A.237.237,0,0,0,115.311,149.408Z" fill="#a1cc5c"/>
      <path id="Path_1379" data-name="Path 1379" d="M156.021,149.418h-40.7a.244.244,0,0,1-.175-.073.247.247,0,0,1-.072-.174v-.439h41.194v.439a.249.249,0,0,1-.247.247Z" fill="#7ab22f"/>
      <path id="Path_1380" data-name="Path 1380" d="M112.9,144.191h40.718a.238.238,0,0,0,.238-.238V139.21a.237.237,0,0,0-.238-.237H112.9a.238.238,0,0,0-.238.237v4.743A.239.239,0,0,0,112.9,144.191Z" fill="#a1cc5c"/>
      <path id="Path_1381" data-name="Path 1381" d="M153.609,144.191h-40.7a.248.248,0,0,1-.247-.247v-.439h41.194v.439a.236.236,0,0,1-.019.094.228.228,0,0,1-.053.08.24.24,0,0,1-.08.054A.255.255,0,0,1,153.609,144.191Z" fill="#7ab22f"/>
      <path id="Path_1382" data-name="Path 1382" d="M115.311,138.982H156.03a.238.238,0,0,0,.238-.237V134a.239.239,0,0,0-.238-.238H115.311a.238.238,0,0,0-.237.238v4.743A.237.237,0,0,0,115.311,138.982Z" fill="#a1cc5c"/>
      <path id="Path_1383" data-name="Path 1383" d="M156.021,138.973h-40.7a.246.246,0,0,1-.247-.247v-.438h41.194v.438a.248.248,0,0,1-.247.247Z" fill="#7ab22f"/>
    </g>
  </g>
</svg>
