<svg xmlns="http://www.w3.org/2000/svg" xmlns:xlink="http://www.w3.org/1999/xlink" width="2560" height="600" viewBox="0 0 2560 600">
  <defs>
    <clipPath id="clip-path">
      <rect id="Rectangle_598" data-name="Rectangle 598" width="429.435" height="263.311" transform="translate(429.435 263.311) rotate(180)" fill="#fff"/>
    </clipPath>
    <clipPath id="clip-path-2">
      <rect id="Rectangle_599" data-name="Rectangle 599" width="430.564" height="262.182" transform="translate(430.564 262.182) rotate(180)" fill="#fff"/>
    </clipPath>
    <clipPath id="clip-iPhone_14_Pro_28">
      <rect width="2560" height="600"/>
    </clipPath>
  </defs>
  <g id="iPhone_14_Pro_28" data-name="iPhone 14 Pro – 28" clip-path="url(#clip-iPhone_14_Pro_28)">
    <rect width="2560" height="600" fill="#fff"/>
    <rect id="Rectangle_36" data-name="Rectangle 36" width="2560" height="600" fill="#2563eb"/>
    <g id="Group_427318766" data-name="Group 427318766" transform="translate(-1 59.08)">
      <g id="Group_374" data-name="Group 374" transform="translate(1497.049 0.92)" clip-path="url(#clip-path)">
        <path id="Path_1384" data-name="Path 1384" d="M1347.365,156.441c.933,1.719,24.922,2.26,26.882,0s.92-48.2,0-49.409-25.229-2.154-26.882,0S1346.445,154.725,1347.365,156.441Z" transform="translate(-1048.447 34.032)" fill="#235edf"/>
        <path id="Path_1385" data-name="Path 1385" d="M1356.937,171.021a1.269,1.269,0,0,0,1.267-1.251l1.24-71.327a1.28,1.28,0,0,0-1.253-1.294h-.013a1.26,1.26,0,0,0-1.267,1.25l-1.24,71.327a1.269,1.269,0,0,0,1.24,1.295Z" transform="translate(-1045.351 31.166)" fill="#235edf"/>
        <path id="Path_1386" data-name="Path 1386" d="M1222.632,110.268c.933,1.719,24.922,2.26,26.882,0s1.24-26.9.307-28.114-25.229-2.153-26.869,0S1221.711,108.55,1222.632,110.268Z" transform="translate(-1089.98 25.737)" fill="#235edf"/>
        <path id="Path_1387" data-name="Path 1387" d="M1232.247,124.848a1.258,1.258,0,0,0,1.267-1.233l1.547-50.033a1.263,1.263,0,0,0-1.227-1.312,1.28,1.28,0,0,0-1.307,1.232l-1.547,50.032a1.279,1.279,0,0,0,1.227,1.312h.04Z" transform="translate(-1086.927 22.87)" fill="#235edf"/>
        <path id="Path_1388" data-name="Path 1388" d="M1196.354,127.671c.92,1.717,24.922,2.26,26.869,0s1.24-26.9.307-28.115-25.229-2.153-26.869,0S1195.421,125.952,1196.354,127.671Z" transform="translate(-1098.745 31.539)" fill="#235edf"/>
        <path id="Path_1389" data-name="Path 1389" d="M1205.967,142.251a1.275,1.275,0,0,0,1.267-1.235l1.547-50.032a1.28,1.28,0,0,0-1.227-1.312,1.264,1.264,0,0,0-1.307,1.232l-1.547,50.032a1.263,1.263,0,0,0,1.227,1.312h.04Z" transform="translate(-1095.691 28.673)" fill="#235edf"/>
        <path id="Path_1390" data-name="Path 1390" d="M1371.865,133.743c.933,1.719,24.922,2.262,26.882,0s.92-48.2,0-49.409-25.229-2.153-26.882,0S1370.945,132.028,1371.865,133.743Z" transform="translate(-1040.277 26.464)" fill="#235edf"/>
        <path id="Path_1391" data-name="Path 1391" d="M1381.437,148.324a1.268,1.268,0,0,0,1.267-1.249l1.24-71.33a1.271,1.271,0,0,0-1.253-1.294h-.013a1.268,1.268,0,0,0-1.267,1.25l-1.24,71.328a1.267,1.267,0,0,0,1.24,1.293h.027Z" transform="translate(-1037.182 23.597)" fill="#235edf"/>
        <path id="Path_1392" data-name="Path 1392" d="M1247.647,106.621c.92,1.718,24.922,2.26,26.869,0s.933-48.2,0-49.41-25.229-2.153-26.869,0S1246.714,104.905,1247.647,106.621Z" transform="translate(-1081.699 17.42)" fill="#235edf"/>
        <path id="Path_1393" data-name="Path 1393" d="M1257.217,121.2a1.277,1.277,0,0,0,1.267-1.249l1.227-71.328a1.26,1.26,0,0,0-1.24-1.294h-.027a1.277,1.277,0,0,0-1.267,1.25l-1.227,71.327a1.27,1.27,0,0,0,1.24,1.295Z" transform="translate(-1078.601 14.554)" fill="#235edf"/>
        <path id="Path_1394" data-name="Path 1394" d="M1397.728,116.04c.92,1.718,24.922,2.26,26.869,0s1.747-77.129.813-78.343-25.229-2.153-26.869,0S1396.8,114.324,1397.728,116.04Z" transform="translate(-1031.525 10.913)" fill="#235edf"/>
        <path id="Path_1395" data-name="Path 1395" d="M1407.4,130.62a1.266,1.266,0,0,0,1.267-1.247l2.04-100.261a1.267,1.267,0,1,0-2.534-.054l-2.04,100.261a1.276,1.276,0,0,0,1.24,1.3h.027Z" transform="translate(-1028.526 8.047)" fill="#235edf"/>
        <path id="Path_1396" data-name="Path 1396" d="M1321.937,209.586c.467.848,6.56,1.411,12.854,1.491,6.427.079,13.041-.345,14.028-1.491,1.827-2.108,2.16-68.031,1.453-77.765a4.648,4.648,0,0,0-.173-1.183c-.467-.613-7.054-1-13.654-.96-.76.007-1.534.019-2.294.036-5.6.128-10.681.593-11.4,1.528-1.653,2.154-1.734,76.626-.813,78.342Z" transform="translate(-1056.795 42.011)" fill="#235edf"/>
        <path id="Path_1397" data-name="Path 1397" d="M1331.607,224.1a1.266,1.266,0,0,0,1.267-1.247l2.04-100.259a1.267,1.267,0,1,0-2.534-.055L1330.34,222.8a1.276,1.276,0,0,0,1.24,1.3Z" transform="translate(-1053.797 39.216)" fill="#235edf"/>
        <path id="Path_1398" data-name="Path 1398" d="M1424.112,117.81c.933,1.719,24.922,2.26,26.882,0s1.24-37.607.307-38.821-25.229-2.153-26.882,0S1423.192,116.094,1424.112,117.81Z" transform="translate(-1022.799 24.682)" fill="#235edf"/>
        <path id="Path_1399" data-name="Path 1399" d="M1433.727,132.39a1.262,1.262,0,0,0,1.267-1.24l1.547-60.739a1.267,1.267,0,1,0-2.534-.065l-1.547,60.739a1.273,1.273,0,0,0,1.24,1.305Z" transform="translate(-1019.746 21.815)" fill="#235edf"/>
        <path id="Path_1400" data-name="Path 1400" d="M1297.7,153.891c.92,1.719,24.922,2.259,26.869,0s1.24-37.608.307-38.823c-.213-.285-1.72-.556-3.907-.772-7.014-.7-21.108-.871-22.868.675a.459.459,0,0,0-.093.1C1296.358,117.221,1296.771,152.173,1297.7,153.891Z" transform="translate(-1064.951 36.712)" fill="#235edf"/>
        <path id="Path_1401" data-name="Path 1401" d="M1307.317,168.471a1.28,1.28,0,0,0,1.267-1.241l1.547-60.738a1.274,1.274,0,0,0-2.547-.065l-1.533,60.739a1.263,1.263,0,0,0,1.227,1.305Z" transform="translate(-1061.897 33.846)" fill="#235edf"/>
        <path id="Path_1402" data-name="Path 1402" d="M1172.451,114.036c.933,1.719,24.922,2.26,26.882,0s1.24-37.607.307-38.821-25.229-2.153-26.869,0S1171.531,112.32,1172.451,114.036Z" transform="translate(-1106.712 23.423)" fill="#235edf"/>
        <path id="Path_1403" data-name="Path 1403" d="M1182.067,128.616a1.262,1.262,0,0,0,1.267-1.24l1.547-60.74a1.263,1.263,0,0,0-1.227-1.305,1.277,1.277,0,0,0-1.307,1.241l-1.547,60.739a1.273,1.273,0,0,0,1.24,1.305Z" transform="translate(-1103.659 20.556)" fill="#235edf"/>
        <path id="Path_1404" data-name="Path 1404" d="M1148.074,90.373c.92,1.718,24.922,2.261,26.869,0s1.24-37.607.307-38.821-25.229-2.153-26.869,0S1147.141,88.657,1148.074,90.373Z" transform="translate(-1114.844 15.533)" fill="#235edf"/>
        <path id="Path_1405" data-name="Path 1405" d="M1157.687,104.955a1.28,1.28,0,0,0,1.267-1.241l1.547-60.739a1.274,1.274,0,0,0-2.547-.065l-1.533,60.739a1.262,1.262,0,0,0,1.227,1.305Z" transform="translate(-1111.789 12.667)" fill="#235edf"/>
        <path id="Path_1406" data-name="Path 1406" d="M1271.9,126.922c.934,1.717,24.922,2.26,26.882,0s1.227-37.607.307-38.821-25.229-2.153-26.882,0S1270.982,125.206,1271.9,126.922Z" transform="translate(-1073.552 27.72)" fill="#235edf"/>
        <path id="Path_1407" data-name="Path 1407" d="M1281.517,141.5a1.263,1.263,0,0,0,1.267-1.241l1.547-60.738a1.267,1.267,0,1,0-2.534-.065L1280.25,140.2a1.274,1.274,0,0,0,1.24,1.305Z" transform="translate(-1070.499 24.853)" fill="#235edf"/>
        <path id="Path_1408" data-name="Path 1408" d="M1123.937,76.712c.92,1.718,24.909,2.261,26.869,0s.934-64.7,0-65.907-25.229-2.153-26.869,0S1123,75,1123.937,76.712Z" transform="translate(-1122.949 1.946)" fill="#235edf"/>
        <path id="Path_1409" data-name="Path 1409" d="M1133.507,91.291a1.28,1.28,0,0,0,1.267-1.254L1136,2.212a1.263,1.263,0,0,0-1.24-1.29h-.027a1.271,1.271,0,0,0-1.267,1.254L1132.24,90a1.263,1.263,0,0,0,1.24,1.29Z" transform="translate(-1119.851 -0.92)" fill="#235edf"/>
      </g>
      <g id="Group_375" data-name="Group 375" transform="translate(1066.486 52.904)" clip-path="url(#clip-path-2)">
        <path id="Path_1410" data-name="Path 1410" d="M1025.056,194.759c.933,1.711,24.989,2.251,26.949,0s.933-47.992,0-49.2-25.3-2.144-26.949,0S1024.136,193.049,1025.056,194.759Z" transform="translate(-725.355 -5.103)" fill="#235edf"/>
        <path id="Path_1411" data-name="Path 1411" d="M1034.66,209.276a1.275,1.275,0,0,0,1.267-1.245l1.24-71.02a1.269,1.269,0,0,0-1.253-1.289h-.027a1.275,1.275,0,0,0-1.267,1.244l-1.24,71.022a1.269,1.269,0,0,0,1.253,1.289Z" transform="translate(-722.252 -7.957)" fill="#235edf"/>
        <path id="Path_1412" data-name="Path 1412" d="M900,148.785c.928,1.711,24.986,2.251,26.946,0s1.239-26.786.309-27.994-25.3-2.144-26.946,0S899.072,147.074,900,148.785Z" transform="translate(-766.996 -13.362)" fill="#235edf"/>
        <path id="Path_1413" data-name="Path 1413" d="M909.64,163.3a1.272,1.272,0,0,0,1.271-1.229l1.548-49.817a1.271,1.271,0,0,0-2.54-.08l-1.548,49.817A1.27,1.27,0,0,0,909.6,163.3h.04Z" transform="translate(-763.935 -16.217)" fill="#235edf"/>
        <path id="Path_1414" data-name="Path 1414" d="M873.645,166.111c.929,1.711,24.986,2.251,26.947,0s1.239-26.785.309-27.993-25.3-2.144-26.947,0S872.716,164.4,873.645,166.111Z" transform="translate(-775.784 -7.585)" fill="#235edf"/>
        <path id="Path_1415" data-name="Path 1415" d="M883.285,180.63a1.27,1.27,0,0,0,1.269-1.229l1.549-49.817a1.271,1.271,0,0,0-2.54-.08l-1.549,49.817a1.271,1.271,0,0,0,1.231,1.307h.04Z" transform="translate(-772.723 -10.439)" fill="#235edf"/>
        <path id="Path_1416" data-name="Path 1416" d="M1049.627,172.159c.92,1.711,24.989,2.251,26.949,0s.92-47.99,0-49.2-25.3-2.144-26.949,0S1048.694,170.45,1049.627,172.159Z" transform="translate(-717.164 -12.638)" fill="#235edf"/>
        <path id="Path_1417" data-name="Path 1417" d="M1059.217,186.676a1.257,1.257,0,0,0,1.267-1.245l1.24-71.023a1.265,1.265,0,0,0-1.24-1.288h-.027a1.266,1.266,0,0,0-1.267,1.244l-1.24,71.02a1.266,1.266,0,0,0,1.24,1.289h.027Z" transform="translate(-714.059 -15.493)" fill="#235edf"/>
        <path id="Path_1418" data-name="Path 1418" d="M925.074,145.153c.929,1.711,24.986,2.251,26.947,0s.929-47.991,0-49.2-25.3-2.144-26.947,0S924.146,143.443,925.074,145.153Z" transform="translate(-758.693 -21.643)" fill="#235edf"/>
        <path id="Path_1419" data-name="Path 1419" d="M934.668,159.67a1.271,1.271,0,0,0,1.271-1.245L937.178,87.4a1.269,1.269,0,0,0-1.248-1.289h-.023a1.268,1.268,0,0,0-1.27,1.244L933.4,158.381a1.269,1.269,0,0,0,1.248,1.289Z" transform="translate(-755.589 -24.497)" fill="#235edf"/>
        <path id="Path_1420" data-name="Path 1420" d="M1075.546,154.53c.933,1.711,24.989,2.251,26.949,0s1.747-76.8.813-78.006-25.3-2.144-26.949,0S1074.626,152.822,1075.546,154.53Z" transform="translate(-708.387 -28.122)" fill="#235edf"/>
        <path id="Path_1421" data-name="Path 1421" d="M1085.247,169.048a1.264,1.264,0,0,0,1.267-1.241l2.053-99.831a1.272,1.272,0,0,0-1.24-1.293,1.285,1.285,0,0,0-1.307,1.24l-2.04,99.831a1.263,1.263,0,0,0,1.24,1.292h.027Z" transform="translate(-705.38 -30.977)" fill="#235edf"/>
        <path id="Path_1422" data-name="Path 1422" d="M999.563,247.676c.461.844,6.579,1.4,12.886,1.484,6.44.079,13.068-.344,14.068-1.484,1.827-2.1,2.174-67.739,1.453-77.431a4.025,4.025,0,0,0-.173-1.177c-.467-.611-7.067-1-13.681-.956-.773.007-1.547.019-2.307.036-5.614.127-10.721.591-11.427,1.523-1.656,2.144-1.746,76.3-.819,78Z" transform="translate(-733.724 2.842)" fill="#235edf"/>
        <path id="Path_1423" data-name="Path 1423" d="M1009.257,262.123a1.265,1.265,0,0,0,1.267-1.243l2.053-99.828a1.267,1.267,0,1,0-2.533-.053l-2.054,99.83a1.273,1.273,0,0,0,1.24,1.293Z" transform="translate(-730.718 0.058)" fill="#235edf"/>
        <path id="Path_1424" data-name="Path 1424" d="M1102.014,156.293c.92,1.711,24.975,2.251,26.949,0s1.227-37.446.307-38.655-25.3-2.144-26.949,0S1101.081,154.584,1102.014,156.293Z" transform="translate(-699.639 -14.413)" fill="#235edf"/>
        <path id="Path_1425" data-name="Path 1425" d="M1111.647,170.81a1.26,1.26,0,0,0,1.267-1.235l1.547-60.478a1.267,1.267,0,1,0-2.533-.065l-1.547,60.478a1.262,1.262,0,0,0,1.24,1.3Z" transform="translate(-696.577 -17.268)" fill="#235edf"/>
        <path id="Path_1426" data-name="Path 1426" d="M975.262,192.22c.929,1.711,24.986,2.248,26.949,0s1.236-37.448.308-38.658c-.216-.284-1.725-.552-3.928-.768-7.034-.693-21.154-.867-22.923.671a.6.6,0,0,0-.1.1C973.921,155.706,974.333,190.509,975.262,192.22Z" transform="translate(-741.901 -2.435)" fill="#235edf"/>
        <path id="Path_1427" data-name="Path 1427" d="M984.9,206.736a1.271,1.271,0,0,0,1.271-1.235l1.548-60.478a1.272,1.272,0,0,0-2.543-.065l-1.548,60.478a1.27,1.27,0,0,0,1.239,1.3Z" transform="translate(-738.841 -5.289)" fill="#235edf"/>
        <path id="Path_1428" data-name="Path 1428" d="M849.689,152.535c.928,1.711,24.986,2.251,26.946,0s1.239-37.446.309-38.654-25.3-2.144-26.946,0S848.76,150.827,849.689,152.535Z" transform="translate(-783.772 -15.666)" fill="#235edf"/>
        <path id="Path_1429" data-name="Path 1429" d="M859.328,167.053a1.269,1.269,0,0,0,1.269-1.236l1.55-60.478a1.272,1.272,0,0,0-2.543-.064l-1.548,60.478a1.27,1.27,0,0,0,1.239,1.3Z" transform="translate(-780.711 -18.521)" fill="#235edf"/>
        <path id="Path_1430" data-name="Path 1430" d="M825.238,128.974c.929,1.711,24.986,2.251,26.946,0s1.239-37.445.311-38.654-25.3-2.144-26.948,0S824.309,127.266,825.238,128.974Z" transform="translate(-791.925 -23.522)" fill="#235edf"/>
        <path id="Path_1431" data-name="Path 1431" d="M834.877,143.493a1.271,1.271,0,0,0,1.271-1.235L837.7,81.78a1.272,1.272,0,0,0-2.543-.065l-1.548,60.478a1.27,1.27,0,0,0,1.239,1.3Z" transform="translate(-788.864 -26.376)" fill="#235edf"/>
        <path id="Path_1432" data-name="Path 1432" d="M949.4,165.366c.929,1.712,24.986,2.251,26.948,0s1.239-37.446.309-38.654-25.3-2.144-26.948,0S948.47,163.658,949.4,165.366Z" transform="translate(-750.525 -11.388)" fill="#235edf"/>
        <path id="Path_1433" data-name="Path 1433" d="M959.038,179.884a1.271,1.271,0,0,0,1.271-1.236l1.548-60.478a1.271,1.271,0,0,0-2.542-.064l-1.549,60.478a1.271,1.271,0,0,0,1.239,1.3Z" transform="translate(-747.464 -14.243)" fill="#235edf"/>
        <path id="Path_1434" data-name="Path 1434" d="M801.035,115.371c.929,1.711,24.986,2.251,26.947,0s.929-64.418,0-65.624-25.3-2.144-26.947,0S800.107,113.662,801.035,115.371Z" transform="translate(-800.053 -37.051)" fill="#235edf"/>
        <path id="Path_1435" data-name="Path 1435" d="M810.632,129.889a1.269,1.269,0,0,0,1.269-1.249l1.239-87.448a1.267,1.267,0,0,0-1.252-1.284h-.017a1.269,1.269,0,0,0-1.271,1.249L809.361,128.6a1.27,1.27,0,0,0,1.252,1.285Z" transform="translate(-796.948 -39.905)" fill="#235edf"/>
      </g>
      <g id="Group_376" data-name="Group 376" transform="translate(637.05 95.848)" clip-path="url(#clip-path)">
        <path id="Path_1436" data-name="Path 1436" d="M702.418,227.631c.927,1.719,24.921,2.26,26.875,0s.927-48.2,0-49.409-25.229-2.154-26.875,0S701.491,225.915,702.418,227.631Z" transform="translate(-403.499 -37.158)" fill="#235edf"/>
        <path id="Path_1437" data-name="Path 1437" d="M711.987,242.21a1.27,1.27,0,0,0,1.267-1.249l1.235-71.327a1.269,1.269,0,0,0-1.244-1.295h-.023a1.272,1.272,0,0,0-1.267,1.251l-1.235,71.327a1.267,1.267,0,0,0,1.244,1.293Z" transform="translate(-400.402 -40.024)" fill="#235edf"/>
        <path id="Path_1438" data-name="Path 1438" d="M577.688,181.458c.927,1.719,24.921,2.26,26.875,0s1.236-26.9.309-28.114-25.229-2.154-26.875,0S576.761,179.74,577.688,181.458Z" transform="translate(-445.031 -45.453)" fill="#235edf"/>
        <path id="Path_1439" data-name="Path 1439" d="M587.3,196.038a1.271,1.271,0,0,0,1.267-1.233l1.544-50.033a1.267,1.267,0,1,0-2.534-.08l-1.544,50.032a1.271,1.271,0,0,0,1.227,1.312h.04Z" transform="translate(-441.978 -48.32)" fill="#235edf"/>
        <path id="Path_1440" data-name="Path 1440" d="M551.4,198.86c.927,1.719,24.921,2.262,26.877,0s1.235-26.9.308-28.114-25.229-2.153-26.875,0S550.474,197.142,551.4,198.86Z" transform="translate(-453.796 -39.651)" fill="#235edf"/>
        <path id="Path_1441" data-name="Path 1441" d="M561.014,213.441a1.271,1.271,0,0,0,1.267-1.235l1.546-50.032a1.267,1.267,0,1,0-2.534-.08l-1.544,50.032a1.271,1.271,0,0,0,1.225,1.312h.04Z" transform="translate(-450.742 -42.517)" fill="#235edf"/>
        <path id="Path_1442" data-name="Path 1442" d="M726.918,204.933c.927,1.719,24.921,2.262,26.877,0s.927-48.2,0-49.409-25.23-2.153-26.877,0S725.991,203.217,726.918,204.933Z" transform="translate(-395.329 -44.726)" fill="#235edf"/>
        <path id="Path_1443" data-name="Path 1443" d="M736.489,219.514a1.271,1.271,0,0,0,1.267-1.249l1.235-71.33a1.269,1.269,0,0,0-1.244-1.295h-.023a1.271,1.271,0,0,0-1.267,1.249l-1.235,71.328a1.267,1.267,0,0,0,1.244,1.293h.023Z" transform="translate(-392.233 -47.593)" fill="#235edf"/>
        <path id="Path_1444" data-name="Path 1444" d="M602.7,177.811c.927,1.719,24.921,2.262,26.875,0s.927-48.2,0-49.409-25.229-2.154-26.875,0S601.769,176.095,602.7,177.811Z" transform="translate(-436.75 -53.77)" fill="#235edf"/>
        <path id="Path_1445" data-name="Path 1445" d="M612.265,192.391a1.27,1.27,0,0,0,1.267-1.251l1.236-71.327a1.269,1.269,0,0,0-1.245-1.293H613.5a1.269,1.269,0,0,0-1.267,1.249L611,191.1a1.27,1.27,0,0,0,1.244,1.295Z" transform="translate(-433.654 -56.636)" fill="#235edf"/>
        <path id="Path_1446" data-name="Path 1446" d="M752.777,187.23c.927,1.717,24.921,2.26,26.877,0s1.737-77.13.811-78.343-25.229-2.154-26.875,0S751.851,185.514,752.777,187.23Z" transform="translate(-386.575 -60.277)" fill="#235edf"/>
        <path id="Path_1447" data-name="Path 1447" d="M762.447,201.81a1.27,1.27,0,0,0,1.267-1.247L765.76,100.3a1.267,1.267,0,1,0-2.534-.053L761.18,200.51a1.272,1.272,0,0,0,1.24,1.3h.027Z" transform="translate(-383.577 -63.143)" fill="#235edf"/>
        <path id="Path_1448" data-name="Path 1448" d="M676.989,280.777c.46.848,6.561,1.409,12.849,1.491,6.424.077,13.04-.347,14.029-1.491,1.827-2.109,2.167-68.032,1.451-77.766a4.334,4.334,0,0,0-.168-1.183c-.469-.613-7.051-1-13.652-.959-.769.007-1.536.017-2.3.036-5.6.127-10.686.593-11.4,1.528-1.647,2.154-1.735,76.625-.811,78.341Z" transform="translate(-411.846 -29.178)" fill="#235edf"/>
        <path id="Path_1449" data-name="Path 1449" d="M686.658,295.286a1.269,1.269,0,0,0,1.267-1.248L689.97,193.78a1.267,1.267,0,1,0-2.534-.053l-2.045,100.261a1.273,1.273,0,0,0,1.24,1.3Z" transform="translate(-408.848 -31.974)" fill="#235edf"/>
        <path id="Path_1450" data-name="Path 1450" d="M779.167,189c.927,1.719,24.921,2.26,26.875,0s1.236-37.607.309-38.822-25.229-2.153-26.875,0S778.24,187.284,779.167,189Z" transform="translate(-377.85 -46.508)" fill="#235edf"/>
        <path id="Path_1451" data-name="Path 1451" d="M788.78,203.58a1.27,1.27,0,0,0,1.267-1.24l1.544-60.739a1.268,1.268,0,1,0-2.535-.065l-1.544,60.739a1.27,1.27,0,0,0,1.235,1.305Z" transform="translate(-374.797 -49.375)" fill="#235edf"/>
        <path id="Path_1452" data-name="Path 1452" d="M652.752,225.081c.925,1.719,24.919,2.259,26.878,0s1.232-37.61.307-38.823c-.216-.285-1.72-.556-3.919-.772-7.015-.7-21.1-.871-22.862.673a.6.6,0,0,0-.1.1C651.413,188.411,651.825,223.363,652.752,225.081Z" transform="translate(-420.002 -34.478)" fill="#235edf"/>
        <path id="Path_1453" data-name="Path 1453" d="M662.365,239.661a1.272,1.272,0,0,0,1.267-1.241l1.544-60.738a1.269,1.269,0,1,0-2.536-.065L661.1,238.356a1.273,1.273,0,0,0,1.236,1.305Z" transform="translate(-416.949 -37.344)" fill="#235edf"/>
        <path id="Path_1454" data-name="Path 1454" d="M527.508,185.226c.927,1.719,24.921,2.26,26.877,0s1.235-37.607.308-38.822-25.229-2.154-26.875,0S526.581,183.51,527.508,185.226Z" transform="translate(-461.763 -47.767)" fill="#235edf"/>
        <path id="Path_1455" data-name="Path 1455" d="M537.123,199.806a1.272,1.272,0,0,0,1.267-1.24l1.544-60.739a1.269,1.269,0,1,0-2.536-.065L535.853,198.5a1.272,1.272,0,0,0,1.236,1.305Z" transform="translate(-458.71 -50.634)" fill="#235edf"/>
        <path id="Path_1456" data-name="Path 1456" d="M503.121,161.563c.927,1.719,24.921,2.26,26.875,0s1.236-37.607.309-38.822-25.229-2.154-26.875,0S502.194,159.847,503.121,161.563Z" transform="translate(-469.894 -55.657)" fill="#235edf"/>
        <path id="Path_1457" data-name="Path 1457" d="M512.734,176.145A1.271,1.271,0,0,0,514,174.9l1.545-60.738a1.269,1.269,0,1,0-2.536-.065l-1.544,60.739a1.271,1.271,0,0,0,1.235,1.305Z" transform="translate(-466.841 -58.523)" fill="#235edf"/>
        <path id="Path_1458" data-name="Path 1458" d="M626.957,198.112c.927,1.717,24.919,2.26,26.875,0s1.236-37.607.309-38.822-25.23-2.153-26.877,0S626.03,196.4,626.957,198.112Z" transform="translate(-428.603 -43.47)" fill="#235edf"/>
        <path id="Path_1459" data-name="Path 1459" d="M636.571,212.692a1.272,1.272,0,0,0,1.267-1.241l1.544-60.738a1.269,1.269,0,1,0-2.536-.065L635.3,211.387a1.272,1.272,0,0,0,1.236,1.305Z" transform="translate(-425.55 -46.337)" fill="#235edf"/>
        <path id="Path_1460" data-name="Path 1460" d="M478.983,147.9c.927,1.719,24.921,2.26,26.875,0s.927-64.7,0-65.907-25.229-2.154-26.875,0S478.056,146.185,478.983,147.9Z" transform="translate(-478 -69.244)" fill="#235edf"/>
        <path id="Path_1461" data-name="Path 1461" d="M488.553,162.48a1.269,1.269,0,0,0,1.267-1.253L491.056,73.4a1.27,1.27,0,0,0-1.249-1.29h-.017a1.268,1.268,0,0,0-1.267,1.254l-1.236,87.824a1.269,1.269,0,0,0,1.249,1.289Z" transform="translate(-474.904 -72.11)" fill="#235edf"/>
      </g>
      <path id="Path_1462" data-name="Path 1462" d="M1,454.285c2.4-.267,10.038-4.618,11.16-6.677,3.631-6.657,11.261-11.522,16.9-16.688C41.863,419.182,56.23,409.494,69,397.544a153.786,153.786,0,0,1,25.867-19.087c6.565-3.88,19.509-1.673,24.511-5.842,9.105-7.587,28.948,2.816,38.383,2.816,8.779,0,17.616.325,26.387,0,14.861-.551,26.986-24.878,38.383-32.959,18.213-12.916,44.9-6.641,64.25-.835,8.213,2.463,17.253,3.61,24.929,7.614,10.926,5.7,23.442,3.651,35.567,3.651,19.033,0,36.24-1.612,53.089-11.161,10.449-5.922,20.784-12,31.29-17.836,12.7-7.058,22.29-12.306,36.818-12.306,12.064,0,23.042-1.236,33.795,5.215,7.673,4.6,13.7,11.681,22.946,11.681,23.48,0,52.512-2.239,70.195-19.922,10.919-10.92,23.142-19.02,35.359-28.266,1.961-1.484,5.6-7.021,8.553-5.84,11.066,4.427,21.9,8.886,33.376,12.308,12.366,3.686,35.241,5.1,44.015,15.437,1.934,2.279,17.5,13.573,20.652,11.473,6.857-4.571,10.6-22.738,19.295-22.738,18.987,0,38.082.6,57.054-.1,18-.667,33.092-4.214,50.273-9.283,23.619-6.97,46.409-10.367,69.256-19.922,9.551-3.994,17.4-9.7,23.363-18.044,3.472-4.862,9.174-10.848,15.437-10.848,14.257,0,25.174.748,36.3,11.265,3.219,3.043,6.557,9.339,11.474,5.84,11.925-8.485,22.991-16.327,37.131-20.86,20.659-6.623,41.566-17.008,63.206-19.712,27.722-3.466,60.857-4.178,87.3,5.632,7.387,2.74,13.9,10.033,21.8,10.325,17.651.655,36.209,15.161,51.733,22.112,12.264,5.491,25.871,10.733,38.906,5.632,23.5-9.2,46.68-19.226,71.762-23.051,20.375-3.107,40.683-2.816,61.218-2.816,13.308,0,22.762,7.79,34.736,12.829,13.481,5.676,21.9,2,35.563-3.024,21.122-7.759,42.977-13.244,63.2-23.363,18.135-9.062,33.256-8.97,53.2-8.97,4.694,0,10.441-.891,15.015.417,1.414.4,3.614,2.57,5.014,2.5,12.188-.58,25.3-14.5,35.87-19.922,11-5.64,19.361-15.645,30.976-19.714,10.841-3.794,19.8-10.006,31.083-12.933,8.614-2.231,27.962-4.119,36.4.1,20.815,10.4,46.07,10.555,69.259,6.363,11.441-2.068,23.469-7.227,34.843-10.326,30.469-8.31,62.218-12.666,93.861-13.872,15.334-.584,33.6-2.012,47.564,5.631,8.187,4.482,15.974,15.969,25.242,18.149,7.067,1.663,23.255-7.5,30.042-9.387,14.588-4.068,28.642-9.161,42.763-14.6,30.789-11.866,69.392-7.217,98.048-24.406,8.321-5,17.895-6.091,26.8-9.388,10.147-3.757,18.948-8.642,29.522-11.369,18.241-4.708,27.122-7.235,44.95-.1,5.974,2.392,12.028,6.7,18.455,7.614,10.961,1.566,20.095-11.633,30.456-15.332,10.961-3.911,18.188-5.215,29.629-5.215" transform="translate(0 25.967)" fill="none" stroke="#235edf" stroke-linecap="round" stroke-width="5"/>
      <path id="Path_1463" data-name="Path 1463" d="M1812.34,100.16h30.2c7.2,0,14.2,1.258,19.922-3.859,4.28-3.831,6.787-8.94,9.8-13.716a86.315,86.315,0,0,1,9.854-12.881c6.76-7.232,14.948-11.6,24.428-14.341,7.721-2.226,14.895-6.49,21.442-11,1.773-1.225,3.92-2.328,5.454-3.859,2.4-2.412,3.76-5.77,6.04-8.344,2.254-2.533,3.214-6.024,5.947-8.266a22.428,22.428,0,0,0,2.894-3.155c2.387-2.834,6.494-5.586,8.107-8.813" transform="translate(603.969 3.668)" fill="none" stroke="#235edf" stroke-linecap="round" stroke-width="5"/>
    </g>
  </g>
</svg>
