<svg width="48" height="48" viewBox="0 0 48 48" fill="none" xmlns="http://www.w3.org/2000/svg">
<g clip-path="url(#clip0_2602_17419)">
<path d="M23.625 0.131306C23.475 0.206306 22.3688 1.16256 21.1875 2.26881L19.0312 4.29381L16.4062 3.56256C13.6313 2.77506 12.7312 2.66256 12.4313 3.03756C12.3188 3.16881 11.8125 4.55631 11.2688 6.09381L10.2938 8.92506L7.35 9.5438C5.7375 9.88131 4.29375 10.2563 4.18125 10.3501C3.84375 10.6126 3.88125 11.7188 4.3125 14.4376C4.51875 15.7313 4.6875 16.8376 4.6875 16.8938C4.6875 16.9688 3.6375 17.8876 2.34375 18.9563C0.3 20.6626 0.01875 20.9813 0 21.4688C0 21.9001 0.43125 22.6313 1.6875 24.3751C2.60625 25.6501 3.375 26.7938 3.375 26.9251C3.375 27.0376 2.90625 28.2751 2.34375 29.6438C1.66875 31.2376 1.3125 32.3626 1.35 32.7188C1.40625 33.2438 1.59375 33.3751 4.2375 34.7251L7.05 36.1688L7.29375 39.0376C7.4625 40.9126 7.63125 42.0563 7.81875 42.3563L8.1 42.8063L11.2313 42.6938L14.3438 42.5813L15.9938 45.0938C16.9125 46.5001 17.8125 47.7188 18 47.8126C18.45 48.0563 18.6 48.0001 21.5063 46.3688L23.9813 44.9813L26.4938 46.4063C30.0188 48.3938 29.7938 48.4313 31.9125 45.1876L33.6375 42.5626L36.7688 42.6938L39.9 42.8063L40.1813 42.3563C40.3688 42.0563 40.5375 40.9313 40.7063 39.0376L40.9313 36.1688L43.7625 34.7251C47.2313 32.9626 47.1375 33.1876 45.6562 29.6251C45.0938 28.2376 44.625 27.0188 44.625 26.9063C44.625 26.7938 45.3938 25.6501 46.3125 24.3751C47.5688 22.6313 48 21.9001 48 21.4688C47.9813 20.9813 47.7 20.6626 45.6562 18.9563C44.3625 17.8876 43.3125 16.9688 43.3125 16.8938C43.3125 16.8376 43.4813 15.7313 43.6875 14.4376C44.1188 11.7188 44.1563 10.6126 43.8375 10.3501C43.7063 10.2563 42.2625 9.88131 40.65 9.5438L37.7063 8.90631L36.7313 6.09381C36.1875 4.53756 35.6813 3.16881 35.5687 3.03756C35.2687 2.66256 34.3688 2.77506 31.5938 3.56256L28.9688 4.29381L26.8125 2.26881C24.6938 0.262558 24.1688 -0.0749435 23.625 0.131306ZM26.0438 4.46256C27.1313 5.47506 28.1813 6.35631 28.35 6.43131C28.5188 6.48756 29.8688 6.20631 31.35 5.81256C32.8125 5.40006 34.05 5.11881 34.0875 5.15631C34.1438 5.19381 34.575 6.39381 35.0813 7.81881C35.5875 9.2438 36.1125 10.4813 36.2438 10.5938C36.3938 10.6876 37.6688 11.0251 39.0938 11.3251C40.6125 11.6626 41.7 11.9813 41.7563 12.1313C41.8125 12.2626 41.6813 13.5376 41.475 14.9626C41.2875 16.3688 41.1563 17.6626 41.2313 17.8313C41.2875 18.0001 42.225 18.8626 43.3125 19.7813C44.4 20.6813 45.3563 21.4876 45.4313 21.5626C45.525 21.6563 44.9063 22.6501 44.0813 23.7938C43.2375 24.9376 42.4688 26.0626 42.3563 26.3063C42.2063 26.6438 42.3563 27.1688 43.2 29.2501C43.7813 30.6188 44.25 31.8376 44.25 31.9126C44.25 31.9876 43.1063 32.6251 41.7188 33.3188C40.3313 34.0126 39.15 34.7063 39.0938 34.8563C39.0188 35.0438 38.4375 40.1438 38.4375 40.6313C38.4375 40.6688 37.275 40.6313 35.85 40.5563C34.4062 40.5001 33.0375 40.5001 32.775 40.5563C32.4188 40.6501 31.9125 41.2876 30.8625 42.9376C30.0563 44.1751 29.3438 45.2251 29.25 45.2813C29.175 45.3376 28.05 44.7751 26.7563 44.0626C25.4625 43.3313 24.225 42.7501 24.0188 42.7501C23.7938 42.7501 22.5563 43.3501 21.2625 44.0626C19.9688 44.7938 18.8438 45.3376 18.75 45.2813C18.6562 45.2251 17.9438 44.1751 17.1375 42.9376C16.0875 41.2876 15.5813 40.6501 15.225 40.5563C14.9625 40.5001 13.5938 40.5001 12.15 40.5563C10.725 40.6313 9.5625 40.6688 9.5625 40.6313C9.5625 40.1251 8.98125 35.0438 8.90625 34.8563C8.85 34.7063 7.70625 34.0313 6.35625 33.3751C5.00625 32.7001 3.8625 32.1001 3.825 32.0251C3.76875 31.9501 4.2 30.7313 4.78125 29.3063C5.64375 27.1876 5.79375 26.6626 5.64375 26.3063C5.53125 26.0813 4.7625 24.9376 3.91875 23.7938L2.4 21.6938L2.8875 21.3001C5.25 19.3876 6.5625 18.2251 6.7125 17.9063C6.825 17.6438 6.76875 16.7063 6.525 14.9626C6.31875 13.5376 6.1875 12.2626 6.24375 12.1313C6.3 11.9813 7.3875 11.6626 8.90625 11.3251C10.3313 11.0251 11.6063 10.6876 11.7563 10.5938C11.9063 10.4813 12.4313 9.22506 12.9375 7.80006C13.4438 6.37506 13.875 5.17506 13.9313 5.13755C13.9688 5.10006 15.1875 5.40006 16.6688 5.81256C18.6 6.33756 19.4438 6.50631 19.7438 6.37506C19.9688 6.28131 21 5.40006 22.0312 4.42506C23.0625 3.45006 23.9438 2.64381 23.9813 2.62506C24.0188 2.62506 24.9375 3.45006 26.0438 4.46256Z" fill="#4285F4" fill-opacity="0.2"/>
<path d="M26.0438 4.46256C27.1313 5.47506 28.1813 6.35631 28.35 6.43131C28.5188 6.48756 29.8688 6.20631 31.35 5.81256C32.8125 5.40006 34.05 5.11881 34.0875 5.15631C34.1438 5.19381 34.575 6.39381 35.0813 7.81881C35.5875 9.2438 36.1125 10.4813 36.2438 10.5938C36.3938 10.6876 37.6688 11.0251 39.0938 11.3251C40.6125 11.6626 41.7 11.9813 41.7563 12.1313C41.8125 12.2626 41.6813 13.5376 41.475 14.9626C41.2875 16.3688 41.1563 17.6626 41.2313 17.8313C41.2875 18.0001 42.225 18.8626 43.3125 19.7813C44.4 20.6813 45.3563 21.4876 45.4313 21.5626C45.525 21.6563 44.9063 22.6501 44.0813 23.7938C43.2375 24.9376 42.4688 26.0626 42.3563 26.3063C42.2063 26.6438 42.3563 27.1688 43.2 29.2501C43.7813 30.6188 44.25 31.8376 44.25 31.9126C44.25 31.9876 43.1063 32.6251 41.7188 33.3188C40.3313 34.0126 39.15 34.7063 39.0938 34.8563C39.0188 35.0438 38.4375 40.1438 38.4375 40.6313C38.4375 40.6688 37.275 40.6313 35.85 40.5563C34.4062 40.5001 33.0375 40.5001 32.775 40.5563C32.4188 40.6501 31.9125 41.2876 30.8625 42.9376C30.0563 44.1751 29.3438 45.2251 29.25 45.2813C29.175 45.3376 28.05 44.7751 26.7563 44.0626C25.4625 43.3313 24.225 42.7501 24.0188 42.7501C23.7938 42.7501 22.5563 43.3501 21.2625 44.0626C19.9688 44.7938 18.8438 45.3376 18.75 45.2813C18.6562 45.2251 17.9438 44.1751 17.1375 42.9376C16.0875 41.2876 15.5813 40.6501 15.225 40.5563C14.9625 40.5001 13.5938 40.5001 12.15 40.5563C10.725 40.6313 9.5625 40.6688 9.5625 40.6313C9.5625 40.1251 8.98125 35.0438 8.90625 34.8563C8.85 34.7063 7.70625 34.0313 6.35625 33.3751C5.00625 32.7001 3.8625 32.1001 3.825 32.0251C3.76875 31.9501 4.2 30.7313 4.78125 29.3063C5.64375 27.1876 5.79375 26.6626 5.64375 26.3063C5.53125 26.0813 4.7625 24.9376 3.91875 23.7938L2.4 21.6938L2.8875 21.3001C5.25 19.3876 6.5625 18.2251 6.7125 17.9063C6.825 17.6438 6.76875 16.7063 6.525 14.9626C6.31875 13.5376 6.1875 12.2626 6.24375 12.1313C6.3 11.9813 7.3875 11.6626 8.90625 11.3251C10.3313 11.0251 11.6063 10.6876 11.7563 10.5938C11.9063 10.4813 12.4313 9.22506 12.9375 7.80006C13.4438 6.37506 13.875 5.17506 13.9313 5.13755C13.9688 5.10006 15.1875 5.40006 16.6688 5.81256C18.6 6.33756 19.4438 6.50631 19.7438 6.37506C19.9688 6.28131 21 5.40006 22.0312 4.42506C23.0625 3.45006 23.9438 2.64381 23.9813 2.62506C24.0188 2.62506 24.9375 3.45006 26.0438 4.46256Z" fill="#4285F4" fill-opacity="0.2"/>
<path d="M23.625 0.131306C23.475 0.206306 22.3688 1.16256 21.1875 2.26881L19.0312 4.29381L16.4062 3.56256C13.6313 2.77506 12.7312 2.66256 12.4313 3.03756C12.3188 3.16881 11.8125 4.55631 11.2688 6.09381L10.2938 8.92506L7.35 9.5438C5.7375 9.88131 4.29375 10.2563 4.18125 10.3501C3.84375 10.6126 3.88125 11.7188 4.3125 14.4376C4.51875 15.7313 4.6875 16.8376 4.6875 16.8938C4.6875 16.9688 3.6375 17.8876 2.34375 18.9563C0.3 20.6626 0.01875 20.9813 0 21.4688C0 21.9001 0.43125 22.6313 1.6875 24.3751C2.60625 25.6501 3.375 26.7938 3.375 26.9251C3.375 27.0376 2.90625 28.2751 2.34375 29.6438C1.66875 31.2376 1.3125 32.3626 1.35 32.7188C1.40625 33.2438 1.59375 33.3751 4.2375 34.7251L7.05 36.1688L7.29375 39.0376C7.4625 40.9126 7.63125 42.0563 7.81875 42.3563L8.1 42.8063L11.2313 42.6938L14.3438 42.5813L15.9938 45.0938C16.9125 46.5001 17.8125 47.7188 18 47.8126C18.45 48.0563 18.6 48.0001 21.5063 46.3688L23.9813 44.9813L26.4938 46.4063C30.0188 48.3938 29.7938 48.4313 31.9125 45.1876L33.6375 42.5626L36.7688 42.6938L39.9 42.8063L40.1813 42.3563C40.3688 42.0563 40.5375 40.9313 40.7063 39.0376L40.9313 36.1688L43.7625 34.7251C47.2313 32.9626 47.1375 33.1876 45.6562 29.6251C45.0938 28.2376 44.625 27.0188 44.625 26.9063C44.625 26.7938 45.3938 25.6501 46.3125 24.3751C47.5688 22.6313 48 21.9001 48 21.4688C47.9813 20.9813 47.7 20.6626 45.6562 18.9563C44.3625 17.8876 43.3125 16.9688 43.3125 16.8938C43.3125 16.8376 43.4813 15.7313 43.6875 14.4376C44.1188 11.7188 44.1563 10.6126 43.8375 10.3501C43.7063 10.2563 42.2625 9.88131 40.65 9.5438L37.7063 8.90631L36.7313 6.09381C36.1875 4.53756 35.6813 3.16881 35.5687 3.03756C35.2687 2.66256 34.3688 2.77506 31.5938 3.56256L28.9688 4.29381L26.8125 2.26881C24.6938 0.262558 24.1688 -0.0749435 23.625 0.131306ZM26.0438 4.46256C27.1313 5.47506 28.1813 6.35631 28.35 6.43131C28.5188 6.48756 29.8688 6.20631 31.35 5.81256C32.8125 5.40006 34.05 5.11881 34.0875 5.15631C34.1438 5.19381 34.575 6.39381 35.0813 7.81881C35.5875 9.2438 36.1125 10.4813 36.2438 10.5938C36.3938 10.6876 37.6688 11.0251 39.0938 11.3251C40.6125 11.6626 41.7 11.9813 41.7563 12.1313C41.8125 12.2626 41.6813 13.5376 41.475 14.9626C41.2875 16.3688 41.1563 17.6626 41.2313 17.8313C41.2875 18.0001 42.225 18.8626 43.3125 19.7813C44.4 20.6813 45.3563 21.4876 45.4313 21.5626C45.525 21.6563 44.9063 22.6501 44.0813 23.7938C43.2375 24.9376 42.4688 26.0626 42.3563 26.3063C42.2063 26.6438 42.3563 27.1688 43.2 29.2501C43.7813 30.6188 44.25 31.8376 44.25 31.9126C44.25 31.9876 43.1063 32.6251 41.7188 33.3188C40.3313 34.0126 39.15 34.7063 39.0938 34.8563C39.0188 35.0438 38.4375 40.1438 38.4375 40.6313C38.4375 40.6688 37.275 40.6313 35.85 40.5563C34.4062 40.5001 33.0375 40.5001 32.775 40.5563C32.4188 40.6501 31.9125 41.2876 30.8625 42.9376C30.0563 44.1751 29.3438 45.2251 29.25 45.2813C29.175 45.3376 28.05 44.7751 26.7563 44.0626C25.4625 43.3313 24.225 42.7501 24.0188 42.7501C23.7938 42.7501 22.5563 43.3501 21.2625 44.0626C19.9688 44.7938 18.8438 45.3376 18.75 45.2813C18.6562 45.2251 17.9438 44.1751 17.1375 42.9376C16.0875 41.2876 15.5813 40.6501 15.225 40.5563C14.9625 40.5001 13.5938 40.5001 12.15 40.5563C10.725 40.6313 9.5625 40.6688 9.5625 40.6313C9.5625 40.1251 8.98125 35.0438 8.90625 34.8563C8.85 34.7063 7.70625 34.0313 6.35625 33.3751C5.00625 32.7001 3.8625 32.1001 3.825 32.0251C3.76875 31.9501 4.2 30.7313 4.78125 29.3063C5.64375 27.1876 5.79375 26.6626 5.64375 26.3063C5.53125 26.0813 4.7625 24.9376 3.91875 23.7938L2.4 21.6938L2.8875 21.3001C5.25 19.3876 6.5625 18.2251 6.7125 17.9063C6.825 17.6438 6.76875 16.7063 6.525 14.9626C6.31875 13.5376 6.1875 12.2626 6.24375 12.1313C6.3 11.9813 7.3875 11.6626 8.90625 11.3251C10.3313 11.0251 11.6063 10.6876 11.7563 10.5938C11.9063 10.4813 12.4313 9.22506 12.9375 7.80006C13.4438 6.37506 13.875 5.17506 13.9313 5.13755C13.9688 5.10006 15.1875 5.40006 16.6688 5.81256C18.6 6.33756 19.4438 6.50631 19.7438 6.37506C19.9688 6.28131 21 5.40006 22.0312 4.42506C23.0625 3.45006 23.9438 2.64381 23.9813 2.62506C24.0188 2.62506 24.9375 3.45006 26.0438 4.46256Z" fill="#06214E"/>
<path d="M21.9397 11.0491C18.9089 11.5265 15.845 13.07 13.8355 15.1387C7.80667 21.3765 9.04208 31.2265 16.438 35.9048C20.9349 38.7532 27.2108 38.6895 31.7406 35.7616C35.6939 33.1996 38 29.0464 38 24.4795C38 18.3212 33.7667 13.0064 27.5402 11.3515C26.5519 11.0969 22.928 10.9059 21.9397 11.0491ZM27.0461 13.1178C30.3734 13.9611 33.3384 16.3162 34.8703 19.3078C35.8092 21.1696 36.0892 22.3312 36.0892 24.4795C36.0892 26.6118 35.8092 27.7575 34.8703 29.6511C33.3549 32.6745 30.4228 34.9819 26.9637 35.8889C25.5142 36.2708 22.4833 36.2708 21.0338 35.8889C13.9013 34.043 9.99746 26.6277 12.7154 20.1512C14.0331 17.0323 16.7675 14.5022 20.0125 13.4042C20.6384 13.1973 21.5609 12.9586 22.0385 12.8791C23.2081 12.6722 25.8107 12.7995 27.0461 13.1178Z" fill="#06214E"/>
<path d="M25.8499 23.5991C24.2004 25.591 22.6818 27.3906 22.4985 27.6241L22.1581 28.0362L20.0634 25.852C18.1259 23.8327 17.9426 23.6815 17.6022 23.764C17.1047 23.9013 17 24.0387 17 24.5332C17 24.9042 17.3142 25.2888 19.3434 27.4318C20.6264 28.7918 21.8308 29.9319 21.9879 29.9869C22.1843 30.0281 22.4068 29.9731 22.6163 29.8083C22.7865 29.6572 24.5146 27.6378 26.4653 25.3025C28.7825 22.5276 30 20.9479 30 20.7555C30 20.3709 29.6073 20 29.2014 20C28.9396 20 28.2719 20.7143 25.8499 23.5991Z" fill="#06214E"/>
</g>
<defs>
<clipPath id="clip0_2602_17419">
<rect width="48" height="48" fill="white"/>
</clipPath>
</defs>
</svg>
