<svg xmlns="http://www.w3.org/2000/svg" width="17.81" height="21.677" viewBox="0 0 17.81 21.677">
  <g id="noun-user-107251" transform="translate(-74.2 -18.61)">
    <path id="Path_37" data-name="Path 37" d="M154.129,28.516a5.859,5.859,0,0,0,1.472-3.891,6.169,6.169,0,0,0-12.334,0,5.86,5.86,0,0,0,1.471,3.891,7.458,7.458,0,0,0-4.209,6.493c0,5.277,6.24,5.277,8.9,5.277s8.905,0,8.905-5.277a7.459,7.459,0,0,0-4.209-6.493Zm-4.7-8.218a4.387,4.387,0,0,1,4.436,4.326,4.258,4.258,0,0,1-1.785,3.462,4.5,4.5,0,0,1-5.3,0A4.258,4.258,0,0,1,145,24.625a4.387,4.387,0,0,1,4.436-4.326Zm0,18.3c-5.163,0-7.174-1.006-7.174-3.588a5.936,5.936,0,0,1,3.9-5.294h0l0,0c.131.08.265.155.4.225.044.023.09.043.134.065.094.046.188.091.285.132.054.023.109.044.164.065.089.035.179.069.27.1.058.02.117.038.176.056q.135.042.272.077c.059.015.119.031.179.044.094.021.188.04.283.056.058.01.115.021.174.03.1.016.209.027.315.037.05,0,.1.012.15.016.155.012.312.018.469.018s.314-.006.47-.018l.15-.016c.105-.01.21-.021.314-.037.059-.009.116-.02.175-.03.094-.017.189-.035.283-.056.06-.013.12-.029.179-.044.091-.023.182-.049.272-.077l.176-.056c.091-.031.181-.065.27-.1.055-.022.11-.042.164-.065.1-.041.19-.086.284-.132.045-.022.091-.042.135-.065.136-.071.27-.145.4-.225l0,0h0a5.936,5.936,0,0,1,3.9,5.294c0,2.582-2.011,3.588-7.174,3.588Z" transform="translate(-66.328 0)" fill="#2a353d"/>
  </g>
</svg>
