<svg width="302" height="215" viewBox="0 0 302 215" fill="none" xmlns="http://www.w3.org/2000/svg">
<g clip-path="url(#clip0_387_711)">
<path d="M276.268 0.58252H61.515C53.3028 0.58252 46.6455 7.22517 46.6455 15.4193V135.753C46.6455 143.947 53.3028 150.59 61.515 150.59H276.268C284.48 150.59 291.137 143.947 291.137 135.753V15.4193C291.137 7.22517 284.48 0.58252 276.268 0.58252Z" fill="white"/>
<path d="M253.496 19.9893H38.743C30.5308 19.9893 23.8735 26.6319 23.8735 34.826V155.16C23.8735 163.354 30.5308 169.996 38.743 169.996H253.496C261.708 169.996 268.365 163.354 268.365 155.16V34.826C268.365 26.6319 261.708 19.9893 253.496 19.9893Z" fill="#D0E0FA"/>
<path d="M146.115 124.922C162.786 124.922 176.3 111.437 176.3 94.8032C176.3 78.1691 162.786 64.6846 146.115 64.6846C129.444 64.6846 115.93 78.1691 115.93 94.8032C115.93 111.437 129.444 124.922 146.115 124.922Z" fill="white"/>
<path d="M153.564 92.8154C155.244 93.7872 155.244 96.2056 153.564 97.1774L147.378 100.738L141.192 104.299C139.512 105.271 137.408 104.054 137.408 102.118V87.8674C137.408 85.9312 139.512 84.7145 141.192 85.6863L147.378 89.2472L153.564 92.808V92.8154Z" fill="#4285F4"/>
<path d="M247.399 148.231H44.8393C43.5336 148.231 42.4751 149.287 42.4751 150.59C42.4751 151.893 43.5336 152.949 44.8393 152.949H247.399C248.705 152.949 249.763 151.893 249.763 150.59C249.763 149.287 248.705 148.231 247.399 148.231Z" fill="white"/>
<path d="M94.6819 148.231H44.8393C43.5336 148.231 42.4751 149.287 42.4751 150.59C42.4751 151.893 43.5336 152.949 44.8393 152.949H94.6819C95.9876 152.949 97.0462 151.893 97.0462 150.59C97.0462 149.287 95.9876 148.231 94.6819 148.231Z" fill="#171E2E"/>
<path d="M142.421 205.53H28.2526C25.8341 205.53 23.8735 207.486 23.8735 209.899C23.8735 212.313 25.8341 214.269 28.2526 214.269H142.421C144.839 214.269 146.8 212.313 146.8 209.899C146.8 207.486 144.839 205.53 142.421 205.53Z" fill="#4285F4"/>
<path d="M218.047 182.266H30.6317C26.8993 182.266 23.8735 185.285 23.8735 189.009C23.8735 192.734 26.8993 195.753 30.6317 195.753H218.047C221.779 195.753 224.805 192.734 224.805 189.009C224.805 185.285 221.779 182.266 218.047 182.266Z" fill="#171E2E"/>
<path d="M23.873 93.4608C36.4418 93.4608 46.6308 83.2942 46.6308 70.7531C46.6308 58.212 36.4418 48.0454 23.873 48.0454C11.3042 48.0454 1.11523 58.212 1.11523 70.7531C1.11523 83.2942 11.3042 93.4608 23.873 93.4608Z" fill="white"/>
<path d="M23.873 49.1579C35.8281 49.1579 45.5155 58.824 45.5155 70.7528C45.5155 82.6816 35.8281 92.3477 23.873 92.3477C11.9179 92.3477 2.23042 82.6742 2.23042 70.7528C2.23042 58.8315 11.9179 49.1579 23.873 49.1579ZM23.873 46.9324C10.706 46.9324 0 57.6148 0 70.7528C0 83.8908 10.706 94.5732 23.873 94.5732C37.0399 94.5732 47.746 83.8908 47.746 70.7528C47.746 57.6148 37.0399 46.9324 23.873 46.9324Z" fill="#EAEAEA"/>
<path d="M23.8658 73.3418C25.303 73.3418 26.468 72.1793 26.468 70.7454C26.468 69.3114 25.303 68.1489 23.8658 68.1489C22.4287 68.1489 21.2637 69.3114 21.2637 70.7454C21.2637 72.1793 22.4287 73.3418 23.8658 73.3418Z" fill="#10A861"/>
<path d="M29.1294 65.9158C30.5717 67.0359 31.4936 68.7793 31.4936 70.7451C31.4936 72.711 30.5717 74.4543 29.1294 75.5745" stroke="#10A861" stroke-width="2.26271" stroke-linecap="round" stroke-linejoin="round"/>
<path d="M18.6094 75.5745C17.1745 74.4543 16.2451 72.711 16.2451 70.7451C16.2451 68.7793 17.1745 67.0359 18.6094 65.9158" stroke="#10A861" stroke-width="2.26271" stroke-linecap="round" stroke-linejoin="round"/>
<path d="M33.0553 62.8894C34.1036 63.7128 34.9809 64.744 35.6351 65.9161C36.4232 67.3479 36.8767 68.9947 36.8767 70.7455C36.8767 72.4962 36.4232 74.1431 35.6351 75.5748C34.9809 76.7544 34.0962 77.7855 33.0479 78.609" stroke="#10A861" stroke-width="2.26271" stroke-linecap="round" stroke-linejoin="round"/>
<path d="M14.6985 78.609C13.6502 77.7855 12.7655 76.7544 12.1112 75.5748C11.3231 74.1431 10.8696 72.4962 10.8696 70.7455C10.8696 68.9947 11.3231 67.3479 12.1112 65.9161C12.7655 64.744 13.6428 63.7128 14.6911 62.8894" stroke="#10A861" stroke-width="2.26271" stroke-linecap="round" stroke-linejoin="round"/>
</g>
<defs>
<clipPath id="clip0_387_711">
<rect width="301.174" height="213.687" fill="white" transform="translate(0 0.58252)"/>
</clipPath>
</defs>
</svg>
