<svg xmlns="http://www.w3.org/2000/svg" width="25" height="24.997" viewBox="0 0 25 24.997">
  <path id="watchlist" d="M12.745.25c.645,0,1.865.281,2.795,2.165L17.585,6.54l0,.006A1.676,1.676,0,0,0,18.6,7.3l3.708.621a3.266,3.266,0,0,1,2.826,2.022c.2.612.309,1.854-1.133,3.3l-2.881,2.9a1.7,1.7,0,0,0-.373,1.317l.825,3.594a3.8,3.8,0,0,1-.414,3.357,2.272,2.272,0,0,1-1.824.835,4.816,4.816,0,0,1-2.407-.786L13.45,22.386a1.44,1.44,0,0,0-.7-.158,1.492,1.492,0,0,0-.712.16L8.566,24.461a4.778,4.778,0,0,1-2.4.784,2.281,2.281,0,0,1-1.832-.839,3.793,3.793,0,0,1-.416-3.35l.825-3.6a1.7,1.7,0,0,0-.373-1.315L1.49,13.238a3.285,3.285,0,0,1-1.124-3.3c.2-.609.823-1.68,2.819-2.016L6.894,7.3a1.7,1.7,0,0,0,1-.752l0-.006L9.942,2.414C10.346,1.6,11.245.25,12.745.25Zm3.276,7.061L13.976,3.188c-.369-.749-.829-1.194-1.231-1.194s-.868.447-1.241,1.2L9.459,7.313a3.4,3.4,0,0,1-2.274,1.7l-3.712.622c-.781.131-1.323.442-1.448.83s.136.969.7,1.54l2.883,2.907a3.434,3.434,0,0,1,.837,2.925v.006l-.825,3.6c-.293,1.277-.013,1.757.08,1.874a.523.523,0,0,0,.468.182,3.222,3.222,0,0,0,1.5-.537l3.477-2.075.006,0a3.2,3.2,0,0,1,1.6-.4,3.148,3.148,0,0,1,1.594.4l3.476,2.074a3.261,3.261,0,0,0,1.513.54.52.52,0,0,0,.46-.178c.092-.116.371-.594.077-1.881l-.825-3.6v-.006a3.434,3.434,0,0,1,.837-2.925l2.883-2.907c.57-.57.834-1.144.708-1.536s-.669-.7-1.454-.834L18.31,9.018A3.4,3.4,0,0,1,16.021,7.311Z" transform="translate(-0.248 -0.25)" fill="#2a353d"/>
</svg>
