<svg xmlns="http://www.w3.org/2000/svg" width="34.781" height="34.781" viewBox="0 0 34.781 34.781">
  <g id="Group_319" data-name="Group 319" transform="translate(0.05 0.05)">
    <g id="facebook" transform="translate(111 124)">
      <g id="linkedin-svgrepo-com" transform="translate(-111 -124)">
        <path id="Path_1112" data-name="Path 1112" d="M17.34,0A17.34,17.34,0,1,1,0,17.341,17.341,17.341,0,0,1,17.34,0Z" fill="#fff" stroke="#707070" stroke-width="0.1"/>
      </g>
    </g>
    <g id="Group_318" data-name="Group 318" transform="translate(163.999 -112.389)">
      <g id="youtube-round-svgrepo-com" transform="translate(-156 122.686)">
        <path id="Path_1115" data-name="Path 1115" d="M-115.225,166.631h0a3.168,3.168,0,0,1-3.234,3.234h-12.307A3.168,3.168,0,0,1-134,166.631V159.92a3.168,3.168,0,0,1,3.234-3.234h12.307a3.168,3.168,0,0,1,3.234,3.234Z" transform="translate(134 -156.686)"/>
        <path id="Path_1114" data-name="Path 1114" d="M78.9,358.242l5.4-3.171L78.9,351.9Z" transform="translate(-71.641 -348.477)" fill="#fff"/>
      </g>
    </g>
  </g>
</svg>
