<svg width="265" height="265" viewBox="0 0 265 265" fill="none" xmlns="http://www.w3.org/2000/svg">
<path d="M13.7069 1H251.293C258.311 1 264 6.68907 264 13.7069V251.293C264 258.311 258.311 264 251.293 264H13.7069C6.68907 264 1 258.311 1 251.293V13.7069C1 6.68907 6.68907 1 13.7069 1Z" fill="white" stroke="#4285F4" stroke-width="2"/>
<path d="M71.5691 112.269H68.7638V104.044C68.7509 103.968 68.7112 103.898 68.6518 103.848C68.5924 103.798 68.5172 103.77 68.4394 103.77C68.3616 103.77 68.2863 103.798 68.227 103.848C68.1676 103.898 68.1279 103.968 68.115 104.044V112.269H65.5381C65.4961 112.269 65.4545 112.277 65.4157 112.293C65.3769 112.309 65.3417 112.333 65.312 112.362C65.2823 112.392 65.2587 112.427 65.2426 112.466C65.2266 112.505 65.2183 112.546 65.2183 112.588V124.468C65.2183 124.51 65.2266 124.551 65.2426 124.59C65.2587 124.629 65.2823 124.664 65.312 124.694C65.3417 124.724 65.3769 124.747 65.4157 124.763C65.4545 124.779 65.4961 124.788 65.5381 124.788H68.3343V133.012C68.3343 133.097 68.368 133.178 68.428 133.238C68.488 133.298 68.5693 133.332 68.6541 133.332C68.739 133.332 68.8203 133.298 68.8803 133.238C68.9403 133.178 68.9739 133.097 68.9739 133.012V124.788H71.56C71.6448 124.788 71.7262 124.754 71.7861 124.694C71.8461 124.634 71.8798 124.553 71.8798 124.468V112.588C71.8798 112.505 71.8474 112.425 71.7894 112.365C71.7314 112.306 71.6524 112.271 71.5691 112.269Z" fill="#D9DFE8"/>
<path d="M84.4899 112.269H81.7028V104.044C81.6899 103.968 81.6503 103.898 81.5909 103.848C81.5315 103.798 81.4562 103.77 81.3784 103.77C81.3007 103.77 81.2254 103.798 81.166 103.848C81.1066 103.898 81.067 103.968 81.0541 104.044V112.269H78.4772C78.3923 112.269 78.311 112.302 78.251 112.362C78.191 112.422 78.1574 112.504 78.1574 112.588V141.674C78.1561 141.717 78.1635 141.76 78.179 141.8C78.1945 141.84 78.2179 141.876 78.2477 141.907C78.2775 141.937 78.3132 141.962 78.3526 141.978C78.392 141.995 78.4344 142.003 78.4772 142.003H81.2734V150.228C81.2734 150.312 81.3071 150.394 81.3671 150.454C81.427 150.514 81.5083 150.547 81.5932 150.547C81.678 150.547 81.7594 150.514 81.8193 150.454C81.8793 150.394 81.913 150.312 81.913 150.228V142.003H84.4899C84.5772 142.003 84.6608 141.969 84.7225 141.907C84.7842 141.845 84.8189 141.762 84.8189 141.674V112.588C84.8165 112.503 84.7808 112.421 84.7193 112.362C84.6579 112.302 84.5756 112.269 84.4899 112.269Z" fill="#D9DFE8"/>
<path d="M95.2636 135.972H92.4674V127.748C92.4686 127.705 92.4612 127.663 92.4457 127.623C92.4302 127.583 92.4068 127.547 92.377 127.516C92.3472 127.485 92.3115 127.461 92.2721 127.444C92.2327 127.428 92.1904 127.419 92.1476 127.419C92.0619 127.422 91.9805 127.457 91.9208 127.519C91.8611 127.58 91.8277 127.662 91.8277 127.748V135.972H89.2508C89.2081 135.971 89.1655 135.978 89.1256 135.994C89.0858 136.009 89.0494 136.033 89.0188 136.063C88.9881 136.093 88.9637 136.128 88.9471 136.168C88.9304 136.207 88.9219 136.249 88.9219 136.292V152.448C88.9219 152.491 88.9304 152.534 88.9469 152.574C88.9634 152.614 88.9877 152.65 89.0183 152.681C89.0488 152.711 89.085 152.735 89.1249 152.752C89.1649 152.768 89.2076 152.777 89.2508 152.777H92.047V161.001C92.047 161.086 92.0808 161.167 92.1407 161.227C92.2007 161.287 92.2821 161.321 92.3669 161.321C92.4517 161.321 92.5331 161.287 92.5931 161.227C92.653 161.167 92.6867 161.086 92.6867 161.001V152.777H95.2636C95.3068 152.777 95.3496 152.768 95.3895 152.752C95.4294 152.735 95.4657 152.711 95.4962 152.681C95.5268 152.65 95.551 152.614 95.5675 152.574C95.584 152.534 95.5926 152.491 95.5926 152.448V136.292C95.5926 136.249 95.584 136.207 95.5674 136.168C95.5508 136.128 95.5263 136.093 95.4957 136.063C95.465 136.033 95.4287 136.009 95.3888 135.994C95.3489 135.978 95.3064 135.971 95.2636 135.972Z" fill="#D9DFE8"/>
<path d="M146.052 108.86H143.256V100.636C143.243 100.559 143.203 100.49 143.144 100.439C143.084 100.389 143.009 100.362 142.931 100.362C142.853 100.362 142.778 100.389 142.719 100.439C142.659 100.49 142.62 100.559 142.607 100.636V108.86H140.039C139.954 108.86 139.873 108.894 139.813 108.954C139.753 109.014 139.719 109.095 139.719 109.18V121.059C139.719 121.144 139.753 121.225 139.813 121.285C139.873 121.345 139.954 121.379 140.039 121.379H142.835V129.603C142.835 129.689 142.869 129.771 142.928 129.833C142.988 129.894 143.069 129.93 143.155 129.932C143.198 129.932 143.24 129.924 143.28 129.907C143.319 129.89 143.355 129.866 143.385 129.835C143.414 129.805 143.438 129.768 143.453 129.728C143.469 129.689 143.476 129.646 143.475 129.603V121.379H146.061C146.146 121.379 146.227 121.345 146.287 121.285C146.347 121.225 146.381 121.144 146.381 121.059V109.18C146.381 109.137 146.372 109.095 146.356 109.055C146.339 109.016 146.315 108.98 146.284 108.951C146.253 108.921 146.217 108.897 146.177 108.882C146.137 108.866 146.095 108.859 146.052 108.86Z" fill="#D9DFE8"/>
<path d="M158.973 100.243H156.186V92.019C156.194 91.9718 156.191 91.9235 156.179 91.8774C156.166 91.8313 156.144 91.7885 156.113 91.7519C156.082 91.7154 156.043 91.6861 156 91.6659C155.957 91.6458 155.909 91.6354 155.862 91.6354C155.814 91.6354 155.767 91.6458 155.723 91.6659C155.68 91.6861 155.641 91.7154 155.61 91.7519C155.579 91.7885 155.557 91.8313 155.544 91.8774C155.532 91.9235 155.529 91.9718 155.537 92.019V100.243H152.96C152.918 100.242 152.875 100.249 152.835 100.265C152.795 100.28 152.759 100.304 152.728 100.334C152.698 100.363 152.673 100.399 152.657 100.438C152.64 100.478 152.631 100.52 152.631 100.563V112.442C152.634 112.528 152.669 112.609 152.731 112.669C152.792 112.729 152.875 112.762 152.96 112.762H155.757V120.986C155.755 121.029 155.763 121.071 155.778 121.11C155.794 121.149 155.817 121.185 155.847 121.215C155.877 121.245 155.913 121.269 155.952 121.284C155.992 121.3 156.034 121.307 156.076 121.306C156.118 121.306 156.16 121.298 156.199 121.282C156.238 121.266 156.273 121.242 156.302 121.212C156.332 121.183 156.356 121.147 156.372 121.109C156.388 121.07 156.396 121.028 156.396 120.986V112.762H158.973C159.059 112.762 159.141 112.729 159.202 112.669C159.264 112.609 159.3 112.528 159.302 112.442V100.563C159.302 100.52 159.293 100.478 159.277 100.438C159.26 100.399 159.236 100.363 159.205 100.334C159.174 100.304 159.138 100.28 159.098 100.265C159.058 100.249 159.016 100.242 158.973 100.243Z" fill="#D9DFE8"/>
<path d="M171.904 100.243H169.108V92.0189C169.108 91.9332 169.074 91.8509 169.014 91.7894C168.955 91.728 168.873 91.6923 168.788 91.6899C168.745 91.6899 168.703 91.6985 168.663 91.7151C168.624 91.7318 168.588 91.7561 168.558 91.7868C168.528 91.8175 168.505 91.8538 168.49 91.8937C168.474 91.9336 168.467 91.9761 168.468 92.0189V100.243H165.882C165.84 100.243 165.798 100.251 165.759 100.267C165.721 100.283 165.685 100.307 165.656 100.337C165.626 100.366 165.602 100.402 165.586 100.44C165.57 100.479 165.562 100.521 165.562 100.563V129.649C165.562 129.691 165.57 129.732 165.586 129.771C165.602 129.81 165.626 129.845 165.656 129.875C165.685 129.905 165.721 129.928 165.759 129.944C165.798 129.96 165.84 129.969 165.882 129.969H168.678V138.193C168.67 138.24 168.673 138.288 168.685 138.334C168.698 138.381 168.72 138.423 168.751 138.46C168.782 138.496 168.821 138.526 168.864 138.546C168.907 138.566 168.955 138.576 169.002 138.576C169.05 138.576 169.098 138.566 169.141 138.546C169.184 138.526 169.223 138.496 169.254 138.46C169.285 138.423 169.307 138.381 169.32 138.334C169.332 138.288 169.335 138.24 169.327 138.193V129.969H171.904C171.946 129.969 171.987 129.96 172.026 129.944C172.065 129.928 172.1 129.905 172.13 129.875C172.16 129.845 172.183 129.81 172.199 129.771C172.215 129.732 172.224 129.691 172.224 129.649V100.563C172.225 100.521 172.217 100.478 172.202 100.439C172.186 100.4 172.163 100.364 172.133 100.334C172.103 100.304 172.067 100.28 172.028 100.265C171.988 100.249 171.946 100.242 171.904 100.243Z" fill="#D9DFE8"/>
<path d="M182.677 123.938H179.88V115.714C179.88 115.629 179.847 115.547 179.787 115.487C179.727 115.427 179.646 115.394 179.561 115.394C179.519 115.394 179.477 115.402 179.438 115.418C179.4 115.434 179.364 115.458 179.335 115.487C179.305 115.517 179.281 115.552 179.265 115.591C179.249 115.63 179.241 115.672 179.241 115.714V123.938H176.655C176.57 123.938 176.489 123.971 176.429 124.031C176.369 124.091 176.335 124.173 176.335 124.258V140.423C176.335 140.507 176.369 140.589 176.429 140.649C176.489 140.709 176.57 140.742 176.655 140.742H179.451V148.967C179.443 149.014 179.446 149.062 179.458 149.108C179.471 149.154 179.493 149.197 179.524 149.234C179.555 149.27 179.594 149.299 179.637 149.32C179.68 149.34 179.728 149.35 179.775 149.35C179.823 149.35 179.871 149.34 179.914 149.32C179.957 149.299 179.996 149.27 180.027 149.234C180.057 149.197 180.08 149.154 180.093 149.108C180.105 149.062 180.108 149.014 180.1 148.967V140.742H182.677C182.762 140.742 182.843 140.709 182.903 140.649C182.963 140.589 182.997 140.507 182.997 140.423V124.258C182.997 124.173 182.963 124.091 182.903 124.031C182.843 123.971 182.762 123.938 182.677 123.938Z" fill="#D9DFE8"/>
<path d="M120.192 130.407H117.396V122.183C117.397 122.14 117.389 122.098 117.374 122.058C117.358 122.018 117.335 121.982 117.305 121.951C117.275 121.92 117.24 121.896 117.2 121.879C117.161 121.863 117.119 121.854 117.076 121.854C116.99 121.857 116.909 121.892 116.849 121.954C116.789 122.015 116.756 122.098 116.756 122.183V130.407H114.179C114.136 130.406 114.094 130.414 114.054 130.429C114.014 130.445 113.978 130.468 113.947 130.498C113.916 130.528 113.892 130.563 113.875 130.603C113.859 130.642 113.85 130.684 113.85 130.727V146.883C113.85 146.926 113.859 146.968 113.875 147.008C113.892 147.047 113.916 147.083 113.947 147.113C113.978 147.142 114.014 147.166 114.054 147.181C114.094 147.197 114.136 147.204 114.179 147.203H116.92V155.427C116.933 155.504 116.973 155.573 117.032 155.624C117.092 155.674 117.167 155.701 117.245 155.701C117.323 155.701 117.398 155.674 117.457 155.624C117.517 155.573 117.556 155.504 117.569 155.427V147.203H120.146C120.189 147.204 120.231 147.197 120.271 147.181C120.311 147.166 120.347 147.142 120.378 147.113C120.409 147.083 120.433 147.047 120.45 147.008C120.467 146.968 120.475 146.926 120.475 146.883V130.727C120.476 130.648 120.447 130.572 120.395 130.513C120.342 130.454 120.27 130.416 120.192 130.407Z" fill="#D9DFE8"/>
<path d="M133.122 115.321H130.326V107.097C130.326 107.012 130.293 106.93 130.233 106.87C130.173 106.81 130.091 106.777 130.006 106.777C129.922 106.777 129.84 106.81 129.78 106.87C129.72 106.93 129.687 107.012 129.687 107.097V115.321H127.101C127.016 115.321 126.934 115.354 126.874 115.414C126.814 115.474 126.781 115.556 126.781 115.641V136.109C126.781 136.195 126.814 136.278 126.874 136.339C126.934 136.4 127.015 136.436 127.101 136.438H129.897V144.663C129.91 144.739 129.949 144.809 130.009 144.859C130.068 144.909 130.143 144.937 130.221 144.937C130.299 144.937 130.374 144.909 130.434 144.859C130.493 144.809 130.533 144.739 130.546 144.663V136.438H133.122C133.208 136.436 133.289 136.4 133.349 136.339C133.409 136.278 133.442 136.195 133.442 136.109V115.641C133.442 115.599 133.434 115.557 133.418 115.518C133.402 115.479 133.378 115.444 133.349 115.414C133.319 115.385 133.284 115.361 133.245 115.345C133.206 115.329 133.164 115.321 133.122 115.321Z" fill="#D9DFE8"/>
<path d="M107.271 126.094H104.474V117.87C104.461 117.793 104.422 117.724 104.362 117.674C104.303 117.623 104.228 117.596 104.15 117.596C104.072 117.596 103.997 117.623 103.938 117.674C103.878 117.724 103.838 117.793 103.826 117.87V126.094H101.249C101.164 126.094 101.082 126.128 101.022 126.188C100.963 126.248 100.929 126.329 100.929 126.414V138.293C100.928 138.336 100.935 138.378 100.951 138.417C100.966 138.457 100.99 138.492 101.02 138.522C101.05 138.552 101.085 138.576 101.125 138.591C101.164 138.607 101.206 138.615 101.249 138.613H104.045V146.837C104.045 146.922 104.079 147.004 104.139 147.064C104.199 147.124 104.28 147.157 104.365 147.157C104.45 147.157 104.531 147.124 104.591 147.064C104.651 147.004 104.685 146.922 104.685 146.837V138.613H107.271C107.355 138.613 107.437 138.58 107.497 138.52C107.557 138.46 107.59 138.378 107.59 138.293V126.432C107.593 126.389 107.586 126.345 107.571 126.304C107.557 126.263 107.533 126.226 107.503 126.194C107.473 126.163 107.437 126.137 107.397 126.12C107.357 126.103 107.314 126.094 107.271 126.094Z" fill="#D9DFE8"/>
<path d="M205.595 129.512H202.798V121.288C202.786 121.211 202.746 121.141 202.686 121.091C202.627 121.041 202.552 121.013 202.474 121.013C202.396 121.013 202.321 121.041 202.262 121.091C202.202 121.141 202.163 121.211 202.15 121.288V129.512H199.573C199.488 129.512 199.407 129.546 199.347 129.606C199.287 129.666 199.253 129.747 199.253 129.832V158.918C199.253 159.003 199.287 159.084 199.347 159.144C199.407 159.204 199.488 159.238 199.573 159.238H202.369V167.462C202.369 167.547 202.403 167.628 202.463 167.688C202.523 167.748 202.604 167.782 202.689 167.782C202.731 167.783 202.773 167.775 202.813 167.76C202.852 167.744 202.888 167.721 202.918 167.691C202.948 167.661 202.971 167.625 202.987 167.586C203.002 167.546 203.01 167.504 203.009 167.462V159.238H205.595C205.679 159.238 205.761 159.204 205.821 159.144C205.881 159.084 205.915 159.003 205.915 158.918V129.832C205.915 129.747 205.881 129.666 205.821 129.606C205.761 129.546 205.679 129.512 205.595 129.512Z" fill="#D9DFE8"/>
<path d="M194.867 118.738H192.071V110.514C192.058 110.437 192.018 110.368 191.959 110.318C191.9 110.267 191.824 110.24 191.747 110.24C191.669 110.24 191.593 110.267 191.534 110.318C191.475 110.368 191.435 110.437 191.422 110.514V118.738H188.845C188.76 118.738 188.679 118.772 188.619 118.832C188.559 118.892 188.525 118.973 188.525 119.058V135.214C188.525 135.3 188.559 135.382 188.618 135.443C188.678 135.505 188.76 135.541 188.845 135.543H191.641V143.721C191.633 143.769 191.636 143.817 191.649 143.863C191.661 143.909 191.684 143.952 191.715 143.988C191.746 144.025 191.784 144.054 191.827 144.075C191.871 144.095 191.918 144.105 191.966 144.105C192.014 144.105 192.061 144.095 192.104 144.075C192.148 144.054 192.186 144.025 192.217 143.988C192.248 143.952 192.27 143.909 192.283 143.863C192.296 143.817 192.298 143.769 192.29 143.721V135.57H194.867C194.953 135.568 195.034 135.532 195.094 135.471C195.154 135.409 195.187 135.327 195.187 135.241V119.058C195.187 118.973 195.153 118.892 195.093 118.832C195.033 118.772 194.952 118.738 194.867 118.738Z" fill="#D9DFE8"/>
<path d="M152.147 202.04C151.572 202.125 150.992 202.168 150.411 202.167C147.188 202.097 144.057 201.087 141.401 199.262C140.813 198.883 140.203 198.541 139.573 198.238C138.093 200.02 137.417 203.008 136.704 206.17C135.79 210.319 134.703 214.97 131.605 218.378C132.426 218.349 133.246 218.432 134.045 218.625C134.178 218.667 134.29 218.76 134.358 218.882C134.426 219.005 134.444 219.149 134.409 219.285C134.374 219.42 134.288 219.537 134.169 219.612C134.051 219.686 133.908 219.712 133.771 219.685C132.023 219.339 130.214 219.455 128.525 220.023C125.729 221.065 123.682 222.883 123.399 224.51C125.492 224.51 133.021 224.51 140.871 224.327C141.072 223.772 141.129 223.174 141.035 222.591C140.923 221.791 141.022 220.976 141.322 220.226C141.622 219.476 142.112 218.817 142.744 218.314C144.993 216.573 146.909 214.44 148.4 212.018C150.244 208.947 151.513 205.565 152.147 202.04Z" fill="#D93872"/>
<path d="M210.483 217.675L210.895 217.583C210.353 216.02 209.677 214.507 208.875 213.06C207.07 209.619 204.443 206.678 201.227 204.498C200.386 203.959 199.631 203.297 198.988 202.533C198.458 202.762 197.928 202.972 197.398 203.182C197.014 205.613 197.462 206.508 198.695 208.966L198.906 209.387C199.817 211.119 200.4 213.006 200.624 214.952C200.925 214.952 201.218 214.897 201.537 214.888L201.583 215.975C200.181 216.033 198.793 216.289 197.462 216.733C196.463 217.061 195.631 217.766 195.144 218.698C194.658 219.63 194.555 220.716 194.858 221.723C196.448 221.723 202.597 221.814 205.695 221.896C206.09 220.857 206.733 219.929 207.567 219.193C208.401 218.457 209.402 217.936 210.483 217.675Z" fill="#D93872"/>
<path d="M224.108 208.847C222.984 205.525 222.117 202.122 221.513 198.668C221.242 196.361 221.242 194.03 221.513 191.723C221.933 186.679 222.372 181.452 216.369 170.34C212.64 163.432 207.295 159.566 200.021 158.461C193.697 157.547 187.054 158.845 181.188 159.996L180.822 160.069C175.976 161.124 170.94 160.91 166.201 159.448C163.398 158.587 160.468 158.21 157.539 158.333C150.338 158.781 139.18 166.511 136.393 168.522C136.668 168.708 136.931 168.913 137.179 169.134C139.829 171.409 139.637 173.511 139.281 174.562C138.944 175.443 138.366 176.211 137.613 176.778C136.86 177.345 135.962 177.689 135.023 177.769C134.952 177.773 134.881 177.764 134.814 177.74C134.747 177.717 134.685 177.681 134.632 177.634C134.525 177.539 134.46 177.405 134.452 177.262C134.443 177.119 134.492 176.979 134.587 176.872C134.682 176.764 134.816 176.699 134.959 176.691C135.682 176.622 136.372 176.354 136.953 175.917C137.534 175.48 137.982 174.891 138.248 174.215C138.714 172.826 138.102 171.354 136.476 169.956C135.297 168.933 134.219 168.522 133.268 168.732C131.824 169.043 130.865 170.715 130.417 171.674C130.078 172.444 129.452 173.05 128.672 173.365C126.325 174.318 124.083 175.512 121.983 176.929C119.068 178.957 117.505 180.986 117.332 182.96C117.213 184.349 117.195 185.381 117.176 186.204C117.176 188.159 117.131 189.055 115.732 190.544C114.709 191.613 113.795 192.71 113.302 193.285L113.174 193.441C113.923 194.263 115.513 195.972 115.614 196.073V196.118C115.877 196.451 116.231 196.7 116.633 196.837C117.036 196.973 117.468 196.99 117.88 196.886H117.999C118.209 196.822 118.406 196.723 118.584 196.593C118.953 196.343 119.281 196.034 119.552 195.68C119.595 195.622 119.648 195.574 119.709 195.537C119.77 195.501 119.838 195.477 119.908 195.467C119.979 195.456 120.051 195.46 120.12 195.478C120.189 195.496 120.254 195.527 120.311 195.57C120.37 195.611 120.42 195.663 120.458 195.724C120.496 195.785 120.521 195.853 120.533 195.924C120.544 195.995 120.54 196.067 120.522 196.137C120.505 196.206 120.473 196.271 120.429 196.328C120.09 196.792 119.676 197.196 119.205 197.525C119.021 197.651 118.825 197.758 118.62 197.845C118.663 198.352 118.898 198.823 119.278 199.161C120.022 199.494 120.852 199.585 121.65 199.421C122.449 199.257 123.175 198.846 123.728 198.247C124.399 197.493 125.223 196.889 126.144 196.477C127.066 196.064 128.064 195.851 129.074 195.853C132.729 195.899 135.47 194.939 137.042 193.112C138.614 191.284 139.162 188.388 138.559 184.641C138.549 184.504 138.591 184.369 138.676 184.262C138.761 184.155 138.884 184.083 139.019 184.061C139.154 184.039 139.292 184.069 139.407 184.144C139.521 184.219 139.604 184.335 139.637 184.467C140.295 188.552 139.701 191.695 137.865 193.825C137.146 194.647 136.265 195.312 135.278 195.78C137.651 196.203 139.918 197.088 141.949 198.384C144.208 199.91 146.818 200.835 149.534 201.071C150.311 201.124 151.091 201.1 151.864 200.998C150.96 199.689 149.938 198.466 148.812 197.343C146.49 195.113 144.952 192.193 144.426 189.018C144.065 186.384 144.328 183.701 145.193 181.187C146.163 178.274 147.638 175.555 149.552 173.155C149.645 173.046 149.778 172.978 149.921 172.967C150.064 172.956 150.206 173.002 150.315 173.095C150.424 173.189 150.492 173.321 150.503 173.464C150.514 173.607 150.468 173.749 150.374 173.858C148.557 176.165 147.151 178.768 146.217 181.552C145.416 183.901 145.172 186.404 145.504 188.863C145.996 191.807 147.429 194.513 149.589 196.575C150.928 197.92 152.125 199.399 153.161 200.989C153.217 201.043 153.261 201.108 153.289 201.181C154.086 202.423 154.769 203.735 155.327 205.101C156.458 207.737 156.977 210.596 156.844 213.462C156.767 215.587 156.047 217.639 154.779 219.347C156.686 219.076 158.63 219.257 160.454 219.877C160.587 219.93 160.695 220.033 160.753 220.165C160.811 220.297 160.815 220.446 160.764 220.58C160.739 220.647 160.701 220.709 160.651 220.761C160.602 220.813 160.543 220.854 160.478 220.883C160.412 220.912 160.341 220.928 160.27 220.929C160.198 220.931 160.127 220.918 160.061 220.891C157.91 220.181 155.599 220.108 153.408 220.681C153.331 220.716 153.247 220.735 153.161 220.736C152.455 220.897 151.777 221.165 151.151 221.531C149.323 222.554 148.346 223.633 147.98 225.003H168.824C169.024 225.006 169.223 224.967 169.407 224.889C169.591 224.81 169.757 224.693 169.893 224.546C170.031 224.394 170.135 224.214 170.2 224.019C170.264 223.824 170.287 223.618 170.268 223.413C170.213 222.746 170.121 222.207 170.021 221.586C169.92 220.964 169.792 220.233 169.692 219.255C169.591 218.278 169.445 217.474 169.308 216.715C168.787 213.8 168.394 211.497 169.984 200.925C170.396 198.183 168.65 190.599 168.632 190.526C168.602 190.384 168.628 190.236 168.704 190.114C168.781 189.991 168.903 189.903 169.043 189.868C169.184 189.838 169.33 189.864 169.452 189.941C169.573 190.018 169.659 190.139 169.692 190.279C169.765 190.599 171.52 198.174 171.063 201.08C170.926 201.939 170.816 202.743 170.706 203.493C173.071 204.447 175.566 205.035 178.108 205.238C182.531 205.667 189.585 205.375 198.303 201.683C197.811 200.966 197.395 200.201 197.06 199.399C196.237 197.375 195.731 195.236 195.561 193.057C195.326 190.497 195.384 187.919 195.735 185.372C195.757 185.23 195.834 185.103 195.95 185.018C196.065 184.933 196.21 184.898 196.352 184.92C196.494 184.942 196.621 185.019 196.706 185.134C196.791 185.25 196.826 185.395 196.804 185.536C196.471 188.002 196.416 190.497 196.64 192.975C196.987 196.557 198.157 201.318 201.812 203.62C205.187 205.908 207.946 208.994 209.844 212.603C210.703 214.17 211.425 215.809 212.001 217.501L212.823 217.455H213.097C213.174 217.442 213.252 217.445 213.327 217.465C213.402 217.484 213.472 217.519 213.532 217.568C213.593 217.616 213.642 217.677 213.678 217.746C213.713 217.815 213.733 217.891 213.737 217.968C213.741 218.046 213.729 218.123 213.7 218.195C213.672 218.267 213.629 218.333 213.574 218.387C213.518 218.441 213.452 218.483 213.38 218.51C213.307 218.537 213.229 218.548 213.152 218.543H212.878L211.836 218.607H211.772C211.724 218.616 211.674 218.616 211.626 218.607H211.525C211.267 218.636 211.01 218.682 210.758 218.744C209.808 218.964 208.931 219.423 208.208 220.077C207.485 220.731 206.941 221.558 206.627 222.481C206.331 223.252 206.146 224.061 206.079 224.884H225.269C225.433 224.784 225.744 224.309 226.283 222.746C226.283 222.646 226.347 222.554 226.375 222.481C227.416 219.639 225.744 214.156 224.108 208.847ZM121.188 185.025C121.007 185.025 120.83 184.971 120.68 184.871C120.53 184.77 120.413 184.628 120.344 184.461C120.274 184.294 120.256 184.11 120.292 183.933C120.327 183.755 120.414 183.593 120.542 183.465C120.669 183.337 120.832 183.25 121.01 183.215C121.187 183.179 121.371 183.198 121.538 183.267C121.704 183.336 121.847 183.453 121.948 183.603C122.048 183.754 122.102 183.93 122.102 184.111C122.102 184.353 122.005 184.586 121.834 184.757C121.663 184.929 121.43 185.025 121.188 185.025Z" fill="#D93872"/>
<path d="M162.217 118.4L159.064 117.815L156.058 116.426C158.104 114.01 160.446 111.86 163.03 110.03C163.58 109.89 164.117 109.706 164.638 109.482C164.73 109.442 164.814 109.384 164.884 109.312C164.953 109.24 165.008 109.155 165.045 109.061C165.081 108.968 165.099 108.868 165.097 108.767C165.094 108.667 165.072 108.568 165.031 108.476C164.951 108.29 164.8 108.143 164.612 108.068C164.423 107.993 164.213 107.995 164.026 108.074C159.384 110.085 155.546 107.38 154.303 106.329C155.392 104.471 156.348 102.538 157.163 100.545C157.821 98.9547 158.406 97.3281 158.936 95.7107C161.595 97.0174 170.322 101.669 172.945 107.59C174.288 110.66 172.488 111.647 168.906 113.265C166.475 114.37 163.569 115.695 162.217 118.4Z" fill="#10A861"/>
<path d="M153.518 122.43C153.379 122.205 153.292 121.952 153.265 121.689C153.239 121.427 153.272 121.161 153.362 120.913C153.806 119.766 154.392 118.679 155.108 117.678L158.507 119.25C158.566 119.273 158.627 119.291 158.69 119.305L161.687 119.853L161.605 120.255C161.585 120.358 161.587 120.464 161.611 120.567C161.634 120.669 161.679 120.765 161.742 120.849L163.706 123.499C163.768 123.589 163.802 123.696 163.802 123.805C163.802 123.915 163.768 124.021 163.706 124.111C163.652 124.206 163.571 124.281 163.473 124.329C163.375 124.376 163.265 124.393 163.158 124.376L154.797 123.298C154.533 123.256 154.282 123.156 154.061 123.006C153.84 122.856 153.654 122.659 153.518 122.43Z" fill="#10A861"/>
<path d="M180.511 48.4493C179.51 47.2219 178.338 46.1448 177.03 45.2511C178.131 45.1954 179.209 44.9116 180.196 44.4177C181.182 43.9238 182.055 43.2305 182.759 42.3818C183.553 41.396 184.194 40.2962 184.66 39.1195C185.455 40.7278 186.442 43.4052 185.519 45.5161C184.815 47.0147 183.143 48.0107 180.511 48.4493Z" fill="#10A861"/>
<path d="M144.955 137.928C145.466 137.926 145.97 137.81 146.43 137.589C146.89 137.368 147.295 137.046 147.614 136.649L148.017 136.146C148.365 136.465 148.79 136.688 149.25 136.795C150.858 137.115 153.015 138.622 155.318 140.998C155.395 141.074 155.448 141.171 155.467 141.278C155.487 141.384 155.473 141.494 155.427 141.592C155.39 141.691 155.322 141.777 155.233 141.835C155.145 141.894 155.04 141.924 154.934 141.921H144.535C144.429 141.92 144.325 141.887 144.237 141.827C144.149 141.767 144.081 141.682 144.042 141.583C143.535 140.344 143.107 139.075 142.762 137.782L144.727 137.919L144.955 137.928Z" fill="#10A861"/>
<path d="M98.6718 133.999H98.9186C99.5336 133.999 100.137 133.832 100.664 133.514L102.318 132.518C103.104 133.322 103.871 134.099 104.602 134.821C105.516 135.735 106.43 136.649 107.143 137.398C107.158 137.421 107.167 137.448 107.167 137.476C107.167 137.503 107.158 137.53 107.143 137.553C107.135 137.581 107.118 137.604 107.094 137.621C107.071 137.638 107.043 137.646 107.015 137.645H96.2777C96.1631 137.64 96.0549 137.591 95.9762 137.508C95.9436 137.474 95.9192 137.434 95.905 137.389C95.8907 137.345 95.8869 137.298 95.8939 137.252C95.9425 136.072 95.7657 134.893 95.373 133.779L98.6718 133.999Z" fill="#10A861"/>
<path d="M38.9099 83.9228C38.0066 81.0926 38.1165 78.0363 39.2206 75.2783C40.7101 70.9652 45.3978 69.2655 49.0713 68.5985C53.2385 67.8921 57.5036 68.007 61.6268 68.9366C65.451 69.9243 69.494 69.6257 73.1315 68.0867C77.8954 65.9475 83.2257 65.4152 88.3187 66.5698C93.1618 67.776 101.322 65.656 112.562 60.3743C119.856 56.8308 126.968 52.924 133.871 48.6686L134.438 48.3305C138.504 45.8816 147.423 42.4548 161.477 47.0603C162.549 47.4145 163.683 47.5406 164.807 47.4304C165.93 47.3203 167.019 46.9763 168.001 46.4207C169.6 45.5396 171.394 45.0716 173.219 45.0591C175.77 45.9465 177.997 47.5757 179.616 49.7378C180.1 50.2752 180.657 50.7426 181.27 51.1267C182.293 51.8486 183.454 52.6619 183.837 53.8681C184.046 54.4928 184.405 55.0565 184.883 55.5092C185.361 55.9619 185.944 56.2896 186.579 56.4633C189.041 57.1441 191.653 57.0549 194.063 56.2074C197.544 55.0469 200.021 52.2324 201.446 50.1672C201.323 52.8623 200.297 55.4375 198.531 57.4776C196.091 60.0636 192.226 61.1785 187.045 60.7855C186.901 60.7718 186.757 60.7999 186.629 60.8664C186.501 60.9328 186.395 61.0349 186.323 61.1602C186.247 61.2821 186.206 61.423 186.206 61.5668C186.206 61.7106 186.247 61.8515 186.323 61.9735C186.323 62.0283 189.594 66.8348 189.978 71.1114C190.143 73.1126 191.248 75.1595 193.259 77.1881C193.874 77.8099 194.226 78.6452 194.242 79.5201C194.257 80.3949 193.934 81.242 193.341 81.885C193.031 82.2211 192.657 82.492 192.242 82.6819C191.826 82.8718 191.376 82.9767 190.919 82.9907C183.042 83.1917 177.212 82.2597 175.385 80.4778C174.396 79.4721 173.227 78.6601 171.94 78.0836C169.198 76.9231 165.452 75.854 162.966 77.2978C162.275 77.7383 161.701 78.3401 161.293 79.0517C160.886 79.7632 160.657 80.563 160.627 81.3824C159.778 87.7446 158.139 93.9761 155.747 99.9324C153.591 105.132 150.027 111.437 144.946 113.292C147.551 105.982 145.86 98.2785 145.787 97.9312C145.774 97.8247 145.739 97.7221 145.684 97.6301C145.628 97.5381 145.554 97.4586 145.467 97.3969C145.379 97.3352 145.279 97.2926 145.174 97.2718C145.068 97.2511 144.96 97.2526 144.855 97.2764C144.751 97.3001 144.652 97.3456 144.566 97.4098C144.48 97.4739 144.409 97.5554 144.356 97.649C144.303 97.7426 144.271 97.8461 144.261 97.953C144.251 98.0598 144.263 98.1676 144.298 98.2693C144.298 98.3515 146.171 106.886 142.973 114.133C142.03 116.207 141.777 118.529 142.251 120.758C142.945 124.01 143.827 127.22 144.892 130.371C145.413 131.973 146.124 133.507 147.012 134.94L146.418 135.671C146.233 135.91 145.992 136.099 145.716 136.222C145.44 136.344 145.138 136.397 144.837 136.374L142.351 136.201C142.296 135.982 142.242 135.762 142.187 135.525C141.221 131.73 139.317 128.239 136.649 125.372C134.547 123.07 133.268 120.082 132.025 117.194C130.783 114.306 129.549 111.391 127.53 109.536C125.236 107.407 122.175 106.877 118.181 107.91C105.516 111.172 103.689 110.423 91.7911 105.571C90.393 104.995 88.803 104.346 87.0577 103.652C80.0854 100.91 74.4199 100.316 70.2256 102.025C69.0875 102.477 68.0456 103.14 67.1552 103.981C67.2292 102.047 67.8643 100.177 68.9828 98.5983C69.6663 97.5787 70.5049 96.6723 71.4684 95.9117C71.5505 95.8544 71.6203 95.7812 71.6736 95.6965C71.727 95.6118 71.7628 95.5172 71.779 95.4184C71.7952 95.3196 71.7913 95.2185 71.7678 95.1212C71.7443 95.0239 71.7015 94.9322 71.642 94.8517C71.5838 94.7693 71.5098 94.6993 71.4242 94.6459C71.3387 94.5924 71.2434 94.5566 71.1439 94.5404C71.0443 94.5242 70.9425 94.5281 70.8445 94.5517C70.7464 94.5754 70.6541 94.6183 70.5728 94.6781C70.3352 94.8517 64.6515 99.0186 65.812 106.128C66.3603 109.509 62.9792 112.524 60.0551 114.526C57.634 116.192 55.6955 118.468 54.4352 121.123C53.8576 122.22 53.0725 123.195 52.1234 123.993C50.5253 125.404 49.0853 126.985 47.8285 128.708L46.0009 131.193C45.8005 131.47 45.6491 131.779 45.5532 132.107L45.3156 132.171C45.0049 132.251 44.6789 132.25 44.3687 132.168C44.0584 132.087 43.7741 131.927 43.5428 131.705L41.8066 130.042C45.9278 123.097 49.053 113.118 50.9446 106.987C51.6482 104.739 52.2056 102.957 52.5254 102.281C54.064 99.0626 54.8335 95.5308 54.7733 91.9641C54.7164 86.4764 56.8242 81.1874 60.6399 77.2429C60.8992 76.9725 61.0797 76.6363 61.1618 76.2707C61.244 75.9051 61.2246 75.524 61.1059 75.1686C60.9939 74.8073 60.7861 74.4831 60.5045 74.2304C60.2229 73.9778 59.8781 73.8062 59.5068 73.734C51.4928 72.1531 46.7137 72.4729 44.4109 74.7209C43.3962 75.7773 42.8157 77.1766 42.7844 78.641C42.7118 80.2967 42.85 81.9548 43.1956 83.5755C44.2464 89.3141 40.9202 92.0921 38.8916 93.2252C39.8289 90.1961 39.8352 86.9555 38.9099 83.9228Z" fill="#10A861"/>
<path d="M39.9522 134.903C40.0886 133.743 40.3966 132.61 40.866 131.541L40.9665 131.376L42.4468 132.829C42.838 133.22 43.3197 133.507 43.849 133.667C44.3783 133.826 44.9388 133.852 45.4806 133.743C45.5483 134.016 45.6561 134.278 45.8004 134.52C46.5712 135.914 47.243 137.362 47.8108 138.851H39.3125C39.4587 137.827 39.6415 136.704 39.8608 135.488C39.8882 135.287 39.9248 135.104 39.9522 134.903Z" fill="#10A861"/>
<path d="M91.2155 107.005C92.9882 107.727 94.5417 108.358 95.958 108.906C95.0442 110.67 92.9973 114.992 93.372 117.943C94.0208 122.933 97.612 127.556 101.212 131.394L99.86 132.208C99.5341 132.408 99.1538 132.5 98.7725 132.473L94.7975 132.217C93.1801 128.278 90.1463 123.947 87.9258 122.165C87.1263 121.533 86.4878 120.721 86.0622 119.795C85.6365 118.869 85.4359 117.856 85.4768 116.838L85.5316 115.257C85.5839 114.021 85.3468 112.79 84.8391 111.662C84.3315 110.534 83.5673 109.54 82.6075 108.76C80.5629 107.208 78.9826 105.125 78.0386 102.738C80.9306 103.149 83.7586 103.925 86.4546 105.05C88.2273 105.781 89.7808 106.43 91.2155 107.005Z" fill="#10A861"/>
</svg>
