<svg xmlns="http://www.w3.org/2000/svg" xmlns:xlink="http://www.w3.org/1999/xlink" width="500" height="84.571" viewBox="0 0 500 84.571">
  <defs>
    <clipPath id="clip-path">
      <path id="Path_26037" data-name="Path 26037" d="M0,0H500V84.571H0Z" transform="translate(240 971)" fill="#fff"/>
    </clipPath>
    <radialGradient id="radial-gradient" cx="0.307" cy="0.627" r="0.682" gradientTransform="matrix(-0.638, -0.716, -0.971, 1.038, 0.066, 0.926)" gradientUnits="objectBoundingBox">
      <stop offset="0" stop-color="#ffcb42"/>
      <stop offset="1" stop-color="#f9ad28"/>
    </radialGradient>
    <radialGradient id="radial-gradient-2" cx="0.308" cy="0.335" r="0.255" gradientTransform="matrix(0.913, 0, 0, -0.301, -0.005, 0.976)" gradientUnits="objectBoundingBox">
      <stop offset="0" stop-color="#da7c44"/>
      <stop offset="0.763" stop-color="#da7c44" stop-opacity="0"/>
    </radialGradient>
    <radialGradient id="radial-gradient-3" cx="0.365" cy="0.145" r="0.277" gradientTransform="matrix(0.913, 0, 0, -0.215, -0.005, 0.931)" xlink:href="#radial-gradient-2"/>
    <radialGradient id="radial-gradient-4" cx="0.304" cy="0.349" r="0.097" gradientTransform="matrix(0.913, 0, 0, -0.044, -0.005, 1.089)" gradientUnits="objectBoundingBox">
      <stop offset="0" stop-color="#b65b01"/>
      <stop offset="1" stop-color="#b65b01" stop-opacity="0"/>
    </radialGradient>
    <radialGradient id="radial-gradient-5" cx="0.334" cy="0.173" r="0.093" gradientTransform="matrix(0.913, 0, 0, -0.086, -0.005, 1.042)" xlink:href="#radial-gradient-4"/>
    <radialGradient id="radial-gradient-6" cx="0.689" cy="-0.07" r="0.797" gradientTransform="matrix(0.913, 0, 0, -1.132, -0.005, -0.304)" gradientUnits="objectBoundingBox">
      <stop offset="0.736" stop-color="#ffea4a" stop-opacity="0"/>
      <stop offset="1" stop-color="#ffea4a"/>
    </radialGradient>
    <radialGradient id="radial-gradient-7" cx="0.651" cy="0.787" r="0.104" gradientTransform="matrix(-0.516, -0.825, -2.318, 1.74, 1.027, 0.286)" gradientUnits="objectBoundingBox">
      <stop offset="0" stop-color="#ffea4a"/>
      <stop offset="1" stop-color="#ffea4a" stop-opacity="0"/>
    </radialGradient>
    <filter id="Path_26044" x="433.946" y="25.762" width="72.462" height="76.669" filterUnits="userSpaceOnUse">
      <feOffset dy="3" input="SourceAlpha"/>
      <feGaussianBlur stdDeviation="3" result="blur"/>
      <feFlood flood-opacity="0.29"/>
      <feComposite operator="in" in2="blur"/>
      <feComposite in="SourceGraphic"/>
    </filter>
    <linearGradient id="linear-gradient" x1="0.366" y1="-0.178" x2="0.366" y2="0.289" gradientUnits="objectBoundingBox">
      <stop offset="0" stop-color="#e67b58"/>
      <stop offset="1" stop-color="#e67b58" stop-opacity="0"/>
    </linearGradient>
    <linearGradient id="linear-gradient-2" x1="0.936" x2="0.325" gradientUnits="objectBoundingBox">
      <stop offset="0" stop-color="#fdbf38"/>
      <stop offset="1" stop-color="#fdbf38" stop-opacity="0"/>
    </linearGradient>
    <linearGradient id="linear-gradient-3" x1="0.683" y1="0.568" x2="0.443" y2="0.215" gradientUnits="objectBoundingBox">
      <stop offset="0" stop-color="#ffe645"/>
      <stop offset="1" stop-color="#ffe645" stop-opacity="0"/>
    </linearGradient>
    <linearGradient id="linear-gradient-4" x1="0.079" y1="0.126" x2="0.287" y2="0.326" gradientUnits="objectBoundingBox">
      <stop offset="0" stop-color="#e79325"/>
      <stop offset="1" stop-color="#e79325" stop-opacity="0"/>
    </linearGradient>
    <linearGradient id="linear-gradient-5" x1="0.285" y1="-0.112" x2="1.201" y2="-0.112" gradientUnits="objectBoundingBox">
      <stop offset="0" stop-color="#ffd12d"/>
      <stop offset="1" stop-color="#ffd12d" stop-opacity="0"/>
    </linearGradient>
    <linearGradient id="linear-gradient-6" x1="0.497" y1="0.994" x2="0.522" y2="-0.226" xlink:href="#linear-gradient-5"/>
    <radialGradient id="radial-gradient-8" cx="0.129" cy="1.03" r="1.476" gradientTransform="matrix(-0.346, -0.349, -0.029, 0.212, -1.537, 7.961)" gradientUnits="objectBoundingBox">
      <stop offset="0" stop-color="#8f4709"/>
      <stop offset="1" stop-color="#8f4709" stop-opacity="0"/>
    </radialGradient>
  </defs>
  <g id="Mask_Group_85" data-name="Mask Group 85" transform="translate(-240 -971)" clip-path="url(#clip-path)">
    <g id="Group_1219" data-name="Group 1219">
      <g id="Group_1218" data-name="Group 1218" transform="translate(0 103)">
        <g id="Rectangle_1063" data-name="Rectangle 1063" transform="translate(240 868)" fill="#11a862" stroke="#fff" stroke-width="2" stroke-dasharray="4">
          <rect width="500" height="53" rx="5" stroke="none"/>
          <rect x="1" y="1" width="498" height="51" rx="4" fill="none"/>
        </g>
        <g id="Group_1156" data-name="Group 1156" transform="translate(1)">
          <g id="Discount" transform="translate(659.401 876.673)">
            <path id="Path_1" data-name="Path 1" d="M33.353,32.372a1.541,1.541,0,1,1,1.092-.451A1.541,1.541,0,0,1,33.353,32.372Z" transform="translate(15.215 -17.555)" fill="#fff"/>
            <path id="Path_2" data-name="Path 2" d="M29.829,17.05,28.5,14.739a.847.847,0,0,1-.11-.419V11.653a.839.839,0,0,0-.421-.726L25.661,9.594a.854.854,0,0,1-.307-.307L24.021,6.976a.837.837,0,0,0-.726-.421H20.627a.859.859,0,0,1-.419-.11L17.9,5.116a.823.823,0,0,0-.837,0L14.748,6.448a.847.847,0,0,1-.419.11H11.661a.839.839,0,0,0-.726.421L9.6,9.284a.854.854,0,0,1-.307.307L6.988,10.928a.837.837,0,0,0-.421.726v2.668a.859.859,0,0,1-.11.419L5.124,17.05a.823.823,0,0,0,0,.837L6.456,20.2a.847.847,0,0,1,.11.419v2.668a.839.839,0,0,0,.421.726l2.305,1.332a.854.854,0,0,1,.307.307l1.332,2.305a.837.837,0,0,0,.726.421h2.668a.859.859,0,0,1,.419.11l2.311,1.332a.823.823,0,0,0,.837,0L20.2,28.486a.847.847,0,0,1,.419-.11H23.29a.839.839,0,0,0,.726-.421l1.332-2.305a.854.854,0,0,1,.307-.307L27.96,24.01a.837.837,0,0,0,.421-.726V20.617a.859.859,0,0,1,.11-.419l1.332-2.311A.823.823,0,0,0,29.829,17.05Zm-18.5-3.776a2.652,2.652,0,1,1,2.65,2.651,2.652,2.652,0,0,1-2.65-2.651Zm2.372,9.45a.553.553,0,1,1-.84-.72l8.392-9.792a.553.553,0,1,1,.84.72Zm7.276,1.593a2.653,2.653,0,1,1,2.652-2.654,2.653,2.653,0,0,1-2.652,2.654Zm0-4.2a1.541,1.541,0,1,0,1.092.451,1.541,1.541,0,0,0-1.092-.451Z" transform="translate(34.59)" fill="#fff"/>
          </g>
          <g id="noun-lightning-1187991" transform="translate(244 879)">
            <path id="Path_51" data-name="Path 51" d="M31.672,12.4h-8.16L26.75,0,11,19.1h8.159L15.922,31.5Z" fill="#ffc000"/>
          </g>
          <path id="Path_26034" data-name="Path 26034" d="M9.192.288A8.189,8.189,0,0,1,4.884-.8a7.312,7.312,0,0,1-2.8-3.048A9.938,9.938,0,0,1,1.1-8.376a9.994,9.994,0,0,1,.984-4.548,7.391,7.391,0,0,1,2.8-3.06,8.12,8.12,0,0,1,4.308-1.1,7.688,7.688,0,0,1,4.824,1.44,6.425,6.425,0,0,1,2.376,4.032H13.56a3.987,3.987,0,0,0-1.44-2.328,4.661,4.661,0,0,0-2.952-.864,4.963,4.963,0,0,0-3.984,1.716A7.035,7.035,0,0,0,3.72-8.376,6.948,6.948,0,0,0,5.184-3.7a4.979,4.979,0,0,0,3.984,1.7,4.856,4.856,0,0,0,2.952-.816A3.755,3.755,0,0,0,13.56-5.04h2.832a6.268,6.268,0,0,1-2.376,3.912A7.779,7.779,0,0,1,9.192.288ZM19.1,0V-17.28h2.544V0Zm7.2-14.16a1.657,1.657,0,0,1-1.188-.444,1.474,1.474,0,0,1-.468-1.116,1.474,1.474,0,0,1,.468-1.116A1.657,1.657,0,0,1,26.3-17.28a1.657,1.657,0,0,1,1.188.444,1.474,1.474,0,0,1,.468,1.116,1.474,1.474,0,0,1-.468,1.116A1.657,1.657,0,0,1,26.3-14.16ZM25.032,0V-11.9h2.544V0ZM36.576.288A6.178,6.178,0,0,1,33.444-.5a5.643,5.643,0,0,1-2.16-2.2,6.586,6.586,0,0,1-.78-3.252,6.586,6.586,0,0,1,.78-3.252,5.643,5.643,0,0,1,2.16-2.2,6.178,6.178,0,0,1,3.132-.792,5.907,5.907,0,0,1,3.708,1.152,5.2,5.2,0,0,1,1.932,3.12H39.552A2.5,2.5,0,0,0,38.5-9.456a3.344,3.344,0,0,0-1.92-.552,3.336,3.336,0,0,0-1.728.468,3.4,3.4,0,0,0-1.272,1.368,4.672,4.672,0,0,0-.48,2.22,4.672,4.672,0,0,0,.48,2.22,3.488,3.488,0,0,0,1.272,1.38,3.272,3.272,0,0,0,1.728.48,3.344,3.344,0,0,0,1.92-.552,2.513,2.513,0,0,0,1.056-1.56h2.664a5.154,5.154,0,0,1-1.92,3.1A5.876,5.876,0,0,1,36.576.288ZM44.976,0V-17.28H47.52v10.3l4.56-4.92h3.048L50.064-6.5,55.872,0H52.656L47.52-6.1V0Zm23.9,0A4.239,4.239,0,0,1,66.1-.852a3.763,3.763,0,0,1-1.032-3.036v-5.88h-2.04V-11.9h2.04l.312-3.024h2.232V-11.9h3.36v2.136h-3.36v5.88a1.761,1.761,0,0,0,.42,1.356,2.2,2.2,0,0,0,1.452.372h1.368V0Zm9.96.288a6.025,6.025,0,0,1-3.06-.78,5.692,5.692,0,0,1-2.148-2.184,6.556,6.556,0,0,1-.792-3.276,6.478,6.478,0,0,1,.8-3.276,5.752,5.752,0,0,1,2.172-2.184,6.044,6.044,0,0,1,3.048-.78,6.025,6.025,0,0,1,3.06.78,5.779,5.779,0,0,1,2.16,2.184,6.478,6.478,0,0,1,.8,3.276,6.478,6.478,0,0,1-.8,3.276A5.753,5.753,0,0,1,81.912-.492,6.091,6.091,0,0,1,78.84.288Zm0-2.184a3.294,3.294,0,0,0,1.692-.456,3.344,3.344,0,0,0,1.26-1.356,4.729,4.729,0,0,0,.48-2.244A4.83,4.83,0,0,0,81.8-8.2a3.266,3.266,0,0,0-1.248-1.356,3.294,3.294,0,0,0-1.692-.456,3.294,3.294,0,0,0-1.692.456A3.344,3.344,0,0,0,75.912-8.2a4.729,4.729,0,0,0-.48,2.244,4.729,4.729,0,0,0,.48,2.244A3.373,3.373,0,0,0,77.16-2.352,3.231,3.231,0,0,0,78.84-1.9ZM92.712,0,98.9-16.8h2.784L107.832,0h-2.688L103.7-4.1H96.84L95.4,0ZM97.56-6.12h5.424l-2.712-7.656Zm12.528,11.4V-11.9h2.28l.264,1.848a5.465,5.465,0,0,1,1.584-1.488,4.716,4.716,0,0,1,2.592-.648,5.677,5.677,0,0,1,3.048.816,5.757,5.757,0,0,1,2.076,2.232,6.721,6.721,0,0,1,.756,3.216,6.651,6.651,0,0,1-.756,3.2,5.69,5.69,0,0,1-2.076,2.208,5.788,5.788,0,0,1-3.072.8,5.283,5.283,0,0,1-2.46-.552,4.242,4.242,0,0,1-1.692-1.56v7.1Zm6.264-7.2a3.54,3.54,0,0,0,2.688-1.116A4.069,4.069,0,0,0,120.1-5.952a4.416,4.416,0,0,0-.48-2.088,3.613,3.613,0,0,0-1.32-1.428,3.638,3.638,0,0,0-1.944-.516,3.483,3.483,0,0,0-2.676,1.128,4.106,4.106,0,0,0-1.044,2.9,4.1,4.1,0,0,0,1.044,2.916A3.5,3.5,0,0,0,116.352-1.92Zm9.1,7.2V-11.9h2.28l.264,1.848a5.465,5.465,0,0,1,1.584-1.488,4.716,4.716,0,0,1,2.592-.648,5.677,5.677,0,0,1,3.048.816,5.757,5.757,0,0,1,2.076,2.232,6.721,6.721,0,0,1,.756,3.216,6.651,6.651,0,0,1-.756,3.2,5.69,5.69,0,0,1-2.076,2.208,5.788,5.788,0,0,1-3.072.8,5.283,5.283,0,0,1-2.46-.552,4.242,4.242,0,0,1-1.692-1.56v7.1Zm6.264-7.2A3.54,3.54,0,0,0,134.4-3.036a4.069,4.069,0,0,0,1.056-2.916,4.416,4.416,0,0,0-.48-2.088,3.612,3.612,0,0,0-1.32-1.428,3.638,3.638,0,0,0-1.944-.516,3.483,3.483,0,0,0-2.676,1.128,4.106,4.106,0,0,0-1.044,2.9,4.1,4.1,0,0,0,1.044,2.916A3.5,3.5,0,0,0,131.712-1.92Zm9.1,1.92V-17.28h2.544V0Zm7.152,5.28,2.856-6.264h-.7l-4.7-10.92h2.76L151.824-3.1,155.64-11.9h2.688L150.648,5.28ZM166.56,0V-16.8H169.1V-2.016h7.632V0Zm14.256-14.16a1.657,1.657,0,0,1-1.188-.444,1.474,1.474,0,0,1-.468-1.116,1.474,1.474,0,0,1,.468-1.116,1.657,1.657,0,0,1,1.188-.444,1.657,1.657,0,0,1,1.188.444,1.474,1.474,0,0,1,.468,1.116A1.474,1.474,0,0,1,182-14.6,1.657,1.657,0,0,1,180.816-14.16ZM179.544,0V-11.9h2.544V0Zm5.9,0V-11.9H187.7l.216,1.68a4.178,4.178,0,0,1,1.524-1.44,4.438,4.438,0,0,1,2.2-.528,4.007,4.007,0,0,1,3.936,2.232,4.675,4.675,0,0,1,1.74-1.632,4.83,4.83,0,0,1,2.364-.6,4.593,4.593,0,0,1,3.5,1.344,5.632,5.632,0,0,1,1.272,4.008V0h-2.544V-6.576q0-3.456-2.64-3.456a2.743,2.743,0,0,0-2.2,1.008,4.341,4.341,0,0,0-.852,2.88V0H193.68V-6.576q0-3.456-2.664-3.456a2.719,2.719,0,0,0-2.172,1.008,4.341,4.341,0,0,0-.852,2.88V0Zm23.424-14.16a1.657,1.657,0,0,1-1.188-.444,1.474,1.474,0,0,1-.468-1.116,1.474,1.474,0,0,1,.468-1.116,1.657,1.657,0,0,1,1.188-.444,1.657,1.657,0,0,1,1.188.444,1.474,1.474,0,0,1,.468,1.116,1.474,1.474,0,0,1-.468,1.116A1.657,1.657,0,0,1,208.872-14.16ZM207.6,0V-11.9h2.544V0Zm10.9,0a4.239,4.239,0,0,1-2.784-.852,3.763,3.763,0,0,1-1.032-3.036v-5.88h-2.04V-11.9h2.04l.312-3.024h2.232V-11.9h3.36v2.136h-3.36v5.88a1.761,1.761,0,0,0,.42,1.356,2.2,2.2,0,0,0,1.452.372h1.368V0Zm9.96.288a6.121,6.121,0,0,1-3.108-.78,5.546,5.546,0,0,1-2.124-2.172,6.6,6.6,0,0,1-.768-3.24,6.878,6.878,0,0,1,.756-3.288,5.5,5.5,0,0,1,2.112-2.208,6.143,6.143,0,0,1,3.156-.792,5.8,5.8,0,0,1,3.048.78,5.515,5.515,0,0,1,2.016,2.076,5.782,5.782,0,0,1,.72,2.856q0,.24-.012.516t-.036.612h-9.264a3.68,3.68,0,0,0,1.14,2.628,3.465,3.465,0,0,0,2.364.9,3.176,3.176,0,0,0,1.812-.492,2.982,2.982,0,0,0,1.092-1.332H233.9A5.4,5.4,0,0,1,232-.84,5.534,5.534,0,0,1,228.456.288Zm0-10.392a3.6,3.6,0,0,0-2.256.756A3.307,3.307,0,0,0,225-7.08h6.72a3.038,3.038,0,0,0-.984-2.208A3.293,3.293,0,0,0,228.456-10.1ZM242.328.288a5.677,5.677,0,0,1-3.048-.816,5.669,5.669,0,0,1-2.064-2.232,6.809,6.809,0,0,1-.744-3.216,6.738,6.738,0,0,1,.744-3.2,5.576,5.576,0,0,1,2.076-2.208,5.8,5.8,0,0,1,3.06-.8,5.337,5.337,0,0,1,2.484.552,4.077,4.077,0,0,1,1.668,1.56v-7.2h2.544V0h-2.28L246.5-1.848A5.465,5.465,0,0,1,244.92-.36,4.716,4.716,0,0,1,242.328.288Zm.456-2.208a3.483,3.483,0,0,0,2.676-1.128,4.106,4.106,0,0,0,1.044-2.9,4.1,4.1,0,0,0-1.044-2.916,3.5,3.5,0,0,0-2.676-1.116A3.54,3.54,0,0,0,240.1-8.868a4.069,4.069,0,0,0-1.056,2.916,4.416,4.416,0,0,0,.48,2.088,3.584,3.584,0,0,0,1.332,1.428A3.655,3.655,0,0,0,242.784-1.92ZM262.344,0V-14.736h-4.968V-16.8h12.456v2.064h-4.944V0Zm11.208-14.16a1.657,1.657,0,0,1-1.188-.444,1.474,1.474,0,0,1-.468-1.116,1.474,1.474,0,0,1,.468-1.116,1.657,1.657,0,0,1,1.188-.444,1.657,1.657,0,0,1,1.188.444,1.474,1.474,0,0,1,.468,1.116,1.474,1.474,0,0,1-.468,1.116A1.657,1.657,0,0,1,273.552-14.16ZM272.28,0V-11.9h2.544V0Zm5.9,0V-11.9h2.256l.216,1.68a4.179,4.179,0,0,1,1.524-1.44,4.438,4.438,0,0,1,2.2-.528,4.007,4.007,0,0,1,3.936,2.232,4.675,4.675,0,0,1,1.74-1.632,4.83,4.83,0,0,1,2.364-.6,4.593,4.593,0,0,1,3.5,1.344,5.632,5.632,0,0,1,1.272,4.008V0h-2.544V-6.576q0-3.456-2.64-3.456a2.743,2.743,0,0,0-2.2,1.008,4.341,4.341,0,0,0-.852,2.88V0h-2.544V-6.576q0-3.456-2.664-3.456a2.718,2.718,0,0,0-2.172,1.008,4.341,4.341,0,0,0-.852,2.88V0Zm27.552.288a6.121,6.121,0,0,1-3.108-.78A5.546,5.546,0,0,1,300.5-2.664a6.6,6.6,0,0,1-.768-3.24,6.878,6.878,0,0,1,.756-3.288A5.5,5.5,0,0,1,302.6-11.4a6.143,6.143,0,0,1,3.156-.792,5.8,5.8,0,0,1,3.048.78,5.515,5.515,0,0,1,2.016,2.076,5.781,5.781,0,0,1,.72,2.856q0,.24-.012.516t-.036.612h-9.264a3.68,3.68,0,0,0,1.14,2.628,3.465,3.465,0,0,0,2.364.9,3.176,3.176,0,0,0,1.812-.492,2.981,2.981,0,0,0,1.092-1.332h2.544A5.4,5.4,0,0,1,309.276-.84,5.534,5.534,0,0,1,305.736.288Zm0-10.392a3.6,3.6,0,0,0-2.256.756,3.307,3.307,0,0,0-1.2,2.268H309a3.038,3.038,0,0,0-.984-2.208A3.293,3.293,0,0,0,305.736-10.1ZM327.816.288A8.189,8.189,0,0,1,323.508-.8a7.311,7.311,0,0,1-2.8-3.048,9.938,9.938,0,0,1-.984-4.524,9.994,9.994,0,0,1,.984-4.548,7.391,7.391,0,0,1,2.8-3.06,8.12,8.12,0,0,1,4.308-1.1,7.688,7.688,0,0,1,4.824,1.44,6.425,6.425,0,0,1,2.376,4.032h-2.832a3.987,3.987,0,0,0-1.44-2.328,4.661,4.661,0,0,0-2.952-.864,4.963,4.963,0,0,0-3.984,1.716,7.035,7.035,0,0,0-1.464,4.716,6.948,6.948,0,0,0,1.464,4.68,4.979,4.979,0,0,0,3.984,1.7,4.856,4.856,0,0,0,2.952-.816,3.755,3.755,0,0,0,1.44-2.232h2.832a6.268,6.268,0,0,1-2.376,3.912A7.779,7.779,0,0,1,327.816.288Zm15.48,0a6.025,6.025,0,0,1-3.06-.78,5.693,5.693,0,0,1-2.148-2.184,6.556,6.556,0,0,1-.792-3.276,6.478,6.478,0,0,1,.8-3.276,5.752,5.752,0,0,1,2.172-2.184,6.044,6.044,0,0,1,3.048-.78,6.025,6.025,0,0,1,3.06.78,5.779,5.779,0,0,1,2.16,2.184,6.478,6.478,0,0,1,.8,3.276,6.478,6.478,0,0,1-.8,3.276,5.753,5.753,0,0,1-2.172,2.184A6.091,6.091,0,0,1,343.3.288Zm0-2.184a3.294,3.294,0,0,0,1.692-.456,3.344,3.344,0,0,0,1.26-1.356,4.729,4.729,0,0,0,.48-2.244A4.831,4.831,0,0,0,346.26-8.2a3.266,3.266,0,0,0-1.248-1.356,3.294,3.294,0,0,0-1.692-.456,3.294,3.294,0,0,0-1.692.456,3.344,3.344,0,0,0-1.26,1.356,4.729,4.729,0,0,0-.48,2.244,4.729,4.729,0,0,0,.48,2.244,3.373,3.373,0,0,0,1.248,1.356A3.231,3.231,0,0,0,343.3-1.9ZM356.5.288a4.385,4.385,0,0,1-3.4-1.344,5.739,5.739,0,0,1-1.236-4.008V-11.9h2.544v6.576q0,3.456,2.832,3.456a3,3,0,0,0,2.328-1.008,4.147,4.147,0,0,0,.912-2.88V-11.9h2.544V0h-2.256l-.192-2.088a4.144,4.144,0,0,1-1.62,1.74A4.715,4.715,0,0,1,356.5.288Zm9.768,4.992V-11.9h2.28l.264,1.848a5.465,5.465,0,0,1,1.584-1.488,4.716,4.716,0,0,1,2.592-.648,5.677,5.677,0,0,1,3.048.816,5.757,5.757,0,0,1,2.076,2.232,6.721,6.721,0,0,1,.756,3.216,6.651,6.651,0,0,1-.756,3.2,5.69,5.69,0,0,1-2.076,2.208,5.788,5.788,0,0,1-3.072.8,5.283,5.283,0,0,1-2.46-.552,4.242,4.242,0,0,1-1.692-1.56v7.1Zm6.264-7.2a3.54,3.54,0,0,0,2.688-1.116,4.069,4.069,0,0,0,1.056-2.916,4.416,4.416,0,0,0-.48-2.088,3.612,3.612,0,0,0-1.32-1.428,3.638,3.638,0,0,0-1.944-.516,3.483,3.483,0,0,0-2.676,1.128,4.106,4.106,0,0,0-1.044,2.9,4.1,4.1,0,0,0,1.044,2.916A3.5,3.5,0,0,0,372.528-1.92ZM387.192.288a6.025,6.025,0,0,1-3.06-.78,5.693,5.693,0,0,1-2.148-2.184,6.556,6.556,0,0,1-.792-3.276,6.478,6.478,0,0,1,.8-3.276,5.752,5.752,0,0,1,2.172-2.184,6.044,6.044,0,0,1,3.048-.78,6.025,6.025,0,0,1,3.06.78,5.779,5.779,0,0,1,2.16,2.184,6.478,6.478,0,0,1,.8,3.276,6.478,6.478,0,0,1-.8,3.276,5.753,5.753,0,0,1-2.172,2.184A6.091,6.091,0,0,1,387.192.288Zm0-2.184a3.294,3.294,0,0,0,1.692-.456,3.344,3.344,0,0,0,1.26-1.356,4.729,4.729,0,0,0,.48-2.244,4.831,4.831,0,0,0-.468-2.244,3.266,3.266,0,0,0-1.248-1.356,3.294,3.294,0,0,0-1.692-.456,3.294,3.294,0,0,0-1.692.456,3.344,3.344,0,0,0-1.26,1.356,4.729,4.729,0,0,0-.48,2.244,4.729,4.729,0,0,0,.48,2.244,3.373,3.373,0,0,0,1.248,1.356A3.231,3.231,0,0,0,387.192-1.9ZM396,0V-11.9h2.256l.192,2.088a4.144,4.144,0,0,1,1.62-1.74,4.715,4.715,0,0,1,2.46-.636,4.385,4.385,0,0,1,3.4,1.344A5.739,5.739,0,0,1,407.16-6.84V0h-2.52V-6.576q0-3.456-2.832-3.456a3.037,3.037,0,0,0-2.34,1.008,4.112,4.112,0,0,0-.924,2.88V0Z" transform="translate(283 902)" fill="#fff"/>
        </g>
      </g>
      <g id="backhand-index-pointing-left-default" transform="translate(717.582 1002.762) rotate(65)">
        <g id="Group_1220" data-name="Group 1220" transform="translate(0 0)">
          <path id="Path_26038" data-name="Path 26038" d="M27.012,36.278a5.2,5.2,0,0,1-6.455,1.33,3.727,3.727,0,0,1-1.311-5.541l2.844-3.906H4.424A4.206,4.206,0,0,1,0,24.214a4.206,4.206,0,0,1,4.424-3.946h7.187a3.7,3.7,0,0,1-2.234-3.3,3.792,3.792,0,0,1,2.811-3.526A3.865,3.865,0,0,1,10.8,10.509a4.111,4.111,0,0,1,2.875-3.786,3.812,3.812,0,0,1-1.1-2.648A4.343,4.343,0,0,1,17.143,0h5.205q.087,0,.174,0h8.152c2.4,0,6.506,1.269,10.1,3.756q.554.372,1.069.788l.02.016s0,0,0,0a13.16,13.16,0,0,1,5.047,10.225A13.4,13.4,0,0,1,40.3,26.127a17.759,17.759,0,0,1-3.65,1.764,19.738,19.738,0,0,0-2.686,1.192,13.3,13.3,0,0,0-3.3,2.791l-.135.147v0Z" transform="translate(0 0)" fill="url(#radial-gradient)"/>
          <path id="Path_26039" data-name="Path 26039" d="M27.012,36.278a5.2,5.2,0,0,1-6.455,1.33,3.727,3.727,0,0,1-1.311-5.541l2.844-3.906H4.424A4.206,4.206,0,0,1,0,24.214a4.206,4.206,0,0,1,4.424-3.946h7.187a3.7,3.7,0,0,1-2.234-3.3,3.792,3.792,0,0,1,2.811-3.526A3.865,3.865,0,0,1,10.8,10.509a4.111,4.111,0,0,1,2.875-3.786,3.812,3.812,0,0,1-1.1-2.648A4.343,4.343,0,0,1,17.143,0h5.205q.087,0,.174,0h8.152c2.4,0,6.506,1.269,10.1,3.756q.554.372,1.069.788l.02.016s0,0,0,0a13.16,13.16,0,0,1,5.047,10.225A13.4,13.4,0,0,1,40.3,26.127a17.759,17.759,0,0,1-3.65,1.764,19.738,19.738,0,0,0-2.686,1.192,13.3,13.3,0,0,0-3.3,2.791l-.135.147v0Z" transform="translate(0 0)" fill="url(#radial-gradient-2)"/>
          <path id="Path_26040" data-name="Path 26040" d="M27.012,36.278a5.2,5.2,0,0,1-6.455,1.33,3.727,3.727,0,0,1-1.311-5.541l2.844-3.906H4.424A4.206,4.206,0,0,1,0,24.214a4.206,4.206,0,0,1,4.424-3.946h7.187a3.7,3.7,0,0,1-2.234-3.3,3.792,3.792,0,0,1,2.811-3.526A3.865,3.865,0,0,1,10.8,10.509a4.111,4.111,0,0,1,2.875-3.786,3.812,3.812,0,0,1-1.1-2.648A4.343,4.343,0,0,1,17.143,0h5.205q.087,0,.174,0h8.152c2.4,0,6.506,1.269,10.1,3.756q.554.372,1.069.788l.02.016s0,0,0,0a13.16,13.16,0,0,1,5.047,10.225A13.4,13.4,0,0,1,40.3,26.127a17.759,17.759,0,0,1-3.65,1.764,19.738,19.738,0,0,0-2.686,1.192,13.3,13.3,0,0,0-3.3,2.791l-.135.147v0Z" transform="translate(0 0)" fill="url(#radial-gradient-3)"/>
          <path id="Path_26041" data-name="Path 26041" d="M27.012,36.278a5.2,5.2,0,0,1-6.455,1.33,3.727,3.727,0,0,1-1.311-5.541l2.844-3.906H4.424A4.206,4.206,0,0,1,0,24.214a4.206,4.206,0,0,1,4.424-3.946h7.187a3.7,3.7,0,0,1-2.234-3.3,3.792,3.792,0,0,1,2.811-3.526A3.865,3.865,0,0,1,10.8,10.509a4.111,4.111,0,0,1,2.875-3.786,3.812,3.812,0,0,1-1.1-2.648A4.343,4.343,0,0,1,17.143,0h5.205q.087,0,.174,0h8.152c2.4,0,6.506,1.269,10.1,3.756q.554.372,1.069.788l.02.016s0,0,0,0a13.16,13.16,0,0,1,5.047,10.225A13.4,13.4,0,0,1,40.3,26.127a17.759,17.759,0,0,1-3.65,1.764,19.738,19.738,0,0,0-2.686,1.192,13.3,13.3,0,0,0-3.3,2.791l-.135.147v0Z" transform="translate(0 0)" fill="url(#radial-gradient-4)"/>
          <path id="Path_26042" data-name="Path 26042" d="M27.012,36.278a5.2,5.2,0,0,1-6.455,1.33,3.727,3.727,0,0,1-1.311-5.541l2.844-3.906H4.424A4.206,4.206,0,0,1,0,24.214a4.206,4.206,0,0,1,4.424-3.946h7.187a3.7,3.7,0,0,1-2.234-3.3,3.792,3.792,0,0,1,2.811-3.526A3.865,3.865,0,0,1,10.8,10.509a4.111,4.111,0,0,1,2.875-3.786,3.812,3.812,0,0,1-1.1-2.648A4.343,4.343,0,0,1,17.143,0h5.205q.087,0,.174,0h8.152c2.4,0,6.506,1.269,10.1,3.756q.554.372,1.069.788l.02.016s0,0,0,0a13.16,13.16,0,0,1,5.047,10.225A13.4,13.4,0,0,1,40.3,26.127a17.759,17.759,0,0,1-3.65,1.764,19.738,19.738,0,0,0-2.686,1.192,13.3,13.3,0,0,0-3.3,2.791l-.135.147v0Z" transform="translate(0 0)" fill="url(#radial-gradient-5)"/>
        </g>
        <path id="Path_26043" data-name="Path 26043" d="M27.012,36.278a5.2,5.2,0,0,1-6.455,1.33,3.727,3.727,0,0,1-1.311-5.541l2.844-3.906H4.424A4.206,4.206,0,0,1,0,24.214a4.206,4.206,0,0,1,4.424-3.946h7.187a3.7,3.7,0,0,1-2.234-3.3,3.792,3.792,0,0,1,2.811-3.526A3.865,3.865,0,0,1,10.8,10.509a4.111,4.111,0,0,1,2.875-3.786,3.812,3.812,0,0,1-1.1-2.648A4.343,4.343,0,0,1,17.143,0h5.205q.087,0,.174,0h8.152c2.4,0,6.506,1.269,10.1,3.756q.554.372,1.069.788l.02.016s0,0,0,0a13.16,13.16,0,0,1,5.047,10.225A13.4,13.4,0,0,1,40.3,26.127a17.759,17.759,0,0,1-3.65,1.764,19.738,19.738,0,0,0-2.686,1.192,13.3,13.3,0,0,0-3.3,2.791l-.135.147v0Z" transform="translate(0 0)" fill="url(#radial-gradient-6)"/>
        <g transform="matrix(0.42, -0.91, 0.91, 0.42, -230.62, 419.41)" filter="url(#Path_26044)">
          <path id="Path_26044-2" data-name="Path 26044" d="M27.012,36.278a5.2,5.2,0,0,1-6.455,1.33,3.727,3.727,0,0,1-1.311-5.541l2.844-3.906H4.424A4.206,4.206,0,0,1,0,24.214a4.206,4.206,0,0,1,4.424-3.946h7.187a3.7,3.7,0,0,1-2.234-3.3,3.792,3.792,0,0,1,2.811-3.526A3.865,3.865,0,0,1,10.8,10.509a4.111,4.111,0,0,1,2.875-3.786,3.812,3.812,0,0,1-1.1-2.648A4.343,4.343,0,0,1,17.143,0h5.205q.087,0,.174,0h8.152c2.4,0,6.506,1.269,10.1,3.756q.554.372,1.069.788l.02.016s0,0,0,0a13.16,13.16,0,0,1,5.047,10.225A13.4,13.4,0,0,1,40.3,26.127a17.759,17.759,0,0,1-3.65,1.764,19.738,19.738,0,0,0-2.686,1.192,13.3,13.3,0,0,0-3.3,2.791l-.135.147v0Z" transform="translate(477.58 31.76) rotate(65)" fill="url(#radial-gradient-7)"/>
        </g>
        <rect id="Rectangle_1064" data-name="Rectangle 1064" width="22.245" height="7.893" rx="2.637" transform="translate(0 20.268)" fill="url(#linear-gradient)"/>
        <rect id="Rectangle_1065" data-name="Rectangle 1065" width="22.245" height="7.893" rx="2.637" transform="translate(0 20.268)" fill="url(#linear-gradient-2)"/>
        <path id="Path_26045" data-name="Path 26045" d="M1.829,9.448a4.311,4.311,0,0,0,5.759-1.33l3.131-4.261v0l.115-.141,0-.006A12.357,12.357,0,0,1,13.786.922,14.107,14.107,0,0,1,15.559,0H3.2L.659,3.906a3.976,3.976,0,0,0,1.17,5.541Z" transform="translate(19.689 28.16)" fill="url(#linear-gradient-3)"/>
        <path id="Path_26046" data-name="Path 26046" d="M1.829,9.448a4.311,4.311,0,0,0,5.759-1.33l3.131-4.261v0l.115-.141,0-.006A12.357,12.357,0,0,1,13.786.922,14.107,14.107,0,0,1,15.559,0H3.2L.659,3.906a3.976,3.976,0,0,0,1.17,5.541Z" transform="translate(19.689 28.16)" fill="url(#linear-gradient-4)"/>
        <g id="Group_1221" data-name="Group 1221" transform="translate(2.91 23.724)">
          <rect id="Rectangle_1066" data-name="Rectangle 1066" width="19.927" height="3.173" rx="1.06" fill="url(#linear-gradient-5)"/>
        </g>
        <g id="Group_1222" data-name="Group 1222" transform="translate(21.456 24.214)">
          <rect id="Rectangle_1067" data-name="Rectangle 1067" width="13.651" height="3.243" rx="1.083" transform="matrix(0.617, -0.787, 0.787, 0.617, 0, 10.745)" fill="url(#linear-gradient-6)"/>
        </g>
        <g id="Group_1223" data-name="Group 1223" transform="translate(11.861 16.301)">
          <rect id="Rectangle_1068" data-name="Rectangle 1068" width="7.31" height="3.966" rx="1.325" fill="#ffbe33"/>
        </g>
        <g id="Group_1224" data-name="Group 1224" transform="translate(12.754 9.478)">
          <rect id="Rectangle_1069" data-name="Rectangle 1069" width="7.31" height="3.966" rx="1.325" fill="#ffbe33"/>
        </g>
        <g id="Group_1225" data-name="Group 1225" transform="translate(14.67 3.911)">
          <rect id="Rectangle_1070" data-name="Rectangle 1070" width="5.559" height="3.308" rx="1.105" fill="#ffbe33"/>
        </g>
        <path id="Path_26047" data-name="Path 26047" d="M.008,0H9.619V3.547H1.993A3.731,3.731,0,0,1,0,.244Q0,.121.008,0Z" transform="translate(9.679 16.72)" fill="url(#radial-gradient-8)"/>
      </g>
      <g id="Group_1227" data-name="Group 1227" transform="translate(668.227 987.803)">
        <path id="Path_26028" data-name="Path 26028" d="M45.653,25.182a.917.917,0,0,0-.384.118l-2.54,1.457a.856.856,0,1,0,.85,1.486l2.546-1.454A.857.857,0,0,0,45.653,25.182Z" transform="translate(-9.124 -2.728)"/>
        <path id="Path_26029" data-name="Path 26029" d="M23.774,37.708a.856.856,0,0,0-.378.12L20.85,39.283a.858.858,0,1,0,.854,1.488l2.543-1.454A.858.858,0,0,0,23.774,37.708Z" transform="translate(-0.58 -7.62)"/>
        <path id="Path_26030" data-name="Path 26030" d="M26.746,19.71a.858.858,0,0,0-.7,1.3l1.469,2.524a.858.858,0,1,0,1.482-.864l-1.466-2.52A.866.866,0,0,0,26.746,19.71Z" transform="translate(-2.733 -0.592)"/>
        <path id="Path_26031" data-name="Path 26031" d="M37.69,18.194a.858.858,0,0,0-.787.641l-.762,2.825a.858.858,0,1,0,1.657.445l.759-2.819A.858.858,0,0,0,37.69,18.194Z" transform="translate(-6.712 0)"/>
        <path id="Path_26032" data-name="Path 26032" d="M19.75,28.793a.857.857,0,0,0-.181,1.689l2.831.751a.858.858,0,1,0,.441-1.657L20,28.828A.893.893,0,0,0,19.75,28.793Z" transform="translate(0 -4.14)"/>
      </g>
    </g>
  </g>
</svg>
