<svg xmlns="http://www.w3.org/2000/svg" width="33.6" height="33.6" viewBox="0 0 33.6 33.6">
  <g id="instagram" transform="translate(-18.2 -5)">
    <g id="Group_13" data-name="Group 13">
      <circle id="Ellipse_2" data-name="Ellipse 2" cx="16.8" cy="16.8" r="16.8" transform="translate(18.2 5)" fill="#245ee2"/>
    </g>
    <path id="Path_185" data-name="Path 185" d="M35,18.25a3.754,3.754,0,1,0,2.65,1.1A3.754,3.754,0,0,0,35,18.25Zm0,5.625a1.875,1.875,0,1,1,1.326-.549A1.875,1.875,0,0,1,35,23.875Zm3.75-10.312h-7.5a4.693,4.693,0,0,0-4.687,4.688v7.5a4.693,4.693,0,0,0,4.688,4.688h7.5a4.693,4.693,0,0,0,4.688-4.687v-7.5a4.693,4.693,0,0,0-4.687-4.687ZM41.562,25.75a2.812,2.812,0,0,1-2.812,2.813h-7.5a2.813,2.813,0,0,1-2.812-2.812v-7.5a2.813,2.813,0,0,1,2.813-2.812h7.5a2.812,2.812,0,0,1,2.813,2.813Zm-1.25-7.812a1.25,1.25,0,1,1-.366-.884,1.25,1.25,0,0,1,.366.884Z"/>
  </g>
</svg>
