<svg xmlns="http://www.w3.org/2000/svg" xmlns:xlink="http://www.w3.org/1999/xlink" width="75" height="60" viewBox="0 0 75 60">
  <defs>
    <clipPath id="clip-path">
      <rect id="Rectangle_591" data-name="Rectangle 591" width="75" height="60" transform="translate(1414 1042)" fill="#fff" stroke="#707070" stroke-width="1"/>
    </clipPath>
  </defs>
  <g id="Mask_Group_31" data-name="Mask Group 31" transform="translate(-1414 -1042)" clip-path="url(#clip-path)">
    <g id="Group_372" data-name="Group 372" transform="translate(-636.64 -409)">
      <g id="noun-discount-5213870" transform="translate(2050.64 1457.854)">
        <g id="_32_promo" data-name="32 promo" transform="translate(0 0)">
          <path id="Path_1229" data-name="Path 1229" d="M76.322,46.042c-.359-1-.487-1.373-.552-1.526a4.826,4.826,0,0,0-4.8-3.13c-.192,0-.385.013-.59.026-1.591.128-3.156.4-4.669.641-1.3.218-2.642.436-3.951.577a66.4,66.4,0,0,1-9.018.41,67.9,67.9,0,0,1-7.581-.654,4.7,4.7,0,0,0-.423-2.6,5.049,5.049,0,0,0-3.258-2.668l-12.16-3.31a12.3,12.3,0,0,0-5.875-.115l-5.234,1.167V30.5a2.566,2.566,0,0,0-2.566-2.566H6.066A2.566,2.566,0,0,0,3.5,30.5V62.564A2.573,2.573,0,0,0,6.066,65.13h9.582a2.573,2.573,0,0,0,2.566-2.565V59.2l21.2,3.848a16.273,16.273,0,0,0,2.95.257A16.446,16.446,0,0,0,48.4,62.167l25.039-9.916A4.874,4.874,0,0,0,76.322,46.042ZM15.648,62.564H6.066V30.5h9.582Zm56.839-12.7L47.46,59.781a13.882,13.882,0,0,1-7.581.744L18.213,56.6V37.486l5.8-1.3a9.8,9.8,0,0,1,4.644.09L40.8,39.59A2.481,2.481,0,0,1,42.432,40.9a2.213,2.213,0,0,1,.038,1.847,2.594,2.594,0,0,1-2.591,1.5L29.335,42.066a1.284,1.284,0,0,0-.526,2.514L39.43,46.774a.436.436,0,0,0,.128.013,3.528,3.528,0,0,0,.513.026,5.245,5.245,0,0,0,4.1-1.975,69.855,69.855,0,0,0,8.492.77,69.311,69.311,0,0,0,9.364-.423c1.385-.154,2.771-.372,4.1-.6,1.462-.244,2.976-.487,4.464-.616a2.5,2.5,0,0,1,2.758,1.424V45.4l.552,1.514A2.327,2.327,0,0,1,72.486,49.865Z" transform="translate(-3.5 -11.984)" fill="#2a353d"/>
          <path id="Path_1231" data-name="Path 1231" d="M36,14.39a3.192,3.192,0,1,0,3.192,3.192A3.192,3.192,0,0,0,36,14.39Zm0,4.256a1.064,1.064,0,1,1,1.064-1.064A1.064,1.064,0,0,1,36,18.646Z" transform="translate(6.538 -14.39)" fill="#2a353d"/>
          <path id="Path_1232" data-name="Path 1232" d="M46,21.39a3.192,3.192,0,1,0,3.192,3.192A3.192,3.192,0,0,0,46,21.39Zm0,4.256a1.064,1.064,0,1,1,1.064-1.064A1.064,1.064,0,0,1,46,25.646Z" transform="translate(7.178 -13.942)" fill="#2a353d"/>
          <path id="Path_1233" data-name="Path 1233" d="M35.081,26.744a1.064,1.064,0,0,0,1.5.08l10.639-9.575A1.064,1.064,0,1,0,45.8,15.666L35.161,25.242a1.064,1.064,0,0,0-.08,1.5Z" transform="translate(6.666 -14.326)" fill="#2a353d"/>
        </g>
      </g>
      <path id="Rectangle_585" data-name="Rectangle 585" d="M7.635,2.246A5.389,5.389,0,0,0,2.246,7.635V19.761A5.389,5.389,0,0,0,7.635,25.15H19.761a5.389,5.389,0,0,0,5.389-5.389V7.635a5.389,5.389,0,0,0-5.389-5.389H7.635M7.635,0H19.761A7.635,7.635,0,0,1,27.4,7.635V19.761A7.635,7.635,0,0,1,19.761,27.4H7.635A7.635,7.635,0,0,1,0,19.761V7.635A7.635,7.635,0,0,1,7.635,0Z" transform="translate(2084.485 1451)" fill="#2a353d"/>
    </g>
  </g>
</svg>
