<svg xmlns="http://www.w3.org/2000/svg" width="49.14" height="40.872" viewBox="0 0 49.14 40.872">
  <path id="Path_20038" data-name="Path 20038" d="M42.588-74.412c5.3,0,9.048-4.836,9.048-9.048,0-4.368-2.808-9.36-10.3-9.36H36.192c.624-8.892,7.644-17.16,15.6-21.372l-.624-1.092c-10.608,4.992-20.9,14.352-20.9,25.428C30.264-80.808,33.384-74.412,42.588-74.412Zm-27.612,0a9.247,9.247,0,0,0,9.048-9.048c0-4.368-2.652-9.36-10.3-9.36H8.58c.624-8.892,7.644-17.16,15.6-21.372l-.624-1.092c-10.608,4.992-20.9,14.352-20.9,25.428C2.652-80.808,5.772-74.412,14.976-74.412Z" transform="translate(-2.652 115.284)" fill="#00ebeb"/>
</svg>
