<svg xmlns="http://www.w3.org/2000/svg" width="89" height="89" viewBox="0 0 89 89">
  <g id="concurrent-user" transform="translate(-380 -211)">
    <circle id="Ellipse_1" data-name="Ellipse 1" cx="44.5" cy="44.5" r="44.5" transform="translate(380 211)" fill="#f0f3f4"/>
    <g id="Group_2" data-name="Group 2" transform="translate(385.77 216)">
      <g id="Group_2-2" data-name="Group 2" transform="translate(25.682 20)">
        <path id="Path_1" data-name="Path 1" d="M55.791,62.967c0-8.769-5.819-15.886-12.99-15.886S29.811,54.2,29.811,62.967c0,2.928,1.937,5.3,4.33,5.3H51.46C53.854,68.262,55.791,65.894,55.791,62.967Z" transform="translate(-29.811 -29.656)" fill="#d93872"/>
        <path id="Path_2" data-name="Path 2" d="M45.6,35.886a7.943,7.943,0,1,0-7.941-7.943A7.945,7.945,0,0,0,45.6,35.886Z" transform="translate(-32.609 -20)" fill="#d93872"/>
      </g>
      <g id="Group_3" data-name="Group 3" transform="translate(18.23 40.176)">
        <path id="Path_3" data-name="Path 3" d="M24.074,64.491a19.066,19.066,0,0,1,4.985-13.134c-6.019.317-10.829,6.374-10.829,13.814,0,2.552,1.688,4.615,3.774,4.615h4.2A7.38,7.38,0,0,1,24.074,64.491Z" transform="translate(-18.23 -51.357)" fill="#d93872"/>
        <path id="Path_4" data-name="Path 4" d="M64.939,51.357a19.063,19.063,0,0,1,4.986,13.134,7.378,7.378,0,0,1-2.135,5.3h4.2c2.085,0,3.774-2.063,3.774-4.615C75.769,57.732,70.96,51.675,64.939,51.357Z" transform="translate(-34.885 -51.357)" fill="#d93872"/>
      </g>
      <path id="Path_5" data-name="Path 5" d="M31.988,41.554a6.906,6.906,0,0,0,1.114-.1,13.6,13.6,0,0,1,3.867-2.171,9.515,9.515,0,0,1-4.927-11.573l-.053,0a6.922,6.922,0,0,0,0,13.845Z" transform="translate(-2.438 -2.749)" fill="#d93872"/>
      <path id="Path_6" data-name="Path 6" d="M61.845,30.691a9.554,9.554,0,0,1-5.41,8.594A13.609,13.609,0,0,1,60.3,41.456a6.919,6.919,0,1,0,1.112-13.747l-.053,0A9.5,9.5,0,0,1,61.845,30.691Z" transform="translate(-13.623 -2.749)" fill="#d93872"/>
    </g>
  </g>
</svg>
