<svg xmlns="http://www.w3.org/2000/svg" width="21.536" height="19.998" viewBox="0 0 21.536 19.998">
  <g id="noun-dashboard-7215943" transform="translate(-6.25 -9.531)">
    <path id="Path_64" data-name="Path 64" d="M16.249,24.914H8.557A2.308,2.308,0,0,1,6.25,22.607V11.838A2.308,2.308,0,0,1,8.557,9.531H25.479a2.308,2.308,0,0,1,2.307,2.307V22.607a2.308,2.308,0,0,1-2.307,2.307H17.787v3.077H19.71a.769.769,0,1,1,0,1.538H14.326a.769.769,0,0,1,0-1.538h1.923ZM8.557,23.376H25.479a.768.768,0,0,0,.769-.769V11.838a.768.768,0,0,0-.769-.769H8.557a.768.768,0,0,0-.769.769V22.607a.768.768,0,0,0,.769.769Zm2.84-2.907a.769.769,0,1,1-1.065-1.11l2.938-2.821a2.306,2.306,0,0,1,3.2,0l1.219,1.17a.769.769,0,0,0,1.065,0l3.888-3.733a.769.769,0,0,1,1.065,1.11l-3.888,3.733a2.306,2.306,0,0,1-3.2,0L15.4,17.647a.769.769,0,0,0-1.065,0Z" transform="translate(0 0)" fill="#2a353d" fill-rule="evenodd"/>
  </g>
</svg>
