<svg xmlns="http://www.w3.org/2000/svg" width="31.794" height="25.6" viewBox="0 0 31.794 25.6">
  <g id="Group_513" data-name="Group 513" transform="translate(-484.3 -316.6)">
    <g id="Group_510" data-name="Group 510" transform="translate(501.049 327.45)">
      <path id="Path_19396" data-name="Path 19396" d="M195.6,112.2a3.284,3.284,0,0,1,2.434,1.082,3.761,3.761,0,0,1-.016,5.058,3.275,3.275,0,0,1-4.835,0,3.759,3.759,0,0,1,0-5.074A3.29,3.29,0,0,1,195.6,112.2Zm0,5.872a2.178,2.178,0,0,0,2.068-2.269,2.371,2.371,0,0,0-.616-1.616,1.964,1.964,0,0,0-1.453-.652,2.278,2.278,0,0,0,0,4.537Z" transform="translate(-192.2 -112.2)" fill="#2a353d"/>
      <path id="Path_19396_-_Outline" data-name="Path 19396 - Outline" d="M195.6,111.9a3.58,3.58,0,0,1,2.654,1.179,4.061,4.061,0,0,1-.018,5.466,3.575,3.575,0,0,1-5.273,0,4.059,4.059,0,0,1,0-5.484A3.587,3.587,0,0,1,195.6,111.9Zm0,7.206a2.993,2.993,0,0,0,2.2-.971,3.461,3.461,0,0,0,.015-4.649,2.976,2.976,0,0,0-4.412-.015,3.46,3.46,0,0,0,0,4.664A2.993,2.993,0,0,0,195.6,119.106Zm0-5.872a2.26,2.26,0,0,1,1.673.749,2.67,2.67,0,0,1,.7,1.82,2.376,2.376,0,1,1-2.368-2.569Zm0,4.537a1.879,1.879,0,0,0,1.768-1.969,2.072,2.072,0,0,0-.536-1.413,1.667,1.667,0,0,0-1.232-.556,1.98,1.98,0,0,0,0,3.937Z" transform="translate(-192.2 -112.2)" fill="#2a353d"/>
    </g>
    <g id="Group_511" data-name="Group 511" transform="translate(492.298 327.45)">
      <path id="Path_19397" data-name="Path 19397" d="M166.5,112.2a3.284,3.284,0,0,1,2.419,1.08,3.743,3.743,0,0,1,0,5.06,3.275,3.275,0,0,1-4.835,0,3.759,3.759,0,0,1,0-5.074A3.29,3.29,0,0,1,166.5,112.2Zm0,5.872a2.178,2.178,0,0,0,2.068-2.269,2.359,2.359,0,0,0-.626-1.614,1.964,1.964,0,0,0-1.442-.654,2.278,2.278,0,0,0,0,4.537Z" transform="translate(-163.1 -112.2)" fill="#2a353d"/>
      <path id="Path_19397_-_Outline" data-name="Path 19397 - Outline" d="M166.5,111.9a3.581,3.581,0,0,1,2.639,1.176,4.043,4.043,0,0,1,0,5.469,3.575,3.575,0,0,1-5.273,0,4.059,4.059,0,0,1,0-5.484A3.587,3.587,0,0,1,166.5,111.9Zm0,7.206a2.993,2.993,0,0,0,2.2-.971,3.443,3.443,0,0,0,0-4.65,2.962,2.962,0,0,0-4.4-.014,3.46,3.46,0,0,0,0,4.664A2.993,2.993,0,0,0,166.5,119.106Zm0-5.872a2.261,2.261,0,0,1,1.662.75,2.658,2.658,0,0,1,.707,1.818,2.376,2.376,0,1,1-2.368-2.569Zm0,4.537a1.879,1.879,0,0,0,1.768-1.969,2.06,2.06,0,0,0-.546-1.41,1.668,1.668,0,0,0-1.222-.559,1.98,1.98,0,0,0,0,3.937Z" transform="translate(-163.1 -112.2)" fill="#2a353d"/>
    </g>
    <g id="Group_512" data-name="Group 512" transform="translate(484.6 316.9)">
      <path id="Path_19400" data-name="Path 19400" d="M157.015,81.935a11.471,11.471,0,0,1,6.853,2.77,37.575,37.575,0,0,1,3.534,15.421,8.825,8.825,0,0,1-7.5,4.039s-.891-1.135-1.6-2.136a7.782,7.782,0,0,0,4.456-3.138,17.611,17.611,0,0,1-6.392,2.7,14.617,14.617,0,0,1-3.135.3,16.1,16.1,0,0,1-3.227-.334,16.941,16.941,0,0,1-3.6-1.135,17.372,17.372,0,0,1-1.813-.9,1.314,1.314,0,0,1-.215-.133c-.031-.033-.061-.033-.123-.067a7.1,7.1,0,0,1-.676-.467,7.667,7.667,0,0,0,4.3,3.1c-.738,1-1.629,2.2-1.629,2.2a8.762,8.762,0,0,1-7.5-4.039,36.911,36.911,0,0,1,3.473-15.387,11.471,11.471,0,0,1,6.853-2.77h.031l.246.3a16,16,0,0,0-6.454,3.471,13.072,13.072,0,0,1,1.475-.768,18.438,18.438,0,0,1,5.593-1.669c.123-.033.277-.033.4-.067a22.989,22.989,0,0,1,2.7-.2,17.64,17.64,0,0,1,2.274.134,19.287,19.287,0,0,1,7.407,2.537,15.807,15.807,0,0,0-6.116-3.371l.369-.4h0m0-1.335h-.061a1.1,1.1,0,0,0-.891.467l-.338.434a1.4,1.4,0,0,0-.215.367h0a19.4,19.4,0,0,0-2.428-.134,21.739,21.739,0,0,0-2.52.167,1.5,1.5,0,0,0-.246-.5l-.246-.3a1.17,1.17,0,0,0-.891-.434h-.061a12.54,12.54,0,0,0-7.591,3.037,1.143,1.143,0,0,0-.338.434,38.72,38.72,0,0,0-3.688,16.088,1.625,1.625,0,0,0,.154.668A9.981,9.981,0,0,0,146.2,105.6h.031a1.22,1.22,0,0,0,.953-.467s.922-1.2,1.66-2.2a.458.458,0,0,0,.092-.134c.277.067.584.134.861.2a17.272,17.272,0,0,0,3.473.334,16.083,16.083,0,0,0,3.35-.334,5.417,5.417,0,0,0,.707-.167c.031.033.031.067.061.1.738,1,1.629,2.17,1.629,2.17a1.22,1.22,0,0,0,.953.467H160a10.041,10.041,0,0,0,8.544-4.706,1.252,1.252,0,0,0,.154-.668A38.72,38.72,0,0,0,165.006,84.1a2.261,2.261,0,0,0-.338-.434,12.927,12.927,0,0,0-7.653-3.071Z" transform="translate(-137.5 -80.6)" fill="#2a353d"/>
      <path id="Path_19400_-_Outline" data-name="Path 19400 - Outline" d="M156.954,80.3h.061a13.164,13.164,0,0,1,7.84,3.137.3.3,0,0,1,.033.031,2.507,2.507,0,0,1,.38.492l0,.008a39.076,39.076,0,0,1,3.721,16.225,1.557,1.557,0,0,1-.2.825l-.013.022a9.432,9.432,0,0,1-2.219,2.5,10.808,10.808,0,0,1-6.558,2.324h-.041a1.514,1.514,0,0,1-1.185-.577l-.006-.008c-.009-.011-.861-1.128-1.581-2.1a4.07,4.07,0,0,1-.526.116,16.341,16.341,0,0,1-3.4.338,17.622,17.622,0,0,1-3.533-.34l-.01,0c-.137-.033-.282-.066-.427-.1l-.234-.054c-.728.987-1.634,2.168-1.643,2.18l-.006.007a1.514,1.514,0,0,1-1.185.577h-.041a10.251,10.251,0,0,1-8.806-4.881,1.916,1.916,0,0,1-.181-.793A39.08,39.08,0,0,1,140.921,84l0-.008a1.423,1.423,0,0,1,.422-.531,12.912,12.912,0,0,1,7.769-3.1h.061a1.461,1.461,0,0,1,1.125.546l.239.292a1.244,1.244,0,0,1,.218.372,21.13,21.13,0,0,1,2.321-.142,20.171,20.171,0,0,1,2.251.111,1.219,1.219,0,0,1,.162-.237l.328-.421A1.4,1.4,0,0,1,156.954,80.3Zm7.509,3.591a12.53,12.53,0,0,0-7.447-2.991h-.061a.8.8,0,0,0-.647.342l-.007.01-.338.434-.016.019a1.2,1.2,0,0,0-.163.289.3.3,0,0,1-.31.172,18.967,18.967,0,0,0-2.391-.131,21.338,21.338,0,0,0-2.485.165.3.3,0,0,1-.316-.194l-.024-.065a1.1,1.1,0,0,0-.161-.336l-.011-.013-.246-.3a.869.869,0,0,0-.659-.324h-.061a12.289,12.289,0,0,0-7.4,2.97l-.026.019a.928.928,0,0,0-.237.323,38.422,38.422,0,0,0-3.653,15.947,1.332,1.332,0,0,0,.126.542A9.729,9.729,0,0,0,146.2,105.3h.026a.924.924,0,0,0,.718-.354c.058-.076.946-1.235,1.653-2.194l.021-.025a.171.171,0,0,0,.04-.056A.3.3,0,0,1,149,102.5c.137.033.282.066.427.1s.291.067.429.1a17.025,17.025,0,0,0,3.407.327,15.741,15.741,0,0,0,3.288-.327l.022,0a4.031,4.031,0,0,0,.545-.125l.124-.034a.3.3,0,0,1,.3.086.458.458,0,0,1,.08.122l0,0c.705.957,1.562,2.082,1.622,2.161a.924.924,0,0,0,.718.354h.026a10.22,10.22,0,0,0,6.2-2.193,8.818,8.818,0,0,0,2.077-2.34l.018-.031a.96.96,0,0,0,.109-.511,38.418,38.418,0,0,0-3.653-15.947A1.941,1.941,0,0,0,164.463,83.891ZM157,81.635h.014a11.7,11.7,0,0,1,7.043,2.838.3.3,0,0,1,.078.1,32.3,32.3,0,0,1,1.786,4.565,37.26,37.26,0,0,1,1.781,10.993.3.3,0,0,1-.036.143,7.7,7.7,0,0,1-1.794,2.046,9.672,9.672,0,0,1-5.959,2.15.3.3,0,0,1-.245-.115c-.009-.011-.9-1.152-1.607-2.148a.3.3,0,0,1,.159-.46,8.533,8.533,0,0,0,2.932-1.526q-.545.284-1.1.521a16.241,16.241,0,0,1-3.625,1.153,14.794,14.794,0,0,1-3.193.306,16.291,16.291,0,0,1-3.287-.34,17.133,17.133,0,0,1-3.657-1.154c-.363-.153-.735-.327-1.111-.52a8.492,8.492,0,0,0,2.8,1.5.3.3,0,0,1,.15.464c-.729.99-1.621,2.192-1.629,2.2a.3.3,0,0,1-.25.121,9.782,9.782,0,0,1-5.971-2.151,7.591,7.591,0,0,1-1.783-2.047.3.3,0,0,1-.035-.139,36.046,36.046,0,0,1,1.727-10.965,31.866,31.866,0,0,1,1.779-4.561.3.3,0,0,1,.078-.1,11.7,11.7,0,0,1,7.043-2.838h.031a.3.3,0,0,1,.232.11l.246.3a.3.3,0,0,1-.144.477,20.107,20.107,0,0,0-3.483,1.433,17.786,17.786,0,0,1,3.954-.981,1.862,1.862,0,0,1,.219-.036,1.237,1.237,0,0,0,.157-.025.3.3,0,0,1,.044-.008,23.538,23.538,0,0,1,2.739-.2,17.823,17.823,0,0,1,2.313.136,19.763,19.763,0,0,1,4.143.992,19.973,19.973,0,0,0-2.984-1.244.3.3,0,0,1-.127-.488l.31-.337A.3.3,0,0,1,157,81.635Zm6.628,3.262a11.552,11.552,0,0,0-6.318-2.651,15.509,15.509,0,0,1,5.666,3.252.3.3,0,0,1-.368.467,19.093,19.093,0,0,0-7.293-2.5,17.235,17.235,0,0,0-2.236-.131,22.557,22.557,0,0,0-2.65.2,1.863,1.863,0,0,1-.219.036,1.237,1.237,0,0,0-.157.025.3.3,0,0,1-.044.008,18.271,18.271,0,0,0-5.5,1.643,13.018,13.018,0,0,0-1.441.749.3.3,0,0,1-.377-.461,15.29,15.29,0,0,1,5.515-3.191,11.883,11.883,0,0,0-5.736,2.59,32.822,32.822,0,0,0-1.717,4.426,35.962,35.962,0,0,0-1.7,10.689,7.411,7.411,0,0,0,1.623,1.824,9.041,9.041,0,0,0,5.43,1.989c.215-.29.765-1.033,1.291-1.746A7.777,7.777,0,0,1,143.323,99a.3.3,0,0,1,.452-.378,6.913,6.913,0,0,0,.636.439l.024.011a.471.471,0,0,1,.13.075c.026.016.048.033.069.049a.363.363,0,0,0,.068.044.3.3,0,0,1,.046.021,17.022,17.022,0,0,0,1.782.886,16.555,16.555,0,0,0,3.536,1.117,15.708,15.708,0,0,0,3.17.328,14.207,14.207,0,0,0,3.071-.294l.012,0a15.653,15.653,0,0,0,3.5-1.115,15.823,15.823,0,0,0,2.776-1.54.3.3,0,0,1,.432.395,7.9,7.9,0,0,1-4.234,3.149c.5.7,1.044,1.4,1.257,1.671a9.149,9.149,0,0,0,5.445-2.008,7.46,7.46,0,0,0,1.612-1.806,36.22,36.22,0,0,0-1.749-10.718A33.291,33.291,0,0,0,163.629,84.9Z" transform="translate(-137.5 -80.6)" fill="#2a353d"/>
    </g>
  </g>
</svg>
