<svg xmlns="http://www.w3.org/2000/svg" width="23.347" height="25.006" viewBox="0 0 23.347 25.006">
  <g id="Group_620" data-name="Group 620" transform="translate(13227.787 18890.014)">
    <g id="noun-wallet-6081842_1_" data-name="noun-wallet-6081842 (1)" transform="translate(-13233.752 -18893.168)">
      <path id="Path_19955" data-name="Path 19955" d="M25.305,43.251a2.86,2.86,0,0,1-2.753-1.965A2.692,2.692,0,0,1,23.735,38.2l11.692-7.294a.45.45,0,0,1,.6.121l1.312,1.9a2.7,2.7,0,0,1,.405,2.115,2.807,2.807,0,0,1-1.28,1.768l-9.623,5.98a2.966,2.966,0,0,1-1.54.456Zm10.231-11.4L24.195,38.9a1.863,1.863,0,0,0-.58,2.647,2.054,2.054,0,0,0,2.767.554L36,36.124a1.915,1.915,0,0,0,.586-2.707Z" transform="translate(-8.796 -15.373)" fill="#2a353d"/>
      <path id="Path_19955_-_Outline" data-name="Path 19955 - Outline" d="M25.3,43.515a3.173,3.173,0,0,1-3.035-2.167,2.986,2.986,0,0,1,1.3-3.4l11.692-7.294a.755.755,0,0,1,.4-.113.74.74,0,0,1,.613.316l1.312,1.9a3,3,0,0,1,.448,2.33,3.11,3.11,0,0,1-1.409,1.946L27,43.014a3.263,3.263,0,0,1-1.7.5ZM35.659,31.1a.144.144,0,0,0-.077.022L23.891,38.419a2.43,2.43,0,0,0-1.061,2.768A2.582,2.582,0,0,0,25.3,42.951a2.657,2.657,0,0,0,1.379-.409L36.3,36.56a2.542,2.542,0,0,0,1.153-1.591,2.447,2.447,0,0,0-.365-1.9l-1.311-1.9A.144.144,0,0,0,35.659,31.1ZM25.285,42.68h0a2.316,2.316,0,0,1-1.922-.994,2.1,2.1,0,0,1-.325-1.65,2.181,2.181,0,0,1,.99-1.387l11.591-7.21,1.214,1.808a2.2,2.2,0,0,1-.671,3.095l-9.625,5.982A2.359,2.359,0,0,1,25.285,42.68ZM35.443,32.221l-11.093,6.9a1.62,1.62,0,0,0-.735,1.03,1.562,1.562,0,0,0,.241,1.226,1.721,1.721,0,0,0,1.428.738,1.752,1.752,0,0,0,.93-.266l9.623-5.98a1.646,1.646,0,0,0,.5-2.317Z" transform="translate(-8.791 -15.356)" fill="#2a353d"/>
      <path id="Path_19956" data-name="Path 19956" d="M14.26,26.849a.447.447,0,0,1-.373-.2h0L6.938,16.3a3.9,3.9,0,0,1-.581-3.016,4.007,4.007,0,0,1,1.8-2.529L19.045,3.89a2.855,2.855,0,0,1,2.092-.377A2.779,2.779,0,0,1,22.89,4.68l5.073,7.587a2.64,2.64,0,0,1-.816,3.723L15.222,23.465a1.921,1.921,0,0,0-.594,2.706h0a.417.417,0,0,1,.064.324.429.429,0,0,1-.193.272.494.494,0,0,1-.239.081Zm6.3-22.517a1.9,1.9,0,0,0-1.029.3h0L8.636,11.49a3.09,3.09,0,0,0-.958,4.34l5.814,8.647a2.813,2.813,0,0,1,1.246-1.716l11.925-7.493A1.837,1.837,0,0,0,27.5,14.1a1.786,1.786,0,0,0-.282-1.4L22.145,5.164A1.9,1.9,0,0,0,20.557,4.332Zm-1.273-.064Z" transform="translate(-0.005 -0.018)" fill="#2a353d"/>
      <path id="Path_19956_-_Outline" data-name="Path 19956 - Outline" d="M14.265,27.114h-.011a.742.742,0,0,1-.62-.329L6.686,16.438A4.149,4.149,0,0,1,6.063,13.2a4.266,4.266,0,0,1,1.925-2.71L18.88,3.636a3.139,3.139,0,0,1,1.676-.481,3.177,3.177,0,0,1,.637.065,3.054,3.054,0,0,1,1.94,1.29l5.073,7.583a2.883,2.883,0,0,1,.431,2.236A2.962,2.962,0,0,1,27.3,16.214L15.377,23.686a1.659,1.659,0,0,0-.746,1.055,1.612,1.612,0,0,0,.24,1.249.7.7,0,0,1,.106.542.722.722,0,0,1-.319.453.8.8,0,0,1-.382.129Zm6.29-23.38a2.539,2.539,0,0,0-1.355.389L8.309,10.98a3.691,3.691,0,0,0-1.667,2.345,3.586,3.586,0,0,0,.539,2.8L14.13,26.469a.149.149,0,0,0,.115.066.193.193,0,0,0,.083-.031l.007,0a.139.139,0,0,0,.063-.088.133.133,0,0,0-.021-.1,2.176,2.176,0,0,1-.325-1.687,2.233,2.233,0,0,1,1-1.421l11.925-7.472a2.387,2.387,0,0,0,1.076-1.52,2.32,2.32,0,0,0-.347-1.8L22.637,4.826a2.5,2.5,0,0,0-1.566-1.041A2.57,2.57,0,0,0,20.555,3.733Zm-6.938,21.44-6.191-9.2a3.327,3.327,0,0,1-.487-2.579,3.419,3.419,0,0,1,1.531-2.16L19.363,4.373a2.2,2.2,0,0,1,1.182-.342h.015a2.187,2.187,0,0,1,1.827.963l5.077,7.526a2.077,2.077,0,0,1,.324,1.619,2.137,2.137,0,0,1-.973,1.357L14.894,22.983a2.51,2.51,0,0,0-1.118,1.538ZM20.545,4.61a1.6,1.6,0,0,0-.86.249L8.792,11.718a2.844,2.844,0,0,0-1.274,1.8,2.763,2.763,0,0,0,.4,2.141l5.483,8.15A3.113,3.113,0,0,1,14.574,22.5L26.5,15.008a1.557,1.557,0,0,0,.711-.989,1.51,1.51,0,0,0-.237-1.177l-5.08-7.53a1.594,1.594,0,0,0-1.332-.7h-.015Z" transform="translate(0)" fill="#2a353d"/>
      <path id="Path_19957" data-name="Path 19957" d="M13.991,28.534a.439.439,0,0,1-.367-.194h0L9.263,21.745a3.485,3.485,0,0,1,1.045-4.854l10.047-6.44h0a1.393,1.393,0,0,1,1.911.4l3.88,5.891a1.354,1.354,0,0,1-.407,1.887l-10.9,7a1.607,1.607,0,0,0-.486,2.237h0a.427.427,0,0,1,.016.44.438.438,0,0,1-.383.225Zm6.841-17.358L10.8,17.611a2.643,2.643,0,0,0-1.164,1.67,2.616,2.616,0,0,0,.376,1.993l3.3,5.019A2.482,2.482,0,0,1,14.363,24.9l10.9-7a.5.5,0,0,0,.22-.315.491.491,0,0,0-.072-.376l-3.88-5.891a.5.5,0,0,0-.319-.218A.508.508,0,0,0,20.832,11.176Z" transform="translate(-1.368 -3.958)" fill="#2a353d"/>
      <path id="Path_19957_-_Outline" data-name="Path 19957 - Outline" d="M13.984,28.8a.733.733,0,0,1-.612-.325l-4.361-6.59a3.773,3.773,0,0,1,1.132-5.253L20.19,10.2a1.692,1.692,0,0,1,2.319.487l3.88,5.885a1.643,1.643,0,0,1-.493,2.288L15,25.847a1.318,1.318,0,0,0-.4,1.833.714.714,0,0,1,.027.737.723.723,0,0,1-.135.174l.206.2ZM21.1,10.513a1.093,1.093,0,0,0-.59.173L10.464,17.119a3.2,3.2,0,0,0-.959,4.447l4.36,6.588a.141.141,0,0,0,.083.058h.032a.143.143,0,0,0,.125-.073A.139.139,0,0,0,14.1,28a1.9,1.9,0,0,1,.573-2.636l10.9-6.99a1.065,1.065,0,0,0,.32-1.483L22.015,11A1.089,1.089,0,0,0,21.1,10.513ZM13.417,26.96,9.763,21.413a2.918,2.918,0,0,1-.417-2.21,2.951,2.951,0,0,1,1.292-1.852l10.029-6.429a.812.812,0,0,1,.6-.111.8.8,0,0,1,.506.345l3.879,5.884a.783.783,0,0,1,.113.595.792.792,0,0,1-.35.5l-10.9,6.989a2.189,2.189,0,0,0-.923,1.226ZM21.1,11.376a.21.21,0,0,0-.114.034l-10.031,6.43a2.366,2.366,0,0,0-1.036,1.485,2.339,2.339,0,0,0,.335,1.771l3,4.549a2.783,2.783,0,0,1,.944-1.01l10.9-6.99a.208.208,0,0,0,.093-.131.2.2,0,0,0-.03-.155L21.28,11.472a.209.209,0,0,0-.176-.1Z" transform="translate(-1.363 -3.94)" fill="#2a353d"/>
    </g>
    <circle id="Ellipse_41" data-name="Ellipse 41" cx="1" cy="1" r="1" transform="translate(-13217 -18881)" fill="#29353d"/>
  </g>
</svg>
