<svg xmlns="http://www.w3.org/2000/svg" xmlns:xlink="http://www.w3.org/1999/xlink" width="1027" height="975" viewBox="0 0 1027 975">
  <defs>
    <clipPath id="clip-path">
      <rect id="Rectangle_673" data-name="Rectangle 673" width="1027" height="975" transform="translate(-0.229 0)" fill="#fff"/>
    </clipPath>
  </defs>
  <g id="Group_509" data-name="Group 509" transform="translate(-440 -366)">
    <g id="_01" data-name="01" transform="translate(440.229 366)" clip-path="url(#clip-path)">
      <path id="Path_19343" data-name="Path 19343" d="M135.079,95.088c1.228,0,2.457-1.225,3.273-2.859a17.856,17.856,0,0,1,3.681-4.493,3.823,3.823,0,0,1,4.093-.408c.408.408.82.817,1.636,1.634a9.183,9.183,0,0,1,2.044,4.493,4.4,4.4,0,0,1,.412,2.042c0,.817.408,1.225.408,2.451v1.225h-.82a5.187,5.187,0,0,1-2.453-.408,11.982,11.982,0,0,1-3.685-.817A17.736,17.736,0,0,1,138.76,95.9c-1.224,0-2.453-1.225-3.681-.817q-1.843,0-2.453,3.676c-.412,2.451,1.224,6.536,4.909,9.8a17.057,17.057,0,0,0,6.546,3.676c1.224.408,2.044.817,3.273,1.225l.816.408,1.636.408c.82,0,2.049.408,3.273.408a13,13,0,0,0,11.459-4.9,15.611,15.611,0,0,0,2.453-6.535V96.722a14.525,14.525,0,0,0-.816-4.085c-.412-1.225-.82-2.451-1.228-4.085a24.953,24.953,0,0,0-5.322-8.986A16.114,16.114,0,0,0,149.4,73.848c-7.774-1.225-14.32,3.676-16.365,8.169a17.251,17.251,0,0,0-1.228,10.62A3.837,3.837,0,0,0,135.079,95.088Z" transform="translate(433.221 242.71)" fill="#1c2036"/>
      <path id="Path_19344" data-name="Path 19344" d="M138.126,48.2c1.228,0,2.457-1.225,3.273-2.859a17.88,17.88,0,0,1,3.685-4.493,3.816,3.816,0,0,1,4.089-.408c.412.408.82.817,1.636,1.634a9.222,9.222,0,0,1,2.049,4.493,4.445,4.445,0,0,1,.408,2.042c0,.817.408,1.225.408,2.451v1.225h-.816a5.205,5.205,0,0,1-2.457-.409,11.955,11.955,0,0,1-3.681-.816,17.681,17.681,0,0,1-4.909-2.042c-1.228,0-2.457-1.225-3.685-.817q-1.836,0-2.453,3.676c-.408,2.451,1.228,6.536,4.909,9.8a17.057,17.057,0,0,0,6.546,3.676c1.228.408,2.045.817,3.273,1.225l.82.408,1.636.408c.816,0,2.045.408,3.273.408a13,13,0,0,0,11.455-4.9,15.552,15.552,0,0,0,2.453-6.535V49.838a14.527,14.527,0,0,0-.816-4.085c-.408-1.225-.82-2.451-1.228-4.085a25.006,25.006,0,0,0-5.317-8.986,16.135,16.135,0,0,0-10.231-5.719c-7.774-1.225-14.32,3.676-16.365,8.169a17.285,17.285,0,0,0-1.228,10.62A3.842,3.842,0,0,0,138.126,48.2Z" transform="translate(443.266 88.222)" fill="#e1eaf8"/>
      <path id="Path_19345" data-name="Path 19345" d="M94.653,89.821a4.079,4.079,0,0,0,1.637,2.042,12.9,12.9,0,0,0,6.955,3.676c1.636.408,4.91,1.225,5.319-.408.409-1.225-.819-3.268-1.637-4.493-2.046-3.676-6.137-8.578-10.637-8.169C93.016,82.877,93.016,86.553,94.653,89.821Z" transform="translate(308.354 271.668)" fill="#fff"/>
      <path id="Path_19346" data-name="Path 19346" d="M96.339,92.358a6.435,6.435,0,0,0-.409-1.634V89.09c0-.817.409-1.225,1.227-1.634.409-.408.818,0,1.228.408l1.228,1.225c.818.817,2.864,2.042,4.5,3.676.409.408.818.817.818,1.225.409.408.409.817.818,1.225l.409.817s.409.817.409.408H103.7a17.606,17.606,0,0,1-4.91-.817,15.576,15.576,0,0,1-2.455-2.042c.409-.817,0-1.225,0-1.225a3.157,3.157,0,0,0,.409,1.225,9.423,9.423,0,0,0,2.046,2.859,12.817,12.817,0,0,0,4.5,3.268c.409.408.818.408,1.636.408s.818.408,2.046.408c2.046.408,4.5-.408,4.91-2.45V96.443a2.452,2.452,0,0,0-.409-1.634c0-.817-.409-.817-.409-1.225l-.409-1.225c-.409-.408-.409-1.225-.818-1.634s-.409-1.225-.818-1.634c-1.636-2.859-3.682-5.719-7.364-6.944-1.637-.408-3.683-.817-5.319,0a4.852,4.852,0,0,0-3.273,4.085,7.955,7.955,0,0,0,.409,3.268c.409.817.409,1.225.818,1.634A9.117,9.117,0,0,1,96.339,92.358Z" transform="translate(306.667 269.131)" fill="#1c2036"/>
      <path id="Path_19347" data-name="Path 19347" d="M87.137,80.581c-1.636-9.8,6.137-16.747,16.775-15.521,10.638,1.634,22.5,11.437,26.185,21.648s-2.046,19.2-11.865,19.2c-2.455,0-4.91-.408-6.955.408-4.5,1.225-5.319,6.944-3.273,12.254s6.137,10.211,10.228,15.113" transform="translate(286.411 213.92)" fill="#fff"/>
      <path id="Path_19348" data-name="Path 19348" d="M118.378,134.609l-.818-.817c-.409-.817-1.227-1.634-2.046-2.859s-1.636-2.859-2.864-4.493c-.818-2.042-2.045-4.085-2.864-6.127-.819-2.451-1.228-4.9-.409-6.944a2.876,2.876,0,0,1,1.636-2.042c.409-.408,1.228-.408,2.864-.408a30.508,30.508,0,0,0,6.137,0,20.163,20.163,0,0,0,6.955-2.451A16.155,16.155,0,0,0,134.335,95.4a15.853,15.853,0,0,0-.818-6.127,20.509,20.509,0,0,0-2.046-5.31c-2.046-4.085-5.319-7.352-8.183-10.212a39.4,39.4,0,0,0-10.228-6.535,23.491,23.491,0,0,0-10.228-2.451c-3.273,0-6.546.408-9,2.042a11.146,11.146,0,0,0-5.319,5.31,9.876,9.876,0,0,0-1.636,5.31v3.268c0,.817,0,1.225.409,1.225V80.692a10.131,10.131,0,0,1,.409-3.268,15.685,15.685,0,0,1,2.046-4.9,10.969,10.969,0,0,1,5.319-4.084,18.114,18.114,0,0,1,8.183-.817,26.725,26.725,0,0,1,9,3.267,37.265,37.265,0,0,1,14.729,15.93A7.869,7.869,0,0,1,128.2,90.9a6.946,6.946,0,0,1,0,4.084,11.413,11.413,0,0,1-4.5,7.352,6.921,6.921,0,0,1-4.092,1.225c-1.228.408-2.864,0-4.91.408a12.242,12.242,0,0,0-6.955,2.042,8.4,8.4,0,0,0-3.273,6.127,14.655,14.655,0,0,0,2.455,9.8,35.534,35.534,0,0,0,8.592,9.8Z" transform="translate(286.265 213.401)" fill="#1c2036"/>
      <path id="Path_19349" data-name="Path 19349" d="M360.749,361.808c100.4,0,189.19-16.067,242.794-39.8,33.369-14.772,53.017-32.577,53.017-51.291,0-48.608-132.153-87.819-295.4-88.227-163.248,0-295.81,38.8-295.81,87.411C64.938,318.513,197.091,361.4,360.749,361.808Z" transform="translate(215.326 601.346)" fill="#383c58"/>
      <path id="Path_19350" data-name="Path 19350" d="M85.307,314.942c.409-.816-2.864-3.264-8.183-8.577a60.959,60.959,0,0,1-9-10.618c-2.864-4.493-5.319-10.214-4.91-16.747s4.092-13.07,10.228-18.791a87.691,87.691,0,0,1,22.912-15.931c18-9.393,40.915-17.563,66.282-24.1,51.143-13.074,114.968-22.06,186.161-24.1a951.307,951.307,0,0,1,112.1,2.856c38.871,3.269,79.374,8.99,119.47,19.2a301.864,301.864,0,0,1,47.053,15.523c14.728,6.125,29.461,13.886,40.916,24.1a55.061,55.061,0,0,1,4.909,4.9c.816.816,1.228,1.632,2.044,2.448a6.582,6.582,0,0,1,1.636,2.861A24.38,24.38,0,0,1,681.022,279c.816,7.353-3.273,15.11-9.411,21.648a85.031,85.031,0,0,1-22.5,16.747c-8.182,4.9-17.185,8.577-26.187,12.254A438.729,438.729,0,0,1,568.506,346.4a513.914,513.914,0,0,1-53.6,10.21c-70.372,10.214-134.606,11.03-187.8,8.582a1038.812,1038.812,0,0,1-124.788-13.074c-29.049-4.9-45.006-8.577-45.415-7.349s15.138,6.941,43.778,13.886c29.049,6.945,71.6,14.294,125.608,17.971,53.595,3.677,118.649,4.085,190.662-5.717a536.223,536.223,0,0,0,54.823-10.214c18.821-4.493,37.643-9.393,56.464-17.155a191.275,191.275,0,0,0,27.82-13.07c9-5.309,18-11.438,26.183-19.607a55.434,55.434,0,0,0,10.231-14.7,32.9,32.9,0,0,0,3.273-18.791,37.7,37.7,0,0,0-6.138-17.971l-2.453-3.677a22.71,22.71,0,0,0-2.865-3.677c-2.049-2.04-4.093-4.493-6.138-6.125-13.912-12.662-29.869-20.424-45.417-26.961a407.225,407.225,0,0,0-49.094-16.339C541.91,192,501,186.277,461.312,183.421a1079.609,1079.609,0,0,0-114.152-2.044c-72.421,2.861-136.654,13.07-188.616,27.777-26.185,7.353-49.1,16.339-67.918,26.956-9.41,5.313-17.593,11.438-24.139,18.791C59.94,261.846,55.44,270.831,55.44,279c0,8.577,3.682,15.11,7.365,20.015s7.773,7.757,10.637,10.21C80.807,314.126,84.9,315.763,85.307,314.942Z" transform="translate(182.682 595.519)" fill="#1c2036"/>
      <path id="Path_19351" data-name="Path 19351" d="M100.2,143.233c-1.228,0-3.683,11.437-2.864,32.677a198.01,198.01,0,0,0,6.546,38.4c4.091,14.7,9.819,31.452,19.639,48.2,4.5,8.578,10.638,16.747,17.593,25.325a123.014,123.014,0,0,0,25.367,22.464c9.82,6.537,22.094,11.846,35.6,12.254a58.426,58.426,0,0,0,39.277-12.254c11.455-8.577,19.642-20.832,25.367-33.9s9-27.367,10.639-41.663a199.051,199.051,0,0,0-.408-44.114,250.02,250.02,0,0,0-10.231-44.522A225.982,225.982,0,0,0,251.588,112.6,216.56,216.56,0,0,0,230.31,81.964c-10.227-11.845-22.5-22.057-36.822-29a80.882,80.882,0,0,0-45.824-7.352,87.15,87.15,0,0,0-40.505,17.972C96.112,72.569,86.7,83.6,80.564,95.852c-6.546,11.845-10.228,24.916-12.274,37.17s-2.046,24.508-1.636,35.945a280.376,280.376,0,0,0,4.5,33.086c1.228,5.31,2.455,10.211,3.682,15.113,1.636,4.9,2.864,9.8,4.5,14.3,6.547,18.381,16.366,33.494,25.776,45.34a140.485,140.485,0,0,0,29.049,26.551c18,11.846,30.277,13.886,30.277,12.662.409-1.224-10.228-5.309-26.185-17.975a149.348,149.348,0,0,1-25.367-26.956,156.448,156.448,0,0,1-22.5-43.705c-1.636-4.085-2.455-8.986-4.092-13.479-1.228-4.9-2.046-9.395-2.864-14.7a247.954,247.954,0,0,1-3.682-31.043c-.818-21.648,2.046-44.931,13.5-65.763A92.485,92.485,0,0,1,116.569,75.02c9.41-7.352,21.276-13.071,33.55-14.7a64.261,64.261,0,0,1,36.823,6.127c11.865,5.718,22.5,14.3,31.913,25.325a160.133,160.133,0,0,1,19.229,27.775c5.73,9.8,10.231,20.423,14.32,31.043,4.5,13.479,8.182,27.367,9.819,41.255a195.318,195.318,0,0,1,.82,40.846,123.773,123.773,0,0,1-9,37.17c-4.909,11.437-11.863,21.649-20.458,28.182a44.626,44.626,0,0,1-29.866,9.806c-10.638-.408-20.457-4.493-29.458-9.806s-16.366-12.25-23.321-19.6a175.87,175.87,0,0,1-17.184-22.874c-9.819-15.522-15.957-31.043-20.457-44.931a238.143,238.143,0,0,1-8.592-36.353C101.022,154.67,101.431,143.233,100.2,143.233Z" transform="translate(218.929 148.001)" fill="#1c2036"/>
      <path id="Path_19352" data-name="Path 19352" d="M304.511,397.84c5.725-2.04-.82-6.125-1.636-10.622-16.369-75.157-73.649-144.184-87.969-219.749,0,0-17.593,20.832-44.6,30.633-27.412,9.8-58.1-3.269-58.1-3.269,1.228,37.986,24.959,71.48,40.1,106.2,11.047,25.324,20.05,70.256,22.5,98.028C174.4,399.064,233.727,423.98,304.511,397.84Z" transform="translate(369.759 551.836)" fill="#fff"/>
      <path id="Path_19353" data-name="Path 19353" d="M308.693,402.622c6.138-2.861,2.865-7.761.408-12.254-1.637-3.269-2.045-7.761-3.273-11.438-1.228-4.085-2.044-8.169-3.273-11.846a330.585,330.585,0,0,0-18.821-46.972c-14.728-31.861-32.321-62.9-45.825-95.58-7.362-17.975-13.912-36.354-17.593-55.554-.408-2.04-3.681-2.856-5.317-1.224a102.541,102.541,0,0,1-42.552,29.409c-18,6.537-39.687,4.493-57.28-2.861-1.636-.816-4.089,1.228-3.681,2.861,1.228,30.225,15.548,57.186,28.64,83.326,6.546,12.662,12.684,25.324,17.185,38.4a317.737,317.737,0,0,1,9.819,38.8,388.037,388.037,0,0,1,6.546,43.7c0,1.637.816,2.453,2.453,2.861,12.276,5.309,26.188,7.761,39.279,9.394a203.39,203.39,0,0,0,92.466-10.618c3.685-1.224,2.044-7.353-1.636-5.721a190.97,190.97,0,0,1-90.83,10.214c-12.684-1.636-25.775-4.085-37.643-8.985.82.816,1.636,2.04,2.457,2.856a405.506,405.506,0,0,0-14.32-76.381c-8.182-27.369-22.91-51.057-34.37-76.793-7.362-16.335-13.092-33.081-13.5-51.057-1.228.816-2.457,2.044-3.681,2.861,18.409,7.353,41.732,9.8,60.553,2.861,16.773-6.129,33.549-17.159,45.413-31.045-1.636-.408-3.273-.816-5.317-1.224,12.684,64.535,52.371,119.272,75.689,180.13,3.273,8.577,6.138,17.155,8.595,26.145,1.228,4.08,2.044,8.577,3.273,12.662a12.2,12.2,0,0,0,1.636,4.085c.408.816,2.865,3.264,1.636,3.672C301.735,398.945,305.008,404.254,308.693,402.622Z" transform="translate(367.214 549.915)" fill="#1c2036"/>
      <path id="Path_19354" data-name="Path 19354" d="M113.931,201.809c-1.228-.408-2.045-1.636-1.636-2.453,1.636-4.493,9-16.339,40.5-24.916,39.687-11.03,57.693-10.21,63.826-3.677C222.353,176.893,172.439,220.188,113.931,201.809Z" transform="translate(369.678 546.905)" fill="#1c2036"/>
      <path id="Path_19355" data-name="Path 19355" d="M123.345,205.232s8.182,5.721,24.139-.816c15.548-6.533,20.866-16.747,20.866-16.747l-20.458-24.1-27.82,9.806-2.049,5.309Z" transform="translate(388.904 538.985)" fill="#fff"/>
      <path id="Path_19356" data-name="Path 19356" d="M160.636,191.106c1.224-1.632-4.914-7.761-16.369-17.971a150.318,150.318,0,0,1-18.821-17.971,65.881,65.881,0,0,1-8.59-12.254,24.027,24.027,0,0,0-1.636-3.269v-.816c0-.408,0-.816.408-.816s.412,0,.82.408l.816.408,1.228.816c.82.408,2.044,1.224,2.865,1.632,4.089,2.453,8.59,5.313,13.092,8.577,9,6.129,19.229,11.846,29.46,17.567,1.636.816,3.273,2.04,4.909,2.856l4.5,3.269q1.843,1.836,3.685,3.677a28.7,28.7,0,0,1,3.273,4.085A45.193,45.193,0,0,1,186,193.151c1.228,4.493,2.049,8.985,2.865,13.478,1.228,9.394,1.228,18.791,1.228,27.777v13.07a35.216,35.216,0,0,0,.408,6.537,35.771,35.771,0,0,0,.82,6.533,117.145,117.145,0,0,0,5.725,22.876c4.909,13.478,10.639,22.872,15.548,29,4.5,6.125,8.182,8.577,9.411,7.757.82-.816-.816-4.493-3.681-11.434a204.317,204.317,0,0,1-10.231-29,101.361,101.361,0,0,1-3.273-20.832c0-2.044-.408-3.677-.408-5.721v-6.125c0-4.085.408-8.577.408-13.07a238.118,238.118,0,0,0-.408-29.409,124.286,124.286,0,0,0-2.865-16.339,54.189,54.189,0,0,0-7.774-16.339,69.978,69.978,0,0,0-4.5-5.721,63.852,63.852,0,0,1-5.322-5.309c-2.044-1.632-3.681-2.861-5.725-4.493q-3.073-1.836-6.138-3.677c-10.639-5.717-20.05-11.03-29.052-16.747a154.766,154.766,0,0,0-13.908-8.169c-1.228-.816-2.457-1.224-3.685-2.04l-2.044-.82-2.865-1.224c-1.224-.408-2.453-.408-3.273-.816l-1.636-.408h-1.636a31.715,31.715,0,0,0-6.138.816,10.391,10.391,0,0,0-5.725,5.309,11.773,11.773,0,0,0-1.228,7.353,28.379,28.379,0,0,0,2.457,7.761,22.164,22.164,0,0,0,2.453,4.493,67.066,67.066,0,0,0,11.455,13.886,96.747,96.747,0,0,0,22.5,17.155C152.042,188.25,159.408,192.335,160.636,191.106Z" transform="translate(331.975 403.614)" fill="#1c2036"/>
      <path id="Path_19357" data-name="Path 19357" d="M109.914,155.5c-4.5,3.269,5.322,19.607,19.642,39.618a12.535,12.535,0,0,1,2.044,2.861,12.445,12.445,0,0,1,2.044,2.861c2.049,2.448,3.685,4.9,5.322,6.941a20.309,20.309,0,0,0,2.861,3.269s.412,0,.412,1.224c.816,1.636,1.224,3.677,2.044,5.721.408,2.04,1.228,4.085,1.636,5.717,2.044,7.353,3.681,11.846,6.546,11.846,2.457,0,4.5-4.9,4.909-13.07,0-2.044.408-4.085,0-6.945a35.867,35.867,0,0,0-1.228-8.577,19.605,19.605,0,0,0-2.861-6.125,22.462,22.462,0,0,0-2.457-3.269q-2.455-3.679-4.909-7.353a12.226,12.226,0,0,1-2.045-2.861c-.82-.816-1.228-2.04-2.049-2.856C127.1,165.712,114.007,152.642,109.914,155.5Z" transform="translate(358.555 511.11)" fill="#1c2036"/>
      <path id="Path_19358" data-name="Path 19358" d="M106.172,145.422c-1.225-.816-2.453-.408-4.5,1.636-1.636,1.632-3.273,5.309-3.273,10.21a23.753,23.753,0,0,0,5.319,14.294,64.935,64.935,0,0,0,11.864,11.846q1.843,1.23,3.685,2.453l1.224.408,1.636.408c.82.408,2.049.816,2.865,1.224a22.608,22.608,0,0,0,7.366.82c2.453-.412,4.5-.82,6.138-2.044a11.47,11.47,0,0,0,5.725-9.8c0-1.636-.816-3.677-1.224-5.721-.82-2.04-1.636-3.677-2.457-5.309a11.3,11.3,0,0,0-2.453-3.269c-.82-.816-1.228-1.632-2.049-2.448-5.725-5.721-11.047-6.537-12.271-4.493s.816,5.717,3.273,11.026c.408.816.408,1.228.816,2.044s.82,1.632.408,2.04c0,.816,0,.816-.408.816-.408.412-1.228,0-.816-.408h-.412a16.67,16.67,0,0,1-1.636-1.224,56.39,56.39,0,0,1-10.227-8.577,24.074,24.074,0,0,1-5.317-6.945,34.07,34.07,0,0,1-1.641-6.125C107.809,147.467,107.4,145.83,106.172,145.422Z" transform="translate(324.245 477.891)" fill="#1c2036"/>
      <path id="Path_19359" data-name="Path 19359" d="M144.763,171.593c2.045-1.636-1.228-8.577-9-19.2-2.049-2.453-4.093-5.309-6.958-8.169a46.781,46.781,0,0,0-4.5-4.493,17.8,17.8,0,0,0-2.861-2.453c-1.228-1.224-3.277-1.632-4.914-2.856-3.681-1.228-8.181-1.228-11.454,1.224a15.7,15.7,0,0,0-4.5,4.493A17.637,17.637,0,0,0,98.939,143c-.409,1.224-.818,1.632-.818,2.448a59.768,59.768,0,0,0-2.046,8.169c0,1.228-.409,2.453-.409,4.085,0,1.228-.409,2.861-.409,4.085a19.842,19.842,0,0,0,.409,4.9c.409.82.409,1.636.819,2.453l.818,2.04a30.1,30.1,0,0,0,4.909,6.537q2.455,2.448,4.91,4.9c3.683,3.269,7.365,6.129,10.637,8.985.82.82,1.636,1.228,2.457,2.044l1.228,1.224c.408.408,1.224.816,1.636,1.224a20.655,20.655,0,0,0,6.546,3.677,37.087,37.087,0,0,0,13.5,4.085c1.228,0,2.457.408,3.681,0,1.228,0,2.457-.408,4.093-.408a18.507,18.507,0,0,0,7.774-4.493c.816-1.632,2.044-2.861,2.453-4.493a5.136,5.136,0,0,0,.412-2.453v-2.448a8.243,8.243,0,0,0-1.228-4.493,6.6,6.6,0,0,0-1.636-2.861,29.16,29.16,0,0,0-6.138-7.353c-3.681-3.264-6.546-4.493-7.774-3.264-.816.816,0,3.672,1.636,7.757.82,2.044,2.044,4.5,2.865,6.945,0,.816.408,1.224.408,2.044v.816c0,.408-.408,1.224-.816,1.224s-.82.408-1.228,0H146.4a2.465,2.465,0,0,1-1.636-.408,49.122,49.122,0,0,1-8.59-3.677,34.988,34.988,0,0,1-4.093-2.861c-.408-.408-.816-.408-.816-.816l-1.228-.816c-.82-.816-1.636-1.632-2.457-2.453-3.273-2.856-6.954-5.717-9.819-8.578a38.149,38.149,0,0,1-4.091-4.085,22.283,22.283,0,0,1-2.864-3.677c.409-4.493.818-9.394,2.045-12.662a1.423,1.423,0,0,1,.409-.816v-.408a.4.4,0,0,1,.409-.408h.409c.818.408,1.228.816,2.045,1.224a29.011,29.011,0,0,1,4.093,3.269c2.865,2.045,5.317,4.493,7.774,6.537C136.988,168.325,143.126,172.818,144.763,171.593Z" transform="translate(313.887 440.286)" fill="#1c2036"/>
      <path id="Path_19360" data-name="Path 19360" d="M147.528,165.314c2.045-1.632-1.228-8.577-9-19.2-2.044-2.448-4.093-5.309-6.954-8.169a47.258,47.258,0,0,0-4.5-4.493A17.838,17.838,0,0,0,124.2,131c-1.228-1.228-3.273-1.636-4.909-2.861-3.681-1.224-8.182-1.224-11.455,1.224a15.74,15.74,0,0,0-4.5,4.493,17.978,17.978,0,0,0-1.637,2.861c-.409,1.224-.818,1.632-.818,2.453a59.509,59.509,0,0,0-2.046,8.169c0,1.224-.409,2.448-.409,4.085,0,1.224-.409,2.856-.409,4.085a19.856,19.856,0,0,0,.409,4.9c.409.816.409,1.632.818,2.448l.818,2.044a30.059,30.059,0,0,0,4.91,6.533q2.455,2.455,4.91,4.905c4.093,3.672,8.59,6.941,12.276,10.21a17.584,17.584,0,0,1,2.861,2.453l3.685,2.448c2.453,1.636,4.909,2.453,7.362,3.677a29.987,29.987,0,0,0,15.957,2.453c7.366-.816,12.684-6.945,12.276-12.662a14.5,14.5,0,0,0-.816-4.085,28.643,28.643,0,0,0-1.228-3.269c-.82-1.632-1.636-3.269-2.865-4.085a32.073,32.073,0,0,0-5.317-5.309c-3.273-3.269-5.73-4.085-6.546-2.861-.82.816-.412,2.861,1.224,6.537.82,1.632,1.636,3.672,2.457,5.717s1.636,4.9,1.228,5.309a2.8,2.8,0,0,1-2.049,1.224,20.171,20.171,0,0,1-9-2.856c-1.636-.816-3.273-2.044-4.909-2.861-.82-.408-1.636-1.224-2.457-1.632l-2.453-2.453c-3.685-3.269-7.774-6.533-11.459-9.8a39.018,39.018,0,0,1-4.089-4.085,22.71,22.71,0,0,1-2.865-3.677c.408-4.493.82-9.394,2.044-12.662a1.42,1.42,0,0,1,.412-.816v-.408a.4.4,0,0,1,.408-.412h.408c.82.412,1.228.82,2.044,1.228a28.406,28.406,0,0,1,4.093,3.269c2.865,2.04,5.317,4.493,7.774,6.533C139.753,161.637,145.891,166.538,147.528,165.314Z" transform="translate(322.989 419.604)" fill="#1c2036"/>
      <path id="Path_19361" data-name="Path 19361" d="M97.543,114.414l30.688,78.017,26.591,12.662-22.5-100.485S122.5,115.23,97.543,114.414Z" transform="translate(321.42 344.699)" fill="#1c2036"/>
      <path id="Path_19362" data-name="Path 19362" d="M108.022,133.423,142.8,223.694l3.685,1.632-13.5-73.112Z" transform="translate(355.949 439.649)" fill="#1c2036"/>
      <path id="Path_19363" data-name="Path 19363" d="M218.874,150.65l94.515-12.662s14.728,88.635,7.77,119.272c-61.777,11.438-108.831,17.563-108.831,17.563s29.048-35.126,11.047-110.287" transform="translate(699.654 454.692)" fill="#d0e0fa"/>
      <path id="Path_19364" data-name="Path 19364" d="M229.747,167.983c-.408,0-.408,2.861.408,8.169q.619,3.679,1.228,9.806a109,109,0,0,1,1.228,13.07,149.889,149.889,0,0,1-1.228,35.126c-1.228,6.537-2.453,13.891-4.909,20.831a113.433,113.433,0,0,1-4.089,10.622q-.619,1.224-1.228,2.453l-.82,1.224v.408c0,.408-.408.408-.408.816l-1.228,1.224-1.636,2.453c-.408.816-1.228,1.632-2.045,2.861-1.636,2.04-2.865,3.677-4.5,5.717,2.457-.408,6.138-.816,9-1.224s5.725-.816,9-1.228a88.862,88.862,0,0,0,10.231-1.632c6.954-1.224,14.32-2.04,21.682-3.269,14.732-2.448,30.281-4.9,46.237-7.761,5.725-1.224,11.455-2.04,16.773-2.856.82,0,4.5-.816,6.954-1.228l1.229-6.941c.408-2.861.408-5.721.82-8.985.816-14.707-.412-28.593-1.228-42.075-1.228-13.478-2.865-26.14-4.5-38.394-.816-6.125-1.636-11.846-2.453-17.563-.412-3.677-1.228-7.353-1.636-11.03V137.35a.4.4,0,0,0-.412-.408l-2.044.408-3.681.408c-1.636.408-3.273.408-4.5.816-10.639,1.636-20.458,2.861-29.46,4.493-36,5.313-57.688,9.4-57.688,10.622s22.094-.816,58.1-4.9q13.5-1.843,29.456-3.677c1.228,0,2.457-.408,3.681-.408h.412v1.632c0,1.224.408,2.861.408,4.085.816,5.721,1.636,11.438,2.457,17.563,1.637,11.846,2.861,24.916,4.089,37.991.82,13.07,2.044,26.956,1.228,40.843-.408,2.861-.408,5.721-.82,8.169-.408,2.044,0,1.228-.408,1.228,0,0,.408,0-1.228.408-5.725.816-11.047,2.04-16.773,2.856-15.956,2.861-31.5,5.313-46.233,7.761-11.868,2.044-23.323,3.677-33.962,5.313a1.439,1.439,0,0,0,.412-.82l.816-2.04c.408-.816.82-2.044,1.228-2.861,1.636-3.677,3.273-7.761,4.5-11.438a117.664,117.664,0,0,0,4.5-22.056,132.82,132.82,0,0,0-.412-36.354c-.408-4.9-1.636-9.394-2.044-13.07-.816-3.677-1.636-6.941-2.457-9.394C230.976,170.436,230.155,167.983,229.747,167.983Z" transform="translate(693.689 451.245)" fill="#1c2036"/>
      <path id="Path_19365" data-name="Path 19365" d="M145.107,189.838s26.183-64.127,121.514-72.3l65.462,74.341s-117.013,39.619-105.15,82.1c-81.011-46.564-82.239-69.844-82.239-69.844" transform="translate(476.792 387.319)" fill="#d0e0fa"/>
      <path id="Path_19366" data-name="Path 19366" d="M144.948,207.171c-.412,0-.412,3.269,2.044,7.761,2.457,4.905,6.954,11.03,13.912,17.975a206.077,206.077,0,0,0,27,22.464c5.725,4.085,11.455,8.169,18,12.254q4.909,3.067,9.819,6.129c2.049,1.224,10.639,6.533,16.777,9.8-.408-2.045-.82-4.493-1.228-6.537s-.408-4.085-.82-6.125v-2.453l.412-1.224a7.584,7.584,0,0,1,.816-2.861,37.254,37.254,0,0,1,6.138-11.026c5.317-6.945,12.684-13.074,20.866-18.383,16.369-11.03,35.186-20.424,55.644-28.593,2.865-1.224,6.138-2.448,9-3.677l4.5-1.632,7.774-2.861,4.089-1.632L324.563,179.4c-10.639-12.254-21.278-24.1-31.5-35.538-4.909-5.717-9.819-11.026-14.728-16.747-2.457-2.861-4.914-5.717-7.366-8.169l-1.637-2.04-.408-.408h-1.637l-3.685.408c-1.636.408-3.681.408-5.317.816-13.912,1.632-27,5.309-38.867,8.985q-4.3,1.836-8.595,3.677c-1.228.408-2.865,1.224-4.089,1.632a37.391,37.391,0,0,1-4.093,2.044,65.619,65.619,0,0,0-7.366,4.085c-2.453,1.632-4.5,2.861-6.954,4.493-1.228.816-2.044,1.224-3.273,2.04a18.065,18.065,0,0,0-2.865,2.453,70.052,70.052,0,0,0-5.725,4.493c-3.277,3.269-6.958,6.129-9.823,8.985a134.254,134.254,0,0,0-13.5,16.339c-6.138,9.806-8.182,15.931-7.774,16.339s3.273-5.309,10.227-14.294c3.685-4.493,7.774-9.806,13.912-15.115a104.152,104.152,0,0,1,9.819-8.169c2.049-1.224,3.685-2.861,5.73-4.085.816-.816,2.044-1.224,2.865-2.04,1.228-.82,2.044-1.228,3.273-2.044a56.76,56.76,0,0,0,6.546-4.085q3.679-1.836,7.366-3.677c1.224-.408,2.453-1.224,3.681-1.632a43.633,43.633,0,0,1,4.089-1.636c2.865-1.224,5.322-2.04,8.187-3.264,11.455-3.677,23.726-6.945,37.638-8.169a20.38,20.38,0,0,0,4.909-.82h1.637c2.457,2.453,4.5,5.313,6.958,7.761,4.909,5.313,9.819,11.03,14.728,16.747,9.819,11.438,20.458,23.284,31.1,35.538l5.725,6.537,1.636,2.04-1.228.408-4.5,1.637c-2.865,1.224-6.138,2.448-9,3.672-20.866,8.577-40.1,17.975-56.872,29.821-8.182,6.125-16.365,12.254-22.094,20.419-2.865,4.085-5.725,8.169-6.954,13.074a11.922,11.922,0,0,0-.82,3.677l-.408,2.04v2.453c1.636,1.224-8.59-4.905-14.32-8.577-6.546-3.677-12.276-7.761-18-11.438a252.141,252.141,0,0,1-27-20.832q-10.437-9.806-14.728-15.931C146.177,209.624,145.356,207.171,144.948,207.171Z" transform="translate(476.952 383.872)" fill="#1c2036"/>
      <path id="Path_19367" data-name="Path 19367" d="M184.227,90.165s76.51,33.494,127.244-23.691c15.14,42.888,54.415,53.917,76.918,58.41-74.873,62.495-106.374,86.595-106.374,86.595s-51.963-24.917-89.193-99.257" transform="translate(607.056 219.042)" fill="#d0e0fa"/>
      <path id="Path_19368" data-name="Path 19368" d="M191.482,117.549c-.408.408,1.636,6.127,7.366,16.747a224.965,224.965,0,0,0,28.232,41.255,204.815,204.815,0,0,0,24.955,24.916c4.909,4.085,10.231,8.169,15.549,12.254,2.865,2.042,5.73,3.678,9,5.718l4.089,2.044c.82.816,1.228-.408,2.049-.82l2.044-1.632c1.636-1.224,2.865-2.45,4.5-3.676,22.094-17.972,46.641-37.578,72.416-58.41,5.322-4.084,10.231-8.577,15.548-12.662,2.865-2.451,5.73-4.9,9-7.352,2.453-2.042,5.317-4.085,7.774-6.127l2.044-1.634.408-.408h0l-1.228-.408-4.909-1.225-6.138-1.225-4.5-1.225a23.454,23.454,0,0,1-5.73-1.634c-3.681-1.225-7.774-2.451-11.047-3.676a86.623,86.623,0,0,1-20.05-11.029,60.817,60.817,0,0,1-15.544-15.113c-2.457-2.859-4.093-5.719-6.138-8.578a44.539,44.539,0,0,0-2.457-4.493q-.612-1.225-1.228-2.451l-1.224-3.267-2.049-4.493-.816-2.451L313,65.266l-.412-.408a.4.4,0,0,0-.408.408c-2.453,2.451-4.909,4.9-6.954,6.944l-3.685,3.676a26.21,26.21,0,0,1-3.681,3.268,89.818,89.818,0,0,1-7.362,5.719c-2.457,1.634-5.322,3.268-7.774,4.9-10.639,5.719-21.686,9.395-31.913,10.62a132.508,132.508,0,0,1-27.824,1.225c-4.089,0-7.774-.817-11.455-1.225a91.462,91.462,0,0,0-9.411-1.633c-11.455-2.451-17.593-4.493-17.593-3.676-.408.408,5.317,3.676,16.773,6.944,2.865.817,6.138,1.634,9.411,2.451,3.685.408,7.366,1.634,11.867,1.634a114.9,114.9,0,0,0,29.048,0,95.783,95.783,0,0,0,33.958-10.62l8.595-4.9c2.865-2.042,5.317-4.085,8.182-6.127a16.041,16.041,0,0,0,4.093-3.268,26.207,26.207,0,0,1,3.681-3.268l.408-.408a.4.4,0,0,0,.408.408l.82,1.634q.612,1.225,1.228,2.451,1.224,2.451,2.453,4.9A77,77,0,0,0,322,96.309a95.409,95.409,0,0,0,17.185,16.747A100.991,100.991,0,0,0,360.87,124.9a101.241,101.241,0,0,0,11.863,4.084,34.138,34.138,0,0,0,6.138,1.634l1.637.408-6.546,5.31c-5.317,4.085-10.227,8.169-15.548,12.663-25.775,21.24-49.914,40.846-72.008,58.818-1.228,1.225-2.457,2.042-3.681,3.268-.412.408,0,.408-.82,0a97.869,97.869,0,0,1-8.59-5.31,146.333,146.333,0,0,1-15.14-11.437,279.815,279.815,0,0,1-24.955-23.691,332.311,332.311,0,0,1-29.869-39.213C195.168,122.859,191.895,117.14,191.482,117.549Z" transform="translate(607.983 213.714)" fill="#1c2036"/>
      <path id="Path_19369" data-name="Path 19369" d="M148.244,159.413,222.3,141.034S164.61,250.5,148.244,201.484s-15.547-67.4-15.547-67.4L.953,137.358s3.682,99.665,69.963,93.128,77.738-13.478,77.738-13.478" transform="translate(3.139 441.844)" fill="#d0e0fa"/>
      <path id="Path_19370" data-name="Path 19370" d="M151.523,221.08c-.409-.408-7.364,2.04-20.866,4.085s-33.55,4.493-58.1,6.533c-11.865.82-25.367-2.448-35.6-11.842s-17.593-23.692-22.094-39.215A152.957,152.957,0,0,1,9.55,156.133c-.409-2.04-.409-4.493-.818-6.533a35.352,35.352,0,0,1-.409-4.5H16.1c18.411-.408,37.641-.816,57.28-1.632,7.774-.408,15.957-.408,23.73-.816s15.548-.408,23.73-.816a54.978,54.978,0,0,0,8.183-.408h4.091l.409,3.672a45.514,45.514,0,0,1,.818,6.945,130.49,130.49,0,0,0,2.864,13.478c2.046,8.99,4.5,17.567,6.956,26.145,1.227,4.085,2.455,8.169,4.091,12.254,1.228,4.085,2.864,8.577,6.547,12.662a13.791,13.791,0,0,0,6.955,4.493,13.954,13.954,0,0,0,4.092.408c1.228-.408,2.455-.408,3.682-.816a33.784,33.784,0,0,0,11.456-6.537c6.546-5.309,11.456-11.438,16.366-17.563,4.5-6.129,9-11.846,12.684-17.971,3.682-5.721,7.364-11.846,10.637-17.159,1.637-3.264,3.273-6.125,4.91-8.985,1.228-2.448,2.455-4.493,3.682-6.941l1.637-3.269.818-1.636c-.409,0-1.228.412-1.636.412-2.455.408-4.91,1.224-6.956,1.632s-4.5,1.224-6.546,1.632c-2.864.816-5.319,1.228-7.774,2.044-4.91,1.224-9.82,2.856-14.32,3.677-9,2.448-16.366,4.493-22.912,6.533-12.274,3.677-19.23,5.721-18.821,6.537,0,.408,6.955-.816,19.639-3.269,6.546-1.224,13.911-3.269,23.321-5.309,4.5-1.228,9.41-2.044,14.32-3.269a54.087,54.087,0,0,0,7.773-2.044,7.6,7.6,0,0,0,2.864-.816h.409v.408l-.409.82-.818,1.224a71.463,71.463,0,0,1-4.5,7.353c-3.273,5.309-6.956,11.026-10.638,16.747s-8.183,11.434-12.684,17.155-9.41,11.438-15.547,15.931a26.067,26.067,0,0,1-9,5.309c-3.273.816-5.319.408-7.774-2.045a16.816,16.816,0,0,1-2.864-4.493,44.123,44.123,0,0,1-2.045-5.717l-3.683-12.254c-2.455-8.169-4.909-16.747-6.955-25.324-.818-4.493-2.046-8.577-2.455-13.07a35.736,35.736,0,0,1-.818-6.537c0-1.224-.409-2.04-.409-3.677v-7.349c-6.547,0-13.093.408-20.048.408-7.774.408-15.957.408-23.731.816s-15.547.408-23.73.816c-19.639.408-38.868,1.224-57.28,1.632a39.39,39.39,0,0,0-6.955.412H.139c-.409,0,0,.408,0,.816v3.269A85.7,85.7,0,0,0,.958,149.6c.409,2.448.409,4.493.818,6.533A168.64,168.64,0,0,0,7.5,181.865c4.91,16.339,12.683,31.453,24.549,42.071a49.585,49.585,0,0,0,19.639,11.03A50.306,50.306,0,0,0,72.149,236.6c24.958-2.453,45.006-5.721,58.508-8.99C144.976,225.573,151.932,221.9,151.523,221.08Z" transform="translate(-0.14 437.771)" fill="#1c2036"/>
      <path id="Path_19371" data-name="Path 19371" d="M254.522,147.288c0-1.636-7.362-2.453-16.773-2.453h-2.457c-9.411,0-16.773.816-16.773,2.453s7.362,2.04,16.773,2.448h2.457C247.16,149.328,254.522,148.512,254.522,147.288Z" transform="translate(720.057 477.254)" fill="#1c2036"/>
      <path id="Path_19372" data-name="Path 19372" d="M271.06,149.555c-.408-1.632-10.227,0-23.318.816h-4.093c-13.092.82-22.91.412-23.318,2.044,0,1.224,10.227,3.269,23.318,2.861h4.093C261.654,154.047,271.472,150.783,271.06,149.555Z" transform="translate(726.021 490.505)" fill="#1c2036"/>
      <path id="Path_19373" data-name="Path 19373" d="M187.926,137.841c1.224-1.224-1.637-4.9-5.73-8.985-.408,0-.408-.408-.82-.408l-.408-.408c-4.089-4.085-7.774-6.537-9-5.309s1.636,4.493,5.725,8.985c.408,0,.408.408.82.408l.408.408C183.012,136.209,187.105,139.07,187.926,137.841Z" transform="translate(565.719 403.37)" fill="#1c2036"/>
      <path id="Path_19374" data-name="Path 19374" d="M201.867,162.03c1.228-1.224-4.909-8.985-13.5-19.2a5.634,5.634,0,0,1-1.224-1.632,5.561,5.561,0,0,1-1.228-1.632c-8.595-9.806-15.956-17.155-17.185-15.931-1.228.816,4.909,8.985,13.5,19.2a5.723,5.723,0,0,1,1.224,1.636,5.56,5.56,0,0,1,1.228,1.632C193.272,155.9,200.638,162.846,201.867,162.03Z" transform="translate(555.459 406.958)" fill="#1c2036"/>
      <path id="Path_19375" data-name="Path 19375" d="M162.826,149.029c4.093-3.269,3.685-7.353,1.228-11.026l-.408-.412-.408-.408c-2.865-3.264-6.958-4.9-11.047-1.632-3.685,2.861-3.685,7.353-1.228,11.03l.408.408.408.408C155.052,150.665,159.145,151.889,162.826,149.029Z" transform="translate(491.803 440.79)" fill="#1c2036"/>
      <path id="Path_19376" data-name="Path 19376" d="M54.717,141.209c-.409-1.632-9.819-.816-22.5-.408H28.123c-12.683.82-22.5.82-22.5,2.453s9.819,2.453,22.5,2.04h4.092C45.307,144.478,54.717,142.438,54.717,141.209Z" transform="translate(18.519 462.088)" fill="#1c2036"/>
      <path id="Path_19377" data-name="Path 19377" d="M77.27,144.491c-.409-1.632-13.911.816-31.913,2.044H39.629c-18,1.224-31.913.408-31.913,2.04,0,1.224,13.911,3.677,32.322,2.861h5.728C63.768,149.8,77.68,145.715,77.27,144.491Z" transform="translate(25.425 474.329)" fill="#1c2036"/>
      <path id="Path_19378" data-name="Path 19378" d="M40.008,147.936c0,5.309,1.636,7.353,4.092,7.761h.818c2.455-.408,4.092-2.453,4.092-7.761,0-4.9-1.637-7.353-4.092-7.761H44.1C42.054,140.583,40.008,143.036,40.008,147.936Z" transform="translate(131.833 461.898)" fill="#1c2036"/>
      <path id="Path_19379" data-name="Path 19379" d="M256.883,97.268c0-1.634-10.231-2.451-22.094-8.578-.408-.408-1.228-.408-1.636-.817l-1.636-.817c-11.455-6.127-18.413-14.3-19.642-13.071-1.224.817,4.914,10.212,17.185,17.155.82.408,1.228.817,2.049.817.816.408,1.224.817,2.045.817C245.835,98.9,257.291,98.494,256.883,97.268Z" transform="translate(697.651 243.389)" fill="#1c2036"/>
      <path id="Path_19380" data-name="Path 19380" d="M240.937,103.331c.408-1.634-7.774-4.493-15.956-11.437l-1.228-1.225-1.228-1.225c-8.182-7.352-12.684-14.7-13.912-13.888-1.224.408,2.049,9.394,11.047,17.564l1.228,1.225,1.228,1.225C231.526,102.923,240.937,104.965,240.937,103.331Z" transform="translate(686.593 248.763)" fill="#1c2036"/>
      <path id="Path_19381" data-name="Path 19381" d="M171.847,60.472c1.228,0,2.457-1.225,3.273-2.859a17.877,17.877,0,0,1,3.685-4.493,3.816,3.816,0,0,1,4.089-.408c.408.408.82.817,1.636,1.634a9.223,9.223,0,0,1,2.049,4.493,4.446,4.446,0,0,1,.408,2.042c0,.817.408,1.225.408,2.451v1.225h-.816a5.205,5.205,0,0,1-2.457-.408,11.928,11.928,0,0,1-3.681-.817,17.681,17.681,0,0,1-4.909-2.042c-.82,0-2.049-.817-3.685-.817q-1.836,0-2.453,3.676c-.412,2.451,1.229,6.535,4.909,9.8a17.056,17.056,0,0,0,6.546,3.676c1.228.408,2.044.817,3.273,1.225l.82.408,1.636.408c.816,0,2.044.408,3.273.408a13,13,0,0,0,11.455-4.9,15.553,15.553,0,0,0,2.453-6.535V62.106a14.527,14.527,0,0,0-.816-4.085c-.408-1.225-.82-2.451-1.228-4.085A25.007,25.007,0,0,0,196.4,44.95a16.136,16.136,0,0,0-10.231-5.718c-7.774-1.225-14.32,3.676-16.365,8.169a17.285,17.285,0,0,0-1.228,10.62C169.395,60.063,171.031,60.88,171.847,60.472Z" transform="translate(554.382 128.646)" fill="#e1eaf8"/>
      <path id="Path_19382" data-name="Path 19382" d="M187.81,0c-5.322,0-7.366,9.395-7.774,21.649v3.268c.408,12.254,2.453,21.648,7.774,21.648,4.909,0,7.362-9.395,7.774-21.648V21.649C195.172,9.395,192.72,0,187.81,0Z" transform="translate(593.246)" fill="#e1eaf8"/>
      <path id="Path_19383" data-name="Path 19383" d="M140.479,115.093c-4.909,2.044-6.138,5.313-5.322,8.577v.82c1.636,3.264,4.5,4.9,9.411,2.856,4.5-1.632,6.138-5.309,5.322-8.577a.4.4,0,0,0-.412-.408v-.408C148.253,114.685,144.976,113.053,140.479,115.093Z" transform="translate(444.598 376.285)" fill="#e1eaf8"/>
      <path id="Path_19384" data-name="Path 19384" d="M86.017,157.256c0,5.309,2.455,7.353,5.728,7.761h.819c3.273-.408,5.728-2.453,5.728-7.761,0-4.9-2.455-7.353-5.728-7.761h-.819C88.472,149.9,86.017,152.356,86.017,157.256Z" transform="translate(283.44 492.609)" fill="#e1eaf8"/>
      <path id="Path_19385" data-name="Path 19385" d="M28.471,78.848q-2.455,3.063,0,7.352c1.636,2.859,5.319,5.718,9.82,8.169l1.227.408,1.228.408A29.993,29.993,0,0,0,53.429,96.82C56.7,96,58.747,94.37,59.157,91.51c.409-4.9-5.728-7.76-12.684-11.028l-1.228-.408C37.881,77.623,31.744,75.172,28.471,78.848Z" transform="translate(89.772 253.64)" fill="#e1eaf8"/>
      <path id="Path_19386" data-name="Path 19386" d="M48.258,29.861c-5.319,0-7.364,4.493-7.773,10.212v1.634c.409,5.719,2.455,10.212,7.773,10.212,4.91,0,7.365-4.493,7.774-10.212V40.073C55.623,33.945,53.167,29.861,48.258,29.861Z" transform="translate(133.402 98.396)" fill="#e1eaf8"/>
      <path id="Path_19387" data-name="Path 19387" d="M230.2,20.731c-5.317,0-7.362,4.085-7.774,8.986v1.634c.412,4.9,2.457,8.986,7.774,8.986,4.909,0,7.366-4.085,7.774-8.986V29.718C237.565,24.816,235.109,20.731,230.2,20.731Z" transform="translate(732.925 68.313)" fill="#e1eaf8"/>
      <path id="Path_19388" data-name="Path 19388" d="M118.748,16.167c-5.317,0-7.362.408-7.774,1.225.412.817,2.457,1.225,7.774,1.225,4.909,0,7.366-.408,7.774-1.225C126.114,16.575,123.658,16.167,118.748,16.167Z" transform="translate(365.676 53.272)" fill="#e1eaf8"/>
      <path id="Path_19389" data-name="Path 19389" d="M222.5,124.956c2.044,4.9,5.317,6.129,8.59,4.9a.4.4,0,0,0,.412-.408h.408c2.865-1.632,4.5-4.493,2.865-9.394-1.637-4.493-5.322-5.717-8.595-4.9a.4.4,0,0,0-.408.408h-.408C222.094,117.2,220.866,120.464,222.5,124.956Z" transform="translate(730.803 378.676)" fill="#e1eaf8"/>
      <path id="Path_19390" data-name="Path 19390" d="M186.39,177.229c1.636,4.905,7.774,5.313,15.14,2.861.408,0,.816-.408,1.228-.408s.816-.408,1.224-.408c6.958-2.861,11.459-6.945,9.823-11.846-1.636-4.493-7.774-4.9-15.14-2.861-.408,0-.816.408-1.228.408s-.816.412-1.224.412C189.255,168.243,184.754,172.328,186.39,177.229Z" transform="translate(613.075 538.396)" fill="#e1eaf8"/>
      <path id="Path_19391" data-name="Path 19391" d="M105.926,29.539c0,5.31,4.089,7.352,9,7.76h1.636c4.909-.408,9-2.451,9-7.76,0-4.9-4.089-7.352-9-7.761h-1.636C110.015,22.186,105.926,24.637,105.926,29.539Z" transform="translate(349.043 71.761)" fill="#1b1b1b"/>
      <path id="Path_19392" data-name="Path 19392" d="M73.787,153.886c5.319,0,7.364-4.085,7.773-8.985v-1.636c-.409-4.9-2.455-8.985-7.773-8.985-4.91,0-7.365,4.085-7.774,8.985V144.9C66.422,149.8,68.877,153.886,73.787,153.886Z" transform="translate(217.524 442.47)" fill="#1c2036"/>
      <path id="Path_19393" data-name="Path 19393" d="M35.436,188.448c0,5.309,9.41,7.353,21.276,7.761h3.273c12.274-.408,21.276-2.453,21.276-7.761,0-4.9-9.41-7.353-21.276-7.761H56.711C44.846,181.095,35.436,183.548,35.436,188.448Z" transform="translate(116.766 595.392)" fill="#1c2036"/>
    </g>
  </g>
</svg>
