<svg xmlns="http://www.w3.org/2000/svg" width="603.45" height="560.319" viewBox="0 0 603.45 560.319">
  <g id="Group_58" data-name="Group 58" transform="translate(-899.5 -173.941)">
    <g id="_20" data-name="20" transform="translate(901.5 175.441)">
      <path id="Path" d="M22.733,45.465A22.733,22.733,0,1,0,0,22.733,22.728,22.728,0,0,0,22.733,45.465Z" transform="translate(528.425 109.228)" fill="none" stroke="#5b5f75" stroke-width="3"/>
      <path id="Path-2" data-name="Path" d="M15.525,31.05A15.525,15.525,0,1,0,0,15.525,15.535,15.535,0,0,0,15.525,31.05Z" transform="translate(568.901 34.931)" fill="none" stroke="#5b5f75" stroke-width="3"/>
      <path id="Path-3" data-name="Path" d="M261.149,522.3c144.231,0,261.177-116.935,261.177-261.149S405.38,0,261.149,0,0,116.935,0,261.149,116.924,522.3,261.149,522.3Z" transform="translate(6.653 11.644)" fill="none" stroke="#5b5f75" stroke-miterlimit="10" stroke-width="2"/>
      <path id="Path-4" data-name="Path" d="M528.425,185.743c0,77.624-30.5,146.931-84.277,194.614H9.98A9.939,9.939,0,0,1,0,370.377V9.98A9.939,9.939,0,0,1,9.98,0H449.138C497.93,46.02,528.425,112.555,528.425,185.743Z" transform="translate(-1 85.941)" fill="#1e1f22" stroke="#5b5f75" stroke-miterlimit="10" stroke-width="2"/>
      <path id="Path-5" data-name="Path" d="M1.109,20.515H0C7.208,13.861,12.753,7.208,18.852,0,12.753,7.762,8.317,14.416,1.109,20.515Z" transform="translate(442.484 445.229)" fill="#f1f3f9"/>
      <path id="Path-6" data-name="Path" d="M177.981,134.733H4.99A4.969,4.969,0,0,1,0,129.743V4.99A4.969,4.969,0,0,1,4.99,0H177.981a4.969,4.969,0,0,1,4.99,4.99v124.2C182.971,131.961,180.753,134.733,177.981,134.733Z" transform="translate(11.089 174.654)" fill="#05090b"/>
      <path id="Path-7" data-name="Path" d="M494.049,68.753H4.99A4.969,4.969,0,0,1,0,63.763V4.99A4.969,4.969,0,0,1,4.99,0H448.583c6.654,7.208,12.753,14.97,18.852,22.733a271.732,271.732,0,0,1,17.188,26.614C487.95,56,491.277,62.1,494.049,68.753Z" transform="translate(11.089 95.921)" fill="#05090b"/>
      <path id="Path-8" data-name="Path" d="M79.287,26.614H2.772A2.619,2.619,0,0,1,0,23.842V2.772A2.619,2.619,0,0,1,2.772,0H61.545A222.047,222.047,0,0,1,79.287,26.614Z" transform="translate(416.425 119.208)" fill="#31383f"/>
      <path id="Path-9" data-name="Path" d="M49.347,5.545H2.772A2.619,2.619,0,0,1,0,2.772,2.619,2.619,0,0,1,2.772,0H49.347a2.619,2.619,0,0,1,2.772,2.772A2.619,2.619,0,0,1,49.347,5.545Z" transform="translate(433.059 129.188)" fill="#31383f"/>
      <path id="Path-10" data-name="Path" d="M177.981,134.733H4.99A4.969,4.969,0,0,1,0,129.743V4.99A4.969,4.969,0,0,1,4.99,0H177.981a4.969,4.969,0,0,1,4.99,4.99v124.2A4.8,4.8,0,0,1,177.981,134.733Z" transform="translate(202.931 174.654)" fill="#05090b"/>
      <path id="Path-11" data-name="Path" d="M129.771,56.555A265.544,265.544,0,0,0,114.246,0H4.99C2.218,0,0,2.218,0,5.545v124.2a4.969,4.969,0,0,0,4.99,4.99H130.325A279.173,279.173,0,0,0,133.1,97.584a223.572,223.572,0,0,0-2.218-33.267Z" transform="translate(395.328 174.654)" fill="#05090b"/>
      <path id="Path-12" data-name="Path" d="M177.981,134.179H4.99A4.969,4.969,0,0,1,0,129.188V4.99A4.969,4.969,0,0,1,4.99,0H177.981a4.969,4.969,0,0,1,4.99,4.99v124.2A4.969,4.969,0,0,1,177.981,134.179Z" transform="translate(11.089 319.367)" fill="#05090b"/>
      <path id="Path-13" data-name="Path" d="M177.981,134.179H4.99A4.969,4.969,0,0,1,0,129.188V4.99A4.969,4.969,0,0,1,4.99,0H177.981a4.969,4.969,0,0,1,4.99,4.99v124.2C183.525,131.961,181.307,134.179,177.981,134.179Z" transform="translate(202.931 319.367)" fill="#05090b"/>
      <path id="Path-14" data-name="Path" d="M129.771,0a187.592,187.592,0,0,1-4.436,18.852c-.554,2.218-1.109,3.881-1.663,6.1-1.663,6.1-3.881,12.2-6.1,18.3-1.663,4.436-3.881,9.426-5.545,13.861l-4.99,9.98a22.474,22.474,0,0,1-2.772,4.99c-3.327,6.1-6.653,12.2-10.535,18.3a33.658,33.658,0,0,1-3.881,5.545L78.206,112.555c-1.663,2.218-3.327,3.881-4.99,6.1A198.7,198.7,0,0,1,58.8,134.733H4.99A4.969,4.969,0,0,1,0,129.743V4.99A4.969,4.969,0,0,1,4.99,0Z" transform="translate(394.219 319.367)" fill="#05090b"/>
      <path id="Shape" d="M0,42.7C0,20.514,17.186,2.216,38.259.554V13.863A28.282,28.282,0,0,0,13.309,42.137c0,15.529,13.3,28.279,28.828,28.279,7.211,0,14.416-2.216,19.407-7.206l9.98,9.426c-7.206,7.76-17.74,12.2-29.387,12.2A42.121,42.121,0,0,1,0,42.7Zm65.979,14.97c.554,0,.554-.559,1.108-1.113a1.708,1.708,0,0,1,.559-1.108v-.554c.554-.554.554-1.662,1.108-2.775a2.035,2.035,0,0,1,.554-1.662,7.055,7.055,0,0,1,.554-3.328,2.035,2.035,0,0,0,.554-1.662H84.832v1.662c-.554,0-.554.559-.554,1.113a1.934,1.934,0,0,0-.554,1.108,6.023,6.023,0,0,1-.554,2.77,1.955,1.955,0,0,0-.554,1.113A19.476,19.476,0,0,0,80.4,58.22a2.035,2.035,0,0,1-.554,1.662,22.309,22.309,0,0,1-2.775,4.99c-.554.554-.554,1.108-1.108,1.662Zm4.436-19.96a28.263,28.263,0,0,0-24.951-24.4V0C65.979,1.662,82.616,17.745,84.278,37.705Z" transform="translate(54.337 347.645)" fill="#212425"/>
      <path id="Path-15" data-name="Path" d="M38.258,37.7H24.951A27.724,27.724,0,0,0,0,13.307V0C19.96,1.109,36.594,17.188,38.258,37.7Z" transform="translate(100.357 348.199)" fill="#acd3f7"/>
      <path id="Path-16" data-name="Path" d="M18.3,0V1.663c0,.554,0,1.109-.554,1.109,0,.554,0,1.109-.554,1.109a6.029,6.029,0,0,0-.554,2.772,1.936,1.936,0,0,1-.554,1.109,19.7,19.7,0,0,1-2.218,4.99,2.037,2.037,0,0,0-.554,1.663,22.474,22.474,0,0,1-2.772,4.99c-.554.554-.554,1.109-1.109,1.663L0,12.2c.554-.554.554-1.109,1.109-1.109A1.717,1.717,0,0,0,1.663,9.98V9.426A9.368,9.368,0,0,0,2.772,6.653,2.037,2.037,0,0,0,3.327,4.99a7.032,7.032,0,0,0,.554-3.327c0-.554.554-1.109.554-1.663Z" transform="translate(120.317 393.11)" fill="#5b5f75"/>
      <path id="Shape-2" data-name="Shape" d="M69.892,44.911a5.018,5.018,0,0,1,.554-2.775L43.828,15.524A5.939,5.939,0,0,1,40.5,16.632c-1.113,0-1.667-.554-3.328-1.108L15.554,37.705a7.873,7.873,0,0,1,1.108,3.323,8.529,8.529,0,0,1-8.319,8.319A8.552,8.552,0,0,1,0,41.029a8.17,8.17,0,0,1,8.343-8.314,7.045,7.045,0,0,1,3.328.554L34.4,11.642a7.025,7.025,0,0,1-.554-3.323A8.529,8.529,0,0,1,42.166,0a8.168,8.168,0,0,1,8.319,8.319,6,6,0,0,1-.554,3.323L76.543,38.259a10.277,10.277,0,0,1,3.882-1.113A10.279,10.279,0,0,1,84.3,38.259L113.69,8.872a38.208,38.208,0,0,1,1.113,7.206L85.97,42.137a5.018,5.018,0,0,1,.554,2.775,8.316,8.316,0,1,1-16.632,0Z" transform="translate(411.407 222.337)" fill="#5b5f75"/>
      <path id="Path-17" data-name="Path" d="M9.426,45.465H1.663A2.5,2.5,0,0,1,0,43.8V1.663A1.47,1.47,0,0,1,1.663,0H9.426a2.5,2.5,0,0,1,1.663,1.663V43.8C10.535,44.357,9.98,45.465,9.426,45.465Z" transform="translate(226.773 219.565)" fill="#31383f"/>
      <path id="Path-18" data-name="Path" d="M9.98,21.624H1.109A1.193,1.193,0,0,1,0,20.515V1.109C0,0,.554,0,1.109,0H9.98a1.193,1.193,0,0,1,1.109,1.109V20.515A1.193,1.193,0,0,1,9.98,21.624Z" transform="translate(230.654 243.407)" fill="#5b5f75"/>
      <path id="Path-19" data-name="Path" d="M9.426,32.713H1.663A2.5,2.5,0,0,1,0,31.05V1.663A1.47,1.47,0,0,1,1.663,0H9.426a2.5,2.5,0,0,1,1.663,1.663V31.05A2.5,2.5,0,0,1,9.426,32.713Z" transform="translate(246.733 232.318)" fill="#31383f"/>
      <path id="Path-20" data-name="Path" d="M9.426,22.178H1.663A2.5,2.5,0,0,1,0,20.515V1.663A1.47,1.47,0,0,1,1.663,0H9.426a2.5,2.5,0,0,1,1.663,1.663v18.3A2.475,2.475,0,0,1,9.426,22.178Z" transform="translate(266.694 242.852)" fill="#31383f"/>
      <path id="Path-21" data-name="Path" d="M9.426,38.258H1.663A2.5,2.5,0,0,1,0,36.594V1.663A1.47,1.47,0,0,1,1.663,0H9.426a2.5,2.5,0,0,1,1.663,1.663V36.594A1.77,1.77,0,0,1,9.426,38.258Z" transform="translate(286.654 226.773)" fill="#31383f"/>
      <path id="Path-22" data-name="Path" d="M9.426,24.4H1.663A2.5,2.5,0,0,1,0,22.733V1.663A1.47,1.47,0,0,1,1.663,0H9.426a2.5,2.5,0,0,1,1.663,1.663V22.733A1.77,1.77,0,0,1,9.426,24.4Z" transform="translate(307.169 240.634)" fill="#31383f"/>
      <path id="Path-23" data-name="Path" d="M9.426,32.713H1.663A2.5,2.5,0,0,1,0,31.05V1.663A1.47,1.47,0,0,1,1.663,0H9.426a2.5,2.5,0,0,1,1.663,1.663V31.05A1.77,1.77,0,0,1,9.426,32.713Z" transform="translate(327.13 232.318)" fill="#31383f"/>
      <path id="Path-24" data-name="Path" d="M9.426,22.178H1.663A2.5,2.5,0,0,1,0,20.515V1.663A1.47,1.47,0,0,1,1.663,0H9.426a2.5,2.5,0,0,1,1.663,1.663v18.3C10.535,21.069,9.98,22.178,9.426,22.178Z" transform="translate(347.645 242.852)" fill="#31383f"/>
      <path id="Path-25" data-name="Path" d="M9.98,13.861H.554C0,13.861,0,13.307,0,12.753V1.109A1.936,1.936,0,0,1,.554,0H9.98c.554,0,.554.554.554,1.109V12.753C11.089,13.307,10.535,13.861,9.98,13.861Z" transform="translate(250.615 251.169)" fill="#5b5f75"/>
      <path id="Path-26" data-name="Path" d="M9.98,7.762H.554C0,7.762,0,7.208,0,6.653V1.109A1.936,1.936,0,0,1,.554,0H9.98c.554,0,.554.554.554,1.109V6.653C10.535,7.208,10.535,7.762,9.98,7.762Z" transform="translate(271.13 257.268)" fill="#5b5f75"/>
      <path id="Path-27" data-name="Path" d="M9.98,10.535H.554C0,10.535,0,9.98,0,9.426V1.109A1.936,1.936,0,0,1,.554,0H9.98c.554,0,.554.554.554,1.109V9.426C11.089,9.98,11.089,10.535,9.98,10.535Z" transform="translate(291.09 254.496)" fill="#5b5f75"/>
      <path id="Path-28" data-name="Path" d="M9.426,17.188H.554C0,17.188,0,16.634,0,16.079V1.109A1.936,1.936,0,0,1,.554,0H9.426c.554,0,.554.554.554,1.109v14.97C10.535,16.634,9.98,17.188,9.426,17.188Z" transform="translate(312.159 247.842)" fill="#5b5f75"/>
      <path id="Path-29" data-name="Path" d="M10.535,4.031H.554C0,4.031,0,4.031,0,3.477V.7C0,.15,0,.15.554.15h9.98c.554,0,.554,0,.554.554V2.922C11.089,3.477,11.089,4.031,10.535,4.031Z" transform="translate(332.12 260.999)" fill="#5b5f75"/>
      <path id="Path-30" data-name="Path" d="M10.535,2.518H.554A.543.543,0,0,1,0,1.963V.854A.543.543,0,0,1,.554.3h9.98a.543.543,0,0,1,.554.554l-.554,1.663Z" transform="translate(352.08 262.513)" fill="#5b5f75"/>
      <path id="Path-31" data-name="Path" d="M153.585,0H0V20.515H153.585Z" transform="translate(217.902 337.11)" fill="#31383f"/>
      <path id="Path-32" data-name="Path" d="M42.139,0H0V6.1H42.139Z" transform="translate(265.03 343.763)" fill="#5b5f75"/>
      <path id="Path-33" data-name="Path" d="M14.97,0H0V6.1H14.97Z" transform="translate(345.427 343.763)" fill="#d6dce8"/>
      <path id="Path-34" data-name="Path" d="M153.585,0H0V20.515H153.585Z" transform="translate(217.902 375.922)" fill="#31383f"/>
      <path id="Path-35" data-name="Path" d="M29.386,0H0V6.1H29.386Z" transform="translate(265.03 383.13)" fill="#5b5f75"/>
      <path id="Path-36" data-name="Path" d="M26.059,0H0V6.1H26.059Z" transform="translate(334.338 383.13)" fill="#d6dce8"/>
      <path id="Path-37" data-name="Path" d="M153.585,0H0V20.515H153.585Z" transform="translate(217.902 415.288)" fill="#31383f"/>
      <path id="Path-38" data-name="Path" d="M48.792,0H0V6.1H48.792V0Z" transform="translate(265.03 422.496)" fill="#5b5f75"/>
      <path id="Path-39" data-name="Path" d="M8.317,0H0V6.1H8.317Z" transform="translate(352.08 422.496)" fill="#d6dce8"/>
      <path id="Path-40" data-name="Path" d="M26.059,8.317H2.772A2.97,2.97,0,0,1,0,5.545V2.772A2.97,2.97,0,0,1,2.772,0H26.059a2.97,2.97,0,0,1,2.772,2.772V5.545A2.97,2.97,0,0,1,26.059,8.317Z" transform="translate(26.059 114.773)" fill="#212425"/>
      <path id="Path-41" data-name="Path" d="M140.278,8.317H2.772A2.97,2.97,0,0,1,0,5.545V2.772A2.97,2.97,0,0,1,2.772,0H140.278a2.97,2.97,0,0,1,2.772,2.772V5.545A2.97,2.97,0,0,1,140.278,8.317Z" transform="translate(72.079 114.773)" fill="#31383f"/>
      <path id="Path-42" data-name="Path" d="M26.059,8.317H2.772A2.97,2.97,0,0,1,0,5.545V2.772A2.97,2.97,0,0,1,2.772,0H26.059a2.97,2.97,0,0,1,2.772,2.772V5.545A2.619,2.619,0,0,1,26.059,8.317Z" transform="translate(26.059 137.505)" fill="#212425"/>
      <path id="Path-43" data-name="Path" d="M76.515,5.545a2.97,2.97,0,0,1-2.772,2.772H2.772A2.97,2.97,0,0,1,0,5.545V2.772A2.97,2.97,0,0,1,2.772,0H73.743a2.97,2.97,0,0,1,2.772,2.772Z" transform="translate(72.079 137.505)" fill="#31383f"/>
      <path id="Path-44" data-name="Path" d="M148.594,92.04H0V0C7.762.554,15.525,1.109,22.733,3.327A17.873,17.873,0,0,1,30.5,7.762C31.6,8.871,31.6,9.426,31.6,9.98c1.109,2.772,3.327,4.436,7.208,4.99l3.327.554c6.653.554,11.644,4.436,12.2,8.871l1.109,7.762c7.208,1.663,7.762,1.663,14.416,3.327,1.109.554,1.109,0,1.663-.554a2.037,2.037,0,0,1,1.663-.554,3.334,3.334,0,0,0,2.218-.554c1.109-.554,2.218-.554,2.772.554,2.772,3.881,8.317,6.1,11.644,9.426,3.881,3.881,10.535,3.327,14.97,3.327a10.279,10.279,0,0,1,3.881,1.109c5.545,3.881,14.416,16.634,21.624,16.634a11.889,11.889,0,0,1,6.653,2.218C143.05,75.406,146.931,83.169,148.594,92.04Z" transform="translate(26.059 200.713)" fill="#31383f"/>
      <path id="Path-45" data-name="Path" d="M144.713,97.03c-1.663-8.317-5.545-14.97-11.644-22.178a6.462,6.462,0,0,0-3.881-1.109c-6.653,0-12.2-6.1-17.743-11.644a50.126,50.126,0,0,0-6.1-5.545A2.738,2.738,0,0,0,103.683,56h-2.772c-4.436,0-10.535-.554-14.97-4.436a12.074,12.074,0,0,0-4.99-3.881c-2.218-1.663-4.436-2.772-6.1-4.99H72.634a5.506,5.506,0,0,1-5.545.554l-3.327-1.109c-3.327-.554-4.99-1.109-10.535-2.218H51.565L50.456,29.386c0-2.772-3.881-4.99-8.317-5.545l-3.327-.554c-4.99-.554-9.426-3.327-10.535-7.762V14.97a11.5,11.5,0,0,0-5.545-3.327C14.97,8.871,7.208,8.317,0,8.317L.554,0C8.317.554,16.634,1.109,24.4,3.881a18.678,18.678,0,0,1,9.426,6.1,10.617,10.617,0,0,1,2.218,4.436q.832,1.663,3.327,1.663l3.327.554c8.871.554,14.97,6.1,16.079,12.753l.554,4.436c3.327.554,4.99,1.109,7.762,1.663l3.327.554a7.881,7.881,0,0,1,3.327-1.109h1.109a6.857,6.857,0,0,1,7.762,2.218A39.094,39.094,0,0,0,87.6,41.03c2.218,1.663,4.436,2.772,6.1,4.99,1.663,1.663,5.545,1.663,9.426,2.218H105.9c2.218,0,3.881,1.109,5.545,1.663l.554.554a39.387,39.387,0,0,1,7.208,6.653c3.327,3.881,8.871,8.871,11.644,8.871a15.056,15.056,0,0,1,9.426,3.327c7.762,8.317,12.2,16.634,13.861,26.614Z" transform="translate(26.059 196.832)" fill="#acd3f7"/>
      <path id="Path-46" data-name="Path" d="M70.416,33.267H4.99A4.969,4.969,0,0,1,0,28.277V4.99A4.969,4.969,0,0,1,4.99,0H70.416a4.969,4.969,0,0,1,4.99,4.99V28.277A4.969,4.969,0,0,1,70.416,33.267Z" transform="translate(98.139 203.486)" fill="#5b5f75"/>
      <path id="Path-47" data-name="Path" d="M49.9.2H1.663A1.77,1.77,0,0,0,0,1.863,1.77,1.77,0,0,0,1.663,3.527H49.9a1.77,1.77,0,0,0,1.663-1.663A2.5,2.5,0,0,0,49.9.2Z" transform="translate(110.337 212.712)" fill="#1e2122"/>
      <path id="Path-48" data-name="Path" d="M27.723.2H1.663A1.77,1.77,0,0,0,0,1.863,2.5,2.5,0,0,0,1.663,3.527H27.723a1.77,1.77,0,0,0,1.663-1.663A2.5,2.5,0,0,0,27.723.2Z" transform="translate(109.782 223.801)" fill="#1e2122"/>
      <path id="Shape-3" data-name="Shape" d="M8.343,99.248C3.907,99.248,0,94.812,0,89.822V9.426C0,4.436,3.328,0,8.343,0h99.8c-.554,2.216-1.108,3.882-1.662,6.1h-6.1V23.289h.554A145.258,145.258,0,0,1,95.4,37.146v-7.76H54.362v18.3H90.406c-1.113,1.662-1.667,3.323-2.775,4.99H54.362V70.969H77.651a34.22,34.22,0,0,0-3.882,5.544H54.362V93.15h7.765c-1.662,2.216-3.328,3.877-4.99,6.1Z" transform="translate(411.407 338.219)" fill="#05090b"/>
      <path id="Path-49" data-name="Path" d="M28.832,57.664A28.832,28.832,0,1,0,0,28.832,28.838,28.838,0,0,0,28.832,57.664Z" transform="translate(6.653 0)" fill="none" stroke="#5b5f75" stroke-width="3"/>
      <path id="Path_947" data-name="Path 947" d="M16.863-108.374a4.776,4.776,0,0,1,4.775-4.775,4.775,4.775,0,0,1,4.775,4.775,4.774,4.774,0,0,1-4.775,4.775,4.775,4.775,0,0,1-4.775-4.775" transform="translate(501.961 167.029)" fill="#acd3f7"/>
    </g>
    <path id="Shape-4" data-name="Shape" d="M265.658,279.21a14.289,14.289,0,0,1-10.845-5.033L190.144,209.5l-2.326,1.548c-20.911,15.493-45.307,23.627-70.092,23.627-29.818,0-59.637-12.008-81.711-32.919A115.014,115.014,0,0,1,0,117.336,117.508,117.508,0,0,1,117.341,0c44.144,0,82.869,23.233,103.78,62.733,20.526,39.115,17.815,84.811-7.355,121.6l-1.548,2.322,65.059,65.059c6.581,6.586,5.033,13.167,3.87,16.652C278.051,274.561,271.855,279.21,265.658,279.21Z" transform="translate(1180.367 454.05)" fill="#1a1f20" stroke="#5b5f75" stroke-miterlimit="10" stroke-width="2"/>
    <path id="Shape-5" data-name="Shape" d="M19.685,90.821c.447-5.818,4.92-11.186,11.186-11.186A11.184,11.184,0,1,1,19.685,90.821Zm3.58-20.132a23.679,23.679,0,0,1-.447-5.818c0-7.606,3.129-14.314,11.182-20.132l6.712-4.92c4.026-3.133,5.818-6.712,5.818-11.186,0-6.261-4.477-12.526-13.871-12.526-9.841,0-14.314,8.053-14.314,15.659a13.8,13.8,0,0,0,.447,4.473l-17.9-.447A26.448,26.448,0,0,1,0,29.526C0,14.318,11.186,0,32.212,0,53.685,0,65.318,13.867,65.318,27.738c0,11.186-5.814,18.792-13.867,24.606l-5.818,4.026c-4.92,3.58-7.606,8.053-7.606,13.42v.9Z" transform="translate(1265.677 527.599)" fill="#5b5f75"/>
  </g>
</svg>
