<svg xmlns="http://www.w3.org/2000/svg" xmlns:xlink="http://www.w3.org/1999/xlink" width="217" height="170" viewBox="0 0 217 170">
  <defs>
    <clipPath id="clip-path">
      <rect id="Rectangle_674" data-name="Rectangle 674" width="217" height="170" fill="#fff"/>
    </clipPath>
  </defs>
  <g id="Group_526" data-name="Group 526" transform="translate(-2126 -191)">
    <g id="_22" data-name="22" transform="translate(2126 191)" clip-path="url(#clip-path)">
      <path id="Path_19515" data-name="Path 19515" d="M36.744,23.218c-.621.979.71,2.491,2.84,4.092a1.225,1.225,0,0,0,.355.267,1.223,1.223,0,0,0,.355.267c2.219,1.423,4.171,2.224,4.793,1.245.621-.889-.71-2.491-2.84-4.092a.461.461,0,0,0-.355-.178,1.225,1.225,0,0,0-.355-.267C39.406,23.04,37.365,22.329,36.744,23.218Z" fill="#31383f"/>
      <path id="Path_19516" data-name="Path 19516" d="M49.879,4.27c-1.154.267-.621,4.092.444,8.9.089.267.089.445.178.712s.089.445.177.712c1.154,4.8,2.4,8.362,3.461,8.184s.888-4.092-.177-8.9c-.089-.267-.089-.445-.178-.712s-.089-.445-.177-.712C52.453,7.473,50.944,3.914,49.879,4.27Z" fill="#31383f"/>
      <path id="Path_19517" data-name="Path 19517" d="M75.706.089c-.976-.623-4.171,3.114-7.9,8.362l-.533.8-.533.8C63.1,15.39,60.707,19.66,61.683,20.372c.888.623,4.171-3.113,7.9-8.362l.533-.8.533-.8C74.2,5.071,76.593.712,75.706.089Z" fill="#31383f"/>
      <path id="Path_19518" data-name="Path 19518" d="M56.979,46.97l-6.213-1.423-.621,3.113a41.477,41.477,0,0,1-1.6,13.255c-.178.534,1.864,1.512,4.526,2.135,55.382,12.009,89.818,19.482,129.579,28.111,2.751.623,5.059.623,5.236,0,1.243-5.515,4.083-11.565,3.373-17.525-.089-.623-4.882-1.157-7.544-1.69C141.56,64.5,99.225,55.866,56.979,46.97Z" fill="#5b5f75"/>
      <path id="Path_19519" data-name="Path 19519" d="M192.593,72.412q-.266,0-1.331,3.736c-.71,2.491-1.775,6.138-3.018,10.942-2.485,9.608-5.858,23.574-9.319,41.1-.177,1.067-.444,2.224-.621,3.291a11.559,11.559,0,0,1-.355,1.69,6.972,6.972,0,0,1-.444,1.246,3.717,3.717,0,0,1-2.041,1.6,3.445,3.445,0,0,1-1.332.178,1.952,1.952,0,0,1-.71-.089l-.887-.178c-4.793-.89-9.763-1.779-15-2.758q-15.576-2.8-33.282-6.138c-23.52-4.27-49.613-8.985-77.215-13.966-1.42-.267-2.751-.534-4.171-.712l-1.065-.178a3.831,3.831,0,0,1-.444-.089A.532.532,0,0,1,41,112a3.48,3.48,0,0,1-1.243-.712,3.271,3.271,0,0,1-1.154-2.4,1.964,1.964,0,0,1,.089-.712l.178-.979.444-2.046c1.065-5.426,2.219-10.942,3.372-16.457q4.393-20.683,9.319-39.765c.8-3.2,1.6-6.316,2.4-9.43.444-1.512.8-3.114,1.243-4.626.177-.8.444-1.512.621-2.313l.266-1.156a7.243,7.243,0,0,1,.266-.979,3.758,3.758,0,0,1,2.219-2.135,3.253,3.253,0,0,1,1.6-.089l.444.089.533.178,1.154.267c2.929.8,5.858,1.512,8.786,2.313C94.7,37.1,115.467,42.078,132.863,45.992s31.418,6.85,41.092,8.718c4.881.89,8.609,1.6,11.183,2.046a16.238,16.238,0,0,0,3.9.445,17.193,17.193,0,0,0-3.728-1.156c-2.485-.623-6.212-1.512-11.005-2.669-9.585-2.224-23.519-5.515-40.826-9.7S95.5,34.338,72.422,28.111q-4.26-1.2-8.786-2.4l-1.154-.267-.533-.178c-.177-.089-.444-.089-.71-.178a6.941,6.941,0,0,0-3.018.178,6.649,6.649,0,0,0-4.349,4.092c-.177.534-.266.89-.355,1.245l-.355,1.156c-.178.8-.444,1.512-.621,2.313-.444,1.512-.8,3.113-1.243,4.626-.8,3.114-1.686,6.227-2.485,9.43C45.53,60.848,42.335,74.192,39.406,87.98c-1.154,5.6-2.308,11.031-3.373,16.547l-.444,2.046-.177,1.067a7.213,7.213,0,0,0-.089,1.423,6.75,6.75,0,0,0,2.308,4.893,6.385,6.385,0,0,0,2.4,1.335c.177.089.444.088.71.177a1.316,1.316,0,0,0,.533.089l1.065.178c1.42.267,2.751.534,4.171.712,27.691,4.893,53.7,9.519,77.3,13.7,11.8,2.046,22.9,4,33.282,5.782,5.236.89,10.207,1.779,15,2.58l.888.178a4.309,4.309,0,0,0,1.065.089,6.113,6.113,0,0,0,2.219-.356,6.881,6.881,0,0,0,3.372-2.758,8.19,8.19,0,0,0,.8-2.046c.089-.534.177-1.156.266-1.69.178-1.157.444-2.224.621-3.292,3.2-17.525,6.213-31.58,8.254-41.188,1.065-4.8,1.864-8.54,2.4-11.12A17.337,17.337,0,0,0,192.593,72.412Z" fill="#31383f"/>
      <path id="Path_19520" data-name="Path 19520" d="M14.2,83.71l-6.124-.445V98.121q1.6,31.225,1.154,62.449a5.02,5.02,0,0,0,4.7,5.16l127,2.669a4.915,4.915,0,0,0,4.882-5.071q.132-39.9-2.574-79.618A4.946,4.946,0,0,0,138.1,79Q76.327,83.132,14.2,83.71Z" fill="#acd3f7"/>
      <path id="Path_19521" data-name="Path 19521" d="M.266,98.033c-.178,0-.178,1.334-.178,3.914s.089,6.4.178,11.386c.178,9.875.355,24.2.089,42.078,0,1.156,0,2.224-.089,3.38v1.779a5.989,5.989,0,0,0,.355,2.135,5.78,5.78,0,0,0,2.751,3.381,7.538,7.538,0,0,0,2.13.8,4.677,4.677,0,0,0,1.065.089h.888c4.881.089,9.94.267,15.265.356q15.842.4,33.815.8c23.874.534,50.323,1.067,78.458,1.69,1.42,0,2.84.089,4.26.089h2.307a5.582,5.582,0,0,0,2.663-.89,6.855,6.855,0,0,0,3.284-4.358,6.989,6.989,0,0,0,.177-1.424v-3.2c0-5.6,0-11.209-.089-16.9-.266-14.145-.71-27.756-1.508-40.921-.178-3.292-.355-6.583-.622-9.786-.088-1.6-.177-3.2-.355-4.8-.088-.8-.088-1.6-.177-2.4l-.089-1.156a8.211,8.211,0,0,0-.089-1.334,6.733,6.733,0,0,0-3.461-4.8,8.45,8.45,0,0,0-2.929-.8h-1.242l-1.332.267c-3.017.178-6.035.356-9.052.623-23.786,1.512-45.087,2.491-62.926,3.2s-32.128,1.157-41.98,1.512c-4.881.178-8.7.356-11.272.445-2.574.178-3.905.267-3.905.445a16.744,16.744,0,0,0,3.905.356c2.574.089,6.39.178,11.36.178,9.851.089,24.141-.089,41.98-.445,17.839-.445,39.14-1.245,63.014-2.58l9.053-.534,1.154-.089h.976a2.99,2.99,0,0,1,1.509.445,3.429,3.429,0,0,1,1.775,2.491c0,.178.089.623.089,1.068l.088,1.156c.089.8.089,1.6.178,2.4q.133,2.4.266,4.8c.178,3.2.355,6.494.533,9.7.71,13.077,1.153,26.777,1.331,40.832.089,5.694.089,11.209.089,16.814v3.024a1.96,1.96,0,0,1-.089.712,3.249,3.249,0,0,1-1.6,2.135,3.91,3.91,0,0,1-1.331.445h-1.953c-1.42,0-2.84-.089-4.26-.089-28.045-.534-54.582-.979-78.457-1.424q-17.972-.267-33.815-.533c-5.236-.089-10.384-.178-15.265-.178H6.3a1.949,1.949,0,0,1-.71-.089,5.123,5.123,0,0,1-1.243-.445,4.023,4.023,0,0,1-1.686-1.957A3.5,3.5,0,0,1,2.4,160.57V155.5c0-17.881-.533-32.292-1.154-42.078-.266-4.892-.621-8.718-.8-11.3A14.166,14.166,0,0,0,.266,98.033Z" fill="#1b1b1b"/>
      <path id="Path_19522" data-name="Path 19522" d="M.266,98.033c-.178,0-.178,1.334-.178,3.914s.089,6.4.178,11.386c.178,9.875.355,24.2.089,42.078,0,1.156,0,2.224-.089,3.38v1.779a5.989,5.989,0,0,0,.355,2.135,5.78,5.78,0,0,0,2.751,3.381,7.538,7.538,0,0,0,2.13.8,4.677,4.677,0,0,0,1.065.089h.888c4.881.089,9.94.267,15.265.356q15.842.4,33.815.8c23.874.534,50.323,1.067,78.458,1.69,1.42,0,2.84.089,4.26.089h2.307a5.582,5.582,0,0,0,2.663-.89,6.855,6.855,0,0,0,3.284-4.358,6.989,6.989,0,0,0,.177-1.424v-3.2c0-5.6,0-11.209-.089-16.9-.266-14.145-.71-27.756-1.508-40.921-.178-3.292-.355-6.583-.622-9.786-.088-1.6-.177-3.2-.355-4.8-.088-.8-.088-1.6-.177-2.4l-.089-1.156a8.211,8.211,0,0,0-.089-1.334,6.733,6.733,0,0,0-3.461-4.8,8.45,8.45,0,0,0-2.929-.8h-1.242l-1.154.089c-3.018.178-6.035.356-9.053.623-23.963,1.69-45.264,2.669-63.014,3.38-17.839.712-32.128,1.157-41.98,1.512-4.881.178-8.7.356-11.272.445-2.574.178-3.905.267-3.905.445a16.744,16.744,0,0,0,3.905.356c2.574.089,6.39.178,11.36.178,9.852.089,24.141-.089,41.98-.445C81.83,83.265,103.13,82.465,127,81.13l9.053-.534,1.153-.089h.977a2.99,2.99,0,0,1,1.509.445,3.429,3.429,0,0,1,1.775,2.491c0,.178.088.623.088,1.068l.089,1.156c.089.8.089,1.6.178,2.4q.132,2.4.266,4.8c.177,3.2.355,6.494.532,9.7.71,13.077,1.154,26.777,1.332,40.832.088,5.694.088,11.209.088,16.814v3.024a1.981,1.981,0,0,1-.088.712,3.249,3.249,0,0,1-1.6,2.135,3.917,3.917,0,0,1-1.331.445h-1.953c-1.42,0-2.84-.089-4.26-.089-28.046-.534-54.583-.979-78.457-1.424q-17.972-.267-33.815-.533c-5.236-.089-10.384-.178-15.265-.178H6.39a1.949,1.949,0,0,1-.71-.089,5.123,5.123,0,0,1-1.243-.445,4.023,4.023,0,0,1-1.686-1.957,3.5,3.5,0,0,1-.266-1.246V155.5c0-17.881-.533-32.292-1.154-42.078-.266-4.892-.621-8.718-.8-11.3C.621,99.367.355,98.033.266,98.033Z" fill="#31383f"/>
      <path id="Path_19523" data-name="Path 19523" d="M25.561,145.714c0-1.156-2.219-1.69-5.148-1.779h-.887c-2.929,0-5.236.445-5.236,1.6,0,1.068,2.219,1.691,5.148,1.779h.888C23.342,147.315,25.561,146.782,25.561,145.714Z" fill="#31383f"/>
      <path id="Path_19524" data-name="Path 19524" d="M43.311,144.469c-.089-1.156-2.84-1.423-6.3-1.245H35.945c-3.461.266-6.124.711-6.124,1.957,0,1.067,2.751,1.6,6.3,1.512h1.065C40.737,146.337,43.4,145.537,43.311,144.469Z" fill="#31383f"/>
      <path id="Path_19525" data-name="Path 19525" d="M62.57,144.736c0-1.157-2.84-1.6-6.39-1.6H55.115c-3.639.178-6.39.623-6.39,1.868,0,1.068,2.84,1.6,6.39,1.6H56.18C59.819,146.337,62.57,145.714,62.57,144.736Z" fill="#31383f"/>
      <path id="Path_19526" data-name="Path 19526" d="M82.007,145.359c0-1.157-3.018-1.6-7.011-1.691H73.753c-3.905.089-7.012.534-7.012,1.691,0,1.067,3.018,1.6,7.012,1.69H75C78.99,146.96,82.007,146.426,82.007,145.359Z" fill="#31383f"/>
      <path id="Path_19527" data-name="Path 19527" d="M14.733,103.993a100.423,100.423,0,0,0,19.348-.8,3.146,3.146,0,0,1,3.55,2.847l.621,7.294a3.105,3.105,0,0,1-2.84,3.381c-5.858.445-11.627.711-17.484.711a3.057,3.057,0,0,1-3.106-3.38,55.831,55.831,0,0,0-.266-9.43" fill="#31383f"/>
      <path id="Path_19528" data-name="Path 19528" d="M20.147,114.49a2.931,2.931,0,0,0,1.154.622,3.907,3.907,0,0,0,3.55-.711c.71-.445,2.307-1.424,2.041-2.491a3.823,3.823,0,0,0-1.686-1.868c-1.6-1.335-4.615-2.491-6.213-.445C17.75,111.109,18.638,113.333,20.147,114.49Z" fill="#fff"/>
      <path id="Path_19529" data-name="Path 19529" d="M20.147,114.49s-.177-.178-.532-.623a2.068,2.068,0,0,1-.355-.89,2.934,2.934,0,0,1,0-1.245,1.574,1.574,0,0,1,.621-.979,2.1,2.1,0,0,1,.8-.533c.266-.089.532-.089.976-.178a5.448,5.448,0,0,1,1.6.267c.266.089.444.178.71.267a3.074,3.074,0,0,1,.71.444l.8.534a2,2,0,0,1,.444.445H26v.178a5.042,5.042,0,0,1-.355.622,14.754,14.754,0,0,1-1.243,1.157,4.884,4.884,0,0,1-1.243.8,2.873,2.873,0,0,1-2.13,0c-.621-.089-.888-.356-.888-.267a1.888,1.888,0,0,0,.71.533,3.915,3.915,0,0,0,2.308.445,5.716,5.716,0,0,0,1.686-.356,8.228,8.228,0,0,0,1.775-.889,8.027,8.027,0,0,0,.976-.89,1.679,1.679,0,0,0,.355-.8,2.174,2.174,0,0,0,0-1.068,3.79,3.79,0,0,0-.8-1.334c-.266-.356-.621-.623-.888-.979a5.8,5.8,0,0,1-.8-.711c-.266-.178-.621-.445-.888-.623a6.858,6.858,0,0,0-2.663-.979,4.153,4.153,0,0,0-3.018.712,3.3,3.3,0,0,0-1.42,2.313A3.214,3.214,0,0,0,17.839,112a5,5,0,0,0,.888,1.245,5.747,5.747,0,0,0,.8.712A4.6,4.6,0,0,0,20.147,114.49Z" fill="#fff"/>
      <path id="Path_19530" data-name="Path 19530" d="M192.682,82.02c11.519,0,20.857-9.041,20.857-20.194S204.2,41.633,192.682,41.633s-20.857,9.041-20.857,20.194S181.163,82.02,192.682,82.02Z" fill="#5b5f75"/>
      <path id="Path_19531" data-name="Path 19531" d="M202,38.252c.089-.178-1.243-1.334-4.26-2.224a17.893,17.893,0,0,0-5.681-.623,20.6,20.6,0,0,0-7.455,1.779,22.814,22.814,0,0,0-7.544,5.6,26.293,26.293,0,0,0-5.5,9.341,24.007,24.007,0,0,0-.977,12.1,19.744,19.744,0,0,0,2.042,6.227,21.584,21.584,0,0,0,3.816,5.6,19.724,19.724,0,0,0,4.171,3.558,22.945,22.945,0,0,0,4.882,2.491,23.271,23.271,0,0,0,23.963-4.626,21.093,21.093,0,0,0,3.728-4.27c.443-.8.976-1.512,1.331-2.313s.8-1.6,1.065-2.4A23.531,23.531,0,0,0,217,59.157a22.619,22.619,0,0,0-1.686-7.472,19.859,19.859,0,0,0-2.752-4.982c-1.863-2.491-3.284-3.469-3.461-3.291s.8,1.512,2.219,4.092a25.2,25.2,0,0,1,3.106,11.743,21.3,21.3,0,0,1-1.6,8.184,21.579,21.579,0,0,1-.977,2.046c-.355.712-.8,1.334-1.242,2.046a25.47,25.47,0,0,1-3.284,3.647,20.088,20.088,0,0,1-9.408,4.715A20.415,20.415,0,0,1,186.647,79a23.065,23.065,0,0,1-4.172-2.135,21.042,21.042,0,0,1-6.834-7.917,19.889,19.889,0,0,1-1.775-5.338,22.308,22.308,0,0,1,.71-10.586,25.135,25.135,0,0,1,4.7-8.451,21.891,21.891,0,0,1,6.479-5.249,20.139,20.139,0,0,1,11.8-2.046C200.4,37.9,201.912,38.519,202,38.252Z" fill="#31383f"/>
      <path id="Path_19532" data-name="Path 19532" d="M13.757,60.848a10.324,10.324,0,1,0,0-20.638,10.324,10.324,0,1,0,0,20.638Z" fill="#acd3f7"/>
      <path id="Path_19533" data-name="Path 19533" d="M18.549,38.43c.089-.267-.532-.89-2.13-1.512a10.074,10.074,0,0,0-7.1.445A13.868,13.868,0,0,0,2.13,45.28a13.519,13.519,0,0,0-.621,6.583,12.81,12.81,0,0,0,3.2,6.494,11.734,11.734,0,0,0,2.308,1.957,9.349,9.349,0,0,0,2.663,1.334,13.325,13.325,0,0,0,7.189.534,12.063,12.063,0,0,0,5.858-3.114A11.917,11.917,0,0,0,26,54.087a12.986,12.986,0,0,0,.71-5.071,11.985,11.985,0,0,0-2.574-6.583c-1.065-1.245-1.864-1.69-2.041-1.512s.266.889.888,2.224a13.976,13.976,0,0,1,1.331,5.871,10.823,10.823,0,0,1-.888,3.914,10.429,10.429,0,0,1-2.663,3.647A11.007,11.007,0,0,1,16.33,58.8a9.943,9.943,0,0,1-5.325-.445,13.351,13.351,0,0,1-1.953-.979,12.99,12.99,0,0,1-1.686-1.423,9.23,9.23,0,0,1-2.4-4.715,10.426,10.426,0,0,1,.266-4.982,11.388,11.388,0,0,1,5.236-6.672,10.788,10.788,0,0,1,5.68-1.245C17.662,38.519,18.461,38.7,18.549,38.43Z" fill="#31383f"/>
      <path id="Path_19534" data-name="Path 19534" d="M194.723,48.127c-1.154.089-1.242,4.537-1.686,10.141a3.335,3.335,0,0,1-.089.89c0,.267-.089.534-.089.89-.355,5.693-.976,10.052.178,10.319.976.267,2.662-4.092,3.195-10.052a3.025,3.025,0,0,1,.089-.89,3.058,3.058,0,0,1,.088-.89C196.764,52.486,195.788,48.038,194.723,48.127Z" fill="#31383f"/>
      <path id="Path_19535" data-name="Path 19535" d="M204.575,60.047c.088-1.156-4.172-1.957-9.852-2.491a2.455,2.455,0,0,1-.8-.089c-.266,0-.532-.089-.8-.089-5.681-.356-10.03-.178-10.118.979-.089,1.068,4.171,1.957,9.851,2.491a2.452,2.452,0,0,1,.8.089c.266,0,.533.089.8.089C200.137,61.292,204.486,61.114,204.575,60.047Z" fill="#31383f"/>
      <path id="Path_19536" data-name="Path 19536" d="M10.65,52.13q-.266.133-.266.8a3.635,3.635,0,0,0,.8,1.779,3.444,3.444,0,0,0,1.242.889,4.213,4.213,0,0,0,1.6.445,6.538,6.538,0,0,0,1.864,0,3.474,3.474,0,0,0,2.308-1.423,3.95,3.95,0,0,0,.621-3.113,3.677,3.677,0,0,0-.8-1.69,3.387,3.387,0,0,0-1.509-1.068c-.533-.178-.976-.267-1.331-.356s-.71-.089-1.065-.178-.621-.089-.976-.178l-.177-.089-.089-.089c-.089-.089,0-.356,0-.534a1.644,1.644,0,0,1,.444-1.068,4.1,4.1,0,0,1,.621-.623c.355-.267.976-.089,1.42.089s.888.356,1.154.178c.177-.178.266-.534-.089-1.156a2.3,2.3,0,0,0-.888-.979,2.932,2.932,0,0,0-2.041-.534A4.52,4.52,0,0,0,9.763,46.7a5.277,5.277,0,0,0-.089,1.69,3.57,3.57,0,0,0,.888,1.957,5.389,5.389,0,0,0,.888.623,1.259,1.259,0,0,0,.532.178l.355.089a7.982,7.982,0,0,0,1.42.267c.266,0,.621.089.887.089.266.089.444.089.533.178.177.089.177.089.266.089a.311.311,0,0,1,.089.178,1.456,1.456,0,0,1,0,.623.615.615,0,0,1-.355.267,4.448,4.448,0,0,1-1.065.178h-.976a1.67,1.67,0,0,1-.71-.178,13.127,13.127,0,0,1-1.154-.712A.428.428,0,0,0,10.65,52.13Z" fill="#31383f"/>
      <path id="Path_19537" data-name="Path 19537" d="M13.49,57.2c.621-.089.8-.979.976-2.224.178-1.334.266-3.025.355-5.16V48.571a26.083,26.083,0,0,0-.177-5.426c-.266-1.423-.71-2.224-1.331-2.135-.532,0-.887.8-1.154,2.135a47.321,47.321,0,0,0-.71,5.249v1.245a20,20,0,0,0,.533,5.515C12.337,56.489,12.958,57.289,13.49,57.2Z" transform="translate(1)" fill="#31383f"/>
      <path id="Path_19538" data-name="Path 19538" d="M15.265,57.2c.621-.089.8-.979.976-2.224.178-1.334.266-3.025.355-5.16V48.571a26.069,26.069,0,0,0-.177-5.426c-.266-1.423-.71-2.224-1.331-2.135-.533,0-.887.8-1.154,2.135a47.345,47.345,0,0,0-.71,5.249v1.245a20,20,0,0,0,.533,5.515C14.112,56.489,14.733,57.289,15.265,57.2Z" transform="translate(-1)" fill="#31383f"/>
    </g>
  </g>
</svg>
