<svg xmlns="http://www.w3.org/2000/svg" xmlns:xlink="http://www.w3.org/1999/xlink" width="120" height="92" viewBox="0 0 120 92">
  <defs>
    <clipPath id="clip-path">
      <rect id="Rectangle_33" data-name="Rectangle 33" width="120" height="92" fill="#fff"/>
    </clipPath>
    <clipPath id="clip-path-2">
      <rect id="Rectangle_29" data-name="Rectangle 29" width="16" height="16" transform="translate(0.291 0.019)" fill="#fff"/>
    </clipPath>
    <clipPath id="clip-path-3">
      <rect id="Rectangle_30" data-name="Rectangle 30" width="16" height="16" transform="translate(0.291 0.243)" fill="#fff"/>
    </clipPath>
  </defs>
  <g id="Mask_Group_12" data-name="Mask Group 12" clip-path="url(#clip-path)">
    <g id="Group_22" data-name="Group 22" transform="translate(-488 -702)">
      <g id="Group_427318762" data-name="Group 427318762" transform="translate(488 707)">
        <path id="Path_207" data-name="Path 207" d="M116.5,82.718H3.5a3.5,3.5,0,0,1-3.5-3.5V3.5A3.5,3.5,0,0,1,3.5,0H116.5A3.5,3.5,0,0,1,120,3.5V79.223A3.5,3.5,0,0,1,116.5,82.718ZM3.5,2.33A1.166,1.166,0,0,0,2.33,3.5V79.223A1.166,1.166,0,0,0,3.5,80.388H116.5a1.166,1.166,0,0,0,1.165-1.165V3.5A1.166,1.166,0,0,0,116.5,2.33Z" fill="#242947"/>
        <path id="Path_208" data-name="Path 208" d="M118.587,38.33H1.5V36H118.587Z" transform="translate(0.248 5.942)" fill="#242947"/>
        <g id="Group_16" data-name="Group 16" transform="translate(17.476 14.54)">
          <rect id="Rectangle_26" data-name="Rectangle 26" width="43.252" height="20.411" rx="4.63" fill="#e3edff"/>
          <path id="Path_209" data-name="Path 209" d="M22.717,25.561l2.79-7.569h1.254l2.768,7.569H28.318l-.649-1.849H24.576l-.649,1.849ZM24.9,22.8h2.444l-1.222-3.449Z" transform="translate(-13.726 -11.571)" fill="#242947"/>
          <path id="Path_210" data-name="Path 210" d="M29.47,25.561V17.992h2.649a3.178,3.178,0,0,1,1.471.3,1.932,1.932,0,0,1,.865.811,2.281,2.281,0,0,1,.292,1.157,2.345,2.345,0,0,1-.281,1.135,1.944,1.944,0,0,1-.854.811,3.232,3.232,0,0,1-1.492.3h-1.5v3.049Zm1.146-3.99h1.449a1.6,1.6,0,0,0,1.157-.346,1.491,1.491,0,0,0,0-1.935,1.565,1.565,0,0,0-1.157-.357H30.616Z" transform="translate(-12.612 -11.571)" fill="#242947"/>
          <path id="Path_211" data-name="Path 211" d="M34.971,25.561V17.992h2.649a3.177,3.177,0,0,1,1.471.3,1.931,1.931,0,0,1,.865.811,2.28,2.28,0,0,1,.292,1.157,2.345,2.345,0,0,1-.281,1.135,1.945,1.945,0,0,1-.854.811,3.233,3.233,0,0,1-1.492.3h-1.5v3.049Zm1.146-3.99h1.449a1.6,1.6,0,0,0,1.157-.346,1.491,1.491,0,0,0,0-1.935,1.565,1.565,0,0,0-1.157-.357H36.118Z" transform="translate(-11.704 -11.571)" fill="#242947"/>
          <path id="Path_212" data-name="Path 212" d="M40.473,25.561V17.992h1.146v6.661h3.439v.908Z" transform="translate(-10.796 -11.571)" fill="#242947"/>
        </g>
        <g id="Group_17" data-name="Group 17" transform="translate(17.476 54.152)">
          <rect id="Rectangle_27" data-name="Rectangle 27" width="43.252" height="20.411" rx="4.63" fill="#e3edff"/>
          <path id="Path_213" data-name="Path 213" d="M21.865,59.561V51.992h1.352l2.563,5.039,2.552-5.039h1.352v7.569H28.537v-5.59L26.223,58.48h-.887l-2.325-4.5v5.58Z" transform="translate(-13.867 -45.571)" fill="#242947"/>
          <path id="Path_214" data-name="Path 214" d="M29.9,59.561V51.992h4.812v.93H31.042v2.357h3.341v.908H31.042v2.444h3.666v.93Z" transform="translate(-12.541 -45.571)" fill="#242947"/>
          <path id="Path_215" data-name="Path 215" d="M37.037,59.561V52.922H34.8v-.93h5.612v.93H38.184v6.639Z" transform="translate(-11.732 -45.571)" fill="#242947"/>
          <path id="Path_216" data-name="Path 216" d="M39.412,59.561l2.79-7.569h1.254l2.768,7.569H45.013l-.649-1.849H41.272l-.649,1.849ZM41.6,56.8H44.04l-1.222-3.449Z" transform="translate(-10.971 -45.571)" fill="#242947"/>
        </g>
        <g id="Group_18" data-name="Group 18" transform="translate(89.709 13.981)" clip-path="url(#clip-path-2)">
          <rect id="Rectangle_28" data-name="Rectangle 28" width="16" height="16" transform="translate(0.291 0.019)" fill="#fff"/>
          <path id="Path_217" data-name="Path 217" d="M86.137,14.148l1.2,2.412a1.478,1.478,0,0,0,.965.719l2.168.363c1.386.233,1.712,1.247.713,2.247l-1.685,1.7a1.5,1.5,0,0,0-.353,1.24l.482,2.1c.381,1.665-.5,2.309-1.957,1.439l-2.032-1.213a1.458,1.458,0,0,0-1.346,0l-2.032,1.213c-1.454.87-2.338.219-1.957-1.439l.482-2.1a1.5,1.5,0,0,0-.353-1.24l-1.685-1.7c-.992-1-.673-2.014.713-2.247l2.168-.363a1.481,1.481,0,0,0,.958-.719l1.2-2.412C84.431,12.839,85.491,12.839,86.137,14.148Z" transform="translate(-76.807 -11.807)" fill="#5b5f75"/>
          <path id="Path_217_-_Outline" data-name="Path 217 - Outline" d="M85.043,12.667c.394,0,1.138.17,1.7,1.306l1.2,2.411a.922.922,0,0,0,.54.4l2.167.363a2.041,2.041,0,0,1,1.709,1.232,1.935,1.935,0,0,1-.68,2l-1.684,1.7a.937.937,0,0,0-.2.7l.482,2.1a2.292,2.292,0,0,1-.256,2.024,1.4,1.4,0,0,1-1.123.515,2.886,2.886,0,0,1-1.444-.47l-2.032-1.213a.767.767,0,0,0-.372-.082.8.8,0,0,0-.381.084l-2.028,1.21a2.863,2.863,0,0,1-1.439.469,1.4,1.4,0,0,1-1.128-.518,2.285,2.285,0,0,1-.257-2.02l.482-2.1a.937.937,0,0,0-.2-.7l-1.685-1.7a2.053,2.053,0,0,1-.675-2,1.927,1.927,0,0,1,1.705-1.228l2.168-.363a.92.92,0,0,0,.53-.4l1.2-2.416A2.065,2.065,0,0,1,85.043,12.667Zm3.851,13.592c.151,0,.194-.054.212-.076a1.375,1.375,0,0,0,.031-1.038l-.482-2.1a2.087,2.087,0,0,1,.508-1.781l1.685-1.7c.309-.309.46-.625.4-.825s-.367-.367-.793-.438l-2.167-.363A2.066,2.066,0,0,1,86.892,16.9L85.7,14.489c-.239-.485-.5-.658-.655-.658s-.418.173-.66.659l-1.2,2.411a2.063,2.063,0,0,1-1.382,1.035l-2.17.363c-.423.071-.725.238-.789.436s.086.517.393.827l1.685,1.7a2.086,2.086,0,0,1,.508,1.777l-.483,2.107a1.364,1.364,0,0,0,.033,1.034c.019.024.063.079.216.079a1.725,1.725,0,0,0,.841-.3l2.032-1.213a1.946,1.946,0,0,1,.974-.247,1.914,1.914,0,0,1,.969.247l2.032,1.213A1.745,1.745,0,0,0,88.895,26.259Z" transform="translate(-76.89 -11.89)" fill="#5b5f75"/>
        </g>
        <g id="Group_19" data-name="Group 19" transform="translate(89.709 54.757)" clip-path="url(#clip-path-3)">
          <path id="Path_218" data-name="Path 218" d="M85.126,47.167A2.562,2.562,0,0,1,87.347,48.8l1.189,2.4a.465.465,0,0,0,.139.1l2.148.36a2.346,2.346,0,0,1,1.345,4.22L90.5,57.562a.459.459,0,0,0-.053.192l.478,2.083a2.839,2.839,0,0,1-.368,2.517,1.971,1.971,0,0,1-1.579.735,3.449,3.449,0,0,1-1.742-.552l-2.016-1.2a.366.366,0,0,0-.09-.01.372.372,0,0,0-.1.012l-2.012,1.2a3.426,3.426,0,0,1-1.737.551A1.976,1.976,0,0,1,79.7,62.35a2.833,2.833,0,0,1-.369-2.513l.478-2.083a.459.459,0,0,0-.053-.192l-1.673-1.687a2.347,2.347,0,0,1,1.348-4.217l2.143-.359a.476.476,0,0,0,.138-.1l1.19-2.4A2.574,2.574,0,0,1,85.126,47.167Zm1.326,5.071-1.194-2.407a1.647,1.647,0,0,0-.134-.229,1.638,1.638,0,0,0-.137.231l-1.193,2.4a2.623,2.623,0,0,1-1.808,1.355l-2.172.364a1.4,1.4,0,0,0-.256.065,1.423,1.423,0,0,0,.177.212l1.685,1.7a2.639,2.639,0,0,1,.663,2.313l0,.008-.482,2.1a2.384,2.384,0,0,0-.053.322,2.336,2.336,0,0,0,.276-.143l2.033-1.213.008,0a2.615,2.615,0,0,1,2.533,0l2.031,1.212a2.384,2.384,0,0,0,.277.144,2.436,2.436,0,0,0-.053-.322l-.482-2.1,0-.008a2.639,2.639,0,0,1,.663-2.313l1.685-1.7a1.456,1.456,0,0,0,.179-.212,1.413,1.413,0,0,0-.258-.066l-2.167-.363A2.624,2.624,0,0,1,86.452,52.238Z" transform="translate(-76.973 -46.972)" fill="#5b5f75"/>
        </g>
      </g>
    </g>
  </g>
</svg>
