<svg width="85" height="85" viewBox="0 0 85 85" fill="none" xmlns="http://www.w3.org/2000/svg">
<g clip-path="url(#clip0_425_11)">
<path d="M53.2233 6.42347V35.1609C53.2233 38.0342 50.8939 40.3619 48.0223 40.3619H36.2279C35.7732 40.3619 35.3275 40.4887 34.9408 40.7281L22.8489 48.2147C21.9033 48.8003 20.6821 48.1201 20.6821 47.0078V41.3578C20.6821 40.8078 20.2361 40.3619 19.6861 40.3619H5.20094C2.32854 40.3619 0 38.0333 0 35.1609V6.42347C0 3.5519 2.32771 1.22253 5.20094 1.22253H48.0223C50.8947 1.22253 53.2233 3.55107 53.2233 6.42347Z" fill="#9BE69D"/>
<path d="M10.5129 40.3619H5.20094C2.32937 40.3619 0 38.0342 0 35.1609V6.42347C0 3.5519 2.32771 1.22253 5.20094 1.22253H10.5129C7.63971 1.22253 5.312 3.5519 5.312 6.42347V35.1609C5.312 38.0342 7.64137 40.3619 10.5129 40.3619Z" fill="#6FD7A3"/>
<path d="M31.7769 41.7713V70.5087C31.7769 73.382 34.1062 75.7097 36.9778 75.7097H48.7722C49.2269 75.7097 49.6727 75.8365 50.0593 76.0759L62.1512 83.5625C63.0969 84.1481 64.3181 83.4679 64.3181 82.3556V76.7058C64.3181 76.1557 64.764 75.7098 65.314 75.7098H79.7994C82.6718 75.7098 85.0003 73.3813 85.0003 70.5089V41.7713C85.0003 38.8997 82.6726 36.5703 79.7994 36.5703H36.9778C34.1054 36.5705 31.7769 38.899 31.7769 41.7713Z" fill="#FE5694"/>
<path d="M42.2898 75.7097H36.9778C34.1062 75.7097 31.7769 73.382 31.7769 70.5087V41.7713C31.7769 38.8997 34.1046 36.5703 36.9778 36.5703H42.2898C39.4166 36.5703 37.0889 38.8997 37.0889 41.7713V70.5087C37.089 73.382 39.4184 75.7097 42.2898 75.7097Z" fill="#FD3581"/>
<path d="M79.285 67.5391L75.7781 54.2665C75.5119 53.2591 74.2549 52.9176 73.5154 53.6519L71.0719 56.0789L63.304 48.2576C62.022 46.9668 59.9536 46.9054 58.5971 48.1179L49.8136 55.9713L43.4985 48.3585C42.2922 46.9044 40.136 46.7036 38.682 47.9098C37.2281 49.1159 37.0272 51.2722 38.2333 52.7262L46.8147 63.071C47.4078 63.7862 48.2665 64.2291 49.193 64.2982C49.278 64.3045 49.3628 64.3076 49.4473 64.3076C50.2854 64.3076 51.0979 63.9995 51.7271 63.437L60.7372 55.3811L66.2179 60.8995L63.7736 63.327C63.0342 64.0612 63.3672 65.3206 64.3728 65.5937L77.6215 69.1911C78.6271 69.4642 79.5511 68.5465 79.285 67.5391Z" fill="#F5F8F9"/>
<path d="M47.5081 12.4704L44.0012 25.7431C43.7351 26.7504 42.478 27.0919 41.7386 26.3577L39.295 23.9307L31.5271 31.752C30.2452 33.0428 28.1768 33.1042 26.8203 31.8916L18.0367 24.0383L11.7216 31.6511C10.5154 33.1052 8.35916 33.3059 6.90519 32.0998C5.45123 30.8937 5.25035 28.7373 6.45645 27.2834L15.0378 16.9386C15.631 16.2234 16.4896 15.7805 17.4161 15.7114C17.5011 15.7051 17.586 15.7019 17.6705 15.7019C18.5085 15.7019 19.321 16.0101 19.9502 16.5725L28.9604 24.6284L34.441 19.1101L31.9968 16.6826C31.2574 15.9483 31.5902 14.6889 32.5959 14.4158L45.8447 10.8184C46.8502 10.5453 47.7743 11.4632 47.5081 12.4704Z" fill="#F5F8F9"/>
</g>
<defs>
<clipPath id="clip0_425_11">
<rect width="85" height="85" fill="white"/>
</clipPath>
</defs>
</svg>
