<svg width="86" height="86" viewBox="0 0 86 86" fill="none" xmlns="http://www.w3.org/2000/svg">
<g clip-path="url(#clip0_428_3437)">
<path d="M31.8745 54.1274L30.094 52.3452L23.9277 58.5115L25.7082 60.2936L27.4904 62.0742L33.6567 55.9079L31.8745 54.1274Z" fill="#D8E2F0"/>
<path d="M25.6997 60.2903L31.8643 54.124L33.6465 55.9062L27.4752 62.0725L25.6997 60.2903Z" fill="#C3D0E6"/>
<path d="M76.3973 9.60465C73.361 6.55799 69.7527 4.14114 65.7796 2.49289C61.8066 0.844642 57.5471 -0.00253439 53.2458 5.69501e-06C35.1837 5.69501e-06 20.4912 14.6942 20.4912 32.7546C20.4885 37.0557 21.3356 41.315 22.9839 45.2877C24.6322 49.2605 27.0491 52.8685 30.0958 55.9045C33.1318 58.9518 36.74 61.3692 40.7131 63.0178C44.6862 64.6663 48.9459 65.5135 53.2474 65.5108C71.3078 65.5108 86.002 50.8149 86.002 32.7562C86.0046 28.4549 85.1575 24.1953 83.5092 20.2223C81.861 16.2493 79.4441 12.641 76.3973 9.60465Z" fill="#7EACFA"/>
<path d="M86.002 32.7563C86.0047 28.4549 85.1575 24.1954 83.5093 20.2224C81.861 16.2493 79.4441 12.6411 76.3974 9.60474L30.0942 55.9062C33.1302 58.9536 36.7384 61.371 40.7115 63.0195C44.6846 64.6681 48.9443 65.5153 53.2458 65.5125C71.3062 65.5125 86.0004 50.8167 86.0004 32.758L86.002 32.7563Z" fill="#6C9DF8"/>
<path d="M72.8277 13.1656C70.2585 10.5879 67.2054 8.54309 63.8438 7.14852C60.4822 5.75395 56.8782 5.03708 53.2388 5.03907C37.9534 5.03907 25.5234 17.469 25.5234 32.7545C25.5217 36.3947 26.2394 39.9993 27.6352 43.3613C29.0309 46.7233 31.0773 49.7764 33.6566 52.345C36.2256 54.9231 39.2786 56.9682 42.6402 58.3628C46.0019 59.7574 49.6061 60.474 53.2455 60.4715C68.531 60.4715 80.9609 48.0416 80.9609 32.7561C80.9623 29.116 80.2446 25.5114 78.8488 22.1494C77.4531 18.7875 75.4069 15.7344 72.8277 13.1656Z" fill="white"/>
<path d="M80.9627 32.7561C80.9641 29.1158 80.2461 25.5111 78.8501 22.1491C77.454 18.7871 75.4074 15.7341 72.8278 13.1655L33.6567 52.345C36.2256 54.9231 39.2787 56.9682 42.6403 58.3628C46.002 59.7574 49.6061 60.474 53.2456 60.4715C68.5311 60.4715 80.961 48.0415 80.961 32.7561H80.9627Z" fill="#D9DFE8"/>
<path d="M65.7107 20.291C64.0763 18.6499 62.1336 17.348 59.9944 16.4601C57.8552 15.5722 55.5616 15.116 53.2455 15.1174C48.5697 15.1237 44.0873 16.9838 40.7811 20.2901C37.4748 23.5963 35.6146 28.0788 35.6084 32.7545C35.6071 35.0706 36.0635 37.3642 36.9513 39.5033C37.8392 41.6425 39.141 43.5852 40.7819 45.2197C42.4167 46.8602 44.3595 48.1616 46.4986 49.0491C48.6378 49.9367 50.9312 50.3929 53.2471 50.3916C57.923 50.3858 62.4057 48.5257 65.7121 45.2194C69.0184 41.9131 70.8784 37.4304 70.8842 32.7545C70.8856 30.4386 70.4292 28.1453 69.5413 26.0064C68.6535 23.8675 67.3517 21.9251 65.7107 20.291Z" fill="#6CE79A"/>
<path d="M70.8825 32.7562C70.8843 30.4402 70.4283 28.1466 69.5408 26.0074C68.6532 23.8682 67.3516 21.9255 65.7107 20.291L40.7803 45.2214C42.415 46.8619 44.3578 48.1633 46.4969 49.0509C48.6361 49.9384 50.9295 50.3946 53.2455 50.3933C57.9213 50.3875 62.404 48.5275 65.7104 45.2211C69.0167 41.9148 70.8768 37.4321 70.8825 32.7562Z" fill="#00D8A2"/>
<path d="M27.4903 58.5114L22.1454 53.1699L2.2105 73.1048C1.5086 73.8067 0.951824 74.64 0.571956 75.5571C0.192088 76.4742 -0.00341797 77.4571 -0.00341797 78.4497C-0.00341797 79.4423 0.192088 80.4253 0.571956 81.3423C0.951824 82.2594 1.5086 83.0927 2.2105 83.7946C3.62935 85.2097 5.55148 86.0044 7.55539 86.0044C9.55929 86.0044 11.4814 85.2097 12.9002 83.7946L32.8352 63.8597L27.4903 58.5114Z" fill="#7EACFA"/>
<path d="M12.8985 83.7913L32.8351 63.8563L27.4902 58.5115L2.21045 83.7913C3.62792 85.2083 5.55018 86.0044 7.55449 86.0044C9.5588 86.0044 11.481 85.2083 12.8985 83.7913Z" fill="#6C9DF8"/>
<path d="M60.8044 25.1975L59.024 23.4153L50.7261 31.7131L47.4675 28.4544L43.9048 32.0171L48.9439 37.0563L50.7261 38.8385L62.5816 26.978L60.8044 25.1975Z" fill="#EDF3F9"/>
<path d="M48.9355 37.0598L60.7944 25.2009L62.5749 26.9814L50.7177 38.8403L48.9355 37.0598Z" fill="#D8E2F0"/>
</g>
<defs>
<clipPath id="clip0_428_3437">
<rect width="86.0017" height="86" fill="white"/>
</clipPath>
</defs>
</svg>
