<svg width="73" height="85" viewBox="0 0 73 85" fill="none" xmlns="http://www.w3.org/2000/svg">
<g clip-path="url(#clip0_428_3485)">
<path d="M38.3401 84.9966C43.4647 84.9966 47.6191 80.7881 47.6191 75.5967C47.6191 70.4053 43.4647 66.1968 38.3401 66.1968C33.2154 66.1968 29.061 70.4053 29.061 75.5967C29.061 80.7881 33.2154 84.9966 38.3401 84.9966Z" fill="#FFE266"/>
<path d="M38.3582 66.1851C37.7782 66.187 37.1997 66.2437 36.63 66.3542C37.9793 66.6753 39.1819 67.4488 40.0428 68.5493C40.9036 69.6498 41.3721 71.0126 41.3722 72.4167C41.3722 74.0681 40.7246 75.6518 39.5719 76.8196C38.4192 77.9873 36.8559 78.6433 35.2257 78.6433C33.8397 78.6431 32.4944 78.1685 31.4081 77.2965C30.3217 76.4245 29.5582 75.2062 29.2412 73.8393C29.1321 74.4164 29.0762 75.0025 29.0742 75.59C29.0747 78.0834 30.0526 80.4744 31.7929 82.2375C33.5333 84.0005 35.8936 84.9912 38.3549 84.9916C40.8163 84.9916 43.1769 84.0011 44.9174 82.238C46.6578 80.4748 47.6356 78.0835 47.6356 75.59C47.6352 73.0967 46.6572 70.7056 44.9169 68.9426C43.1765 67.1796 40.8162 66.1889 38.3549 66.1884L38.3582 66.1851Z" fill="#EFAA66"/>
<path d="M63.4737 0.730716C62.8621 0.372512 62.1868 0.139944 61.4865 0.0463148C60.7861 -0.0473143 60.0744 -0.000164738 59.392 0.185059C58.7097 0.370282 58.07 0.68995 57.5097 1.12578C56.9494 1.56162 56.4794 2.10506 56.1266 2.72505L51.6699 10.5433C51.3165 11.1629 51.0871 11.847 50.9948 12.5564C50.9025 13.2659 50.9491 13.9868 51.1319 14.678C51.3148 15.3692 51.6302 16.0171 52.0604 16.5847C52.4905 17.1523 53.0267 17.6285 53.6386 17.9861C54.2503 18.3439 54.9255 18.5761 55.6258 18.6695C56.3261 18.7629 57.0376 18.7156 57.7199 18.5304C58.4021 18.3453 59.0417 18.0257 59.602 17.5902C60.1624 17.1546 60.6325 16.6115 60.9857 15.9918L65.4423 8.17351C65.7957 7.55392 66.0251 6.86986 66.1174 6.16042C66.2097 5.45099 66.1632 4.73007 65.9803 4.03888C65.7975 3.34769 65.482 2.69977 65.0519 2.13214C64.6218 1.56451 64.0855 1.0883 63.4737 0.730716Z" fill="#FFE266"/>
<path d="M60.9259 79.3705C57.2524 73.4653 69.8526 47.3293 70.0146 46.9961C76.8407 32.9816 71.5624 16.21 58.2225 9.54872C44.8825 2.88742 28.5369 8.83488 21.7141 22.8544C21.3652 23.5716 9.22408 49.7736 2.24268 50.0392L60.9259 79.3705Z" fill="#FFE266"/>
<path d="M58.2221 9.5488C56.7975 8.83511 55.3113 8.25529 53.7821 7.81665C60.9288 13.5679 63.31 24.0267 58.9585 32.953C58.895 33.0849 56.1666 38.7448 54.1044 44.5891C53.6238 45.9652 52.8611 47.2226 51.8663 48.2787C50.8716 49.3348 49.6674 50.1655 48.333 50.7163C46.9986 51.2671 45.5642 51.5254 44.1241 51.4743C42.6841 51.4232 41.271 51.0639 39.9779 50.4198L13.9759 37.4203C10.1237 43.8093 5.58691 49.9056 2.2373 50.0342L60.9238 79.3706C57.2503 73.4654 69.8505 47.3294 70.0125 46.9962C76.8403 32.9817 71.5621 16.2169 58.2221 9.5488Z" fill="#EFAA66"/>
<path d="M31.4621 23.8457C31.0661 23.8462 30.6822 23.7082 30.3751 23.4549C30.0191 23.1621 29.7922 22.7384 29.744 22.2764C29.6958 21.8145 29.8303 21.3521 30.1179 20.9904C31.7353 18.9649 33.6554 17.2082 35.8086 15.7838C36.1925 15.5294 36.6605 15.44 37.1095 15.5352C37.5586 15.6304 37.9519 15.9023 38.2031 16.2913C38.4541 16.6802 38.5424 17.1543 38.4485 17.6092C38.3545 18.0641 38.0861 18.4625 37.7021 18.7169C35.8509 19.9414 34.2002 21.4516 32.8096 23.1927C32.6474 23.3965 32.4422 23.5608 32.209 23.6735C31.9757 23.7863 31.7205 23.8445 31.4621 23.844V23.8457Z" fill="white"/>
<path d="M42.0235 16.4385C41.6592 16.4381 41.3043 16.3213 41.0093 16.1048C40.7143 15.8883 40.4943 15.583 40.3804 15.2324C40.2376 14.7905 40.2738 14.3093 40.481 13.8944C40.6883 13.4795 41.0497 13.165 41.4858 13.0199C42.1437 12.8017 42.8217 12.6105 43.4896 12.4515C43.7108 12.3991 43.9402 12.3914 44.1644 12.4288C44.3886 12.4663 44.6033 12.5481 44.7962 12.6698C44.9892 12.7914 45.1565 12.9503 45.2888 13.1375C45.421 13.3248 45.5155 13.5365 45.5668 13.7608C45.6186 13.9849 45.6262 14.2172 45.5892 14.4444C45.5522 14.6715 45.4715 14.889 45.3514 15.0845C45.2314 15.2799 45.0744 15.4495 44.8896 15.5834C44.7048 15.7174 44.4958 15.8131 44.2744 15.8651C43.6983 16.0021 43.1206 16.1645 42.5579 16.3522C42.3853 16.4092 42.205 16.4383 42.0235 16.4385Z" fill="white"/>
<path d="M56.1586 82.4644L2.35123 55.5689C1.85463 55.3207 1.41115 54.9758 1.04613 54.554C0.681116 54.1321 0.401724 53.6416 0.223872 53.1104C0.0460202 52.5791 -0.0267891 52.0176 0.00960394 51.4579C0.045997 50.8981 0.190884 50.3511 0.43598 49.8481L0.504427 49.7094C0.749286 49.2062 1.08963 48.7568 1.50598 48.3868C1.92232 48.0169 2.40651 47.7336 2.93093 47.5533C3.45535 47.373 4.0097 47.2991 4.56232 47.3358C5.11494 47.3726 5.65503 47.5193 6.15168 47.7675L59.9591 74.663C60.4557 74.9112 60.8991 75.2561 61.2641 75.6779C61.6292 76.0997 61.9086 76.5903 62.0864 77.1215C62.2643 77.6528 62.3371 78.2143 62.3007 78.774C62.2643 79.3338 62.1194 79.8808 61.8743 80.3838L61.8059 80.5242C61.5609 81.0273 61.2204 81.4765 60.804 81.8463C60.3876 82.216 59.9034 82.4991 59.379 82.6793C58.8546 82.8594 58.3003 82.9332 57.7477 82.8963C57.1952 82.8595 56.6552 82.7127 56.1586 82.4644Z" fill="#FFE266"/>
<path d="M46.6174 79.4483C46.3522 79.4485 46.0905 79.3866 45.8527 79.2674L31.065 71.8736C30.8613 71.7717 30.6793 71.6301 30.5296 71.4569C30.3799 71.2838 30.2654 71.0824 30.1925 70.8644C30.1196 70.6464 30.0898 70.4159 30.1049 70.1862C30.1199 69.9565 30.1795 69.7321 30.2802 69.5258C30.4831 69.1091 30.8411 68.7911 31.2754 68.6417C31.7097 68.4922 32.1848 68.5237 32.5962 68.729L47.3872 76.1228C47.7987 76.3287 48.1127 76.6916 48.2601 77.1318C48.4076 77.5721 48.3765 78.0536 48.1737 78.4706C48.0304 78.7647 47.8087 79.0121 47.5336 79.1849C47.2585 79.3578 46.9411 79.449 46.6174 79.4483Z" fill="#D0844B"/>
</g>
<defs>
<clipPath id="clip0_428_3485">
<rect width="73" height="85" fill="white"/>
</clipPath>
</defs>
</svg>
