<svg width="85" height="85" viewBox="0 0 85 85" fill="none" xmlns="http://www.w3.org/2000/svg">
<g clip-path="url(#clip0_428_3495)">
<path d="M83.7549 79.1475H1.24512C0.557314 79.1475 0 78.5901 0 77.9023C0 77.2145 0.557314 76.6572 1.24512 76.6572H83.7549C84.4427 76.6572 85 77.2145 85 77.9023C85 78.5901 84.4427 79.1475 83.7549 79.1475Z" fill="white"/>
<path d="M6.8999 85C6.2121 85 5.65479 84.4427 5.65479 83.7549V1.24512C5.65479 0.557314 6.2121 0 6.8999 0C7.58771 0 8.14502 0.557314 8.14502 1.24512V83.7549C8.14502 84.4427 7.58771 85 6.8999 85Z" fill="#CBCBCB"/>
<path d="M31.0874 46.2616C30.3996 46.2616 29.8423 45.7043 29.8423 45.0165V39.2372C29.8423 38.5494 30.3996 37.9921 31.0874 37.9921C31.7752 37.9921 32.3325 38.5494 32.3325 39.2372V45.0165C32.3325 45.7043 31.775 46.2616 31.0874 46.2616Z" fill="#FF546A"/>
<path d="M16.5923 46.5624C15.9045 46.5624 15.3472 46.0051 15.3472 45.3173V34.5575C15.3472 33.8697 15.9045 33.3124 16.5923 33.3124C17.2801 33.3124 17.8374 33.8697 17.8374 34.5575V45.3173C17.8374 46.0049 17.2801 46.5624 16.5923 46.5624Z" fill="#FF546A"/>
<path d="M45.5825 60.5064C44.8947 60.5064 44.3374 59.9491 44.3374 59.2613V51.6631C44.3374 50.9753 44.8947 50.418 45.5825 50.418C46.2703 50.418 46.8276 50.9753 46.8276 51.6631V59.2613C46.8276 59.9489 46.2703 60.5064 45.5825 60.5064Z" fill="#FF546A"/>
<path d="M60.0776 59.2888C59.3898 59.2888 58.8325 58.7315 58.8325 58.0437V51.6876C58.8325 50.9998 59.3898 50.4425 60.0776 50.4425C60.7654 50.4425 61.3228 50.9998 61.3228 51.6876V58.0437C61.3228 58.7315 60.7653 59.2888 60.0776 59.2888Z" fill="#FF546A"/>
<path d="M74.5728 70.4147C73.885 70.4147 73.3276 69.8573 73.3276 69.1695V60.1125C73.3276 59.4247 73.885 58.8674 74.5728 58.8674C75.2606 58.8674 75.8179 59.4247 75.8179 60.1125V69.1695C75.8179 69.8573 75.2606 70.4147 74.5728 70.4147Z" fill="#FF546A"/>
<path d="M31.0874 35.0717C30.3996 35.0717 29.8423 34.5143 29.8423 33.8265V24.2451C29.8423 23.5573 30.3996 23 31.0874 23C31.7752 23 32.3325 23.5573 32.3325 24.2451V33.8265C32.3325 34.5143 31.775 35.0717 31.0874 35.0717Z" fill="#FF546A"/>
<path d="M16.5923 26.59C15.9045 26.59 15.3472 26.0327 15.3472 25.3449V16.2451C15.3472 15.5573 15.9045 15 16.5923 15C17.2801 15 17.8374 15.5573 17.8374 16.2451V25.3449C17.8374 26.0326 17.2801 26.59 16.5923 26.59Z" fill="#FF546A"/>
<path d="M45.5825 35.1555C44.8947 35.1555 44.3374 34.5982 44.3374 33.9104V27.4318C44.3374 26.744 44.8947 26.1866 45.5825 26.1866C46.2703 26.1866 46.8276 26.744 46.8276 27.4318V33.9104C46.8276 34.5982 46.2703 35.1555 45.5825 35.1555Z" fill="#FF546A"/>
<path d="M60.0776 45.6094C59.3898 45.6094 58.8325 45.0521 58.8325 44.3643V40.2451C58.8325 39.5573 59.3898 39 60.0776 39C60.7654 39 61.3228 39.5573 61.3228 40.2451V44.3643C61.3228 45.0521 60.7653 45.6094 60.0776 45.6094Z" fill="#FF546A"/>
<path d="M74.5728 47.4177C73.885 47.4177 73.3276 46.8604 73.3276 46.1726V37.2308C73.3276 36.543 73.885 35.9857 74.5728 35.9857C75.2606 35.9857 75.8179 36.543 75.8179 37.2308V46.1726C75.8179 46.8602 75.2606 47.4177 74.5728 47.4177Z" fill="#FF546A"/>
<path d="M34.0166 42.5575H27.6599C26.782 42.5575 26.0703 41.8458 26.0703 40.9679V33.2745C26.0703 32.3966 26.782 31.6849 27.6599 31.6849H34.0166C34.8945 31.6849 35.6063 32.3966 35.6063 33.2745V40.9679C35.6063 41.8458 34.8945 42.5575 34.0166 42.5575Z" fill="#FF7383"/>
<path d="M34.515 31.6848H30.7134C31.5913 31.6848 32.303 32.3965 32.303 33.2744V40.9677C32.303 41.8456 31.5913 42.5573 30.7134 42.5573H34.515C35.3929 42.5573 36.1046 41.8456 36.1046 40.9677V33.2744C36.1046 32.3965 35.3929 31.6848 34.515 31.6848Z" fill="#FF546A"/>
<path d="M19.5215 37.8777H13.1648C12.2869 37.8777 11.5752 37.1659 11.5752 36.2881V25.2744C11.5752 24.3965 12.2869 23.6848 13.1648 23.6848H19.5215C20.3994 23.6848 21.1111 24.3965 21.1111 25.2744V36.2881C21.1111 37.1659 20.3994 37.8777 19.5215 37.8777Z" fill="#FF7383"/>
<path d="M20.0194 23.6847H16.2178C17.0957 23.6847 17.8074 24.3964 17.8074 25.2743V36.2879C17.8074 37.1658 17.0957 37.8775 16.2178 37.8775H20.0194C20.8973 37.8775 21.609 37.1658 21.609 36.2879V25.2743C21.609 24.3964 20.8973 23.6847 20.0194 23.6847Z" fill="#FF546A"/>
<path d="M48.5118 54.9834H42.155C41.2771 54.9834 40.5654 54.2717 40.5654 53.3938V33.84C40.5654 32.9621 41.2771 32.2504 42.155 32.2504H48.5118C49.3897 32.2504 50.1014 32.9621 50.1014 33.84V53.3938C50.1014 54.2717 49.3897 54.9834 48.5118 54.9834Z" fill="#FF7383"/>
<path d="M49.0101 32.2502H45.2085C46.0864 32.2502 46.7981 32.962 46.7981 33.8398V53.3937C46.7981 54.2716 46.0864 54.9833 45.2085 54.9833H49.0101C49.888 54.9833 50.5997 54.2716 50.5997 53.3937V33.84C50.5997 32.962 49.888 32.2502 49.0101 32.2502Z" fill="#FF546A"/>
<path d="M63.0069 55.0079H56.6501C55.7723 55.0079 55.0605 54.2962 55.0605 53.4183V44.2939C55.0605 43.4161 55.7723 42.7043 56.6501 42.7043H63.0069C63.8848 42.7043 64.5965 43.4161 64.5965 44.2939V53.4183C64.5965 54.2962 63.8848 55.0079 63.0069 55.0079Z" fill="#FF7383"/>
<path d="M63.5052 42.7042H59.7036C60.5815 42.7042 61.2932 43.4159 61.2932 44.2938V53.4182C61.2932 54.2961 60.5815 55.0078 59.7036 55.0078H63.5052C64.3831 55.0078 65.0948 54.2961 65.0948 53.4182V44.294C65.0948 43.4159 64.3831 42.7042 63.5052 42.7042Z" fill="#FF546A"/>
<path d="M77.502 63.4331H71.1453C70.2674 63.4331 69.5557 62.7214 69.5557 61.8435V46.102C69.5557 45.2242 70.2674 44.5125 71.1453 44.5125H77.502C78.3799 44.5125 79.0916 45.2242 79.0916 46.102V61.8435C79.0916 62.7214 78.3799 63.4331 77.502 63.4331Z" fill="#FF7383"/>
<path d="M78.0003 44.5125H74.1987C75.0766 44.5125 75.7883 45.2242 75.7883 46.102V61.8435C75.7883 62.7214 75.0766 63.4331 74.1987 63.4331H78.0003C78.8782 63.4331 79.5899 62.7214 79.5899 61.8435V46.102C79.5899 45.2242 78.8782 44.5125 78.0003 44.5125Z" fill="#FF546A"/>
<path d="M53.624 18.7339H38.653C37.7401 18.7339 37 17.9938 37 17.0809V2.89801C37 1.98509 37.7401 1.245 38.653 1.245H53.624C54.5369 1.245 55.277 1.98509 55.277 2.89801V17.0809C55.277 17.9938 54.5369 18.7339 53.624 18.7339Z" fill="#FF7383"/>
<path d="M53.624 1.24512H50.1616C51.0745 1.24512 51.8146 1.98521 51.8146 2.89813V17.081C51.8146 17.9939 51.0745 18.734 50.1616 18.734H53.624C54.537 18.734 55.2771 17.9939 55.2771 17.081V2.89797C55.2771 1.98521 54.537 1.24512 53.624 1.24512Z" fill="#FF546A"/>
<path d="M46.1387 13.8019C45.6938 13.8019 45.2829 13.5645 45.0604 13.1793L42.0962 8.04493C41.7524 7.44944 41.9564 6.68792 42.5519 6.3441C43.1471 6.00062 43.9089 6.20415 44.2528 6.79982L46.1387 10.0665L48.0246 6.79982C48.3683 6.20415 49.1295 6.00045 49.7255 6.3441C50.321 6.68792 50.525 7.44944 50.1812 8.04493L47.217 13.1793C46.9945 13.5645 46.5836 13.8019 46.1387 13.8019Z" fill="#FAF7F8"/>
</g>
<defs>
<clipPath id="clip0_428_3495">
<rect width="85" height="85" fill="white"/>
</clipPath>
</defs>
</svg>
