<svg xmlns="http://www.w3.org/2000/svg" xmlns:xlink="http://www.w3.org/1999/xlink" width="300" height="270" viewBox="0 0 300 270">
  <defs>
    <clipPath id="clip-path">
      <rect id="Rectangle_1032" data-name="Rectangle 1032" width="300" height="270" fill="#1da561"/>
    </clipPath>
  </defs>
  <g id="Mask_Group_73" data-name="Mask Group 73" clip-path="url(#clip-path)">
    <g id="Group_1182" data-name="Group 1182">
      <g id="Rectangle_1031" data-name="Rectangle 1031" transform="translate(9)" fill="#d93872" stroke="#000" stroke-width="3">
        <rect width="284" height="29" rx="14.5" stroke="none"/>
        <rect x="1.5" y="1.5" width="281" height="26" rx="13" fill="none"/>
      </g>
      <g id="Path_25977" data-name="Path 25977" transform="matrix(0.809, -0.588, 0.588, 0.809, 89.892, 51.357)" fill="#1da561">
        <path d="M 122.4827270507812 109.6239242553711 L -43.2415885925293 -10.78182315826416 L -40.59292602539062 -43.50930404663086 L 152.2161407470703 96.57468414306641 L 122.4827270507812 109.6239242553711 Z" stroke="none"/>
        <path d="M -39.31333923339844 -40.72551727294922 L -41.67854309082031 -11.50029754638672 L 122.6680755615234 107.9044952392578 L 149.2196044921875 96.25166320800781 L -39.31333923339844 -40.72551727294922 M -41.87255859375 -46.29311370849609 L 155.2126617431641 96.89766693115234 L 122.2973861694336 111.3433837890625 L -44.80464172363281 -10.06333160400391 L -41.87255859375 -46.29311370849609 Z" stroke="none" fill="#000"/>
      </g>
      <g id="Path_25978" data-name="Path 25978" transform="matrix(0.809, -0.588, 0.588, 0.809, 89.892, 93.357)" fill="#1da561">
        <path d="M 104.6843414306641 96.69268035888672 L -25.44320678710938 2.149468421936035 L -22.79455757141113 -30.57805442810059 L 134.4178009033203 83.64339447021484 L 104.6843414306641 96.69268035888672 Z" stroke="none"/>
        <path d="M -21.51494598388672 -27.79425048828125 L -23.88016510009766 1.430980682373047 L 104.8696823120117 94.97322082519531 L 131.4212341308594 83.32040405273438 L -21.51494598388672 -27.79425048828125 M -24.07418060302734 -33.36183929443359 L 137.414306640625 83.96641540527344 L 104.4990081787109 98.41211700439453 L -27.00626373291016 2.867935180664062 L -24.07418060302734 -33.36183929443359 Z" stroke="none" fill="#000"/>
      </g>
      <g id="Path_25979" data-name="Path 25979" transform="matrix(0.809, -0.588, 0.588, 0.809, 89.892, 135.26)" fill="#1da561">
        <path d="M 86.88597106933594 83.76138305664062 L -7.644827842712402 15.08073329925537 L -4.996177196502686 -17.64676284790039 L 116.6194152832031 70.71213531494141 L 86.88597106933594 83.76138305664062 Z" stroke="none"/>
        <path d="M -3.716567993164062 -14.86296844482422 L -6.081787109375 14.36224746704102 L 87.07133483886719 82.04195404052734 L 113.6228790283203 70.38914489746094 L -3.716567993164062 -14.86296844482422 M -6.275787353515625 -20.43056488037109 L 119.6159362792969 71.03514099121094 L 86.70063018798828 85.4808349609375 L -9.2078857421875 15.79921722412109 L -6.275787353515625 -20.43056488037109 Z" stroke="none" fill="#000"/>
      </g>
      <g id="Path_25980" data-name="Path 25980" transform="matrix(0.809, -0.588, 0.588, 0.809, 89.892, 177.26)" fill="#1da561">
        <path d="M 62.332763671875 73.33887481689453 L 9.857585906982422 35.21337890625 L 12.81924438476562 -4.703098773956299 L 98.79666137695312 57.76313781738281 L 62.332763671875 73.33887481689453 Z" stroke="none"/>
        <path d="M 14.11589813232422 -1.90692138671875 L 11.41529083251953 34.49101638793945 L 62.52605819702148 71.62519073486328 L 95.77574920654297 57.42242813110352 L 14.11589813232422 -1.90692138671875 M 11.52259063720703 -7.499282836914062 L 101.8175735473633 58.10385894775391 L 62.13948822021484 75.05254364013672 L 8.299858093261719 35.93572998046875 L 11.52259063720703 -7.499282836914062 Z" stroke="none" fill="#000"/>
      </g>
      <g id="Path_25981" data-name="Path 25981" transform="matrix(0.809, -0.588, 0.588, 0.809, 89.892, 201.865)" fill="#d93872">
        <path d="M 35.78481674194336 108.7746810913086 L -0.4729781746864319 50.56245422363281 L 17.46842384338379 25.86822509765625 L 68.88106536865234 63.22166061401367 L 35.78481674194336 108.7746810913086 Z" stroke="none"/>
        <path d="M 17.80027008056641 27.96343231201172 L 1.334312438964844 50.62688446044922 L 35.88047409057617 106.091064453125 L 66.78585052490234 63.55352020263672 L 17.80027008056641 27.96343231201172 M 17.13657379150391 23.77301788330078 L 70.97625732421875 62.88981628417969 L 35.68914413452148 111.4582901000977 L -2.280281066894531 50.49803161621094 L 17.13657379150391 23.77301788330078 Z" stroke="none" fill="#000"/>
      </g>
    </g>
  </g>
</svg>
