<svg xmlns="http://www.w3.org/2000/svg" xmlns:xlink="http://www.w3.org/1999/xlink" width="71" height="70" viewBox="0 0 71 70">
  <defs>
    <clipPath id="clip-path">
      <rect id="Rectangle_773" data-name="Rectangle 773" width="71" height="70" rx="14" transform="translate(-13213 -18216)" fill="#fff"/>
    </clipPath>
  </defs>
  <g id="Group_673" data-name="Group 673" transform="translate(-250 -127)">
    <g id="Group_671" data-name="Group 671" transform="translate(234)">
      <g id="Mask_Group_72" data-name="Mask Group 72" transform="translate(13229 18343)" clip-path="url(#clip-path)">
        <g id="Group_668" data-name="Group 668" transform="translate(-13231 -18343)">
          <g id="Group_327" data-name="Group 327" transform="translate(-247 -20)">
            <rect id="Rectangle_563" data-name="Rectangle 563" width="75" height="70" rx="14" transform="translate(263 147)" fill="#fff"/>
            <g id="Group_326" data-name="Group 326" transform="translate(35 -6)">
              <g id="Group_324" data-name="Group 324">
                <g id="Group_323" data-name="Group 323" transform="translate(52.5 2.361)">
                  <line id="Line_23" data-name="Line 23" y2="70" transform="translate(180.5 150.639)" fill="none" stroke="#e0e0e0" stroke-width="0.5"/>
                  <line id="Line_26" data-name="Line 26" y2="70" transform="translate(195.5 150.639)" fill="none" stroke="#e0e0e0" stroke-width="0.5"/>
                  <line id="Line_35" data-name="Line 35" y2="70" transform="translate(225.5 150.639)" fill="none" stroke="#e0e0e0" stroke-width="0.5"/>
                  <line id="Line_29" data-name="Line 29" y2="70" transform="translate(210.5 150.639)" fill="none" stroke="#e0e0e0" stroke-width="0.5"/>
                  <line id="Line_32" data-name="Line 32" y2="70" transform="translate(240.5 150.639)" fill="none" stroke="#e0e0e0" stroke-width="0.5"/>
                  <line id="Line_22" data-name="Line 22" y2="70" transform="translate(185.5 150.639)" fill="none" stroke="#e0e0e0" stroke-width="0.5"/>
                  <line id="Line_25" data-name="Line 25" y2="70" transform="translate(200.5 150.639)" fill="none" stroke="#e0e0e0" stroke-width="0.5"/>
                  <line id="Line_34" data-name="Line 34" y2="70" transform="translate(230.5 150.639)" fill="none" stroke="#e0e0e0" stroke-width="0.5"/>
                  <line id="Line_28" data-name="Line 28" y2="70" transform="translate(215.5 150.639)" fill="none" stroke="#e0e0e0" stroke-width="0.5"/>
                  <line id="Line_31" data-name="Line 31" y2="70" transform="translate(245.5 150.639)" fill="none" stroke="#e0e0e0" stroke-width="0.5"/>
                  <line id="Line_20" data-name="Line 20" y2="70" transform="translate(175.5 150.639)" fill="none" stroke="#e0e0e0" stroke-width="0.5"/>
                  <line id="Line_21" data-name="Line 21" y2="70" transform="translate(190.5 150.639)" fill="none" stroke="#e0e0e0" stroke-width="0.5"/>
                  <line id="Line_24" data-name="Line 24" y2="70" transform="translate(205.5 150.639)" fill="none" stroke="#e0e0e0" stroke-width="0.5"/>
                  <line id="Line_33" data-name="Line 33" y2="70" transform="translate(235.5 150.639)" fill="none" stroke="#e0e0e0" stroke-width="0.5"/>
                  <line id="Line_27" data-name="Line 27" y2="70" transform="translate(220.5 150.639)" fill="none" stroke="#e0e0e0" stroke-width="0.5"/>
                  <line id="Line_30" data-name="Line 30" y2="70" transform="translate(250.5 150.639)" fill="none" stroke="#e0e0e0" stroke-width="0.5"/>
                </g>
                <g id="Group_322" data-name="Group 322" transform="translate(77.684 393.5) rotate(-90)">
                  <line id="Line_39" data-name="Line 39" y2="75" transform="translate(180.5 150.316)" fill="none" stroke="#e0e0e0" stroke-width="0.5"/>
                  <line id="Line_40" data-name="Line 40" y2="75" transform="translate(195.5 150.316)" fill="none" stroke="#e0e0e0" stroke-width="0.5"/>
                  <line id="Line_41" data-name="Line 41" y2="75" transform="translate(225.5 150.316)" fill="none" stroke="#e0e0e0" stroke-width="0.5"/>
                  <line id="Line_42" data-name="Line 42" y2="75" transform="translate(210.5 150.316)" fill="none" stroke="#e0e0e0" stroke-width="0.5"/>
                  <line id="Line_43" data-name="Line 43" y2="75" transform="translate(240.5 150.316)" fill="none" stroke="#e0e0e0" stroke-width="0.5"/>
                  <line id="Line_44" data-name="Line 44" y2="75" transform="translate(170.5 150.316)" fill="none" stroke="#e0e0e0" stroke-width="0.5"/>
                  <line id="Line_45" data-name="Line 45" y2="75" transform="translate(185.5 150.316)" fill="none" stroke="#e0e0e0" stroke-width="0.5"/>
                  <line id="Line_46" data-name="Line 46" y2="75" transform="translate(200.5 150.316)" fill="none" stroke="#e0e0e0" stroke-width="0.5"/>
                  <line id="Line_47" data-name="Line 47" y2="75" transform="translate(230.5 150.316)" fill="none" stroke="#e0e0e0" stroke-width="0.5"/>
                  <line id="Line_48" data-name="Line 48" y2="75" transform="translate(215.5 150.316)" fill="none" stroke="#e0e0e0" stroke-width="0.5"/>
                  <line id="Line_50" data-name="Line 50" y2="75" transform="translate(175.5 150.316)" fill="none" stroke="#e0e0e0" stroke-width="0.5"/>
                  <line id="Line_51" data-name="Line 51" y2="75" transform="translate(190.5 150.316)" fill="none" stroke="#e0e0e0" stroke-width="0.5"/>
                  <line id="Line_52" data-name="Line 52" y2="75" transform="translate(205.5 150.316)" fill="none" stroke="#e0e0e0" stroke-width="0.5"/>
                  <line id="Line_53" data-name="Line 53" y2="75" transform="translate(235.5 150.316)" fill="none" stroke="#e0e0e0" stroke-width="0.5"/>
                  <line id="Line_54" data-name="Line 54" y2="75" transform="translate(220.5 150.316)" fill="none" stroke="#e0e0e0" stroke-width="0.5"/>
                </g>
              </g>
            </g>
          </g>
        </g>
      </g>
      <g id="Rectangle_778" data-name="Rectangle 778" transform="translate(16 127)" fill="none" stroke="#a5a4a4" stroke-width="1">
        <rect width="71" height="70" rx="14" stroke="none"/>
        <rect x="0.5" y="0.5" width="70" height="69" rx="13.5" fill="none"/>
      </g>
    </g>
    <g id="Group_672" data-name="Group 672" transform="translate(-45.225 -0.07)">
      <path id="path34" d="M454.034-447.57h-16.2v-2.859h16.2v2.859" transform="translate(-135.48 634.451)" fill="#ffde82"/>
      <path id="path36" d="M454.034-447.273h-16.2v-2.412h16.2v2.412" transform="translate(-135.48 634.153)" fill="#fb0"/>
      <path id="path38" d="M451.706-452.333h-16.2v-2.859h16.2v2.859" transform="translate(-134.55 636.354)" fill="#ffde82"/>
      <path id="path40" d="M451.706-452.035h-16.2v-2.412h16.2v2.412" transform="translate(-134.55 636.057)" fill="#fb0"/>
      <path id="path42" d="M455.092-457.1h-16.2v-2.858h16.2v2.858" transform="translate(-135.904 638.257)" fill="#ffde82"/>
      <path id="path44" d="M455.092-456.8h-16.2v-2.412h16.2v2.412" transform="translate(-135.904 637.96)" fill="#fb0"/>
      <path id="path46" d="M455.092-461.857h-16.2v-2.859h16.2v2.859" transform="translate(-135.904 640.161)" fill="#ffde82"/>
      <path id="path48" d="M455.092-461.56h-16.2v-2.412h16.2v2.412" transform="translate(-135.904 639.864)" fill="#fb0"/>
      <path id="path50" d="M453.611-466.62h-16.2v-2.859h16.2v2.859" transform="translate(-135.311 642.065)" fill="#ffde82"/>
      <path id="path52" d="M453.611-466.322h-16.2v-2.412h16.2v2.412" transform="translate(-135.311 641.767)" fill="#fb0"/>
      <path id="path54" d="M486.629-447.57h-16.2v-2.859h16.2v2.859" transform="translate(-148.509 634.451)" fill="#ffde82"/>
      <path id="path56" d="M486.629-447.273h-16.2v-2.412h16.2v2.412" transform="translate(-148.509 634.153)" fill="#fb0"/>
      <path id="path58" d="M487.688-452.333h-16.2v-2.859h16.2v2.859" transform="translate(-148.932 636.354)" fill="#ffde82"/>
      <path id="path60" d="M487.688-452.035h-16.2v-2.412h16.2v2.412" transform="translate(-148.932 636.057)" fill="#fb0"/>
      <path id="path62" d="M486.207-457.1h-16.2v-2.858h16.2v2.858" transform="translate(-148.34 638.257)" fill="#ffde82"/>
      <path id="path64" d="M486.207-456.8h-16.2v-2.412h16.2v2.412" transform="translate(-148.34 637.96)" fill="#fb0"/>
      <path id="path66" d="M487.688-461.857h-16.2v-2.859h16.2v2.859" transform="translate(-148.932 640.161)" fill="#ffde82"/>
      <path id="path68" d="M487.688-461.56h-16.2v-2.412h16.2v2.412" transform="translate(-148.932 639.864)" fill="#fb0"/>
      <path id="path70" d="M486.207-466.62h-16.2v-2.859h16.2v2.859" transform="translate(-148.34 642.065)" fill="#ffde82"/>
      <path id="path72" d="M486.207-466.322h-16.2v-2.412h16.2v2.412" transform="translate(-148.34 641.767)" fill="#fb0"/>
      <path id="path74" d="M485.2-471.382H469v-2.859h16.2v2.859" transform="translate(-147.938 643.968)" fill="#ffde82"/>
      <path id="path76" d="M485.2-471.085H469V-473.5h16.2v2.412" transform="translate(-147.938 643.67)" fill="#fb0"/>
      <path id="path78" d="M488.852-476.145h-16.2V-479h16.2v2.859" transform="translate(-149.397 645.872)" fill="#ffde82"/>
      <path id="path80" d="M488.852-475.847h-16.2v-2.412h16.2v2.412" transform="translate(-149.397 645.574)" fill="#fb0"/>
      <path id="path82" d="M487.688-480.907h-16.2v-2.858h16.2v2.858" transform="translate(-148.932 647.775)" fill="#ffde82"/>
      <path id="path84" d="M487.688-480.61h-16.2v-2.412h16.2v2.412" transform="translate(-148.932 647.478)" fill="#fb0"/>
      <path id="path86" d="M520.707-447.57h-16.2v-2.859h16.2v2.859" transform="translate(-162.13 634.451)" fill="#ffde82"/>
      <path id="path88" d="M520.707-447.273h-16.2v-2.412h16.2v2.412" transform="translate(-162.13 634.153)" fill="#fb0"/>
      <path id="path90" d="M519.913-452.333h-16.2v-2.859h16.2v2.859" transform="translate(-161.813 636.354)" fill="#ffde82"/>
      <path id="path92" d="M519.913-452.035h-16.2v-2.412h16.2v2.412" transform="translate(-161.813 636.057)" fill="#fb0"/>
      <path id="path94" d="M520.284-457.1h-16.2v-2.858h16.2v2.858" transform="translate(-161.961 638.257)" fill="#ffde82"/>
      <path id="path96" d="M520.284-456.8h-16.2v-2.412h16.2v2.412" transform="translate(-161.961 637.96)" fill="#fb0"/>
      <path id="path98" d="M521.765-461.857h-16.2v-2.859h16.2v2.859" transform="translate(-162.553 640.161)" fill="#ffde82"/>
      <path id="path100" d="M521.765-461.56h-16.2v-2.412h16.2v2.412" transform="translate(-162.553 639.864)" fill="#fb0"/>
      <path id="path102" d="M522.929-466.62h-16.2v-2.859h16.2v2.859" transform="translate(-163.018 642.065)" fill="#ffde82"/>
      <path id="path104" d="M522.929-466.322h-16.2v-2.412h16.2v2.412" transform="translate(-163.018 641.767)" fill="#fb0"/>
      <path id="path106" d="M522.136-471.382h-16.2v-2.859h16.2v2.859" transform="translate(-162.701 643.968)" fill="#ffde82"/>
      <path id="path108" d="M522.136-471.085h-16.2V-473.5h16.2v2.412" transform="translate(-162.701 643.67)" fill="#fb0"/>
      <path id="path110" d="M522.929-476.145h-16.2V-479h16.2v2.859" transform="translate(-163.018 645.872)" fill="#ffde82"/>
      <path id="path112" d="M522.929-475.847h-16.2v-2.412h16.2v2.412" transform="translate(-163.018 645.574)" fill="#fb0"/>
      <path id="path114" d="M521.765-480.907h-16.2v-2.858h16.2v2.858" transform="translate(-162.553 647.775)" fill="#ffde82"/>
      <path id="path116" d="M521.765-480.61h-16.2v-2.412h16.2v2.412" transform="translate(-162.553 647.478)" fill="#fb0"/>
      <path id="path118" d="M520.707-485.669h-16.2v-2.859h16.2v2.859" transform="translate(-162.13 649.679)" fill="#ffde82"/>
      <path id="path120" d="M520.707-485.372h-16.2v-2.412h16.2v2.412" transform="translate(-162.13 649.381)" fill="#fb0"/>
      <path id="path122" d="M517.876-490.432h-16.2v-2.859h16.2v2.859" transform="translate(-160.998 651.582)" fill="#ffde82"/>
      <path id="path124" d="M517.876-490.134h-16.2v-2.412h16.2v2.412" transform="translate(-160.998 651.285)" fill="#fb0"/>
      <path id="path126" d="M521.951-495.194h-16.2v-2.859h16.2v2.859" transform="translate(-162.627 653.486)" fill="#ffde82"/>
      <path id="path128" d="M521.951-494.9h-16.2v-2.412h16.2v2.412" transform="translate(-162.627 653.188)" fill="#fb0"/>
      <path id="path130" d="M522.929-499.957h-16.2v-2.859h16.2v2.859" transform="translate(-163.018 655.39)" fill="#ffde82"/>
      <path id="path132" d="M522.929-499.659h-16.2v-2.412h16.2v2.412" transform="translate(-163.018 655.092)" fill="#fb0"/>
      <path id="path134" d="M525.085-521.7a8.1,8.1,0,0,0-8.1-8.1,8.1,8.1,0,0,0-8.1,8.1,8.1,8.1,0,0,0,8.1,8.1,8.1,8.1,0,0,0,8.1-8.1" transform="translate(-163.88 666.176)" fill="#fb0"/>
      <path id="path136" d="M524.494-520.523a6.33,6.33,0,0,0-6.33-6.33,6.329,6.329,0,0,0-6.329,6.33,6.329,6.329,0,0,0,6.329,6.329,6.329,6.329,0,0,0,6.33-6.329" transform="translate(-165.059 664.997)" fill="#ffde82"/>
      <path id="path138" d="M520.943-516.367v-2.448a1.913,1.913,0,0,1,.7,1.409A.982.982,0,0,1,520.943-516.367Zm-1.49-6.02a1,1,0,0,1,.649-1.042v2.4A1.872,1.872,0,0,1,519.452-522.387Zm3.621,4.89c0-1.318-.988-2.026-1.945-2.71l-.186-.135v-3.126a.987.987,0,0,1,.783,1.082v.172h1.33v-.079c0-1.543-1.071-2.005-2.113-2.092v-.923H520.1v.924a1.986,1.986,0,0,0-2.081,2.091c0,1.317.989,2.025,1.945,2.709l.136.1v3.148a.979.979,0,0,1-.8-1.068v-.448h-1.331v.357c0,1.536,1.077,2,2.131,2.091v.713h.841v-.713c1.052-.089,2.131-.554,2.131-2.091" transform="translate(-167.511 664.38)" fill="#fb0"/>
      <path id="path140" d="M435.861-490.658l-1.731-2.511,14.886-10.266,13.951-.279,7.9-11.166,2.49,1.761L464.567-500.7l-14.574.293-14.132,9.746" transform="translate(-134 660.212)" fill="#e94e1b"/>
      <path id="path142" d="M497.358-514.444l2.061-10.865-9.51,5.6Z" transform="translate(-156.295 664.38)" fill="#e94e1b"/>
    </g>
  </g>
</svg>
