<svg xmlns="http://www.w3.org/2000/svg" xmlns:xlink="http://www.w3.org/1999/xlink" width="71" height="70" viewBox="0 0 71 70">
  <defs>
    <clipPath id="clip-path">
      <rect id="Rectangle_773" data-name="Rectangle 773" width="71" height="70" rx="14" transform="translate(-13213 -18216)" fill="#fff"/>
    </clipPath>
  </defs>
  <g id="Group_670" data-name="Group 670" transform="translate(-16 -127)">
    <g id="Mask_Group_72" data-name="Mask Group 72" transform="translate(13229 18343)" clip-path="url(#clip-path)">
      <g id="Group_668" data-name="Group 668" transform="translate(-13231 -18343)">
        <g id="Group_327" data-name="Group 327" transform="translate(-247 -20)">
          <rect id="Rectangle_563" data-name="Rectangle 563" width="75" height="70" rx="14" transform="translate(263 147)" fill="#fff"/>
          <g id="Group_326" data-name="Group 326" transform="translate(35 -6)">
            <g id="Group_324" data-name="Group 324">
              <g id="Group_323" data-name="Group 323" transform="translate(52.5 2.361)">
                <line id="Line_23" data-name="Line 23" y2="70" transform="translate(180.5 150.639)" fill="none" stroke="#e0e0e0" stroke-width="0.5"/>
                <line id="Line_26" data-name="Line 26" y2="70" transform="translate(195.5 150.639)" fill="none" stroke="#e0e0e0" stroke-width="0.5"/>
                <line id="Line_35" data-name="Line 35" y2="70" transform="translate(225.5 150.639)" fill="none" stroke="#e0e0e0" stroke-width="0.5"/>
                <line id="Line_29" data-name="Line 29" y2="70" transform="translate(210.5 150.639)" fill="none" stroke="#e0e0e0" stroke-width="0.5"/>
                <line id="Line_32" data-name="Line 32" y2="70" transform="translate(240.5 150.639)" fill="none" stroke="#e0e0e0" stroke-width="0.5"/>
                <line id="Line_22" data-name="Line 22" y2="70" transform="translate(185.5 150.639)" fill="none" stroke="#e0e0e0" stroke-width="0.5"/>
                <line id="Line_25" data-name="Line 25" y2="70" transform="translate(200.5 150.639)" fill="none" stroke="#e0e0e0" stroke-width="0.5"/>
                <line id="Line_34" data-name="Line 34" y2="70" transform="translate(230.5 150.639)" fill="none" stroke="#e0e0e0" stroke-width="0.5"/>
                <line id="Line_28" data-name="Line 28" y2="70" transform="translate(215.5 150.639)" fill="none" stroke="#e0e0e0" stroke-width="0.5"/>
                <line id="Line_31" data-name="Line 31" y2="70" transform="translate(245.5 150.639)" fill="none" stroke="#e0e0e0" stroke-width="0.5"/>
                <line id="Line_20" data-name="Line 20" y2="70" transform="translate(175.5 150.639)" fill="none" stroke="#e0e0e0" stroke-width="0.5"/>
                <line id="Line_21" data-name="Line 21" y2="70" transform="translate(190.5 150.639)" fill="none" stroke="#e0e0e0" stroke-width="0.5"/>
                <line id="Line_24" data-name="Line 24" y2="70" transform="translate(205.5 150.639)" fill="none" stroke="#e0e0e0" stroke-width="0.5"/>
                <line id="Line_33" data-name="Line 33" y2="70" transform="translate(235.5 150.639)" fill="none" stroke="#e0e0e0" stroke-width="0.5"/>
                <line id="Line_27" data-name="Line 27" y2="70" transform="translate(220.5 150.639)" fill="none" stroke="#e0e0e0" stroke-width="0.5"/>
                <line id="Line_30" data-name="Line 30" y2="70" transform="translate(250.5 150.639)" fill="none" stroke="#e0e0e0" stroke-width="0.5"/>
              </g>
              <g id="Group_322" data-name="Group 322" transform="translate(77.684 393.5) rotate(-90)">
                <line id="Line_39" data-name="Line 39" y2="75" transform="translate(180.5 150.316)" fill="none" stroke="#e0e0e0" stroke-width="0.5"/>
                <line id="Line_40" data-name="Line 40" y2="75" transform="translate(195.5 150.316)" fill="none" stroke="#e0e0e0" stroke-width="0.5"/>
                <line id="Line_41" data-name="Line 41" y2="75" transform="translate(225.5 150.316)" fill="none" stroke="#e0e0e0" stroke-width="0.5"/>
                <line id="Line_42" data-name="Line 42" y2="75" transform="translate(210.5 150.316)" fill="none" stroke="#e0e0e0" stroke-width="0.5"/>
                <line id="Line_43" data-name="Line 43" y2="75" transform="translate(240.5 150.316)" fill="none" stroke="#e0e0e0" stroke-width="0.5"/>
                <line id="Line_44" data-name="Line 44" y2="75" transform="translate(170.5 150.316)" fill="none" stroke="#e0e0e0" stroke-width="0.5"/>
                <line id="Line_45" data-name="Line 45" y2="75" transform="translate(185.5 150.316)" fill="none" stroke="#e0e0e0" stroke-width="0.5"/>
                <line id="Line_46" data-name="Line 46" y2="75" transform="translate(200.5 150.316)" fill="none" stroke="#e0e0e0" stroke-width="0.5"/>
                <line id="Line_47" data-name="Line 47" y2="75" transform="translate(230.5 150.316)" fill="none" stroke="#e0e0e0" stroke-width="0.5"/>
                <line id="Line_48" data-name="Line 48" y2="75" transform="translate(215.5 150.316)" fill="none" stroke="#e0e0e0" stroke-width="0.5"/>
                <line id="Line_50" data-name="Line 50" y2="75" transform="translate(175.5 150.316)" fill="none" stroke="#e0e0e0" stroke-width="0.5"/>
                <line id="Line_51" data-name="Line 51" y2="75" transform="translate(190.5 150.316)" fill="none" stroke="#e0e0e0" stroke-width="0.5"/>
                <line id="Line_52" data-name="Line 52" y2="75" transform="translate(205.5 150.316)" fill="none" stroke="#e0e0e0" stroke-width="0.5"/>
                <line id="Line_53" data-name="Line 53" y2="75" transform="translate(235.5 150.316)" fill="none" stroke="#e0e0e0" stroke-width="0.5"/>
                <line id="Line_54" data-name="Line 54" y2="75" transform="translate(220.5 150.316)" fill="none" stroke="#e0e0e0" stroke-width="0.5"/>
              </g>
            </g>
            <g id="Group_325" data-name="Group 325" transform="translate(242.636 179.582)">
              <rect id="Rectangle_777" data-name="Rectangle 777" width="11" height="23" transform="translate(0.364 20.418)" fill="#d93872"/>
              <rect id="Rectangle_774" data-name="Rectangle 774" width="12" height="34" transform="translate(17.364 9.418)" fill="#f8c02e"/>
              <rect id="Rectangle_560" data-name="Rectangle 560" width="12" height="43" transform="translate(35.364 0.418)" fill="#10a861"/>
            </g>
          </g>
        </g>
      </g>
      <g id="Group_669" data-name="Group 669" transform="translate(-13192.348 -18220.557) rotate(16)">
        <g id="Group_625" data-name="Group 625" transform="translate(0 6.371)">
          <g id="Group_624" data-name="Group 624" transform="translate(0 0)">
            <g id="Group_622" data-name="Group 622" transform="translate(0 0)">
              <g id="Group_621" data-name="Group 621">
                <g id="noun-stock-market-6762451" transform="translate(38.128 38.517) rotate(180)">
                  <path id="Path_19958" data-name="Path 19958" d="M1.586,38.517a1.659,1.659,0,0,0,1.345-.678L12.8,23.7l5.767,2.522v0a1.667,1.667,0,0,0,2.5-.225L37.8,2.475h0a1.478,1.478,0,0,0,.311-1.183A1.531,1.531,0,0,0,37.412.265,1.708,1.708,0,0,0,36.148.036,1.624,1.624,0,0,0,35.1.749L19.462,22.71l-5.767-2.522a1.669,1.669,0,0,0-2.5.227L.239,36.113a1.49,1.49,0,0,0,.435,2.053,1.647,1.647,0,0,0,.912.351Z" transform="translate(0 0)" fill="#2a353d"/>
                </g>
              </g>
            </g>
          </g>
        </g>
        <path id="Path_19959" data-name="Path 19959" d="M13.818,13.641a1.519,1.519,0,0,1-1.5-1.3l-1.31-8.795L2,6.555a1.535,1.535,0,0,1-.482.072,1.52,1.52,0,0,1-.483-2.963L11.766.078A1.524,1.524,0,0,1,13.755,1.3l1.572,10.594a1.525,1.525,0,0,1-1.282,1.732A1.288,1.288,0,0,1,13.818,13.641Z" transform="translate(28.418 0)" fill="#2a353d"/>
      </g>
    </g>
    <g id="Rectangle_778" data-name="Rectangle 778" transform="translate(16 127)" fill="none" stroke="#a5a4a4" stroke-width="1">
      <rect width="71" height="70" rx="14" stroke="none"/>
      <rect x="0.5" y="0.5" width="70" height="69" rx="13.5" fill="none"/>
    </g>
  </g>
</svg>
