<svg width="28" height="29" viewBox="0 0 28 29" fill="none" xmlns="http://www.w3.org/2000/svg">
<mask id="mask0_1823_48004" style="mask-type:luminance" maskUnits="userSpaceOnUse" x="0" y="0" width="28" height="29">
<path d="M26.9727 12.2188H14V17.5977H21.4672C20.7711 21.0148 17.8602 22.9766 14 22.9766C9.44375 22.9766 5.77344 19.3062 5.77344 14.75C5.77344 10.1938 9.44375 6.52344 14 6.52344C15.9617 6.52344 17.7336 7.21953 19.1258 8.35859L23.1758 4.30859C20.7078 2.15703 17.5438 0.828125 14 0.828125C6.27969 0.828125 0.078125 7.02969 0.078125 14.75C0.078125 22.4703 6.27969 28.6719 14 28.6719C20.9609 28.6719 27.2891 23.6094 27.2891 14.75C27.2891 13.9273 27.1625 13.0414 26.9727 12.2188Z" fill="white"/>
</mask>
<g mask="url(#mask0_1823_48004)">
<path d="M-1.1875 22.9766V6.52344L9.57031 14.75L-1.1875 22.9766Z" fill="#FBBC05"/>
</g>
<mask id="mask1_1823_48004" style="mask-type:luminance" maskUnits="userSpaceOnUse" x="0" y="0" width="28" height="29">
<path d="M26.9727 12.2188H14V17.5977H21.4672C20.7711 21.0148 17.8602 22.9766 14 22.9766C9.44375 22.9766 5.77344 19.3062 5.77344 14.75C5.77344 10.1938 9.44375 6.52344 14 6.52344C15.9617 6.52344 17.7336 7.21953 19.1258 8.35859L23.1758 4.30859C20.7078 2.15703 17.5438 0.828125 14 0.828125C6.27969 0.828125 0.078125 7.02969 0.078125 14.75C0.078125 22.4703 6.27969 28.6719 14 28.6719C20.9609 28.6719 27.2891 23.6094 27.2891 14.75C27.2891 13.9273 27.1625 13.0414 26.9727 12.2188Z" fill="white"/>
</mask>
<g mask="url(#mask1_1823_48004)">
<path d="M-1.1875 6.52344L9.57031 14.75L14 10.8898L29.1875 8.42188V-0.4375H-1.1875V6.52344Z" fill="#EA4335"/>
</g>
<mask id="mask2_1823_48004" style="mask-type:luminance" maskUnits="userSpaceOnUse" x="0" y="0" width="28" height="29">
<path d="M26.9727 12.2188H14V17.5977H21.4672C20.7711 21.0148 17.8602 22.9766 14 22.9766C9.44375 22.9766 5.77344 19.3062 5.77344 14.75C5.77344 10.1938 9.44375 6.52344 14 6.52344C15.9617 6.52344 17.7336 7.21953 19.1258 8.35859L23.1758 4.30859C20.7078 2.15703 17.5438 0.828125 14 0.828125C6.27969 0.828125 0.078125 7.02969 0.078125 14.75C0.078125 22.4703 6.27969 28.6719 14 28.6719C20.9609 28.6719 27.2891 23.6094 27.2891 14.75C27.2891 13.9273 27.1625 13.0414 26.9727 12.2188Z" fill="white"/>
</mask>
<g mask="url(#mask2_1823_48004)">
<path d="M-1.1875 22.9766L17.7969 8.42188L22.7961 9.05469L29.1875 -0.4375V29.9375H-1.1875V22.9766Z" fill="#34A853"/>
</g>
<mask id="mask3_1823_48004" style="mask-type:luminance" maskUnits="userSpaceOnUse" x="0" y="0" width="28" height="29">
<path d="M26.9727 12.2188H14V17.5977H21.4672C20.7711 21.0148 17.8602 22.9766 14 22.9766C9.44375 22.9766 5.77344 19.3062 5.77344 14.75C5.77344 10.1938 9.44375 6.52344 14 6.52344C15.9617 6.52344 17.7336 7.21953 19.1258 8.35859L23.1758 4.30859C20.7078 2.15703 17.5438 0.828125 14 0.828125C6.27969 0.828125 0.078125 7.02969 0.078125 14.75C0.078125 22.4703 6.27969 28.6719 14 28.6719C20.9609 28.6719 27.2891 23.6094 27.2891 14.75C27.2891 13.9273 27.1625 13.0414 26.9727 12.2188Z" fill="white"/>
</mask>
<g mask="url(#mask3_1823_48004)">
<path d="M29.1875 29.9375L9.57031 14.75L7.03906 12.8516L29.1875 6.52344V29.9375Z" fill="#4285F4"/>
</g>
</svg>
