<?xml version="1.0" encoding="utf-8"?>
<!-- Generator: Adobe Illustrator 27.0.0, SVG Export Plug-In . SVG Version: 6.00 Build 0)  -->
<svg version="1.1" id="Layer_1" xmlns="http://www.w3.org/2000/svg" xmlns:xlink="http://www.w3.org/1999/xlink" x="0px" y="0px"
	 viewBox="0 0 856.7 804.7" style="enable-background:new 0 0 856.7 804.7;" xml:space="preserve">
<style type="text/css">
	.st0{enable-background:new    ;}
	.st1{fill:#D93A73;}
	.st2{fill:#557EBF;}
	.st3{fill:none;stroke:#7F7F7F;stroke-width:3;stroke-miterlimit:10;stroke-dasharray:14,7;}
	.st4{font-family:'DMSans-Bold';}
	.st5{font-size:31.6427px;}
</style>
<g>
	<g>
		<path d="M350.7,740.8v4.2h-21.5v-4.2H350.7z M339.9,737.5c-0.6,0-1.2-0.2-1.7-0.5s-0.9-0.8-1.2-1.2c-0.3-0.5-0.5-1.1-0.5-1.7
			c0-0.9,0.3-1.7,0.9-2.3s1.4-0.9,2.3-0.9s1.7,0.3,2.3,0.9s0.9,1.4,0.9,2.3c0,0.9-0.3,1.7-0.9,2.3
			C341.6,737.2,340.8,737.5,339.9,737.5z M339.9,755c-0.9,0-1.7-0.3-2.3-0.9s-0.9-1.4-0.9-2.3c0-0.9,0.3-1.7,0.9-2.3
			s1.4-0.9,2.3-0.9s1.7,0.3,2.3,0.9s0.9,1.4,0.9,2.3c0,0.9-0.3,1.7-0.9,2.3C341.6,754.6,340.8,755,339.9,755z"/>
	</g>
</g>
<g>
	<g>
		<path d="M565.9,735.2V731h20.3v4.2H565.9z M565.9,744.9v-4.2h20.3v4.2H565.9z"/>
	</g>
</g>
<g class="st0">
	<path d="M201.9,754.1V731h8.5c1.9,0,3.4,0.3,4.6,0.9c1.2,0.6,2.1,1.5,2.7,2.5c0.6,1.1,0.9,2.3,0.9,3.6c0,1.4-0.4,2.7-1.1,3.9
		c-0.7,1.2-1.9,2-3.5,2.5l4.8,9.7h-4.9l-4.3-9.1h-3.5v9.1L201.9,754.1L201.9,754.1z M206.1,741.9h4c1.4,0,2.4-0.3,3.1-1s1-1.6,1-2.7
		c0-1.1-0.3-2-1-2.6c-0.7-0.7-1.7-1-3.2-1h-4L206.1,741.9L206.1,741.9z"/>
	<path d="M229.3,754.5c-1.7,0-3.1-0.4-4.4-1.1c-1.3-0.7-2.3-1.7-3-3s-1.1-2.8-1.1-4.4c0-1.7,0.4-3.2,1.1-4.5c0.7-1.3,1.7-2.4,3-3.1
		c1.3-0.7,2.8-1.1,4.5-1.1c1.6,0,3,0.4,4.3,1.1c1.2,0.7,2.2,1.7,2.9,2.9s1,2.6,1,4.1c0,0.2,0,0.5,0,0.8s0,0.5,0,0.8H225
		c0.1,1.3,0.5,2.3,1.3,3s1.8,1.1,2.9,1.1c0.9,0,1.6-0.2,2.2-0.6c0.6-0.4,1-0.9,1.3-1.5h4.3c-0.3,1-0.8,2-1.5,2.8s-1.6,1.5-2.6,2
		C231.8,754.3,230.7,754.5,229.3,754.5z M229.4,740.8c-1,0-2,0.3-2.7,0.9c-0.8,0.6-1.3,1.5-1.5,2.7h8.2c-0.1-1.1-0.5-1.9-1.2-2.6
		C231.4,741.1,230.5,740.8,229.4,740.8z"/>
	<path d="M248.2,754.1c-1.7,0-3.1-0.4-4.1-1.3c-1-0.8-1.6-2.3-1.6-4.5v-7.1h-2.8v-3.5h2.8l0.5-4.4h3.7v4.4h4.4v3.5h-4.4v7.2
		c0,0.8,0.2,1.3,0.5,1.6s0.9,0.4,1.8,0.4h2.1v3.6h-2.9V754.1z"/>
	<path d="M260.9,754.5c-2.1,0-3.6-0.6-4.7-1.9c-1.1-1.3-1.7-3.2-1.7-5.6v-9.3h4.2v8.9c0,1.4,0.3,2.5,0.9,3.2s1.5,1.1,2.7,1.1
		s2.1-0.4,2.9-1.3c0.8-0.8,1.1-2,1.1-3.5v-8.4h4.2v16.4h-3.7l-0.3-2.8c-0.5,1-1.2,1.7-2.2,2.3S262.2,754.5,260.9,754.5z"/>
	<path d="M274.9,754.1v-16.4h3.8l0.4,3.1c0.6-1.1,1.4-1.9,2.4-2.5s2.2-0.9,3.6-0.9v4.5h-1.2c-0.9,0-1.8,0.1-2.5,0.4
		c-0.7,0.3-1.3,0.8-1.7,1.5c-0.4,0.7-0.6,1.7-0.6,2.9v7.5L274.9,754.1L274.9,754.1z"/>
	<path d="M288,754.1v-16.4h3.7l0.3,2.8c0.5-1,1.2-1.7,2.2-2.3s2.1-0.9,3.4-0.9c2,0,3.6,0.6,4.7,1.9c1.1,1.3,1.7,3.2,1.7,5.6v9.3
		h-4.2v-8.9c0-1.4-0.3-2.5-0.9-3.2s-1.5-1.1-2.7-1.1s-2.2,0.4-2.9,1.3c-0.8,0.8-1.1,2-1.1,3.5v8.5L288,754.1L288,754.1z"/>
</g>
<g class="st0">
	<path d="M386.5,754.8v-19.7h-6.7v-3.4h17.8v3.4h-6.8v19.7L386.5,754.8L386.5,754.8z"/>
	<path d="M402.8,735.9c-0.8,0-1.4-0.2-1.9-0.7s-0.7-1-0.7-1.8c0-0.7,0.2-1.3,0.7-1.7c0.5-0.5,1.1-0.7,1.9-0.7s1.4,0.2,1.9,0.7
		s0.7,1,0.7,1.7s-0.2,1.3-0.7,1.8S403.6,735.9,402.8,735.9z M400.7,754.8v-16.4h4.2v16.4H400.7z"/>
	<path d="M409.4,754.8v-16.4h3.7l0.4,2.2c0.5-0.8,1.2-1.4,2.1-1.9s1.9-0.7,3-0.7c2.5,0,4.3,1,5.4,2.9c0.6-0.9,1.4-1.6,2.4-2.1
		s2.1-0.8,3.3-0.8c2.1,0,3.8,0.6,4.9,1.9c1.1,1.3,1.7,3.2,1.7,5.6v9.3h-4.2v-8.9c0-1.4-0.3-2.5-0.8-3.2s-1.4-1.1-2.5-1.1
		s-2.1,0.4-2.8,1.3c-0.7,0.8-1,2-1,3.5v8.5h-4.2V746c0-1.4-0.3-2.5-0.8-3.2c-0.6-0.7-1.4-1.1-2.5-1.1s-2,0.4-2.7,1.3
		c-0.7,0.8-1,2-1,3.5v8.5h-4.4V754.8z"/>
	<path d="M448.3,755.2c-1.7,0-3.1-0.4-4.4-1.1c-1.3-0.7-2.3-1.7-3-3s-1.1-2.8-1.1-4.4c0-1.7,0.4-3.2,1.1-4.5s1.7-2.4,3-3.1
		c1.3-0.7,2.8-1.1,4.5-1.1c1.6,0,3,0.4,4.3,1.1c1.2,0.7,2.2,1.7,2.9,2.9s1,2.6,1,4.1c0,0.2,0,0.5,0,0.8s0,0.5,0,0.8H444
		c0.1,1.3,0.5,2.3,1.3,3s1.8,1.1,2.9,1.1c0.9,0,1.6-0.2,2.2-0.6s1-0.9,1.3-1.5h4.3c-0.3,1-0.8,2-1.5,2.8s-1.6,1.5-2.6,2
		C450.8,755,449.7,755.2,448.3,755.2z M448.4,741.4c-1,0-2,0.3-2.7,0.9c-0.8,0.6-1.3,1.5-1.5,2.7h8.2c-0.1-1.1-0.5-1.9-1.2-2.6
		C450.4,741.8,449.5,741.4,448.4,741.4z"/>
	<path d="M470.3,735.9c-0.8,0-1.4-0.2-1.9-0.7s-0.7-1-0.7-1.8c0-0.7,0.2-1.3,0.7-1.7c0.5-0.5,1.1-0.7,1.9-0.7s1.4,0.2,1.9,0.7
		s0.7,1,0.7,1.7s-0.2,1.3-0.7,1.8S471.1,735.9,470.3,735.9z M468.2,754.8v-16.4h4.2v16.4H468.2z"/>
	<path d="M476.8,754.8v-16.4h3.7l0.3,2.8c0.5-1,1.2-1.7,2.2-2.3s2.1-0.9,3.4-0.9c2,0,3.6,0.6,4.7,1.9c1.1,1.3,1.7,3.2,1.7,5.6v9.3
		h-4.2v-8.9c0-1.4-0.3-2.5-0.9-3.2s-1.5-1.1-2.7-1.1s-2.2,0.4-2.9,1.3c-0.8,0.8-1.1,2-1.1,3.5v8.5L476.8,754.8L476.8,754.8z"/>
</g>
<g class="st0">
	<path d="M381.1,794.5v-23.1h5l7.4,14.7l7.3-14.7h5v23.1h-4.2v-16l-6.4,12.7h-3.3l-6.4-12.7v16H381.1z"/>
	<path d="M415.9,794.9c-1.4,0-2.6-0.2-3.5-0.7s-1.6-1.1-2-1.8c-0.4-0.8-0.7-1.6-0.7-2.5c0-1.5,0.6-2.8,1.8-3.7
		c1.2-0.9,3-1.4,5.4-1.4h4.2v-0.4c0-1.1-0.3-2-1-2.5c-0.6-0.5-1.4-0.8-2.4-0.8c-0.9,0-1.6,0.2-2.2,0.6c-0.6,0.4-1,1-1.2,1.8h-4.1
		c0.1-1.2,0.5-2.2,1.2-3.1s1.6-1.6,2.7-2c1.1-0.5,2.3-0.7,3.7-0.7c2.3,0,4.2,0.6,5.5,1.8s2,2.8,2,5v10.1h-3.6l-0.4-2.6
		c-0.5,0.9-1.2,1.6-2,2.2C418.3,794.6,417.2,794.9,415.9,794.9z M416.8,791.6c1.2,0,2.2-0.4,2.8-1.2c0.7-0.8,1.1-1.8,1.3-2.9h-3.6
		c-1.1,0-1.9,0.2-2.4,0.6c-0.5,0.4-0.7,0.9-0.7,1.5s0.2,1.1,0.7,1.5C415.4,791.4,416,791.6,416.8,791.6z"/>
	<path d="M429.3,794.5v-16.4h3.8l0.4,3.1c0.6-1.1,1.4-1.9,2.4-2.5s2.2-0.9,3.6-0.9v4.5h-1.2c-0.9,0-1.8,0.1-2.5,0.4
		c-0.7,0.3-1.3,0.8-1.7,1.5c-0.4,0.7-0.6,1.7-0.6,2.9v7.5L429.3,794.5L429.3,794.5z"/>
	<path d="M442.4,794.5v-23.8h4.2v14l5.8-6.6h5l-6.7,7.5l7.8,8.9h-5.3l-6.6-8.2v8.2L442.4,794.5L442.4,794.5z"/>
	<path d="M467.8,794.9c-1.7,0-3.1-0.4-4.4-1.1c-1.3-0.7-2.3-1.7-3-3s-1.1-2.8-1.1-4.4c0-1.7,0.4-3.2,1.1-4.5s1.7-2.4,3-3.1
		c1.3-0.7,2.8-1.1,4.5-1.1c1.6,0,3,0.4,4.3,1.1c1.2,0.7,2.2,1.7,2.9,2.9s1,2.6,1,4.1c0,0.2,0,0.5,0,0.8s0,0.5,0,0.8h-12.5
		c0.1,1.3,0.5,2.3,1.3,3s1.8,1.1,2.9,1.1c0.9,0,1.6-0.2,2.2-0.6s1-0.9,1.3-1.5h4.3c-0.3,1-0.8,2-1.5,2.8s-1.6,1.5-2.6,2
		C470.3,794.7,469.1,794.9,467.8,794.9z M467.8,781.1c-1,0-2,0.3-2.7,0.9c-0.8,0.6-1.3,1.5-1.5,2.7h8.2c-0.1-1.1-0.5-1.9-1.2-2.6
		C469.8,781.5,468.9,781.1,467.8,781.1z"/>
	<path d="M486.6,794.5c-1.7,0-3.1-0.4-4.1-1.3c-1-0.8-1.6-2.3-1.6-4.5v-7.1h-2.8v-3.5h2.8l0.5-4.4h3.7v4.4h4.4v3.5h-4.4v7.2
		c0,0.8,0.2,1.3,0.5,1.6s0.9,0.4,1.8,0.4h2v3.6L486.6,794.5L486.6,794.5z"/>
</g>
<g class="st0">
	<path d="M613.3,754.8v-23.1h8.5c1.9,0,3.4,0.3,4.6,0.9c1.2,0.6,2.1,1.5,2.7,2.5c0.6,1.1,0.9,2.3,0.9,3.6c0,1.4-0.4,2.7-1.1,3.9
		c-0.7,1.2-1.9,2-3.5,2.5l4.8,9.7h-4.9l-4.3-9.1h-3.5v9.1H613.3z M617.5,742.6h4c1.4,0,2.4-0.3,3.1-1c0.7-0.7,1-1.6,1-2.7
		c0-1.1-0.3-2-1-2.6c-0.7-0.7-1.7-1-3.2-1h-4v7.3H617.5z"/>
	<path d="M636.1,735.9c-0.8,0-1.4-0.2-1.9-0.7s-0.7-1-0.7-1.8c0-0.7,0.2-1.3,0.7-1.7c0.5-0.5,1.1-0.7,1.9-0.7c0.8,0,1.4,0.2,1.9,0.7
		s0.7,1,0.7,1.7s-0.2,1.3-0.7,1.8S636.8,735.9,636.1,735.9z M634,754.8v-16.4h4.2v16.4H634z"/>
	<path d="M649.4,755.2c-1.5,0-2.7-0.2-3.8-0.7s-2-1.1-2.6-2c-0.7-0.8-1.1-1.8-1.2-2.9h4.3c0.1,0.6,0.5,1.2,1.1,1.6
		c0.6,0.5,1.3,0.7,2.3,0.7s1.6-0.2,2-0.6c0.4-0.4,0.6-0.8,0.6-1.3c0-0.7-0.3-1.2-0.9-1.4c-0.6-0.3-1.5-0.5-2.6-0.7
		c-0.7-0.2-1.4-0.3-2.1-0.6s-1.4-0.5-2-0.8s-1.1-0.8-1.5-1.3s-0.6-1.2-0.6-2c0-1.5,0.6-2.7,1.7-3.7s2.8-1.5,4.9-1.5
		c1.9,0,3.5,0.5,4.6,1.4s1.8,2.1,2.1,3.7h-4c-0.2-1.2-1.2-1.8-2.7-1.8c-0.8,0-1.4,0.2-1.8,0.5c-0.4,0.3-0.6,0.7-0.6,1.2
		s0.3,0.9,1,1.2c0.6,0.3,1.5,0.6,2.5,0.8c1.1,0.3,2.2,0.6,3.2,0.9c1,0.3,1.7,0.8,2.3,1.4c0.6,0.6,0.9,1.5,0.9,2.7
		c0,1-0.2,1.9-0.8,2.7s-1.3,1.5-2.4,1.9C652,755,650.8,755.2,649.4,755.2z"/>
	<path d="M660,754.8V731h4.2v14.1l5.8-6.6h5l-6.7,7.5l7.8,8.9h-5.3l-6.6-8.2v8.2H660V754.8z"/>
	<path d="M678.4,747v-3.5h13.9v3.5H678.4z"/>
	<path d="M693.8,754.8l8.5-23.1h4.8l8.5,23.1H711l-1.9-5.4h-9l-1.9,5.4H693.8z M701.3,746.1h6.7l-3.4-9.6L701.3,746.1z"/>
	<path d="M725.2,755.2c-1.5,0-2.9-0.4-4.1-1.1c-1.2-0.7-2.2-1.8-2.9-3.1s-1.1-2.8-1.1-4.4s0.4-3.1,1.1-4.4c0.7-1.3,1.7-2.3,2.9-3
		s2.6-1.1,4.1-1.1c1.2,0,2.3,0.2,3.2,0.7s1.7,1.1,2.2,2v-9.7h4.2v23.8H731l-0.5-2.3c-0.5,0.7-1.2,1.4-2.1,1.9
		S726.6,755.2,725.2,755.2z M726.1,751.5c1.4,0,2.5-0.5,3.4-1.4s1.3-2.1,1.3-3.5s-0.4-2.6-1.3-3.5c-0.9-0.9-2-1.4-3.4-1.4
		c-1.3,0-2.5,0.5-3.3,1.4c-0.9,0.9-1.3,2.1-1.3,3.5s0.4,2.6,1.3,3.5C723.6,751,724.7,751.5,726.1,751.5z"/>
	<path d="M736.1,762.1v-3.6h1.3c0.7,0,1.2-0.1,1.6-0.4c0.3-0.3,0.5-0.8,0.5-1.5v-18.2h4.2v18.2c0,2-0.5,3.4-1.5,4.2
		s-2.4,1.3-4.1,1.3H736.1z M741.5,735.9c-0.8,0-1.4-0.2-1.9-0.7s-0.7-1-0.7-1.8c0-0.7,0.2-1.3,0.7-1.7c0.5-0.5,1.1-0.7,1.9-0.7
		c0.8,0,1.4,0.2,1.9,0.7s0.7,1,0.7,1.7s-0.2,1.3-0.7,1.8S742.3,735.9,741.5,735.9z"/>
	<path d="M754.2,755.2c-2,0-3.6-0.6-4.7-1.9c-1.1-1.3-1.7-3.2-1.7-5.6v-9.3h4.2v8.9c0,1.4,0.3,2.5,0.9,3.2c0.6,0.7,1.5,1.1,2.7,1.1
		s2.1-0.4,2.9-1.3c0.8-0.8,1.1-2,1.1-3.5v-8.5h4.2v16.4h-3.7l-0.3-2.8c-0.5,1-1.2,1.7-2.2,2.3S755.5,755.2,754.2,755.2z"/>
	<path d="M774.9,755.2c-1.5,0-2.7-0.2-3.8-0.7s-2-1.1-2.6-2c-0.7-0.8-1.1-1.8-1.2-2.9h4.3c0.1,0.6,0.5,1.2,1.1,1.6
		c0.6,0.5,1.3,0.7,2.3,0.7s1.6-0.2,2-0.6c0.4-0.4,0.6-0.8,0.6-1.3c0-0.7-0.3-1.2-0.9-1.4c-0.6-0.3-1.5-0.5-2.6-0.7
		c-0.7-0.2-1.4-0.3-2.1-0.6s-1.4-0.5-2-0.8s-1.1-0.8-1.5-1.3s-0.6-1.2-0.6-2c0-1.5,0.6-2.7,1.7-3.7s2.8-1.5,4.9-1.5
		c1.9,0,3.5,0.5,4.6,1.4s1.8,2.1,2.1,3.7h-4c-0.2-1.2-1.2-1.8-2.7-1.8c-0.8,0-1.4,0.2-1.8,0.5c-0.4,0.3-0.6,0.7-0.6,1.2
		s0.3,0.9,1,1.2c0.6,0.3,1.5,0.6,2.5,0.8c1.1,0.3,2.2,0.6,3.2,0.9c1,0.3,1.7,0.8,2.3,1.4c0.6,0.6,0.9,1.5,0.9,2.7
		c0,1-0.2,1.9-0.8,2.7s-1.3,1.5-2.4,1.9C777.6,755,776.3,755.2,774.9,755.2z"/>
	<path d="M792.3,754.8c-1.7,0-3.1-0.4-4.1-1.3c-1-0.8-1.6-2.3-1.6-4.5v-7.1h-2.8v-3.5h2.8l0.5-4.4h3.7v4.4h4.4v3.5h-4.4v7.2
		c0,0.8,0.2,1.3,0.5,1.6s0.9,0.4,1.8,0.4h2.1v3.6L792.3,754.8L792.3,754.8z"/>
	<path d="M806.4,755.2c-1.7,0-3.1-0.4-4.4-1.1c-1.3-0.7-2.3-1.7-3-3s-1.1-2.8-1.1-4.4c0-1.7,0.4-3.2,1.1-4.5c0.7-1.3,1.7-2.4,3-3.1
		c1.3-0.7,2.8-1.1,4.5-1.1c1.6,0,3,0.4,4.3,1.1c1.2,0.7,2.2,1.7,2.9,2.9s1,2.6,1,4.1c0,0.2,0,0.5,0,0.8s0,0.5,0,0.8h-12.5
		c0.1,1.3,0.5,2.3,1.3,3s1.8,1.1,2.9,1.1c0.9,0,1.6-0.2,2.2-0.6c0.6-0.4,1-0.9,1.3-1.5h4.3c-0.3,1-0.8,2-1.5,2.8s-1.6,1.5-2.6,2
		C809,755,807.8,755.2,806.4,755.2z M806.5,741.4c-1,0-2,0.3-2.7,0.9c-0.8,0.6-1.3,1.5-1.5,2.7h8.2c-0.1-1.1-0.5-1.9-1.2-2.6
		C808.5,741.8,807.6,741.4,806.5,741.4z"/>
	<path d="M825.8,755.2c-1.5,0-2.9-0.4-4.1-1.1c-1.2-0.7-2.2-1.8-2.9-3.1s-1.1-2.8-1.1-4.4s0.4-3.1,1.1-4.4c0.7-1.3,1.7-2.3,2.9-3
		s2.6-1.1,4.1-1.1c1.2,0,2.3,0.2,3.2,0.7s1.7,1.1,2.2,2v-9.7h4.2v23.8h-3.8l-0.5-2.3c-0.5,0.7-1.2,1.4-2.1,1.9
		C828.3,754.9,827.2,755.2,825.8,755.2z M826.7,751.5c1.4,0,2.5-0.5,3.4-1.4s1.3-2.1,1.3-3.5s-0.4-2.6-1.3-3.5
		c-0.9-0.9-2-1.4-3.4-1.4c-1.3,0-2.5,0.5-3.3,1.4c-0.9,0.9-1.3,2.1-1.3,3.5s0.4,2.6,1.3,3.5C824.2,751,825.3,751.5,826.7,751.5z"/>
</g>
<g class="st0">
	<path d="M613.3,794.5v-23.1h8.5c1.9,0,3.4,0.3,4.6,0.9c1.2,0.6,2.1,1.5,2.7,2.5c0.6,1.1,0.9,2.3,0.9,3.6c0,1.4-0.4,2.7-1.1,3.9
		c-0.7,1.2-1.9,2-3.5,2.5l4.8,9.7h-4.9l-4.3-9.1h-3.5v9.1L613.3,794.5L613.3,794.5z M617.5,782.3h4c1.4,0,2.4-0.3,3.1-1
		c0.7-0.7,1-1.6,1-2.7c0-1.1-0.3-2-1-2.6c-0.7-0.7-1.7-1-3.2-1h-4v7.3H617.5z"/>
	<path d="M640.8,794.9c-1.7,0-3.1-0.4-4.4-1.1c-1.3-0.7-2.3-1.7-3-3s-1.1-2.8-1.1-4.4c0-1.7,0.4-3.2,1.1-4.5c0.7-1.3,1.7-2.4,3-3.1
		s2.8-1.1,4.5-1.1c1.6,0,3,0.4,4.3,1.1c1.2,0.7,2.2,1.7,2.9,2.9s1,2.6,1,4.1c0,0.2,0,0.5,0,0.8s0,0.5,0,0.8h-12.5
		c0.1,1.3,0.5,2.3,1.3,3s1.8,1.1,2.9,1.1c0.9,0,1.6-0.2,2.2-0.6s1-0.9,1.3-1.5h4.3c-0.3,1-0.8,2-1.5,2.8s-1.6,1.5-2.6,2
		C643.3,794.7,642.1,794.9,640.8,794.9z M640.8,781.1c-1,0-2,0.3-2.7,0.9c-0.8,0.6-1.3,1.5-1.5,2.7h8.2c-0.1-1.1-0.5-1.9-1.2-2.6
		C642.8,781.5,641.9,781.1,640.8,781.1z"/>
	<path d="M659.6,794.5c-1.7,0-3.1-0.4-4.1-1.3s-1.6-2.3-1.6-4.5v-7.1h-2.8v-3.5h2.8l0.5-4.4h3.7v4.4h4.4v3.5h-4.4v7.2
		c0,0.8,0.2,1.3,0.5,1.6s0.9,0.4,1.8,0.4h2v3.6L659.6,794.5L659.6,794.5z"/>
	<path d="M672.3,794.9c-2.1,0-3.6-0.6-4.7-1.9c-1.1-1.3-1.7-3.2-1.7-5.6v-9.3h4.2v8.9c0,1.4,0.3,2.5,0.9,3.2
		c0.6,0.7,1.5,1.1,2.7,1.1s2.1-0.4,2.9-1.3c0.8-0.8,1.1-2,1.1-3.5V778h4.2v16.4h-3.7l-0.3-2.8c-0.5,1-1.2,1.7-2.2,2.3
		S673.6,794.9,672.3,794.9z"/>
	<path d="M686.3,794.5v-16.4h3.8l0.4,3.1c0.6-1.1,1.4-1.9,2.4-2.5s2.2-0.9,3.6-0.9v4.5h-1.2c-0.9,0-1.8,0.1-2.5,0.4
		c-0.7,0.3-1.3,0.8-1.7,1.5s-0.6,1.7-0.6,2.9v7.5L686.3,794.5L686.3,794.5z"/>
	<path d="M699.4,794.5v-16.4h3.7l0.3,2.8c0.5-1,1.2-1.7,2.2-2.3s2.1-0.9,3.4-0.9c2,0,3.6,0.6,4.7,1.9c1.1,1.3,1.7,3.2,1.7,5.6v9.3
		h-4.2v-8.9c0-1.4-0.3-2.5-0.9-3.2c-0.6-0.7-1.5-1.1-2.7-1.1s-2.2,0.4-2.9,1.3c-0.8,0.8-1.1,2-1.1,3.5v8.5L699.4,794.5L699.4,794.5z
		"/>
</g>
<g>
	<path id="Rectangle_865" class="st1" d="M417.5,2.9h27.8c1.8,0,3.6,1.5,3.6,3.5v27.8c0,1.8-1.5,3.5-3.6,3.5h-27.8
		c-1.8,0-3.6-1.5-3.6-3.5V6.4C413.8,4.6,415.7,2.9,417.5,2.9z"/>
	<g>
		<g class="st0">
			<path d="M466.2,28.6V5.4h9.3c2.4,0,4.2,0.6,5.5,1.7s1.9,2.5,1.9,4.3c0,1.5-0.4,2.6-1.2,3.5c-0.8,0.9-1.7,1.5-2.9,1.8
				c1.3,0.3,2.4,0.9,3.3,2c0.9,1,1.3,2.3,1.3,3.7c0,1.8-0.7,3.3-2,4.5s-3.2,1.8-5.6,1.8L466.2,28.6L466.2,28.6z M470.4,15.1h4.4
				c1.2,0,2.1-0.3,2.7-0.8s1-1.3,1-2.3s-0.3-1.7-0.9-2.3s-1.6-0.8-2.8-0.8h-4.4L470.4,15.1L470.4,15.1z M470.4,25.1h4.7
				c1.3,0,2.2-0.3,2.9-0.9c0.7-0.6,1-1.4,1-2.5s-0.4-1.9-1.1-2.5s-1.7-0.9-2.9-0.9h-4.7v6.8H470.4z"/>
			<path d="M493.1,29c-2.1,0-3.6-0.6-4.7-1.9s-1.7-3.2-1.7-5.6v-9.3h4.2v8.9c0,1.4,0.3,2.5,0.9,3.2s1.5,1.1,2.7,1.1s2.1-0.4,2.9-1.3
				c0.8-0.8,1.1-2,1.1-3.5v-8.5h4.2v16.5H499l-0.3-2.8c-0.5,1-1.2,1.7-2.2,2.3S494.4,29,493.1,29z"/>
			<path d="M509.1,35.8l3.8-8.4h-1l-6.4-15.3h4.6l4.6,11.5l4.8-11.5h4.5l-10.4,23.7H509.1z"/>
			<path d="M542.2,28.9c-1.7,0-3.2-0.3-4.4-0.9s-2.2-1.4-2.9-2.5s-1-2.3-1-3.7c0-1.5,0.4-2.9,1.3-4.1c0.8-1.2,2.1-2.2,3.7-2.9
				c-0.7-0.8-1.1-1.5-1.4-2.2c-0.3-0.7-0.4-1.4-0.4-2.2c0-1.1,0.3-2,0.8-2.8s1.3-1.5,2.3-2s2.2-0.7,3.5-0.7c1.4,0,2.6,0.3,3.5,0.8
				c1,0.5,1.7,1.2,2.2,2c0.5,0.9,0.7,1.8,0.7,2.9h-4c0-0.8-0.2-1.4-0.7-1.8c-0.5-0.4-1-0.6-1.7-0.6c-0.8,0-1.4,0.2-1.8,0.6
				s-0.7,1-0.7,1.6s0.2,1.1,0.5,1.7c0.4,0.6,0.9,1.2,1.6,2l6.5,6.4c0.5-0.7,0.9-1.6,1.5-2.6l0.7-1.5h4.3l-1.2,2.2
				c-0.9,1.8-1.8,3.3-2.6,4.5l5.1,5.5h-5.1l-2.6-2.6c-1.1,1-2.3,1.8-3.6,2.2C545.1,28.7,543.7,28.9,542.2,28.9z M537.9,21.6
				c0,1.1,0.4,2,1.2,2.7s1.9,1.1,3.2,1.1c1.9,0,3.6-0.7,5-2.1l-6.1-6.1c-1.1,0.5-2,1.1-2.5,1.8S537.9,20.7,537.9,21.6z"/>
			<path d="M568.2,28.6V5.4h4.2V15h10.4V5.4h4.2v23.2h-4.2V18.5h-10.4v10.1H568.2z"/>
			<path d="M599.3,29c-1.6,0-3-0.4-4.3-1.1c-1.3-0.7-2.3-1.7-3-3s-1.1-2.8-1.1-4.5s0.4-3.2,1.1-4.5c0.7-1.3,1.8-2.3,3-3
				s2.7-1.1,4.3-1.1s3,0.4,4.2,1.1s2.3,1.7,3,3s1.1,2.8,1.1,4.5s-0.4,3.2-1.1,4.5c-0.7,1.3-1.7,2.3-3,3
				C602.2,28.6,600.8,29,599.3,29z M599.3,25.3c1.1,0,2.1-0.4,2.9-1.2c0.8-0.8,1.2-2.1,1.2-3.7s-0.4-2.9-1.2-3.7
				c-0.8-0.8-1.8-1.2-2.8-1.2c-1.1,0-2.1,0.4-2.9,1.2c-0.8,0.8-1.2,2.1-1.2,3.7s0.4,2.9,1.2,3.7C597.2,24.9,598.2,25.3,599.3,25.3z"
				/>
			<path d="M611.4,28.6V4.7h4.2v23.9H611.4z"/>
			<path d="M627.5,29c-1.5,0-2.9-0.4-4.1-1.1c-1.2-0.7-2.2-1.8-2.9-3.1c-0.7-1.3-1.1-2.8-1.1-4.4s0.4-3.1,1.1-4.4
				c0.7-1.3,1.7-2.3,2.9-3c1.2-0.7,2.6-1.1,4.1-1.1c1.2,0,2.3,0.2,3.2,0.7c0.9,0.5,1.7,1.1,2.2,2V4.7h4.2v23.9h-3.8l-0.5-2.3
				c-0.5,0.7-1.2,1.4-2.1,1.9C629.8,28.7,628.9,29,627.5,29z M628.4,25.2c1.4,0,2.5-0.5,3.4-1.4s1.3-2.1,1.3-3.5s-0.4-2.6-1.3-3.5
				c-0.9-0.9-2-1.4-3.4-1.4c-1.3,0-2.5,0.5-3.3,1.4c-0.9,0.9-1.3,2.1-1.3,3.5s0.4,2.6,1.3,3.5C626,24.8,627.1,25.2,628.4,25.2z"/>
		</g>
	</g>
</g>
<g>
	<path id="Rectangle_866" class="st2" d="M670.7,2.9h27.8c1.8,0,3.6,1.5,3.6,3.5v27.8c0,1.8-1.5,3.5-3.6,3.5h-27.8
		c-1.8,0-3.6-1.5-3.6-3.5V6.4C667.4,4.6,668.7,2.9,670.7,2.9z"/>
	<g>
		<g class="st0">
			<path d="M729.3,32.3c-2.3,0-4.3-0.5-6.1-1.5c-1.7-1-3.1-2.4-4.1-4.2c-1-1.8-1.5-3.9-1.5-6.2s0.5-4.4,1.5-6.2s2.3-3.2,4.1-4.2
				s3.8-1.5,6.1-1.5s4.3,0.5,6.1,1.5c1.7,1,3.1,2.4,4.1,4.2s1.5,3.9,1.5,6.2s-0.5,4.4-1.5,6.2c-1,1.8-2.3,3.2-4.1,4.2
				S731.6,32.3,729.3,32.3z M729.3,28.5c2.2,0,4-0.7,5.3-2.2s2-3.5,2-6s-0.7-4.5-2-6s-3.1-2.2-5.3-2.2s-4,0.7-5.3,2.2s-2,3.5-2,6
				s0.7,4.5,2,6S727.1,28.5,729.3,28.5z"/>
			<path d="M750.6,31.9l-8.5-23.1h4.5l6.5,18.8l6.6-18.8h4.5l-8.5,23.1H750.6z"/>
			<path d="M772.3,31.9V12.1h-6.7V8.7h17.8v3.4h-6.8v19.7L772.3,31.9L772.3,31.9z"/>
			<path d="M786.5,31.9V8.7h4.2v19.8H801v3.3h-14.5V31.9z"/>
			<path d="M807.4,31.9v-8.2l-7.8-15h4.8l5.1,10.7l5.1-10.7h4.7l-7.7,15v8.2H807.4z"/>
			<path d="M822.1,31.9V8.7h8.5c1.9,0,3.4,0.3,4.6,0.9c1.2,0.6,2.1,1.5,2.7,2.5s0.9,2.3,0.9,3.6c0,1.4-0.4,2.7-1.1,3.9
				c-0.7,1.2-1.9,2-3.5,2.5l4.8,9.7h-4.9l-4.3-9.1h-3.5v9.1h-4.2V31.9z M826.3,19.6h4c1.4,0,2.4-0.3,3.1-1c0.7-0.7,1-1.6,1-2.7
				s-0.3-2-1-2.6c-0.7-0.7-1.7-1-3.2-1h-4v7.3H826.3z"/>
		</g>
	</g>
</g>
<g>
	<g class="st0">
		<path d="M11.3,80.1V62.9l-3.6,0.8v-3l5.2-2.3h2.4v21.7H11.3z"/>
		<path d="M27.8,80.5c-1.6,0-3-0.3-4.1-0.9c-1.1-0.6-2-1.4-2.7-2.4s-1.2-2.1-1.5-3.4s-0.4-2.5-0.4-3.8c0-2.4,0.3-4.5,1-6.3
			s1.7-3.2,2.9-4.2c1.3-1,2.8-1.5,4.7-1.5c1.5,0,2.8,0.3,3.8,0.9c1,0.6,1.9,1.4,2.4,2.3c0.6,1,0.9,2,1,3.1h-3.7
			c-0.2-1-0.6-1.7-1.2-2.2s-1.4-0.8-2.4-0.8c-1.4,0-2.5,0.6-3.3,1.9c-0.8,1.3-1.3,3.2-1.4,5.8c0.5-0.8,1.2-1.5,2.2-2.1
			s2.1-0.8,3.3-0.8c1.2,0,2.3,0.3,3.4,0.9c1.1,0.6,1.9,1.4,2.6,2.4c0.7,1.1,1,2.3,1,3.7c0,1.3-0.3,2.5-0.9,3.6
			c-0.6,1.1-1.5,2-2.7,2.7C30.6,80.2,29.3,80.5,27.8,80.5z M27.6,77.1c1.2,0,2.1-0.4,2.9-1.1c0.8-0.7,1.1-1.6,1.1-2.7
			c0-1.2-0.4-2.1-1.1-2.8c-0.8-0.7-1.7-1.1-2.9-1.1c-0.8,0-1.5,0.2-2.1,0.5s-1.1,0.8-1.4,1.4c-0.4,0.6-0.5,1.2-0.5,1.9
			c0,1.1,0.4,2,1.2,2.8C25.4,76.7,26.4,77.1,27.6,77.1z"/>
		<path d="M48.2,80.5c-2,0-3.7-0.5-5.1-1.4c-1.4-0.9-2.5-2.3-3.3-3.9s-1.2-3.6-1.2-5.9c0-2.2,0.4-4.2,1.2-5.9s1.9-3,3.3-4
			c1.4-0.9,3.1-1.4,5.1-1.4s3.7,0.5,5.1,1.4c1.4,0.9,2.5,2.3,3.3,4s1.2,3.6,1.2,5.9c0,2.2-0.4,4.2-1.2,5.9s-1.9,3-3.3,3.9
			S50.2,80.5,48.2,80.5z M48.2,76.9c1.6,0,3-0.7,4-2c1-1.4,1.6-3.2,1.6-5.6c0-2.4-0.5-4.2-1.6-5.6c-1-1.4-2.4-2-4-2
			c-1.7,0-3,0.7-4,2c-1,1.4-1.5,3.2-1.5,5.6c0,2.4,0.5,4.2,1.5,5.6C45.2,76.3,46.5,76.9,48.2,76.9z"/>
	</g>
</g>
<line id="Line_64_00000021099705680732848280000014688873195487858354_" class="st3" x1="101" y1="69.2" x2="852.2" y2="69.2"/>
<text transform="matrix(1 0 0 1 62.2278 80.2808)" class="st4 st5">%</text>
<line id="Line_64" class="st3" x1="102.8" y1="150.1" x2="853.9" y2="150.1"/>
<g>
	<g class="st0">
		<path d="M11.3,161v-17.2l-3.6,0.9v-3l5.2-2.3h2.4v21.7L11.3,161L11.3,161z"/>
		<path d="M29.6,161v-4H18.9v-3.2L29,139.3h4.5v14.2h2.9v3.4h-2.9v4h-3.9V161z M23.1,153.5h6.7v-9.8L23.1,153.5z"/>
		<path d="M48.4,161.4c-2,0-3.7-0.5-5.1-1.4c-1.4-0.9-2.5-2.3-3.3-3.9s-1.2-3.6-1.2-5.9c0-2.2,0.4-4.2,1.2-5.9s1.9-3,3.3-4
			c1.4-0.9,3.1-1.4,5.1-1.4s3.7,0.5,5.1,1.4c1.4,0.9,2.5,2.3,3.3,4s1.2,3.6,1.2,5.9c0,2.2-0.4,4.2-1.2,5.9s-1.9,3-3.3,3.9
			C52.1,160.9,50.4,161.4,48.4,161.4z M48.4,157.8c1.6,0,3-0.7,4-2c1-1.4,1.6-3.2,1.6-5.6c0-2.4-0.5-4.2-1.6-5.6c-1-1.4-2.4-2-4-2
			c-1.7,0-3,0.7-4,2c-1,1.4-1.5,3.2-1.5,5.6c0,2.4,0.5,4.2,1.5,5.6C45.4,157.1,46.8,157.8,48.4,157.8z"/>
	</g>
</g>
<text transform="matrix(1 0 0 1 62.228 161.21)" class="st4 st5">%</text>
<line id="Line_63" class="st3" x1="102.8" y1="231.1" x2="853.9" y2="231.1"/>
<g>
	<g class="st0">
		<path d="M11.3,242v-17.2l-3.6,0.8v-3l5.2-2.3h2.4V242L11.3,242L11.3,242z"/>
		<path d="M19.1,242v-2.9c1.3-1.1,2.6-2.2,3.9-3.3c1.2-1.1,2.4-2.1,3.3-3.2c1-1.1,1.8-2.1,2.4-3.1s0.9-2,0.9-2.9s-0.2-1.7-0.7-2.4
			c-0.5-0.7-1.3-1-2.4-1s-2,0.4-2.6,1.1S23,225.9,23,227h-3.8c0-1.6,0.4-2.9,1.1-4s1.5-1.9,2.6-2.4s2.3-0.8,3.7-0.8
			c2.2,0,3.9,0.6,5.2,1.8s1.8,2.8,1.8,4.7c0,1.2-0.3,2.4-0.8,3.5s-1.3,2.2-2.2,3.3c-0.9,1.1-1.8,2-2.9,3c-1,0.9-2,1.8-3,2.6h9.4v3.3
			L19.1,242L19.1,242z"/>
		<path d="M46.1,242.3c-2,0-3.7-0.5-5.1-1.4c-1.4-0.9-2.5-2.3-3.3-3.9s-1.2-3.6-1.2-5.9c0-2.2,0.4-4.2,1.2-5.9s1.9-3,3.3-4
			c1.4-0.9,3.1-1.4,5.1-1.4s3.7,0.5,5.1,1.4c1.4,0.9,2.5,2.3,3.3,4s1.2,3.6,1.2,5.9c0,2.2-0.4,4.2-1.2,5.9s-1.9,3-3.3,3.9
			C49.8,241.9,48.1,242.3,46.1,242.3z M46.1,238.8c1.6,0,3-0.7,4-2c1-1.4,1.6-3.2,1.6-5.6s-0.5-4.2-1.6-5.6c-1-1.4-2.4-2-4-2
			c-1.7,0-3,0.7-4,2c-1,1.4-1.5,3.2-1.5,5.6s0.5,4.2,1.5,5.6C43.1,238.1,44.4,238.8,46.1,238.8z"/>
	</g>
</g>
<text transform="matrix(1 0 0 1 62.2278 242.14)" class="st4 st5">%</text>
<line id="Line_62" class="st3" x1="102.8" y1="312" x2="853.9" y2="312"/>
<g>
	<g class="st0">
		<path d="M11.3,322.8v-17.2l-3.6,0.8v-3l5.2-2.3h2.4v21.7H11.3z"/>
		<path d="M28.5,323.2c-2,0-3.7-0.5-5.1-1.4s-2.5-2.3-3.3-3.9s-1.2-3.6-1.2-5.9c0-2.2,0.4-4.2,1.2-5.9s1.9-3,3.3-4
			c1.4-0.9,3.1-1.4,5.1-1.4s3.7,0.5,5.1,1.4c1.4,0.9,2.5,2.3,3.3,4s1.2,3.6,1.2,5.9c0,2.2-0.4,4.2-1.2,5.9s-1.9,3-3.3,3.9
			C32.3,322.7,30.5,323.2,28.5,323.2z M28.5,319.6c1.6,0,3-0.7,4-2c1-1.4,1.6-3.2,1.6-5.6s-0.5-4.2-1.6-5.6c-1-1.4-2.4-2-4-2
			c-1.7,0-3,0.7-4,2c-1,1.4-1.5,3.2-1.5,5.6s0.5,4.2,1.5,5.6S26.9,319.6,28.5,319.6z"/>
		<path d="M50.6,323.2c-2,0-3.7-0.5-5.1-1.4c-1.4-0.9-2.5-2.3-3.3-3.9S41,314.3,41,312c0-2.2,0.4-4.2,1.2-5.9s1.9-3,3.3-4
			c1.4-0.9,3.1-1.4,5.1-1.4s3.7,0.5,5.1,1.4c1.4,0.9,2.5,2.3,3.3,4s1.2,3.6,1.2,5.9c0,2.2-0.4,4.2-1.2,5.9s-1.9,3-3.3,3.9
			S52.6,323.2,50.6,323.2z M50.6,319.6c1.6,0,3-0.7,4-2c1-1.4,1.6-3.2,1.6-5.6s-0.5-4.2-1.6-5.6c-1-1.4-2.4-2-4-2c-1.7,0-3,0.7-4,2
			c-1,1.4-1.5,3.2-1.5,5.6s0.5,4.2,1.5,5.6S48.9,319.6,50.6,319.6z"/>
	</g>
</g>
<text transform="matrix(1 0 0 1 62.228 323.0692)" class="st4 st5">%</text>
<line id="Line_61" class="st3" x1="102.8" y1="392.9" x2="853.9" y2="392.9"/>
<g>
	<g class="st0">
		<path d="M27.7,404.2c-1.5,0-2.8-0.3-4-0.8s-2.2-1.3-2.9-2.2c-0.7-1-1.1-2.1-1.1-3.4s0.3-2.5,1-3.5s1.6-1.7,2.7-2.1
			c-1-0.4-1.8-1.1-2.4-1.9s-0.9-1.7-0.9-2.7s0.3-2,0.8-2.9c0.6-0.9,1.4-1.6,2.5-2.1s2.5-0.8,4.1-0.8s3,0.3,4.1,0.8
			c1.1,0.5,1.9,1.2,2.5,2.1s0.8,1.8,0.8,2.9c0,1-0.3,1.9-0.9,2.7c-0.6,0.8-1.4,1.5-2.3,1.9c1.2,0.4,2.1,1.1,2.8,2.1s1,2.1,1,3.5
			c0,1.3-0.4,2.4-1.1,3.4c-0.7,1-1.7,1.7-2.9,2.2C30.5,403.9,29.2,404.2,27.7,404.2z M27.7,400.8c1.3,0,2.3-0.3,3-1s1-1.5,1-2.5
			c0-1.1-0.4-2-1.1-2.6s-1.7-0.9-3-0.9s-2.3,0.3-3,0.9s-1.1,1.5-1.1,2.6c0,1,0.3,1.8,1,2.5C25.3,400.5,26.4,400.8,27.7,400.8z
			 M27.7,391c1.1,0,1.9-0.3,2.5-0.8c0.6-0.6,0.9-1.3,0.9-2.1c0-1-0.3-1.7-0.9-2.2s-1.5-0.8-2.6-0.8s-2,0.3-2.6,0.8s-0.9,1.3-0.9,2.2
			c0,0.9,0.3,1.6,0.9,2.2C25.7,390.7,26.6,391,27.7,391z"/>
		<path d="M48.4,404.2c-2,0-3.7-0.5-5.1-1.4c-1.4-0.9-2.5-2.3-3.3-3.9s-1.2-3.6-1.2-5.9c0-2.2,0.4-4.2,1.2-5.9s1.9-3,3.3-4
			c1.4-0.9,3.1-1.4,5.1-1.4s3.7,0.5,5.1,1.4c1.4,0.9,2.5,2.3,3.3,4s1.2,3.6,1.2,5.9c0,2.2-0.4,4.2-1.2,5.9s-1.9,3-3.3,3.9
			C52.2,403.7,50.4,404.2,48.4,404.2z M48.4,400.6c1.6,0,3-0.7,4-2c1-1.4,1.6-3.2,1.6-5.6s-0.5-4.2-1.6-5.6c-1-1.4-2.4-2-4-2
			c-1.7,0-3,0.7-4,2c-1,1.4-1.5,3.2-1.5,5.6s0.5,4.2,1.5,5.6C45.4,399.9,46.8,400.6,48.4,400.6z"/>
	</g>
</g>
<text transform="matrix(1 0 0 1 62.2278 403.999)" class="st4 st5">%</text>
<line id="Line_60" class="st3" x1="102.8" y1="473.9" x2="853.9" y2="473.9"/>
<g>
	<g class="st0">
		<path d="M28.2,485.1c-1.6,0-3-0.3-4.1-0.9c-1.1-0.6-2-1.4-2.7-2.4s-1.2-2.1-1.5-3.4s-0.4-2.5-0.4-3.8c0-2.4,0.3-4.5,1-6.3
			s1.7-3.2,2.9-4.2c1.3-1,2.8-1.5,4.7-1.5c1.5,0,2.8,0.3,3.8,0.9c1,0.6,1.9,1.4,2.4,2.3c0.6,1,0.9,2,1,3.1h-3.7
			c-0.2-1-0.6-1.7-1.2-2.2s-1.4-0.8-2.4-0.8c-1.4,0-2.5,0.6-3.3,1.9c-0.8,1.3-1.3,3.2-1.4,5.8c0.5-0.8,1.2-1.5,2.2-2.1
			s2.1-0.8,3.3-0.8c1.2,0,2.3,0.3,3.4,0.9c1.1,0.6,1.9,1.4,2.6,2.4c0.7,1.1,1,2.3,1,3.7c0,1.3-0.3,2.5-0.9,3.6
			c-0.6,1.1-1.5,2-2.7,2.7C31,484.8,29.7,485.1,28.2,485.1z M28,481.7c1.2,0,2.1-0.4,2.9-1.1c0.8-0.7,1.1-1.6,1.1-2.7
			c0-1.2-0.4-2.1-1.1-2.8c-0.8-0.7-1.7-1.1-2.9-1.1c-0.8,0-1.5,0.2-2.1,0.5s-1.1,0.8-1.4,1.4c-0.4,0.6-0.5,1.2-0.5,1.9
			c0,1.1,0.4,2,1.2,2.8C25.8,481.4,26.8,481.7,28,481.7z"/>
		<path d="M48.6,485.1c-2,0-3.7-0.5-5.1-1.4c-1.4-0.9-2.5-2.3-3.3-3.9s-1.2-3.6-1.2-5.9c0-2.2,0.4-4.2,1.2-5.9s1.9-3,3.3-4
			c1.4-0.9,3.1-1.4,5.1-1.4s3.7,0.5,5.1,1.4c1.4,0.9,2.5,2.3,3.3,4s1.2,3.6,1.2,5.9c0,2.2-0.4,4.2-1.2,5.9s-1.9,3-3.3,3.9
			C52.3,484.7,50.6,485.1,48.6,485.1z M48.6,481.6c1.6,0,3-0.7,4-2c1-1.4,1.6-3.2,1.6-5.6c0-2.4-0.5-4.2-1.6-5.6c-1-1.4-2.4-2-4-2
			c-1.7,0-3,0.7-4,2c-1,1.4-1.5,3.2-1.5,5.6c0,2.4,0.5,4.2,1.5,5.6C45.6,480.9,46.9,481.6,48.6,481.6z"/>
	</g>
</g>
<text transform="matrix(1 0 0 1 62.2278 484.9286)" class="st4 st5">%</text>
<line id="Line_59" class="st3" x1="102.8" y1="554.8" x2="853.9" y2="554.8"/>
<g>
	<g class="st0">
		<path d="M30,565.6v-4H19.3v-3.2l10.2-14.5H34v14.2h2.9v3.4H34v4L30,565.6L30,565.6z M23.5,558.1h6.7v-9.9L23.5,558.1z"/>
		<path d="M48.8,566c-2,0-3.7-0.5-5.1-1.4c-1.4-0.9-2.5-2.3-3.3-3.9s-1.2-3.6-1.2-5.9c0-2.2,0.4-4.2,1.2-5.9s1.9-3,3.3-4
			c1.4-0.9,3.1-1.4,5.1-1.4s3.7,0.5,5.1,1.4c1.4,0.9,2.5,2.3,3.3,4s1.2,3.6,1.2,5.9c0,2.2-0.4,4.2-1.2,5.9s-1.9,3-3.3,3.9
			S50.8,566,48.8,566z M48.8,562.4c1.6,0,3-0.7,4-2c1-1.4,1.6-3.2,1.6-5.6c0-2.4-0.5-4.2-1.6-5.6c-1-1.4-2.4-2-4-2c-1.7,0-3,0.7-4,2
			c-1,1.4-1.5,3.2-1.5,5.6c0,2.4,0.5,4.2,1.5,5.6C45.8,561.7,47.2,562.4,48.8,562.4z"/>
	</g>
</g>
<text transform="matrix(1 0 0 1 62.2279 565.858)" class="st4 st5">%</text>
<line id="Line_58" class="st3" x1="102.8" y1="635.7" x2="853.9" y2="635.7"/>
<g>
	<g class="st0">
		<path d="M19.5,646.6v-2.9c1.3-1.1,2.6-2.2,3.9-3.3c1.2-1.1,2.4-2.1,3.3-3.2c1-1.1,1.8-2.1,2.4-3.1s0.9-2,0.9-2.9s-0.2-1.7-0.7-2.4
			s-1.3-1-2.4-1s-2,0.4-2.6,1.1c-0.6,0.7-0.9,1.6-0.9,2.7h-3.8c0-1.6,0.4-2.9,1.1-4s1.5-1.9,2.6-2.4s2.3-0.8,3.7-0.8
			c2.2,0,3.9,0.6,5.2,1.8c1.3,1.2,1.8,2.8,1.8,4.7c0,1.2-0.3,2.4-0.8,3.5s-1.3,2.2-2.2,3.3c-0.9,1.1-1.8,2-2.9,3c-1,0.9-2,1.8-3,2.6
			h9.4v3.3L19.5,646.6L19.5,646.6z"/>
		<path d="M46.5,647c-2,0-3.7-0.5-5.1-1.4c-1.4-0.9-2.5-2.3-3.3-3.9s-1.2-3.6-1.2-5.9c0-2.2,0.4-4.2,1.2-5.9s1.9-3,3.3-4
			c1.4-0.9,3.1-1.4,5.1-1.4s3.7,0.5,5.1,1.4c1.4,0.9,2.5,2.3,3.3,4s1.2,3.6,1.2,5.9c0,2.2-0.4,4.2-1.2,5.9s-1.9,3-3.3,3.9
			S48.5,647,46.5,647z M46.5,643.4c1.6,0,3-0.7,4-2c1-1.4,1.6-3.2,1.6-5.6c0-2.4-0.5-4.2-1.6-5.6c-1-1.4-2.4-2-4-2c-1.7,0-3,0.7-4,2
			c-1,1.4-1.5,3.2-1.5,5.6c0,2.4,0.5,4.2,1.5,5.6C43.5,642.7,44.8,643.4,46.5,643.4z"/>
	</g>
</g>
<text transform="matrix(1 0 0 1 62.2279 646.7877)" class="st4 st5">%</text>
<line id="Line_57" class="st3" x1="102.8" y1="716.6" x2="853.9" y2="716.6"/>
<g>
	<g class="st0">
		<path d="M47,727.9c-2,0-3.7-0.5-5.1-1.4c-1.4-0.9-2.5-2.3-3.3-3.9s-1.2-3.6-1.2-5.9c0-2.2,0.4-4.2,1.2-5.9c0.8-1.7,1.9-3,3.3-4
			c1.4-0.9,3.1-1.4,5.1-1.4s3.7,0.5,5.1,1.4c1.4,0.9,2.5,2.3,3.3,4s1.2,3.6,1.2,5.9c0,2.2-0.4,4.2-1.2,5.9s-1.9,3-3.3,3.9
			C50.8,727.5,49.1,727.9,47,727.9z M47,724.4c1.6,0,3-0.7,4-2c1-1.4,1.6-3.2,1.6-5.6c0-2.4-0.5-4.2-1.6-5.6c-1-1.4-2.4-2-4-2
			c-1.7,0-3,0.7-4,2c-1,1.4-1.5,3.2-1.5,5.6c0,2.4,0.5,4.2,1.5,5.6C44.1,723.7,45.4,724.4,47,724.4z"/>
	</g>
</g>
<text transform="matrix(1 0 0 1 62.2279 727.7176)" class="st4 st5">%</text>
<g>
	<rect id="Rectangle_854" x="150.6" y="310.8" class="st1" width="77.6" height="404.7"/>
	<rect id="Rectangle_855" x="228.3" y="383.6" class="st2" width="77.6" height="331.8"/>
</g>
<g>
	<rect id="Rectangle_862" x="379.8" y="310.8" class="st1" width="77.6" height="404.7"/>
	<rect id="Rectangle_863" x="457.4" y="501.9" class="st2" width="77.6" height="213.7"/>
</g>
<g>
	<rect id="Rectangle_864" x="613.3" y="313.1" class="st1" width="77.9" height="404.7"/>
	<rect id="Rectangle_859" x="690.8" y="69" class="st2" width="77.9" height="648.9"/>
</g>
</svg>
