<svg xmlns="http://www.w3.org/2000/svg" width="25" height="25" viewBox="0 0 25 25">
  <g id="index-sectors" transform="translate(-1.25 -1.25)">
    <path id="Rectangle_3" data-name="Rectangle 3" d="M2.448-.75H7.1a3.2,3.2,0,0,1,3.2,3.2V9.427a3.2,3.2,0,0,1-3.2,3.2H2.448a3.2,3.2,0,0,1-3.2-3.2V2.448A3.2,3.2,0,0,1,2.448-.75ZM7.1,10.88A1.455,1.455,0,0,0,8.554,9.427V2.448A1.455,1.455,0,0,0,7.1.995H2.448A1.455,1.455,0,0,0,.995,2.448V9.427A1.455,1.455,0,0,0,2.448,10.88Z" transform="translate(2 2)" fill="#2a353d"/>
    <path id="Rectangle_4" data-name="Rectangle 4" d="M2.448-.75H7.1a3.2,3.2,0,0,1,3.2,3.2V4.774a3.2,3.2,0,0,1-3.2,3.2H2.448a3.2,3.2,0,0,1-3.2-3.2V2.448A3.2,3.2,0,0,1,2.448-.75ZM7.1,6.228A1.455,1.455,0,0,0,8.554,4.774V2.448A1.455,1.455,0,0,0,7.1.995H2.448A1.455,1.455,0,0,0,.995,2.448V4.774A1.455,1.455,0,0,0,2.448,6.228Z" transform="translate(2 18.277)" fill="#2a353d"/>
    <path id="Rectangle_5" data-name="Rectangle 5" d="M2.448-.75H7.1a3.2,3.2,0,0,1,3.2,3.2V9.427a3.2,3.2,0,0,1-3.2,3.2H2.448a3.2,3.2,0,0,1-3.2-3.2V2.448A3.2,3.2,0,0,1,2.448-.75ZM7.1,10.88A1.455,1.455,0,0,0,8.554,9.427V2.448A1.455,1.455,0,0,0,7.1.995H2.448A1.455,1.455,0,0,0,.995,2.448V9.427A1.455,1.455,0,0,0,2.448,10.88Z" transform="translate(15.951 13.625)" fill="#2a353d"/>
    <path id="Rectangle_6" data-name="Rectangle 6" d="M2.448-.75H7.1a3.2,3.2,0,0,1,3.2,3.2V4.774a3.2,3.2,0,0,1-3.2,3.2H2.448a3.2,3.2,0,0,1-3.2-3.2V2.448A3.2,3.2,0,0,1,2.448-.75ZM7.1,6.228A1.455,1.455,0,0,0,8.554,4.774V2.448A1.455,1.455,0,0,0,7.1.995H2.448A1.455,1.455,0,0,0,.995,2.448V4.774A1.455,1.455,0,0,0,2.448,6.228Z" transform="translate(15.951 2)" fill="#2a353d"/>
  </g>
</svg>
