<svg xmlns="http://www.w3.org/2000/svg" width="61.113" height="33.869" viewBox="0 0 61.113 33.869">
  <g id="Group_40237" data-name="Group 40237" transform="translate(-604.91 -646.799)">
    <g id="Group_40236" data-name="Group 40236" transform="translate(190)">
      <path id="Path_2125" data-name="Path 2125" d="M0,7.263.3,1.746l1.317-.07L1.377,6.11l2.273-.118L3.594,7.079ZM6.28,1.426l-.286,5.53L4.67,7.024,4.958,1.5ZM7.5,1.36,9.14,1.272l1.222,3.352.064,0,1.566-3.5,1.647-.088-.271,5.546-1.3.067.168-3.408-.046,0L10.7,6.679l-.827.042L8.728,3.4l-.046,0L8.509,6.827l-1.292.066ZM16.2.895l-.266,5.552L14.6,6.515,14.867.966Zm1,1.032L17.249.838l4.675-.25-.05,1.09-1.68.089-.207,4.471-1.321.068.209-4.468ZM22.727,6.1,22.979.532,26.852.324,26.8,1.417l-2.533.134L24.22,2.692l2.336-.123-.048,1.1-2.337.122L24.12,4.934,26.656,4.8l-.048,1.1Zm7.189-.369-2.065.106L28.093.258l2.058-.11a3.914,3.914,0,0,1,.411,0,3.147,3.147,0,0,1,.38.042,2.608,2.608,0,0,1,.349.085A2.268,2.268,0,0,1,31.607.4a2.111,2.111,0,0,1,.284.169,1.965,1.965,0,0,1,.457.454,2.163,2.163,0,0,1,.173.285,2.294,2.294,0,0,1,.133.32,2.657,2.657,0,0,1,.09.353,3.223,3.223,0,0,1,.047.386,4.026,4.026,0,0,1,0,.419,4.184,4.184,0,0,1-.038.422,3.559,3.559,0,0,1-.079.394,3.119,3.119,0,0,1-.12.365,2.849,2.849,0,0,1-.16.337,2.781,2.781,0,0,1-.2.305,2.593,2.593,0,0,1-.5.506,2.72,2.72,0,0,1-.3.2,2.822,2.822,0,0,1-.331.163,3.05,3.05,0,0,1-.358.123,3.438,3.438,0,0,1-.385.082A4.007,4.007,0,0,1,29.916,5.729Zm-.666-1.115.663-.034q.117-.006.226-.022a2.07,2.07,0,0,0,.209-.041,1.742,1.742,0,0,0,.192-.06,1.513,1.513,0,0,0,.175-.079,1.134,1.134,0,0,0,.3-.225,1.227,1.227,0,0,0,.12-.149,1.416,1.416,0,0,0,.1-.173,1.593,1.593,0,0,0,.082-.2,2.11,2.11,0,0,0,.062-.229q.026-.122.042-.258t.023-.287q.006-.151,0-.285t-.021-.254a1.825,1.825,0,0,0-.043-.222,1.29,1.29,0,0,0-.066-.19,1.1,1.1,0,0,0-.088-.162.929.929,0,0,0-.109-.136.867.867,0,0,0-.129-.11.906.906,0,0,0-.15-.084,1.249,1.249,0,0,0-.171-.06,1.547,1.547,0,0,0-.191-.04,1.974,1.974,0,0,0-.21-.019q-.11,0-.23,0l-.643.034Z" transform="translate(440.382 649.463)" fill="#f71c66"/>
      <path id="Path_2127" data-name="Path 2127" d="M5.534,2.853a4.377,4.377,0,0,1-.067.438,3.658,3.658,0,0,1-.107.4,3.149,3.149,0,0,1-.147.369,2.827,2.827,0,0,1-.187.334,3.108,3.108,0,0,1-.221.3,2.818,2.818,0,0,1-.247.259,2.666,2.666,0,0,1-.575.4,2.871,2.871,0,0,1-.321.144,2.83,2.83,0,0,1-.335.1,2.92,2.92,0,0,1-.348.061,3.143,3.143,0,0,1-.362.02,3.024,3.024,0,0,1-.359-.021A2.6,2.6,0,0,1,1.922,5.6a2.341,2.341,0,0,1-.313-.1,2.231,2.231,0,0,1-.29-.145,2.026,2.026,0,0,1-.261-.185,1.978,1.978,0,0,1-.227-.222A2.083,2.083,0,0,1,.64,4.686a2.351,2.351,0,0,1-.157-.3,2.235,2.235,0,0,1-.117-.333A2.66,2.66,0,0,1,.3,3.69a3.314,3.314,0,0,1-.023-.4A4.238,4.238,0,0,1,.3,2.853a4.4,4.4,0,0,1,.068-.437,3.671,3.671,0,0,1,.107-.4A3.157,3.157,0,0,1,.62,1.647a2.831,2.831,0,0,1,.186-.333,3.1,3.1,0,0,1,.219-.3A2.811,2.811,0,0,1,1.272.759a2.658,2.658,0,0,1,.572-.4,2.852,2.852,0,0,1,.32-.144A2.823,2.823,0,0,1,2.5.109,2.925,2.925,0,0,1,2.845.047,3.162,3.162,0,0,1,3.207.027a3.035,3.035,0,0,1,.357.02A2.619,2.619,0,0,1,3.9.108a2.365,2.365,0,0,1,.313.1A2.258,2.258,0,0,1,4.5.353a2.01,2.01,0,0,1,.262.183,1.963,1.963,0,0,1,.228.221,2.071,2.071,0,0,1,.193.259,2.342,2.342,0,0,1,.159.3,2.234,2.234,0,0,1,.118.333,2.658,2.658,0,0,1,.071.368,3.314,3.314,0,0,1,.024.4A4.242,4.242,0,0,1,5.534,2.853Zm-1.357,0q.014-.135.017-.259t0-.238a2.043,2.043,0,0,0-.025-.217,1.6,1.6,0,0,0-.046-.2,1.361,1.361,0,0,0-.066-.174,1.1,1.1,0,0,0-.085-.152.954.954,0,0,0-.1-.129.9.9,0,0,0-.122-.107A.913.913,0,0,0,3.6,1.3a.993.993,0,0,0-.156-.06A1.169,1.169,0,0,0,3.275,1.2a1.456,1.456,0,0,0-.19-.012,1.5,1.5,0,0,0-.191.012,1.317,1.317,0,0,0-.18.036,1.223,1.223,0,0,0-.169.06,1.215,1.215,0,0,0-.3.19,1.3,1.3,0,0,0-.13.129A1.465,1.465,0,0,0,2,1.77a1.726,1.726,0,0,0-.1.174,1.935,1.935,0,0,0-.087.2q-.039.1-.07.217t-.053.237q-.022.124-.037.258t-.018.258q0,.124,0,.238a2.045,2.045,0,0,0,.025.217,1.605,1.605,0,0,0,.046.2,1.355,1.355,0,0,0,.066.174,1.1,1.1,0,0,0,.085.152.954.954,0,0,0,.1.129.9.9,0,0,0,.122.107.926.926,0,0,0,.14.084,1,1,0,0,0,.156.06A1.166,1.166,0,0,0,2.55,4.5a1.44,1.44,0,0,0,.189.012A1.513,1.513,0,0,0,2.931,4.5a1.32,1.32,0,0,0,.181-.036,1.215,1.215,0,0,0,.169-.06,1.193,1.193,0,0,0,.157-.084,1.218,1.218,0,0,0,.144-.107,1.3,1.3,0,0,0,.13-.129,1.471,1.471,0,0,0,.116-.152,1.737,1.737,0,0,0,.1-.174,1.936,1.936,0,0,0,.087-.2q.039-.1.07-.217t.053-.238Q4.163,2.987,4.177,2.853Zm2.24,2.761L6.984.1l3.758,0-.11,1.083-2.43,0L8.087,2.309h2.191L10.168,3.4H7.976L7.749,5.616Zm4.83.005L11.8.092l3.773,0L15.47,1.173l-2.439,0-.114,1.133h2.2L15.008,3.4h-2.2l-.224,2.225Zm4.849.005L16.644.087l3.869,0-.106,1.087-2.53,0-.112,1.135H20.1L19.992,3.4H17.658l-.112,1.14,2.533,0-.106,1.091Zm5.118.006.539-5.55,2.3,0q.156,0,.3.014a2.52,2.52,0,0,1,.277.042,2.074,2.074,0,0,1,.253.07,1.772,1.772,0,0,1,.229.1,1.606,1.606,0,0,1,.2.124,1.431,1.431,0,0,1,.175.148,1.374,1.374,0,0,1,.147.172,1.428,1.428,0,0,1,.118.2,1.464,1.464,0,0,1,.088.218,1.628,1.628,0,0,1,.055.237,1.922,1.922,0,0,1,.022.256,2.366,2.366,0,0,1-.011.275,2.43,2.43,0,0,1-.042.278,2.059,2.059,0,0,1-.072.256,1.821,1.821,0,0,1-.1.234,1.7,1.7,0,0,1-.131.212,1.778,1.778,0,0,1-.341.355,1.87,1.87,0,0,1-.207.141,2.07,2.07,0,0,1-.231.117,2.32,2.32,0,0,1-.253.092,2.6,2.6,0,0,1-.272.066q-.141.026-.291.039t-.309.013H22.2l.1-1.057h1.206q.076,0,.147-.005t.135-.015q.065-.01.124-.025a1.07,1.07,0,0,0,.112-.035.859.859,0,0,0,.1-.045.745.745,0,0,0,.09-.056.683.683,0,0,0,.078-.066.668.668,0,0,0,.067-.077.652.652,0,0,0,.055-.088.744.744,0,0,0,.043-.1.9.9,0,0,0,.031-.111,1.124,1.124,0,0,0,.018-.123,1.1,1.1,0,0,0,.005-.123.836.836,0,0,0-.009-.112.657.657,0,0,0-.023-.1.548.548,0,0,0-.038-.09.524.524,0,0,0-.117-.148.584.584,0,0,0-.079-.058.7.7,0,0,0-.093-.048.877.877,0,0,0-.106-.037,1.119,1.119,0,0,0-.119-.027q-.063-.011-.132-.016t-.145-.005h-.664l-.432,4.473ZM24.6,3.092l1.148,2.544-1.474,0L23.156,3.092Z" transform="translate(441.306 672.184)" fill="#f71c66"/>
      <g id="Group_40234" data-name="Group 40234" transform="translate(434.255 657.175)">
        <path id="Path_2124" data-name="Path 2124" d="M1.416,1.532,41.06,0a.946.946,0,0,1,.276.04A.768.768,0,0,1,41.56.15a.54.54,0,0,1,.152.162.39.39,0,0,1,.056.2L38.936,12.887a.39.39,0,0,1-.056.2.54.54,0,0,1-.152.162.768.768,0,0,1-.225.109.946.946,0,0,1-.276.04H.708a.946.946,0,0,1-.276-.04.768.768,0,0,1-.225-.109.54.54,0,0,1-.152-.162.39.39,0,0,1-.056-.2L.708,2.043a.391.391,0,0,1,.056-.2.54.54,0,0,1,.152-.162.768.768,0,0,1,.225-.109A.946.946,0,0,1,1.416,1.532Z" fill="#f71c66"/>
        <path id="Path_2126" data-name="Path 2126" d="M.586,1.406.729.059,6.518.045l-.14,1.35L4.3,1.4,3.718,6.935H2.082L2.664,1.4ZM9.486.038l-.708,6.9H7.112L7.824.042Zm1.535,0,2.064,0L14.409,4.3h.081L16.677.021,18.751.015l-.686,6.925H16.43l.424-4.255H16.8L14.71,6.9H13.668L12.434,2.667h-.057l-.433,4.271H10.317Zm8.594,6.907L20.3.012,25.148,0l-.131,1.36-3.173.006L21.7,2.786l2.926,0L24.5,4.149l-2.927,0-.14,1.427h3.178l-.132,1.366Z" transform="translate(11.396 3.42)" fill="#fff"/>
      </g>
      <g id="Group_40231" data-name="Group 40231" transform="translate(108 -4.364)">
        <g id="Group_40229" data-name="Group 40229" transform="translate(307.41 651.163)">
          <g id="Group_40227" data-name="Group 40227" transform="translate(0)">
            <path id="Path_2118" data-name="Path 2118" d="M39.671,62.763a2,2,0,1,0,2-2,2,2,0,0,0-2,2" transform="translate(-27.979 -43.028)" fill="none"/>
            <rect id="Rectangle_9818" data-name="Rectangle 9818" width="10.414" height="3.794" rx="1.897" transform="translate(8.427 0)" fill="#4285f4"/>
            <rect id="Rectangle_9820" data-name="Rectangle 9820" width="6.121" height="2.343" transform="translate(10.573 4.314)" fill="#4285f4"/>
            <path id="Path_2114" data-name="Path 2114" d="M0,34.929A13.634,13.634,0,1,0,13.634,21.3,13.634,13.634,0,0,0,0,34.929" transform="translate(0 -15.194)" fill="#f71c66"/>
            <path id="Path_2114_-_Outline" data-name="Path 2114 - Outline" d="M13.634,49.063a14.134,14.134,0,1,1,9.994-4.14A14.042,14.042,0,0,1,13.634,49.063Zm0-27.268a13.134,13.134,0,1,0,9.287,3.847A13.048,13.048,0,0,0,13.634,21.8Z" transform="translate(0 -15.194)" fill="#fff"/>
            <path id="Path_2115" data-name="Path 2115" d="M33.065,44.888a9.472,9.472,0,1,1-9.472-9.472,9.472,9.472,0,0,1,9.472,9.472" transform="translate(-9.959 -25.154)" fill="#fff"/>
            <path id="Path_2116" data-name="Path 2116" d="M27.11,39.7A8.709,8.709,0,1,1,18.4,48.406,8.719,8.719,0,0,1,27.11,39.7Zm0,16.078a7.37,7.37,0,1,0-7.37-7.37A7.378,7.378,0,0,0,27.11,55.775Z" transform="translate(-13.651 -28.671)" fill="#4285f4"/>
            <path id="Path_2117" data-name="Path 2117" d="M40.978,53.512h.809l-.42-6.471Z" transform="translate(-27.688 -33.777)" fill="#4285f4"/>
            <path id="Path_2128" data-name="Path 2128" d="M40.978,53.512h1l-.518-6.471Z" transform="translate(66.97 -21.432) rotate(90)" fill="#4285f4"/>
          </g>
        </g>
      </g>
    </g>
    <circle id="Ellipse_19" data-name="Ellipse 19" cx="1" cy="1" r="1" transform="translate(618.159 665.825)" fill="#4285f4"/>
  </g>
</svg>
