<svg xmlns="http://www.w3.org/2000/svg" xmlns:xlink="http://www.w3.org/1999/xlink" width="64" height="60" viewBox="0 0 64 60">
  <defs>
    <clipPath id="clip-path">
      <rect id="Rectangle_589" data-name="Rectangle 589" width="64" height="60" transform="translate(1086 1039)" fill="#fff" stroke="#707070" stroke-width="1"/>
    </clipPath>
  </defs>
  <g id="Mask_Group_29" data-name="Mask Group 29" transform="translate(-1086 -1039)" clip-path="url(#clip-path)">
    <g id="noun-link-3370529" transform="translate(1074.071 1038.807)">
      <path id="Path_1234" data-name="Path 1234" d="M49.682,33.113l10.512-10.52a9.593,9.593,0,0,0,0-13.565L58.907,7.742a9.824,9.824,0,0,0-13.568,0L34.824,18.252a9.56,9.56,0,0,0-1.815,10.913l-3.817,3.822a9.809,9.809,0,0,0-10.881,1.781L7.8,45.288a9.593,9.593,0,0,0,0,13.565l1.285,1.285a9.6,9.6,0,0,0,13.568,0L33.167,49.629a9.563,9.563,0,0,0,1.812-10.918l3.777-3.775a9.434,9.434,0,0,0,4.146.985A9.535,9.535,0,0,0,49.682,33.113Zm-9.2-7.928a1.593,1.593,0,0,1,2.257,0,1.613,1.613,0,0,1,0,2.263L27.5,42.688a1.633,1.633,0,0,1-2.255,0,1.607,1.607,0,0,1,0-2.26Zm-9.072,22.69L20.9,58.387a7.286,7.286,0,0,1-10.065,0L9.548,57.1a7.113,7.113,0,0,1,0-10.067L20.057,36.516a7.077,7.077,0,0,1,5.034-2.081,6.752,6.752,0,0,1,2.223.421l-3.825,3.822a4.084,4.084,0,0,0,.005,5.766,4.076,4.076,0,0,0,5.753-.005L33.1,40.594A7.083,7.083,0,0,1,31.415,47.874ZM44.5,29.191a4.1,4.1,0,0,0-.005-5.763,4.166,4.166,0,0,0-5.758.005l-3.843,3.843A7.088,7.088,0,0,1,36.57,20L47.085,9.486a7.122,7.122,0,0,1,10.067,0l1.285,1.285a7.116,7.116,0,0,1,.005,10.067L47.928,31.356A7.24,7.24,0,0,1,40.684,33Z" transform="translate(8.031 -3.841)" fill="#2a353d"/>
      <path id="Path_1235" data-name="Path 1235" d="M14.306,16.059a1.239,1.239,0,1,0,1.752-1.752l-5.89-5.89a1.238,1.238,0,1,0-1.749,1.752Z" transform="translate(13.043 1.113)" fill="#2a353d"/>
      <path id="Path_1236" data-name="Path 1236" d="M14.841,17.174H14.9a1.238,1.238,0,0,0,.068-2.473l-9.1-.479a1.211,1.211,0,0,0-1.3,1.172,1.238,1.238,0,0,0,1.17,1.3Z" transform="translate(7.355 11.182)" fill="#2a353d"/>
      <path id="Path_1237" data-name="Path 1237" d="M15.934,16.143a.55.55,0,0,0,.066,0,1.238,1.238,0,0,0,1.167-1.3l-.479-9.093a1.236,1.236,0,1,0-2.468.129l.479,9.1A1.237,1.237,0,0,0,15.934,16.143Z" transform="translate(23.112 -4.574)" fill="#2a353d"/>
      <path id="Path_1238" data-name="Path 1238" d="M22.882,21.132a1.238,1.238,0,0,0-1.749,1.752l5.884,5.887a1.238,1.238,0,1,0,1.749-1.752Z" transform="translate(33.819 21.89)" fill="#2a353d"/>
      <path id="Path_1239" data-name="Path 1239" d="M17.83,23.038a1.237,1.237,0,0,0-1.167,1.3l.479,9.1a1.237,1.237,0,0,0,1.235,1.172.551.551,0,0,0,.066,0,1.236,1.236,0,0,0,1.167-1.3l-.477-9.1A1.2,1.2,0,0,0,17.83,23.038Z" transform="translate(27.106 25.587)" fill="#2a353d"/>
      <path id="Path_1240" data-name="Path 1240" d="M33.433,17.146l-9.1-.482a1.238,1.238,0,0,0-.132,2.473l9.1.479h.066a1.236,1.236,0,0,0,.068-2.471Z" transform="translate(37.519 15.174)" fill="#2a353d"/>
    </g>
  </g>
</svg>
