<svg width="22" height="30" viewBox="0 0 22 30" fill="none" xmlns="http://www.w3.org/2000/svg">
<path d="M9.652 0.960938C6.37661 1.54102 3.92739 3.90234 3.18911 7.17773C3.08364 7.64648 3.07192 7.96875 3.04849 10.002L3.01919 12.2988L2.80825 12.334C2.05825 12.457 1.63638 12.6445 1.17349 13.0781C0.827783 13.4062 0.552392 13.9043 0.452783 14.373C0.411767 14.584 0.394189 16.5938 0.405908 20.918L0.423486 27.1582L0.552392 27.4805C0.821923 28.1309 1.38442 28.6934 2.03481 28.9629L2.35708 29.0918H10.9997H19.6422L19.9645 28.9629C20.6149 28.6934 21.1774 28.1309 21.4469 27.4805L21.5758 27.1582L21.5934 20.918C21.6051 16.5938 21.5875 14.584 21.5465 14.373C21.4469 13.9043 21.1715 13.4062 20.8258 13.0781C20.3629 12.6445 19.9411 12.457 19.1911 12.334L18.9801 12.2988L18.9508 10.002C18.9274 7.96875 18.9157 7.64648 18.8102 7.17773C18.1012 4.01953 15.8161 1.72266 12.6989 1.02539C12.1071 0.890625 10.2614 0.855469 9.652 0.960938ZM12.2477 2.81836C14.0641 3.1875 15.6637 4.41211 16.5016 6.07617C17.0465 7.16016 17.152 7.86914 17.152 10.3828V12.3047H10.9997H4.84731V10.3828C4.84731 8.29102 4.90591 7.66992 5.16958 6.88477C5.73794 5.19141 7.04458 3.80273 8.72036 3.11719C9.73989 2.69531 11.0993 2.58398 12.2477 2.81836ZM19.3786 14.2676C19.818 14.5254 19.7887 14.0977 19.7887 20.7422C19.7887 26.3906 19.7829 26.7012 19.6833 26.8887C19.6247 27 19.484 27.1406 19.3727 27.1992C19.1852 27.2988 18.8043 27.3047 10.9997 27.3047C3.19497 27.3047 2.81411 27.2988 2.62661 27.1992C2.51528 27.1406 2.37466 27 2.31606 26.8887C2.21645 26.7012 2.2106 26.3906 2.2106 20.7539C2.2106 14.3145 2.19888 14.5371 2.527 14.3203C2.61489 14.2676 2.76724 14.2031 2.8727 14.1797C2.97231 14.1504 6.68716 14.1387 11.1168 14.1387C19.1032 14.1504 19.1735 14.1504 19.3786 14.2676Z" fill="#0F0F0F"/>
<path d="M10.15 16.8574C9.32971 17.1504 8.78479 17.6836 8.49768 18.457C8.02893 19.7109 8.54456 21.1113 9.693 21.7266L10.0504 21.9141L10.0739 23.0156C10.0914 23.9824 10.1032 24.1348 10.2086 24.3105C10.5367 24.8613 11.4625 24.8613 11.7907 24.3105C11.8961 24.1348 11.9078 23.9824 11.9254 23.0156L11.9489 21.9141L12.2946 21.7324C13.4371 21.123 13.9528 19.7578 13.5133 18.4805C13.2965 17.8359 12.8395 17.332 12.1774 17.0039C11.7614 16.7988 11.7028 16.7871 11.0934 16.7695C10.5895 16.7578 10.3785 16.7812 10.15 16.8574ZM11.4508 18.6914C11.8141 18.9082 11.9489 19.4824 11.7262 19.8633C11.6149 20.0508 11.2282 20.2734 11.0114 20.2734C10.5543 20.2734 10.1676 19.8926 10.1676 19.4297C10.1676 18.9199 10.5016 18.5742 10.9996 18.5742C11.1578 18.5742 11.3395 18.6211 11.4508 18.6914Z" fill="#0F0F0F"/>
</svg>
