<svg xmlns="http://www.w3.org/2000/svg" width="21.437" height="19.996" viewBox="0 0 21.437 19.996">
  <g id="Group_627" data-name="Group 627" transform="translate(13373.33 18894.434)">
    <g id="Group_625" data-name="Group 625" transform="translate(-13373.33 -18894.434)">
      <g id="Group_624" data-name="Group 624">
        <g id="Group_622" data-name="Group 622">
          <g id="Group_621" data-name="Group 621">
            <g id="noun-stock-market-6762451" transform="translate(16.716 16.936) rotate(180)">
              <path id="Path_19958" data-name="Path 19958" d="M.708,10.213a.741.741,0,0,0,.6-.3L4.7,4.387l3.79,2.156h0a.745.745,0,0,0,1.115-.1L13.439,1.1h0a.66.66,0,0,0,.139-.528.684.684,0,0,0-.31-.458.763.763,0,0,0-.564-.1.725.725,0,0,0-.466.318L8.889,4.974,5.1,2.817a.745.745,0,0,0-1.115.1L.107,9.139a.665.665,0,0,0,.194.917.736.736,0,0,0,.407.157Z" transform="translate(0 0)" fill="#2a353d"/>
            </g>
            <path id="Path_19960" data-name="Path 19960" d="M-13357.571-18874.762h-20.719l-.039-19.328a.673.673,0,0,1,.68-.668.673.673,0,0,1,.68.668l.038,17.99h19.36a.673.673,0,0,1,.679.668A.674.674,0,0,1-13357.571-18874.762Z" transform="translate(13378.329 18894.758)" fill="#2a353d"/>
          </g>
        </g>
      </g>
    </g>
    <path id="Path_19959" data-name="Path 19959" d="M-13351.677-18885.492a.681.681,0,0,1-.672-.58l-.583-3.93-4.021,1.346a.7.7,0,0,1-.216.033.682.682,0,0,1-.646-.465.677.677,0,0,1,.431-.857l4.789-1.6a.676.676,0,0,1,.571.064.692.692,0,0,1,.317.482l.7,4.73a.682.682,0,0,1-.573.771A.589.589,0,0,1-13351.677-18885.492Z" transform="translate(-3.103 1.029)" fill="#2a353d"/>
  </g>
</svg>
