<svg xmlns="http://www.w3.org/2000/svg" xmlns:xlink="http://www.w3.org/1999/xlink" width="193" height="50" viewBox="0 0 193 50">
  <defs>
    <clipPath id="clip-path">
      <rect id="Rectangle_19" data-name="Rectangle 19" width="193" height="50" fill="#fff"/>
    </clipPath>
  </defs>
  <g id="Mask_Group_8" data-name="Mask Group 8" clip-path="url(#clip-path)">
    <g id="g10" transform="translate(15.629 64.641)">
      <g id="g12" transform="translate(0 -56.641)">
        <path id="path14" d="M135.727-22.752h2.936V-55.04h-2.936v32.287Z" transform="translate(-53.915 56.005)" fill="#ea293c"/>
        <path id="path16" d="M202.83-55.039H212.2v2.691h-3.187v29.6h-2.951v-29.6H202.83v-2.691" transform="translate(-80.57 56.005)" fill="#ea293c"/>
        <path id="path18" d="M124.446-55.039v32.287H121.37l-4.4-19.612v19.612h-2.884V-55.039h2.654l4.82,21.383V-55.039h2.885" transform="translate(-45.319 56.005)" fill="#ea293c"/>
        <path id="path20" d="M15.259-55.039v32.287H12.374V-50.429L8.813-22.752h-2.4l-3.5-27.677v27.677H0V-55.039H4.914L7.728-35.577l2.654-19.463h4.877" transform="translate(0 56.005)" fill="#ea293c"/>
        <path id="path22" d="M62.428-21.076a18.609,18.609,0,0,0,3.633-11.078A18.687,18.687,0,0,0,47.375-50.839,18.688,18.688,0,0,0,28.687-32.153a18.621,18.621,0,0,0,3.63,11.078H36.2a15.674,15.674,0,0,1-4.565-11.078A15.736,15.736,0,0,1,47.375-47.888,15.736,15.736,0,0,1,63.111-32.153a15.7,15.7,0,0,1-4.556,11.078h3.873" transform="translate(-11.395 54.336)" fill="#ea293c"/>
        <path id="path24" d="M224.506-32.944l-1.954-17.8-1.8,17.8Zm3.9,10.192h-2.872l-.757-7.273h-4.3l-.7,7.273h-2.927l3.308-32.287h4.478l3.77,32.287" transform="translate(-86.139 56.005)" fill="#ea293c"/>
        <path id="path26" d="M173.348-27.475c0,1.457-.854,2.2-1.835,2.2s-1.835-.742-1.835-2.2V-51.86c0-1.454.855-2.2,1.835-2.2s1.835.743,1.835,2.2l-.006,1.166v6.087H176.3V-49.3l-.008-1.355c-.02-4.025-1.594-5.941-4.877-5.941-2.925,0-4.828,2.074-4.828,5.258l0,1.185v20.211l0,1.307c0,4.135,1.608,6.154,4.9,6.154s4.813-1.982,4.813-6.24V-40.468h-5.424v2.828h2.471v9.095l.006,1.071" transform="translate(-66.172 56.623)" fill="#ea293c"/>
        <path id="path28" d="M193.456-28.268v-8.394l-6.731-5.026v-9.38c0-3.686,1.661-5.573,4.911-5.573,3.3,0,4.8,1.872,4.819,6.015l.008,1.288v4.757h-3.006v-6.382l-.009-.915c0-1.454-.847-2.2-1.814-2.2s-1.817.743-1.817,2.2v8.79l6.647,5.018v9.708c0,3.8-1.689,5.828-4.847,5.828-3.2,0-4.862-1.917-4.882-5.618l-.008-1.278v-6.318h3.091v8.254c0,1.457.846,2.2,1.817,2.2s1.814-.742,1.814-2.2l.009-.775" transform="translate(-74.173 56.641)" fill="#ea293c"/>
        <path id="path30" d="M96.935-52.5v12.785h1.036c1.9,0,2.8-.873,2.8-2.726v-6.58c0-2.65-.613-3.479-2.575-3.479Zm7.407,29.746H101.4a9.775,9.775,0,0,1-.6-3.474l-.024-1.653-.011-.835v-6.3a1.705,1.705,0,0,0-1.734-1.925h-2.1v14.19H94.052V-55.039h3.761c4.224,0,5.851,1.544,5.851,5.676V-43.3c0,2.716-.455,3.856-2.58,4.64l.09.03c2.006.586,2.456,1.348,2.479,3.893l.011,1.173v5.895a14.062,14.062,0,0,0,.678,4.919" transform="translate(-37.36 56.005)" fill="#ea293c"/>
        <path id="path32" d="M240.173-52.5v12.785h1.038c1.9,0,2.8-.873,2.8-2.726v-6.58c0-2.65-.613-3.479-2.578-3.479Zm7.407,29.746h-2.942a9.8,9.8,0,0,1-.6-3.474l-.024-1.653-.008-.835v-6.3a1.707,1.707,0,0,0-1.738-1.925h-2.1v14.19H237.29V-55.039h3.761c4.226,0,5.849,1.544,5.849,5.676V-43.3c0,2.716-.453,3.856-2.577,4.64l.087.03c2,.586,2.459,1.348,2.48,3.893l.01,1.173v5.895a14.072,14.072,0,0,0,.68,4.919" transform="translate(-94.259 56.005)" fill="#ea293c"/>
        <path id="path34" d="M155.339-55.039v32.287h-3.077l-4.395-19.612v19.612h-2.886V-55.039h2.655l4.817,21.383V-55.039h2.886" transform="translate(-57.591 56.005)" fill="#ea293c"/>
        <path id="path36" d="M258.321-52.025a3.264,3.264,0,0,1,3.26-3.263,3.265,3.265,0,0,1,3.262,3.263,3.265,3.265,0,0,1-3.262,3.264A3.265,3.265,0,0,1,258.321-52.025Zm-.375,0a3.64,3.64,0,0,0,3.635,3.637,3.642,3.642,0,0,0,3.638-3.637,3.642,3.642,0,0,0-3.638-3.637,3.64,3.64,0,0,0-3.635,3.637" transform="translate(-102.464 56.252)" fill="#ea293c"/>
        <path id="path38" d="M262.345-50.918h1.073c.444,0,.756-.142.756-.62s-.312-.62-.756-.62h-1.073Zm-.475-1.654h1.621c.565,0,1.156.216,1.156,1.035a.928.928,0,0,1-.832,1l.989,1.552h-.574l-.967-1.522h-.918v1.522h-.475v-3.589" transform="translate(-104.023 55.025)" fill="#ea293c"/>
      </g>
    </g>
  </g>
</svg>
