<svg xmlns="http://www.w3.org/2000/svg" xmlns:xlink="http://www.w3.org/1999/xlink" width="193" height="50" viewBox="0 0 193 50">
  <defs>
    <clipPath id="clip-path">
      <rect id="Rectangle_19" data-name="Rectangle 19" width="193" height="50" fill="#fff"/>
    </clipPath>
  </defs>
  <g id="Mask_Group_8" data-name="Mask Group 8" clip-path="url(#clip-path)">
    <g id="g10" transform="translate(14.858 7.744)">
      <path id="Path_64" data-name="Path 64" d="M104.89,33.636h2.933V1.557H104.89Z" transform="translate(-22.275 -0.261)" fill="#fff"/>
      <path id="Path_65" data-name="Path 65" d="M156.32,1.557h9.365V4.231H162.5V33.636h-2.949V4.231H156.32Z" transform="translate(-33.287 -0.261)" fill="#fff"/>
      <path id="Path_66" data-name="Path 66" d="M98.655,1.557V33.636H95.581l-4.4-19.485V33.636H88.3V1.557h2.652L95.772,22.8V1.557Z" transform="translate(-18.723 -0.261)" fill="#fff"/>
      <path id="Path_67" data-name="Path 67" d="M16.111,1.557V33.636H13.227V6.138l-3.559,27.5h-2.4l-3.5-27.5v27.5H.862V1.557h4.91L8.584,20.894,11.237,1.557Z" transform="translate(0 -0.261)" fill="#fff"/>
      <path id="Path_68" data-name="Path 68" d="M56.566,34.329A18.418,18.418,0,0,0,60.2,23.323a18.674,18.674,0,0,0-37.347,0,18.431,18.431,0,0,0,3.628,11.006H30.36a15.72,15.72,0,1,1,22.335,0Z" transform="translate(-4.708 -0.947)" fill="#fff"/>
      <path id="Path_69" data-name="Path 69" d="M174.716,23.51,172.764,5.825l-1.8,17.685Zm3.895,10.126h-2.87l-.757-7.226H170.69l-.7,7.226h-2.925l3.305-32.079h4.475Z" transform="translate(-35.588 -0.261)" fill="#fff"/>
      <path id="Path_70" data-name="Path 70" d="M135.3,29.3c0,1.448-.854,2.184-1.833,2.184s-1.833-.737-1.833-2.184V5.077c0-1.445.854-2.183,1.833-2.183s1.833.738,1.833,2.183l-.006,1.158v6.048h2.952V7.62l-.008-1.347c-.02-4-1.592-5.9-4.873-5.9-2.923,0-4.825,2.061-4.825,5.224l0,1.178v20.08l0,1.3c0,4.108,1.607,6.114,4.9,6.114s4.81-1.969,4.81-6.2V16.4h-5.42V19.2h2.468V28.24Z" transform="translate(-27.339 -0.007)" fill="#fff"/>
      <path id="Path_71" data-name="Path 71" d="M150.7,28.527v-8.34l-6.727-4.994V5.874c0-3.663,1.661-5.537,4.908-5.537,3.294,0,4.793,1.86,4.816,5.976l.007,1.28v4.726h-3V5.979l-.009-.909c0-1.445-.846-2.183-1.813-2.183s-1.816.738-1.816,2.183V13.8l6.642,4.985v9.645c0,3.773-1.688,5.791-4.843,5.791-3.2,0-4.858-1.905-4.879-5.582l-.009-1.27V21.1h3.089v8.2c0,1.447.846,2.184,1.816,2.184s1.813-.737,1.813-2.184Z" transform="translate(-30.644)" fill="#fff"/>
      <path id="Path_72" data-name="Path 72" d="M75.829,4.083v12.7h1.035c1.9,0,2.794-.867,2.794-2.708V7.54c0-2.633-.613-3.457-2.573-3.457Zm7.4,29.553H80.29a9.66,9.66,0,0,1-.6-3.451l-.023-1.642-.011-.83V21.45a1.7,1.7,0,0,0-1.733-1.913h-2.1v14.1H72.948V1.557h3.758c4.221,0,5.846,1.534,5.846,5.64v6.022c0,2.7-.454,3.831-2.578,4.61l.09.03c2,.582,2.454,1.34,2.477,3.868l.011,1.165v5.857A13.9,13.9,0,0,0,83.23,33.636Z" transform="translate(-15.435 -0.261)" fill="#fff"/>
      <path id="Path_73" data-name="Path 73" d="M185.612,4.083v12.7h1.037c1.9,0,2.795-.867,2.795-2.708V7.54c0-2.633-.613-3.457-2.577-3.457Zm7.4,29.553h-2.94a9.681,9.681,0,0,1-.6-3.451l-.024-1.642-.008-.83V21.45a1.7,1.7,0,0,0-1.737-1.913h-2.094v14.1h-2.88V1.557h3.757c4.223,0,5.845,1.534,5.845,5.64v6.022c0,2.7-.453,3.831-2.575,4.61l.087.03c2,.582,2.457,1.34,2.478,3.868l.01,1.165v5.857A13.911,13.911,0,0,0,193.014,33.636Z" transform="translate(-38.943 -0.261)" fill="#fff"/>
      <path id="Path_74" data-name="Path 74" d="M122.333,1.557V33.636h-3.075l-4.391-19.485V33.636h-2.884V1.557h2.653L119.449,22.8V1.557Z" transform="translate(-23.794 -0.261)" fill="#fff"/>
      <path id="Path_75" data-name="Path 75" d="M198.939,4.7A3.258,3.258,0,1,1,202.2,7.939,3.252,3.252,0,0,1,198.939,4.7Zm-.376,0A3.634,3.634,0,1,0,202.2,1.083,3.627,3.627,0,0,0,198.563,4.7Z" transform="translate(-42.333 -0.16)" fill="#fff"/>
      <path id="Path_76" data-name="Path 76" d="M202.045,5.081h1.073c.443,0,.755-.141.755-.616s-.312-.616-.755-.616h-1.073Zm-.474-1.644h1.62c.565,0,1.155.215,1.155,1.028a.923.923,0,0,1-.831,1L204.5,7h-.574l-.967-1.512h-.917V7h-.474Z" transform="translate(-42.977 -0.664)" fill="#fff"/>
    </g>
  </g>
</svg>
