<svg xmlns="http://www.w3.org/2000/svg" width="18.138" height="19.998" viewBox="0 0 18.138 19.998">
  <g id="noun-news-5361252" transform="translate(128.75 -105.25)">
    <g id="Group_629" data-name="Group 629" transform="translate(-128.75 105.25)">
      <path id="Path_19960" data-name="Path 19960" d="M20.388,4.738V17.76A3.488,3.488,0,0,1,16.9,21.248H5.738A3.488,3.488,0,0,1,2.25,17.76V4.738A3.488,3.488,0,0,1,5.738,1.25H16.9A3.488,3.488,0,0,1,20.388,4.738Zm-1.4,0A2.092,2.092,0,0,0,16.9,2.645H5.738A2.092,2.092,0,0,0,3.645,4.738V17.76a2.092,2.092,0,0,0,2.093,2.093H16.9a2.092,2.092,0,0,0,2.093-2.093Z" transform="translate(-2.25 -1.25)" fill="#2a353d" fill-rule="evenodd"/>
      <path id="Path_19961" data-name="Path 19961" d="M11.6,5.25a.7.7,0,0,1,0,1.4H6.948a.7.7,0,0,1,0-1.4Z" transform="translate(-2.529 2.191)" fill="#2a353d" fill-rule="evenodd"/>
      <path id="Path_19963" data-name="Path 19963" d="M16.249,13.25a.7.7,0,1,1,0,1.4h-9.3a.7.7,0,1,1,0-1.4Z" transform="translate(-2.529 -2.088)" fill="#2a353d" fill-rule="evenodd"/>
      <path id="Path_19964" data-name="Path 19964" d="M16.249,17.25a.7.7,0,1,1,0,1.4h-9.3a.7.7,0,1,1,0-1.4Z" transform="translate(-2.529 -2.368)" fill="#2a353d" fill-rule="evenodd"/>
    </g>
  </g>
</svg>
