<svg xmlns="http://www.w3.org/2000/svg" width="232.303" height="120.147" viewBox="0 0 232.303 120.147">
  <g id="Group_90" data-name="Group 90" transform="translate(15367.641 7913)">
    <g id="Group_63" data-name="Group 63" transform="translate(63)">
      <g id="Group_62" data-name="Group 62" transform="translate(0 5.5)">
        <line id="Line_8" data-name="Line 8" y2="87.149" transform="translate(-15392.5 -7918.5)" fill="none" stroke="#808191" stroke-width="1"/>
        <line id="Line_9" data-name="Line 9" y2="87.149" transform="translate(-15327.946 -7918.5)" fill="none" stroke="#808191" stroke-width="1"/>
        <line id="Line_10" data-name="Line 10" y2="87.149" transform="translate(-15263.392 -7918.5)" fill="none" stroke="#808191" stroke-width="1"/>
        <line id="Line_11" data-name="Line 11" y2="87.149" transform="translate(-15198.838 -7918.5)" fill="none" stroke="#808191" stroke-width="1"/>
      </g>
      <g id="Group_85" data-name="Group 85">
        <line id="Line_12" data-name="Line 12" x2="193.662" transform="translate(-15392.5 -7885.903)" fill="none" stroke="#808191" stroke-width="1"/>
      </g>
      <g id="Group_86" data-name="Group 86">
        <line id="Line_15" data-name="Line 15" x2="193.662" transform="translate(-15392.5 -7855.877)" fill="none" stroke="#808191" stroke-width="1"/>
        <line id="Line_16" data-name="Line 16" x2="193.662" transform="translate(-15392.5 -7825.851)" fill="none" stroke="#808191" stroke-width="1"/>
      </g>
      <path id="_1" data-name="1" d="M1.86,0V-6.756L.372-6.372V-7.488L2.436-8.4h.9V0Z" transform="translate(-15362.088 -7895)" fill="#808191"/>
      <path id="_4" data-name="4" d="M4.68,0V-1.6H.516V-2.748L4.476-8.4H6.108v5.544h1.14V-1.6H6.108V0ZM2.064-2.856h2.7v-3.96Z" transform="translate(-15363.828 -7866.461)" fill="#808191"/>
      <path id="_7" data-name="7" d="M1.428,0,4.56-7.164H.336V-8.4h5.7v1.032L2.928,0Z" transform="translate(-15363.216 -7836.851)" fill="#808191"/>
      <path id="_2" data-name="2" d="M.648,0V-1.044q.8-.636,1.536-1.272T3.5-3.576A6.3,6.3,0,0,0,4.428-4.8a2.36,2.36,0,0,0,.336-1.152,1.707,1.707,0,0,0-.132-.672,1.131,1.131,0,0,0-.414-.5,1.311,1.311,0,0,0-.75-.192,1.4,1.4,0,0,0-.774.2,1.255,1.255,0,0,0-.474.546,1.845,1.845,0,0,0-.156.774H.672a3.047,3.047,0,0,1,.4-1.524,2.351,2.351,0,0,1,1.008-.918A3.252,3.252,0,0,1,3.5-8.544a3.114,3.114,0,0,1,1.452.312,2.221,2.221,0,0,1,.924.876A2.629,2.629,0,0,1,6.2-6.024a3.069,3.069,0,0,1-.21,1.11,4.583,4.583,0,0,1-.582,1.056,9.059,9.059,0,0,1-.834.984q-.462.474-.954.9t-.948.786H6.432V0Z" transform="translate(-15298.462 -7895)" fill="#808191"/>
      <path id="_5" data-name="5" d="M3.8.144A3.521,3.521,0,0,1,2.25-.174,2.533,2.533,0,0,1,1.224-1.05,2.746,2.746,0,0,1,.78-2.316h1.4a1.5,1.5,0,0,0,.54.882A1.648,1.648,0,0,0,3.8-1.08a1.47,1.47,0,0,0,.84-.234A1.6,1.6,0,0,0,5.19-1.95a2.023,2.023,0,0,0,.2-.906,1.939,1.939,0,0,0-.2-.9,1.455,1.455,0,0,0-.546-.594,1.525,1.525,0,0,0-.8-.21,1.75,1.75,0,0,0-.966.258,1.537,1.537,0,0,0-.582.642H.9L1.6-8.4H6.228v1.26H2.676L2.292-5.064a2.065,2.065,0,0,1,.732-.492,2.67,2.67,0,0,1,1.044-.192,2.736,2.736,0,0,1,1.164.234,2.545,2.545,0,0,1,.852.63,2.638,2.638,0,0,1,.522.918,3.449,3.449,0,0,1,.174,1.1,3.3,3.3,0,0,1-.21,1.194,2.794,2.794,0,0,1-.606.954,2.8,2.8,0,0,1-.942.636A3.132,3.132,0,0,1,3.8.144Z" transform="translate(-15298.708 -7866.461)" fill="#808191"/>
      <path id="_8" data-name="8" d="M3.756.144A3.721,3.721,0,0,1,2.22-.162a2.628,2.628,0,0,1-1.086-.864,2.188,2.188,0,0,1-.4-1.314,2.409,2.409,0,0,1,.18-.936,2.17,2.17,0,0,1,.516-.75,2.166,2.166,0,0,1,.78-.474,2.259,2.259,0,0,1-.93-.738A1.772,1.772,0,0,1,.936-6.3,2.021,2.021,0,0,1,1.26-7.416a2.324,2.324,0,0,1,.954-.816,3.451,3.451,0,0,1,1.542-.312,3.412,3.412,0,0,1,1.536.312,2.332,2.332,0,0,1,.948.816A2.021,2.021,0,0,1,6.564-6.3a1.807,1.807,0,0,1-.342,1.062,2.137,2.137,0,0,1-.93.738,2.055,2.055,0,0,1,.786.48,2.37,2.37,0,0,1,.516.75,2.3,2.3,0,0,1,.186.93,2.166,2.166,0,0,1-.408,1.314,2.681,2.681,0,0,1-1.086.864A3.68,3.68,0,0,1,3.756.144Zm0-1.212a1.651,1.651,0,0,0,1.194-.39,1.32,1.32,0,0,0,.4-.99,1.294,1.294,0,0,0-.426-1.038,1.737,1.737,0,0,0-1.17-.366,1.785,1.785,0,0,0-1.182.366,1.277,1.277,0,0,0-.438,1.038,1.3,1.3,0,0,0,.414.99A1.7,1.7,0,0,0,3.756-1.068Zm0-3.876A1.427,1.427,0,0,0,4.77-5.286a1.125,1.125,0,0,0,.366-.858A1.136,1.136,0,0,0,4.77-7.05a1.5,1.5,0,0,0-1.014-.318,1.5,1.5,0,0,0-1.014.318,1.136,1.136,0,0,0-.366.906,1.12,1.12,0,0,0,.366.864A1.443,1.443,0,0,0,3.756-4.944Z" transform="translate(-15298.75 -7836.851)" fill="#808191"/>
      <path id="_3" data-name="3" d="M3.576.144A3.673,3.673,0,0,1,2.088-.15a2.431,2.431,0,0,1-1.074-.9A2.851,2.851,0,0,1,.588-2.58H2a1.671,1.671,0,0,0,.2.762,1.359,1.359,0,0,0,.534.54,1.673,1.673,0,0,0,.84.2,1.645,1.645,0,0,0,.8-.18,1.205,1.205,0,0,0,.5-.492,1.444,1.444,0,0,0,.168-.7,1.26,1.26,0,0,0-.228-.774,1.393,1.393,0,0,0-.624-.462,2.44,2.44,0,0,0-.9-.156H2.664V-5.028h.624a1.789,1.789,0,0,0,1.08-.306,1.037,1.037,0,0,0,.42-.894A1.038,1.038,0,0,0,4.47-7.02a1.27,1.27,0,0,0-.906-.3,1.293,1.293,0,0,0-.966.36,1.356,1.356,0,0,0-.39.888H.792a2.643,2.643,0,0,1,.39-1.314,2.337,2.337,0,0,1,.966-.858,3.208,3.208,0,0,1,1.428-.3,3.143,3.143,0,0,1,1.44.3,2.165,2.165,0,0,1,.894.8,2.087,2.087,0,0,1,.306,1.1,1.983,1.983,0,0,1-.18.852,1.858,1.858,0,0,1-.486.642,1.944,1.944,0,0,1-.714.378,2.05,2.05,0,0,1,.834.372,1.938,1.938,0,0,1,.576.7,2.213,2.213,0,0,1,.21.99,2.523,2.523,0,0,1-.33,1.266,2.4,2.4,0,0,1-.972.93A3.275,3.275,0,0,1,3.576.144Z" transform="translate(-15234.594 -7895)" fill="#808191"/>
      <path id="_6" data-name="6" d="M3.96.144A3.275,3.275,0,0,1,2.382-.2a2.809,2.809,0,0,1-1.026-.93,4.188,4.188,0,0,1-.564-1.3,6.063,6.063,0,0,1-.18-1.476,6.84,6.84,0,0,1,.4-2.442A3.628,3.628,0,0,1,2.142-7.968a2.809,2.809,0,0,1,1.782-.576,2.965,2.965,0,0,1,1.458.33,2.5,2.5,0,0,1,.93.87A2.793,2.793,0,0,1,6.72-6.168H5.376a1.416,1.416,0,0,0-.486-.87,1.505,1.505,0,0,0-.978-.306,1.494,1.494,0,0,0-.96.336A2.2,2.2,0,0,0,2.292-6a5.737,5.737,0,0,0-.276,1.7v.084a2.16,2.16,0,0,1,.516-.618,2.506,2.506,0,0,1,.75-.426A2.649,2.649,0,0,1,4.2-5.412a2.7,2.7,0,0,1,1.314.33A2.612,2.612,0,0,1,6.5-4.14,2.685,2.685,0,0,1,6.876-2.7a2.844,2.844,0,0,1-.36,1.4A2.775,2.775,0,0,1,5.5-.252,2.928,2.928,0,0,1,3.96.144ZM3.876-1.092A1.65,1.65,0,0,0,4.7-1.3a1.541,1.541,0,0,0,.57-.552,1.5,1.5,0,0,0,.21-.792,1.549,1.549,0,0,0-.21-.816A1.441,1.441,0,0,0,4.7-4a1.768,1.768,0,0,0-.834-.192,1.7,1.7,0,0,0-.822.2,1.528,1.528,0,0,0-.582.546,1.471,1.471,0,0,0-.216.792,1.493,1.493,0,0,0,.216.8,1.575,1.575,0,0,0,.582.552A1.684,1.684,0,0,0,3.876-1.092Z" transform="translate(-15234.798 -7866.461)" fill="#808191"/>
      <path id="_9" data-name="9" d="M3.66.144a2.938,2.938,0,0,1-1.446-.33,2.484,2.484,0,0,1-.93-.876,2.7,2.7,0,0,1-.4-1.17H2.22a1.416,1.416,0,0,0,.486.87,1.505,1.505,0,0,0,.978.306,1.48,1.48,0,0,0,.96-.33,2.246,2.246,0,0,0,.654-1,5.247,5.247,0,0,0,.27-1.674v-.132a2.122,2.122,0,0,1-.5.612,2.437,2.437,0,0,1-.75.432,2.649,2.649,0,0,1-.918.156,2.749,2.749,0,0,1-1.314-.33,2.544,2.544,0,0,1-.99-.942A2.718,2.718,0,0,1,.72-5.7a2.844,2.844,0,0,1,.36-1.4A2.775,2.775,0,0,1,2.1-8.148a2.9,2.9,0,0,1,1.524-.4,3.3,3.3,0,0,1,1.59.348,2.809,2.809,0,0,1,1.026.93,4.086,4.086,0,0,1,.558,1.3,6.261,6.261,0,0,1,.174,1.476,6.947,6.947,0,0,1-.39,2.436A3.585,3.585,0,0,1,5.454-.432,2.827,2.827,0,0,1,3.66.144Zm.072-4.356a1.7,1.7,0,0,0,.822-.2,1.514,1.514,0,0,0,.582-.552,1.48,1.48,0,0,0,.216-.786,1.524,1.524,0,0,0-.216-.81,1.514,1.514,0,0,0-.582-.552,1.725,1.725,0,0,0-.834-.2,1.65,1.65,0,0,0-.828.2,1.557,1.557,0,0,0-.57.546,1.494,1.494,0,0,0-.21.8,1.549,1.549,0,0,0,.21.816A1.441,1.441,0,0,0,2.9-4.4,1.768,1.768,0,0,0,3.732-4.212Z" transform="translate(-15234.798 -7836.851)" fill="#808191"/>
    </g>
    <g id="Group_64" data-name="Group 64" transform="translate(64.331 -32)">
      <path id="Path_16" data-name="Path 16" d="M-20.58,0V-7h1.2l3.37,5.06V-7h1.2V0h-1.2l-3.37-5.05V0Zm9.5.12A2.618,2.618,0,0,1-12.4-.2a2.284,2.284,0,0,1-.89-.915,2.808,2.808,0,0,1-.32-1.36,2.97,2.97,0,0,1,.315-1.4,2.325,2.325,0,0,1,.89-.94,2.573,2.573,0,0,1,1.335-.34,2.459,2.459,0,0,1,1.29.33,2.282,2.282,0,0,1,.85.885A2.576,2.576,0,0,1-8.63-2.7v.22a1.645,1.645,0,0,1-.02.25h-4.1V-3h2.91a1.165,1.165,0,0,0-.37-.865,1.252,1.252,0,0,0-.87-.315,1.391,1.391,0,0,0-.68.17,1.215,1.215,0,0,0-.49.5,1.773,1.773,0,0,0-.18.845v.29a1.75,1.75,0,0,0,.175.81,1.219,1.219,0,0,0,.48.515,1.352,1.352,0,0,0,.685.175,1.245,1.245,0,0,0,.695-.18,1.071,1.071,0,0,0,.4-.48h1.22a2.3,2.3,0,0,1-.46.845,2.257,2.257,0,0,1-.79.59A2.52,2.52,0,0,1-11.08.12Zm5.58,2.2a4.009,4.009,0,0,1-1.245-.175,1.757,1.757,0,0,1-.83-.53A1.338,1.338,0,0,1-7.87.73,1.286,1.286,0,0,1-7.715.125a1.787,1.787,0,0,1,.47-.55,2.993,2.993,0,0,1,.8-.445l.53.58a1.463,1.463,0,0,0-.67.41.784.784,0,0,0-.19.49.61.61,0,0,0,.165.435,1.03,1.03,0,0,0,.45.265,2.139,2.139,0,0,0,.645.09,1.776,1.776,0,0,0,.61-.1A.944.944,0,0,0-4.5,1.04.611.611,0,0,0-4.35.63.615.615,0,0,0-4.56.145,1.465,1.465,0,0,0-5.39-.08,8.63,8.63,0,0,1-6.32-.2,4.724,4.724,0,0,1-7-.37,2.443,2.443,0,0,1-7.49-.6a1.858,1.858,0,0,1-.33-.25v-.23l1.05-1.1.89.29L-7.06-.74l.31-.58q.1.07.2.13a1.17,1.17,0,0,0,.27.105A3.873,3.873,0,0,0-5.84-1q.27.04.7.08a3.264,3.264,0,0,1,1.09.24,1.368,1.368,0,0,1,.62.51,1.424,1.424,0,0,1,.2.77,1.534,1.534,0,0,1-.245.83,1.8,1.8,0,0,1-.745.64,2.86,2.86,0,0,1-1.28.25Zm0-3.83a2.258,2.258,0,0,1-1.085-.245,1.726,1.726,0,0,1-.7-.66,1.8,1.8,0,0,1-.24-.915,1.787,1.787,0,0,1,.24-.92,1.771,1.771,0,0,1,.7-.66A2.221,2.221,0,0,1-5.5-5.16a2.192,2.192,0,0,1,1.08.25,1.78,1.78,0,0,1,.69.66,1.787,1.787,0,0,1,.24.92,1.8,1.8,0,0,1-.24.915,1.734,1.734,0,0,1-.69.66A2.228,2.228,0,0,1-5.5-1.51Zm0-.93a1,1,0,0,0,.69-.23.835.835,0,0,0,.26-.66.819.819,0,0,0-.26-.655A1.017,1.017,0,0,0-5.5-4.21a1.057,1.057,0,0,0-.7.225.8.8,0,0,0-.27.655.819.819,0,0,0,.27.66A1.042,1.042,0,0,0-5.5-2.44Zm.83-1.72-.23-.88h2.07v.76ZM-.09.12A2.248,2.248,0,0,1-1.12-.09a1.427,1.427,0,0,1-.61-.56,1.506,1.506,0,0,1-.2-.76,1.41,1.41,0,0,1,.245-.83A1.581,1.581,0,0,1-.96-2.785a3.143,3.143,0,0,1,1.18-.2H1.49a1.744,1.744,0,0,0-.11-.665.781.781,0,0,0-.34-.395,1.19,1.19,0,0,0-.59-.13,1.274,1.274,0,0,0-.7.185.808.808,0,0,0-.36.565H-1.79a1.794,1.794,0,0,1,.36-.925,1.99,1.99,0,0,1,.8-.6A2.694,2.694,0,0,1,.45-5.16a2.729,2.729,0,0,1,1.21.245,1.753,1.753,0,0,1,.765.7,2.14,2.14,0,0,1,.265,1.1V0H1.67L1.55-.81a1.628,1.628,0,0,1-.25.37,1.689,1.689,0,0,1-.355.3,1.7,1.7,0,0,1-.46.19A2.174,2.174,0,0,1-.09.12ZM.18-.83A1.2,1.2,0,0,0,.7-.935a1.135,1.135,0,0,0,.39-.3,1.464,1.464,0,0,0,.25-.435,2.11,2.11,0,0,0,.12-.51V-2.2H.35a1.606,1.606,0,0,0-.58.09.664.664,0,0,0-.33.245.658.658,0,0,0-.1.365.634.634,0,0,0,.1.36.631.631,0,0,0,.29.23,1.155,1.155,0,0,0,.45.08ZM6.08,0A2.244,2.244,0,0,1,5.2-.16a1.2,1.2,0,0,1-.59-.53,2.028,2.028,0,0,1-.21-1V-4.03H3.54V-5.04H4.4l.14-1.33H5.6v1.33H6.97v1.01H5.6v2.34a.678.678,0,0,0,.165.525.84.84,0,0,0,.555.145h.62V0ZM8.15,0V-5.04h1.2V0Zm.6-5.84a.758.758,0,0,1-.545-.2.67.67,0,0,1-.215-.5.65.65,0,0,1,.21-.515.78.78,0,0,1,.55-.2.78.78,0,0,1,.545.2.65.65,0,0,1,.215.505.67.67,0,0,1-.215.5A.758.758,0,0,1,8.75-5.84ZM12.12,0,10.26-5.04h1.26l1.33,3.9,1.33-3.9h1.24L13.56,0ZM18.4.12A2.618,2.618,0,0,1,17.08-.2a2.284,2.284,0,0,1-.89-.915,2.808,2.808,0,0,1-.32-1.36,2.97,2.97,0,0,1,.315-1.4,2.325,2.325,0,0,1,.89-.94,2.573,2.573,0,0,1,1.335-.34,2.459,2.459,0,0,1,1.29.33,2.282,2.282,0,0,1,.85.885,2.576,2.576,0,0,1,.3,1.245v.22a1.645,1.645,0,0,1-.02.25h-4.1V-3h2.91a1.165,1.165,0,0,0-.37-.865,1.252,1.252,0,0,0-.87-.315,1.391,1.391,0,0,0-.68.17,1.215,1.215,0,0,0-.49.5,1.773,1.773,0,0,0-.18.845v.29a1.75,1.75,0,0,0,.175.81,1.219,1.219,0,0,0,.48.515,1.352,1.352,0,0,0,.685.175,1.245,1.245,0,0,0,.695-.18,1.071,1.071,0,0,0,.405-.48h1.22a2.3,2.3,0,0,1-.46.845,2.257,2.257,0,0,1-.79.59A2.52,2.52,0,0,1,18.4.12Z" transform="translate(-15360 -7779)" fill="#808191"/>
      <path id="Path_15" data-name="Path 15" d="M-17.09,0V-7h1.2l3.37,5.06V-7h1.2V0h-1.2l-3.37-5.05V0Zm9.5.12A2.618,2.618,0,0,1-8.91-.2,2.284,2.284,0,0,1-9.8-1.12a2.808,2.808,0,0,1-.32-1.36,2.97,2.97,0,0,1,.315-1.4,2.325,2.325,0,0,1,.89-.94A2.573,2.573,0,0,1-7.58-5.16a2.459,2.459,0,0,1,1.29.33,2.282,2.282,0,0,1,.85.885A2.576,2.576,0,0,1-5.14-2.7v.22a1.645,1.645,0,0,1-.02.25h-4.1V-3h2.91a1.165,1.165,0,0,0-.37-.865,1.252,1.252,0,0,0-.87-.315,1.391,1.391,0,0,0-.68.17,1.215,1.215,0,0,0-.49.5,1.773,1.773,0,0,0-.18.845v.29a1.75,1.75,0,0,0,.175.81,1.219,1.219,0,0,0,.48.515A1.352,1.352,0,0,0-7.6-.87a1.245,1.245,0,0,0,.7-.18,1.071,1.071,0,0,0,.4-.48h1.22a2.3,2.3,0,0,1-.46.845,2.257,2.257,0,0,1-.79.59A2.52,2.52,0,0,1-7.59.12Zm5.43,0A2.1,2.1,0,0,1-3.2-.125a1.588,1.588,0,0,1-.665-.74A2.9,2.9,0,0,1-4.1-2.09V-5.04h1.2v2.83a1.522,1.522,0,0,0,.275.985A1.017,1.017,0,0,0-1.79-.89a1.235,1.235,0,0,0,.645-.17,1.182,1.182,0,0,0,.45-.5A1.742,1.742,0,0,0-.53-2.35V-5.04H.67V0H-.39L-.48-.84a1.744,1.744,0,0,1-.665.7A1.941,1.941,0,0,1-2.16.12ZM4.2,0a2.244,2.244,0,0,1-.885-.16A1.2,1.2,0,0,1,2.73-.69a2.028,2.028,0,0,1-.21-1V-4.03H1.66V-5.04h.86l.14-1.33H3.72v1.33H5.09v1.01H3.72v2.34a.678.678,0,0,0,.165.525.84.84,0,0,0,.555.145h.62V0ZM6.22,0V-5.04H7.29l.11.94a2.029,2.029,0,0,1,.45-.565,1.955,1.955,0,0,1,.635-.365,2.385,2.385,0,0,1,.8-.13v1.27H8.87a2.121,2.121,0,0,0-.57.075,1.211,1.211,0,0,0-.465.24,1.088,1.088,0,0,0-.3.45,2,2,0,0,0-.11.715V0Zm5.65.12a2.248,2.248,0,0,1-1.03-.21,1.427,1.427,0,0,1-.61-.56,1.506,1.506,0,0,1-.2-.76,1.41,1.41,0,0,1,.245-.83A1.581,1.581,0,0,1,11-2.785a3.143,3.143,0,0,1,1.18-.2h1.27a1.744,1.744,0,0,0-.11-.665A.781.781,0,0,0,13-4.04a1.19,1.19,0,0,0-.59-.13,1.274,1.274,0,0,0-.7.185.808.808,0,0,0-.36.565H10.17a1.794,1.794,0,0,1,.36-.925,1.99,1.99,0,0,1,.8-.6,2.694,2.694,0,0,1,1.08-.215,2.729,2.729,0,0,1,1.21.245,1.753,1.753,0,0,1,.765.7,2.14,2.14,0,0,1,.265,1.1V0H13.63l-.12-.81a1.628,1.628,0,0,1-.255.37,1.689,1.689,0,0,1-.355.3,1.7,1.7,0,0,1-.455.195A2.174,2.174,0,0,1,11.87.12Zm.27-.95a1.2,1.2,0,0,0,.515-.105,1.135,1.135,0,0,0,.39-.3A1.464,1.464,0,0,0,13.3-1.67a2.11,2.11,0,0,0,.12-.51V-2.2H12.31a1.606,1.606,0,0,0-.58.09.664.664,0,0,0-.33.245.658.658,0,0,0-.1.365.634.634,0,0,0,.1.36.631.631,0,0,0,.29.23,1.155,1.155,0,0,0,.45.08ZM15.93,0V-7.2h1.2V0Z" transform="translate(-15295 -7779)" fill="#808191"/>
      <path id="Path_13" data-name="Path 13" d="M-25.686.144a4.276,4.276,0,0,1-2.2-.552,3.908,3.908,0,0,1-1.476-1.53A4.645,4.645,0,0,1-29.9-4.2a4.645,4.645,0,0,1,.534-2.262,3.908,3.908,0,0,1,1.476-1.53,4.276,4.276,0,0,1,2.2-.552,4.284,4.284,0,0,1,2.2.552,3.853,3.853,0,0,1,1.476,1.53A4.688,4.688,0,0,1-21.486-4.2a4.688,4.688,0,0,1-.528,2.262A3.853,3.853,0,0,1-23.49-.408a4.284,4.284,0,0,1-2.2.552Zm0-1.38a2.45,2.45,0,0,0,1.914-.792A3.125,3.125,0,0,0-23.058-4.2a3.125,3.125,0,0,0-.714-2.172,2.45,2.45,0,0,0-1.914-.792,2.469,2.469,0,0,0-1.92.792,3.108,3.108,0,0,0-.72,2.172,3.108,3.108,0,0,0,.72,2.172A2.469,2.469,0,0,0-25.686-1.236Zm7.752,1.38a2.161,2.161,0,0,1-1.722-.7,3.023,3.023,0,0,1-.606-2.04v-3.36h1.524V-2.74a1.907,1.907,0,0,0,.312,1.176,1.16,1.16,0,0,0,.984.408,1.356,1.356,0,0,0,1.05-.456,1.824,1.824,0,0,0,.414-1.272V-5.952h1.536V0H-15.8l-.12-1.008a2.093,2.093,0,0,1-.8.84,2.329,2.329,0,0,1-1.214.312ZM-10.218,0a2.314,2.314,0,0,1-1.5-.456,1.983,1.983,0,0,1-.564-1.62V-4.668H-13.3V-5.952h1.02l.18-1.6h1.356v1.6h1.608v1.284h-1.608v2.6a.764.764,0,0,0,.186.594.984.984,0,0,0,.642.162h.744V0Zm5.16.144a3.2,3.2,0,0,1-1.608-.4,2.883,2.883,0,0,1-1.1-1.1,3.223,3.223,0,0,1-.4-1.62,3.223,3.223,0,0,1,.4-1.62,2.883,2.883,0,0,1,1.1-1.1,3.2,3.2,0,0,1,1.608-.4,3.076,3.076,0,0,1,1.92.594,2.656,2.656,0,0,1,1,1.638h-1.62a1.184,1.184,0,0,0-.474-.678,1.425,1.425,0,0,0-.834-.246,1.416,1.416,0,0,0-1.08.48A1.887,1.887,0,0,0-6.59-2.976a1.887,1.887,0,0,0,.44,1.332,1.416,1.416,0,0,0,1.08.48,1.45,1.45,0,0,0,.834-.24,1.16,1.16,0,0,0,.474-.684h1.62a2.714,2.714,0,0,1-1,1.62A3.015,3.015,0,0,1-5.058.144Zm7.14,0a3.065,3.065,0,0,1-1.554-.4A2.907,2.907,0,0,1-.564-1.35a3.214,3.214,0,0,1-.4-1.626A3.177,3.177,0,0,1-.558-4.6,2.952,2.952,0,0,1,.54-5.7a3.065,3.065,0,0,1,1.554-.4,3.042,3.042,0,0,1,1.542.4A2.907,2.907,0,0,1,4.728-4.6a3.214,3.214,0,0,1,.4,1.626,3.214,3.214,0,0,1-.4,1.626,2.9,2.9,0,0,1-1.1,1.1A3.075,3.075,0,0,1,2.082.144Zm0-1.332a1.42,1.42,0,0,0,1.044-.45A1.831,1.831,0,0,0,3.57-2.976a1.831,1.831,0,0,0-.444-1.338,1.406,1.406,0,0,0-1.032-.45,1.413,1.413,0,0,0-1.05.45A1.846,1.846,0,0,0,.606-2.976a1.846,1.846,0,0,0,.438,1.338,1.4,1.4,0,0,0,1.038.45ZM6.5,0V-5.952H7.854l.132.8a2.113,2.113,0,0,1,.762-.69,2.261,2.261,0,0,1,1.1-.258A2.04,2.04,0,0,1,11.8-5.028a2.312,2.312,0,0,1,.87-.78,2.52,2.52,0,0,1,1.2-.292,2.277,2.277,0,0,1,1.788.7,2.964,2.964,0,0,1,.624,2.04V0H14.742V-3.216a1.994,1.994,0,0,0-.294-1.176,1.042,1.042,0,0,0-.906-.408,1.237,1.237,0,0,0-1,.456,1.938,1.938,0,0,0-.378,1.272V0H10.626V-3.216a1.964,1.964,0,0,0-.3-1.176A1.071,1.071,0,0,0,9.4-4.8a1.224,1.224,0,0,0-.99.456,1.938,1.938,0,0,0-.378,1.272V0ZM20.634.144a3.249,3.249,0,0,1-1.6-.384,2.779,2.779,0,0,1-1.092-1.08,3.2,3.2,0,0,1-.4-1.608,3.4,3.4,0,0,1,.39-1.644,2.831,2.831,0,0,1,1.08-1.122,3.173,3.173,0,0,1,1.626-.4,3.065,3.065,0,0,1,1.548.384,2.758,2.758,0,0,1,1.05,1.05,2.949,2.949,0,0,1,.378,1.482q0,.132-.006.276t-.018.3H19.074A1.55,1.55,0,0,0,19.56-1.51a1.527,1.527,0,0,0,1.062.4,1.4,1.4,0,0,0,.786-.21,1.3,1.3,0,0,0,.474-.546h1.56A2.828,2.828,0,0,1,22.884-.84a2.751,2.751,0,0,1-.96.726,3.035,3.035,0,0,1-1.29.258Zm.012-4.992a1.636,1.636,0,0,0-1,.318,1.474,1.474,0,0,0-.552.966h2.964A1.3,1.3,0,0,0,21.63-4.5,1.437,1.437,0,0,0,20.646-4.848ZM27.378.144a3.5,3.5,0,0,1-1.392-.258,2.4,2.4,0,0,1-.96-.714,2.067,2.067,0,0,1-.432-1.056h1.548a1,1,0,0,0,.39.594,1.305,1.305,0,0,0,.822.246,1.107,1.107,0,0,0,.738-.2.608.608,0,0,0,.234-.468.515.515,0,0,0-.336-.522,5.921,5.921,0,0,0-.936-.27q-.384-.084-.78-.2a3.6,3.6,0,0,1-.726-.306,1.587,1.587,0,0,1-.534-.48,1.243,1.243,0,0,1-.2-.726,1.687,1.687,0,0,1,.63-1.332,2.638,2.638,0,0,1,1.77-.54A2.666,2.666,0,0,1,28.9-5.6a1.994,1.994,0,0,1,.75,1.356H28.194q-.132-.66-1-.66a1.13,1.13,0,0,0-.666.168.5.5,0,0,0-.234.42q0,.264.348.42a5.111,5.111,0,0,0,.924.288q.624.144,1.146.318a1.926,1.926,0,0,1,.834.516,1.4,1.4,0,0,1,.312.978,1.671,1.671,0,0,1-.288,1,1.99,1.99,0,0,1-.864.7,3.244,3.244,0,0,1-1.328.24Z" transform="translate(-15295 -7761)" fill="#808191"/>
      <path id="Path_14" data-name="Path 14" d="M-18.175,0V-7h2.52a3.007,3.007,0,0,1,1.39.285,1.925,1.925,0,0,1,.82.765,2.2,2.2,0,0,1,.27,1.1,2.218,2.218,0,0,1-.26,1.065,1.911,1.911,0,0,1-.81.78,2.969,2.969,0,0,1-1.41.3h-1.32V0Zm1.2-3.69h1.25a1.389,1.389,0,0,0,1.02-.315,1.152,1.152,0,0,0,.31-.845,1.162,1.162,0,0,0-.31-.86,1.4,1.4,0,0,0-1.02-.31h-1.25Zm6.89,3.81a2.525,2.525,0,0,1-1.3-.335,2.368,2.368,0,0,1-.9-.93A2.8,2.8,0,0,1-12.6-2.51,2.809,2.809,0,0,1-12.27-3.9a2.4,2.4,0,0,1,.9-.93,2.525,2.525,0,0,1,1.3-.335,2.525,2.525,0,0,1,1.3.335,2.377,2.377,0,0,1,.9.925,2.815,2.815,0,0,1,.325,1.38,2.781,2.781,0,0,1-.33,1.38,2.413,2.413,0,0,1-.9.925A2.525,2.525,0,0,1-10.085.12Zm0-1.03a1.233,1.233,0,0,0,.655-.18,1.284,1.284,0,0,0,.475-.54,1.978,1.978,0,0,0,.18-.89A1.993,1.993,0,0,0-8.95-3.4a1.257,1.257,0,0,0-.47-.535,1.233,1.233,0,0,0-.655-.18,1.241,1.241,0,0,0-.65.18,1.277,1.277,0,0,0-.48.535,1.946,1.946,0,0,0-.18.885,1.978,1.978,0,0,0,.18.89,1.284,1.284,0,0,0,.475.54A1.215,1.215,0,0,0-10.085-.91ZM-4.375.12A2.907,2.907,0,0,1-5.54-.095a1.874,1.874,0,0,1-.78-.6,1.751,1.751,0,0,1-.335-.885h1.2a1.045,1.045,0,0,0,.18.385A.872.872,0,0,0-4.92-.92a1.31,1.31,0,0,0,.535.1A1.208,1.208,0,0,0-3.9-.9a.622.622,0,0,0,.28-.225.545.545,0,0,0,.09-.3.5.5,0,0,0-.13-.37A.889.889,0,0,0-4.03-2q-.245-.075-.585-.145a6.418,6.418,0,0,1-.7-.175,2.744,2.744,0,0,1-.6-.265A1.237,1.237,0,0,1-6.33-3a1.136,1.136,0,0,1-.155-.61A1.385,1.385,0,0,1-6.25-4.4a1.6,1.6,0,0,1,.68-.555,2.529,2.529,0,0,1,1.065-.2,2.241,2.241,0,0,1,1.4.4,1.617,1.617,0,0,1,.62,1.135h-1.14a.638.638,0,0,0-.28-.435,1.074,1.074,0,0,0-.61-.155,1.025,1.025,0,0,0-.6.145.45.45,0,0,0-.2.385.377.377,0,0,0,.125.28,1.01,1.01,0,0,0,.365.2,5.413,5.413,0,0,0,.59.165,7.291,7.291,0,0,1,.99.26,1.547,1.547,0,0,1,.68.44,1.218,1.218,0,0,1,.25.82,1.408,1.408,0,0,1-.245.85,1.668,1.668,0,0,1-.715.575,2.689,2.689,0,0,1-1.1.205ZM-1.105,0V-5.04H.1V0Zm.6-5.84a.758.758,0,0,1-.545-.2.67.67,0,0,1-.215-.5.65.65,0,0,1,.215-.505A.78.78,0,0,1-.5-7.25a.78.78,0,0,1,.545.2.65.65,0,0,1,.215.505.67.67,0,0,1-.215.5A.758.758,0,0,1-.5-5.84ZM3.675,0A2.244,2.244,0,0,1,2.79-.16a1.2,1.2,0,0,1-.585-.53,2.028,2.028,0,0,1-.21-1V-4.03h-.86V-5.04H2l.14-1.33H3.2v1.33H4.57v1.01H3.2v2.34a.678.678,0,0,0,.165.525.84.84,0,0,0,.555.145h.62V0Zm2.07,0V-5.04h1.2V0Zm.6-5.84a.758.758,0,0,1-.545-.2.67.67,0,0,1-.215-.5A.65.65,0,0,1,5.8-7.055a.78.78,0,0,1,.545-.195.78.78,0,0,1,.545.195.65.65,0,0,1,.21.505.67.67,0,0,1-.215.5.758.758,0,0,1-.54.21ZM9.715,0,7.855-5.04h1.26l1.33,3.9,1.33-3.9h1.24L11.155,0ZM16,.12A2.618,2.618,0,0,1,14.675-.2a2.284,2.284,0,0,1-.89-.915,2.808,2.808,0,0,1-.32-1.36,2.97,2.97,0,0,1,.315-1.4,2.325,2.325,0,0,1,.89-.94,2.573,2.573,0,0,1,1.335-.34,2.459,2.459,0,0,1,1.29.33,2.282,2.282,0,0,1,.85.885,2.576,2.576,0,0,1,.3,1.245v.22a1.645,1.645,0,0,1-.02.25h-4.1V-3h2.91a1.165,1.165,0,0,0-.37-.865,1.252,1.252,0,0,0-.87-.315,1.391,1.391,0,0,0-.68.17,1.215,1.215,0,0,0-.49.5,1.773,1.773,0,0,0-.18.845v.29a1.75,1.75,0,0,0,.175.81,1.219,1.219,0,0,0,.48.515,1.352,1.352,0,0,0,.685.175,1.245,1.245,0,0,0,.7-.18,1.071,1.071,0,0,0,.4-.48H18.3a2.3,2.3,0,0,1-.46.845,2.257,2.257,0,0,1-.79.59,2.52,2.52,0,0,1-1.055.22Z" transform="translate(-15231 -7779)" fill="#808191"/>
    </g>
    <g id="Group_66" data-name="Group 66" transform="translate(-7580 -23165.049) rotate(-90)">
      <path id="Path_20" data-name="Path 20" d="M-22.584,0l-3.072-8.4h1.644l2.376,6.828L-19.248-8.4h1.62L-20.7,0Zm8.052.144a3.065,3.065,0,0,1-1.554-.4,2.907,2.907,0,0,1-1.092-1.1,3.214,3.214,0,0,1-.4-1.626A3.177,3.177,0,0,1-17.172-4.6a2.952,2.952,0,0,1,1.1-1.1,3.065,3.065,0,0,1,1.554-.4,3.042,3.042,0,0,1,1.542.4,2.907,2.907,0,0,1,1.092,1.1,3.214,3.214,0,0,1,.4,1.626,3.214,3.214,0,0,1-.4,1.626,2.9,2.9,0,0,1-1.1,1.1,3.075,3.075,0,0,1-1.548.392Zm0-1.332a1.42,1.42,0,0,0,1.044-.45,1.831,1.831,0,0,0,.444-1.338,1.831,1.831,0,0,0-.444-1.338,1.406,1.406,0,0,0-1.032-.45,1.413,1.413,0,0,0-1.05.45,1.846,1.846,0,0,0-.438,1.338,1.846,1.846,0,0,0,.438,1.338A1.4,1.4,0,0,0-14.532-1.188ZM-10.116,0V-8.64H-8.58V0Zm5.16.144A2.816,2.816,0,0,1-6.216-.1a1.7,1.7,0,0,1-.732-.654,1.742,1.742,0,0,1-.24-.9A1.638,1.638,0,0,1-6.54-3,3.082,3.082,0,0,1-4.6-3.516h1.512V-3.66a1.1,1.1,0,0,0-.348-.9A1.31,1.31,0,0,0-4.3-4.848a1.484,1.484,0,0,0-.816.222.956.956,0,0,0-.432.654h-1.5A2.093,2.093,0,0,1-6.606-5.1a2.452,2.452,0,0,1,.978-.738A3.37,3.37,0,0,1-4.284-6.1a2.953,2.953,0,0,1,2,.636,2.257,2.257,0,0,1,.732,1.8V0h-1.3L-3-.96a2.218,2.218,0,0,1-.738.792A2.176,2.176,0,0,1-4.956.144Zm.348-1.2a1.271,1.271,0,0,0,1.026-.432A2.1,2.1,0,0,0-3.12-2.556H-4.428a1.364,1.364,0,0,0-.876.222.687.687,0,0,0-.264.546.629.629,0,0,0,.264.54A1.157,1.157,0,0,0-4.608-1.056ZM2.484,0a2.314,2.314,0,0,1-1.5-.456A1.983,1.983,0,0,1,.42-2.076V-4.668H-.6V-5.952H.42l.18-1.6H1.956v1.6H3.564v1.284H1.956v2.6a.764.764,0,0,0,.186.594.984.984,0,0,0,.642.162h.744V0ZM5.712-6.876a.971.971,0,0,1-.69-.252.833.833,0,0,1-.27-.636.814.814,0,0,1,.27-.63.985.985,0,0,1,.69-.246.985.985,0,0,1,.69.246.814.814,0,0,1,.27.63.833.833,0,0,1-.27.636.971.971,0,0,1-.69.252ZM4.944,0V-5.952H6.48V0ZM8.088,0V-8.64H9.624V0Zm3.936-6.876a.971.971,0,0,1-.69-.252.833.833,0,0,1-.27-.636.814.814,0,0,1,.27-.63.985.985,0,0,1,.69-.246.985.985,0,0,1,.69.246.814.814,0,0,1,.27.63.833.833,0,0,1-.27.636.971.971,0,0,1-.69.252ZM11.256,0V-5.952h1.536V0Zm5.8,0a2.314,2.314,0,0,1-1.5-.456,1.983,1.983,0,0,1-.564-1.62V-4.668h-1.02V-5.952h1.02l.18-1.6h1.356v1.6h1.608v1.284H16.524v2.6a.764.764,0,0,0,.186.594.984.984,0,0,0,.642.162H18.1V0ZM20.2,2.64,21.576-.4h-.36L18.9-5.952h1.668l1.668,4.188,1.74-4.188h1.632L21.828,2.64Z" transform="translate(-15294.049 -7779)" fill="#808191"/>
      <path id="Path_17" data-name="Path 17" d="M-8.875,0V-7h1.2V-.94h3.12V0ZM-1.3.12A2.525,2.525,0,0,1-2.6-.215a2.368,2.368,0,0,1-.9-.93A2.8,2.8,0,0,1-3.815-2.51a2.809,2.809,0,0,1,.33-1.385,2.4,2.4,0,0,1,.905-.93A2.525,2.525,0,0,1-1.285-5.16,2.525,2.525,0,0,1,.01-4.825a2.377,2.377,0,0,1,.9.925,2.815,2.815,0,0,1,.325,1.38A2.781,2.781,0,0,1,.9-1.14,2.413,2.413,0,0,1,0-.215,2.525,2.525,0,0,1-1.3.12Zm0-1.03a1.233,1.233,0,0,0,.66-.18,1.284,1.284,0,0,0,.475-.54,1.978,1.978,0,0,0,.18-.89A1.993,1.993,0,0,0-.16-3.4a1.257,1.257,0,0,0-.47-.54,1.233,1.233,0,0,0-.655-.18,1.241,1.241,0,0,0-.65.18,1.277,1.277,0,0,0-.48.535,1.946,1.946,0,0,0-.18.885,1.978,1.978,0,0,0,.18.89,1.284,1.284,0,0,0,.475.54,1.215,1.215,0,0,0,.64.18ZM3.225,0,1.745-5.04h1.19L3.965-.9l-.22-.01L4.9-5.04H6.24L7.4-.91H7.18L8.2-5.04H9.4L7.915,0H6.675L5.445-4.27H5.7L4.465,0Z" transform="translate(-15324.049 -7758)" fill="#808191"/>
      <path id="Path_18" data-name="Path 18" d="M-8.2,0V-7h1.42l2.24,4.52L-2.325-7H-.9V0H-2.1V-4.94L-4.075-.98h-.94l-1.99-3.95V0ZM.535,0V-5.04h1.2V0Zm.6-5.84a.758.758,0,0,1-.545-.2.67.67,0,0,1-.215-.5A.65.65,0,0,1,.59-7.055a.78.78,0,0,1,.545-.2.78.78,0,0,1,.545.2.65.65,0,0,1,.215.505.67.67,0,0,1-.215.5A.758.758,0,0,1,1.135-5.84ZM5.365.12a2.328,2.328,0,0,1-1.25-.34,2.311,2.311,0,0,1-.855-.94,2.959,2.959,0,0,1-.305-1.36,2.889,2.889,0,0,1,.31-1.355,2.378,2.378,0,0,1,.865-.94A2.328,2.328,0,0,1,5.385-5.16a2.177,2.177,0,0,1,1,.215,1.693,1.693,0,0,1,.675.605V-7.2h1.2V0H7.175l-.12-.73a2.387,2.387,0,0,1-.39.415A1.841,1.841,0,0,1,6.115,0a2.133,2.133,0,0,1-.75.12Zm.25-1.04a1.41,1.41,0,0,0,.76-.2,1.373,1.373,0,0,0,.51-.565,1.832,1.832,0,0,0,.18-.83,1.832,1.832,0,0,0-.18-.83,1.339,1.339,0,0,0-.51-.56,1.437,1.437,0,0,0-.76-.2,1.4,1.4,0,0,0-.74.2,1.373,1.373,0,0,0-.515.56,1.791,1.791,0,0,0-.185.83,1.791,1.791,0,0,0,.185.83,1.407,1.407,0,0,0,.515.565,1.374,1.374,0,0,0,.74.2Z" transform="translate(-15294.049 -7758)" fill="#808191"/>
      <path id="Path_19" data-name="Path 19" d="M-5.66,0V-7h1.2V0Zm-4.42,0V-7h1.2V0Zm1.02-3.08v-.98h3.63v.98ZM-3.03,0V-5.04h1.2V0Zm.6-5.84a.758.758,0,0,1-.545-.2.67.67,0,0,1-.215-.5.65.65,0,0,1,.215-.505.78.78,0,0,1,.545-.2.78.78,0,0,1,.545.195.65.65,0,0,1,.215.505.67.67,0,0,1-.215.5.758.758,0,0,1-.545.21ZM1.68,2.32A4.009,4.009,0,0,1,.435,2.145a1.757,1.757,0,0,1-.83-.53A1.338,1.338,0,0,1-.69.73a1.286,1.286,0,0,1,.155-.6,1.787,1.787,0,0,1,.47-.55A2.993,2.993,0,0,1,.74-.87l.53.58A1.463,1.463,0,0,0,.6.12.784.784,0,0,0,.41.61a.61.61,0,0,0,.165.435,1.03,1.03,0,0,0,.45.265,2.139,2.139,0,0,0,.645.09,1.776,1.776,0,0,0,.61-.1.944.944,0,0,0,.4-.265A.611.611,0,0,0,2.83.63.615.615,0,0,0,2.62.145,1.465,1.465,0,0,0,1.79-.08,8.63,8.63,0,0,1,.86-.2,4.724,4.724,0,0,1,.175-.37,2.443,2.443,0,0,1-.31-.6,1.858,1.858,0,0,1-.64-.85v-.23L.41-2.18l.89.29L.12-.74l.31-.58q.1.07.2.13a1.17,1.17,0,0,0,.27.105A3.873,3.873,0,0,0,1.34-1q.27.04.7.08a3.264,3.264,0,0,1,1.09.24,1.368,1.368,0,0,1,.62.51,1.424,1.424,0,0,1,.2.77,1.534,1.534,0,0,1-.245.83,1.8,1.8,0,0,1-.745.64,2.86,2.86,0,0,1-1.28.25Zm0-3.83A2.258,2.258,0,0,1,.6-1.755a1.726,1.726,0,0,1-.7-.66A1.8,1.8,0,0,1-.34-3.33,1.787,1.787,0,0,1-.1-4.25a1.771,1.771,0,0,1,.7-.66,2.221,2.221,0,0,1,1.08-.25,2.192,2.192,0,0,1,1.08.25,1.78,1.78,0,0,1,.69.66,1.787,1.787,0,0,1,.24.92,1.8,1.8,0,0,1-.24.915,1.734,1.734,0,0,1-.69.66,2.228,2.228,0,0,1-1.08.245Zm0-.93a1,1,0,0,0,.69-.23.835.835,0,0,0,.26-.66.819.819,0,0,0-.26-.655,1.017,1.017,0,0,0-.69-.225,1.057,1.057,0,0,0-.7.225.8.8,0,0,0-.27.655.819.819,0,0,0,.27.66,1.042,1.042,0,0,0,.7.23Zm.83-1.72-.23-.88H4.35v.76ZM5.41,0V-7.2h1.2v2.94a1.859,1.859,0,0,1,.68-.655,1.924,1.924,0,0,1,.97-.245A2.025,2.025,0,0,1,9.31-4.9a1.626,1.626,0,0,1,.655.75A2.985,2.985,0,0,1,10.19-2.92V0H9V-2.81a1.543,1.543,0,0,0-.275-.99,1.01,1.01,0,0,0-.835-.34,1.233,1.233,0,0,0-.65.175,1.239,1.239,0,0,0-.46.5,1.7,1.7,0,0,0-.17.8V0Z" transform="translate(-15264.049 -7758)" fill="#808191"/>
    </g>
  </g>
</svg>
