<svg xmlns="http://www.w3.org/2000/svg" width="23.84" height="24.998" viewBox="0 0 23.84 24.998">
  <g id="notification" transform="translate(-1.543 -1.083)">
    <path id="Path_37" data-name="Path 37" d="M13.463,22.037a24.657,24.657,0,0,1-9.1-1.623c-2-.8-3.061-2.417-2.779-4.213A5.686,5.686,0,0,1,2.868,13.71c.118-.157.23-.3.332-.449a4.567,4.567,0,0,0,.623-2.821,9.511,9.511,0,0,1,9.639-9.356A9.511,9.511,0,0,1,23.1,10.439a4.567,4.567,0,0,0,.626,2.825c.1.14.211.288.329.445A5.686,5.686,0,0,1,25.338,16.2c.282,1.8-.782,3.41-2.779,4.213A24.657,24.657,0,0,1,13.463,22.037Zm0-19.064a7.619,7.619,0,0,0-7.749,7.465,6.389,6.389,0,0,1-.967,3.909c-.122.172-.247.339-.369.5A4.2,4.2,0,0,0,3.455,16.5c-.195,1.24.929,1.889,1.616,2.165a23.083,23.083,0,0,0,8.391,1.487,23.083,23.083,0,0,0,8.391-1.487c.687-.276,1.811-.925,1.616-2.165a4.2,4.2,0,0,0-.923-1.647c-.121-.161-.247-.327-.365-.495a6.391,6.391,0,0,1-.971-3.914A7.62,7.62,0,0,0,13.463,2.974Z" transform="translate(0)" fill="#2a353d"/>
    <path id="Path_38" data-name="Path 38" d="M11.911,21.546A6.591,6.591,0,0,1,7.863,20.19.945.945,0,0,1,9.027,18.7a4.832,4.832,0,0,0,5.768,0,.945.945,0,1,1,1.164,1.49A6.591,6.591,0,0,1,11.911,21.546Z" transform="translate(1.551 4.535)" fill="#2a353d"/>
  </g>
</svg>
