<svg xmlns="http://www.w3.org/2000/svg" width="298.895" height="268.5" viewBox="0 0 298.895 268.5">
  <g id="Group_97" data-name="Group 97" transform="translate(-2585 -2110.75)">
    <g id="Alerts" transform="translate(2587.5 2159.136)">
      <path id="Path_211" data-name="Path 211" d="M239.526,202.913a3.671,3.671,0,0,1-3.886,3.886H34.974a3.671,3.671,0,0,1-3.886-3.886V36.246a3.671,3.671,0,0,1,3.886-3.886H173.211V1.272H7.772A7.343,7.343,0,0,0,0,9.044v221.07a7.343,7.343,0,0,0,7.772,7.772h255.07a7.343,7.343,0,0,0,7.772-7.772V124.676H239.526Z" transform="translate(0 -20.272)" fill="#20a461"/>
      <path id="Path_211_-_Outline" data-name="Path 211 - Outline" d="M262.842,240.387H7.772A9.828,9.828,0,0,1-2.5,230.115V9.044A9.828,9.828,0,0,1,7.772-1.228H175.711V34.86H34.974a1.208,1.208,0,0,0-1.386,1.386V202.913a1.208,1.208,0,0,0,1.386,1.386H235.64a1.208,1.208,0,0,0,1.386-1.386V122.176h36.088V230.115A9.828,9.828,0,0,1,262.842,240.387ZM7.772,3.772A5.318,5.318,0,0,0,3.905,5.177,5.318,5.318,0,0,0,2.5,9.044v221.07a5.318,5.318,0,0,0,1.405,3.867,5.318,5.318,0,0,0,3.867,1.405h255.07a4.862,4.862,0,0,0,5.272-5.272V127.176H242.026v75.737a6.163,6.163,0,0,1-6.386,6.386H34.974a6.163,6.163,0,0,1-6.386-6.386V36.246a6.163,6.163,0,0,1,6.386-6.386H170.711V3.772Z" transform="translate(0 -20.272)"/>
    </g>
    <g id="noun-notifications-6259335" transform="translate(2832.265 2102.75)">
      <g id="Group_96" data-name="Group 96" transform="translate(-40.13 8)">
        <path id="Path_264" data-name="Path 264" d="M79.369,20.239c-7.025-2.557-22.01-4.732-34.755.593C25.016,29.016,25.648,54.941,25.7,60.9c.066,6.445.132,16.462-2.755,23.381a2.919,2.919,0,0,0,2.886,4.059C50.295,86.6,75.06,86.19,99.574,86.718a2.893,2.893,0,0,0,2.649-4.244C94.553,68.543,106.125,30,79.369,20.239Z" transform="translate(-16.764 4.43)" fill="#d93872"/>
        <path id="Path_264_-_Outline" data-name="Path 264 - Outline" d="M63.274,18.5a46.216,46.216,0,0,0-17.71,3.281C25.965,29.966,26.6,55.891,26.65,61.848c.066,6.445.132,16.462-2.755,23.381a2.919,2.919,0,0,0,2.886,4.059c17.937-1.276,36.042-1.836,54.087-1.836q9.846,0,19.654.215a2.893,2.893,0,0,0,2.649-4.244c-7.671-13.931,3.9-52.469-22.854-62.235A52.7,52.7,0,0,0,63.274,18.5m0-5.95v0A59.132,59.132,0,0,1,82.354,15.6a30.915,30.915,0,0,1,12.8,8.605,35.018,35.018,0,0,1,6.835,12.239c2.812,8.35,3.288,17.748,3.708,26.04.362,7.147.736,14.536,2.683,18.072a8.74,8.74,0,0,1,1.084,4.531,8.841,8.841,0,0,1-1.224,4.162,8.871,8.871,0,0,1-7.648,4.37l-.211,0c-6.578-.141-13.144-.213-19.517-.213-18.623,0-36.678.613-53.665,1.821l-.029,0c-.2.013-.4.02-.6.02a8.869,8.869,0,0,1-8.17-12.312c2.449-5.871,2.352-15.357,2.294-21.024l0-.354A72.969,72.969,0,0,1,23.15,40.544a42.156,42.156,0,0,1,6.568-13.652,32.215,32.215,0,0,1,13.553-10.6A51.657,51.657,0,0,1,63.272,12.551Z" transform="translate(-17.713 3.481)"/>
        <path id="Path_265" data-name="Path 265" d="M66.8,17.084a1.076,1.076,0,0,0,1.239-1.265A11.786,11.786,0,0,0,56.622,6.29c-6.023-.013-10.333,3.993-11.941,9.292a1.069,1.069,0,0,0,1.239,1.344A57.045,57.045,0,0,1,66.8,17.084Z" transform="translate(-9.793 -0.34)" fill="#20a461"/>
        <path id="Path_265_-_Outline" data-name="Path 265 - Outline" d="M67.936,18.051a1.077,1.077,0,0,0,1.049-1.282A11.786,11.786,0,0,0,57.571,7.24c-6.022-.013-10.333,3.993-11.941,9.292a1.069,1.069,0,0,0,1.239,1.344,57.045,57.045,0,0,1,20.877.158,1.078,1.078,0,0,0,.189.017m0,5.95a7.048,7.048,0,0,1-1.222-.107,56.963,56.963,0,0,0-10.028-.961,48.681,48.681,0,0,0-8.758.8A7.047,7.047,0,0,1,41,20.978,7.008,7.008,0,0,1,39.939,14.8a19.51,19.51,0,0,1,6.223-9.5A17.722,17.722,0,0,1,57.542,1.29H57.6a17.541,17.541,0,0,1,11.279,4.2,17.942,17.942,0,0,1,5.944,10.123l0,.009A7.027,7.027,0,0,1,67.936,24Z" transform="translate(-10.742 -1.29)"/>
        <path id="Path_266" data-name="Path 266" d="M42.264,74.48A1.671,1.671,0,0,0,40.7,76.417,18.494,18.494,0,0,0,61.612,91.4c8.8-1.265,14.471-7.723,16.238-15.539a1.642,1.642,0,0,0-1.608-2C64.933,73.834,53.585,74.032,42.264,74.48Z" transform="translate(-11.052 23.525)" fill="#20a461"/>
        <path id="Path_266_-_Outline" data-name="Path 266 - Outline" d="M75.2,74.808c-10.649,0-21.33.2-31.987.622a1.671,1.671,0,0,0-1.568,1.937A18.494,18.494,0,0,0,62.561,92.352c8.8-1.265,14.471-7.723,16.238-15.539a1.642,1.642,0,0,0-1.608-2l-1.99,0m0-5.949,2,0A7.591,7.591,0,0,1,84.6,78.135a26.885,26.885,0,0,1-7.065,13.1,24.7,24.7,0,0,1-14.127,7,25.14,25.14,0,0,1-3.546.253,24.588,24.588,0,0,1-15.747-5.717,24.175,24.175,0,0,1-8.333-14.4l-.012-.072a7.62,7.62,0,0,1,7.205-8.822C53.479,69.069,64.32,68.858,75.2,68.858Z" transform="translate(-12.002 22.575)"/>
      </g>
    </g>
  </g>
</svg>
