<svg xmlns="http://www.w3.org/2000/svg" width="146.997" height="232.821" viewBox="0 0 146.997 232.821">
  <g id="Group_22" data-name="Group 22" transform="translate(-0.177 -0.679)">
    <path id="Path_183" data-name="Path 183" d="M59.784,233.5q-22.936,0-33.953-10.856Q14.913,211.688,14.913,188.88V142.865q0-23.007,11.017-33.764Q36.948,98.245,59.784,98.444H83.821q23.036,0,33.953,10.856t10.917,33.764V188.88q0,22.808-10.917,33.764Q106.857,233.5,83.821,233.5Zm0-16.732H83.821q10.717,0,16.826-2.49a15.51,15.51,0,0,0,8.614-8.665q2.6-6.077,2.6-16.733V143.064q0-10.557-2.6-16.633a15.51,15.51,0,0,0-8.614-8.665q-6.109-2.589-16.826-2.589H59.784q-10.617-.1-16.726,2.39a15.512,15.512,0,0,0-8.714,8.566q-2.6,6.075-2.6,16.732V188.88q0,10.657,2.5,16.733a15.894,15.894,0,0,0,8.714,8.665Q49.067,216.768,59.784,216.768Z" fill="#d0e3ff"/>
    <path id="Path_184" data-name="Path 184" d="M139.356,57.8a7.822,7.822,0,0,1-7.167-4.684A58.961,58.961,0,0,0,118.57,33.864,63.352,63.352,0,0,0,98.029,20.9a67.081,67.081,0,0,0-48.705,0A63.357,63.357,0,0,0,28.782,33.864,58.967,58.967,0,0,0,15.163,53.119,7.821,7.821,0,0,1,.837,46.841,74.524,74.524,0,0,1,18.038,22.5,78.926,78.926,0,0,1,43.621,6.333a82.722,82.722,0,0,1,60.11,0A78.921,78.921,0,0,1,129.314,22.5a74.517,74.517,0,0,1,17.2,24.344A7.825,7.825,0,0,1,139.356,57.8Z" fill="#d0e3ff"/>
  </g>
</svg>
