<svg xmlns="http://www.w3.org/2000/svg" xmlns:xlink="http://www.w3.org/1999/xlink" width="999.271" height="950.905" viewBox="0 0 999.271 950.905">
  <defs>
    <clipPath id="clip-path">
      <rect id="Rectangle_675" data-name="Rectangle 675" width="999.271" height="950.903" fill="#fff"/>
    </clipPath>
    <clipPath id="clip-path-2">
      <rect id="Rectangle_676" data-name="Rectangle 676" width="999.271" height="950.905" fill="#fff"/>
    </clipPath>
  </defs>
  <g id="Group_536" data-name="Group 536" transform="translate(-0.729)">
    <g id="Group_535" data-name="Group 535" transform="translate(0.729)">
      <g id="Group_532" data-name="Group 532" transform="translate(0 0.002)">
        <g id="Group_531" data-name="Group 531" clip-path="url(#clip-path)">
          <path id="Path_19566" data-name="Path 19566" d="M931.752,302.922H696.4V67.518A67.7,67.7,0,0,0,628.886,0H67.518A67.7,67.7,0,0,0,0,67.518v407a67.684,67.684,0,0,0,67.518,67.5h43.9v94.6a11.379,11.379,0,0,0,11.366,11.366h.018a11.292,11.292,0,0,0,7.494-2.828L247.448,542.014h55.435v235.4a67.687,67.687,0,0,0,67.518,67.5H751.823L868.972,948.077a11.372,11.372,0,0,0,18.876-8.538v-94.6h43.921a67.71,67.71,0,0,0,67.5-67.518v-407a67.685,67.685,0,0,0-67.519-67.5M302.9,370.422V519.283H243.17a11.355,11.355,0,0,0-7.529,2.846L134.154,611.464V530.65a11.382,11.382,0,0,0-11.344-11.366H67.518a44.888,44.888,0,0,1-44.785-44.768V67.5A44.867,44.867,0,0,1,67.5,22.752H628.889A44.872,44.872,0,0,1,673.674,67.5V302.9H370.42A67.725,67.725,0,0,0,302.9,370.422m673.671,407a44.883,44.883,0,0,1-44.768,44.768H876.518a11.378,11.378,0,0,0-11.366,11.347v80.85L763.681,825.014a11.431,11.431,0,0,0-7.527-2.828H370.42a44.889,44.889,0,0,1-44.785-44.768V370.4A44.879,44.879,0,0,1,370.4,325.654H931.792A44.874,44.874,0,0,1,976.578,370.4Z" transform="translate(0 -0.002)" fill="#fff"/>
        </g>
      </g>
      <g id="Group_534" data-name="Group 534">
        <g id="Group_533" data-name="Group 533" clip-path="url(#clip-path-2)">
          <path id="Path_19567" data-name="Path 19567" d="M531.429,205.434c0,7.822-5.822,11.277-11.069,11.837-5.582.592-12.492-1.871-13.564-10.7l-5.1-47.634-102.77,91.7-11.917,3.441c-1.605.841-11.12-6.34-22.88-7.488-9.916-.968-21.513,4.129-32.4,4.047-23.385-.16-29.554,1.456-32.113,0l-76.927-56.315L94.886,310.555a12.325,12.325,0,0,1-8.334,3.215H85c-6.35-.48-9.069-6.206-9.741-7.934-1.568-4-1.648-9.6,2.815-13.4L214.258,168.549a12.3,12.3,0,0,1,8.318-3.231,12.435,12.435,0,0,1,8.142,3.055l90.111,69.486,29.066,12.773s-1.085,18.2,32.844-16.248,101.584-92.723,101.584-92.723l-51.073,5.486c-8.414.624-12.812-5.118-13.436-11.1-.576-5.5,1.9-12.316,10.717-13.452l78.761-8.414a12.52,12.52,0,0,1,9.133,2.671,12.3,12.3,0,0,1,4.527,8.3l8.4,78.7c.048.544.08,1.072.08,1.584" transform="translate(44.536 68.415)" fill="#fff"/>
          <path id="Path_19568" data-name="Path 19568" d="M725.827,323.1,589.627,447a12.336,12.336,0,0,1-16.411.208L446.31,337.244,322.074,473.6l48.546-5.2c8.414-.672,12.812,5.086,13.436,11.1.576,5.5-1.887,12.316-10.7,13.452l-78.761,8.414a12.672,12.672,0,0,1-9.149-2.687,12.25,12.25,0,0,1-4.511-8.286l-8.414-78.681c-.816-8.957,5.422-12.844,11.021-13.436a12.762,12.762,0,0,1,1.583-.1c2.5,0,10.733.784,11.964,10.8l5.294,49.457L436.121,311.683a12.388,12.388,0,0,1,17.211-.992L580.526,420.867l.544.464L709,305a12.285,12.285,0,0,1,8.318-3.215l1.584-.016c6.35.528,9.053,6.222,9.725,7.95,1.552,4,1.632,9.613-2.8,13.388" transform="translate(163.34 180.917)" fill="#fff"/>
        </g>
      </g>
    </g>
  </g>
</svg>
