<svg xmlns="http://www.w3.org/2000/svg" width="960.917" height="865.805" viewBox="0 0 960.917 865.805">
  <g id="Group_580" data-name="Group 580" transform="translate(-84.656 -45.263)">
    <g id="Group_579" data-name="Group 579" transform="translate(84.656 45.263)">
      <g id="noun-forum-5578168" transform="translate(0 0)">
        <path id="Path_19658" data-name="Path 19658" d="M259.371,341.555l9.114,14.459,286.3,18.852,10.829-14.549L524.273,299.77l154.275,3.321,5.1-.887,93.1-36.338,6.67-8.824V31.841H760.463V250.823L690.319,278.2V33.88H667.36V283.417l-626.995-13.5V202.235H17.407v77.156L28.595,289.1l261.971,5.639Zm275.449,12.5L288.215,337.821,316.552,295.3l180.8,3.892Z" transform="translate(97.111 252.221)" fill="#fff"/>
        <path id="Path_19659" data-name="Path 19659" d="M17.407,69.584v52.87H38.454V78.382L343.562,39.265l-3.741-23.522L27.359,59.4Z" transform="translate(97.111 68.364)" fill="#fff"/>
        <path id="Path_19660" data-name="Path 19660" d="M517.313,61.542l-.766,14.872L632.24,81.967,501.882,141.5,66.122,117.117,183.541,65.106l-10.3-12.9L26.9,116.225l-5.17,6.448v120.75l8.687,7.345,472.455,54.419,8.969-2.114L673.179,185.5l2.983-5.231V75.428l-9.937-7.436ZM42.369,130.712,494.184,156V289.12L42.369,237.076V130.712ZM514.824,279.744V153.207l140.7-64.26v88.268Z" transform="translate(160.328 560.619)" fill="#fff"/>
        <path id="Path_19661" data-name="Path 19661" d="M300.9,288.969l20.033-7.3V237.3c29.888-1.23,53.783-23,53.783-49.589V76.576c0-27.377-25.327-49.649-56.453-49.649H67.066C35.928,26.926,10.6,49.2,10.6,76.576v111.14c0,27.372,25.327,49.644,56.465,49.644H242.212ZM34.072,187.715V76.576c0-15.994,14.807-29.009,32.994-29.009h251.2c18.187,0,32.983,13.016,32.983,29.009v111.14c0,15.994-14.8,29-32.983,29H309.2l-11.735,10.32v29.72l-42.093-37.016-8.3-3.023H67.066C48.878,216.72,34.072,203.709,34.072,187.715Z" transform="translate(-10.601 189.346)" fill="#fff"/>
        <path id="Path_19662" data-name="Path 19662" d="M478.563,2.5H115.744c-36.9,0-66.908,27.914-66.908,62.225V210.738c0,34.28,29.967,62.173,66.82,62.22v61.22l19.38,7.464,73.86-68.684H478.563c36.9,0,66.92-27.914,66.92-62.22V64.725C545.482,30.414,515.459,2.5,478.563,2.5Zm47.258,208.238c0,22.666-19.834,41.105-44.214,41.105H204.194l-8.027,3.093-60.851,52.629V261.274l-11.353-10.557H112.7c-24.369,0-44.2-18.439-44.2-41.105V63.6c0-22.666,19.834-41.11,44.2-41.11l368.908,1.126c24.38,0,44.214,18.444,44.214,41.11Z" transform="translate(415.435 -2.5)" fill="#fff"/>
      </g>
      <path id="Line_57" data-name="Line 57" d="M116.231,18.282H-.532c-5.5,0-9.968-6.443-9.968-14.391S-6.037-10.5-.532-10.5H116.231c5.5,0,9.968,6.443,9.968,14.391S121.736,18.282,116.231,18.282Z" transform="translate(118.738 320.86)" fill="#fff"/>
      <path id="Line_58" data-name="Line 58" d="M310.857,17.286H3.828A14.116,14.116,0,0,1-10.5,3.393,14.116,14.116,0,0,1,3.828-10.5H310.857A14.116,14.116,0,0,1,325.185,3.393,14.116,14.116,0,0,1,310.857,17.286Z" transform="translate(557.215 92.139)" fill="#fff"/>
      <path id="Line_59" data-name="Line 59" d="M194.33,17.017H3.6A13.934,13.934,0,0,1-10.5,3.259,13.934,13.934,0,0,1,3.6-10.5H194.33a13.934,13.934,0,0,1,14.1,13.759A13.934,13.934,0,0,1,194.33,17.017Z" transform="translate(673.992 170.485)" fill="#fff"/>
    </g>
  </g>
</svg>
