<svg xmlns="http://www.w3.org/2000/svg" xmlns:xlink="http://www.w3.org/1999/xlink" width="1000" height="1000" viewBox="0 0 1000 1000">
  <defs>
    <clipPath id="clip-path">
      <rect id="Rectangle_697" data-name="Rectangle 697" width="1000" height="1000" fill="#fff"/>
    </clipPath>
    <clipPath id="clip-path-2">
      <rect id="Rectangle_696" data-name="Rectangle 696" width="869.824" height="1033.412" fill="#fff"/>
    </clipPath>
  </defs>
  <g id="Mask_Group_48" data-name="Mask Group 48" clip-path="url(#clip-path)">
    <g id="Group_578" data-name="Group 578" transform="translate(541.422 -209.878) rotate(39)">
      <g id="Group_577" data-name="Group 577" clip-path="url(#clip-path-2)">
        <path id="Path_19656" data-name="Path 19656" d="M449.839,0c15.867,6.776,33.231,11.088,47.3,20.822C530.951,44.2,546.99,79.266,547.617,122.268c.156,10.759.295,21.532-.073,32.278-.189,5.466,1.516,8.246,6.246,10.652,92.995,47.287,148.9,125.258,166.939,233.484,3.506,21.026,3.6,42.817,4.065,64.284,1.106,51.237,4.806,102,19.426,151.228,18.232,61.388,51.906,108.915,106.792,138.127,21.292,11.333,24.987,37.1,8.631,55.686-18.167,20.639-41.655,32.13-65.985,41.649-48.74,19.07-99.536,28.287-150.878,34.232-31.838,3.687-63.8,6.163-95.214,9.137-.645,14,.111,28.211-2.179,41.837-8.437,50.236-44.647,87.663-92.088,96.756a40.58,40.58,0,0,0-5.35,1.795H421.5c-11.641-3.886-23.844-6.472-34.827-11.884C342.753,999.9,317.63,951.253,322.8,899.8c.2-1.991.242-4,.431-7.3-10.976-.8-21.811-1.566-32.641-2.4-66.894-5.116-133.383-13.033-197.81-34.275-26.541-8.752-52.153-19.874-74.035-38.8-9.122-7.89-17.593-16.562-18.6-30.262-1.1-14.885,4.1-27.009,16.562-33.5,73.156-38.1,107.16-105.368,118.9-186.964,6.425-44.649,6.448-90.329,9.823-135.506,9.135-122.309,65.774-210.356,168.43-264.691,6.042-3.2,8.055-6.437,8.133-13.434.209-18.448-1-37.413,2.529-55.228,10.243-51.692,41-83.109,89.023-95.346,2.065-.525,4.05-1.391,6.072-2.1ZM783.42,744.057a259.548,259.548,0,0,1-49.03-68.022c-27.508-55.2-37.553-115.018-40.8-176.579-1.682-31.866-.149-64.206-4.682-95.572C668.145,260.234,546.615,160,411.259,173.113c-129.537,12.546-229.428,125.866-234.065,264.65-1.345,40.26-2.677,80.708-7.442,120.6C162.936,615.4,145.243,668.739,111.5,714.7c-7.488,10.2-15.983,19.554-24.526,29.915,5,2.263,9.525,4.545,14.2,6.384C149.4,769.965,199.846,777.371,250.551,783c68.005,7.552,136.257,9.077,204.577,8.48,84.726-.743,169.191-4.817,252.582-22.461,25.577-5.412,50.79-12.3,75.709-24.963m54.007,39.24c-8.621-5.307-16.079-10.167-23.816-14.457a7.634,7.634,0,0,0-6.652.3c-29.9,18.378-62.8,27.143-96.146,34.31-59.7,12.829-120.176,18.316-180.927,20.526-114.3,4.161-228.5,3.881-341.907-14.791-43.2-7.113-86.255-15.708-124.891-39.743-1.786-1.111-5-1.483-6.717-.517-8.017,4.505-15.744,9.6-24.949,15.342,6.79,5.4,12.205,11.419,18.809,14.648C69.6,808.387,88.9,818.67,109.2,825.2c66.713,21.446,135.706,28.481,204.882,32.047,114.234,5.886,228.431,5.619,342.174-9.621,43.109-5.778,85.794-14.018,126.714-30.319,19.492-7.764,38.4-16.785,54.458-34.006M356.3,894.51c-6.689,39.272,7.931,74.263,38.23,93.042,29.41,18.227,66.62,14.406,92.453-8.951,25.287-22.859,33.477-62.166,25.181-84.091Zm-4.41-744.224c11.792-2.8,20.126-4.282,28.108-6.962,2.569-.861,5.6-4.65,6.007-7.495,1.075-7.578.277-15.45,1.229-23.063,3.166-25.294,23.8-44.09,47.7-43.968,23.927.124,44.282,19.008,47.33,44.423.914,7.621.365,15.437,1.078,23.1.224,2.39,2,6.1,3.735,6.6,8.976,2.605,18.167,4.368,27.425,6.453,0-13.472,1.025-26.258-.189-38.8-3.9-40.373-33.462-71.117-71.816-75.819-35.9-4.4-72.627,19.815-83.3,57.823-4.939,17.59-4.836,36.8-7.306,57.71M450.8,137.845c-.728-11.954,3.826-24.934-8.12-31.584-4.516-2.514-12.9-2.024-17.2.939-10.563,7.272-6.123,19.565-6.742,30.644Z" transform="translate(0.001)" fill="#fff"/>
        <path id="Path_19657" data-name="Path 19657" d="M297.583,76.8c2.113,0,6.533-.293,10.908.062,9.334.756,15.585,7.511,15.837,16.675.267,9.637-5.876,17-15.842,17.417-25.03,1.05-49.614,4.642-72.629,15.6C161.563,161.908,121.1,222.868,115.482,309.836c-.108,1.677-.043,3.364-.144,5.043-.758,12.7-7.236,20.135-17.079,19.64-9.563-.482-15.092-7.907-15.1-20.292C83.04,199.45,166.16,96.768,272.8,80.02c7.463-1.173,14.978-1.954,24.786-3.216" transform="translate(126.282 129.698)" fill="#fff"/>
      </g>
    </g>
  </g>
</svg>
