<svg id="Group_576" data-name="Group 576" xmlns="http://www.w3.org/2000/svg" xmlns:xlink="http://www.w3.org/1999/xlink" width="995.202" height="1000" viewBox="0 0 995.202 1000">
  <defs>
    <clipPath id="clip-path">
      <rect id="Rectangle_695" data-name="Rectangle 695" width="995.202" height="1000" fill="#fff" stroke="#fff" stroke-linecap="round" stroke-linejoin="bevel" stroke-width="3"/>
    </clipPath>
  </defs>
  <g id="Group_575" data-name="Group 575" clip-path="url(#clip-path)">
    <path id="Path_19655" data-name="Path 19655" d="M173.306,1000c-13.409-3.567-27.262-5.975-40.149-10.907-42.411-16.235-71.523-46.505-88.52-88.3-14.68-36.1-28.7-72.476-42.863-108.787-4.754-12.188.164-18.411,13.427-18.281,63.1.624,126.22,2.307,189.291,1.216,43.841-.759,87.618-5.4,132.782-8.4V744.323c0-20.506.243-41.016-.256-61.509-.076-3.183-2.873-8.243-5.524-9.135C270.38,653.113,208.576,645.916,145.78,666.1c-8.329,2.677-16.4,6.2-24.493,9.563-13.315,5.524-20.039.7-18.86-13.654,7.34-89.329,31.306-174.408,65.953-256.7,42.015-99.782,98.057-191.4,162.658-277.976,4.543-6.085,6.708-12.086,6.359-19.677-.707-15.431.177-30.547-5.391-45.908C324.645,41.439,334.7,19.111,352.9,7.659a48.978,48.978,0,0,1,58.14,4.094c16.532,14.114,20.264,36.113,14.215,56.906-4.12,14.174-3.136,29.934-3.431,45.005-.044,2.291,5.083,5.206,8.3,6.956,59.776,32.541,117.6,68.165,172.041,109.1C663.588,275.9,720.009,327.211,763.9,390.977c44.909,65.24,70.84,136.61,67.229,216.773-.9,20.039-4.694,39.987-7.817,59.873-1.48,9.414-6.515,11.538-17.662,9.84-26.985-4.107-53.911-8.825-81.019-11.906-59.341-6.748-118.914-7-178.382-2.348-38.881,3.037-77.58,8.368-116.4,12.29-6.513.658-8.838,2.641-8.723,9.425.4,23.364.151,46.74.151,71.161,18.933-2.343,36.9-4.42,54.827-6.808C593.784,733.594,711.3,715.83,830.142,711.892c50.678-1.68,101.489.47,152.234,1.268,11.9.188,16.058,8.165,10.187,18.717-35.706,64.2-70.835,128.73-107.654,192.282-24.775,42.761-63.059,67.307-112.281,74.232a39.737,39.737,0,0,0-5.56,1.61ZM803.6,654.582c10.98-54.075,7.209-106.018-9.855-156.973-22.97-68.58-65.157-124.62-116-174.692-71.273-70.193-153.954-124.672-240.687-173.469a30.9,30.9,0,0,0-4.41-1.456c1.511,4.344,2.5,7.34,3.59,10.3,26.685,72.254,46.492,146.115,52.327,223.257,5.521,72.966-1.975,144.234-28.8,212.739-7.656,19.554-17.193,38.372-26.33,58.553,123.446-17.1,246.464-21.386,370.165,1.746m-466.84-2.766V157.023c-2.782,3.416-4.671,5.482-6.278,7.747-36.971,52.022-71.093,105.812-100.855,162.314-46.5,88.273-81.653,180.548-98.284,279.317-2.333,13.85-3.893,27.831-6.064,43.6A277.5,277.5,0,0,1,231.9,632.512c35.706,1.028,70.174,8.629,104.862,19.3M28.033,798.9c6.208,15.917,12.791,32.141,18.8,48.577,2.114,5.78,5.213,7.744,11.366,7.927,92.2,2.729,184.255-.183,275.871-10.453,99.858-11.2,199.465-24.611,299.2-36.935,97.927-12.1,196.081-20.634,294.918-18.072,2.842.073,7.217-.916,8.376-2.883,10.007-17,19.437-34.333,29.234-51.917a24.642,24.642,0,0,0-3.864-1.041c-9.748-.527-19.494-1.182-29.25-1.448-100.132-2.734-199.611,5.785-298.848,17.874-99.722,12.146-199.324,25.279-299.106,36.9-71.15,8.285-142.666,11.76-214.336,11.5-30.539-.115-61.081-.021-92.359-.021m894.759,13.367c-4.955-.292-7.833-.569-10.716-.618C821.75,810.119,732,818,642.471,828.747c-106.548,12.783-212.953,26.769-319.563,38.97-71.49,8.18-143.381,10.943-215.364,10.411-15.818-.117-31.638-.018-48.048-.018,6.654,20.7,16.1,39.742,31.045,55.63,2.074,2.2,6.213,3.622,9.339,3.522,60.478-1.9,121.181-1.453,181.367-6.8,90.013-8.008,179.781-19.186,269.431-30.751,110.713-14.278,221.375-28.24,333.241-28.916,2.74-.016,6.774-1.482,7.99-3.567,10.286-17.608,20.055-35.515,30.884-54.957m-45.274,80.466c-4.739,0-7.984-.2-11.2.029-66.169,4.665-132.544,7.431-198.45,14.536-98.571,10.628-196.762,24.72-295.205,36.575-76.9,9.258-154.11,14.8-231.625,15.256-5.266.031-10.534.005-15.8.005a24.184,24.184,0,0,0,9.91,7.3c19.669,8.686,40.363,11.88,61.757,11.872q232.821-.1,465.64-.037c29.934,0,59.891.689,89.8-.19,58.879-1.735,99.268-31.539,125.173-85.347M359.813,97.2V763.131c11.22-1.213,21.529-2.711,31.891-3.311,6.455-.373,8.031-3.076,7.953-9.153-.358-27.982-.365-55.969-.358-83.957q.09-268,.237-536c.005-11.549,0-23.1,0-33.509Zm61.655,525.137c.506.162,1.015.324,1.521.488,1.333-2.484,2.771-4.916,3.987-7.455,27.108-56.677,39.784-116.73,41.055-179.264,1.733-85.021-16.308-166.617-43.823-246.482-.4-1.151-1.294-2.129-2.74-4.438ZM379.073,76.6A27.041,27.041,0,0,0,406.5,49.65c.167-15.4-12.5-28.136-27.711-27.865-14.743.264-27.218,12.971-27.142,27.651A27.669,27.669,0,0,0,379.073,76.6" transform="translate(0.001 0)" fill="#fff"/>
    <path id="Path_19655_-_Outline" data-name="Path 19655 - Outline" d="M767.067,1001.5H173.306l-.386-.05c-4.2-1.117-8.524-2.139-12.706-3.128-9.178-2.169-18.668-4.412-27.594-7.828a160.9,160.9,0,0,1-29.61-14.909,147.109,147.109,0,0,1-24.709-20,152.974,152.974,0,0,1-19.888-24.834,178.311,178.311,0,0,1-15.167-29.4c-11.985-29.474-23.719-59.619-35.066-88.771-2.556-6.567-5.2-13.358-7.8-20.035-2.47-6.333-2.5-11.336-.086-14.869,2.475-3.623,7.355-5.459,14.5-5.459l.421,0c17.441.172,35.175.43,52.324.679,30.335.441,61.7.9,92.541.9,15.9,0,30.418-.117,44.385-.359,30.158-.522,59.664-2.836,90.9-5.285,13.189-1.034,26.812-2.1,40.406-3.015V744.323c0-5.061.015-10.206.029-15.182.044-15.179.09-30.874-.285-46.291a10.833,10.833,0,0,0-1.591-4.7,6.929,6.929,0,0,0-2.912-3.045c-9.122-3.07-18.174-5.805-26.9-8.13-9.122-2.43-18.2-4.493-26.981-6.133-9.129-1.7-18.234-3.008-27.063-3.872-9.141-.9-18.277-1.349-27.152-1.349a254.855,254.855,0,0,0-38.224,2.857,248,248,0,0,0-38.453,9.057c-6.942,2.231-13.838,5.116-20.508,7.906-1.268.53-2.579,1.079-3.87,1.614a26.537,26.537,0,0,1-9.886,2.342,10.145,10.145,0,0,1-7.815-3.114c-2.687-2.917-3.773-7.759-3.229-14.391,1.8-21.927,4.677-44.253,8.547-66.359,3.744-21.39,8.533-43.222,14.234-64.889,5.5-20.891,12.01-42.274,19.36-63.555,7.055-20.427,15.1-41.407,23.924-62.357,10.291-24.44,21.764-49.153,34.1-73.452,11.9-23.44,24.971-47.217,38.85-70.672,13.33-22.527,27.825-45.467,43.084-68.182,14.575-21.7,30.322-43.9,46.8-65.985a31.235,31.235,0,0,0,4.793-8.849,26.855,26.855,0,0,0,1.27-9.861c-.14-3.059-.219-6.145-.3-9.129-.154-6-.312-12.209-.982-18.269A77.413,77.413,0,0,0,330.6,62.261a42.062,42.062,0,0,1-2.489-15.977,45.676,45.676,0,0,1,3.37-15.465A52.459,52.459,0,0,1,352.1,6.389,50.977,50.977,0,0,1,379.268-1.5,50.316,50.316,0,0,1,412.01,10.612a48.713,48.713,0,0,1,10.364,12.3,50.353,50.353,0,0,1,5.7,14.456,63.609,63.609,0,0,1-1.382,31.71c-3.235,11.129-3.267,23.5-3.3,35.463-.008,3.008-.016,6.119-.075,9.152,0,.007.049.777,2.315,2.443a47.459,47.459,0,0,0,5.2,3.167c65.761,35.8,122.1,71.523,172.226,109.216,33.825,25.433,62.477,49.692,87.592,74.162,14.037,13.677,27.238,27.712,39.237,41.717a549.7,549.7,0,0,1,35.248,45.728c5.666,8.231,11.043,16.587,15.982,24.838,5.045,8.427,9.782,16.992,14.078,25.455,4.383,8.635,8.437,17.417,12.048,26.1,3.68,8.853,7.009,17.864,9.892,26.783,2.936,9.081,5.5,18.331,7.61,27.492,2.15,9.32,3.9,18.818,5.2,28.231,1.323,9.568,2.221,19.323,2.668,29,.454,9.825.458,19.848.01,29.791-.74,16.426-3.444,33-6.059,49.022-.589,3.612-1.2,7.348-1.775,11.016a20.1,20.1,0,0,1-1.442,5.168,10.678,10.678,0,0,1-2.67,3.723,10.131,10.131,0,0,1-3.954,2.122,17.785,17.785,0,0,1-5.013.627,42.09,42.09,0,0,1-6.291-.55c-7.326-1.115-14.768-2.294-21.966-3.434-19.309-3.059-39.276-6.223-59-8.464-16.234-1.846-32.914-3.244-49.576-4.154-16.254-.888-32.957-1.339-49.646-1.339-25.588,0-52.125,1.06-78.873,3.15-24.051,1.879-48.448,4.684-72.042,7.4-14.52,1.67-29.534,3.4-44.325,4.89-3.078.311-4.9.917-5.92,1.966-1.057,1.091-1.5,2.923-1.454,5.941.286,16.863.239,33.435.19,50.981-.017,6.039-.035,12.267-.038,18.508,5.505-.679,10.97-1.341,16.27-1.984,12.7-1.539,24.691-2.993,36.858-4.614,15.371-2.048,31-4.167,46.11-6.216,50.3-6.821,102.315-13.873,153.614-19.505,27.621-3.032,52.834-5.423,77.079-7.307,27.219-2.115,52.531-3.544,77.383-4.367,12.709-.422,26.055-.626,40.8-.626,23.93,0,48.268.552,71.805,1.085,13.014.3,26.472.6,39.7.808a19.59,19.59,0,0,1,7.908,1.6,10.836,10.836,0,0,1,5,4.4c2.26,3.914,1.751,9.222-1.434,14.946-9.088,16.34-18.291,32.977-27.191,49.067-26.067,47.123-53.022,95.851-80.476,143.238a160.6,160.6,0,0,1-21.274,28.935,143.025,143.025,0,0,1-26.174,22.122,147.9,147.9,0,0,1-30.795,15.327,175.19,175.19,0,0,1-35.127,8.582,19.708,19.708,0,0,0-3.52.969c-.592.2-1.2.41-1.824.594Zm-593.565-3H766.847c.493-.151.985-.319,1.5-.495a22.248,22.248,0,0,1,4.069-1.1,172.192,172.192,0,0,0,34.524-8.432,144.9,144.9,0,0,0,30.17-15.014A140.022,140.022,0,0,0,862.736,951.8a157.6,157.6,0,0,0,20.874-28.395C911.05,876.046,938,827.331,964.057,780.221c8.9-16.091,18.1-32.729,27.195-49.073,2.652-4.766,3.169-9.023,1.457-11.988a7.9,7.9,0,0,0-3.659-3.18,16.646,16.646,0,0,0-6.7-1.319c-13.239-.208-26.7-.514-39.721-.809-23.52-.533-47.841-1.085-71.737-1.085-14.714,0-28.027.2-40.7.625-24.807.822-50.076,2.248-77.25,4.36-24.213,1.882-49.395,4.269-76.984,7.3-51.261,5.628-103.255,12.678-153.538,19.5-15.114,2.049-30.742,4.168-46.117,6.217-12.185,1.623-24.187,3.078-36.894,4.619-5.839.708-11.876,1.44-17.947,2.191l-1.684-1.489c0-6.812.019-13.625.038-20.214.05-17.53.1-34.089-.189-50.922-.066-3.878.643-6.37,2.3-8.079,1.564-1.615,3.889-2.472,7.774-2.864,14.77-1.492,29.774-3.217,44.284-4.886,23.621-2.716,48.045-5.524,72.151-7.407,26.826-2.1,53.441-3.159,79.107-3.159,16.744,0,33.5.452,49.81,1.343,16.721.914,33.46,2.317,49.752,4.169,19.786,2.249,39.786,5.418,59.127,8.482,7.193,1.139,14.631,2.318,21.948,3.432a39.205,39.205,0,0,0,5.839.516c3.216,0,5.435-.635,6.984-2,1.6-1.406,2.591-3.664,3.132-7.106.578-3.677,1.188-7.417,1.778-11.034,2.6-15.94,5.291-32.423,6.023-48.674.444-9.852.44-19.783-.01-29.517-.443-9.583-1.333-19.247-2.643-28.725-1.289-9.325-3.023-18.734-5.154-27.967-2.094-9.078-4.632-18.244-7.542-27.244-2.859-8.842-6.159-17.776-9.808-26.554-3.582-8.617-7.6-17.33-11.953-25.9a439.476,439.476,0,0,0-29.856-49.949,546.664,546.664,0,0,0-35.055-45.478c-11.94-13.937-25.079-27.906-39.052-41.521-25.023-24.38-53.579-48.558-87.3-73.913-50.011-37.6-106.226-73.251-171.857-108.979-5.489-2.989-9.134-5.545-9.08-8.3.059-3.008.067-6.106.074-9.1.031-12.171.063-24.757,3.416-36.293a60.609,60.609,0,0,0,1.338-30.207,47.355,47.355,0,0,0-5.358-13.6,45.714,45.714,0,0,0-9.728-11.543A47.317,47.317,0,0,0,379.268,1.5a47.982,47.982,0,0,0-25.573,7.428,49.437,49.437,0,0,0-19.438,23.017A42.684,42.684,0,0,0,331.1,46.4a39.075,39.075,0,0,0,2.312,14.843A80.361,80.361,0,0,1,337.6,80c.683,6.186.843,12.457,1,18.521.076,2.969.155,6.039.293,9.068.352,7.64-1.7,14.006-6.655,20.643-16.452,22.048-32.17,44.207-46.717,65.863-15.227,22.668-29.692,45.559-42.993,68.037-13.846,23.4-26.885,47.12-38.757,70.5-12.3,24.236-23.748,48.884-34.011,73.258-8.795,20.889-16.82,41.806-23.854,62.172-7.325,21.21-13.817,42.52-19.294,63.339-5.679,21.586-10.45,43.335-14.18,64.643-3.854,22.016-6.718,44.251-8.512,66.087a26.315,26.315,0,0,0,.309,7.563,9.6,9.6,0,0,0,2.136,4.549,7.183,7.183,0,0,0,5.608,2.146,23.647,23.647,0,0,0,8.737-2.113c1.287-.534,2.6-1.081,3.862-1.611,6.727-2.814,13.684-5.724,20.747-7.995a250.989,250.989,0,0,1,38.92-9.167,257.85,257.85,0,0,1,38.676-2.891c8.973,0,18.206.459,27.444,1.363,8.915.873,18.107,2.188,27.321,3.909,8.855,1.654,18.007,3.734,27.2,6.183,8.791,2.341,17.9,5.1,27.088,8.186,2.147.723,3.768,3.049,4.543,4.372a13.733,13.733,0,0,1,2,6.15c.376,15.457.33,31.173.286,46.372-.014,4.973-.029,10.116-.029,15.173v22.218l-1.4,1.5c-14.04.931-28.137,2.036-41.77,3.106-31.285,2.453-60.835,4.77-91.085,5.294-13.985.242-28.52.359-44.437.359-30.86,0-62.239-.456-92.585-.9-17.146-.249-34.876-.506-52.31-.679a23.788,23.788,0,0,0-8.175,1.116,8.428,8.428,0,0,0-4.243,3.034,8.126,8.126,0,0,0-1.265,4.8,21.5,21.5,0,0,0,1.668,7.284c2.605,6.678,5.249,13.469,7.805,20.037,11.344,29.142,23.073,59.277,35.05,88.73a175.313,175.313,0,0,0,14.909,28.9,149.977,149.977,0,0,0,19.5,24.346,144.106,144.106,0,0,0,24.205,19.593,157.9,157.9,0,0,0,29.057,14.629c8.738,3.344,18.129,5.563,27.211,7.71C165.044,996.381,169.322,997.392,173.5,998.5Zm543.923-18.474c-9.123,0-18.4-.065-27.368-.128s-18.237-.128-27.351-.128H642.055l-101.04,0-101.04,0c-66.884,0-154.955,0-243.07.042h-.079c-23.626,0-44-3.925-62.284-12a25.737,25.737,0,0,1-10.476-7.737l1.172-2.436c1.647,0,3.321,0,4.94.005s3.29.005,4.934.005c2.272,0,4.153-.005,5.919-.016,37.626-.223,76.637-1.678,115.95-4.325,37.333-2.514,76.194-6.188,115.5-10.92,38.642-4.653,77.894-9.735,115.853-14.65,58.741-7.605,119.482-15.47,179.37-21.927,45.873-4.945,92.728-7.837,138.04-10.633,19.825-1.223,40.325-2.488,60.465-3.908,1.088-.077,2.264-.113,3.7-.113,1.015,0,2.084.017,3.215.035,1.3.021,2.775.045,4.391.045l1.352,2.151a207.06,207.06,0,0,1-10.478,19.185,170.01,170.01,0,0,1-11.912,16.9,144.794,144.794,0,0,1-13.4,14.552,129.929,129.929,0,0,1-14.93,12.148,124.634,124.634,0,0,1-16.5,9.684,128.654,128.654,0,0,1-18.106,7.162A142.486,142.486,0,0,1,773.8,977.6a167.364,167.364,0,0,1-21.413,1.977C742.013,979.884,730.9,980.026,717.425,980.026Zm-54.881-3.256h.162c9.124,0,18.4.065,27.372.128s18.235.128,27.347.128c13.448,0,24.531-.142,34.877-.446a164.333,164.333,0,0,0,21.028-1.94,139.468,139.468,0,0,0,19.326-4.493,125.641,125.641,0,0,0,17.683-6.995,121.628,121.628,0,0,0,16.1-9.45,126.925,126.925,0,0,0,14.583-11.867,141.751,141.751,0,0,0,13.118-14.25,167.017,167.017,0,0,0,11.7-16.6c3.246-5.238,6.364-10.871,9.282-16.77q-1.083-.013-2.045-.03c-1.119-.018-2.175-.035-3.166-.035-1.363,0-2.472.034-3.488.105-20.154,1.421-40.66,2.686-60.492,3.91-45.278,2.794-92.1,5.683-137.9,10.621-59.857,6.453-120.582,14.316-179.307,21.919-37.966,4.916-77.225,10-115.88,14.653-39.362,4.739-78.276,8.418-115.661,10.935-39.374,2.651-78.447,4.109-116.134,4.332-1.772.01-3.658.016-5.936.016-1.647,0-3.32,0-4.939-.005l-1.508,0a24.464,24.464,0,0,0,7.089,4.426c17.895,7.9,37.871,11.744,61.072,11.744h.078c88.115-.037,176.187-.042,243.071-.042l101.04,0,101.04,0Zm-562.976-38a15.809,15.809,0,0,1-5.45-1.062,12.712,12.712,0,0,1-4.669-2.938A120.472,120.472,0,0,1,79.1,922.127a132.954,132.954,0,0,1-8.508-13.68,173.215,173.215,0,0,1-12.523-29.878L59.5,876.61c5.193,0,10.393-.01,15.421-.02,4.912-.01,9.992-.019,14.948-.019,6.791,0,12.412.018,17.689.057,5.688.042,11.407.063,17,.063,34.335,0,67.733-.811,99.266-2.409,33.982-1.723,67.263-4.433,98.918-8.055,63.669-7.287,128.333-15.343,190.869-23.134,42.169-5.254,85.774-10.687,128.686-15.835,46.82-5.618,86-9.539,123.3-12.342,44.393-3.336,84.9-4.957,123.83-4.957,7.6,0,15.226.064,22.679.19,1.9.033,3.795.162,6.2.325,1.324.09,2.824.192,4.58.3L924.1,813c-2.536,4.552-5.035,9.061-7.453,13.421-8,14.432-15.561,28.064-23.446,41.563a8.636,8.636,0,0,1-4.139,3.186,14.118,14.118,0,0,1-5.137,1.124c-26.892.162-54.243,1.076-83.614,2.793-26.272,1.536-53.521,3.681-83.3,6.557-53.5,5.168-106.895,11.913-166.141,19.554-40.306,5.2-87.817,11.251-134.6,16.711-49.568,5.786-93.691,10.38-134.892,14.046-19.257,1.712-40.369,2.983-64.544,3.885-21.545.8-43.476,1.247-64.685,1.676-17.124.346-34.831.7-52.224,1.25C99.81,938.766,99.689,938.767,99.568,938.767Zm-38-59.158a167.733,167.733,0,0,0,11.664,27.407,129.947,129.947,0,0,0,8.315,13.371,117.471,117.471,0,0,0,10.091,12.326,12.175,12.175,0,0,0,7.934,3.055c.089,0,.178,0,.265,0,17.41-.546,35.125-.9,52.258-1.25,21.2-.428,43.114-.871,64.634-1.674,24.123-.9,45.185-2.168,64.39-3.875,41.173-3.663,85.27-8.255,134.81-14.037,46.765-5.459,94.264-11.509,134.561-16.707,59.272-7.644,112.692-14.392,166.236-19.565,29.82-2.88,57.106-5.028,83.416-6.566,29.424-1.72,56.826-2.635,83.772-2.8a11.185,11.185,0,0,0,4-.891,5.847,5.847,0,0,0,2.707-1.932c7.869-13.47,15.419-27.088,23.413-41.5,2.05-3.7,4.159-7.5,6.3-11.347-.8-.052-1.537-.1-2.227-.149-2.362-.161-4.227-.288-6.047-.319-7.436-.126-15.049-.19-22.628-.19-38.856,0-79.288,1.619-123.6,4.949-37.256,2.8-76.394,6.717-123.169,12.329-42.905,5.148-86.507,10.58-128.673,15.833-62.543,7.792-127.215,15.849-190.9,23.138-31.718,3.629-65.063,6.345-99.107,8.071-31.584,1.6-65.033,2.413-99.418,2.413-5.6,0-11.324-.021-17.02-.063-5.27-.039-10.883-.057-17.667-.057-4.953,0-10.032.01-14.942.019C70.561,879.6,66.069,879.607,61.564,879.609Zm61.225-21.738c-21.188,0-42.933-.326-64.631-.968-3.489-.1-6.031-.779-8-2.126-2.046-1.4-3.549-3.555-4.731-6.786-4.324-11.823-9-23.667-13.515-35.122-1.74-4.411-3.539-8.972-5.276-13.425l1.4-2.045c9.761,0,19.587-.009,29.088-.018,9.358-.009,19.035-.018,28.5-.018,13.372,0,24.421.018,34.772.057,2.5.009,5.039.014,7.535.014,35.122,0,69.945-.927,103.5-2.755,34.941-1.9,69.636-4.846,103.122-8.745,60.435-7.036,121.818-14.755,181.18-22.221,38.641-4.86,78.6-9.885,117.918-14.674,48.4-5.9,90.988-10.2,130.192-13.158,46.735-3.526,89.494-5.24,130.718-5.24,12.842,0,25.681.173,38.16.513,7.363.2,14.832.629,22.055,1.043,2.372.136,4.824.277,7.235.407a9.473,9.473,0,0,1,2.383.552c.5.159,1.073.339,1.8.541l.91,2.176c-2.268,4.07-4.55,8.189-6.757,12.171-7.274,13.126-14.8,26.7-22.495,39.777-1.567,2.661-6.462,3.626-9.37,3.626-.114,0-.227,0-.337,0-11.66-.3-23.645-.456-35.622-.456-20.94,0-42.793.47-64.951,1.4-20.755.868-42.561,2.171-64.812,3.872-38.971,2.979-81.268,7.312-129.311,13.248-32.873,4.062-66.285,8.313-98.6,12.424-65.714,8.361-133.664,17.006-200.615,24.513-34.424,3.859-69.948,6.776-105.586,8.669C194.177,856.942,158.559,857.871,122.788,857.871ZM30.23,800.4c1.484,3.791,3,7.634,4.473,11.369,4.525,11.472,9.2,23.334,13.542,35.193.956,2.614,2.1,4.311,3.606,5.34s3.467,1.517,6.4,1.6c21.668.641,43.383.967,64.542.967,35.717,0,71.282-.927,105.707-2.756,35.579-1.89,71.044-4.8,105.411-8.654,66.928-7.5,134.868-16.148,200.571-24.507,32.314-4.111,65.729-8.362,98.607-12.425,48.09-5.942,90.433-10.28,129.451-13.262,22.286-1.7,44.126-3.008,64.915-3.878,22.2-.929,44.095-1.4,65.076-1.4,12,0,24.014.154,35.7.456.084,0,.172,0,.26,0,2.837,0,6.134-1.044,6.785-2.148,7.679-13.044,14.857-26,22.456-39.709,1.914-3.453,3.884-7.008,5.852-10.546l-.087-.028a7.652,7.652,0,0,0-1.639-.417c-2.416-.131-4.871-.271-7.245-.408-7.2-.413-14.647-.839-21.965-1.039-12.452-.34-25.264-.512-38.078-.512-41.149,0-83.833,1.711-130.493,5.231-39.157,2.954-81.7,7.254-130.055,13.144-39.314,4.789-79.268,9.813-117.907,14.672C456.74,774.156,395.35,781.876,334.9,788.914c-33.547,3.906-68.3,6.854-103.305,8.761-33.609,1.831-68.486,2.76-103.663,2.76-2.5,0-5.038,0-7.546-.014-10.347-.039-21.393-.057-34.761-.057-9.467,0-19.143.009-28.5.018C48.334,800.389,39.267,800.4,30.23,800.4Zm329.745-35.777-1.661-1.491V97.2l1.5-1.5h39.724l1.5,1.5c0,3.39,0,6.9,0,10.492,0,7.487,0,15.228,0,23.017q-.03,63.243-.06,126.485c-.065,134.221-.131,273.012-.177,409.517-.008,29.97.013,56.971.357,83.937.048,3.7-.508,6-1.857,7.674-1.473,1.833-3.859,2.785-7.509,3-7.178.416-14.3,1.261-21.83,2.155C366.725,763.857,363.38,764.254,359.975,764.622ZM361.313,98.7V761.457c2.819-.314,5.594-.643,8.293-.964,7.581-.9,14.742-1.75,22.011-2.171,3.6-.208,4.776-1.173,5.344-1.88.864-1.076,1.233-2.851,1.2-5.757-.345-26.984-.366-54-.358-83.976.046-136.506.113-275.3.177-409.518q.03-63.242.06-126.485c0-7.788,0-15.529,0-23.015,0-3.065,0-6.071,0-8.993ZM803.327,656.056c-14.721-2.753-29.8-5.179-44.833-7.211-14.69-1.987-29.758-3.655-44.785-4.959-14.663-1.272-29.72-2.235-44.753-2.862-14.638-.61-29.69-.919-44.736-.919-15.543,0-31.565.331-47.619.982-15.516.63-31.541,1.579-47.628,2.821-15.486,1.2-31.517,2.7-47.649,4.474-15.449,1.7-31.491,3.7-47.68,5.939l-1.572-2.1c2.91-6.427,5.891-12.78,8.774-18.925,6.337-13.508,12.323-26.266,17.526-39.556a429.606,429.606,0,0,0,16.534-51.7,451.305,451.305,0,0,0,9.9-52.641,499.245,499.245,0,0,0,3.86-53.491c.336-17.541-.2-35.792-1.6-54.248-1.416-18.718-3.727-37.942-6.869-57.138-2.993-18.284-6.841-37.153-11.437-56.082-4.341-17.879-9.5-36.446-15.343-55.185-5.45-17.487-11.7-35.8-18.589-54.445-.728-1.968-1.419-3.984-2.219-6.318-.407-1.187-.868-2.533-1.38-4.005l1.879-1.92c.836.271,1.5.462,2.1.63a11.564,11.564,0,0,1,2.587.945c23.233,13.071,44.243,25.453,64.23,37.852,22.23,13.791,42.523,27.182,62.039,40.94,20.853,14.7,40.756,29.83,59.156,44.971,19.627,16.15,38.326,32.954,55.578,49.945,13.222,13.021,25.479,26.1,36.431,38.868a491.317,491.317,0,0,1,32.207,41.758,406.572,406.572,0,0,1,26.982,45.268c4.037,7.934,7.811,16.056,11.217,24.142,3.49,8.286,6.7,16.78,9.534,25.248a320.231,320.231,0,0,1,10.332,38.6,294.623,294.623,0,0,1,5.09,78.778,312.851,312.851,0,0,1-5.518,40.369ZM624.22,637.106c15.088,0,30.181.31,44.861.922,15.077.628,30.18,1.594,44.887,2.87,15.074,1.308,30.19,2.982,44.928,4.974,14.583,1.972,29.219,4.314,43.527,6.964A309.421,309.421,0,0,0,807.6,614.3a291.617,291.617,0,0,0-5.039-77.98,317.233,317.233,0,0,0-10.235-38.237c-2.812-8.4-5.993-16.82-9.454-25.037-3.378-8.019-7.121-16.076-11.126-23.946a403.521,403.521,0,0,0-26.782-44.932,488.339,488.339,0,0,0-32.01-41.5c-10.9-12.706-23.1-25.721-36.259-38.684-17.189-16.928-35.821-33.672-55.379-49.766-18.343-15.093-38.186-30.178-58.978-44.835-19.468-13.723-39.713-27.083-61.893-40.842-19.951-12.377-40.925-24.737-64.12-37.787a6.436,6.436,0,0,0-1.3-.491l.43,1.253c.794,2.316,1.48,4.316,2.2,6.251,6.9,18.689,13.173,37.056,18.639,54.592,5.859,18.8,11.039,37.429,15.395,55.37,4.613,19,8.477,37.947,11.482,56.306,3.156,19.281,5.478,38.592,6.9,57.4,1.4,18.549,1.944,36.9,1.605,54.531a502.274,502.274,0,0,1-3.883,53.814,454.35,454.35,0,0,1-9.969,52.992,432.617,432.617,0,0,1-16.65,52.061c-5.239,13.382-11.245,26.183-17.6,39.736-2.507,5.344-5.089,10.846-7.631,16.412,15.3-2.1,30.447-3.971,45.066-5.578,16.164-1.776,32.228-3.284,47.746-4.483,16.124-1.245,32.185-2.2,47.738-2.828C592.574,637.437,608.636,637.106,624.22,637.106Zm-287.9,16.144a495.3,495.3,0,0,0-51.893-13.23c-8.879-1.715-17.671-3.083-26.132-4.068-8.92-1.039-17.815-1.691-26.44-1.939-2.922-.084-5.866-.127-8.75-.127A275.4,275.4,0,0,0,125.8,651.4l-2.007-1.611c.7-5.105,1.344-10.041,1.964-14.815,1.3-10,2.525-19.438,4.107-28.826,4.076-24.206,9.413-48.778,15.864-73.035,6.223-23.4,13.674-47.226,22.146-70.818,8.137-22.659,17.473-45.818,27.75-68.833,9.815-21.982,20.81-44.552,32.677-67.081,7.3-13.864,15.089-27.972,23.143-41.933,7.8-13.524,16.09-27.318,24.636-41,16.153-25.862,34.045-52.627,53.18-79.551,1.083-1.526,2.259-2.928,3.747-4.7.764-.911,1.63-1.943,2.59-3.123l2.663.947V651.816ZM223.107,630.885c2.913,0,5.885.043,8.836.128,8.711.251,17.694.91,26.7,1.958,8.535.994,17.4,2.374,26.354,4.1a493.27,493.27,0,0,1,50.265,12.714V161.18c-1.424,1.7-2.552,3.045-3.555,4.458-19.1,26.877-36.96,53.592-53.082,79.4-8.527,13.652-16.8,27.416-24.581,40.909-8.035,13.928-15.8,28-23.087,41.832-11.837,22.472-22.8,44.983-32.592,66.906-10.246,22.947-19.554,46.035-27.666,68.624-8.443,23.513-15.869,47.258-22.07,70.575-6.427,24.167-11.744,48.648-15.805,72.762-1.572,9.332-2.795,18.747-4.09,28.714-.52,4.006-1.056,8.127-1.63,12.369A278.043,278.043,0,0,1,223.107,630.885Zm199.419-6.634q-.607-.2-1.215-.39l-.3-.1-1.043-1.429V185.185l2.771-.8c.518.827.958,1.47,1.346,2.038a11.44,11.44,0,0,1,1.54,2.707c7.129,20.693,13.43,40.995,18.728,60.342,5.7,20.8,10.475,41.382,14.208,61.176,3.961,21.006,6.894,41.922,8.717,62.168a577.724,577.724,0,0,1,2.253,63.315c-.321,15.776-1.38,31.443-3.149,46.565a444.609,444.609,0,0,1-7.726,45.561,418.928,418.928,0,0,1-12.589,44.469,410.489,410.489,0,0,1-17.738,43.285c-.844,1.762-1.8,3.483-2.719,5.147-.43.776-.875,1.579-1.3,2.37Zm.442-433.62V619.742l.018-.033c.9-1.626,1.832-3.307,2.637-4.988a407.485,407.485,0,0,0,17.607-42.967,415.9,415.9,0,0,0,12.5-44.149,441.606,441.606,0,0,0,7.673-45.253c1.758-15.027,2.81-30.6,3.129-46.278a574.656,574.656,0,0,0-2.241-62.985c-1.814-20.149-4.733-40.969-8.677-61.881-3.717-19.715-8.479-40.218-14.153-60.939C436.224,231.145,430,211.083,422.968,190.63ZM379.168,78.1h-.1a28.467,28.467,0,0,1-11.145-2.3A29.558,29.558,0,0,1,352.5,60.511a27.784,27.784,0,0,1-.089-22.139,30.235,30.235,0,0,1,15.3-15.587,28.052,28.052,0,0,1,11.06-2.5c.17,0,.334,0,.5,0a27.919,27.919,0,0,1,11.13,2.3,28.932,28.932,0,0,1,9.133,6.254,29.28,29.28,0,0,1,6.249,9.381A28.783,28.783,0,0,1,379.168,78.1Zm.1-54.815c-.151,0-.3,0-.45,0a25.069,25.069,0,0,0-9.883,2.236,27.236,27.236,0,0,0-13.77,14.027,24.786,24.786,0,0,0,.079,19.765A26.558,26.558,0,0,0,369.1,73.033a25.483,25.483,0,0,0,9.977,2.064h.09a25.783,25.783,0,0,0,23.845-35.723A26.293,26.293,0,0,0,397.4,30.95a25.944,25.944,0,0,0-8.19-5.61A24.936,24.936,0,0,0,379.27,23.281Z" transform="translate(0.001 0)" fill="#fff"/>
  </g>
</svg>
