<svg xmlns="http://www.w3.org/2000/svg" width="1000" height="951.5" viewBox="0 0 1000 951.5">
  <g id="Group_543" data-name="Group 543" transform="translate(0 10)">
    <g id="Group_542" data-name="Group 542" transform="translate(0 17.96)">
      <g id="Group_541" data-name="Group 541" transform="translate(0 -17.96)">
        <path id="Path_19585" data-name="Path 19585" d="M656.854,380.807a13.669,13.669,0,0,1-.8,5.04,16.253,16.253,0,0,1-8.75,9.212,20.014,20.014,0,0,1-13.593,1.1L427.235,336.7l-.194-.047a17.068,17.068,0,0,1-10.2-7.785,13.706,13.706,0,0,1-.954-11.818,16.288,16.288,0,0,1,8.874-8.964,19.886,19.886,0,0,1,13.487-.822l152.937,44.029-147.3-171.309c-9.669-11.151-27.947-13.4-40.762-5.009l-120.907,80.04c-28.353,18.75-68.85,13.787-90.239-11.089L3.423,24.634C-2.234,17.842-.731,8.459,6.834,3.279A19.414,19.414,0,0,1,19.862.115,18.279,18.279,0,0,1,31.617,5.946L220.172,225.255c9.669,11.259,27.964,13.508,40.78,5.025l120.89-80.025c28.335-18.61,68.832-13.632,90.256,11.089L619.4,332.653l-6.258-141.129v-.264c-.3-8.53,7.371-15.695,17.093-15.959,9.81-.217,17.906,6.483,18.207,15.028Z" transform="matrix(0.978, -0.208, 0.208, 0.978, 211.523, 126.569)" fill="#fff"/>
        <path id="Line_57" data-name="Line 57" d="M0,851.041a13.86,13.86,0,0,1-14-13.715V-.285A13.86,13.86,0,0,1,0-14,13.86,13.86,0,0,1,14-.285v837.61A13.86,13.86,0,0,1,0,851.041Z" transform="translate(54 90.46)" fill="#fff"/>
        <path id="Line_58" data-name="Line 58" d="M971.989,14H.011A14.006,14.006,0,0,1-14,0,14.006,14.006,0,0,1,.011-14H971.989A14.006,14.006,0,0,1,986,0,14.006,14.006,0,0,1,971.989,14Z" transform="translate(14 887.5)" fill="#fff"/>
        <path id="Path_19580" data-name="Path 19580" d="M216.523,496.64A13.881,13.881,0,0,0,230.4,482.76V451.528h3.47a38.215,38.215,0,0,0,38.172-38.172V276.284a38.215,38.215,0,0,0-38.172-38.172H230.4V206.881a13.881,13.881,0,0,0-27.761,0v31.232h-3.47A38.215,38.215,0,0,0,161,276.284V413.356a38.215,38.215,0,0,0,38.172,38.172h3.47V482.76A13.881,13.881,0,0,0,216.523,496.64Zm-27.761-83.284V276.284a10.421,10.421,0,0,1,10.411-10.411h34.7a10.421,10.421,0,0,1,10.411,10.411V413.356a10.421,10.421,0,0,1-10.411,10.411h-34.7A10.421,10.421,0,0,1,188.761,413.356Z" transform="translate(330 273.807)" fill="#fff"/>
        <path id="Path_19581" data-name="Path 19581" d="M382.523,537.972A13.881,13.881,0,0,0,396.4,524.091V492.86h3.47a38.215,38.215,0,0,0,38.172-38.172v-69.4a38.215,38.215,0,0,0-38.172-38.172H396.4V315.881a13.881,13.881,0,0,0-27.761,0v31.232h-3.47A38.215,38.215,0,0,0,327,385.284v69.4a38.215,38.215,0,0,0,38.172,38.172h3.47v31.232A13.881,13.881,0,0,0,382.523,537.972Zm-27.761-83.284v-69.4a10.421,10.421,0,0,1,10.411-10.411h34.7a10.421,10.421,0,0,1,10.411,10.411v69.4A10.421,10.421,0,0,1,399.874,465.1h-34.7A10.421,10.421,0,0,1,354.761,454.688Z" transform="translate(334 254.528)" fill="#fff"/>
        <path id="Path_19582" data-name="Path 19582" d="M299.523,572.077A13.881,13.881,0,0,0,313.4,558.2V526.965h3.47a38.215,38.215,0,0,0,38.172-38.172V315.284a38.215,38.215,0,0,0-38.172-38.172H313.4V245.881a13.881,13.881,0,1,0-27.761,0v31.232h-3.47A38.215,38.215,0,0,0,244,315.284V488.793a38.215,38.215,0,0,0,38.172,38.172h3.47V558.2A13.881,13.881,0,0,0,299.523,572.077Zm-27.761-83.284V315.284a10.421,10.421,0,0,1,10.411-10.411h34.7a10.421,10.421,0,0,1,10.411,10.411V488.793A10.421,10.421,0,0,1,316.874,499.2h-34.7A10.421,10.421,0,0,1,271.761,488.793Z" transform="translate(76 168.072)" fill="#fff"/>
        <path id="Path_19583" data-name="Path 19583" d="M465.523,530.621A13.881,13.881,0,0,0,479.4,516.74V485.509h3.47a38.215,38.215,0,0,0,38.172-38.172V395.284a38.215,38.215,0,0,0-38.172-38.172H479.4V325.881a13.881,13.881,0,1,0-27.761,0v31.232h-3.47A38.215,38.215,0,0,0,410,395.284v52.053a38.215,38.215,0,0,0,38.172,38.172h3.47V516.74A13.881,13.881,0,0,0,465.523,530.621Zm-27.761-83.284V395.284a10.421,10.421,0,0,1,10.411-10.411h34.7a10.421,10.421,0,0,1,10.411,10.411v52.053a10.421,10.421,0,0,1-10.411,10.411h-34.7A10.421,10.421,0,0,1,437.761,447.337Z" transform="translate(422 291.879)" fill="#fff"/>
        <path id="Path_19584" data-name="Path 19584" d="M116.172,550.335h3.47v31.232a13.881,13.881,0,1,0,27.761,0V550.335h3.47a38.215,38.215,0,0,0,38.172-38.172V236.284a38.215,38.215,0,0,0-38.172-38.172H147.4V166.881a13.881,13.881,0,1,0-27.761,0v31.232h-3.47A38.215,38.215,0,0,0,78,236.284V512.163A38.215,38.215,0,0,0,116.172,550.335ZM105.761,236.284a10.421,10.421,0,0,1,10.411-10.411h34.7a10.421,10.421,0,0,1,10.411,10.411V512.163a10.421,10.421,0,0,1-10.411,10.411h-34.7a10.421,10.421,0,0,1-10.411-10.411Z" transform="translate(71 175)" fill="#fff"/>
      </g>
    </g>
  </g>
</svg>
