<svg id="Group_574" data-name="Group 574" xmlns="http://www.w3.org/2000/svg" xmlns:xlink="http://www.w3.org/1999/xlink" width="981.23" height="887.713" viewBox="0 0 981.23 887.713">
  <defs>
    <clipPath id="clip-path">
      <rect id="Rectangle_694" data-name="Rectangle 694" width="981.23" height="887.713" fill="#fff"/>
    </clipPath>
  </defs>
  <g id="Group_573" data-name="Group 573" clip-path="url(#clip-path)">
    <path id="Path_19634" data-name="Path 19634" d="M904.069,0H77.146C34.6,0,0,36.849,0,82.149V805.564c0,45.3,34.6,82.149,77.146,82.149H904.069c42.542,0,77.162-36.849,77.162-82.149V82.149C981.23,36.849,946.61,0,904.069,0m52.8,805.564c0,30.9-23.684,56.043-52.8,56.043H77.146c-29.12,0-52.788-25.143-52.788-56.043V82.149c0-30.9,23.668-56.043,52.788-56.043H904.069c29.12,0,52.8,25.143,52.8,56.043Z" fill="#fff"/>
    <path id="Path_19635" data-name="Path 19635" d="M536.041,234.427A12.2,12.2,0,0,1,523.854,246.6H253.131a12.179,12.179,0,0,1,0-24.358H523.854a12.2,12.2,0,0,1,12.187,12.187" transform="translate(145.426 134.128)" fill="#fff"/>
    <path id="Path_19636" data-name="Path 19636" d="M740.924,281.7a12.188,12.188,0,0,1-12.187,12.171H253.131a12.179,12.179,0,0,1,0-24.358H728.737A12.2,12.2,0,0,1,740.924,281.7" transform="translate(145.426 162.657)" fill="#fff"/>
    <path id="Path_19637" data-name="Path 19637" d="M287.417,243.737a12.178,12.178,0,0,0-16.709-4.2l-22.754,13.6-1.62.962-1.587.946V213.928a18.108,18.108,0,0,0-18.088-18.088H77.018A18.108,18.108,0,0,0,58.93,213.928V362.575a18.108,18.108,0,0,0,18.088,18.088H226.659a18.108,18.108,0,0,0,18.088-18.088v-79.15l1.587-.946,1.62-.978L283.2,260.446a12.2,12.2,0,0,0,4.217-16.709m-67.043,25.881-1.587.946-1.62.962-52.243,31.221-.834-1.347c-5.276-8.563-12.62-20.862-21.808-36.56a12.175,12.175,0,0,0-16.661-4.362,12.183,12.183,0,0,0-4.362,16.661c27.581,47.112,30.162,49.613,31.381,50.816l6.719,6.494,57.807-34.54,1.62-.978,1.587-.946V356.3H83.288V220.2H220.373Z" transform="translate(35.566 118.195)" fill="#fff"/>
    <path id="Path_19638" data-name="Path 19638" d="M536.041,416.147a12.2,12.2,0,0,1-12.187,12.171H253.131a12.179,12.179,0,0,1,0-24.358H523.854a12.2,12.2,0,0,1,12.187,12.187" transform="translate(145.426 243.801)" fill="#fff"/>
    <path id="Path_19639" data-name="Path 19639" d="M740.924,463.417a12.188,12.188,0,0,1-12.187,12.171H253.131a12.179,12.179,0,0,1,0-24.358H728.737a12.2,12.2,0,0,1,12.187,12.187" transform="translate(145.426 272.329)" fill="#fff"/>
    <path id="Path_19640" data-name="Path 19640" d="M287.417,425.457a12.216,12.216,0,0,0-16.709-4.2l-22.754,13.6-1.62.962-1.587.946V395.648a18.108,18.108,0,0,0-18.088-18.088H77.018A18.108,18.108,0,0,0,58.93,395.648V544.295a18.108,18.108,0,0,0,18.088,18.088H226.659a18.108,18.108,0,0,0,18.088-18.088v-79.15l1.587-.946,1.62-.978L283.2,442.166a12.2,12.2,0,0,0,4.217-16.709m-67.043,25.881-1.587.946-1.62.962-52.243,31.221-.834-1.347c-5.292-8.579-12.62-20.878-21.808-36.56a12.178,12.178,0,0,0-21.022,12.3c27.581,47.112,30.162,49.613,31.381,50.816l6.719,6.494,57.807-34.54,1.62-.978,1.587-.946v58.32H83.288V401.918H220.373Z" transform="translate(35.566 227.868)" fill="#fff"/>
    <path id="Path_19641" data-name="Path 19641" d="M758.923,58.32H110.168A18.108,18.108,0,0,0,92.08,76.408V153.2a18.108,18.108,0,0,0,18.088,18.088H758.923A18.1,18.1,0,0,0,776.995,153.2V76.408A18.1,18.1,0,0,0,758.923,58.32m-6.27,88.611H116.438V82.678H752.653Z" transform="translate(55.573 35.198)" fill="#fff"/>
  </g>
</svg>
