<svg xmlns="http://www.w3.org/2000/svg" width="934.001" height="936.042" viewBox="0 0 934.001 936.042">
  <g id="noun-reporting-1197347" transform="translate(-66.075 -18.746)">
    <path id="Path_19605" data-name="Path 19605" d="M882.618,21.464,29.033,113.271V672.936H883.217l2.394-644.211Zm16.174-8.3v1.556l19.741,57.056-1.2,313.288,25.141,53.425.6,3.112-1.2,244.821a5.768,5.768,0,0,1-1.2,3.631l-46.69,56.537A27.683,27.683,0,0,1,884.414,758q-10.793,7.267-29.331,8.818l-328.625-7.78a129.617,129.617,0,0,0,3.592,35.789,156.394,156.394,0,0,0,14.366,36.827l165.21,6.743q5.98,0,8.38,4.668,1.8,5.182-2.993,8.3L602.479,936.949a8.824,8.824,0,0,1-5.986,2.075L206.214,915.683q-5.98,0-7.782-4.668-2.388-5.711,2.993-8.818l99.964-70.542q1.8-1.556,5.986-1.556l58.662.519a116.388,116.388,0,0,0,11.972-35.271,138.086,138.086,0,0,0,5.387-39.42l-329.223-7.78q-23.937,0-34.718-11.411a29.732,29.732,0,0,1-8.38-21.266V107.047q0-6.753,8.38-8.3L886.808,5.9h.6c2.394-1.38,4.992-1.214,7.77.519A7.947,7.947,0,0,1,898.792,13.165Zm-86.807,135.9-53.274,76.766a6.208,6.208,0,0,1-4.19,1.556c-2-.353-3.2-.861-3.592-1.556L737.161,205.6,606.071,280.289a6.192,6.192,0,0,1-4.19.519l-90.387-34.233L306.777,340.457l-2.394.519-2.394-.519a3.379,3.379,0,0,1-1.8-3.112V306.224a3.838,3.838,0,0,1,1.8-3.631L505.508,205.6a4.452,4.452,0,0,1,4.19,0l90.387,33.715,118.52-67.948L700.648,150.1a2.846,2.846,0,0,1,0-4.149,4.243,4.243,0,0,1,3.591-1.556l103.556-.519c2,0,3.4.519,4.19,1.556A3.029,3.029,0,0,1,811.985,149.061Zm-69.436,49.275,11.972,18.154,45.493-65.355H712.619l14.965,19.191c1.592,1.38,2.191,2.241,1.8,2.593,0,.685-.8,1.732-2.394,3.112L603.677,246.574a3.69,3.69,0,0,1-4.19.519L508.5,213.378,308.573,308.3v22.822L508.5,239.313c1.592-1.037,2.993-1.214,4.19-.519l89.788,33.715,134.084-76.247c1.2-.353,2-.353,2.394,0A3.886,3.886,0,0,1,742.549,198.336ZM599.486,324.9V556.231h43.1V315.56l-26.338,14.523a7.116,7.116,0,0,1-4.789.519ZM644.38,305.7a7.2,7.2,0,0,1,5.387,0,3.839,3.839,0,0,1,1.8,3.631V560.381q0,3.112-4.789,3.631l-52.077.519-2.993-1.037c-1.2-1.037-1.8-1.909-1.8-2.593V319.191a3.659,3.659,0,0,1,2.394-3.631,4.452,4.452,0,0,1,4.19,0l17.359,6.743Zm42.5-29.047,52.077-30.084a11.294,11.294,0,0,1,4.789,0,4.688,4.688,0,0,1,1.8,3.631v308.62q0,3.112-4.19,3.631l-52.077,1.037-3.592-1.556a3.283,3.283,0,0,1-1.2-2.594V280.289A3.665,3.665,0,0,1,686.88,276.658ZM501.318,302.074V558.306l43.1-.519V304.668l-25.739-10.374Zm17.958-15.561L551,298.443a3.683,3.683,0,0,1,2.394,3.631V561.937c0,1.732-1.4,2.936-4.19,3.631l-52.077,1.037-3.591-1.556a3.321,3.321,0,0,1-1.2-2.593V300q0-2.6,1.8-3.112l21.549-9.855A3.975,3.975,0,0,1,519.276,286.513Zm174.189-4.668V555.194l43.7-.519V257.467ZM762.9,699.908h50.281q4.795,0,4.789,3.631v27.49c0,2.417-1.6,3.631-4.789,3.631H762.9q-4.184,0-4.19-3.631v-27.49C758.711,701.112,760.111,699.908,762.9,699.908Zm45.493,27.49v-19.71h-41.3V727.4Zm-97.57-4.668H676.7q-4.184,0-4.19-3.631t4.19-3.631h34.119q4.184,0,4.19,3.631T710.824,722.73Zm-219.682,41.5q4.795,0,4.789,4.15V796.9q2.388,53.933,25.739,86.621L551.6,861.739a128.2,128.2,0,0,1-11.373-15.561h-1.8a7.279,7.279,0,0,1-5.986-4.15A137.855,137.855,0,0,1,508.5,758l-108.344-1.556a194.681,194.681,0,0,1-4.19,41.5A142.751,142.751,0,0,1,379.8,842.029a7.767,7.767,0,0,1-7.183,4.15q-8.979,12.962-20.951,27.49l159.823,10.374q-21.549-33.191-24.542-87.14V768.375Q486.952,764.22,491.142,764.226Zm31.725,127.6c-.4.685-1.4,1.037-2.993,1.037l-.6-.519-177.182-11.93a5.262,5.262,0,0,1-3.591-2.593,3.309,3.309,0,0,1,1.2-3.631,259.505,259.505,0,0,0,22.746-28.009l-52.077-1.037L228.961,902.2,593.5,923.463l93.38-71.579L551,847.216a113.508,113.508,0,0,0,10.775,12.967q1.8,3.112-1.2,4.668ZM877.231,740.366l5.986-6.743-.6-52.388H29.033v34.233q0,7.781,4.789,12.449,5.387,4.668,20.352,5.706l799.713,17.635c8.368-.7,14.965-2.251,19.742-4.668A12.506,12.506,0,0,0,877.231,740.366ZM105.053,433.3a3.4,3.4,0,0,1,3.592,0,6.354,6.354,0,0,1,2.993,2.075l32.324,66.911,92.182-28.009c1.592-.342,2.6,0,2.993,1.037.8,0,1.592.685,2.394,2.075a81.357,81.357,0,0,1,1.8,18.154q0,33.72-26.936,57.056-25.733,24.9-64.647,27.491h-6.584q-33.527,0-58.662-19.71-26.936-22.3-26.936-54.981T86.5,447.307A72.1,72.1,0,0,1,105.053,433.3ZM93.081,451.975Q68.533,475.83,68.539,505.4q0,30.079,23.944,49.275,23.938,19.715,59.26,18.154,35.323-2.6,58.063-24.9,25.141-22.314,25.141-52.388,0-8.807-1.8-12.449l-89.788,28.009c-2.789.7-4.789-.176-5.986-2.593L105.652,442.12A88.454,88.454,0,0,0,93.081,451.975Zm25.739-32.159a181.8,181.8,0,0,1,32.922-5.706q42.506-2.07,73.028,21.266A121,121,0,0,1,243.925,458.2a4.718,4.718,0,0,1,1.2,2.593,5.187,5.187,0,0,1-2.993,2.593l-91.584,29.565-1.8,1.037a4.258,4.258,0,0,1-4.19-3.112L116.426,425a2.339,2.339,0,0,1,0-3.112A6.4,6.4,0,0,1,118.821,419.816ZM126,426.041l25.739,59.13,82.605-27.491a98.622,98.622,0,0,0-16.162-16.6q-26.936-21.271-65.845-19.191A115.525,115.525,0,0,0,126,426.041ZM457.023,316.6a5.211,5.211,0,0,1,1.8,4.15V562.456q0,3.112-4.19,4.668l-52.077,1.037a6.317,6.317,0,0,1-2.993-1.037,4.661,4.661,0,0,1-1.2-2.593V345.644a3.379,3.379,0,0,1,1.8-3.112L452.833,316.6A8.387,8.387,0,0,1,457.023,316.6ZM307.376,388.176l52.676-26.453q2.388-1.556,4.19,0a2.831,2.831,0,0,1,2.394,3.112v199.7q0,3.112-4.19,4.149l-53.274,1.037-2.394-1.556a3,3,0,0,1-1.8-2.594V391.289A2.831,2.831,0,0,1,307.376,388.176Zm99.365-40.458V560.381l43.1-1.556V326.971ZM313.96,393.363V561.418l44.3-.519V371.578Z" transform="translate(56 14.765)" fill="#fff" fill-rule="evenodd"/>
    <path id="Path_19605_-_Outline" data-name="Path 19605 - Outline" d="M890.722,3.981a9.448,9.448,0,0,1,4.984,1.592l.053.035a8.924,8.924,0,0,1,4.033,7.556v1.388L919.534,71.61v.17l-1.2,313.063,25.1,53.334.641,3.332v.1l-1.2,244.821a6.763,6.763,0,0,1-1.406,4.238l-.02.025-46.6,56.432a28.8,28.8,0,0,1-9.856,11.695l-.021.014a47.934,47.934,0,0,1-13,5.965,82.862,82.862,0,0,1-16.809,3.02l-.054,0h-.054l-327.629-7.757a140.755,140.755,0,0,0,.625,17.417,118.772,118.772,0,0,0,2.965,17.1,155.073,155.073,0,0,0,5.951,18.684,158.039,158.039,0,0,0,8.055,17.412L709.647,837.4c4.358.005,7.469,1.758,9.248,5.21l.033.063.023.067a7.874,7.874,0,0,1,.147,5.333,8.414,8.414,0,0,1-3.509,4.112L603.109,937.726a9.829,9.829,0,0,1-6.615,2.3l-.06,0-390.25-23.339a10.47,10.47,0,0,1-5.42-1.309,7.757,7.757,0,0,1-3.258-3.984c-1.771-4.246-.6-7.716,3.38-10.035l99.89-70.489c1.4-1.188,3.559-1.766,6.6-1.766h.009l58.049.513a120.638,120.638,0,0,0,7.137-16.691,112.321,112.321,0,0,0,4.451-17.738l.01-.062.018-.06a126.486,126.486,0,0,0,4.008-18.787,150.254,150.254,0,0,0,1.335-19.372L54.15,749.146a67.652,67.652,0,0,1-20.938-2.9,34.3,34.3,0,0,1-14.483-8.82,31.072,31.072,0,0,1-6.49-10.043,32.364,32.364,0,0,1-2.163-11.91V107.047a8.322,8.322,0,0,1,2.39-6.159,12.8,12.8,0,0,1,6.808-3.123l.038-.007.038,0L886.755,4.9h.393A7.511,7.511,0,0,1,890.722,3.981Zm3.9,3.273a7.48,7.48,0,0,0-3.9-1.273,5.6,5.6,0,0,0-2.816.788l-.232.134h-.812L19.6,99.739a10.859,10.859,0,0,0-5.727,2.57,6.315,6.315,0,0,0-1.8,4.738V715.469A30.375,30.375,0,0,0,14.1,726.646a29.092,29.092,0,0,0,6.081,9.4,32.334,32.334,0,0,0,13.656,8.3,65.734,65.734,0,0,0,20.337,2.8H54.2l330.2,7.8v.977a152.925,152.925,0,0,1-1.356,20.62,128.522,128.522,0,0,1-4.055,19.025,114.331,114.331,0,0,1-4.52,17.993,122.839,122.839,0,0,1-7.542,17.518l-.284.541-59.272-.524c-2.528,0-4.319.442-5.322,1.312l-.038.033-.041.029-100,70.568-.039.023c-3.151,1.82-3.968,4.224-2.571,7.566l.011.027c1.042,2.71,3.283,4.027,6.848,4.027l.06,0,390.249,23.339a7.873,7.873,0,0,0,5.3-1.83l.05-.04,112.564-85.606.031-.02a6.5,6.5,0,0,0,2.748-3.132,5.823,5.823,0,0,0-.132-3.933c-1.436-2.734-3.876-4.063-7.458-4.063h-.041l-165.777-6.766-.271-.5a160.11,160.11,0,0,1-8.43-18.138,157.028,157.028,0,0,1-6.027-18.923,120.767,120.767,0,0,1-3.015-17.392,143.447,143.447,0,0,1-.606-18.671l.031-.992.992.023,328.571,7.779A80.819,80.819,0,0,0,871.4,762.88a45.962,45.962,0,0,0,12.445-5.7,26.79,26.79,0,0,0,9.232-10.993l.056-.126L939.9,689.429a4.751,4.751,0,0,0,.979-3.007l1.2-244.728-.556-2.893-25.183-53.515v-.226l1.2-313.118L897.792,14.889V13.165A6.93,6.93,0,0,0,894.621,7.254ZM883.257,20.389l3.355,8.14v.2l-2.4,645.207H28.033V112.373l.893-.1Zm1.353,8.532-2.631-6.384L30.033,114.17V671.937H882.22ZM807.79,142.874h.005c2.323,0,4,.656,4.986,1.95l.038.049.031.054a3.968,3.968,0,0,1-.056,4.723L759.46,226.5l-.1.082a7.2,7.2,0,0,1-4.845,1.8h-.088l-.086-.015c-2.369-.418-3.688-1.038-4.264-2.007l-13.228-19.437L606.52,281.184l-.049.021a8.374,8.374,0,0,1-3.321.774,5.613,5.613,0,0,1-1.544-.211l-.04-.011-.039-.015-90-34.085L307.1,341.411l-2.712.588-2.76-.6-.136-.079a4.387,4.387,0,0,1-2.294-3.977V306.224a4.794,4.794,0,0,1,2.294-4.5l.035-.02.037-.017,203.55-97.009a6.639,6.639,0,0,1,2.643-.6,4.814,4.814,0,0,1,2.371.612l89.872,33.523,117.073-67.118L699.89,150.751a3.821,3.821,0,0,1-.018-5.433,5.2,5.2,0,0,1,4.363-1.925h0Zm3.363,3.116c-.6-.74-1.725-1.115-3.354-1.116l-103.56.519a3.262,3.262,0,0,0-2.8,1.162l-.04.049a1.863,1.863,0,0,0,0,2.839l.009.01,18.731,22.182L600.175,240.414l-.44-.164-90.466-33.745-.073-.042a2.8,2.8,0,0,0-1.445-.386,4.656,4.656,0,0,0-1.829.432L302.458,303.477a2.956,2.956,0,0,0-1.266,2.747v31.121a2.372,2.372,0,0,0,1.171,2.17l2.019.437,2.076-.45,205-94.011.391.148,90.345,34.218a3.638,3.638,0,0,0,.956.123,6.364,6.364,0,0,0,2.474-.587l131.845-75.121,14.31,21.026.02.035c.058.1.463.625,2.808,1.05a5.164,5.164,0,0,0,3.357-1.233l53.23-76.7C811.558,147.979,811.879,147.275,811.153,145.99Zm-100.582,4.146h91.356L754.5,218.273l-12.816-19.437a2.9,2.9,0,0,0-2.725-1.574h-.381l-.265-.236a.817.817,0,0,0-.25-.028,4.246,4.246,0,0,0-1.107.193L602.566,273.61l-.439-.165L512.261,239.7l-.072-.042a2,2,0,0,0-1.03-.281,4.024,4.024,0,0,0-2.112.773l-.062.04-.067.031L307.573,332.68V307.666l.571-.271,200.309-95.1.4.147,91.038,33.736a3.579,3.579,0,0,0,1.417.333,2.556,2.556,0,0,0,1.718-.691l.074-.064.085-.048L726.4,175.214c1.878-1.64,1.972-2.258,1.976-2.3v-.376a9.616,9.616,0,0,0-1.451-1.457l-.074-.064Zm87.527,2H714.667l13.646,17.5c1.565,1.365,2.178,2.211,2.184,3a1.365,1.365,0,0,1-.151.642c-.173.951-1.028,2.053-2.706,3.508l-.074.064-.085.048L604.254,247.4a4.51,4.51,0,0,1-2.95,1.113,5.538,5.538,0,0,1-2.191-.489l-90.563-33.558L309.573,308.931v20.63l198.446-91.127a5.889,5.889,0,0,1,3.14-1.056,4,4,0,0,1,1.957.508l89.277,33.523,133.777-76.073.111-.033a6.4,6.4,0,0,1,1.78-.305,2.517,2.517,0,0,1,1.212.273,4.878,4.878,0,0,1,4.127,2.54l11.144,16.9Zm-56.747,93.182a12.418,12.418,0,0,1,2.6.279l.251.054.194.168a5.66,5.66,0,0,1,2.141,4.386v308.62a4.066,4.066,0,0,1-1.394,3.221,6.788,6.788,0,0,1-3.674,1.4l-.051.006h-.051L689.077,564.5l-3.932-1.7-.116-.1a4.266,4.266,0,0,1-1.542-3.349V280.289a4.649,4.649,0,0,1,2.943-4.525l52.164-30.134.154-.033A12.418,12.418,0,0,1,741.351,245.318Zm1.928,2.183a10.271,10.271,0,0,0-3.961.021l-51.989,30.033-.054.023a2.684,2.684,0,0,0-1.789,2.712V559.344a2.263,2.263,0,0,0,.746,1.741l3.241,1.4,51.807-1.032a4.851,4.851,0,0,0,2.559-.923,2.1,2.1,0,0,0,.7-1.709V250.205A3.609,3.609,0,0,0,743.279,247.5Zm-5.118,8.264v299.9l-.988.012-44.709.531V281.258Zm-2,297.923V259.17l-41.7,23.263v271.75ZM517.811,285.337a7.839,7.839,0,0,1,1.681.2l.069.015.066.025L551.4,297.527a4.675,4.675,0,0,1,2.994,4.547V561.937A3.783,3.783,0,0,1,553,564.9a8.478,8.478,0,0,1-3.553,1.64l-.109.027-.113,0-52.295,1.042-3.936-1.705-.118-.1a4.3,4.3,0,0,1-1.537-3.344V300c0-2.709,1.31-3.7,2.443-4.05l21.366-9.771A4.163,4.163,0,0,1,517.811,285.337Zm1.181,2.138a5.754,5.754,0,0,0-1.181-.138,2.159,2.159,0,0,0-1.472.451l-.108.094-.131.06-21.618,9.886-.072.021c-.293.084-1.071.306-1.071,2.151V562.456a2.285,2.285,0,0,0,.749,1.743l3.237,1.4,51.745-1.031c3.325-.857,3.325-2.192,3.325-2.633V302.074a2.7,2.7,0,0,0-1.772-2.7Zm-.336,5.732,26.76,10.785V558.776l-45.1.543V301.427Zm24.76,12.135L518.7,295.38l-16.38,7.341V557.294l41.1-.495Zm103.505-1.159a9.707,9.707,0,0,1,3.175.577l.091.032.083.048a4.794,4.794,0,0,1,2.294,4.5V560.381c0,1.832-.986,4.122-5.682,4.625l-.048.005h-.048l-52.251.52-3.339-1.157-.145-.126c-1.461-1.266-2.141-2.33-2.141-3.349V319.191a4.666,4.666,0,0,1,3-4.548,6.633,6.633,0,0,1,2.641-.6,4.814,4.814,0,0,1,2.378.616l16.858,6.548,30.159-16.4.04-.017A7.305,7.305,0,0,1,646.921,304.184Zm2.423,2.433a7.642,7.642,0,0,0-2.423-.433,5.322,5.322,0,0,0-2.1.421l-30.9,16.8-17.864-6.939-.067-.039a2.8,2.8,0,0,0-1.445-.386,4.669,4.669,0,0,0-1.843.438,2.665,2.665,0,0,0-1.794,2.714V560.9c0,.057.038.578,1.309,1.713l2.643.916,51.855-.517c3.848-.425,3.848-2.027,3.848-2.631V309.336A2.82,2.82,0,0,0,649.344,306.617Zm-5.76,7.25V557.231h-45.1V323.312l13.274,6.327a9.877,9.877,0,0,0,1.55.133,4.88,4.88,0,0,0,2.44-.557l.014-.008Zm-2,241.365V317.253l-24.848,13.7a6.838,6.838,0,0,1-3.426.817,12.061,12.061,0,0,1-2.021-.184l-.136-.023-.125-.06-10.541-5.024V555.231Zm-186.805-239.9a11.448,11.448,0,0,1,2.46.288l.247.055.191.166a6.2,6.2,0,0,1,2.141,4.905V562.456a4.937,4.937,0,0,1-1.305,3.391,8.8,8.8,0,0,1-3.536,2.214l-.159.059-.17,0-52.1,1.038a7.187,7.187,0,0,1-3.5-1.173l-.169-.1-.12-.155a5.487,5.487,0,0,1-1.406-3.205V345.644a4.387,4.387,0,0,1,2.294-3.977l.06-.032,52.753-25.972.082-.024A7.891,7.891,0,0,1,454.779,315.333Zm1.771,2.187a9.168,9.168,0,0,0-1.771-.187,5.959,5.959,0,0,0-1.585.2l-52.563,25.879a2.388,2.388,0,0,0-1.27,2.231V564.531a3.425,3.425,0,0,0,.87,1.826,5.06,5.06,0,0,0,2.313.8l51.891-1.034c3.383-1.311,3.383-3.083,3.383-3.672V320.747A4.25,4.25,0,0,0,456.55,317.52Zm-5.711,7.86V559.79l-.964.035-44.134,1.594V347.09Zm-2,232.481v-229.3l-41.1,19.785v211ZM362.295,359.945a6.435,6.435,0,0,1,5.341,4.89v199.7c0,1.773-.859,4.1-4.948,5.12l-.11.027-.113,0-53.581,1.043-2.629-1.709a3.918,3.918,0,0,1-2.273-3.446V391.289a3.815,3.815,0,0,1,3.053-4.06l52.519-26.375A5.11,5.11,0,0,1,362.295,359.945Zm.016,207.737c2.977-.772,3.325-2.166,3.325-3.152v-199.7a1.858,1.858,0,0,0-1.6-2.134l-.251-.054-.194-.168a1.936,1.936,0,0,0-1.292-.534,3.22,3.22,0,0,0-1.7.616l-.047.031-.05.025-52.79,26.51-.125.027a1.858,1.858,0,0,0-1.6,2.135V565.568c0,.244,0,.986,1.292,1.725l.048.03,2.137,1.389Zm-3.055-197.71V561.888l-46.3.542V392.741l.559-.275Zm-2,189.939V373.185l-42.3,20.8V560.407ZM158.591,412.942a125.426,125.426,0,0,1,18.589,1.35,109.083,109.083,0,0,1,17.335,4.056,102.347,102.347,0,0,1,16.07,6.765,104.656,104.656,0,0,1,14.793,9.47l.043.033.039.037a122.6,122.6,0,0,1,19.289,22.978,5.519,5.519,0,0,1,1.374,3.162v.266l-.132.231a6.166,6.166,0,0,1-3.563,3.051l-91.474,29.53-1.936,1.118h-.268a5.234,5.234,0,0,1-5.116-3.735L115.553,425.5a3.319,3.319,0,0,1,.078-4.219l0-.006a7.3,7.3,0,0,1,2.793-2.383l.061-.026.064-.018a183.615,183.615,0,0,1,33.1-5.738l.038,0C154.009,413,156.329,412.942,158.591,412.942Zm65.529,23.2a102.643,102.643,0,0,0-14.466-9.255,100.333,100.333,0,0,0-15.755-6.632,107.059,107.059,0,0,0-17.016-3.981,123.428,123.428,0,0,0-18.291-1.328c-2.224,0-4.505.056-6.782.167a181.687,181.687,0,0,0-32.652,5.652,5.639,5.639,0,0,0-1.935,1.736h0a1.363,1.363,0,0,0,0,1.9l.075.1,28.2,66.02a3.294,3.294,0,0,0,3,2.465l1.643-.949.1-.033,91.609-29.573a4.08,4.08,0,0,0,2.248-1.866,4.813,4.813,0,0,0-.965-1.756l-.027-.035-.024-.038A120.478,120.478,0,0,0,224.12,436.139Zm-64.964-15.431a112.554,112.554,0,0,1,16.772,1.222,96.079,96.079,0,0,1,15.541,3.67,88.131,88.131,0,0,1,27.337,14.7l.009.008a100.1,100.1,0,0,1,16.325,16.766l.858,1.115-1.334.444-83.473,27.779-.365-.838-26.2-60.187,1.11-.307a117.1,117.1,0,0,1,26.562-4.185C154.607,420.769,156.914,420.707,159.156,420.707Zm58.41,21.16a87.492,87.492,0,0,0-12.747-8.383,86.6,86.6,0,0,0-13.974-5.985,94.075,94.075,0,0,0-15.216-3.593,110.553,110.553,0,0,0-16.473-1.2c-2.211,0-4.486.061-6.762.182h-.014a114.839,114.839,0,0,0-25,3.812l24.912,57.231,80.393-26.754a97.971,97.971,0,0,0-15.121-15.312ZM106.849,431.789a4.572,4.572,0,0,1,2.244.618c1.825.8,2.911,1.59,3.415,2.476l.031.059,31.951,66.14,91.4-27.772.041-.009a6.208,6.208,0,0,1,1.292-.151,2.885,2.885,0,0,1,2.566,1.254,4.79,4.79,0,0,1,2.605,2.487l.075.129.034.146a82.747,82.747,0,0,1,1.821,18.379,77.815,77.815,0,0,1-1.706,16.422,70.3,70.3,0,0,1-5.124,15.128,73.809,73.809,0,0,1-8.533,13.8,88.86,88.86,0,0,1-11.9,12.442,98.255,98.255,0,0,1-13.812,11.149,95.46,95.46,0,0,1-15.5,8.354,102.525,102.525,0,0,1-17.153,5.533,120.142,120.142,0,0,1-18.79,2.715l-.067,0h-6.584a106.242,106.242,0,0,1-16.393-1.243,94.082,94.082,0,0,1-15.353-3.735,90.416,90.416,0,0,1-14.3-6.228,94.906,94.906,0,0,1-13.233-8.717l-.021-.017a85.829,85.829,0,0,1-11.924-11.939A70.114,70.114,0,0,1,65.4,535.925a66.051,66.051,0,0,1-5.128-14.616A72.98,72.98,0,0,1,58.561,505.4a75.652,75.652,0,0,1,1.706-16.1,73.336,73.336,0,0,1,5.12-15.185,81.666,81.666,0,0,1,8.522-14.245A101.767,101.767,0,0,1,85.786,446.6a73.438,73.438,0,0,1,18.775-14.171A4.589,4.589,0,0,1,106.849,431.789Zm3.906,4.059a5.525,5.525,0,0,0-2.51-1.629l-.05-.022-.047-.027a2.4,2.4,0,0,0-2.6,0l-.016.009a71.436,71.436,0,0,0-18.3,13.806l-.049.049a99.8,99.8,0,0,0-11.668,13.029A79.669,79.669,0,0,0,67.2,474.957a71.335,71.335,0,0,0-4.981,14.77A73.65,73.65,0,0,0,60.561,505.4a70.972,70.972,0,0,0,1.659,15.472,64.047,64.047,0,0,0,4.973,14.173,68.117,68.117,0,0,0,8.3,12.907A83.817,83.817,0,0,0,87.125,559.6a92.87,92.87,0,0,0,12.943,8.525,88.411,88.411,0,0,0,13.982,6.09,92.1,92.1,0,0,0,15.025,3.655,104.24,104.24,0,0,0,16.084,1.219h6.551a118.094,118.094,0,0,0,18.443-2.667A100.5,100.5,0,0,0,186.971,571a93.45,93.45,0,0,0,15.175-8.178,96.251,96.251,0,0,0,13.549-10.94l.04-.037a86.892,86.892,0,0,0,11.651-12.177,71.811,71.811,0,0,0,8.3-13.427,68.294,68.294,0,0,0,4.977-14.7,75.814,75.814,0,0,0,1.661-16,81.094,81.094,0,0,0-1.736-17.781c-.8-1.341-1.313-1.448-1.454-1.448h-.689l-.245-.644c-.1-.252-.259-.521-.976-.521a4.157,4.157,0,0,0-.832.1l-92.96,28.245-.372-.771Zm-4.7,4.8,32.217,67.422a3.515,3.515,0,0,0,3.346,2.266,6.232,6.232,0,0,0,1.474-.2l90.575-28.255.378.767c1.278,2.591,1.9,6.808,1.9,12.891a67.869,67.869,0,0,1-1.6,14.771,64.381,64.381,0,0,1-4.788,13.8,70.926,70.926,0,0,1-7.969,12.792,88.479,88.479,0,0,1-11.1,11.758A86.513,86.513,0,0,1,198.2,558.681a85.353,85.353,0,0,1-13.892,7.544,93.155,93.155,0,0,1-15.467,5.048,110.714,110.714,0,0,1-17.028,2.554l-.029,0c-1.73.076-3.464.115-5.154.115a101.958,101.958,0,0,1-15.524-1.153,86.076,86.076,0,0,1-14.316-3.465,78.3,78.3,0,0,1-24.944-13.876,71.651,71.651,0,0,1-10.614-10.416A60.326,60.326,0,0,1,73.627,533.2a59.275,59.275,0,0,1-4.568-13.224,68.462,68.462,0,0,1,4.705-43.132,77.313,77.313,0,0,1,7.77-13.171,97.275,97.275,0,0,1,10.85-12.414,89.82,89.82,0,0,1,12.713-9.97Zm35.564,71.689a5.527,5.527,0,0,1-5.14-3.381l-.006-.013L105.249,443.6a85.217,85.217,0,0,0-11.47,9.1,95.26,95.26,0,0,0-10.628,12.157,75.3,75.3,0,0,0-7.569,12.829,67.264,67.264,0,0,0-4.569,41.869,57.276,57.276,0,0,0,4.413,12.777,58.324,58.324,0,0,0,7.357,11.442A69.653,69.653,0,0,0,93.108,553.9l.01.008a76.3,76.3,0,0,0,24.314,13.526,84.074,84.074,0,0,0,13.982,3.384,99.947,99.947,0,0,0,15.218,1.13c1.656,0,3.356-.038,5.053-.112a108.724,108.724,0,0,0,16.7-2.506,91.165,91.165,0,0,0,15.134-4.938,83.353,83.353,0,0,0,13.566-7.367,84.5,84.5,0,0,0,12.017-9.8l.036-.034a86.5,86.5,0,0,0,10.873-11.507,68.934,68.934,0,0,0,7.744-12.43A62.366,62.366,0,0,0,232.4,509.88a65.861,65.861,0,0,0,1.547-14.335c0-5.089-.456-8.858-1.356-11.226L143.6,512.076A8.256,8.256,0,0,1,141.621,512.337ZM28.033,680.235H883.607L884.221,734l-6.065,6.832a13.769,13.769,0,0,1-3.811,6.456l-.117.12-.15.076c-4.867,2.463-11.633,4.068-20.11,4.773l-.052,0h-.052L54.1,734.62a65.155,65.155,0,0,1-12.769-1.981,21.171,21.171,0,0,1-8.168-3.966l-.043-.039c-3.378-3.289-5.091-7.719-5.091-13.165Zm853.6,2H30.033v33.233a18.489,18.489,0,0,0,1.129,6.643,14.131,14.131,0,0,0,3.337,5.069c3.406,2.935,10.041,4.766,19.72,5.443l799.637,17.634c8.106-.677,14.554-2.186,19.17-4.484a11.474,11.474,0,0,0,3.223-5.595l.052-.271,5.912-6.66ZM762.9,698.908h50.281a6.775,6.775,0,0,1,4.2,1.112,4.164,4.164,0,0,1,1.591,3.518v27.49c0,1.729-.752,4.631-5.789,4.631H762.9c-4.516,0-5.19-2.9-5.19-4.631v-27.49a4.371,4.371,0,0,1,1.395-3.482A5.658,5.658,0,0,1,762.9,698.908Zm50.281,34.752c3.358,0,3.789-1.406,3.789-2.631v-27.49a2.16,2.16,0,0,0-.8-1.925,5.013,5.013,0,0,0-2.988-.705H762.9a3.793,3.793,0,0,0-2.487.662,2.454,2.454,0,0,0-.7,1.969v27.49c0,1.3.379,2.631,3.19,2.631Zm-47.091-26.972h43.3V728.4h-43.3Zm41.3,2h-39.3V726.4h39.3ZM676.7,714.469h34.119c4.516,0,5.19,2.9,5.19,4.631s-.674,4.631-5.19,4.631H676.7c-4.516,0-5.19-2.9-5.19-4.631S672.188,714.469,676.7,714.469Zm34.119,7.262c2.811,0,3.19-1.33,3.19-2.631s-.379-2.631-3.19-2.631H676.7c-2.811,0-3.19,1.33-3.19,2.631s.379,2.631,3.19,2.631Zm-311.667,33.7,110.371,1.585-.028,1.013a161.2,161.2,0,0,0,.743,20.877,132.849,132.849,0,0,0,3.415,19.3,140.041,140.041,0,0,0,7.875,22.144,151.064,151.064,0,0,0,11.743,21.123l.035.053.028.057a6.269,6.269,0,0,0,5.154,3.593h2.289l.293.475a127.831,127.831,0,0,0,11.285,15.439l.7.821-.87.633-30.745,22.379-.586-.821a118.182,118.182,0,0,1-10.453-17.82,141.272,141.272,0,0,1-7.8-20.473,178.835,178.835,0,0,1-5.155-23.114,233.669,233.669,0,0,1-2.516-25.751V768.375a2.937,2.937,0,0,0-.851-2.358,4.463,4.463,0,0,0-2.938-.792,3.384,3.384,0,0,0-2.438.747,3.287,3.287,0,0,0-.752,2.4v28.5c.5,8.9,1.386,17.5,2.646,25.546a198.3,198.3,0,0,0,4.95,22.966,154.691,154.691,0,0,0,7.247,20.358,125.826,125.826,0,0,0,9.538,17.753l1.085,1.672-1.989-.129-161.772-10.5,1.242-1.507c7.92-9.61,14.952-18.837,20.9-27.424l.3-.431h.524a6.777,6.777,0,0,0,6.316-3.648A133.752,133.752,0,0,0,388.59,820.8a153.059,153.059,0,0,0,6.4-23.056l0-.02a194.538,194.538,0,0,0,4.167-41.282Zm108.32,3.556L401.155,757.46a195.727,195.727,0,0,1-4.209,40.685,155.063,155.063,0,0,1-6.478,23.347,135.761,135.761,0,0,1-9.8,21.036,8.687,8.687,0,0,1-7.518,4.638c-5.6,8.062-12.148,16.675-19.473,25.631l155.91,10.12a128.975,128.975,0,0,1-8.626-16.365,156.707,156.707,0,0,1-7.342-20.622,200.28,200.28,0,0,1-5-23.2c-1.271-8.12-2.169-16.791-2.668-25.772l0-.056V768.375a5.165,5.165,0,0,1,1.346-3.825,5.26,5.26,0,0,1,3.844-1.325,6.328,6.328,0,0,1,4.248,1.28,4.862,4.862,0,0,1,1.541,3.869v28.5a231.582,231.582,0,0,0,2.493,25.508,176.819,176.819,0,0,0,5.1,22.855,139.254,139.254,0,0,0,7.689,20.182,116.64,116.64,0,0,0,9.692,16.694l28.243-20.557a129.464,129.464,0,0,1-10.474-14.383h-1.3l-.063-.008a8.252,8.252,0,0,1-6.727-4.64,153.038,153.038,0,0,1-11.864-21.353,142.049,142.049,0,0,1-7.989-22.465v-.005a134.827,134.827,0,0,1-3.468-19.6A162.5,162.5,0,0,1,507.477,758.987ZM310.062,844.135l.326.007,53.954,1.075-1.078,1.537a261.663,261.663,0,0,1-22.834,28.117l-.036.039-.04.035a2.339,2.339,0,0,0-.922,2.483,4.239,4.239,0,0,0,2.8,1.993l177.441,11.947.562.487c1.092-.045,1.627-.295,1.762-.53l.108-.188.176-.126L560.055,864l.063-.033A2.313,2.313,0,0,0,561.4,862.7a2.609,2.609,0,0,0-.428-1.915,115.086,115.086,0,0,1-10.781-12.99l-1.173-1.649,2.022.07L689.7,850.98l-95.889,73.5-.371-.022L226.033,903.028Zm50.479,3.006-49.865-.993-78.787,55.219,361.3,21.077,90.87-69.655-131.045-4.5a113.487,113.487,0,0,0,9.483,11.2l.085.088.061.106a4.561,4.561,0,0,1,.673,3.579,4.15,4.15,0,0,1-2.21,2.442l-37.5,26.824c-.639.884-1.891,1.332-3.726,1.332H519.5l-.627-.543L341.954,881.4l-.071-.015a6.241,6.241,0,0,1-4.246-3.068l-.063-.108-.034-.12A4.289,4.289,0,0,1,339,873.469,260.261,260.261,0,0,0,360.541,847.141Z" transform="translate(56 14.765)" fill="#fff"/>
    <path id="Path_19605_-_Outline-2" data-name="Path 19605 - Outline" d="M890.722,3.981a9.448,9.448,0,0,1,4.984,1.592l.053.035a8.924,8.924,0,0,1,4.033,7.556v1.388L919.534,71.61v.17l-1.2,313.063,25.1,53.334.641,3.332v.1l-1.2,244.821a6.763,6.763,0,0,1-1.406,4.238l-.02.025-46.6,56.432a28.8,28.8,0,0,1-9.856,11.695l-.021.014a47.934,47.934,0,0,1-13,5.965,82.862,82.862,0,0,1-16.809,3.02l-.054,0h-.054l-327.629-7.757a140.755,140.755,0,0,0,.625,17.417,118.772,118.772,0,0,0,2.965,17.1,155.073,155.073,0,0,0,5.951,18.684,158.039,158.039,0,0,0,8.055,17.412L709.647,837.4c4.358.005,7.469,1.758,9.248,5.21l.033.063.023.067a7.874,7.874,0,0,1,.147,5.333,8.414,8.414,0,0,1-3.509,4.112L603.109,937.726a9.829,9.829,0,0,1-6.615,2.3l-.06,0-390.25-23.339a10.47,10.47,0,0,1-5.42-1.309,7.757,7.757,0,0,1-3.258-3.984c-1.771-4.246-.6-7.716,3.38-10.035l99.89-70.489c1.4-1.188,3.559-1.766,6.6-1.766h.009l58.049.513a120.638,120.638,0,0,0,7.137-16.691,112.321,112.321,0,0,0,4.451-17.738l.01-.062.018-.06a126.486,126.486,0,0,0,4.008-18.787,150.254,150.254,0,0,0,1.335-19.372L54.15,749.146a67.652,67.652,0,0,1-20.938-2.9,34.3,34.3,0,0,1-14.483-8.82,31.072,31.072,0,0,1-6.49-10.043,32.364,32.364,0,0,1-2.163-11.91V107.047a8.322,8.322,0,0,1,2.39-6.159,12.8,12.8,0,0,1,6.808-3.123l.038-.007.038,0L886.755,4.9h.393A7.511,7.511,0,0,1,890.722,3.981Zm3.9,3.273a7.48,7.48,0,0,0-3.9-1.273,5.6,5.6,0,0,0-2.816.788l-.232.134h-.812L19.6,99.739a10.859,10.859,0,0,0-5.727,2.57,6.315,6.315,0,0,0-1.8,4.738V715.469A30.375,30.375,0,0,0,14.1,726.646a29.092,29.092,0,0,0,6.081,9.4,32.334,32.334,0,0,0,13.656,8.3,65.734,65.734,0,0,0,20.337,2.8H54.2l330.2,7.8v.977a152.925,152.925,0,0,1-1.356,20.62,128.522,128.522,0,0,1-4.055,19.025,114.331,114.331,0,0,1-4.52,17.993,122.839,122.839,0,0,1-7.542,17.518l-.284.541-59.272-.524c-2.528,0-4.319.442-5.322,1.312l-.038.033-.041.029-100,70.568-.039.023c-3.151,1.82-3.968,4.224-2.571,7.566l.011.027c1.042,2.71,3.283,4.027,6.848,4.027l.06,0,390.249,23.339a7.873,7.873,0,0,0,5.3-1.83l.05-.04,112.564-85.606.031-.02a6.5,6.5,0,0,0,2.748-3.132,5.823,5.823,0,0,0-.132-3.933c-1.436-2.734-3.876-4.063-7.458-4.063h-.041l-165.777-6.766-.271-.5a160.11,160.11,0,0,1-8.43-18.138,157.028,157.028,0,0,1-6.027-18.923,120.767,120.767,0,0,1-3.015-17.392,143.447,143.447,0,0,1-.606-18.671l.031-.992.992.023,328.571,7.779A80.819,80.819,0,0,0,871.4,762.88a45.962,45.962,0,0,0,12.445-5.7,26.79,26.79,0,0,0,9.232-10.993l.056-.126L939.9,689.429a4.751,4.751,0,0,0,.979-3.007l1.2-244.728-.556-2.893-25.183-53.515v-.226l1.2-313.118L897.792,14.889V13.165A6.93,6.93,0,0,0,894.621,7.254ZM883.257,20.389l3.355,8.14v.2l-2.4,645.207H28.033V112.373l.893-.1Zm1.353,8.532-2.631-6.384L30.033,114.17V671.937H882.22ZM807.79,142.874h.005c2.323,0,4,.656,4.986,1.95l.038.049.031.054a3.968,3.968,0,0,1-.056,4.723L759.46,226.5l-.1.082a7.2,7.2,0,0,1-4.845,1.8h-.088l-.086-.015c-2.369-.418-3.688-1.038-4.264-2.007l-13.228-19.437L606.52,281.184l-.049.021a8.374,8.374,0,0,1-3.321.774,5.613,5.613,0,0,1-1.544-.211l-.04-.011-.039-.015-90-34.085L307.1,341.411l-2.712.588-2.76-.6-.136-.079a4.387,4.387,0,0,1-2.294-3.977V306.224a4.794,4.794,0,0,1,2.294-4.5l.035-.02.037-.017,203.55-97.009a6.639,6.639,0,0,1,2.643-.6,4.814,4.814,0,0,1,2.371.612l89.872,33.523,117.073-67.118L699.89,150.751a3.821,3.821,0,0,1-.018-5.433,5.2,5.2,0,0,1,4.363-1.925h0Zm3.363,3.116c-.6-.74-1.725-1.115-3.354-1.116l-103.56.519a3.262,3.262,0,0,0-2.8,1.162l-.04.049a1.863,1.863,0,0,0,0,2.839l.009.01,18.731,22.182L600.175,240.414l-.44-.164-90.466-33.745-.073-.042a2.8,2.8,0,0,0-1.445-.386,4.656,4.656,0,0,0-1.829.432L302.458,303.477a2.956,2.956,0,0,0-1.266,2.747v31.121a2.372,2.372,0,0,0,1.171,2.17l2.019.437,2.076-.45,205-94.011.391.148,90.345,34.218a3.638,3.638,0,0,0,.956.123,6.364,6.364,0,0,0,2.474-.587l131.845-75.121,14.31,21.026.02.035c.058.1.463.625,2.808,1.05a5.164,5.164,0,0,0,3.357-1.233l53.23-76.7C811.558,147.979,811.879,147.275,811.153,145.99Zm-100.582,4.146h91.356L754.5,218.273l-12.816-19.437a2.9,2.9,0,0,0-2.725-1.574h-.381l-.265-.236a.817.817,0,0,0-.25-.028,4.246,4.246,0,0,0-1.107.193L602.566,273.61l-.439-.165L512.261,239.7l-.072-.042a2,2,0,0,0-1.03-.281,4.024,4.024,0,0,0-2.112.773l-.062.04-.067.031L307.573,332.68V307.666l.571-.271,200.309-95.1.4.147,91.038,33.736a3.579,3.579,0,0,0,1.417.333,2.556,2.556,0,0,0,1.718-.691l.074-.064.085-.048L726.4,175.214c1.878-1.64,1.972-2.258,1.976-2.3v-.376a9.616,9.616,0,0,0-1.451-1.457l-.074-.064Zm87.527,2H714.667l13.646,17.5c1.565,1.365,2.178,2.211,2.184,3a1.365,1.365,0,0,1-.151.642c-.173.951-1.028,2.053-2.706,3.508l-.074.064-.085.048L604.254,247.4a4.51,4.51,0,0,1-2.95,1.113,5.538,5.538,0,0,1-2.191-.489l-90.563-33.558L309.573,308.931v20.63l198.446-91.127a5.889,5.889,0,0,1,3.14-1.056,4,4,0,0,1,1.957.508l89.277,33.523,133.777-76.073.111-.033a6.4,6.4,0,0,1,1.78-.305,2.517,2.517,0,0,1,1.212.273,4.878,4.878,0,0,1,4.127,2.54l11.144,16.9Zm-56.747,93.182a12.418,12.418,0,0,1,2.6.279l.251.054.194.168a5.66,5.66,0,0,1,2.141,4.386v308.62a4.066,4.066,0,0,1-1.394,3.221,6.788,6.788,0,0,1-3.674,1.4l-.051.006h-.051L689.077,564.5l-3.932-1.7-.116-.1a4.266,4.266,0,0,1-1.542-3.349V280.289a4.649,4.649,0,0,1,2.943-4.525l52.164-30.134.154-.033A12.418,12.418,0,0,1,741.351,245.318Zm1.928,2.183a10.271,10.271,0,0,0-3.961.021l-51.989,30.033-.054.023a2.684,2.684,0,0,0-1.789,2.712V559.344a2.263,2.263,0,0,0,.746,1.741l3.241,1.4,51.807-1.032a4.851,4.851,0,0,0,2.559-.923,2.1,2.1,0,0,0,.7-1.709V250.205A3.609,3.609,0,0,0,743.279,247.5Zm-5.118,8.264v299.9l-.988.012-44.709.531V281.258Zm-2,297.923V259.17l-41.7,23.263v271.75ZM517.811,285.337a7.839,7.839,0,0,1,1.681.2l.069.015.066.025L551.4,297.527a4.675,4.675,0,0,1,2.994,4.547V561.937A3.783,3.783,0,0,1,553,564.9a8.478,8.478,0,0,1-3.553,1.64l-.109.027-.113,0-52.295,1.042-3.936-1.705-.118-.1a4.3,4.3,0,0,1-1.537-3.344V300c0-2.709,1.31-3.7,2.443-4.05l21.366-9.771A4.163,4.163,0,0,1,517.811,285.337Zm1.181,2.138a5.754,5.754,0,0,0-1.181-.138,2.159,2.159,0,0,0-1.472.451l-.108.094-.131.06-21.618,9.886-.072.021c-.293.084-1.071.306-1.071,2.151V562.456a2.285,2.285,0,0,0,.749,1.743l3.237,1.4,51.745-1.031c3.325-.857,3.325-2.192,3.325-2.633V302.074a2.7,2.7,0,0,0-1.772-2.7Zm-.336,5.732,26.76,10.785V558.776l-45.1.543V301.427Zm24.76,12.135L518.7,295.38l-16.38,7.341V557.294l41.1-.495Zm103.505-1.159a9.707,9.707,0,0,1,3.175.577l.091.032.083.048a4.794,4.794,0,0,1,2.294,4.5V560.381c0,1.832-.986,4.122-5.682,4.625l-.048.005h-.048l-52.251.52-3.339-1.157-.145-.126c-1.461-1.266-2.141-2.33-2.141-3.349V319.191a4.666,4.666,0,0,1,3-4.548,6.633,6.633,0,0,1,2.641-.6,4.814,4.814,0,0,1,2.378.616l16.858,6.548,30.159-16.4.04-.017A7.305,7.305,0,0,1,646.921,304.184Zm2.423,2.433a7.642,7.642,0,0,0-2.423-.433,5.322,5.322,0,0,0-2.1.421l-30.9,16.8-17.864-6.939-.067-.039a2.8,2.8,0,0,0-1.445-.386,4.669,4.669,0,0,0-1.843.438,2.665,2.665,0,0,0-1.794,2.714V560.9c0,.057.038.578,1.309,1.713l2.643.916,51.855-.517c3.848-.425,3.848-2.027,3.848-2.631V309.336A2.82,2.82,0,0,0,649.344,306.617Zm-5.76,7.25V557.231h-45.1V323.312l13.274,6.327a9.877,9.877,0,0,0,1.55.133,4.88,4.88,0,0,0,2.44-.557l.014-.008Zm-2,241.365V317.253l-24.848,13.7a6.838,6.838,0,0,1-3.426.817,12.061,12.061,0,0,1-2.021-.184l-.136-.023-.125-.06-10.541-5.024V555.231Zm-186.805-239.9a11.448,11.448,0,0,1,2.46.288l.247.055.191.166a6.2,6.2,0,0,1,2.141,4.905V562.456a4.937,4.937,0,0,1-1.305,3.391,8.8,8.8,0,0,1-3.536,2.214l-.159.059-.17,0-52.1,1.038a7.187,7.187,0,0,1-3.5-1.173l-.169-.1-.12-.155a5.487,5.487,0,0,1-1.406-3.205V345.644a4.387,4.387,0,0,1,2.294-3.977l.06-.032,52.753-25.972.082-.024A7.891,7.891,0,0,1,454.779,315.333Zm1.771,2.187a9.168,9.168,0,0,0-1.771-.187,5.959,5.959,0,0,0-1.585.2l-52.563,25.879a2.388,2.388,0,0,0-1.27,2.231V564.531a3.425,3.425,0,0,0,.87,1.826,5.06,5.06,0,0,0,2.313.8l51.891-1.034c3.383-1.311,3.383-3.083,3.383-3.672V320.747A4.25,4.25,0,0,0,456.55,317.52Zm-5.711,7.86V559.79l-.964.035-44.134,1.594V347.09Zm-2,232.481v-229.3l-41.1,19.785v211ZM362.295,359.945a6.435,6.435,0,0,1,5.341,4.89v199.7c0,1.773-.859,4.1-4.948,5.12l-.11.027-.113,0-53.581,1.043-2.629-1.709a3.918,3.918,0,0,1-2.273-3.446V391.289a3.815,3.815,0,0,1,3.053-4.06l52.519-26.375A5.11,5.11,0,0,1,362.295,359.945Zm.016,207.737c2.977-.772,3.325-2.166,3.325-3.152v-199.7a1.858,1.858,0,0,0-1.6-2.134l-.251-.054-.194-.168a1.936,1.936,0,0,0-1.292-.534,3.22,3.22,0,0,0-1.7.616l-.047.031-.05.025-52.79,26.51-.125.027a1.858,1.858,0,0,0-1.6,2.135V565.568c0,.244,0,.986,1.292,1.725l.048.03,2.137,1.389Zm-3.055-197.71V561.888l-46.3.542V392.741l.559-.275Zm-2,189.939V373.185l-42.3,20.8V560.407ZM158.591,412.942a125.426,125.426,0,0,1,18.589,1.35,109.083,109.083,0,0,1,17.335,4.056,102.347,102.347,0,0,1,16.07,6.765,104.656,104.656,0,0,1,14.793,9.47l.043.033.039.037a122.6,122.6,0,0,1,19.289,22.978,5.519,5.519,0,0,1,1.374,3.162v.266l-.132.231a6.166,6.166,0,0,1-3.563,3.051l-91.474,29.53-1.936,1.118h-.268a5.234,5.234,0,0,1-5.116-3.735L115.553,425.5a3.319,3.319,0,0,1,.078-4.219l0-.006a7.3,7.3,0,0,1,2.793-2.383l.061-.026.064-.018a183.615,183.615,0,0,1,33.1-5.738l.038,0C154.009,413,156.329,412.942,158.591,412.942Zm65.529,23.2a102.643,102.643,0,0,0-14.466-9.255,100.333,100.333,0,0,0-15.755-6.632,107.059,107.059,0,0,0-17.016-3.981,123.428,123.428,0,0,0-18.291-1.328c-2.224,0-4.505.056-6.782.167a181.687,181.687,0,0,0-32.652,5.652,5.639,5.639,0,0,0-1.935,1.736h0a1.363,1.363,0,0,0,0,1.9l.075.1,28.2,66.02a3.294,3.294,0,0,0,3,2.465l1.643-.949.1-.033,91.609-29.573a4.08,4.08,0,0,0,2.248-1.866,4.813,4.813,0,0,0-.965-1.756l-.027-.035-.024-.038A120.478,120.478,0,0,0,224.12,436.139Zm-64.964-15.431a112.554,112.554,0,0,1,16.772,1.222,96.079,96.079,0,0,1,15.541,3.67,88.131,88.131,0,0,1,27.337,14.7l.009.008a100.1,100.1,0,0,1,16.325,16.766l.858,1.115-1.334.444-83.473,27.779-.365-.838-26.2-60.187,1.11-.307a117.1,117.1,0,0,1,26.562-4.185C154.607,420.769,156.914,420.707,159.156,420.707Zm58.41,21.16a87.492,87.492,0,0,0-12.747-8.383,86.6,86.6,0,0,0-13.974-5.985,94.075,94.075,0,0,0-15.216-3.593,110.553,110.553,0,0,0-16.473-1.2c-2.211,0-4.486.061-6.762.182h-.014a114.839,114.839,0,0,0-25,3.812l24.912,57.231,80.393-26.754a97.971,97.971,0,0,0-15.121-15.312ZM106.849,431.789a4.572,4.572,0,0,1,2.244.618c1.825.8,2.911,1.59,3.415,2.476l.031.059,31.951,66.14,91.4-27.772.041-.009a6.208,6.208,0,0,1,1.292-.151,2.885,2.885,0,0,1,2.566,1.254,4.79,4.79,0,0,1,2.605,2.487l.075.129.034.146a82.747,82.747,0,0,1,1.821,18.379,77.815,77.815,0,0,1-1.706,16.422,70.3,70.3,0,0,1-5.124,15.128,73.809,73.809,0,0,1-8.533,13.8,88.86,88.86,0,0,1-11.9,12.442,98.255,98.255,0,0,1-13.812,11.149,95.46,95.46,0,0,1-15.5,8.354,102.525,102.525,0,0,1-17.153,5.533,120.142,120.142,0,0,1-18.79,2.715l-.067,0h-6.584a106.242,106.242,0,0,1-16.393-1.243,94.082,94.082,0,0,1-15.353-3.735,90.416,90.416,0,0,1-14.3-6.228,94.906,94.906,0,0,1-13.233-8.717l-.021-.017a85.829,85.829,0,0,1-11.924-11.939A70.114,70.114,0,0,1,65.4,535.925a66.051,66.051,0,0,1-5.128-14.616A72.98,72.98,0,0,1,58.561,505.4a75.652,75.652,0,0,1,1.706-16.1,73.336,73.336,0,0,1,5.12-15.185,81.666,81.666,0,0,1,8.522-14.245A101.767,101.767,0,0,1,85.786,446.6a73.438,73.438,0,0,1,18.775-14.171A4.589,4.589,0,0,1,106.849,431.789Zm3.906,4.059a5.525,5.525,0,0,0-2.51-1.629l-.05-.022-.047-.027a2.4,2.4,0,0,0-2.6,0l-.016.009a71.436,71.436,0,0,0-18.3,13.806l-.049.049a99.8,99.8,0,0,0-11.668,13.029A79.669,79.669,0,0,0,67.2,474.957a71.335,71.335,0,0,0-4.981,14.77A73.65,73.65,0,0,0,60.561,505.4a70.972,70.972,0,0,0,1.659,15.472,64.047,64.047,0,0,0,4.973,14.173,68.117,68.117,0,0,0,8.3,12.907A83.817,83.817,0,0,0,87.125,559.6a92.87,92.87,0,0,0,12.943,8.525,88.411,88.411,0,0,0,13.982,6.09,92.1,92.1,0,0,0,15.025,3.655,104.24,104.24,0,0,0,16.084,1.219h6.551a118.094,118.094,0,0,0,18.443-2.667A100.5,100.5,0,0,0,186.971,571a93.45,93.45,0,0,0,15.175-8.178,96.251,96.251,0,0,0,13.549-10.94l.04-.037a86.892,86.892,0,0,0,11.651-12.177,71.811,71.811,0,0,0,8.3-13.427,68.294,68.294,0,0,0,4.977-14.7,75.814,75.814,0,0,0,1.661-16,81.094,81.094,0,0,0-1.736-17.781c-.8-1.341-1.313-1.448-1.454-1.448h-.689l-.245-.644c-.1-.252-.259-.521-.976-.521a4.157,4.157,0,0,0-.832.1l-92.96,28.245-.372-.771Zm-4.7,4.8,32.217,67.422a3.515,3.515,0,0,0,3.346,2.266,6.232,6.232,0,0,0,1.474-.2l90.575-28.255.378.767c1.278,2.591,1.9,6.808,1.9,12.891a67.869,67.869,0,0,1-1.6,14.771,64.381,64.381,0,0,1-4.788,13.8,70.926,70.926,0,0,1-7.969,12.792,88.479,88.479,0,0,1-11.1,11.758A86.513,86.513,0,0,1,198.2,558.681a85.353,85.353,0,0,1-13.892,7.544,93.155,93.155,0,0,1-15.467,5.048,110.714,110.714,0,0,1-17.028,2.554l-.029,0c-1.73.076-3.464.115-5.154.115a101.958,101.958,0,0,1-15.524-1.153,86.076,86.076,0,0,1-14.316-3.465,78.3,78.3,0,0,1-24.944-13.876,71.651,71.651,0,0,1-10.614-10.416A60.326,60.326,0,0,1,73.627,533.2a59.275,59.275,0,0,1-4.568-13.224,68.462,68.462,0,0,1,4.705-43.132,77.313,77.313,0,0,1,7.77-13.171,97.275,97.275,0,0,1,10.85-12.414,89.82,89.82,0,0,1,12.713-9.97Zm35.564,71.689a5.527,5.527,0,0,1-5.14-3.381l-.006-.013L105.249,443.6a85.217,85.217,0,0,0-11.47,9.1,95.26,95.26,0,0,0-10.628,12.157,75.3,75.3,0,0,0-7.569,12.829,67.264,67.264,0,0,0-4.569,41.869,57.276,57.276,0,0,0,4.413,12.777,58.324,58.324,0,0,0,7.357,11.442A69.653,69.653,0,0,0,93.108,553.9l.01.008a76.3,76.3,0,0,0,24.314,13.526,84.074,84.074,0,0,0,13.982,3.384,99.947,99.947,0,0,0,15.218,1.13c1.656,0,3.356-.038,5.053-.112a108.724,108.724,0,0,0,16.7-2.506,91.165,91.165,0,0,0,15.134-4.938,83.353,83.353,0,0,0,13.566-7.367,84.5,84.5,0,0,0,12.017-9.8l.036-.034a86.5,86.5,0,0,0,10.873-11.507,68.934,68.934,0,0,0,7.744-12.43A62.366,62.366,0,0,0,232.4,509.88a65.861,65.861,0,0,0,1.547-14.335c0-5.089-.456-8.858-1.356-11.226L143.6,512.076A8.256,8.256,0,0,1,141.621,512.337ZM28.033,680.235H883.607L884.221,734l-6.065,6.832a13.769,13.769,0,0,1-3.811,6.456l-.117.12-.15.076c-4.867,2.463-11.633,4.068-20.11,4.773l-.052,0h-.052L54.1,734.62a65.155,65.155,0,0,1-12.769-1.981,21.171,21.171,0,0,1-8.168-3.966l-.043-.039c-3.378-3.289-5.091-7.719-5.091-13.165Zm853.6,2H30.033v33.233a18.489,18.489,0,0,0,1.129,6.643,14.131,14.131,0,0,0,3.337,5.069c3.406,2.935,10.041,4.766,19.72,5.443l799.637,17.634c8.106-.677,14.554-2.186,19.17-4.484a11.474,11.474,0,0,0,3.223-5.595l.052-.271,5.912-6.66ZM762.9,698.908h50.281a6.775,6.775,0,0,1,4.2,1.112,4.164,4.164,0,0,1,1.591,3.518v27.49c0,1.729-.752,4.631-5.789,4.631H762.9c-4.516,0-5.19-2.9-5.19-4.631v-27.49a4.371,4.371,0,0,1,1.395-3.482A5.658,5.658,0,0,1,762.9,698.908Zm50.281,34.752c3.358,0,3.789-1.406,3.789-2.631v-27.49a2.16,2.16,0,0,0-.8-1.925,5.013,5.013,0,0,0-2.988-.705H762.9a3.793,3.793,0,0,0-2.487.662,2.454,2.454,0,0,0-.7,1.969v27.49c0,1.3.379,2.631,3.19,2.631Zm-47.091-26.972h43.3V728.4h-43.3Zm41.3,2h-39.3V726.4h39.3ZM676.7,714.469h34.119c4.516,0,5.19,2.9,5.19,4.631s-.674,4.631-5.19,4.631H676.7c-4.516,0-5.19-2.9-5.19-4.631S672.188,714.469,676.7,714.469Zm34.119,7.262c2.811,0,3.19-1.33,3.19-2.631s-.379-2.631-3.19-2.631H676.7c-2.811,0-3.19,1.33-3.19,2.631s.379,2.631,3.19,2.631Zm-311.667,33.7,110.371,1.585-.028,1.013a161.2,161.2,0,0,0,.743,20.877,132.849,132.849,0,0,0,3.415,19.3,140.041,140.041,0,0,0,7.875,22.144,151.064,151.064,0,0,0,11.743,21.123l.035.053.028.057a6.269,6.269,0,0,0,5.154,3.593h2.289l.293.475a127.831,127.831,0,0,0,11.285,15.439l.7.821-.87.633-30.745,22.379-.586-.821a118.182,118.182,0,0,1-10.453-17.82,141.272,141.272,0,0,1-7.8-20.473,178.835,178.835,0,0,1-5.155-23.114,233.669,233.669,0,0,1-2.516-25.751V768.375a2.937,2.937,0,0,0-.851-2.358,4.463,4.463,0,0,0-2.938-.792,3.384,3.384,0,0,0-2.438.747,3.287,3.287,0,0,0-.752,2.4v28.5c.5,8.9,1.386,17.5,2.646,25.546a198.3,198.3,0,0,0,4.95,22.966,154.691,154.691,0,0,0,7.247,20.358,125.826,125.826,0,0,0,9.538,17.753l1.085,1.672-1.989-.129-161.772-10.5,1.242-1.507c7.92-9.61,14.952-18.837,20.9-27.424l.3-.431h.524a6.777,6.777,0,0,0,6.316-3.648A133.752,133.752,0,0,0,388.59,820.8a153.059,153.059,0,0,0,6.4-23.056l0-.02a194.538,194.538,0,0,0,4.167-41.282Zm108.32,3.556L401.155,757.46a195.727,195.727,0,0,1-4.209,40.685,155.063,155.063,0,0,1-6.478,23.347,135.761,135.761,0,0,1-9.8,21.036,8.687,8.687,0,0,1-7.518,4.638c-5.6,8.062-12.148,16.675-19.473,25.631l155.91,10.12a128.975,128.975,0,0,1-8.626-16.365,156.707,156.707,0,0,1-7.342-20.622,200.28,200.28,0,0,1-5-23.2c-1.271-8.12-2.169-16.791-2.668-25.772l0-.056V768.375a5.165,5.165,0,0,1,1.346-3.825,5.26,5.26,0,0,1,3.844-1.325,6.328,6.328,0,0,1,4.248,1.28,4.862,4.862,0,0,1,1.541,3.869v28.5a231.582,231.582,0,0,0,2.493,25.508,176.819,176.819,0,0,0,5.1,22.855,139.254,139.254,0,0,0,7.689,20.182,116.64,116.64,0,0,0,9.692,16.694l28.243-20.557a129.464,129.464,0,0,1-10.474-14.383h-1.3l-.063-.008a8.252,8.252,0,0,1-6.727-4.64,153.038,153.038,0,0,1-11.864-21.353,142.049,142.049,0,0,1-7.989-22.465v-.005a134.827,134.827,0,0,1-3.468-19.6A162.5,162.5,0,0,1,507.477,758.987ZM310.062,844.135l.326.007,53.954,1.075-1.078,1.537a261.663,261.663,0,0,1-22.834,28.117l-.036.039-.04.035a2.339,2.339,0,0,0-.922,2.483,4.239,4.239,0,0,0,2.8,1.993l177.441,11.947.562.487c1.092-.045,1.627-.295,1.762-.53l.108-.188.176-.126L560.055,864l.063-.033A2.313,2.313,0,0,0,561.4,862.7a2.609,2.609,0,0,0-.428-1.915,115.086,115.086,0,0,1-10.781-12.99l-1.173-1.649,2.022.07L689.7,850.98l-95.889,73.5-.371-.022L226.033,903.028Zm50.479,3.006-49.865-.993-78.787,55.219,361.3,21.077,90.87-69.655-131.045-4.5a113.487,113.487,0,0,0,9.483,11.2l.085.088.061.106a4.561,4.561,0,0,1,.673,3.579,4.15,4.15,0,0,1-2.21,2.442l-37.5,26.824c-.639.884-1.891,1.332-3.726,1.332H519.5l-.627-.543L341.954,881.4l-.071-.015a6.241,6.241,0,0,1-4.246-3.068l-.063-.108-.034-.12A4.289,4.289,0,0,1,339,873.469,260.261,260.261,0,0,0,360.541,847.141Z" transform="translate(56 14.765)" fill="#fff"/>
  </g>
</svg>
