<svg xmlns="http://www.w3.org/2000/svg" width="1000" height="883" viewBox="0 0 1000 883">
  <g id="Group_540" data-name="Group 540" transform="translate(40 -74.5)">
    <g id="Group_539" data-name="Group 539" transform="translate(-14.813)">
      <g id="noun-stock-up-5633392" transform="translate(119.175 75.578)">
        <path id="Path_19570" data-name="Path 19570" d="M287,440.67V700.9A13.184,13.184,0,0,1,273.489,714.4H228.138v39.517a13.509,13.509,0,0,1-27.018,0V714.4H154.8A13.184,13.184,0,0,1,141.3,700.9V484.042a13.509,13.509,0,0,1,27.018,0V687.411H259.98V440.67a13.509,13.509,0,0,1,27.018,0Zm182.37,2.891a13.184,13.184,0,0,0-13.509,13.494v87.709H364.191V411.755a13.509,13.509,0,0,0-27.018,0V557.294a13.184,13.184,0,0,0,13.509,13.494H397V610.3a13.509,13.509,0,0,0,27.018,0V570.787h45.351a13.184,13.184,0,0,0,13.509-13.494V457.055A13.184,13.184,0,0,0,469.367,443.561Zm194.913-63.613a13.184,13.184,0,0,0-13.509,13.494v82.89h-90.7V434.887a13.509,13.509,0,0,0-27.018,0v54.939a13.184,13.184,0,0,0,13.509,13.494h46.316v39.517a13.509,13.509,0,0,0,27.018,0V503.319h45.351a13.184,13.184,0,0,0,13.509-13.494V393.442C677.79,385.731,672,379.948,664.281,379.948Zm185.264-89.637h0l-31.842,69.4c-1.93,4.819-6.754,7.711-12.544,7.711a12.251,12.251,0,0,1-5.789-.964c-6.754-2.892-9.649-11.566-6.754-18.313l19.3-41.445L476.122,424.285c-5.789,1.928-11.579,0-15.439-4.819l-48.246-64.577L24.54,497.536a8.707,8.707,0,0,1-4.825.964,13.739,13.739,0,0,1-12.544-8.674c-2.895-6.747.965-14.458,7.719-17.349l126.4-46.264v-160A13.184,13.184,0,0,1,154.8,252.722H201.12V213.205a13.509,13.509,0,0,1,27.018,0v39.517h45.351A13.184,13.184,0,0,1,287,266.216V372.238l49.211-18.313V285.493A13.184,13.184,0,0,1,349.718,272h46.316V226.7a13.509,13.509,0,0,1,27.018,0V272H468.4a13.184,13.184,0,0,1,13.509,13.494V393.442l50.176-17.349V77.3A13.184,13.184,0,0,1,545.6,63.811h46.316V24.294a13.509,13.509,0,0,1,27.018,0V63.811h45.351A13.184,13.184,0,0,1,677.79,77.3V325.974L800.334,282.6l-38.6-17.349c-6.754-2.891-9.649-11.566-6.754-18.313s11.579-9.638,18.334-6.747L839.9,270.071a13.9,13.9,0,0,1,10.614,8.674,8.681,8.681,0,0,1,.965,4.819A13.918,13.918,0,0,1,849.545,290.312ZM559.1,366.455l91.667-31.806V90.8h-90.7V366.455ZM168.313,415.61l91.667-33.734V279.71H168.313Zm260.528-84.817,27.018,36.626V298.986H364.191v45.3L413.4,325.974C419.192,324.046,424.981,325.974,428.841,330.793Z" transform="translate(-6.199 -10.8)" fill="#fff"/>
      </g>
      <g id="Group_538" data-name="Group 538" transform="translate(14.813 34.5)">
        <path id="Line_57" data-name="Line 57" d="M0,869a14,14,0,0,1-14-14V0A14,14,0,0,1,0-14,14,14,0,0,1,14,0V855A14,14,0,0,1,0,869Z" transform="translate(14 54)" fill="#fff"/>
        <path id="Line_58" data-name="Line 58" d="M971.989,14H.011A14.006,14.006,0,0,1-14,0,14.006,14.006,0,0,1,.011-14H971.989A14.006,14.006,0,0,1,986,0,14.006,14.006,0,0,1,971.989,14Z" transform="translate(-26 869)" fill="#fff"/>
      </g>
    </g>
  </g>
</svg>
