<svg xmlns="http://www.w3.org/2000/svg" width="943.363" height="800.09" viewBox="0 0 943.363 800.09">
  <g id="Group_557" data-name="Group 557" transform="translate(-33.857 -55)">
    <g id="noun-favourite-list-4247768" transform="translate(33.857 55)">
      <path id="Path_19617" data-name="Path 19617" d="M199.3,236.69a18.63,18.63,0,0,1-7.034-2.01l-56.274-29.142L79.72,234.68a13.637,13.637,0,0,1-15.073-1,13.511,13.511,0,0,1-6.029-14.068l11.054-62.3-46.225-45.22c-4.02-4.02-5.024-10.049-4.02-15.073s6.029-9.044,12.059-10.049l63.308-9.044L122.93,20.639c2.01-5.024,8.039-8.039,13.064-8.039,6.029,0,11.054,3.015,13.064,8.039l28.137,57.279L240.5,86.962A15.562,15.562,0,0,1,252.56,97.011c2.01,5.024,0,11.054-4.02,15.073L202.316,157.3l11.054,62.3a13.51,13.51,0,0,1-6.029,14.068A11.41,11.41,0,0,1,199.3,236.69Zm-63.308-62.3a18.63,18.63,0,0,1,7.034,2.01l37.181,19.093-7.034-41.2a14.858,14.858,0,0,1,4.02-13.064l30.147-29.142-41.2-6.029a15.559,15.559,0,0,1-11.054-8.039L137,60.835,118.91,98.016a15.559,15.559,0,0,1-11.054,8.039l-41.2,6.029L96.8,141.226a14.858,14.858,0,0,1,4.02,13.064l-7.034,41.2L130.969,176.4C130.969,174.387,133.984,174.387,135.993,174.387Z" transform="translate(-19.064 -12.6)" fill="#fff"/>
      <g id="Group_556" data-name="Group 556" transform="translate(343.363 52.819)">
        <path id="Path_19618" data-name="Path 19618" d="M255.773,49.411H65.421C55.6,49.411,47,42.478,47,34.555S55.6,19.7,65.421,19.7H255.773c9.825,0,18.421,6.933,18.421,14.855S265.6,49.411,255.773,49.411Z" transform="translate(-47 -19.7)" fill="#fff"/>
        <path id="Path_19619" data-name="Path 19619" d="M622.069,56.711H71.931C58.634,56.711,47,49.778,47,41.855S58.634,27,71.931,27H622.069C635.366,27,647,33.933,647,41.855S635.366,56.711,622.069,56.711Z" transform="translate(-47 62.649)" fill="#fff"/>
      </g>
    </g>
    <g id="noun-favourite-list-4247768-2" data-name="noun-favourite-list-4247768" transform="translate(33.857 343)">
      <path id="Path_19617-2" data-name="Path 19617" d="M199.3,236.69a18.63,18.63,0,0,1-7.034-2.01l-56.274-29.142L79.72,234.68a13.637,13.637,0,0,1-15.073-1,13.511,13.511,0,0,1-6.029-14.068l11.054-62.3-46.225-45.22c-4.02-4.02-5.024-10.049-4.02-15.073s6.029-9.044,12.059-10.049l63.308-9.044L122.93,20.639c2.01-5.024,8.039-8.039,13.064-8.039,6.029,0,11.054,3.015,13.064,8.039l28.137,57.279L240.5,86.962A15.562,15.562,0,0,1,252.56,97.011c2.01,5.024,0,11.054-4.02,15.073L202.316,157.3l11.054,62.3a13.51,13.51,0,0,1-6.029,14.068A11.41,11.41,0,0,1,199.3,236.69Zm-63.308-62.3a18.63,18.63,0,0,1,7.034,2.01l37.181,19.093-7.034-41.2a14.858,14.858,0,0,1,4.02-13.064l30.147-29.142-41.2-6.029a15.559,15.559,0,0,1-11.054-8.039L137,60.835,118.91,98.016a15.559,15.559,0,0,1-11.054,8.039l-41.2,6.029L96.8,141.226a14.858,14.858,0,0,1,4.02,13.064l-7.034,41.2L130.969,176.4C130.969,174.387,133.984,174.387,135.993,174.387Z" transform="translate(-19.064 -12.6)" fill="#fff"/>
      <g id="Group_556-2" data-name="Group 556" transform="translate(343.363 52.819)">
        <path id="Path_19618-2" data-name="Path 19618" d="M255.773,49.411H65.421C55.6,49.411,47,42.478,47,34.555S55.6,19.7,65.421,19.7H255.773c9.825,0,18.421,6.933,18.421,14.855S265.6,49.411,255.773,49.411Z" transform="translate(-47 -19.7)" fill="#fff"/>
        <path id="Path_19619-2" data-name="Path 19619" d="M622.069,56.711H71.931C58.634,56.711,47,49.778,47,41.855S58.634,27,71.931,27H622.069C635.366,27,647,33.933,647,41.855S635.366,56.711,622.069,56.711Z" transform="translate(-47 62.649)" fill="#fff"/>
      </g>
    </g>
    <g id="noun-favourite-list-4247768-3" data-name="noun-favourite-list-4247768" transform="translate(33.857 631)">
      <path id="Path_19617-3" data-name="Path 19617" d="M199.3,236.69a18.63,18.63,0,0,1-7.034-2.01l-56.274-29.142L79.72,234.68a13.637,13.637,0,0,1-15.073-1,13.511,13.511,0,0,1-6.029-14.068l11.054-62.3-46.225-45.22c-4.02-4.02-5.024-10.049-4.02-15.073s6.029-9.044,12.059-10.049l63.308-9.044L122.93,20.639c2.01-5.024,8.039-8.039,13.064-8.039,6.029,0,11.054,3.015,13.064,8.039l28.137,57.279L240.5,86.962A15.562,15.562,0,0,1,252.56,97.011c2.01,5.024,0,11.054-4.02,15.073L202.316,157.3l11.054,62.3a13.51,13.51,0,0,1-6.029,14.068A11.41,11.41,0,0,1,199.3,236.69Zm-63.308-62.3a18.63,18.63,0,0,1,7.034,2.01l37.181,19.093-7.034-41.2a14.858,14.858,0,0,1,4.02-13.064l30.147-29.142-41.2-6.029a15.559,15.559,0,0,1-11.054-8.039L137,60.835,118.91,98.016a15.559,15.559,0,0,1-11.054,8.039l-41.2,6.029L96.8,141.226a14.858,14.858,0,0,1,4.02,13.064l-7.034,41.2L130.969,176.4C130.969,174.387,133.984,174.387,135.993,174.387Z" transform="translate(-19.064 -12.6)" fill="#fff"/>
      <g id="Group_556-3" data-name="Group 556" transform="translate(343.363 52.819)">
        <path id="Path_19618-3" data-name="Path 19618" d="M255.773,49.411H65.421C55.6,49.411,47,42.478,47,34.555S55.6,19.7,65.421,19.7H255.773c9.825,0,18.421,6.933,18.421,14.855S265.6,49.411,255.773,49.411Z" transform="translate(-47 -19.7)" fill="#fff"/>
        <path id="Path_19619-3" data-name="Path 19619" d="M622.069,56.711H71.931C58.634,56.711,47,49.778,47,41.855S58.634,27,71.931,27H622.069C635.366,27,647,33.933,647,41.855S635.366,56.711,622.069,56.711Z" transform="translate(-47 62.649)" fill="#fff"/>
      </g>
    </g>
  </g>
</svg>
