<svg xmlns="http://www.w3.org/2000/svg" width="995.429" height="916.886" viewBox="0 0 995.429 916.886">
  <g id="noun-balance-6710059" transform="translate(-3.07 -7.887)">
    <path id="Path_19654" data-name="Path 19654" d="M648.2,520.841,791.172,168.095h33.072l142.85,352.746H943.135L807.665,186.676,672.276,520.841ZM188.662,186.676,324.092,520.841h24.037L205.158,168.095H172.087L29.116,520.841H53.153ZM335.444,861.187H671.73V855.06c0-25.373-9.457-35.251-34.987-35.251H369.823c-28-.157-37.05,14-34.379,41.378Zm418.284,24.768H252.415c-31.186,0-35.543,9.125-40.766,38.818H795.7c-5.381-29.693-10.781-38.818-41.967-38.818ZM520.191,199.283c-9.513,4.617-12.534,7.019-15.53,7.26-2.681.233-5.262-2.2-15.861-7.26L477.706,792.6H530.73ZM530.73,65.663l-1.218-32.835a25.921,25.921,0,0,0-51.806,0l-1.218,32.835a75.117,75.117,0,0,1,54.241,0ZM85.569,145.828h346.07a72.26,72.26,0,0,1-.9-17.478H85.571a8.886,8.886,0,0,0-8.8,8.8,8.784,8.784,0,0,0,8.8,8.68Zm844.692-8.68a8.784,8.784,0,0,0-8.68-8.8H576.537a83.637,83.637,0,0,1-.9,17.478H921.583a8.683,8.683,0,0,0,8.68-8.68ZM455.479,120.455c14.139-50.746,85.741-49.411,97.878,3.221C563.216,207.021,437.495,201.287,455.479,120.455Zm73.487,23.487c13.629-35.821-40.77-54.124-51.767-17.6C468.4,159.142,516.045,175.246,528.966,143.942Zm-20.149-10.369c-.236-6.834-10.251-6.873-10.369,0C498.566,140.329,508.739,140.29,508.817,133.573ZM995.857,550.027a6.948,6.948,0,0,0-6.913-6.913H626.495a6.873,6.873,0,0,0-6.913,6.913v8.013a6.9,6.9,0,0,0,6.913,6.913H988.944c8.327-.275,6.873-9.191,6.913-14.926ZM718.6,631.762H896.876a51.661,51.661,0,0,0,51.218-44.54H667.381a51.661,51.661,0,0,0,51.218,44.54ZM376.736,550.027a6.9,6.9,0,0,0-6.913-6.913H7.414A6.948,6.948,0,0,0,.5,550.027v8.013a6.948,6.948,0,0,0,6.913,6.913H369.864c8.287-.157,6.834-9.269,6.873-14.926Zm-47.761,37.2H48.262a51.661,51.661,0,0,0,51.218,44.54H277.754a51.661,51.661,0,0,0,51.218-44.54Z" transform="translate(2.568 0)" fill="#fff"/>
  </g>
</svg>
