<svg id="Group_555" data-name="Group 555" xmlns="http://www.w3.org/2000/svg" xmlns:xlink="http://www.w3.org/1999/xlink" width="998.945" height="917.845" viewBox="0 0 998.945 917.845">
  <defs>
    <clipPath id="clip-path">
      <rect id="Rectangle_691" data-name="Rectangle 691" width="998.945" height="917.845" fill="#fff"/>
    </clipPath>
  </defs>
  <g id="Group_554" data-name="Group 554" clip-path="url(#clip-path)">
    <path id="Path_19606" data-name="Path 19606" d="M840.084,355.282a63.021,63.021,0,0,0-13.736-19.8,55.823,55.823,0,0,0-8.875-6.931c-.6-.361-1.239-.8-1.882-1.223-.768-.5-1.835-1.207-2.305-1.443l-.956-.549-2.509-1.646c-3.826-1.85-6.664-3.152-9.424-4.312l-11.149-4.72L804.489,294.6l19-25.779,4.673-7.072a89.286,89.286,0,0,0-11.949-107.711A104.2,104.2,0,0,0,803.564,142.9l-23.49-17.515-3.763-2.54a53.335,53.335,0,0,0-6.868-4.014l-.2-.11a89.844,89.844,0,0,0-95.95,8.671,98.9,98.9,0,0,0-12.325,11.447l-5.488,6.868-4.03,5.6L634.7,172.915,511.794,344.9C432.81,455.763,356.7,564.086,291.684,658.122l-.533.753a12.506,12.506,0,0,0-2.1,5.9l-.031.219q-1.011,8.632-1.96,16.982h47.136l-.533,3.528q3.481,1.411,7.292,3.12a207.844,207.844,0,0,1,36.52,20.322l.2.157a208.019,208.019,0,0,1,31.063,28.225c3.7,4.014,7.072,8,10.334,11.855.125.125.235.267.361.408l-35-55.635,63.209,65.514a25.836,25.836,0,0,1,2.619,3.152c.016,0,.031-.016.047-.016,40.8-50.978,96.044-122.78,179.011-232.686L743.758,376.764l38.057-51.872,7.746,8.7c2.148,2.415,4.61,5,7.731,8.123l3.387,3.418c.643.721,1.1,1.286,1.521,1.835.157.188.3.376.47.58l.282.345a40.4,40.4,0,0,1,3.873,6.006,44.439,44.439,0,0,1,4.72,13.125,40.609,40.609,0,0,1-4.626,27.959l-.11.188a34.524,34.524,0,0,1-2.1,3.089l-2.038,2.744-7.041,9.267-13.658,18.5c-36.332,50.272-64.871,97.957-75.832,126.48a73.691,73.691,0,0,0,6.006,4.673c2.07,1.443,3.685,2.478,4.892,3.215,23.584-19.366,59.837-61.547,96.138-112.038l13.266-18.848,8.2-12.168,2.148-3.418a66.6,66.6,0,0,0,3.293-6.508,68.345,68.345,0,0,0,0-54.882m-64.667-82.323-57.3,81.947L610.41,509.031C545.852,602.488,494.294,678.915,457.194,736.15L445.81,753.712l-5.582-20.181a84.232,84.232,0,0,0-4.218-11.823,110.093,110.093,0,0,0-87.953-63.9H327.4l11.227-15.038c61.155-81.853,131.451-177.207,203.284-275.792l124.348-171.8L686.1,167.568l2.932-3.638a61.528,61.528,0,0,1,6.868-6.382l.2-.157a51.994,51.994,0,0,1,35.956-10.287,50.9,50.9,0,0,1,18.394,5.237,27.8,27.8,0,0,1,4.641,2.666l1.85,1.176,2.666,1.882,20.808,15.4a66.355,66.355,0,0,1,7.009,6.037,51.789,51.789,0,0,1,12,15.947l.2.47a52.523,52.523,0,0,1,1.019,38.026,53.065,53.065,0,0,1-4.046,8.718l-.141.235-2.556,4.093-3.748,5.206ZM434.723,773.564a29.071,29.071,0,0,1-1.819-2.556l-2.211-3.512-8.844,3.732c-26.751,11.29-61.155,26.014-113.528,49.755l-16.088,7.291,2.932-17.437c5.52-32.726,11.1-69.183,17.672-113.277l-26.406-10.208c-6.758,58.85-12.027,107.836-16.81,156.321l-.047,1.49a9.978,9.978,0,0,0,8.938,10.867,10.023,10.023,0,0,0,5.441-1.019c74.075-38.277,116.68-61.327,151.538-80.458-.267-.314-.517-.643-.768-.988" transform="translate(153.11 61.774)" fill="#fff"/>
    <path id="Path_19607" data-name="Path 19607" d="M303.608,480.308c.094.031.2.078.3.11,0-.031.016-.078.016-.11Zm0,0c.094.031.2.078.3.11,0-.031.016-.078.016-.11Zm0,0c.094.031.2.078.3.11,0-.031.016-.078.016-.11Z" transform="translate(172.47 272.847)" fill="#fff"/>
    <path id="Path_19608" data-name="Path 19608" d="M127.167,266.38a21.53,21.53,0,1,1-.847-16.433,21.424,21.424,0,0,1,.847,16.433" transform="translate(48.516 135.009)" fill="#fff"/>
    <path id="Path_19609" data-name="Path 19609" d="M127.176,347.318a21.523,21.523,0,1,1-13.046-27.457,21.525,21.525,0,0,1,13.046,27.457" transform="translate(48.523 180.99)" fill="#fff"/>
    <path id="Path_19610" data-name="Path 19610" d="M127.2,428.329a21.5,21.5,0,1,1-40.5-14.426,21.531,21.531,0,0,1,20.275-14.285A21.487,21.487,0,0,1,127.2,428.329" transform="translate(48.535 227.01)" fill="#fff"/>
    <path id="Path_19611" data-name="Path 19611" d="M421.322,257.779a27.767,27.767,0,0,1-.425,7.025c-54.475,16.716-200.805,16.731-255.687.047a21.564,21.564,0,0,1-.078-4.72l.078-.815-.063-.815a27.186,27.186,0,0,1,.345-6.962c54.914-16.4,201.2-16.418,255.72-.047a22.089,22.089,0,0,1,.124,4.877l-.063.706Z" transform="translate(93.753 135.896)" fill="#fff"/>
    <path id="Path_19612" data-name="Path 19612" d="M127.2,180.159a21.493,21.493,0,1,1-20.259-28.711A21.5,21.5,0,0,1,127.2,180.159" transform="translate(48.535 86.033)" fill="#fff"/>
    <path id="Path_19613" data-name="Path 19613" d="M420.928,171.581a28.184,28.184,0,0,1-.19,7.088c-54.6,16.669-200.68,16.669-255.515-.016a21.458,21.458,0,0,1-.094-4.7l.078-.847-.063-.847a27.817,27.817,0,0,1,.329-7.229c54.835-16.371,200.821-16.418,255.515-.11a21.035,21.035,0,0,1-.047,4.657l-.11,1Z" transform="translate(93.755 86.753)" fill="#fff"/>
    <path id="Path_19614" data-name="Path 19614" d="M337.867,346.874c-17.484,7.26-49.708,11.682-86.118,11.682h-.157c-36.473-.016-68.791-4.453-86.322-11.713a32.755,32.755,0,0,1-.125-5.818l.031-.486-.031-.5a43.391,43.391,0,0,1,.439-8.076c36.8-15.336,135.073-15.728,172.331-.721a33.531,33.531,0,0,1,.141,6.147l-.047.659.047.643a44.609,44.609,0,0,1-.188,8.185" transform="translate(93.772 181.906)" fill="#fff"/>
    <path id="Path_19615" data-name="Path 19615" d="M250.6,419.474a84.872,84.872,0,0,1-.2,10.177c-18.582,13.5-66.3,13.47-85.1-.063a67.5,67.5,0,0,1-.157-7.762v-.439a85.569,85.569,0,0,1,.486-10.02c18.143-13.156,66.329-13.344,85.083-.423a71.2,71.2,0,0,1-.094,7.542l-.031.486Z" transform="translate(93.787 228.008)" fill="#fff"/>
    <path id="Path_19616" data-name="Path 19616" d="M678.844,130.427v25.011l-.721,22.486L676.571,220.7c-1.035,27.081-2.18,51.825-3.4,73.527a3.485,3.485,0,0,1-3.418,2.117h-.031l-.643-.016-.643.094a4.043,4.043,0,0,1-4.438-2.305c-1.207-21.624-2.352-46.321-3.387-73.4l-1.552-42.746-.721-22.549V133.563l-.157-.862a45.043,45.043,0,0,0-23.505-31.863,48.719,48.719,0,0,0-20.385-5.77l-.267-.016H586.956L466.92,96.98,202.277,99.6H76.863a25.157,25.157,0,0,0-3.262.031l-.408.031a39.169,39.169,0,0,0-5.833,1.145c-15.979,4.3-27.473,17.186-29.276,32.835l-.063.533v65.059c0,183.762-1.223,360.2-3.544,510.218l-.831,56.184v.3c.251,14.567,8.217,27.833,21.216,35.454a46.466,46.466,0,0,0,20.526,6.46l26.986.016,52.718,1.176c72.272,1.835,129.381,3.763,174.6,5.88,1.882.188,3.356,1.458,3.34,2.9v.706l.11.69a2.651,2.651,0,0,1-.549,1.976,4.4,4.4,0,0,1-2.6,1.568c-45.505,2.227-102.552,4.14-174.353,5.88l-53.6,2.525H73.555a75.734,75.734,0,0,1-33.071-8.609C19.033,811.188,5.359,790.85,3.87,768.082L3.854,709.75C1.549,559.529.326,383.106.326,199.532V149.558c0-2.117-.078-3.967-.157-5.77a92.425,92.425,0,0,1,.11-12.748C3.7,101.277,26.042,76.862,57.262,68.849A77.463,77.463,0,0,1,68.443,66.8c1.756-.078,3.528-.078,5.284,0l41.726.016L113.87,56.022c-3.089-20.871.612-43.827,8.483-54.537a73.233,73.233,0,0,1,8.3-.157l.345.016.345-.016a94.054,94.054,0,0,1,10.3.188C149.528,12.195,153.165,35.2,150,56.195L148.351,67H255.874l-.941-10.255c-2.023-22.282,1.85-44.925,9.33-56.011a68.625,68.625,0,0,1,8.029-.188l.345.016L273,.544a85.046,85.046,0,0,1,9.989.22c7.5,11.149,11.337,33.964,9.2,56.435l-.972,10.287h106.19l-.941-10.255c-2.086-22.8,1.725-45.835,9.142-56.984a68.091,68.091,0,0,1,8-.188l.361.016.345-.016a84.439,84.439,0,0,1,9.957.22c7.762,11.619,11.572,35.093,9.142,57.971l-1.1,10.412h34.764l72.46,1.129-1.254-10.663c-2.791-23.913,1.662-47.277,7.934-56.827a66.4,66.4,0,0,1,8.091-.2l.345.016.361-.016a84.971,84.971,0,0,1,9.989.22c8,11.808,11.808,36.442,8.922,59.649l-1.317,10.569h43.671c32.694,3.481,58.881,27.708,62.566,57.893" transform="translate(0 0)" fill="#fff"/>
  </g>
</svg>
