<svg xmlns="http://www.w3.org/2000/svg" width="37.387" height="37.387" viewBox="0 0 37.387 37.387">
  <g id="noun-profile-6885862" transform="translate(-9.5 -9.5)">
    <g id="Group_631" data-name="Group 631" transform="translate(10 10)">
      <path id="Path_19965" data-name="Path 19965" d="M28.193,10A18.193,18.193,0,1,0,46.387,28.193,18.212,18.212,0,0,0,28.193,10Zm0,35.022A16.829,16.829,0,1,1,45.022,28.193,16.85,16.85,0,0,1,28.193,45.022Z" transform="translate(-10 -10)" fill="#2a353d"/>
      <path id="Path_19965_-_Outline" data-name="Path 19965 - Outline" d="M28.193,9.5A18.693,18.693,0,1,1,9.5,28.193,18.715,18.715,0,0,1,28.193,9.5Zm0,36.387A17.693,17.693,0,1,0,10.5,28.193,17.713,17.713,0,0,0,28.193,45.887Zm0-35.022A17.329,17.329,0,1,1,10.864,28.193,17.348,17.348,0,0,1,28.193,10.864Zm0,33.658A16.329,16.329,0,1,0,11.864,28.193,16.347,16.347,0,0,0,28.193,44.522Z" transform="translate(-10 -10)" fill="#2a353d"/>
    </g>
    <path id="Path_19966" data-name="Path 19966" d="M154.129,28.516a5.859,5.859,0,0,0,1.472-3.891,6.169,6.169,0,0,0-12.334,0,5.86,5.86,0,0,0,1.471,3.891,7.458,7.458,0,0,0-4.209,6.493c0,5.277,6.24,5.277,8.9,5.277s8.905,0,8.905-5.277a7.459,7.459,0,0,0-4.209-6.493Zm-4.7-8.218a4.387,4.387,0,0,1,4.436,4.326,4.258,4.258,0,0,1-1.785,3.462,4.5,4.5,0,0,1-5.3,0A4.258,4.258,0,0,1,145,24.625a4.387,4.387,0,0,1,4.436-4.326Zm0,18.3c-5.163,0-7.174-1.006-7.174-3.588a5.936,5.936,0,0,1,3.9-5.294h0l0,0c.131.08.265.155.4.225.044.023.09.043.134.065.094.046.188.091.285.132.054.023.109.044.164.065.089.035.179.069.27.1.058.02.117.038.176.056q.135.042.272.077c.059.015.119.031.179.044.094.021.188.04.283.056.058.01.115.021.174.03.1.016.209.027.315.037.05,0,.1.012.15.016.155.012.312.018.469.018s.314-.006.47-.018l.15-.016c.105-.01.21-.021.314-.037.059-.009.116-.02.175-.03.094-.017.189-.035.283-.056.06-.013.12-.029.179-.044.091-.023.182-.049.272-.077l.176-.056c.091-.031.181-.065.27-.1.055-.022.11-.042.164-.065.1-.041.19-.086.284-.132.045-.022.091-.042.135-.065.136-.071.27-.145.4-.225l0,0h0a5.936,5.936,0,0,1,3.9,5.294c0,2.582-2.011,3.588-7.174,3.588Z" transform="translate(-121.239 -1.255)" fill="#2a353d"/>
    <path id="Path_19966_-_Outline" data-name="Path 19966 - Outline" d="M149.433,18.26a6.45,6.45,0,0,1,6.517,6.365,6.239,6.239,0,0,1-1.286,3.79,8.577,8.577,0,0,1,2.835,2.669,7.18,7.18,0,0,1,1.189,3.925A4.913,4.913,0,0,1,155,39.957a23.156,23.156,0,0,1-11.134,0,4.913,4.913,0,0,1-3.688-4.948,7.18,7.18,0,0,1,1.189-3.925,8.575,8.575,0,0,1,2.835-2.669,6.24,6.24,0,0,1-1.286-3.79A6.45,6.45,0,0,1,149.433,18.26Zm4.607,10.606h-.685l.51-.581a5.545,5.545,0,0,0,1.385-3.66,5.819,5.819,0,0,0-11.634,0A5.546,5.546,0,0,0,145,28.285l.292.332-.391.208a7.961,7.961,0,0,0-2.948,2.641,6.482,6.482,0,0,0-1.075,3.543A4.222,4.222,0,0,0,144.1,39.3a22.564,22.564,0,0,0,10.673,0,4.222,4.222,0,0,0,3.218-4.287,6.482,6.482,0,0,0-1.075-3.543A7.944,7.944,0,0,0,154.041,28.866Zm-4.608-8.918a4.738,4.738,0,0,1,4.786,4.676,4.6,4.6,0,0,1-1.928,3.745,4.847,4.847,0,0,1-5.716,0,4.6,4.6,0,0,1-1.928-3.745A4.737,4.737,0,0,1,149.433,19.948Zm0,8.653a4.122,4.122,0,0,0,2.445-.8,3.911,3.911,0,0,0,1.641-3.179,4.088,4.088,0,0,0-8.172,0,3.912,3.912,0,0,0,1.641,3.179A4.122,4.122,0,0,0,149.433,28.6Zm-3.349.764h.319l.041.115c.087.051.179.1.28.153.029.015.058.028.086.042l.037.017c.089.044.18.087.273.127l.107.043.048.019c.073.028.163.063.255.094.053.018.108.035.164.052.083.026.169.05.257.072l.023.006c.048.012.1.024.143.035.08.018.165.035.27.054l.051.009.113.019c.1.015.2.025.3.035l.065.007.079.008c.151.011.3.017.442.017s.291-.006.443-.017l.077-.008.065-.007c.1-.009.2-.02.3-.035l.113-.019.053-.01c.079-.014.174-.032.265-.053.058-.013.113-.027.168-.041q.134-.034.259-.073l.167-.053c.078-.027.162-.058.253-.094l.053-.021.1-.041c.088-.038.177-.08.268-.125l.057-.027.069-.033c.129-.067.244-.132.351-.2l.074-.072h.215l.066.028a7.2,7.2,0,0,1,2.986,2.3,5.561,5.561,0,0,1,1.124,3.313,3.155,3.155,0,0,1-1.844,3.075,13.271,13.271,0,0,1-5.68.863,13.272,13.272,0,0,1-5.68-.863,3.156,3.156,0,0,1-1.844-3.076,5.561,5.561,0,0,1,1.124-3.313,7.2,7.2,0,0,1,2.986-2.3Zm3.349,1.625c-.16,0-.326-.006-.5-.019l-.1-.01-.054-.006c-.1-.01-.217-.022-.332-.039l-.134-.023-.048-.009c-.117-.021-.213-.04-.3-.06-.053-.011-.108-.026-.164-.04l-.024-.006c-.1-.026-.2-.053-.289-.081-.062-.019-.123-.038-.185-.059-.106-.036-.207-.075-.284-.1l-.047-.018c-.043-.017-.086-.033-.128-.051-.107-.046-.208-.094-.3-.14l-.029-.014c-.038-.018-.077-.036-.114-.056-.094-.049-.183-.1-.268-.146a5.528,5.528,0,0,0-3.523,4.9,2.453,2.453,0,0,0,1.458,2.449,12.693,12.693,0,0,0,5.366.789,12.693,12.693,0,0,0,5.366-.789,2.453,2.453,0,0,0,1.457-2.449,5.528,5.528,0,0,0-3.523-4.9c-.084.048-.173.1-.268.146-.032.016-.064.032-.1.047l-.047.022c-.1.047-.2.1-.3.139l-.121.049-.051.02c-.1.04-.195.074-.284.105-.065.022-.125.041-.187.06-.094.029-.191.056-.288.081-.066.017-.128.033-.191.047-.1.024-.207.043-.3.059l-.051.009-.133.023c-.116.017-.233.03-.332.039l-.056.006-.1.01C149.759,30.983,149.592,30.99,149.433,30.99Z" transform="translate(-121.239 -1.255)" fill="#2a353d"/>
  </g>
</svg>
