<svg xmlns="http://www.w3.org/2000/svg" xmlns:xlink="http://www.w3.org/1999/xlink" width="491" height="234" viewBox="0 0 491 234">
  <defs>
    <clipPath id="clip-path">
      <rect id="Rectangle_16" data-name="Rectangle 16" width="491" height="234" rx="8" fill="#fff"/>
    </clipPath>
  </defs>
  <g id="blue-card" clip-path="url(#clip-path)">
    <path id="Path_65" data-name="Path 65" d="M8,0H483a8,8,0,0,1,8,8V226a8,8,0,0,1-8,8H8a8,8,0,0,1-8-8V8A8,8,0,0,1,8,0Z" fill="none"/>
    <path id="Path_64" data-name="Path 64" d="M651,237a20,20,0,0,1-20,20H20A20,20,0,0,1,0,237V7.633a20,20,0,0,1,20-20H631a20,20,0,0,1,20,20Z" fill="none"/>
    <circle id="Ellipse_1" data-name="Ellipse 1" cx="106.5" cy="106.5" r="106.5" transform="translate(305.5 177.5)" fill="none" stroke="#f5f9ff" stroke-width="1" opacity="0.2"/>
    <circle id="Ellipse_2" data-name="Ellipse 2" cx="106.5" cy="106.5" r="106.5" transform="translate(395.5 154.5)" fill="none" stroke="#f5f9ff" stroke-width="1" opacity="0.2"/>
  </g>
</svg>
