<svg width="519" height="234" viewBox="0 0 519 234" fill="none" xmlns="http://www.w3.org/2000/svg">
<g clip-path="url(#clip0_605_61748)">
<rect width="519" height="234" rx="8" fill="url(#paint0_linear_605_61748)"/>
<rect width="519" height="234" rx="8" fill="#BF78E8"/>
<circle opacity="0.2" cx="522" cy="254" r="83.5" fill="#D9D9D9" stroke="#F5F9FF"/>
<circle opacity="0.2" cx="493" cy="270" r="83.5" stroke="#F5F9FF"/>
<g opacity="0.2" filter="url(#filter0_d_605_61748)">
<circle cx="-16" cy="-6" r="54" fill="#D9D9D9"/>
<circle cx="-16" cy="-6" r="53.5" stroke="#F5F9FF"/>
</g>
<path d="M494.58 10.8752C494.58 11.3112 494.226 11.6654 493.79 11.6654C493.354 11.6654 493 11.3112 493 10.8752C493 10.4392 493.354 10.085 493.79 10.085C494.226 10.085 494.58 10.4392 494.58 10.8752Z" fill="white" fill-opacity="0.65"/>
<path d="M501.375 10.8752C501.375 11.3112 501.021 11.6654 500.585 11.6654C500.149 11.6654 499.795 11.3112 499.795 10.8752C499.795 10.4392 500.149 10.085 500.585 10.085C501.021 10.085 501.375 10.4392 501.375 10.8752Z" fill="white" fill-opacity="0.65"/>
<path d="M508.17 10.8752C508.17 11.3112 507.816 11.6654 507.38 11.6654C506.944 11.6654 506.59 11.3112 506.59 10.8752C506.59 10.4392 506.944 10.085 507.38 10.085C507.816 10.085 508.17 10.4392 508.17 10.8752Z" fill="white" fill-opacity="0.65"/>
<path d="M514.968 10.8752C514.968 11.3112 514.614 11.6654 514.178 11.6654C513.742 11.6654 513.388 11.3112 513.388 10.8752C513.388 10.4392 513.742 10.085 514.178 10.085C514.614 10.085 514.968 10.4392 514.968 10.8752Z" fill="white" fill-opacity="0.65"/>
<path d="M494.58 17.3206C494.58 17.7567 494.226 18.1109 493.79 18.1109C493.354 18.1109 493 17.7567 493 17.3206C493 16.8846 493.354 16.5304 493.79 16.5304C494.226 16.5304 494.58 16.8846 494.58 17.3206Z" fill="white" fill-opacity="0.65"/>
<path d="M501.375 17.3207C501.375 17.7568 501.021 18.111 500.585 18.111C500.149 18.111 499.795 17.7568 499.795 17.3207C499.795 16.8847 500.149 16.5305 500.585 16.5305C501.021 16.5305 501.375 16.8847 501.375 17.3207Z" fill="white" fill-opacity="0.65"/>
<path d="M508.17 17.3207C508.17 17.7568 507.816 18.111 507.38 18.111C506.944 18.111 506.59 17.7568 506.59 17.3207C506.59 16.8847 506.944 16.5305 507.38 16.5305C507.816 16.5305 508.17 16.8847 508.17 17.3207Z" fill="white" fill-opacity="0.65"/>
<path d="M514.968 17.3207C514.968 17.7568 514.614 18.111 514.178 18.111C513.742 18.111 513.388 17.7568 513.388 17.3207C513.388 16.8847 513.742 16.5305 514.178 16.5305C514.614 16.5305 514.968 16.8847 514.968 17.3207Z" fill="white" fill-opacity="0.65"/>
<path d="M494.58 23.7646C494.58 24.2006 494.226 24.5548 493.79 24.5548C493.354 24.5548 493 24.2006 493 23.7646C493 23.3286 493.354 22.9744 493.79 22.9744C494.226 22.9744 494.58 23.3286 494.58 23.7646Z" fill="white" fill-opacity="0.65"/>
<path d="M501.375 23.7644C501.375 24.2004 501.021 24.5546 500.585 24.5546C500.149 24.5546 499.795 24.2004 499.795 23.7644C499.795 23.3283 500.149 22.9741 500.585 22.9741C501.021 22.9741 501.375 23.3283 501.375 23.7644Z" fill="white" fill-opacity="0.65"/>
<path d="M508.17 23.7644C508.17 24.2004 507.816 24.5546 507.38 24.5546C506.944 24.5546 506.59 24.2004 506.59 23.7644C506.59 23.3283 506.944 22.9741 507.38 22.9741C507.816 22.9741 508.17 23.3283 508.17 23.7644Z" fill="white" fill-opacity="0.65"/>
<path d="M514.968 23.7644C514.968 24.2004 514.614 24.5546 514.178 24.5546C513.742 24.5546 513.388 24.2004 513.388 23.7644C513.388 23.3283 513.742 22.9741 514.178 22.9741C514.614 22.9741 514.968 23.3283 514.968 23.7644Z" fill="white" fill-opacity="0.65"/>
<path d="M494.58 30.2097C494.58 30.6457 494.226 30.9999 493.79 30.9999C493.354 30.9999 493 30.6457 493 30.2097C493 29.7736 493.354 29.4194 493.79 29.4194C494.226 29.4194 494.58 29.7736 494.58 30.2097Z" fill="white" fill-opacity="0.65"/>
<path d="M501.375 30.2097C501.375 30.6457 501.021 30.9999 500.585 30.9999C500.149 30.9999 499.795 30.6457 499.795 30.2097C499.795 29.7736 500.149 29.4194 500.585 29.4194C501.021 29.4194 501.375 29.7736 501.375 30.2097Z" fill="white" fill-opacity="0.65"/>
<path d="M508.17 30.2097C508.17 30.6457 507.816 30.9999 507.38 30.9999C506.944 30.9999 506.59 30.6457 506.59 30.2097C506.59 29.7736 506.944 29.4194 507.38 29.4194C507.816 29.4194 508.17 29.7736 508.17 30.2097Z" fill="white" fill-opacity="0.65"/>
<path d="M514.968 30.2097C514.968 30.6457 514.614 30.9999 514.178 30.9999C513.742 30.9999 513.388 30.6457 513.388 30.2097C513.388 29.7736 513.742 29.4194 514.178 29.4194C514.614 29.4194 514.968 29.7736 514.968 30.2097Z" fill="white" fill-opacity="0.65"/>
<path d="M494.58 5.12368C494.58 5.55972 494.226 5.9139 493.79 5.9139C493.354 5.9139 493 5.55972 493 5.12368C493 4.68763 493.354 4.33344 493.79 4.33344C494.226 4.33344 494.58 4.68763 494.58 5.12368Z" fill="white" fill-opacity="0.65"/>
<path d="M501.375 5.12361C501.375 5.55966 501.021 5.91384 500.585 5.91384C500.149 5.91384 499.795 5.55966 499.795 5.12361C499.795 4.68757 500.149 4.33337 500.585 4.33337C501.021 4.33337 501.375 4.68757 501.375 5.12361Z" fill="white" fill-opacity="0.65"/>
<path d="M508.17 5.12361C508.17 5.55966 507.816 5.91384 507.38 5.91384C506.944 5.91384 506.59 5.55966 506.59 5.12361C506.59 4.68757 506.944 4.33337 507.38 4.33337C507.816 4.33337 508.17 4.68757 508.17 5.12361Z" fill="white" fill-opacity="0.65"/>
<path d="M514.968 5.12361C514.968 5.55966 514.614 5.91384 514.178 5.91384C513.742 5.91384 513.388 5.55966 513.388 5.12361C513.388 4.68757 513.742 4.33337 514.178 4.33337C514.614 4.33337 514.968 4.68757 514.968 5.12361Z" fill="white" fill-opacity="0.65"/>
<path d="M514.972 10.8753C514.972 11.3113 514.618 11.6655 514.182 11.6655C513.746 11.6655 513.392 11.3113 513.392 10.8753C513.392 10.4392 513.746 10.085 514.182 10.085C514.618 10.085 514.972 10.4392 514.972 10.8753Z" fill="white" fill-opacity="0.65"/>
<path d="M514.972 17.3207C514.972 17.7568 514.618 18.111 514.182 18.111C513.746 18.111 513.392 17.7568 513.392 17.3207C513.392 16.8847 513.746 16.5305 514.182 16.5305C514.618 16.5305 514.972 16.8847 514.972 17.3207Z" fill="white" fill-opacity="0.65"/>
<path d="M514.972 23.7644C514.972 24.2005 514.618 24.5546 514.182 24.5546C513.746 24.5546 513.392 24.2005 513.392 23.7644C513.392 23.3284 513.746 22.9742 514.182 22.9742C514.618 22.9742 514.972 23.3284 514.972 23.7644Z" fill="white" fill-opacity="0.65"/>
<path d="M514.972 30.2097C514.972 30.6457 514.618 30.9999 514.182 30.9999C513.746 30.9999 513.392 30.6457 513.392 30.2097C513.392 29.7736 513.746 29.4194 514.182 29.4194C514.618 29.4194 514.972 29.7736 514.972 30.2097Z" fill="white" fill-opacity="0.65"/>
<path d="M514.972 5.12337C514.972 5.55941 514.618 5.91359 514.182 5.91359C513.746 5.91359 513.392 5.55941 513.392 5.12337C513.392 4.68733 513.746 4.33313 514.182 4.33313C514.618 4.33313 514.972 4.68733 514.972 5.12337Z" fill="white" fill-opacity="0.65"/>
</g>
<defs>
<filter id="filter0_d_605_61748" x="-100" y="-80" width="168" height="168" filterUnits="userSpaceOnUse" color-interpolation-filters="sRGB">
<feFlood flood-opacity="0" result="BackgroundImageFix"/>
<feColorMatrix in="SourceAlpha" type="matrix" values="0 0 0 0 0 0 0 0 0 0 0 0 0 0 0 0 0 0 127 0" result="hardAlpha"/>
<feOffset dy="10"/>
<feGaussianBlur stdDeviation="15"/>
<feComposite in2="hardAlpha" operator="out"/>
<feColorMatrix type="matrix" values="0 0 0 0 0 0 0 0 0 0 0 0 0 0 0 0 0 0 0.1 0"/>
<feBlend mode="normal" in2="BackgroundImageFix" result="effect1_dropShadow_605_61748"/>
<feBlend mode="normal" in="SourceGraphic" in2="effect1_dropShadow_605_61748" result="shape"/>
</filter>
<linearGradient id="paint0_linear_605_61748" x1="0" y1="0" x2="614.5" y2="288.5" gradientUnits="userSpaceOnUse">
<stop stop-color="#BA80FE"/>
<stop offset="1" stop-color="#CD66B3"/>
</linearGradient>
<clipPath id="clip0_605_61748">
<rect width="519" height="234" rx="8" fill="white"/>
</clipPath>
</defs>
</svg>
