<svg xmlns="http://www.w3.org/2000/svg" xmlns:xlink="http://www.w3.org/1999/xlink" width="183" height="50" viewBox="0 0 183 50">
  <defs>
    <clipPath id="clip-path">
      <rect id="Rectangle_18" data-name="Rectangle 18" width="183" height="50" transform="translate(-8.243 -0.349)" fill="#fff"/>
    </clipPath>
    <clipPath id="clip-path-2">
      <rect id="Rectangle_16" data-name="Rectangle 16" width="183" height="46.145" transform="translate(0)" fill="#fff"/>
    </clipPath>
  </defs>
  <g id="Mask_Group_9" data-name="Mask Group 9" transform="translate(8.243 0.349)" clip-path="url(#clip-path)">
    <g id="Group_427318745" data-name="Group 427318745" transform="translate(-8.243 1.651)" clip-path="url(#clip-path-2)">
      <path id="Path_82" data-name="Path 82" d="M45.184,27.149a2.376,2.376,0,0,0-2.053,1.131,2.323,2.323,0,1,0,2.053-1.131Z" transform="translate(1.637 0.764)" fill="#8a9bb3"/>
      <path id="Path_83" data-name="Path 83" d="M42.351,32.918a1.961,1.961,0,1,0,1.982,1.943A1.97,1.97,0,0,0,42.351,32.918Z" transform="translate(1.532 1.002)" fill="#8a9bb3"/>
      <path id="Path_84" data-name="Path 84" d="M38.22,40.821a1.7,1.7,0,1,0-1.754-1.639A1.7,1.7,0,0,0,38.22,40.821Z" transform="translate(1.365 1.187)" fill="#8a9bb3"/>
      <path id="Path_85" data-name="Path 85" d="M33.435,40.486a1.378,1.378,0,1,0,1.38,1.378A1.359,1.359,0,0,0,33.435,40.486Z" transform="translate(1.176 1.313)" fill="#8a9bb3"/>
      <path id="Path_86" data-name="Path 86" d="M28.811,42.081a1.166,1.166,0,1,0,1.168,1.166A1.133,1.133,0,0,0,28.811,42.081Z" transform="translate(0.987 1.379)" fill="#8a9bb3"/>
      <path id="Path_87" data-name="Path 87" d="M24.5,42.726a1.025,1.025,0,1,0,1.026,1.025A1.075,1.075,0,0,0,24.5,42.726Z" transform="translate(0.808 1.405)" fill="#8a9bb3"/>
      <path id="Path_88" data-name="Path 88" d="M20.157,42.081a1.166,1.166,0,1,0,1.168,1.166A1.177,1.177,0,0,0,20.157,42.081Z" transform="translate(0.617 1.379)" fill="#8a9bb3"/>
      <path id="Path_89" data-name="Path 89" d="M15.551,40.452a1.36,1.36,0,1,0,1.38,1.343A1.451,1.451,0,0,0,15.551,40.452Z" transform="translate(0.41 1.312)" fill="#8a9bb3"/>
      <path id="Path_90" data-name="Path 90" d="M10.847,37.432a1.738,1.738,0,0,0-1.486.848,1.625,1.625,0,0,0,0,1.7,1.7,1.7,0,1,0,1.486-2.544Z" transform="translate(0.194 1.187)" fill="#8a9bb3"/>
      <path id="Path_91" data-name="Path 91" d="M6.684,32.918A1.979,1.979,0,1,0,8.666,34.9,2,2,0,0,0,6.684,32.918Z" transform="translate(0.005 1.002)" fill="#8a9bb3"/>
      <path id="Path_92" data-name="Path 92" d="M3.883,27.149a2.3,2.3,0,1,0,2.265,2.3A2.334,2.334,0,0,0,3.883,27.149Z" transform="translate(-0.132 0.764)" fill="#8a9bb3"/>
      <path id="Path_93" data-name="Path 93" d="M2.878,19.955a2.685,2.685,0,1,0,2.69,2.685A2.686,2.686,0,0,0,2.878,19.955Z" transform="translate(-0.188 0.468)" fill="#8a9bb3"/>
      <path id="Path_94" data-name="Path 94" d="M3.883,13.439A2.376,2.376,0,0,0,1.83,14.57a2.312,2.312,0,1,0,4.318,1.166A2.333,2.333,0,0,0,3.883,13.439Z" transform="translate(-0.132 0.2)" fill="#8a9bb3"/>
      <path id="Path_95" data-name="Path 95" d="M6.685,8.315A1.979,1.979,0,0,0,4.95,11.283a2.037,2.037,0,0,0,1.734.989,1.993,1.993,0,0,0,1.946-1.979A2.043,2.043,0,0,0,6.685,8.315Z" transform="translate(0.004 -0.011)" fill="#8a9bb3"/>
      <path id="Path_96" data-name="Path 96" d="M10.846,4.31a1.7,1.7,0,1,0,1.7,1.7A1.7,1.7,0,0,0,10.846,4.31Z" transform="translate(0.195 -0.176)" fill="#8a9bb3"/>
      <path id="Path_97" data-name="Path 97" d="M15.55,1.9a1.378,1.378,0,1,0,1.38,1.378A1.429,1.429,0,0,0,15.55,1.9Z" transform="translate(0.41 -0.275)" fill="#8a9bb3"/>
      <path id="Path_98" data-name="Path 98" d="M20.159.679a1.2,1.2,0,1,0,0,2.4,1.177,1.177,0,0,0,1.168-1.166A1.217,1.217,0,0,0,20.159.679Z" transform="translate(0.615 -0.326)" fill="#8a9bb3"/>
      <path id="Path_99" data-name="Path 99" d="M24.461.339a1.025,1.025,0,1,0,1.026,1.025A1.026,1.026,0,0,0,24.461.339Z" transform="translate(0.807 -0.339)" fill="#8a9bb3"/>
      <path id="Path_100" data-name="Path 100" d="M28.811.679a1.177,1.177,0,0,0-1.168,1.166,1.168,1.168,0,0,0,2.336,0A1.133,1.133,0,0,0,28.811.679Z" transform="translate(0.987 -0.326)" fill="#8a9bb3"/>
      <path id="Path_101" data-name="Path 101" d="M33.435,1.9a1.361,1.361,0,0,0-1.2,2.049,1.392,1.392,0,0,0,2.583-.707A1.33,1.33,0,0,0,33.435,1.9Z" transform="translate(1.176 -0.275)" fill="#8a9bb3"/>
      <path id="Path_102" data-name="Path 102" d="M38.165,4.344a1.7,1.7,0,1,0,1.7,1.7A1.7,1.7,0,0,0,38.165,4.344Z" transform="translate(1.365 -0.175)" fill="#8a9bb3"/>
      <path id="Path_103" data-name="Path 103" d="M42.351,8.315a1.979,1.979,0,1,0,1.982,1.979A1.977,1.977,0,0,0,42.351,8.315Z" transform="translate(1.532 -0.011)" fill="#8a9bb3"/>
      <path id="Path_104" data-name="Path 104" d="M45.184,13.439a2.376,2.376,0,0,0-2.053,1.131,2.312,2.312,0,1,0,4.317,1.166A2.264,2.264,0,0,0,45.184,13.439Z" transform="translate(1.637 0.2)" fill="#8a9bb3"/>
      <path id="Path_105" data-name="Path 105" d="M34.949,25.894a1.026,1.026,0,0,0-.92.495,1.125,1.125,0,0,0,0,1.06.961.961,0,0,0,.92.495,1.042,1.042,0,0,0,.991-1.025A1.017,1.017,0,0,0,34.949,25.894Z" transform="translate(1.255 0.712)" fill="#8a9bb3"/>
      <path id="Path_106" data-name="Path 106" d="M32.471,29.593a1.026,1.026,0,0,0-.92.495,1.125,1.125,0,0,0,0,1.06,1,1,0,0,0,.92.495,1.025,1.025,0,0,0,0-2.049Z" transform="translate(1.149 0.865)" fill="#8a9bb3"/>
      <path id="Path_107" data-name="Path 107" d="M28.776,31.968a1.173,1.173,0,0,0-.991.565,1.083,1.083,0,0,0,0,1.131,1.13,1.13,0,0,0,.991.565,1.131,1.131,0,1,0,0-2.261Z" transform="translate(0.986 0.962)" fill="#8a9bb3"/>
      <path id="Path_108" data-name="Path 108" d="M24.448,32.613a1.519,1.519,0,1,0,1.522,1.519A1.555,1.555,0,0,0,24.448,32.613Z" transform="translate(0.785 0.989)" fill="#8a9bb3"/>
      <path id="Path_109" data-name="Path 109" d="M20.079,31.731a1.731,1.731,0,1,0,1.734,1.731A1.736,1.736,0,0,0,20.079,31.731Z" transform="translate(0.589 0.953)" fill="#8a9bb3"/>
      <path id="Path_110" data-name="Path 110" d="M16.149,28.948a1.908,1.908,0,1,0,1.911,1.908A1.9,1.9,0,0,0,16.149,28.948Z" transform="translate(0.413 0.838)" fill="#8a9bb3"/>
      <path id="Path_111" data-name="Path 111" d="M13.523,25.215a1.59,1.59,0,1,0,1.592,1.59A1.585,1.585,0,0,0,13.523,25.215Z" transform="translate(0.314 0.685)" fill="#8a9bb3"/>
      <path id="Path_112" data-name="Path 112" d="M12.9,21.142a1.237,1.237,0,1,0,1.239,1.237A1.209,1.209,0,0,0,12.9,21.142Z" transform="translate(0.303 0.517)" fill="#8a9bb3"/>
      <path id="Path_113" data-name="Path 113" d="M13.941,17.138a1.025,1.025,0,1,0,1.026,1.025A1,1,0,0,0,13.941,17.138Z" transform="translate(0.356 0.352)" fill="#8a9bb3"/>
      <path id="Path_114" data-name="Path 114" d="M16.453,13.473a1.027,1.027,0,0,0-.92.495,1.125,1.125,0,0,0,0,1.06,1,1,0,0,0,.92.495A1.026,1.026,0,0,0,17.48,14.5,1.075,1.075,0,0,0,16.453,13.473Z" transform="translate(0.463 0.201)" fill="#8a9bb3"/>
      <path id="Path_115" data-name="Path 115" d="M20.122,10.894a1.131,1.131,0,1,0,1.133,1.131A1.139,1.139,0,0,0,20.122,10.894Z" transform="translate(0.617 0.095)" fill="#8a9bb3"/>
      <path id="Path_116" data-name="Path 116" d="M26.03,11.062a1.522,1.522,0,1,0-1.579,1.46A1.52,1.52,0,0,0,26.03,11.062Z" transform="translate(0.788 0.037)" fill="#8a9bb3"/>
      <path id="Path_117" data-name="Path 117" d="M28.868,9.978A1.731,1.731,0,1,0,30.6,11.709,1.735,1.735,0,0,0,28.868,9.978Z" transform="translate(0.965 0.057)" fill="#8a9bb3"/>
      <path id="Path_118" data-name="Path 118" d="M32.812,12.421a1.908,1.908,0,1,0,1.911,1.908A1.9,1.9,0,0,0,32.812,12.421Z" transform="translate(1.127 0.158)" fill="#8a9bb3"/>
      <path id="Path_119" data-name="Path 119" d="M35.412,16.731A1.59,1.59,0,1,0,37,18.321,1.585,1.585,0,0,0,35.412,16.731Z" transform="translate(1.252 0.335)" fill="#8a9bb3"/>
      <path id="Path_120" data-name="Path 120" d="M31.381,25.392a.954.954,0,1,0-.956-.954A.955.955,0,0,0,31.381,25.392Z" transform="translate(1.106 0.613)" fill="#8a9bb3"/>
      <path id="Path_121" data-name="Path 121" d="M29.6,26.335a1.413,1.413,0,1,0,1.416,1.413A1.375,1.375,0,0,0,29.6,26.335Z" transform="translate(1.01 0.731)" fill="#8a9bb3"/>
      <path id="Path_122" data-name="Path 122" d="M26.109,28.167A1.484,1.484,0,1,0,27.6,29.651,1.494,1.494,0,0,0,26.109,28.167Z" transform="translate(0.858 0.806)" fill="#8a9bb3"/>
      <path id="Path_123" data-name="Path 123" d="M21.962,28.066a1.269,1.269,0,0,0-1.132.671,1.243,1.243,0,0,0,0,1.307,1.3,1.3,0,0,0,2.442-.636A1.292,1.292,0,0,0,21.962,28.066Z" transform="translate(0.687 0.802)" fill="#8a9bb3"/>
      <path id="Path_124" data-name="Path 124" d="M18.893,26a.954.954,0,1,0,.956.954A.951.951,0,0,0,18.893,26Z" transform="translate(0.572 0.717)" fill="#8a9bb3"/>
      <path id="Path_125" data-name="Path 125" d="M17.661,23.315a.707.707,0,1,0,.708.707A.709.709,0,0,0,17.661,23.315Z" transform="translate(0.529 0.606)" fill="#8a9bb3"/>
      <path id="Path_126" data-name="Path 126" d="M17.6,19.819a.954.954,0,1,0,.956.954A.951.951,0,0,0,17.6,19.819Z" transform="translate(0.516 0.462)" fill="#8a9bb3"/>
      <path id="Path_127" data-name="Path 127" d="M19.421,16.052a1.413,1.413,0,1,0,1.416,1.413A1.419,1.419,0,0,0,19.421,16.052Z" transform="translate(0.574 0.307)" fill="#8a9bb3"/>
      <path id="Path_128" data-name="Path 128" d="M22.919,14.084a1.484,1.484,0,1,0,1.486,1.484A1.494,1.494,0,0,0,22.919,14.084Z" transform="translate(0.721 0.226)" fill="#8a9bb3"/>
      <path id="Path_129" data-name="Path 129" d="M27.054,14.525a1.368,1.368,0,0,0-1.168.636,1.305,1.305,0,0,0,0,1.343,1.262,1.262,0,0,0,1.168.636,1.308,1.308,0,0,0,0-2.615Z" transform="translate(0.904 0.244)" fill="#8a9bb3"/>
      <path id="Path_130" data-name="Path 130" d="M30.058,17.24a.954.954,0,1,0,.956.954A.909.909,0,0,0,30.058,17.24Z" transform="translate(1.05 0.356)" fill="#8a9bb3"/>
      <path id="Path_131" data-name="Path 131" d="M31.337,20.464a.707.707,0,1,0,.708.707A.709.709,0,0,0,31.337,20.464Z" transform="translate(1.115 0.489)" fill="#8a9bb3"/>
      <path id="Path_132" data-name="Path 132" d="M36.008,21.516a1.237,1.237,0,1,0,1.239,1.237A1.253,1.253,0,0,0,36.008,21.516Z" transform="translate(1.292 0.532)" fill="#8a9bb3"/>
      <path id="Path_133" data-name="Path 133" d="M40.932,22.975a1.307,1.307,0,1,0,1.309,1.307A1.305,1.305,0,0,0,40.932,22.975Z" transform="translate(1.5 0.592)" fill="#8a9bb3"/>
      <path id="Path_134" data-name="Path 134" d="M39.673,27.421a1.237,1.237,0,1,0,1.239,1.237A1.23,1.23,0,0,0,39.673,27.421Z" transform="translate(1.449 0.775)" fill="#8a9bb3"/>
      <path id="Path_135" data-name="Path 135" d="M37.528,31.154a1.061,1.061,0,1,0,1.026,1.06A1.081,1.081,0,0,0,37.528,31.154Z" transform="translate(1.365 0.929)" fill="#8a9bb3"/>
      <path id="Path_136" data-name="Path 136" d="M34.944,33.937a.981.981,0,0,0-.814.459.861.861,0,0,0,0,.919.936.936,0,0,0,.814.459.913.913,0,0,0,.92-.919A.936.936,0,0,0,34.944,33.937Z" transform="translate(1.259 1.044)" fill="#8a9bb3"/>
      <path id="Path_137" data-name="Path 137" d="M32.222,35.973A.777.777,0,1,0,33,36.75.785.785,0,0,0,32.222,35.973Z" transform="translate(1.15 1.127)" fill="#8a9bb3"/>
      <path id="Path_138" data-name="Path 138" d="M29.14,37.127a.919.919,0,1,0,.92.919A.936.936,0,0,0,29.14,37.127Z" transform="translate(1.012 1.175)" fill="#8a9bb3"/>
      <path id="Path_139" data-name="Path 139" d="M25.515,37.7a1.06,1.06,0,1,0,1.062,1.06A1.087,1.087,0,0,0,25.515,37.7Z" transform="translate(0.851 1.199)" fill="#8a9bb3"/>
      <path id="Path_140" data-name="Path 140" d="M21.386,37.3a1.343,1.343,0,1,0,1.345,1.343A1.343,1.343,0,0,0,21.386,37.3Z" transform="translate(0.662 1.182)" fill="#8a9bb3"/>
      <path id="Path_141" data-name="Path 141" d="M17.018,35.735a1.59,1.59,0,1,0,1.593,1.59A1.563,1.563,0,0,0,17.018,35.735Z" transform="translate(0.464 1.118)" fill="#8a9bb3"/>
      <path id="Path_142" data-name="Path 142" d="M13.2,32.817a1.976,1.976,0,0,0-1.663.919,1.847,1.847,0,0,0,0,1.908,1.826,1.826,0,0,0,1.663.919,1.879,1.879,0,0,0,1.84-1.873A1.9,1.9,0,0,0,13.2,32.817Z" transform="translate(0.286 0.997)" fill="#8a9bb3"/>
      <path id="Path_143" data-name="Path 143" d="M9.979,28.473a2.049,2.049,0,1,0,2.053,2.049A2.03,2.03,0,0,0,9.979,28.473Z" transform="translate(0.143 0.819)" fill="#8a9bb3"/>
      <path id="Path_144" data-name="Path 144" d="M9.766,25.649a1.628,1.628,0,1,0-1.739,1.506A1.626,1.626,0,0,0,9.766,25.649Z" transform="translate(0.082 0.631)" fill="#8a9bb3"/>
      <path id="Path_145" data-name="Path 145" d="M9.34,20.9a1.309,1.309,0,1,0-1.38,1.233A1.308,1.308,0,0,0,9.34,20.9Z" transform="translate(0.091 0.45)" fill="#8a9bb3"/>
      <path id="Path_146" data-name="Path 146" d="M9.3,15.2a1.237,1.237,0,1,0,1.239,1.237A1.253,1.253,0,0,0,9.3,15.2Z" transform="translate(0.149 0.272)" fill="#8a9bb3"/>
      <path id="Path_147" data-name="Path 147" d="M11.431,11.844a.989.989,0,0,0-.92.53,1.125,1.125,0,0,0,0,1.06,1.1,1.1,0,0,0,.92.53,1.057,1.057,0,0,0,1.026-1.06A1.034,1.034,0,0,0,11.431,11.844Z" transform="translate(0.248 0.134)" fill="#8a9bb3"/>
      <path id="Path_148" data-name="Path 148" d="M14,9.333a.919.919,0,1,0,0,1.837.892.892,0,0,0,.92-.919A.936.936,0,0,0,14,9.333Z" transform="translate(0.364 0.031)" fill="#8a9bb3"/>
      <path id="Path_149" data-name="Path 149" d="M16.714,7.568a.777.777,0,1,0,.779.777A.763.763,0,0,0,16.714,7.568Z" transform="translate(0.486 -0.042)" fill="#8a9bb3"/>
      <path id="Path_150" data-name="Path 150" d="M19.808,6.177a.919.919,0,1,0,.92.919A.913.913,0,0,0,19.808,6.177Z" transform="translate(0.612 -0.099)" fill="#8a9bb3"/>
      <path id="Path_151" data-name="Path 151" d="M23.444,5.294a.989.989,0,0,0-.92.53,1.125,1.125,0,0,0,0,1.06,1.1,1.1,0,0,0,.92.53,1.057,1.057,0,0,0,1.026-1.06A1.081,1.081,0,0,0,23.444,5.294Z" transform="translate(0.762 -0.136)" fill="#8a9bb3"/>
      <path id="Path_152" data-name="Path 152" d="M27.6,5.125a1.36,1.36,0,1,0,1.345,1.343A1.343,1.343,0,0,0,27.6,5.125Z" transform="translate(0.926 -0.143)" fill="#8a9bb3"/>
      <path id="Path_153" data-name="Path 153" d="M31.85,6.109a1.625,1.625,0,1,0,1.628,1.625A1.645,1.645,0,0,0,31.85,6.109Z" transform="translate(1.098 -0.102)" fill="#8a9bb3"/>
      <path id="Path_154" data-name="Path 154" d="M35.865,8.552a1.864,1.864,0,0,0-1.876,1.873A1.887,1.887,0,0,0,35.865,12.3a1.864,1.864,0,0,0,1.876-1.873A1.887,1.887,0,0,0,35.865,8.552Z" transform="translate(1.259 -0.001)" fill="#8a9bb3"/>
      <path id="Path_155" data-name="Path 155" d="M39.064,12.625a2.109,2.109,0,0,0-1.8,1.025,1.944,1.944,0,0,0,0,2.049,2.109,2.109,0,0,0,1.8,1.025,2.045,2.045,0,0,0,2.017-2.049A2.118,2.118,0,0,0,39.064,12.625Z" transform="translate(1.386 0.166)" fill="#8a9bb3"/>
      <path id="Path_156" data-name="Path 156" d="M40.843,18.02a1.632,1.632,0,0,0-1.416.777,1.661,1.661,0,0,0,0,1.625,1.56,1.56,0,0,0,1.416.777,1.59,1.59,0,0,0,0-3.18Z" transform="translate(1.483 0.388)" fill="#8a9bb3"/>
      <path id="Path_157" data-name="Path 157" d="M48.9,22.606a2.69,2.69,0,1,1-2.69-2.685A2.733,2.733,0,0,1,48.9,22.606Z" transform="translate(1.667 0.467)" fill="#8a9bb3"/>
      <path id="Path_158" data-name="Path 158" d="M176.255,27.018c0-2.544-1.451-3.887-3.716-4.805-1.77-.707-3.327-1.307-4.53-1.8-1.168-.459-2.194-1.272-2.194-2.155,0-1.2,1.486-1.908,3.467-1.908a51.591,51.591,0,0,1,5.911.495h.071a.455.455,0,0,0,.46-.495V14.369a.532.532,0,0,0-.5-.495,26.909,26.909,0,0,0-5.8-.707c-4.954,0-7.326,2.12-7.326,5.088a4.751,4.751,0,0,0,3.15,4.664c2.336.954,7.113,2.085,7.113,4.063,0,1.555-.708,2.4-3.114,2.4a46.6,46.6,0,0,1-6.053-.495h-.07a.484.484,0,0,0-.5.495v1.908a.567.567,0,0,0,.5.53,29.88,29.88,0,0,0,6.051.707C174.592,32.6,176.255,29.7,176.255,27.018Z" transform="translate(6.744 0.189)" fill="#486284"/>
      <path id="Path_159" data-name="Path 159" d="M126.061,16.48h-5.343V31.815a.544.544,0,0,1-.531.53h-2.655a.544.544,0,0,1-.531-.53V16.48h-5.343a.492.492,0,0,1-.531-.495v-2.12a.513.513,0,0,1,.531-.495h14.4a.514.514,0,0,1,.531.495v2.12A.492.492,0,0,1,126.061,16.48Z" transform="translate(4.562 0.197)" fill="#486284"/>
      <path id="Path_160" data-name="Path 160" d="M109.544,25.03V13.9a.514.514,0,0,0-.531-.495h-2.654a.513.513,0,0,0-.531.495V24.994c0,3.039-1.416,4.487-4.283,4.487s-4.282-1.449-4.282-4.487V13.9a.514.514,0,0,0-.531-.495H94.079a.514.514,0,0,0-.531.495V24.994c0,5.689,3.716,7.561,8,7.561S109.544,30.718,109.544,25.03Z" transform="translate(3.809 0.198)" fill="#486284"/>
      <path id="Path_161" data-name="Path 161" d="M132.013,24.119h8.565a.544.544,0,0,0,.531-.53V21.646a.544.544,0,0,0-.531-.53h-8.565V18.678c0-2.226.071-2.3,2.123-2.3h6.76a.543.543,0,0,0,.531-.53v-1.7c0-.389-.142-.495-.531-.565a34.063,34.063,0,0,0-5.769-.389c-4.424,0-6.794-.035-6.794,5.477v8.445c0,5.512,2.37,5.477,6.794,5.477a34.05,34.05,0,0,0,5.769-.389c.389-.035.531-.177.531-.565v-1.7a.543.543,0,0,0-.531-.53h-6.76c-2.017,0-2.123-.071-2.123-2.3Z" transform="translate(5.298 0.19)" fill="#486284"/>
      <path id="Path_162" data-name="Path 162" d="M81.346,24.119H89.91a.544.544,0,0,0,.531-.53V21.646a.544.544,0,0,0-.531-.53H81.346V18.678c0-2.226.071-2.3,2.123-2.3h6.759a.544.544,0,0,0,.531-.53v-1.7c0-.389-.142-.495-.531-.565A34.071,34.071,0,0,0,84.46,13.2c-4.424,0-6.795-.035-6.795,5.477v8.445c0,5.512,2.371,5.477,6.795,5.477a34.058,34.058,0,0,0,5.769-.389c.389-.035.531-.177.531-.565v-1.7a.544.544,0,0,0-.531-.53H83.469c-2.017,0-2.123-.071-2.123-2.3Z" transform="translate(3.129 0.19)" fill="#486284"/>
      <path id="Path_163" data-name="Path 163" d="M160.6,31.822l-4.175-7.137a5.135,5.135,0,0,0,3.609-5.229v-.212c0-4.558-3.786-6.042-7.926-6.042a54.991,54.991,0,0,0-6.335.353c-.531.071-.849.283-.849.813v17.49a.543.543,0,0,0,.531.53h2.689a.514.514,0,0,0,.5-.53V25.25c.6.035,2.76.106,3.468.106h.6l3.857,6.466c.141.247.247.53.531.53h3.256a.3.3,0,0,0,.318-.318A.5.5,0,0,0,160.6,31.822Zm-4.282-12.367c0,2.332-1.486,2.862-4.246,2.862-.46,0-3.044-.071-3.468-.071V16.487c.46-.071,2.9-.106,3.468-.106,2.689,0,4.246.848,4.246,2.862Z" transform="translate(6.009 0.19)" fill="#486284"/>
      <path id="Path_164" data-name="Path 164" d="M75.528,31.822l-4.211-7.137a5.136,5.136,0,0,0,3.61-5.229v-.212c0-4.558-3.787-6.042-7.927-6.042a54.984,54.984,0,0,0-6.335.353c-.531.071-.849.283-.849.813v17.49a.544.544,0,0,0,.531.53h2.69a.514.514,0,0,0,.5-.53V25.25c.6.035,2.76.106,3.468.106h.6l3.857,6.466c.142.247.248.53.531.53h3.256a.3.3,0,0,0,.319-.318A.447.447,0,0,0,75.528,31.822ZM71.246,19.455c0,2.332-1.486,2.862-4.211,2.862-.46,0-3.044-.071-3.468-.071V16.487c.46-.071,2.9-.106,3.468-.106,2.69,0,4.211.848,4.211,2.862Z" transform="translate(2.365 0.19)" fill="#486284"/>
    </g>
  </g>
</svg>
