<svg xmlns="http://www.w3.org/2000/svg" width="98" height="98" viewBox="0 0 98 98">
  <g id="Group_530" data-name="Group 530" transform="translate(-95 -42)">
    <g id="Group_528" data-name="Group 528">
      <path id="Path_19541" data-name="Path 19541" d="M49,0A49,49,0,1,1,0,49,49,49,0,0,1,49,0Z" transform="translate(95 42)" fill="#d93872"/>
      <path id="Path_19540" data-name="Path 19540" d="M40.5,0A40.5,40.5,0,1,1,0,40.5,40.5,40.5,0,0,1,40.5,0Z" transform="translate(104 51)" fill="#e19fb3"/>
    </g>
    <path id="Path_19539" data-name="Path 19539" d="M1.19,16.736,16.779,1.148a4,4,0,0,1,5.61,0,4,4,0,0,1,0,5.61L13.6,15.6H43.583a3.967,3.967,0,1,1,0,7.934H13.6l8.788,8.788a3.987,3.987,0,1,1-5.667,5.61L1.19,22.4A4.034,4.034,0,0,1,0,19.57,3.809,3.809,0,0,1,1.19,16.736Z" transform="translate(125 115.55) rotate(-90)" fill="#fff"/>
  </g>
</svg>
