<svg xmlns="http://www.w3.org/2000/svg" width="26.4" height="25.003" viewBox="0 0 26.4 25.003">
  <g id="setting" transform="translate(-0.562 -0.258)">
    <path id="Path_39" data-name="Path 39" d="M13.062.258h1.4a3.725,3.725,0,0,1,2.19.385,3.189,3.189,0,0,1,1.085,1.8l.412,1.138a1.472,1.472,0,0,0,.6.678l.38.2a1.692,1.692,0,0,0,1.027.118l1.51-.393a6.593,6.593,0,0,1,1.617-.3,2.141,2.141,0,0,1,.747.131c.7.263,1.043.816,1.565,1.652l.621,1a3.088,3.088,0,0,1,.738,1.962c-.075.658-.508,1.1-1.163,1.777l-1.271,1.315a1.832,1.832,0,0,0,0,2.083l1.273,1.316c.654.673,1.086,1.118,1.161,1.775a3.087,3.087,0,0,1-.738,1.962l-.621,1c-.522.837-.866,1.39-1.565,1.653a2.085,2.085,0,0,1-.747.131,6.6,6.6,0,0,1-1.619-.305l-1.508-.393a1.692,1.692,0,0,0-1.028.119l-.38.2a1.47,1.47,0,0,0-.6.678l-.413,1.14a3.187,3.187,0,0,1-1.085,1.8,3.726,3.726,0,0,1-2.19.385h-1.4a3.726,3.726,0,0,1-2.19-.384,3.189,3.189,0,0,1-1.085-1.8l-.412-1.138a1.471,1.471,0,0,0-.6-.678l-.38-.2a1.692,1.692,0,0,0-1.028-.119l-1.51.393a6.592,6.592,0,0,1-1.617.3A2.085,2.085,0,0,1,3.5,21.5c-.7-.263-1.043-.816-1.565-1.652l-.621-1a3.087,3.087,0,0,1-.738-1.962c.075-.657.507-1.1,1.162-1.776L3.007,13.8a1.832,1.832,0,0,0,0-2.083L1.734,10.4C1.08,9.729.648,9.284.573,8.626a3.087,3.087,0,0,1,.738-1.962l.621-1c.521-.837.866-1.39,1.565-1.653a2.085,2.085,0,0,1,.747-.131,6.6,6.6,0,0,1,1.619.305l1.508.393A1.692,1.692,0,0,0,8.4,4.464l.38-.2a1.471,1.471,0,0,0,.6-.678l.413-1.14a3.186,3.186,0,0,1,1.085-1.8A3.725,3.725,0,0,1,13.062.258Zm6.761,6.1a3.692,3.692,0,0,1-1.576-.353l-.04-.02-.461-.247a3.241,3.241,0,0,1-1.363-1.547l-.014-.035L15.949,3a4.31,4.31,0,0,0-.4-.941A5.112,5.112,0,0,0,14.463,2h-1.4a5.12,5.12,0,0,0-1.085.054,4.286,4.286,0,0,0-.4.939l-.434,1.2A3.241,3.241,0,0,1,9.779,5.74l-.037.021-.464.246a3.735,3.735,0,0,1-2.351.271l-.044-.01-1.534-.4a6.347,6.347,0,0,0-1.106-.239.185.185,0,0,0-.036,0,4.541,4.541,0,0,0-.642.908l-.621,1a4.353,4.353,0,0,0-.5.909,4.551,4.551,0,0,0,.689.793L4.473,10.62a3.446,3.446,0,0,1,0,4.279l-.037.041-1.3,1.341a4.563,4.563,0,0,0-.691.794,4.351,4.351,0,0,0,.5.908l.62,1a4.568,4.568,0,0,0,.641.908.162.162,0,0,0,.037,0,6.331,6.331,0,0,0,1.1-.239l1.579-.411a3.735,3.735,0,0,1,2.351.271l.04.02.461.247a3.24,3.24,0,0,1,1.362,1.547l.014.035.42,1.16a4.309,4.309,0,0,0,.4.941,5.108,5.108,0,0,0,1.086.054h1.4a5.133,5.133,0,0,0,1.086-.054,4.286,4.286,0,0,0,.4-.939l.434-1.2a3.239,3.239,0,0,1,1.362-1.548l.037-.021.464-.246A3.735,3.735,0,0,1,20.6,19.24l.044.01,1.534.4a6.342,6.342,0,0,0,1.106.239.186.186,0,0,0,.037,0,4.538,4.538,0,0,0,.641-.907l.621-1a4.348,4.348,0,0,0,.5-.909,4.553,4.553,0,0,0-.689-.792L23.052,14.9a3.446,3.446,0,0,1,0-4.279l.037-.041,1.3-1.341a4.563,4.563,0,0,0,.691-.794,4.358,4.358,0,0,0-.5-.908l-.62-1a4.565,4.565,0,0,0-.641-.908.166.166,0,0,0-.037,0,6.333,6.333,0,0,0-1.1.239L20.6,6.279A3.719,3.719,0,0,1,19.823,6.36Z" fill="#2a353d"/>
    <path id="Path_40" data-name="Path 40" d="M11.712,6.75A4.942,4.942,0,1,1,6.77,11.692,4.948,4.948,0,0,1,11.712,6.75Zm0,8.141a3.2,3.2,0,1,0-3.2-3.2A3.2,3.2,0,0,0,11.712,14.891Z" transform="translate(1.993 1.058)" fill="#2a353d"/>
  </g>
</svg>
