<svg xmlns="http://www.w3.org/2000/svg" width="7.823" height="13.371" viewBox="0 0 7.823 13.371">
  <g id="Group_61" data-name="Group 61" transform="translate(-36.016 -44.612)">
    <g id="Group_60" data-name="Group 60" transform="translate(36.071 44.612)">
      <path id="Logout" d="M7.64,4.784a.442.442,0,0,1-.32-.137c-.193-.2-.456-.541-.761-.933-.39-.5-.874-1.128-1.326-1.6-.659-.7-.913-.713-.94-.713s-.28.02-.94.713c-.45.469-.935,1.1-1.324,1.6-.31.393-.568.732-.761.933a.443.443,0,0,1-.435.143A.448.448,0,0,1,.5,4.472a.455.455,0,0,1,.128-.447c.16-.167.413-.489.7-.861C2.5,1.65,3.458.5,4.294.5s1.8,1.15,2.968,2.66c.289.373.539.7.7.861a.455.455,0,0,1,.087.49.446.446,0,0,1-.411.275Z" transform="translate(-0.424 -0.396)" fill="#4285f4"/>
      <path id="Logout_-_Outline" data-name="Logout - Outline" d="M7.644,4.893h0a.542.542,0,0,1-.395-.169c-.2-.209-.461-.547-.769-.94-.388-.5-.871-1.125-1.319-1.593-.627-.659-.869-.682-.869-.682s-.237.024-.864.682C2.983,2.66,2.5,3.285,2.111,3.785c-.31.4-.571.732-.769.94A.545.545,0,0,1,.593,4.71a.561.561,0,0,1-.037-.758c.157-.163.4-.483.7-.853C2.434,1.571,3.413.4,4.3.4s1.86,1.171,3.049,2.7c.288.371.536.691.7.853a.561.561,0,0,1,.109.6.549.549,0,0,1-.5.339ZM4.3.609C3.508.609,2.559,1.744,1.41,3.23c-.291.375-.542.7-.707.869a.348.348,0,0,0,.156.6A.341.341,0,0,0,1.2,4.58c.189-.2.452-.534.754-.925.39-.5.877-1.13,1.333-1.609C3.94,1.356,4.227,1.3,4.3,1.3s.356.053,1.015.747c.455.479.942,1.105,1.333,1.609.3.391.565.732.754.925a.341.341,0,0,0,.465-.009A.348.348,0,0,0,7.89,4.1c-.164-.174-.414-.494-.707-.869C6.03,1.744,5.086.609,4.3.609Z" transform="translate(-0.426 -0.4)" fill="#4285f4"/>
    </g>
    <g id="Group_59" data-name="Group 59" transform="translate(36.016 53.461)" opacity="0.2">
      <path id="Vector" d="M4.292,4.784c-.835,0-1.8-1.153-2.967-2.661-.289-.37-.539-.691-.7-.858A.455.455,0,0,1,.652.644.442.442,0,0,1,1.266.638c.193.2.456.541.761.933.387.494.873,1.122,1.325,1.6.66.7.913.713.94.713s.28-.02.94-.713c.45-.477.935-1.1,1.324-1.6.31-.393.568-.732.761-.933a.442.442,0,0,1,.614.006.455.455,0,0,1,.026.62c-.16.167-.413.489-.7.861C6.09,3.63,5.128,4.784,4.292,4.784Z" transform="translate(-0.368 -0.366)" fill="#2a353d"/>
      <path id="Vector_-_Outline" data-name="Vector - Outline" d="M4.3,4.895c-.882,0-1.86-1.171-3.049-2.7-.289-.367-.538-.686-.7-.852A.56.56,0,0,1,.392.788.553.553,0,0,1,.8.386.547.547,0,0,1,1.344.57c.2.209.462.547.769.94.388.5.869,1.122,1.319,1.594.627.659.869.682.869.682s.237-.024.864-.682c.446-.472.928-1.095,1.315-1.595.313-.395.574-.731.772-.939A.546.546,0,0,1,8.029.559a.561.561,0,0,1,.01.782c-.157.163-.4.483-.7.853C6.161,3.728,5.181,4.895,4.3,4.895ZM.95.61A.348.348,0,0,0,.7,1.2c.164.174.414.494.706.869C2.563,3.554,3.509,4.685,4.3,4.685s1.738-1.13,2.887-2.612c.291-.375.542-.7.707-.869a.348.348,0,0,0,0-.494A.342.342,0,0,0,7.4.71c-.189.2-.452.534-.754.925-.39.5-.878,1.13-1.333,1.609-.658.7-.944.747-1.015.747s-.356-.053-1.015-.747c-.457-.474-.945-1.1-1.337-1.605-.3-.391-.565-.732-.754-.925A.338.338,0,0,0,.95.61Z" transform="translate(-0.374 -0.372)" fill="#2a353d"/>
    </g>
  </g>
</svg>
