<svg width="265" height="265" viewBox="0 0 265 265" fill="none" xmlns="http://www.w3.org/2000/svg">
<g clip-path="url(#clip0_428_3278)">
<path d="M13.7069 1H251.293C258.311 1 264 6.68907 264 13.7069V251.293C264 258.311 258.311 264 251.293 264H13.7069C6.68907 264 1 258.311 1 251.293V13.7069C1 6.68907 6.68907 1 13.7069 1Z" fill="white" stroke="#4285F4" stroke-width="2"/>
<path d="M227.005 176.719H189.055C189.055 168.167 187.114 159.726 183.378 152.034C179.643 144.341 174.21 137.596 167.489 132.308L174.918 122.357L190.206 101.861C201.662 110.688 210.938 122.028 217.318 135.007C223.698 147.986 227.012 162.256 227.005 176.719Z" fill="#10A861"/>
<path d="M87.5871 142.342L87.6511 142.259L88.4552 141.245C88.5293 141.144 88.6086 141.046 88.6928 140.953L89.3781 140.121C89.5152 139.966 89.6431 139.81 89.7802 139.664C89.9173 139.518 90.164 139.216 90.365 138.997L90.9133 138.385C91.0778 138.22 91.2332 138.047 91.3976 137.873C91.5621 137.699 91.8637 137.38 92.1104 137.133L92.4668 136.777C92.7592 136.475 93.0607 136.173 93.3806 135.863L93.5816 135.671C93.9563 135.315 94.3309 134.967 94.7238 134.62C96.3746 133.14 98.1108 131.758 99.9233 130.48L93.8557 122.348L77.2156 100.033C76.4114 100.618 75.6164 101.221 74.8306 101.861C70.9421 104.871 67.2913 108.176 63.9107 111.748L63.7554 111.903C62.1837 113.575 60.6759 115.293 59.1864 117.075L58.8666 117.468C58.2818 118.199 57.7061 118.93 57.1395 119.68C57.0573 119.798 56.9568 119.908 56.8745 120.027C44.5854 136.357 37.9457 156.244 37.959 176.682H63.8833H75.8814C75.8864 164.257 80.0021 152.183 87.5871 142.342Z" fill="#D93872"/>
<path d="M164.446 138.248L147.541 160.544L130.645 182.841L125.244 177.45L119.853 172.058L142.15 155.153L164.446 138.248Z" fill="#EC5E70"/>
<path d="M132.491 173.538C134.328 173.538 135.817 172.049 135.817 170.212C135.817 168.375 134.328 166.886 132.491 166.886C130.654 166.886 129.165 168.375 129.165 170.212C129.165 172.049 130.654 173.538 132.491 173.538Z" fill="white"/>
<path d="M190.197 101.861L174.918 122.357L167.498 132.308C157.936 124.742 146.181 120.474 133.992 120.145C121.802 119.816 109.834 123.442 99.8773 130.481L93.8098 122.348L77.1787 100.033C93.6864 88.1053 113.61 81.838 133.973 82.1674C154.337 82.4968 174.047 89.4052 190.16 101.861H190.197Z" fill="#FFBB00"/>
<path d="M64.8155 151.333L65.7293 148.811L64.6511 148.409L63.7373 150.931L62.2569 150.374L63.3078 147.578L62.2295 147.176L60.6943 151.269L66.8899 153.609L67.3833 152.302L64.8155 151.333Z" fill="white"/>
<path d="M69.5943 144.206L68.2967 146.947L66.8621 146.28L68.0591 143.712L67.0083 143.228L65.8112 145.796L64.3857 145.129L65.6741 142.387L64.6324 141.903L62.75 145.951L68.7536 148.747L70.636 144.681L69.5943 144.206Z" fill="white"/>
<path d="M71.0933 138.549L70.6272 139.344L69.7957 140.806L69.3296 141.62L70.2434 142.168L70.5358 141.656L71.7329 139.582L72.0162 139.089L71.0933 138.549ZM67.1731 137.288L66.2593 138.851L70.8282 144.142L71.5776 142.835L70.5084 141.656L69.7408 140.806L68.0046 138.851L70.5724 139.39L71.7055 139.628L73.2589 139.957L73.9991 138.659L67.1731 137.288Z" fill="white"/>
<path d="M74.5199 133.469L74.0173 133.414L73.1035 134.657L73.8619 134.748L76.5028 135.059L77.4166 133.788L74.5199 133.469ZM73.3137 135.58L73.9076 134.748L73.9899 134.62C74.2445 134.277 74.425 133.885 74.5199 133.469C74.5199 133.469 74.5199 133.469 74.5199 133.405C74.5922 133.039 74.5508 132.659 74.4011 132.317C74.2318 131.949 73.9667 131.634 73.6335 131.403C73.3094 131.171 72.9325 131.024 72.5369 130.974C72.159 130.945 71.7809 131.028 71.4495 131.212C71.0784 131.441 70.7656 131.754 70.5357 132.125L69.0371 134.273L74.465 138.065L75.2692 136.914L73.3137 135.58ZM71.2942 133.012C71.4192 132.818 71.5843 132.652 71.7785 132.527C71.9281 132.432 72.1042 132.388 72.2811 132.4C72.4765 132.426 72.662 132.501 72.8202 132.619C72.9792 132.718 73.1062 132.861 73.1857 133.03C73.2565 133.191 73.2726 133.371 73.2314 133.542C73.1745 133.763 73.0752 133.971 72.939 134.154L72.3999 134.94L70.7459 133.788L71.2942 133.012Z" fill="white"/>
<path d="M119.35 107.325L120.529 107.051L119.04 100.599L117.678 100.91L118.592 104.967H118.537L114.845 101.605L113.639 101.879L115.129 108.33L116.49 108.019L115.576 103.962H115.622L119.35 107.325Z" fill="white"/>
<path d="M125.802 105.114L122.759 105.552L122.54 103.99L125.336 103.588L125.181 102.445L122.375 102.838L122.156 101.285L125.181 100.846L125.025 99.704L120.603 100.334L121.516 106.886L125.948 106.265L125.802 105.114Z" fill="white"/>
<path d="M132.034 99.2197L130.636 99.3019L130.873 103.469C130.894 103.705 130.85 103.942 130.746 104.154C130.649 104.357 130.497 104.528 130.307 104.648C130.095 104.77 129.857 104.839 129.612 104.849C129.365 104.87 129.116 104.826 128.891 104.721C128.689 104.627 128.518 104.478 128.397 104.291C128.273 104.09 128.201 103.861 128.187 103.624L127.949 99.4482L126.551 99.5304L126.798 103.825C126.819 104.272 126.961 104.705 127.209 105.077C127.47 105.426 127.821 105.697 128.223 105.863C128.685 106.043 129.182 106.118 129.676 106.082C130.175 106.064 130.662 105.933 131.102 105.698C131.485 105.484 131.801 105.168 132.016 104.785C132.231 104.394 132.326 103.95 132.29 103.505L132.034 99.2197Z" fill="white"/>
<path d="M133.377 99.2014V100.353L135.406 100.417L135.251 105.9H136.631L136.795 100.417L138.824 100.481V99.3202L133.377 99.2014Z" fill="white"/>
<path d="M143.456 103.926L143.274 103.46L141.775 103.286L142.049 103.99L143.036 106.457L144.571 106.64L143.456 103.926ZM144.69 101.011C144.534 100.668 144.283 100.376 143.968 100.17C143.592 99.9378 143.166 99.7998 142.725 99.7679L140.121 99.4663L139.381 106.055L140.77 106.21L141.035 103.871L142.049 103.99H142.205C142.623 104.049 143.049 104.021 143.456 103.907H143.529C143.893 103.804 144.214 103.586 144.443 103.286C144.684 102.965 144.826 102.581 144.854 102.18C144.907 101.783 144.85 101.378 144.69 101.011ZM141.391 100.764L142.305 100.864C142.535 100.889 142.758 100.957 142.963 101.065C143.121 101.15 143.247 101.285 143.319 101.449C143.393 101.629 143.415 101.825 143.383 102.016C143.369 102.205 143.306 102.388 143.201 102.546C143.085 102.681 142.933 102.779 142.762 102.829C142.539 102.877 142.309 102.877 142.086 102.829L141.172 102.729L141.391 100.764Z" fill="white"/>
<path d="M149.332 104.913L147.678 104.575L146.764 104.392L146.545 105.461L147.112 105.58L149.46 106.055L150.018 106.165L150.228 105.095L149.332 104.913ZM150.191 100.983L148.428 100.627L144.864 106.658L146.335 106.96L147.112 105.58L147.678 104.575L148.976 102.281H149.031L149.332 104.894L149.46 106.037L149.643 107.617L151.105 107.91L150.191 100.983Z" fill="white"/>
<path d="M153.371 107.426L154.897 102.171L153.563 101.787L151.735 108.138L155.802 109.326L156.131 108.221L153.371 107.426Z" fill="white"/>
<path d="M196.054 130.901C195.801 130.164 195.3 129.538 194.638 129.128C194.282 128.917 193.885 128.785 193.473 128.741C193.062 128.697 192.646 128.742 192.253 128.872C191.787 129.021 191.351 129.249 190.965 129.548C190.456 129.911 190.043 130.391 189.758 130.947C189.516 131.439 189.421 131.991 189.484 132.537C189.559 133.104 189.787 133.641 190.142 134.09C190.445 134.508 190.847 134.844 191.312 135.068C191.74 135.275 192.219 135.354 192.692 135.296C193.211 135.225 193.7 135.013 194.108 134.684L194.775 134.181L193.094 131.97L192.262 132.61L193.112 133.743C192.921 133.89 192.694 133.985 192.454 134.017C192.216 134.046 191.975 134.004 191.76 133.898C191.511 133.768 191.298 133.58 191.138 133.35C190.927 133.097 190.802 132.784 190.781 132.455C190.76 132.127 190.843 131.8 191.019 131.522C191.456 130.843 192.12 130.34 192.893 130.106C193.192 130.025 193.507 130.025 193.807 130.106C194.1 130.216 194.354 130.41 194.538 130.663C194.64 130.797 194.723 130.945 194.784 131.102C194.838 131.242 194.866 131.391 194.867 131.541C194.879 131.684 194.857 131.828 194.803 131.961C194.755 132.105 194.684 132.241 194.592 132.363L195.442 133.505C195.67 133.28 195.853 133.013 195.981 132.719C196.1 132.429 196.162 132.119 196.164 131.806C196.178 131.5 196.141 131.194 196.054 130.901Z" fill="white"/>
<path d="M196.091 137.243L195.716 137.9L194.391 140.203L195.204 141.519L196.648 138.961L196.886 138.522L196.091 137.243ZM199.892 137.023C199.837 136.586 199.684 136.168 199.444 135.799L198.055 133.587L192.436 137.096L193.185 138.284L195.177 137.042L195.716 137.955L195.798 138.083C196.015 138.444 196.304 138.755 196.648 138.997H196.703C197.012 139.209 197.379 139.318 197.754 139.308C198.149 139.299 198.534 139.175 198.86 138.951C199.205 138.751 199.489 138.461 199.682 138.111C199.863 137.779 199.936 137.399 199.892 137.023ZM198.503 137.325C198.408 137.493 198.269 137.632 198.101 137.727C197.943 137.833 197.761 137.896 197.571 137.91C197.393 137.908 197.221 137.851 197.078 137.745C196.897 137.608 196.745 137.437 196.63 137.243L196.127 136.429L197.827 135.369L198.329 136.173C198.455 136.365 198.542 136.579 198.585 136.804C198.615 136.982 198.586 137.165 198.503 137.325Z" fill="white"/>
<path d="M201.418 139.07L195.533 142.122L197.598 146.097L198.622 145.567L197.205 142.826L198.613 142.095L199.91 144.617L200.943 144.078L199.59 141.528L200.989 140.806L202.396 143.548L203.428 143.018L201.418 139.07Z" fill="white"/>
<path d="M204.068 144.352L197.973 146.929L199.718 151.05L200.778 150.602L199.581 147.77L201.034 147.157L202.14 149.762L203.2 149.314L202.103 146.709L203.556 146.088L204.744 148.912L205.813 148.455L204.068 144.352Z" fill="white"/>
<path d="M207.102 152.147L206.371 149.899L200.075 151.955L200.806 154.184C200.977 154.762 201.291 155.287 201.72 155.71C202.115 156.086 202.616 156.331 203.155 156.414C203.763 156.489 204.38 156.43 204.962 156.24C205.545 156.051 206.079 155.736 206.527 155.317C206.908 154.929 207.166 154.436 207.267 153.901C207.363 153.312 207.306 152.708 207.102 152.147ZM206.061 153.508C206.009 153.827 205.848 154.118 205.604 154.33C205.296 154.602 204.93 154.799 204.535 154.906C204.146 155.049 203.732 155.108 203.319 155.08C202.999 155.05 202.699 154.912 202.469 154.687C202.218 154.431 202.033 154.117 201.93 153.773L201.647 152.932L205.668 151.626L205.942 152.466C206.064 152.799 206.105 153.156 206.061 153.508Z" fill="white"/>
</g>
<defs>
<clipPath id="clip0_428_3278">
<rect width="265" height="265" fill="white"/>
</clipPath>
</defs>
</svg>
