<svg xmlns="http://www.w3.org/2000/svg" width="21.44" height="19.997" viewBox="0 0 21.44 19.997">
  <g id="stock-etf" transform="translate(-3.222 -2.219)">
    <path id="Path_35" data-name="Path 35" d="M7.018,21.072a.713.713,0,0,1-.769-.639V17.879a.623.623,0,0,1,.377-.571.9.9,0,0,1,.783,0,.623.623,0,0,1,.377.571v2.555A.713.713,0,0,1,7.018,21.072Z" transform="translate(0.305 1.144)" fill="#2a353d"/>
    <path id="Path_36" data-name="Path 36" d="M17.018,21.925a.769.769,0,0,1-.769-.769V15.012a.769.769,0,1,1,1.536,0v6.142a.769.769,0,0,1-.768.771Z" transform="translate(3.54 0.291)" fill="#2a353d"/>
    <path id="Path_37" data-name="Path 37" d="M17.018,6.328a.729.729,0,0,1-.769-.681V2.922a.668.668,0,0,1,.377-.608.854.854,0,0,1,.783,0,.668.668,0,0,1,.377.608V5.647A.729.729,0,0,1,17.018,6.328Z" transform="translate(3.54 0)" fill="#2a353d"/>
    <path id="Path_38" data-name="Path 38" d="M7.018,9.925a.769.769,0,0,1-.769-.771V3.012a.769.769,0,1,1,1.536,0V9.154a.769.769,0,0,1-.768.771Z" transform="translate(0.305)" fill="#2a353d"/>
    <path id="Path_39" data-name="Path 39" d="M7.085,18.926a5.519,5.519,0,0,1-2.1-.212A2.8,2.8,0,0,1,3.459,17.19a5.518,5.518,0,0,1-.214-2.1,5.518,5.518,0,0,1,.214-2.1,2.8,2.8,0,0,1,1.524-1.524,5.519,5.519,0,0,1,2.1-.214,5.519,5.519,0,0,1,2.1.214,2.8,2.8,0,0,1,1.527,1.521,5.518,5.518,0,0,1,.214,2.1,5.518,5.518,0,0,1-.214,2.1,2.8,2.8,0,0,1-1.527,1.527A5.519,5.519,0,0,1,7.085,18.926Zm0-6.145a5.241,5.241,0,0,0-1.518.1,1.272,1.272,0,0,0-.693.693,5.241,5.241,0,0,0-.1,1.518,5.24,5.24,0,0,0,.1,1.518,1.272,1.272,0,0,0,.693.693,5.292,5.292,0,0,0,1.518.17A5.29,5.29,0,0,0,8.6,17.3a1.272,1.272,0,0,0,.693-.693,5.241,5.241,0,0,0,.1-1.518,5.24,5.24,0,0,0-.1-1.518,1.272,1.272,0,0,0-.693-.693,5.242,5.242,0,0,0-1.518-.1Z" transform="translate(0 0.216)" fill="#2a353d"/>
    <path id="Path_40" data-name="Path 40" d="M17.085,12.926a5.519,5.519,0,0,1-2.1-.214,2.8,2.8,0,0,1-1.524-1.524,5.519,5.519,0,0,1-.214-2.1,5.519,5.519,0,0,1,.214-2.1,2.8,2.8,0,0,1,1.524-1.524,5.518,5.518,0,0,1,2.1-.214,5.518,5.518,0,0,1,2.1.214,2.8,2.8,0,0,1,1.527,1.523,5.519,5.519,0,0,1,.214,2.1,5.519,5.519,0,0,1-.214,2.1,2.8,2.8,0,0,1-1.527,1.527A5.519,5.519,0,0,1,17.085,12.926Zm0-6.145a5.24,5.24,0,0,0-1.518.1,1.272,1.272,0,0,0-.693.693,5.242,5.242,0,0,0-.1,1.518,5.241,5.241,0,0,0,.1,1.518,1.272,1.272,0,0,0,.693.693,5.242,5.242,0,0,0,1.518.1,5.241,5.241,0,0,0,1.518-.1,1.272,1.272,0,0,0,.693-.693,5.242,5.242,0,0,0,.1-1.518,5.241,5.241,0,0,0-.1-1.518,1.272,1.272,0,0,0-.693-.693,5.241,5.241,0,0,0-1.518-.1Z" transform="translate(3.711 0.072)" fill="#2a353d"/>
  </g>
</svg>
