<svg xmlns="http://www.w3.org/2000/svg" width="25" height="25" viewBox="0 0 25 25">
  <g id="support" transform="translate(-0.15 -0.15)">
    <path id="Path_41" data-name="Path 41" d="M8.714,9.832,3.97,5.088,5.088,3.97,9.832,8.714Z" transform="translate(0.21 0.21)" fill="#2a353d"/>
    <path id="Path_42" data-name="Path 42" d="M19.214,20.332,14.47,15.588l1.118-1.118,4.744,4.744Z" transform="translate(0.788 0.788)" fill="#2a353d"/>
    <path id="Rectangle_3" data-name="Rectangle 3" d="M4.785-.75A5.535,5.535,0,1,1-.75,4.785,5.541,5.541,0,0,1,4.785-.75Zm0,9.489A3.954,3.954,0,1,0,.831,4.785,3.958,3.958,0,0,0,4.785,8.739Z" transform="translate(7.865 7.865)" fill="#2a353d"/>
    <path id="Rectangle_4" data-name="Rectangle 4" d="M11.117-.75a11.867,11.867,0,0,1,8.392,20.259A11.867,11.867,0,1,1,2.726,2.726,11.79,11.79,0,0,1,11.117-.75Zm0,22.152A10.285,10.285,0,1,0,.832,11.117,10.3,10.3,0,0,0,11.117,21.4Z" transform="translate(1.533 1.533)" fill="#2a353d"/>
    <path id="Path_43" data-name="Path 43" d="M5.683,24.321A5.535,5.535,0,0,1,1.5,15.169l1.2,1.033a3.954,3.954,0,0,0,5.8,5.364L9.62,22.679A5.508,5.508,0,0,1,5.809,24.32Z" transform="translate(0 0.829)" fill="#2a353d"/>
    <path id="Path_44" data-name="Path 44" d="M18.8,24.321h-.126a5.508,5.508,0,0,1-3.811-1.641l1.124-1.112A3.954,3.954,0,0,0,21.8,16.2l1.2-1.033A5.535,5.535,0,0,1,18.8,24.321Z" transform="translate(0.812 0.829)" fill="#2a353d"/>
    <path id="Path_45" data-name="Path 45" d="M1.5,9.3A5.535,5.535,0,0,1,9.62,1.792L8.5,2.9a3.954,3.954,0,0,0-5.8,5.364Z" transform="translate(0)" fill="#2a353d"/>
    <path id="Path_46" data-name="Path 46" d="M22.993,9.3,21.8,8.268a3.954,3.954,0,0,0-5.8-5.364L14.867,1.792A5.535,5.535,0,0,1,22.993,9.3Z" transform="translate(0.812 0)" fill="#2a353d"/>
    <path id="Path_47" data-name="Path 47" d="M15.588,9.832,14.47,8.714,19.214,3.97l1.118,1.118Z" transform="translate(0.788 0.21)" fill="#2a353d"/>
    <path id="Path_48" data-name="Path 48" d="M5.088,20.332,3.97,19.214,8.714,14.47l1.118,1.118Z" transform="translate(0.21 0.788)" fill="#2a353d"/>
  </g>
</svg>
