<svg xmlns="http://www.w3.org/2000/svg" width="90" height="33.294" viewBox="0 0 90 33.294">
  <g id="noun-arrow-38670" transform="translate(-5 -33.354)">
    <path id="Path_20042" data-name="Path 20042" d="M95,63.049c0-.03.006.48,0,.45L94.075,47h0L94,45.916a2.376,2.376,0,0,0-2.05-2.524,2.3,2.3,0,0,0-2.515,2.085l-.026.362L88.4,54.026c-.006-.007-.011-.01-.017-.017-1.751-1.752-3.954-3.82-6.612-6.008a75.584,75.584,0,0,0-13.7-9.038A50.668,50.668,0,0,0,50.025,33.53c-.812-.074-1.645-.1-2.462-.156s-1.554,0-2.333-.01l-.63,0-.59.043-1.176.087-2.336.175a21.908,21.908,0,0,0-2.305.281l-2.272.345a19.931,19.931,0,0,0-2.225.438l-2.177.5a53.686,53.686,0,0,0-14.8,6.134,48.575,48.575,0,0,0-8.894,6.89A27.861,27.861,0,0,0,5,51.434,27.569,27.569,0,0,1,8.047,48.5a47.831,47.831,0,0,1,9.244-6.106,51.908,51.908,0,0,1,14.728-4.845c.7-.106,1.406-.221,2.117-.328a18.706,18.706,0,0,1,2.153-.271c.726-.054,1.456-.14,2.189-.195s6.644.144,6.644.144c.755.063,1.561.075,2.278.173s1.423.117,2.14.238A46.216,46.216,0,0,1,65.6,43.479a69.892,69.892,0,0,1,11.985,9.27C79.72,54.8,81.5,56.715,82.939,58.37l-7.978-.857-.361-.04a2.287,2.287,0,0,0-2.554,2.016,2.166,2.166,0,0,0,2,2.511H74v.087l15.835,4.16A3.495,3.495,0,0,0,94.97,63.31C94.977,63.223,95,63.137,95,63.049Z" fill="#4285f4"/>
  </g>
</svg>
