<svg xmlns="http://www.w3.org/2000/svg" width="17.857" height="25" viewBox="0 0 17.857 25">
  <g id="theme" transform="translate(8.5 -1.5)">
    <g id="Group_3" data-name="Group 3" transform="translate(-13)">
      <path id="Path_49" data-name="Path 49" d="M6.924,1.5H19.933l0,.892v.892H6.924a.647.647,0,0,0-.465.193.6.6,0,0,0-.174.43L6.437,11.9H20.322l.249-7.991a.635.635,0,0,0-.635-.626V1.5a2.419,2.419,0,0,1,2.421,2.424q0,.013,0,.026l-.276,8.871a.892.892,0,0,1-.892.864H5.561a.892.892,0,0,1-.893-.875L4.5,3.939a2.366,2.366,0,0,1,.686-1.713A2.42,2.42,0,0,1,6.924,1.5Z" fill="#2a353d"/>
      <path id="Path_50" data-name="Path 50" d="M13.349,24.821a2.451,2.451,0,0,1-1.749-.778,4.542,4.542,0,0,1-1.085-3.328c.016-.654.034-.947.079-1.657.016-.253.036-.562.06-.962a1.905,1.905,0,0,0-.395-1.481,3.609,3.609,0,0,0-2.57-.72H7.642a3.4,3.4,0,0,1-2.573-.728,1.707,1.707,0,0,1-.426-1.311V11.137a.893.893,0,0,1,1.786,0v2.755q0,.041,0,.082v.013a4.144,4.144,0,0,0,1.227.125H7.7A5.086,5.086,0,0,1,11.563,15.4a3.618,3.618,0,0,1,.874,2.808c-.024.4-.044.713-.06.967-.045.7-.061.968-.076,1.587a2.732,2.732,0,0,0,.578,2.039.582.582,0,0,0,.941,0,2.731,2.731,0,0,0,.578-2.038c-.015-.61-.031-.868-.075-1.558-.016-.26-.037-.578-.062-1a3.617,3.617,0,0,1,.873-2.808A5.086,5.086,0,0,1,19,14.112h.048a4.139,4.139,0,0,0,1.228-.126v-.013q0-.04,0-.081V11.137a.893.893,0,0,1,1.786,0v2.719a1.707,1.707,0,0,1-.427,1.311,3.4,3.4,0,0,1-2.573.728h-.048a3.609,3.609,0,0,0-2.57.72,1.9,1.9,0,0,0-.394,1.481c.025.416.045.733.062.991.044.695.062.982.078,1.628A4.542,4.542,0,0,1,15.1,24.043,2.452,2.452,0,0,1,13.349,24.821Z" transform="translate(0.026 1.679)" fill="#2a353d"/>
    </g>
  </g>
</svg>
