<svg xmlns="http://www.w3.org/2000/svg" width="256.401" height="229.484" viewBox="0 0 256.401 229.484">
  <g id="Trends" transform="translate(-778.533 -738.258)">
    <g id="Group_51" data-name="Group 51" transform="translate(-3154.467 1443.945)">
      <path id="Path_28" data-name="Path 28" d="M212.238,38.416H38.195a18.4,18.4,0,0,0-18.4,18.4V199.578H230.638V56.816a18.4,18.4,0,0,0-18.4-18.4" transform="translate(3935.985 -699.894)" fill="#ffd9e7"/>
      <path id="Path_29" data-name="Path 29" d="M30.324,191.932V55.839a6.893,6.893,0,0,1,6.892-6.893H210.041a6.892,6.892,0,0,1,6.892,6.893V191.932Z" transform="translate(3937.572 -698.307)" fill="#c1ffe2"/>
      <path id="Path_30" data-name="Path 30" d="M70.028,38.416H39.17A19.375,19.375,0,0,0,19.794,57.792V183.826" transform="translate(3935.985 -699.894)" fill="none" stroke="#000" stroke-linecap="round" stroke-width="4"/>
      <path id="Path_31" data-name="Path 31" d="M209.649,183.826V57.792a19.375,19.375,0,0,0-19.376-19.376H159" transform="translate(3956.974 -699.894)" fill="none" stroke="#000" stroke-linecap="round" stroke-width="4"/>
      <path id="Path_32" data-name="Path 32" d="M221.245,201.068H34.553A35.051,35.051,0,0,1,2.408,179.991,4.857,4.857,0,0,1,6.863,173.2H248.936a4.857,4.857,0,0,1,4.455,6.793,35.052,35.052,0,0,1-32.146,21.077" transform="translate(3933.302 -679.572)" fill="#c1ffe2"/>
      <path id="Path_33" data-name="Path 33" d="M146.244,182.622H95.61a9.207,9.207,0,0,1-9.206-9.206h69.047a9.207,9.207,0,0,1-9.206,9.206" transform="translate(3946.028 -679.539)" fill="#ffd9e7"/>
      <path id="Path_34" data-name="Path 34" d="M221.245,193.6H34.553a35.044,35.044,0,0,1-31.2-19.095,4.832,4.832,0,0,0-.949,5.289A35.053,35.053,0,0,0,34.553,200.87H221.245a35.054,35.054,0,0,0,32.146-21.076,4.834,4.834,0,0,0-.951-5.289,35.042,35.042,0,0,1-31.2,19.095" transform="translate(3933.302 -679.375)" fill="#ffd9e7"/>
      <path id="Path_35" data-name="Path 35" d="M221.245,201.068H34.553A35.051,35.051,0,0,1,2.408,179.991,4.857,4.857,0,0,1,6.863,173.2H248.936a4.857,4.857,0,0,1,4.455,6.793A35.052,35.052,0,0,1,221.245,201.068Z" transform="translate(3933.302 -679.572)" fill="none" stroke="#000" stroke-linecap="round" stroke-width="4"/>
      <line id="Line_1" data-name="Line 1" x2="28.944" transform="translate(3978.134 -622.877)" fill="none" stroke="#000" stroke-linecap="round" stroke-width="4"/>
      <line id="Line_2" data-name="Line 2" x2="14.705" transform="translate(3978.134 -613.328)" fill="none" stroke="#000" stroke-linecap="round" stroke-width="4"/>
      <path id="Path_36" data-name="Path 36" d="M64.949,65.974H40.93A3.526,3.526,0,0,1,37.4,62.448v-.506a3.526,3.526,0,0,1,3.526-3.526H64.949a3.526,3.526,0,0,1,3.526,3.526v.506a3.526,3.526,0,0,1-3.526,3.526" transform="translate(3938.64 -696.879)" fill="#ffd9e7"/>
      <path id="Path_37" data-name="Path 37" d="M70.217,48.846A46.846,46.846,0,1,0,117.063,2,46.846,46.846,0,0,0,70.217,48.846" transform="translate(3943.587 -705.385)" fill="#c1ffe2"/>
      <path id="Path_38" data-name="Path 38" d="M82.446,47a32.773,32.773,0,1,0,32.773-32.773A32.772,32.772,0,0,0,82.446,47" transform="translate(3945.431 -703.541)" fill="#ffd9e7"/>
      <circle id="Ellipse_1" data-name="Ellipse 1" cx="46.846" cy="46.846" r="46.846" transform="translate(4013.804 -703.385)" fill="none" stroke="#000" stroke-linecap="round" stroke-width="4"/>
      <path id="Path_40" data-name="Path 40" d="M120.51,118.4H101.928a4.566,4.566,0,0,0-4.566,4.566v48.794h27.714V122.971a4.567,4.567,0,0,0-4.566-4.566" transform="translate(3947.68 -687.834)" fill="#c1ffe2"/>
      <path id="Path_41" data-name="Path 41" d="M159.92,95.416H141.338a4.567,4.567,0,0,0-4.567,4.566v75.249h27.714V99.982a4.566,4.566,0,0,0-4.565-4.566" transform="translate(3953.622 -691.3)" fill="#c1ffe2"/>
      <path id="Path_42" data-name="Path 42" d="M81.1,135.92H62.519a4.566,4.566,0,0,0-4.566,4.566v28.638H85.667V140.486A4.567,4.567,0,0,0,81.1,135.92" transform="translate(3941.738 -685.193)" fill="#c1ffe2"/>
      <path id="Path_43" data-name="Path 43" d="M111.179,118.4h-8.818a5,5,0,0,0-5,5v48.361h8.818V123.4a5,5,0,0,1,5-5" transform="translate(3947.68 -687.834)" fill="#ffd9e7"/>
      <path id="Path_44" data-name="Path 44" d="M150.588,95.416H141.77a5,5,0,0,0-5,5v74.817h8.818V100.415a5,5,0,0,1,5-5" transform="translate(3953.622 -691.3)" fill="rgba(255,217,231,0.62)"/>
      <path id="Path_45" data-name="Path 45" d="M71.769,135.92H62.951a5,5,0,0,0-5,5v28.206H66.77V140.919a5,5,0,0,1,5-5" transform="translate(3941.738 -685.193)" fill="#ffd9e7"/>
      <path id="Path_46" data-name="Path 46" d="M125.076,171.765V123.4a5,5,0,0,0-5-5H102.36a5,5,0,0,0-5,5v48.361" transform="translate(3947.68 -687.834)" fill="none" stroke="#000" stroke-linecap="round" stroke-width="4"/>
      <path id="Path_47" data-name="Path 47" d="M164.486,175.232V100.415a5,5,0,0,0-5-5H141.77a5,5,0,0,0-5,5v74.817" transform="translate(3953.623 -691.3)" fill="none" stroke="#000" stroke-linecap="round" stroke-width="4"/>
      <path id="Path_48" data-name="Path 48" d="M85.667,169.125V140.919a5,5,0,0,0-5-5H62.951a5,5,0,0,0-5,5v28.206" transform="translate(3941.738 -685.193)" fill="none" stroke="#000" stroke-linecap="round" stroke-width="4"/>
      <rect id="Rectangle_31" data-name="Rectangle 31" width="256.401" height="229.484" transform="translate(3933 -705.687)" fill="none"/>
    </g>
    <g id="noun-zigzag-arrow-6241831" transform="translate(1064.194 1322.397) rotate(16)">
      <path id="Path_83" data-name="Path 83" d="M30.063,6.767a1.488,1.488,0,0,1,2.1-2.1l6.1,6.1a1.488,1.488,0,0,1-.027,2.077l-6.072,6.072a1.488,1.488,0,0,1-2.1-2.1L33.6,13.275H19.328a1.488,1.488,0,0,1-1.488-1.488V2.976H1.47A1.488,1.488,0,0,1,1.47,0H19.328a1.488,1.488,0,0,1,1.488,1.488V10.3H33.595Z" transform="translate(-315.78 -455.131) rotate(-60)" stroke="#000" stroke-width="1" fill-rule="evenodd"/>
    </g>
  </g>
</svg>
