<svg xmlns="http://www.w3.org/2000/svg" width="33.6" height="33.6" viewBox="0 0 33.6 33.6">
  <g id="Group_629" data-name="Group 629" transform="translate(-434.999 -5)">
    <g id="twitter" transform="translate(416.398)">
      <g id="Group_14" data-name="Group 14">
        <circle id="Ellipse_3" data-name="Ellipse 3" cx="16.8" cy="16.8" r="16.8" transform="translate(18.6 5)" fill="#fff"/>
      </g>
    </g>
    <g id="Group_630" data-name="Group 630" transform="translate(0.815 0.716)">
      <path id="path1009" d="M483.974,356.79l5.363,7.171-5.4,5.83h1.215l4.725-5.1,3.818,5.1h4.133l-5.665-7.574,5.023-5.427h-1.215l-4.351,4.7-3.516-4.7Zm1.786.895h1.9l8.385,11.211h-1.9Z" transform="translate(-39.909 -342.207)"/>
      <path id="path1009_-_Outline" data-name="path1009 - Outline" d="M482.962,356.29h5.266l3.326,4.447,4.116-4.447h2.45l-5.472,5.911,5.981,8h-5.266l-3.628-4.85-4.49,4.85H482.8l5.845-6.314Zm4.363,1.8h-.767l7.707,10.3h.767Z" transform="translate(-39.802 -342.16)"/>
    </g>
  </g>
</svg>
