<svg xmlns="http://www.w3.org/2000/svg" xmlns:xlink="http://www.w3.org/1999/xlink" width="23" height="22" viewBox="0 0 23 22">
  <defs>
    <clipPath id="clip-path">
      <rect id="Rectangle_733" data-name="Rectangle 733" width="23" height="22" transform="translate(5 5)" fill="#fff"/>
    </clipPath>
  </defs>
  <g id="Mask_Group_59" data-name="Mask Group 59" transform="translate(-5 -5)" clip-path="url(#clip-path)">
    <path id="Logo_of_Twitter" d="M15.671,4.8c.01.144.01.288.01.434A9.476,9.476,0,0,1,6.14,14.778v0A9.493,9.493,0,0,1,1,13.272a6.821,6.821,0,0,0,.8.048,6.733,6.733,0,0,0,4.164-1.438A3.357,3.357,0,0,1,2.83,9.554,3.342,3.342,0,0,0,4.344,9.5a3.353,3.353,0,0,1-2.69-3.287V6.167a3.332,3.332,0,0,0,1.522.42A3.357,3.357,0,0,1,2.138,2.109a9.517,9.517,0,0,0,6.911,3.5,3.356,3.356,0,0,1,5.714-3.058,6.728,6.728,0,0,0,2.129-.814,3.366,3.366,0,0,1-1.474,1.854,6.669,6.669,0,0,0,1.926-.528A6.812,6.812,0,0,1,15.671,4.8Z" transform="translate(8 7.5)" fill="#242947"/>
  </g>
</svg>
