<svg id="verified-symbol-icon" xmlns="http://www.w3.org/2000/svg" width="13.225" height="12.578" viewBox="0 0 13.225 12.578">
  <path id="Path_25989" data-name="Path 25989" d="M6.6.887,8.656,0,9.781,1.915l2.182.488-.215,2.21,1.478,1.677L11.753,7.95l.21,2.226-2.169.479L8.656,12.578,6.62,11.69l-2.051.888L3.444,10.663l-2.182-.488.215-2.211L0,6.289,1.472,4.627,1.262,2.4l2.169-.479L4.569,0,6.6.887Z" fill="#07c13c" fill-rule="evenodd"/>
  <path id="Path_25990" data-name="Path 25990" d="M36.167,39.249a.766.766,0,0,1,1.076-1.087c.256.234.629.575.887.806l3.061-3.013a.764.764,0,0,1,1.1,1.057l-3.571,3.55a.767.767,0,0,1-1.065.047C37.233,40.205,36.611,39.625,36.167,39.249Z" transform="translate(-32.62 -31.969)" fill="#fff"/>
</svg>
