<svg xmlns="http://www.w3.org/2000/svg" xmlns:xlink="http://www.w3.org/1999/xlink" width="210" height="210" viewBox="0 0 210 210">
  <defs>
    <clipPath id="clip-path">
      <rect id="Rectangle_766" data-name="Rectangle 766" width="210" height="210" transform="translate(1975 466)" fill="#fff" stroke="#707070" stroke-width="1"/>
    </clipPath>
  </defs>
  <g id="Mask_Group_68" data-name="Mask Group 68" transform="translate(-1975 -466)" clip-path="url(#clip-path)">
    <path id="play_circle_24dp_000_FILL0_wght300_GRAD0_opsz24" d="M172.488-724.637l62.875-40.378-62.875-40.378ZM195-670.031a92.535,92.535,0,0,1-37.046-7.479,95.939,95.939,0,0,1-30.165-20.3,95.93,95.93,0,0,1-20.309-30.153A92.449,92.449,0,0,1,100-765a92.534,92.534,0,0,1,7.479-37.046,95.939,95.939,0,0,1,20.3-30.165,95.93,95.93,0,0,1,30.153-20.309A92.448,92.448,0,0,1,194.967-860a92.534,92.534,0,0,1,37.046,7.479,95.939,95.939,0,0,1,30.165,20.3,95.929,95.929,0,0,1,20.309,30.153,92.449,92.449,0,0,1,7.481,37.036,92.535,92.535,0,0,1-7.479,37.046,95.939,95.939,0,0,1-20.3,30.165,95.93,95.93,0,0,1-30.153,20.309A92.448,92.448,0,0,1,195-670.031Zm-.018-15q33.494,0,56.741-23.246t23.246-56.741q0-33.495-23.246-56.741T194.984-845q-33.495,0-56.741,23.246T115-765.016q0,33.494,23.246,56.741T194.984-685.029ZM194.984-765.016Z" transform="translate(1885.016 1336.016)" fill="#4285f4"/>
  </g>
</svg>
