<svg xmlns="http://www.w3.org/2000/svg" xmlns:xlink="http://www.w3.org/1999/xlink" width="281.822" height="210.12" viewBox="0 0 281.822 210.12">
  <defs>
    <clipPath id="clip-path">
      <rect id="Rectangle_705" data-name="Rectangle 705" width="281.822" height="210.12" fill="#4285f4"/>
    </clipPath>
  </defs>
  <g id="Group_593" data-name="Group 593" clip-path="url(#clip-path)">
    <path id="Path_19673" data-name="Path 19673" d="M188.7,96.785c-.09,2.32-1.62,4.38-4.21,5.66L123.03,137.9l-.42.28a5.477,5.477,0,0,1-5.87.23,8.489,8.489,0,0,1-4.79-7.17V61.505a8.028,8.028,0,0,1,.83-3.33,7.794,7.794,0,0,1,10.35-3.49l61.11,35.26c2.89,1.7,4.55,4.26,4.46,6.84" fill="#4285f4"/>
    <path id="Path_19674" data-name="Path 19674" d="M272.524,174.085h-9.2l2.25-5.5a16.237,16.237,0,0,0,1.13-4.8l.01-.12a669.478,669.478,0,0,0,0-141.45,22.177,22.177,0,0,0-19.89-18.99,1732.276,1732.276,0,0,0-211.31,0,22.334,22.334,0,0,0-19.9,19,669.377,669.377,0,0,0,.01,141.44,15.6,15.6,0,0,0,1.13,4.54l2.29,5.53H9.734a11.8,11.8,0,0,0-9.6,13.37c.03.21.07.43.12.65a70.708,70.708,0,0,0,5.01,14.91l.1.23a10.822,10.822,0,0,0,8.36,6.76c84.41.62,170,.62,254.42,0a10.853,10.853,0,0,0,8.36-6.76l.1-.23a71.344,71.344,0,0,0,5.01-14.94,11.771,11.771,0,0,0-9.09-13.64m-17.42-16.79a16.4,16.4,0,0,1-14.35,13.94l-.21.02c-32.97,2-66.18,3-99.38,3s-66.41-1-99.39-3l-.21-.02a16.373,16.373,0,0,1-14.33-13.87,494.852,494.852,0,0,1-.01-128.5l.01-.07a16.373,16.373,0,0,1,14.33-13.87l.21-.02a1647.717,1647.717,0,0,1,198.77,0l.21.02a16.384,16.384,0,0,1,14.34,13.87,494.85,494.85,0,0,1,.01,128.5" fill="#4285f4"/>
  </g>
</svg>
