<svg width="28" height="11" viewBox="0 0 28 11" fill="none" xmlns="http://www.w3.org/2000/svg">
<g clip-path="url(#clip0_601_23643)">
<path d="M14.4809 3.80522C14.465 5.10019 15.6034 5.82279 16.461 6.25246C17.3422 6.69327 17.6381 6.97596 17.6346 7.37021C17.6281 7.97351 16.9318 8.23979 16.2803 8.25013C15.1435 8.26824 14.4826 7.9346 13.9571 7.68226L13.5476 9.65227C14.0748 9.90202 15.051 10.1198 16.0632 10.1294C18.4394 10.1294 19.994 8.92348 20.0024 7.05378C20.0117 4.68086 16.81 4.54952 16.8318 3.4889C16.8394 3.16729 17.1379 2.82409 17.7919 2.73683C18.1157 2.69275 19.0094 2.65902 20.0226 3.13873L20.4203 1.2327C19.8754 1.02872 19.1751 0.833395 18.3031 0.833395C16.0666 0.833395 14.4936 2.05572 14.4809 3.80522ZM24.2417 0.997572C23.8078 0.997572 23.4421 1.25778 23.2789 1.65709L19.8847 9.98939H22.2591L22.7316 8.64686H25.6331L25.9072 9.98939H28L26.1738 0.997572H24.2417ZM24.5738 3.4266L25.2591 6.80313H23.3824L24.5738 3.4266ZM11.6021 0.997684L9.73044 9.98928H11.9931L13.8638 0.997459H11.6021M8.25486 0.997459L5.8998 7.11776L4.94714 1.91393C4.83536 1.33301 4.39392 0.997572 3.9037 0.997572H0.0539219L0 1.25868C0.790344 1.435 1.68831 1.71939 2.23234 2.02368C2.56528 2.20956 2.66022 2.37205 2.76959 2.81375L4.57395 9.98939H6.965L10.6308 0.997572L8.25486 0.997459Z" fill="url(#paint0_linear_601_23643)"/>
</g>
<defs>
<linearGradient id="paint0_linear_601_23643" x1="1287.27" y1="28.7772" x2="1314.94" y2="-925.892" gradientUnits="userSpaceOnUse">
<stop stop-color="#222357"/>
<stop offset="1" stop-color="#254AA5"/>
</linearGradient>
<clipPath id="clip0_601_23643">
<rect width="28" height="9.33333" fill="white" transform="translate(0 0.833374)"/>
</clipPath>
</defs>
</svg>
