<svg xmlns="http://www.w3.org/2000/svg" xmlns:xlink="http://www.w3.org/1999/xlink" width="120" height="92" viewBox="0 0 120 92">
  <defs>
    <clipPath id="clip-path">
      <rect id="Rectangle_31" data-name="Rectangle 31" width="120" height="92" fill="#fff"/>
    </clipPath>
    <clipPath id="clip-path-2">
      <rect id="Rectangle_23" data-name="Rectangle 23" width="18" height="19" transform="translate(-0.429 -0.462)" fill="#fff"/>
    </clipPath>
  </defs>
  <g id="Mask_Group_10" data-name="Mask Group 10" clip-path="url(#clip-path)">
    <g id="Group_427318760" data-name="Group 427318760">
      <g id="Group_20" data-name="Group 20">
        <path id="Path_187" data-name="Path 187" d="M3.318,0H116.682A3.322,3.322,0,0,1,120,3.318V88.479a3.322,3.322,0,0,1-3.318,3.318H3.318A3.322,3.322,0,0,1,0,88.479V3.318A3.322,3.322,0,0,1,3.318,0Zm114.47,19.355V3.318a1.107,1.107,0,0,0-1.106-1.106H3.318A1.107,1.107,0,0,0,2.212,3.318V19.544a3.3,3.3,0,0,1,1.106-.19Zm0,2.212H3.318a1.107,1.107,0,0,0-1.106,1.106V88.479a1.107,1.107,0,0,0,1.106,1.106H116.682a1.107,1.107,0,0,0,1.106-1.106ZM13.548,8.295a3.041,3.041,0,1,1-3.041,3.041A3.045,3.045,0,0,1,13.548,8.295Zm0,3.871a.829.829,0,1,0-.829-.829A.83.83,0,0,0,13.548,12.166ZM21.29,8.295a3.041,3.041,0,1,1-3.041,3.041A3.045,3.045,0,0,1,21.29,8.295Zm0,3.871a.829.829,0,1,0-.829-.829A.83.83,0,0,0,21.29,12.166Z" fill="#242947"/>
        <rect id="Rectangle_21" data-name="Rectangle 21" width="99" height="25" rx="11.5" transform="translate(10 53.765)" fill="#f8fafb"/>
        <path id="Path_188" data-name="Path 188" d="M54,60.511A9.51,9.51,0,0,1,63.511,51H89.975a9.511,9.511,0,1,1,0,19.021H63.511A9.511,9.511,0,0,1,54,60.511Z" transform="translate(5.724 5.406)" fill="#e3edff"/>
        <path id="Path_189" data-name="Path 189" d="M67.568,62.594V56.4h3.937v.761h-3V59.09H71.24v.743H68.506v2h3v.761Z" transform="translate(7.162 5.978)" fill="#242947"/>
        <path id="Path_190" data-name="Path 190" d="M73.626,62.594V57.161H71.794V56.4h4.592v.761H74.564v5.433Z" transform="translate(7.61 5.978)" fill="#242947"/>
        <path id="Path_191" data-name="Path 191" d="M76.74,62.594V56.4h3.884v.761H77.678v1.955H80.12v.752H77.678v2.725Z" transform="translate(8.134 5.978)" fill="#242947"/>
        <path id="Path_192" data-name="Path 192" d="M82.67,62.537A2.214,2.214,0,0,1,81.3,62.13a1.524,1.524,0,0,1-.619-1.079h.947a.957.957,0,0,0,.336.522,1.086,1.086,0,0,0,.7.212.9.9,0,0,0,.619-.177.537.537,0,0,0,.195-.407.442.442,0,0,0-.274-.451,3.457,3.457,0,0,0-.743-.221,5.861,5.861,0,0,1-.743-.212,1.714,1.714,0,0,1-.611-.372.915.915,0,0,1-.239-.664,1.208,1.208,0,0,1,.442-.956,1.814,1.814,0,0,1,1.239-.389,1.867,1.867,0,0,1,1.186.354,1.421,1.421,0,0,1,.54,1h-.9a.645.645,0,0,0-.265-.442.937.937,0,0,0-.575-.159.88.88,0,0,0-.549.15.439.439,0,0,0-.195.372.4.4,0,0,0,.265.363,3.614,3.614,0,0,0,.717.239,6.716,6.716,0,0,1,.814.23,1.409,1.409,0,0,1,.611.372,1.03,1.03,0,0,1,.23.726,1.223,1.223,0,0,1-.469,1A1.919,1.919,0,0,1,82.67,62.537Z" transform="translate(8.551 6.141)" fill="#242947"/>
        <path id="Path_193" data-name="Path 193" d="M23.636,62.71a2.8,2.8,0,0,1-1.194-.239,1.9,1.9,0,0,1-.805-.681,1.965,1.965,0,0,1-.292-1.053h.991a1.191,1.191,0,0,0,.345.841,1.487,1.487,0,0,0,1.787.088.847.847,0,0,0,.31-.672.871.871,0,0,0-.15-.531,1.072,1.072,0,0,0-.4-.336,3.519,3.519,0,0,0-.575-.239q-.327-.106-.69-.23a2.606,2.606,0,0,1-1.079-.619,1.409,1.409,0,0,1-.354-1,1.609,1.609,0,0,1,.239-.911,1.686,1.686,0,0,1,.708-.6,2.445,2.445,0,0,1,1.071-.221,2.366,2.366,0,0,1,1.053.221,1.713,1.713,0,0,1,.717.619,1.671,1.671,0,0,1,.265.911h-.991a.881.881,0,0,0-.124-.451.973.973,0,0,0-.363-.363,1.127,1.127,0,0,0-.584-.142,1.112,1.112,0,0,0-.734.221.776.776,0,0,0-.283.637.718.718,0,0,0,.212.557,1.705,1.705,0,0,0,.584.327q.372.124.849.292a4.226,4.226,0,0,1,.823.363,1.628,1.628,0,0,1,.575.557,1.6,1.6,0,0,1,.221.876,1.7,1.7,0,0,1-.239.876,1.8,1.8,0,0,1-.717.655A2.536,2.536,0,0,1,23.636,62.71Z" transform="translate(2.262 5.968)" fill="#242947"/>
        <path id="Path_194" data-name="Path 194" d="M28.11,62.527a1.578,1.578,0,0,1-1.026-.31,1.4,1.4,0,0,1-.38-1.124V58.926h-.752v-.787H26.7l.115-1.115h.823v1.115H28.88v.787H27.641v2.168a.678.678,0,0,0,.15.5.851.851,0,0,0,.54.133h.5v.8Z" transform="translate(2.751 6.044)" fill="#242947"/>
        <path id="Path_195" data-name="Path 195" d="M31.44,62.537a2.273,2.273,0,0,1-1.133-.283,2.151,2.151,0,0,1-.787-.805,2.442,2.442,0,0,1-.292-1.212,2.392,2.392,0,0,1,.292-1.2,2.112,2.112,0,0,1,.805-.805,2.2,2.2,0,0,1,1.124-.292,2.171,2.171,0,0,1,1.124.292,2.05,2.05,0,0,1,.8.805,2.335,2.335,0,0,1,.3,1.2,2.384,2.384,0,0,1-.3,1.212,2.13,2.13,0,0,1-.8.805A2.273,2.273,0,0,1,31.44,62.537Zm0-.805a1.191,1.191,0,0,0,.619-.168,1.228,1.228,0,0,0,.469-.5,1.77,1.77,0,0,0,.177-.832,1.716,1.716,0,0,0-.177-.823,1.162,1.162,0,0,0-.46-.5,1.191,1.191,0,0,0-.619-.168,1.186,1.186,0,0,0-1.088.672,1.717,1.717,0,0,0-.177.823,1.771,1.771,0,0,0,.177.832,1.251,1.251,0,0,0,.46.5A1.192,1.192,0,0,0,31.44,61.732Z" transform="translate(3.098 6.141)" fill="#242947"/>
        <path id="Path_196" data-name="Path 196" d="M36.256,62.537a2.3,2.3,0,0,1-1.159-.292,2.13,2.13,0,0,1-.8-.805,2.484,2.484,0,0,1-.283-1.2,2.432,2.432,0,0,1,.283-1.194,2.112,2.112,0,0,1,.8-.814,2.3,2.3,0,0,1,1.159-.292,2.159,2.159,0,0,1,1.363.425,1.909,1.909,0,0,1,.717,1.15h-.982a.923.923,0,0,0-.389-.566,1.233,1.233,0,0,0-.708-.2,1.241,1.241,0,0,0-1.106.681,1.7,1.7,0,0,0-.177.814,1.749,1.749,0,0,0,.177.823,1.294,1.294,0,0,0,.469.5,1.206,1.206,0,0,0,.637.177,1.233,1.233,0,0,0,.708-.2.927.927,0,0,0,.389-.575h.982a1.9,1.9,0,0,1-.708,1.141A2.166,2.166,0,0,1,36.256,62.537Z" transform="translate(3.605 6.141)" fill="#242947"/>
        <path id="Path_197" data-name="Path 197" d="M38.841,62.611V56.24h.938v3.8l1.681-1.814h1.124l-1.867,1.991,2.141,2.4H41.672l-1.893-2.247v2.247Z" transform="translate(4.117 5.961)" fill="#242947"/>
        <path id="Path_198" data-name="Path 198" d="M44.694,62.537a2.215,2.215,0,0,1-1.371-.407A1.524,1.524,0,0,1,42.7,61.05h.947a.958.958,0,0,0,.336.522,1.086,1.086,0,0,0,.7.212.9.9,0,0,0,.619-.177A.537.537,0,0,0,45.5,61.2a.442.442,0,0,0-.274-.451,3.451,3.451,0,0,0-.743-.221,5.861,5.861,0,0,1-.743-.212,1.714,1.714,0,0,1-.611-.372.915.915,0,0,1-.239-.664,1.207,1.207,0,0,1,.442-.956,1.813,1.813,0,0,1,1.239-.389,1.867,1.867,0,0,1,1.186.354,1.421,1.421,0,0,1,.54,1h-.9a.645.645,0,0,0-.265-.442.937.937,0,0,0-.575-.159.879.879,0,0,0-.549.15.439.439,0,0,0-.195.372.4.4,0,0,0,.265.363,3.614,3.614,0,0,0,.717.239,6.716,6.716,0,0,1,.814.23,1.409,1.409,0,0,1,.611.372,1.03,1.03,0,0,1,.23.726,1.223,1.223,0,0,1-.469,1A1.919,1.919,0,0,1,44.694,62.537Z" transform="translate(4.526 6.141)" fill="#242947"/>
        <path id="Rectangle_22" data-name="Rectangle 22" d="M12.825-1h74.1a13.825,13.825,0,0,1,13.825,13.825A13.825,13.825,0,0,1,86.926,26.65h-74.1a13.825,13.825,0,0,1-9.776-23.6A13.734,13.734,0,0,1,12.825-1Zm74.1,25.438a11.613,11.613,0,0,0,0-23.226h-74.1a11.613,11.613,0,1,0,0,23.226Z" transform="translate(9.848 52.982)" fill="#242947"/>
        <g id="Group_15" data-name="Group 15" transform="translate(51.429 27.227)" clip-path="url(#clip-path-2)">
          <path id="Path_199" data-name="Path 199" d="M54.81,25.333a2.629,2.629,0,0,1,2.268,1.682l1.3,2.614h0a.617.617,0,0,0,.245.181l2.345.393a2.39,2.39,0,0,1,1.374,4.31l-1.822,1.837a.619.619,0,0,0-.092.333l.521,2.272a2.931,2.931,0,0,1-.369,2.6,1.984,1.984,0,0,1-1.589.738,3.588,3.588,0,0,1-1.809-.576l-2.2-1.314a.475.475,0,0,0-.165-.025.48.48,0,0,0-.175.028l-2.195,1.31a3.564,3.564,0,0,1-1.8.575,1.989,1.989,0,0,1-1.594-.741,2.924,2.924,0,0,1-.37-2.593l.522-2.275a.62.62,0,0,0-.092-.33l-1.825-1.84A2.391,2.391,0,0,1,48.656,30.2L51,29.812a.628.628,0,0,0,.243-.182h0l1.3-2.617A2.641,2.641,0,0,1,54.81,25.333Zm1.582,5.276L55.1,28a1.375,1.375,0,0,0-.286-.418,1.374,1.374,0,0,0-.291.42l-1.295,2.611a2.718,2.718,0,0,1-1.845,1.382l-2.356.395a1.159,1.159,0,0,0-.466.158,1.231,1.231,0,0,0,.294.411L50.679,34.8a2.736,2.736,0,0,1,.678,2.364l0,.007-.523,2.282a2.111,2.111,0,0,0-.065.608,2.033,2.033,0,0,0,.543-.243L53.514,38.5l.007,0a2.589,2.589,0,0,1,1.292-.33,2.556,2.556,0,0,1,1.294.335l2.2,1.316a2.081,2.081,0,0,0,.544.244,2.163,2.163,0,0,0-.066-.609l-.523-2.281,0-.007a2.736,2.736,0,0,1,.678-2.364l1.829-1.844a1.244,1.244,0,0,0,.3-.41,1.219,1.219,0,0,0-.469-.158l-2.351-.394A2.719,2.719,0,0,1,56.391,30.609Z" transform="translate(-46.518 -24.542)" fill="#242947"/>
        </g>
      </g>
    </g>
  </g>
</svg>
