<svg xmlns="http://www.w3.org/2000/svg" width="21.44" height="20.004" viewBox="0 0 21.44 20.004">
  <path id="watchlist" d="M10.982.25a2.735,2.735,0,0,1,2.4,1.733l1.756,3.3v0a1.434,1.434,0,0,0,.871.6l3.184.5a2.8,2.8,0,0,1,2.426,1.618c.172.49.265,1.484-.973,2.641l-2.474,2.321a1.3,1.3,0,0,0-.32,1.054l.708,2.876a2.866,2.866,0,0,1-.355,2.686,2.012,2.012,0,0,1-1.566.668,4.344,4.344,0,0,1-2.067-.629l-2.985-1.66a1.311,1.311,0,0,0-.6-.126,1.359,1.359,0,0,0-.611.128L7.394,19.625a4.309,4.309,0,0,1-2.061.627,2.02,2.02,0,0,1-1.573-.671A2.86,2.86,0,0,1,3.4,16.9l.708-2.881a1.3,1.3,0,0,0-.32-1.052L1.319,10.644A2.53,2.53,0,0,1,.354,8c.172-.487.707-1.344,2.42-1.613l3.184-.5a1.454,1.454,0,0,0,.859-.6v0l1.758-3.3A2.9,2.9,0,0,1,10.982.25ZM13.795,5.9,12.039,2.6c-.317-.6-.712-.956-1.057-.956s-.745.358-1.065.96L8.161,5.9a2.907,2.907,0,0,1-1.952,1.36l-3.187.5c-.671.1-1.136.354-1.243.664s.117.775.6,1.232l2.475,2.326a2.622,2.622,0,0,1,.719,2.341v0L4.865,17.21c-.252,1.022-.011,1.406.069,1.5a.466.466,0,0,0,.4.146,2.9,2.9,0,0,0,1.288-.43l2.985-1.661h.005a2.908,2.908,0,0,1,1.374-.32,2.86,2.86,0,0,1,1.369.32l2.984,1.66a2.932,2.932,0,0,0,1.3.432.464.464,0,0,0,.395-.142c.079-.093.319-.475.066-1.505l-.708-2.881v0a2.622,2.622,0,0,1,.719-2.341l2.475-2.326c.489-.456.716-.915.608-1.229s-.574-.56-1.248-.667L15.76,7.267A2.908,2.908,0,0,1,13.795,5.9Z" transform="translate(-0.279 -0.25)" fill="#2a353d"/>
</svg>
