<svg xmlns="http://www.w3.org/2000/svg" width="133.662" height="48.657" viewBox="0 0 133.662 48.657">
  <g id="Logo_1_" data-name="Logo (1)" transform="translate(-0.178 -0.826)">
    <path id="Path_42" data-name="Path 42" d="M8.683,116.3q-4.348,0-6.436-2.068Q.178,112.148.178,107.8V99.038q0-4.382,2.088-6.432,2.088-2.068,6.417-2.03h4.556q4.366,0,6.436,2.068t2.069,6.432V107.8q0,4.345-2.069,6.432-2.069,2.068-6.436,2.068Zm0-3.188h4.556a8.643,8.643,0,0,0,3.189-.474,2.947,2.947,0,0,0,1.633-1.651,8.327,8.327,0,0,0,.494-3.187V99.076a8.263,8.263,0,0,0-.494-3.168,2.947,2.947,0,0,0-1.633-1.651,8.341,8.341,0,0,0-3.189-.493H8.683a8.363,8.363,0,0,0-3.17.455,2.947,2.947,0,0,0-1.652,1.632,8.327,8.327,0,0,0-.494,3.187V107.8a8.628,8.628,0,0,0,.475,3.187,3.019,3.019,0,0,0,1.652,1.651A8.643,8.643,0,0,0,8.683,113.116Z" transform="translate(0 -67.184)" fill="#fff"/>
    <path id="Path_43" data-name="Path 43" d="M109.754,116.217q-.987,0-1.557-1.252l-9.379-22.2a1.819,1.819,0,0,1-.152-1.176,1.7,1.7,0,0,1,3.076-.076l8.866,20.984h-1.1l8.638-20.984a1.409,1.409,0,0,1,2.2-.8,1.47,1.47,0,0,1,.816.873,1.689,1.689,0,0,1-.1,1.176l-9.454,22.2a1.852,1.852,0,0,1-1.709,1.252Z" transform="translate(-73.695 -67.098)" fill="#fff"/>
    <path id="Path_44" data-name="Path 44" d="M208.467,116.418a1.409,1.409,0,0,1-1.595-1.594V93.917h-7.366a1.6,1.6,0,1,1,0-3.188h17.922a1.6,1.6,0,1,1,0,3.188h-7.366v20.908a1.59,1.59,0,0,1-.418,1.176A1.554,1.554,0,0,1,208.467,116.418Z" transform="translate(-148.018 -67.299)" fill="#fff"/>
    <path id="Path_45" data-name="Path 45" d="M303.595,116.305A1.409,1.409,0,0,1,302,114.712V92.172a1.595,1.595,0,0,1,3.19,0v20.946h10.517a1.594,1.594,0,1,1,0,3.188Z" transform="translate(-225.936 -67.186)" fill="#fff"/>
    <path id="Path_46" data-name="Path 46" d="M367.094,116.25a1.409,1.409,0,0,1-1.595-1.594v-7.741l-8.7-13.85a1.493,1.493,0,0,1,.494-2.239,1.422,1.422,0,0,1,2.2.493l7.594,12.18,7.974-12.18a1.511,1.511,0,0,1,.968-.74,1.448,1.448,0,0,1,1.2.323,1.35,1.35,0,0,1,.494,2.163l-9.037,13.85v7.741A1.409,1.409,0,0,1,367.094,116.25Z" transform="translate(-266.733 -67.131)" fill="#fff"/>
    <path id="Path_47" data-name="Path 47" d="M478.125,116.381a1.473,1.473,0,0,1-1.2.247,1.67,1.67,0,0,1-.968-.778l-5.885-9.79H464.76v8.652a1.595,1.595,0,0,1-3.19,0V92.172a1.409,1.409,0,0,1,1.595-1.594h8.885a6.489,6.489,0,0,1,7.176,7.172v1.138a7.63,7.63,0,0,1-1.4,4.819,6.22,6.22,0,0,1-4.063,2.22l4.974,8.291A1.461,1.461,0,0,1,478.125,116.381ZM464.76,102.873h7.29a3.361,3.361,0,0,0,3.987-3.984V97.75a3.377,3.377,0,0,0-3.987-3.984h-7.29Z" transform="translate(-345.386 -67.186)" fill="#fff"/>
    <path id="Path_48" data-name="Path 48" d="M154.245,20.247a1.483,1.483,0,0,1-1.372-.919A25.083,25.083,0,0,0,139.348,5.705a24.867,24.867,0,0,0-27.225,5.455,25.065,25.065,0,0,0-5.419,8.168,1.482,1.482,0,1,1-2.742-1.128A28.047,28.047,0,0,1,119.088,2.969a27.832,27.832,0,0,1,30.47,6.1,28.012,28.012,0,0,1,6.057,9.129,1.483,1.483,0,0,1-1.37,2.047Z" transform="translate(-77.607)" fill="#4285f4"/>
  </g>
</svg>
