<svg xmlns="http://www.w3.org/2000/svg" width="37.063" height="58.703" viewBox="0 0 37.063 58.703">
  <g id="Group_20446" data-name="Group 20446" transform="translate(-0.52 -0.521)">
    <path id="Path_40" data-name="Path 40" d="M22.942,108.277q-5.783,0-8.561-2.737-2.753-2.763-2.753-8.513v-11.6q0-5.8,2.778-8.513,2.778-2.737,8.536-2.687H29q5.808,0,8.561,2.737t2.753,8.513V97.026q0,5.751-2.753,8.513-2.753,2.737-8.561,2.737Zm0-4.219H29a11.546,11.546,0,0,0,4.243-.628,3.911,3.911,0,0,0,2.172-2.185,10.974,10.974,0,0,0,.657-4.219V85.474a10.89,10.89,0,0,0-.657-4.194,3.911,3.911,0,0,0-2.169-2.18A11.146,11.146,0,0,0,29,78.443H22.942a11.181,11.181,0,0,0-4.217.6,3.912,3.912,0,0,0-2.2,2.16,10.972,10.972,0,0,0-.657,4.219v11.6a11.371,11.371,0,0,0,.631,4.219,4.006,4.006,0,0,0,2.2,2.185A11.546,11.546,0,0,0,22.942,104.058Z" transform="translate(-7.394 -49.052)" fill="#fff"/>
    <path id="Path_41" data-name="Path 41" d="M35.612,14.924A1.972,1.972,0,0,1,33.8,13.743a14.866,14.866,0,0,0-3.434-4.855,15.975,15.975,0,0,0-5.179-3.269,16.914,16.914,0,0,0-12.281,0A15.975,15.975,0,0,0,7.732,8.888,14.868,14.868,0,0,0,4.3,13.743,1.973,1.973,0,1,1,.686,12.16,18.791,18.791,0,0,1,5.023,6.022a19.9,19.9,0,0,1,6.451-4.076,20.858,20.858,0,0,1,15.156,0,19.9,19.9,0,0,1,6.45,4.076,18.788,18.788,0,0,1,4.337,6.138,1.973,1.973,0,0,1-1.8,2.764Z" fill="#4285f4"/>
  </g>
</svg>
