<?xml version="1.0" encoding="utf-8"?>
<!-- Generator: Adobe Illustrator 27.0.0, SVG Export Plug-In . SVG Version: 6.00 Build 0)  -->
<svg version="1.1" id="Layer_1" xmlns="http://www.w3.org/2000/svg" xmlns:xlink="http://www.w3.org/1999/xlink" x="0px" y="0px"
	 viewBox="0 0 399.8 41.5" style="enable-background:new 0 0 399.8 41.5;" xml:space="preserve">
<style type="text/css">
	.st0{fill:none;}
	.st1{fill:#FFFFFF;}
	.st2{fill:#FFC000;}
</style>
<g>
	<g>
		<path class="st0" d="M395,41.2H4.7c-2.6,0-4.6-2.1-4.6-4.6v-32C0.1,2,2.2,0,4.7,0H395c2.6,0,4.6,2.1,4.6,4.6v32
			C399.6,39.1,397.6,41.2,395,41.2z"/>
	</g>
	<g>
		<g>
			<path class="st1" d="M388.4,19.8l-1.3-2.3c-0.1-0.1-0.1-0.3-0.1-0.4v-2.7c0-0.3-0.2-0.6-0.4-0.7l-2.3-1.3
				c-0.1-0.1-0.2-0.2-0.3-0.3l-1.3-2.3c-0.1-0.3-0.4-0.4-0.7-0.4h-2.8c-0.1,0-0.3,0-0.4-0.1L376.5,8c-0.3-0.2-0.6-0.2-0.8,0
				l-2.3,1.3c-0.1,0.1-0.3,0.1-0.4,0.1h-2.8c-0.3,0-0.6,0.2-0.7,0.4l-1.3,2.3c-0.1,0.1-0.2,0.2-0.3,0.3l-2.3,1.3
				c-0.3,0.1-0.4,0.4-0.4,0.7v2.7c0,0.1,0,0.3-0.1,0.4l-1.3,2.3c-0.2,0.3-0.2,0.6,0,0.8l1.3,2.3c0.1,0.1,0.1,0.3,0.1,0.4V26
				c0,0.3,0.2,0.6,0.4,0.7l2.3,1.3c0.1,0.1,0.2,0.2,0.3,0.3l1.3,2.3c0.1,0.3,0.4,0.4,0.7,0.4h2.7c0.1,0,0.3,0,0.4,0.1l2.3,1.3
				c0.3,0.2,0.6,0.2,0.8,0l2.3-1.3c0.1-0.1,0.3-0.1,0.4-0.1h2.7c0.3,0,0.6-0.2,0.7-0.4l1.3-2.3c0.1-0.1,0.2-0.2,0.3-0.3l2.3-1.3
				c0.3-0.1,0.4-0.4,0.4-0.7v-2.7c0-0.1,0-0.3,0.1-0.4l1.3-2.3C388.5,20.4,388.5,20.1,388.4,19.8z M369.9,16c0-1.5,1.2-2.7,2.7-2.7
				s2.7,1.2,2.7,2.7s-1.2,2.7-2.7,2.7l0,0C371.1,18.7,369.9,17.5,369.9,16z M372.2,25.5c-0.2,0.2-0.5,0.3-0.8,0.1
				c-0.2-0.2-0.3-0.5-0.1-0.8l8.4-9.8c0.2-0.2,0.5-0.3,0.8-0.1c0.2,0.2,0.3,0.5,0.1,0.8L372.2,25.5z M379.5,27.1
				c-1.5,0-2.7-1.2-2.7-2.7s1.2-2.7,2.7-2.7s2.7,1.2,2.7,2.7S381,27.1,379.5,27.1z"/>
		</g>
		<g id="noun-lightning-1187991" transform="translate(334 879)">
			<path id="Path_51" class="st2" d="M-302.1-862.1h-8.2l3.2-12.4l-15.8,19.1h8.2l-3.2,12.4L-302.1-862.1z"/>
		</g>
		<g id="Group_1155" transform="translate(-1.5)">
			<path id="Path_25953" class="st1" d="M41.6,27.7l6.2-16.8h2.8l6.1,16.8H54l-1.4-4.1h-6.9l-1.4,4.1H41.6z M46.4,21.5h5.4l-2.7-7.7
				L46.4,21.5z M59,32.9V15.8h2.2l0.3,1.8c0.4-0.6,1-1.1,1.6-1.5c0.8-0.5,1.7-0.7,2.6-0.6c1.1,0,2.1,0.3,3,0.8
				c0.9,0.5,1.6,1.3,2.1,2.2c0.5,1,0.8,2.1,0.8,3.2s-0.2,2.2-0.8,3.2c-0.5,0.9-1.2,1.7-2.1,2.2s-2,0.8-3.1,0.8
				c-0.9,0-1.7-0.2-2.5-0.6c-0.7-0.4-1.3-0.9-1.7-1.6v7.1L59,32.9z M65.2,25.7c1,0,2-0.4,2.7-1.1c0.7-0.8,1.1-1.8,1.1-2.9
				c0-0.7-0.2-1.4-0.5-2.1c-0.3-0.6-0.8-1.1-1.3-1.4c-0.6-0.4-1.3-0.5-2-0.5c-1,0-2,0.4-2.7,1.1c-0.7,0.8-1.1,1.8-1,2.9
				c0,1.1,0.3,2.1,1,2.9C63.2,25.4,64.2,25.8,65.2,25.7z M74.3,32.9V15.8h2.3l0.3,1.8c0.4-0.6,1-1.1,1.6-1.5
				c0.8-0.5,1.7-0.7,2.6-0.6c1.1,0,2.1,0.3,3,0.8c0.9,0.5,1.6,1.3,2.1,2.2c0.5,1,0.8,2.1,0.8,3.2s-0.2,2.2-0.8,3.2
				c-0.5,0.9-1.2,1.7-2.1,2.2s-2,0.8-3.1,0.8c-0.9,0-1.7-0.2-2.5-0.5c-0.7-0.4-1.3-0.9-1.7-1.6v7.1H74.3z M80.6,25.7
				c1,0,2-0.4,2.7-1.1c0.7-0.8,1.1-1.8,1.1-2.9c0-0.7-0.2-1.4-0.5-2.1c-0.3-0.6-0.8-1.1-1.3-1.4c-0.6-0.4-1.3-0.5-1.9-0.5
				c-1,0-2,0.4-2.7,1.1c-0.7,0.8-1.1,1.8-1,2.9c0,1.1,0.3,2.1,1,2.9C78.6,25.4,79.6,25.8,80.6,25.7L80.6,25.7z M89.7,27.7V10.4h2.5
				v17.3H89.7z M96.8,32.9l2.9-6.3H99l-4.7-10.9h2.8l3.6,8.8l3.8-8.8h2.7l-7.7,17.2C99.5,32.9,96.8,32.9,96.8,32.9z M115.4,27.7
				V10.9h2.5v14.8h7.6v2H115.4z M129.7,13.5c-0.4,0-0.9-0.1-1.2-0.4c-0.3-0.3-0.5-0.7-0.5-1.1c0-0.4,0.2-0.8,0.5-1.1
				s0.7-0.5,1.2-0.4c0.4,0,0.9,0.1,1.2,0.4c0.3,0.3,0.5,0.7,0.5,1.1c0,0.4-0.2,0.8-0.5,1.1C130.6,13.4,130.1,13.5,129.7,13.5z
				 M128.4,27.7V15.8h2.5v11.9H128.4z M134.3,27.7V15.8h2.3l0.2,1.7c0.4-0.6,0.9-1.1,1.5-1.4c0.7-0.4,1.4-0.5,2.2-0.5
				c1.6-0.1,3.2,0.7,3.9,2.2c0.4-0.7,1-1.2,1.7-1.6c0.7-0.4,1.5-0.6,2.4-0.6c1.3-0.1,2.6,0.4,3.5,1.3c0.9,1.1,1.4,2.6,1.3,4v6.8
				h-2.5v-6.6c0-2.3-0.9-3.5-2.6-3.5c-0.8,0-1.7,0.3-2.2,1c-0.6,0.8-0.9,1.8-0.9,2.9v6.2h-2.5v-6.6c0-2.3-0.9-3.5-2.7-3.5
				c-0.8,0-1.6,0.4-2.2,1c-0.6,0.8-0.9,1.8-0.9,2.9v6.2H134.3z M157.7,13.5c-0.4,0-0.9-0.1-1.2-0.4c-0.3-0.3-0.5-0.7-0.5-1.1
				c0-0.4,0.2-0.8,0.5-1.1s0.7-0.5,1.2-0.4c0.4,0,0.9,0.1,1.2,0.4c0.3,0.3,0.5,0.7,0.5,1.1c0,0.4-0.2,0.8-0.5,1.1
				C158.6,13.4,158.2,13.5,157.7,13.5L157.7,13.5z M156.5,27.7V15.8h2.5v11.9H156.5z M167.4,27.7c-1,0.1-2-0.2-2.8-0.9
				c-0.8-0.8-1.2-1.9-1-3v-5.9h-2v-2.1h2l0.3-3h2.2v3h3.4v2.1h-3.4v5.9c-0.1,0.5,0.1,1,0.4,1.4c0.4,0.3,0.9,0.4,1.5,0.4h1.4v2.1
				H167.4z M177.3,28c-1.1,0-2.2-0.2-3.1-0.8c-0.9-0.5-1.6-1.3-2.1-2.2c-0.5-1-0.8-2.1-0.8-3.2s0.2-2.3,0.8-3.3
				c0.5-0.9,1.2-1.7,2.1-2.2c1-0.5,2.1-0.8,3.2-0.8c1.1,0,2.1,0.2,3,0.8c0.8,0.5,1.5,1.2,2,2.1s0.7,1.9,0.7,2.9c0,0.2,0,0.3,0,0.5
				s0,0.4,0,0.6h-9.3c0,1,0.4,1.9,1.1,2.6c0.6,0.6,1.5,0.9,2.4,0.9c0.6,0,1.3-0.1,1.8-0.5c0.5-0.3,0.9-0.8,1.1-1.3h2.5
				c-0.3,1.1-1,2.1-1.9,2.8C179.9,27.6,178.6,28,177.3,28L177.3,28z M177.3,17.6c-0.8,0-1.6,0.3-2.3,0.8c-0.7,0.6-1.1,1.4-1.2,2.3
				h6.7c0-0.8-0.4-1.6-1-2.2C179,17.8,178.2,17.5,177.3,17.6L177.3,17.6z M191.2,28c-1.1,0-2.1-0.3-3-0.8s-1.6-1.3-2.1-2.2
				c-0.5-1-0.8-2.1-0.7-3.2c0-1.1,0.2-2.2,0.7-3.2c0.5-0.9,1.2-1.7,2.1-2.2c0.9-0.5,2-0.8,3.1-0.8c0.9,0,1.7,0.2,2.5,0.6
				c0.7,0.4,1.3,0.9,1.7,1.6v-7.2h2.5v17.1h-2.3l-0.3-1.8c-0.4,0.6-1,1.1-1.6,1.5C193,27.8,192.1,28,191.2,28z M191.7,25.7
				c1,0,2-0.4,2.7-1.1c0.7-0.8,1.1-1.8,1-2.9c0-1.1-0.3-2.1-1-2.9c-0.7-0.7-1.7-1.2-2.7-1.1c-1,0-2,0.4-2.7,1.1
				c-0.7,0.8-1.1,1.8-1.1,2.9c0,0.7,0.2,1.4,0.5,2.1c0.3,0.6,0.8,1.1,1.3,1.4C190.3,25.6,191,25.8,191.7,25.7z M211.2,27.7V12.9h-5
				v-2.1h12.5v2.1h-4.9v14.8H211.2z M222.4,13.5c-0.4,0-0.9-0.1-1.2-0.4c-0.3-0.3-0.5-0.7-0.5-1.1c0-0.4,0.2-0.8,0.5-1.1
				s0.7-0.5,1.2-0.4c0.4,0,0.9,0.1,1.2,0.4c0.3,0.3,0.5,0.7,0.5,1.1c0,0.4-0.2,0.8-0.5,1.1C223.3,13.4,222.9,13.5,222.4,13.5
				L222.4,13.5z M221.2,27.7V15.8h2.5v11.9H221.2z M227.1,27.7V15.8h2.3l0.2,1.7c0.4-0.6,0.9-1.1,1.5-1.4c0.7-0.4,1.4-0.5,2.2-0.5
				c1.6-0.1,3.2,0.7,3.9,2.2c0.4-0.7,1-1.2,1.7-1.6c0.7-0.4,1.5-0.6,2.4-0.6c1.3-0.1,2.6,0.4,3.5,1.3c0.9,1.1,1.4,2.6,1.3,4v6.8
				h-2.5v-6.6c0-2.3-0.9-3.5-2.6-3.5c-0.8,0-1.7,0.3-2.2,1c-0.6,0.8-0.9,1.8-0.9,2.9v6.2h-2.5v-6.6c0-2.3-0.9-3.5-2.7-3.5
				c-0.8,0-1.6,0.4-2.2,1c-0.6,0.8-0.9,1.8-0.9,2.9v6.2H227.1z M254.6,28c-1.1,0-2.2-0.2-3.1-0.8c-0.9-0.5-1.6-1.3-2.1-2.2
				c-0.5-1-0.8-2.1-0.8-3.2s0.2-2.3,0.8-3.3c0.5-0.9,1.2-1.7,2.1-2.2c1-0.5,2.1-0.8,3.2-0.8s2.1,0.2,3,0.8c0.8,0.5,1.5,1.2,2,2.1
				s0.7,1.9,0.7,2.9c0,0.2,0,0.3,0,0.5s0,0.4,0,0.6h-9.3c0,1,0.4,1.9,1.1,2.6c0.6,0.6,1.5,0.9,2.4,0.9c0.6,0,1.3-0.1,1.8-0.5
				c0.5-0.3,0.9-0.8,1.1-1.3h2.6c-0.3,1.1-1,2.1-1.9,2.8C257.1,27.6,255.9,28,254.6,28L254.6,28z M254.6,17.6
				c-0.8,0-1.6,0.3-2.3,0.8c-0.7,0.6-1.1,1.4-1.2,2.3h6.7c0-0.8-0.4-1.6-1-2.2C256.3,17.8,255.4,17.5,254.6,17.6L254.6,17.6z
				 M276.7,28c-1.5,0-3-0.3-4.3-1.1c-1.2-0.7-2.2-1.8-2.8-3c-0.7-1.4-1-3-1-4.5c0-1.6,0.3-3.1,1-4.5c0.6-1.3,1.6-2.3,2.8-3.1
				c1.3-0.8,2.8-1.1,4.3-1.1c1.7-0.1,3.4,0.4,4.8,1.4c1.3,1,2.1,2.4,2.4,4h-2.8c-0.2-0.9-0.7-1.7-1.4-2.3c-0.9-0.6-1.9-0.9-3-0.9
				c-1.5-0.1-3,0.6-4,1.7c-1,1.3-1.6,3-1.5,4.7c-0.1,1.7,0.4,3.3,1.5,4.7c1,1.1,2.5,1.8,4,1.7c1,0.1,2.1-0.2,3-0.8
				c0.7-0.5,1.2-1.3,1.4-2.2h2.8c-0.3,1.6-1.1,3-2.4,3.9C280.1,27.5,278.4,28,276.7,28z M292.2,28c-1.1,0-2.1-0.3-3.1-0.8
				c-0.9-0.5-1.6-1.3-2.1-2.2c-0.5-1-0.8-2.1-0.8-3.3c0-1.1,0.2-2.3,0.8-3.3c0.5-0.9,1.3-1.7,2.2-2.2c0.9-0.5,2-0.8,3-0.8
				c1.1,0,2.1,0.3,3.1,0.8c0.9,0.5,1.7,1.3,2.2,2.2c0.6,1,0.8,2.1,0.8,3.3c0,1.1-0.2,2.3-0.8,3.3c-0.5,0.9-1.3,1.7-2.2,2.2
				C294.3,27.7,293.2,28,292.2,28z M292.2,25.8c0.6,0,1.2-0.2,1.7-0.5s1-0.8,1.3-1.4c0.3-0.7,0.5-1.5,0.5-2.2c0-0.8-0.1-1.5-0.5-2.2
				c-0.3-0.6-0.7-1-1.2-1.4c-0.5-0.3-1.1-0.5-1.7-0.5s-1.2,0.2-1.7,0.5s-1,0.8-1.3,1.4c-0.3,0.7-0.5,1.5-0.5,2.2
				c0,0.8,0.1,1.5,0.5,2.2c0.3,0.6,0.7,1,1.2,1.4C291,25.6,291.6,25.8,292.2,25.8L292.2,25.8z M305.4,28c-1.3,0.1-2.5-0.4-3.4-1.3
				c-0.9-1.1-1.3-2.6-1.2-4v-6.8h2.5v6.6c0,2.3,0.9,3.5,2.8,3.5c0.9,0,1.7-0.3,2.3-1c0.7-0.8,1-1.8,0.9-2.9V16h2.5v11.7h-2.3
				l-0.2-2.1c-0.4,0.7-0.9,1.3-1.6,1.7C307.1,27.8,306.2,28,305.4,28z M315.1,32.9V15.8h2.3l0.3,1.8c0.4-0.6,1-1.1,1.6-1.5
				c0.8-0.5,1.7-0.7,2.6-0.6c1.1,0,2.1,0.3,3,0.8c0.9,0.5,1.6,1.3,2.1,2.2c0.5,1,0.8,2.1,0.8,3.2s-0.2,2.2-0.8,3.2
				c-0.5,0.9-1.2,1.7-2.1,2.2s-2,0.8-3.1,0.8c-0.9,0-1.7-0.2-2.5-0.6c-0.7-0.4-1.3-0.9-1.7-1.6v7.1L315.1,32.9z M321.4,25.7
				c1,0,2-0.4,2.7-1.1c0.7-0.8,1.1-1.8,1.1-2.9c0-0.7-0.2-1.4-0.5-2.1c-0.3-0.6-0.8-1.1-1.3-1.4c-0.6-0.4-1.3-0.5-1.9-0.5
				c-1,0-2,0.4-2.7,1.1c-0.7,0.8-1.1,1.8-1,2.9c0,1.1,0.3,2.1,1,2.9C319.4,25.4,320.4,25.8,321.4,25.7z M336.1,28
				c-1.1,0-2.1-0.3-3.1-0.8c-0.9-0.5-1.6-1.3-2.1-2.2c-0.5-1-0.8-2.1-0.8-3.3c0-1.1,0.2-2.3,0.8-3.3c0.5-0.9,1.3-1.7,2.2-2.2
				c0.9-0.5,2-0.8,3-0.8c1.1,0,2.1,0.3,3.1,0.8c0.9,0.5,1.7,1.3,2.2,2.2c0.6,1,0.8,2.1,0.8,3.3c0,1.1-0.2,2.3-0.8,3.3
				c-0.5,0.9-1.3,1.7-2.2,2.2C338.2,27.7,337.1,28,336.1,28z M336.1,25.8c0.6,0,1.2-0.2,1.7-0.5s1-0.8,1.3-1.4
				c0.3-0.7,0.5-1.5,0.5-2.2c0-0.8-0.1-1.5-0.5-2.2c-0.3-0.6-0.7-1-1.2-1.4c-0.5-0.3-1.1-0.5-1.7-0.5s-1.2,0.2-1.7,0.5
				s-1,0.8-1.3,1.4c-0.3,0.7-0.5,1.5-0.5,2.2c0,0.8,0.1,1.5,0.5,2.2c0.3,0.6,0.7,1,1.2,1.4C334.9,25.6,335.5,25.8,336.1,25.8
				L336.1,25.8z M344.9,27.7V15.8h2.3l0.2,2.1c0.4-0.7,0.9-1.3,1.6-1.7c0.7-0.4,1.6-0.7,2.5-0.6c1.3-0.1,2.5,0.4,3.4,1.3
				c0.9,1.1,1.3,2.6,1.2,4v6.8h-2.5v-6.6c0-2.3-0.9-3.5-2.8-3.5c-0.9,0-1.7,0.3-2.3,1c-0.7,0.8-1,1.8-0.9,2.9v6.2H344.9z"/>
		</g>
	</g>
</g>
<circle class="st1" cx="372.6" cy="16" r="1.4"/>
<circle class="st1" cx="379.5" cy="24.4" r="1.4"/>
</svg>
