<svg xmlns="http://www.w3.org/2000/svg" xmlns:xlink="http://www.w3.org/1999/xlink" width="300" height="270" viewBox="0 0 300 270">
  <defs>
    <clipPath id="clip-path">
      <rect id="Rectangle_1027" data-name="Rectangle 1027" width="300" height="270" fill="#fff"/>
    </clipPath>
  </defs>
  <g id="Mask_Group_72" data-name="Mask Group 72" clip-path="url(#clip-path)">
    <g id="Group_1180" data-name="Group 1180">
      <g id="Bull_list" data-name="Bull list" transform="translate(-4355.385 -1903.599)">
        <g id="Trends" transform="translate(4358.533 1919.001)">
          <g id="Group_51" data-name="Group 51" transform="translate(0 0)">
            <path id="Path_28" data-name="Path 28" d="M241.845,38.416H41.026c-11.726,0-21.231,11.847-21.231,26.459V270.169H263.076V64.875c0-14.612-9.5-26.459-21.23-26.459" transform="translate(6.715 -35.229)" fill="#d1f2e2"/>
            <path id="Path_29" data-name="Path 29" d="M30.324,259.728V59.107c0-5.612,3.561-10.161,7.952-10.161H237.69c4.392,0,7.952,4.55,7.952,10.161v200.62Z" transform="translate(10.167 -31.776)" fill="#d1f2e2"/>
            <path id="Path_30" data-name="Path 30" d="M20.179,270.6c-1.593,0-2.885-1.745-2.885-3.9V70.173a41.56,41.56,0,0,1,4.1-17.387c3.021-6.271,7.319-11.046,12.43-13.808a29.5,29.5,0,0,1,12.1-3.145,118.576,118.576,0,0,1,13.234.024c2.619.1,5.327.205,7.936.205H141.82c1.593,0,2.885,1.745,2.885,3.9s-1.291,3.9-2.885,3.9H67.1c-2.692,0-5.441-.106-8.1-.209-8.776-.338-17.066-.658-23.028,2.566-5.055,2.732-8.086,7.393-9.738,10.823a31.477,31.477,0,0,0-3.168,13.134V266.7C23.063,268.85,21.772,270.6,20.179,270.6Z" transform="translate(6.33 -35.654)"/>
            <path id="Path_31" data-name="Path 31" d="M281.025,270.563c-1.593,0-2.885-1.746-2.885-3.9V70.07a35.738,35.738,0,0,0-2.18-11.885c-1.169-3.166-3.36-7.5-7.162-10.192-2.825-2-6.8-3.262-12.154-3.861a138.166,138.166,0,0,0-16.422-.429c-1.876.022-3.816.044-5.73.044H159.384c-1.593,0-2.885-1.746-2.885-3.9s1.291-3.9,2.885-3.9h75.109c1.889,0,3.816-.022,5.68-.044,12.135-.14,23.6-.273,31.3,5.179,4.091,2.893,7.427,7.6,9.649,13.619a46.179,46.179,0,0,1,2.788,15.368V266.664C283.909,268.817,282.618,270.563,281.025,270.563Z" transform="translate(-11.234 -35.622)"/>
            <path id="Path_32" data-name="Path 32" d="M254.975,205.355H39.561a40.443,40.443,0,0,1-37.09-24.319,5.6,5.6,0,0,1,5.14-7.838H286.926a5.6,5.6,0,0,1,5.14,7.838,40.445,40.445,0,0,1-37.091,24.319" transform="translate(0.881 30.956)" fill="#c1ffe2"/>
            <path id="Path_33" data-name="Path 33" d="M155.451,184.039H97.027A10.623,10.623,0,0,1,86.4,173.416h79.669a10.623,10.623,0,0,1-10.623,10.623" transform="translate(28.551 31.027)" fill="#fcdbe7"/>
            <path id="Path_34" data-name="Path 34" d="M254.975,196.538H39.561A40.436,40.436,0,0,1,3.566,174.505a5.575,5.575,0,0,0-1.1,6.1,40.445,40.445,0,0,0,37.09,24.319H254.975a40.447,40.447,0,0,0,37.091-24.319,5.578,5.578,0,0,0-1.1-6.1,40.433,40.433,0,0,1-35.995,22.033" transform="translate(0.882 31.384)" fill="#fcdbe7"/>
            <path id="Path_35" data-name="Path 35" d="M255.359,208.624H39.946A43.312,43.312,0,0,1,.21,182.571,8.489,8.489,0,0,1,8,170.7H287.311a8.489,8.489,0,0,1,7.785,11.873A43.316,43.316,0,0,1,255.359,208.624ZM8,176.467a2.719,2.719,0,0,0-2.495,3.8,37.545,37.545,0,0,0,34.445,22.585H255.359a37.549,37.549,0,0,0,34.446-22.585,2.719,2.719,0,0,0-2.495-3.8Z" transform="translate(0.497 30.571)"/>
          </g>
        </g>
        <g id="Group_1174" data-name="Group 1174" transform="translate(4355 1946.954)">
          <rect id="Rectangle_102" data-name="Rectangle 102" width="115.385" height="35.769" fill="#10a861"/>
          <path id="Path_25970" data-name="Path 25970" d="M1.4,0V-15.641H6.875a7.194,7.194,0,0,1,4.318,1.09,3.728,3.728,0,0,1,1.472,3.2,3.534,3.534,0,0,1-.591,2.025,3.413,3.413,0,0,1-1.644,1.284,3.3,3.3,0,0,1,1.9,1.214A3.589,3.589,0,0,1,13.02-4.6,4.128,4.128,0,0,1,11.58-1.182,6.48,6.48,0,0,1,7.477,0ZM4.619-6.811v4.222H7.38a2.664,2.664,0,0,0,1.778-.542A1.86,1.86,0,0,0,9.8-4.63,1.964,1.964,0,0,0,7.573-6.811Zm0-2.277H7q2.438-.043,2.438-1.944a1.8,1.8,0,0,0-.618-1.531,3.249,3.249,0,0,0-1.95-.467H4.619ZM22.193-1.182a3.893,3.893,0,0,1-3.18,1.4A3.672,3.672,0,0,1,16.162-.859a4.586,4.586,0,0,1-1-3.147v-7.616h3.1v7.509q0,1.815,1.654,1.815a2.242,2.242,0,0,0,2.17-1.1v-8.229H25.2V0H22.279ZM30.819,0H27.7V-16.5h3.115Zm5.833,0H33.537V-16.5h3.115ZM48.114-2.589h6.843V0H44.892V-15.641h3.223ZM59.877,0H56.762V-11.623h3.115Zm-3.3-14.631a1.529,1.529,0,0,1,.467-1.149,1.755,1.755,0,0,1,1.273-.451,1.759,1.759,0,0,1,1.268.451,1.52,1.52,0,0,1,.473,1.149,1.524,1.524,0,0,1-.478,1.16,1.764,1.764,0,0,1-1.262.451,1.764,1.764,0,0,1-1.262-.451A1.524,1.524,0,0,1,56.579-14.631ZM68.729-3.212a1,1,0,0,0-.564-.9,6.406,6.406,0,0,0-1.81-.585q-4.146-.87-4.146-3.523A3.194,3.194,0,0,1,63.492-10.8a5.178,5.178,0,0,1,3.357-1.037,5.573,5.573,0,0,1,3.54,1.042,3.284,3.284,0,0,1,1.327,2.707h-3.1a1.5,1.5,0,0,0-.43-1.1,1.818,1.818,0,0,0-1.343-.435,1.858,1.858,0,0,0-1.214.354,1.119,1.119,0,0,0-.43.9.957.957,0,0,0,.489.833,5.028,5.028,0,0,0,1.649.548,13.468,13.468,0,0,1,1.955.521,3.212,3.212,0,0,1,2.46,3.126A3.032,3.032,0,0,1,70.383-.768a5.885,5.885,0,0,1-3.523.983,6.147,6.147,0,0,1-2.594-.521,4.353,4.353,0,0,1-1.778-1.429,3.32,3.32,0,0,1-.645-1.96h2.943A1.621,1.621,0,0,0,65.4-2.428a2.429,2.429,0,0,0,1.525.44,2.248,2.248,0,0,0,1.348-.338A1.053,1.053,0,0,0,68.729-3.212ZM77.462-14.48v2.857h1.987v2.277H77.462v5.8a1.385,1.385,0,0,0,.247.924,1.241,1.241,0,0,0,.945.279,4.951,4.951,0,0,0,.913-.075V-.064a6.391,6.391,0,0,1-1.88.279q-3.266,0-3.33-3.3V-9.346h-1.7v-2.277h1.7V-14.48Z" transform="translate(18 26.462)" fill="#fff"/>
        </g>
        <g id="Group_1179" data-name="Group 1179" transform="translate(0 -26.538)">
          <rect id="Rectangle_98" data-name="Rectangle 98" width="54.231" height="20.769" transform="translate(4407 2018.492)" fill="#fcdbe7"/>
          <path id="Path_25971" data-name="Path 25971" d="M7.6-2.969H2.836L1.766,0H.219L4.563-11.375H5.875L10.227,0H8.688ZM3.289-4.2H7.156L5.219-9.523Zm11.82-.867A7.053,7.053,0,0,1,12.3-6.434a2.6,2.6,0,0,1-.879-2A2.751,2.751,0,0,1,12.5-10.652a4.269,4.269,0,0,1,2.793-.879,4.66,4.66,0,0,1,2.09.453A3.436,3.436,0,0,1,18.8-9.828a3.2,3.2,0,0,1,.5,1.742H17.8a2.069,2.069,0,0,0-.656-1.621,2.675,2.675,0,0,0-1.852-.59,2.736,2.736,0,0,0-1.73.488,1.628,1.628,0,0,0-.621,1.355,1.465,1.465,0,0,0,.59,1.176,5.79,5.79,0,0,0,2.008.879,9.3,9.3,0,0,1,2.219.879A3.367,3.367,0,0,1,18.941-4.4a2.861,2.861,0,0,1,.387,1.508A2.658,2.658,0,0,1,18.25-.676a4.6,4.6,0,0,1-2.883.832A5.347,5.347,0,0,1,13.18-.293a3.681,3.681,0,0,1-1.566-1.23A3,3,0,0,1,11.063-3.3H12.57a1.959,1.959,0,0,0,.762,1.629,3.207,3.207,0,0,0,2.035.6,2.948,2.948,0,0,0,1.82-.484,1.573,1.573,0,0,0,.633-1.32,1.545,1.545,0,0,0-.586-1.293A6.755,6.755,0,0,0,15.109-5.07ZM25.422-4.6H22.75V0H21.242V-11.375h3.766a4.457,4.457,0,0,1,2.957.875A3.148,3.148,0,0,1,29-7.953,3.062,3.062,0,0,1,28.426-6.1a3.428,3.428,0,0,1-1.6,1.18L29.5-.094V0H27.891ZM22.75-5.828h2.3a2.6,2.6,0,0,0,1.777-.578,1.953,1.953,0,0,0,.66-1.547,2.057,2.057,0,0,0-.629-1.617,2.666,2.666,0,0,0-1.816-.57h-2.3Z" transform="translate(4419 2035.185)"/>
        </g>
        <g id="Group_1176" data-name="Group 1176" transform="translate(1 35)">
          <rect id="Rectangle_106" data-name="Rectangle 106" width="54.231" height="20.769" transform="translate(4553 2018.492)" fill="#fcdbe7"/>
          <path id="Path_25973" data-name="Path 25973" d="M1.32,0V-11.375H5.039a4.317,4.317,0,0,1,2.785.766,2.759,2.759,0,0,1,.934,2.266A2.31,2.31,0,0,1,8.3-6.934a2.937,2.937,0,0,1-1.234.949A2.638,2.638,0,0,1,8.527-5a2.814,2.814,0,0,1,.535,1.723A3.042,3.042,0,0,1,8.07-.875,4.1,4.1,0,0,1,5.266,0Zm1.5-5.32v4.094H5.3A2.385,2.385,0,0,0,6.949-1.77a1.907,1.907,0,0,0,.605-1.5q0-2.055-2.234-2.055Zm0-1.2H5.086A2.378,2.378,0,0,0,6.66-7.016a1.649,1.649,0,0,0,.59-1.336A1.621,1.621,0,0,0,6.7-9.715a2.69,2.69,0,0,0-1.664-.426H2.82ZM17.563-2.969H12.8L11.727,0H10.18l4.344-11.375h1.313L20.188,0H18.648ZM13.25-4.2h3.867L15.18-9.523Zm9.969-.25V0h-1.5V-11.375h4.2a4.215,4.215,0,0,1,2.926.953A3.231,3.231,0,0,1,29.9-7.9a3.189,3.189,0,0,1-1.035,2.551,4.4,4.4,0,0,1-2.965.895Zm0-1.227h2.7a2.7,2.7,0,0,0,1.844-.566A2.069,2.069,0,0,0,28.4-7.883a2.138,2.138,0,0,0-.641-1.625A2.528,2.528,0,0,0,26-10.141H23.219Z" transform="translate(4566 2035.185)"/>
        </g>
        <g id="Group_1178" data-name="Group 1178" transform="translate(0 -26.538)">
          <rect id="Rectangle_104" data-name="Rectangle 104" width="54.231" height="20.769" transform="translate(4407 2045.031)" fill="#fcdbe7"/>
          <path id="Path_25972" data-name="Path 25972" d="M7.6-2.969H2.836L1.766,0H.219L4.563-11.375H5.875L10.227,0H8.688ZM3.289-4.2H7.156L5.219-9.523ZM20.5,0H18.992L13.266-8.766V0H11.758V-11.375h1.508l5.742,8.8v-8.8H20.5ZM31.563-1.492A3.465,3.465,0,0,1,29.949-.254a6.517,6.517,0,0,1-2.41.41A4.674,4.674,0,0,1,25.07-.5,4.346,4.346,0,0,1,23.4-2.352,6.408,6.408,0,0,1,22.8-5.141v-.992A5.982,5.982,0,0,1,24-10.117a4.179,4.179,0,0,1,3.371-1.414,4.316,4.316,0,0,1,2.867.91,3.965,3.965,0,0,1,1.328,2.582h-1.5A2.478,2.478,0,0,0,27.375-10.3,2.656,2.656,0,0,0,25.09-9.238,5.165,5.165,0,0,0,24.3-6.172v.93A4.841,4.841,0,0,0,25.18-2.2,2.837,2.837,0,0,0,27.547-1.07a5.217,5.217,0,0,0,1.477-.187,2.282,2.282,0,0,0,1.047-.633V-4.445H27.438V-5.664h4.125ZM35.672,0h-1.5V-11.375h1.5Z" transform="translate(4416 2060.723)"/>
        </g>
        <g id="Group_1177" data-name="Group 1177" transform="translate(1 35)">
          <rect id="Rectangle_105" data-name="Rectangle 105" width="54.231" height="20.769" transform="translate(4553 2045.031)" fill="#fcdbe7"/>
          <path id="Path_25974" data-name="Path 25974" d="M9.688-3.609A4.185,4.185,0,0,1,8.355-.824a4.365,4.365,0,0,1-2.98.98,4.008,4.008,0,0,1-3.23-1.445A5.815,5.815,0,0,1,.93-5.156V-6.25A6.481,6.481,0,0,1,1.5-9.039,4.231,4.231,0,0,1,3.1-10.887a4.47,4.47,0,0,1,2.406-.645A4.11,4.11,0,0,1,8.414-10.52a4.235,4.235,0,0,1,1.273,2.8H8.18a3.254,3.254,0,0,0-.848-1.969A2.569,2.569,0,0,0,5.508-10.3,2.685,2.685,0,0,0,3.254-9.234a4.875,4.875,0,0,0-.816,3.023v1.1a5.011,5.011,0,0,0,.773,2.945A2.5,2.5,0,0,0,5.375-1.07a2.887,2.887,0,0,0,1.918-.566A3.143,3.143,0,0,0,8.18-3.609Zm4.5.023.219,1.5.32-1.352,2.25-7.937h1.266l2.2,7.938.313,1.375.242-1.531,1.766-7.781h1.508L21.508,0H20.141L17.8-8.289l-.18-.867-.18.867L15.008,0H13.641l-2.75-11.375h1.5Z" transform="translate(4568 2060.723)"/>
        </g>
        <g id="Group_1175" data-name="Group 1175" transform="translate(4539.615 2011.377)">
          <rect id="Rectangle_103" data-name="Rectangle 103" width="115.385" height="35.769" transform="translate(0.385)" fill="#d93872"/>
          <path id="Path_25969" data-name="Path 25969" d="M1.4,0V-15.641H6.875a7.194,7.194,0,0,1,4.318,1.09,3.728,3.728,0,0,1,1.472,3.2,3.534,3.534,0,0,1-.591,2.025,3.413,3.413,0,0,1-1.644,1.284,3.3,3.3,0,0,1,1.9,1.214A3.589,3.589,0,0,1,13.02-4.6,4.128,4.128,0,0,1,11.58-1.182,6.48,6.48,0,0,1,7.477,0ZM4.619-6.811v4.222H7.38a2.664,2.664,0,0,0,1.778-.542A1.86,1.86,0,0,0,9.8-4.63,1.964,1.964,0,0,0,7.573-6.811Zm0-2.277H7q2.438-.043,2.438-1.944a1.8,1.8,0,0,0-.618-1.531,3.249,3.249,0,0,0-1.95-.467H4.619ZM20.582.215a5.706,5.706,0,0,1-4.163-1.568,5.575,5.575,0,0,1-1.606-4.179v-.3a7.021,7.021,0,0,1,.677-3.131,4.967,4.967,0,0,1,1.917-2.127,5.382,5.382,0,0,1,2.831-.747,4.824,4.824,0,0,1,3.754,1.5,6.111,6.111,0,0,1,1.37,4.265V-4.8h-7.4a2.884,2.884,0,0,0,.908,1.826,2.744,2.744,0,0,0,1.917.688,3.351,3.351,0,0,0,2.8-1.3L25.115-1.88A4.66,4.66,0,0,1,23.225-.338,6.2,6.2,0,0,1,20.582.215Zm-.354-9.539a1.944,1.944,0,0,0-1.5.623,3.219,3.219,0,0,0-.736,1.783h4.318v-.247a2.3,2.3,0,0,0-.559-1.6A2.006,2.006,0,0,0,20.228-9.324ZM33.859,0a3.447,3.447,0,0,1-.312-1.042A3.756,3.756,0,0,1,30.615.215a4.127,4.127,0,0,1-2.831-.988,3.178,3.178,0,0,1-1.123-2.492A3.285,3.285,0,0,1,28.032-6.1a6.758,6.758,0,0,1,3.958-1h1.429v-.666a1.915,1.915,0,0,0-.414-1.289A1.627,1.627,0,0,0,31.7-9.539a1.85,1.85,0,0,0-1.23.376,1.277,1.277,0,0,0-.446,1.031h-3.1A3.118,3.118,0,0,1,27.543-10,4.118,4.118,0,0,1,29.3-11.349a6.42,6.42,0,0,1,2.557-.489,5.073,5.073,0,0,1,3.411,1.08,3.777,3.777,0,0,1,1.262,3.035v5.038A5.557,5.557,0,0,0,37-.183V0ZM31.292-2.159a2.674,2.674,0,0,0,1.268-.306,2.011,2.011,0,0,0,.859-.822v-2h-1.16q-2.331,0-2.481,1.611l-.011.183a1.243,1.243,0,0,0,.408.956A1.586,1.586,0,0,0,31.292-2.159ZM45.45-8.712A8.434,8.434,0,0,0,44.333-8.8a2.274,2.274,0,0,0-2.31,1.192V0h-3.1V-11.623h2.933l.086,1.386a2.877,2.877,0,0,1,2.589-1.6,3.253,3.253,0,0,1,.967.14Zm10.4,6.123h6.843V0H52.626V-15.641h3.223ZM67.611,0H64.5V-11.623h3.115Zm-3.3-14.631a1.529,1.529,0,0,1,.467-1.149,1.755,1.755,0,0,1,1.273-.451,1.759,1.759,0,0,1,1.268.451,1.52,1.52,0,0,1,.473,1.149,1.524,1.524,0,0,1-.478,1.16,1.764,1.764,0,0,1-1.262.451,1.764,1.764,0,0,1-1.262-.451A1.524,1.524,0,0,1,64.313-14.631ZM76.463-3.212a1,1,0,0,0-.564-.9,6.406,6.406,0,0,0-1.81-.585q-4.146-.87-4.146-3.523A3.194,3.194,0,0,1,71.226-10.8a5.178,5.178,0,0,1,3.357-1.037,5.573,5.573,0,0,1,3.54,1.042,3.284,3.284,0,0,1,1.327,2.707h-3.1a1.5,1.5,0,0,0-.43-1.1,1.818,1.818,0,0,0-1.343-.435,1.858,1.858,0,0,0-1.214.354,1.119,1.119,0,0,0-.43.9.957.957,0,0,0,.489.833,5.028,5.028,0,0,0,1.649.548,13.468,13.468,0,0,1,1.955.521,3.212,3.212,0,0,1,2.46,3.126A3.032,3.032,0,0,1,78.117-.768a5.885,5.885,0,0,1-3.523.983A6.147,6.147,0,0,1,72-.306a4.353,4.353,0,0,1-1.778-1.429,3.32,3.32,0,0,1-.645-1.96h2.943a1.621,1.621,0,0,0,.612,1.268,2.429,2.429,0,0,0,1.525.44,2.248,2.248,0,0,0,1.348-.338A1.053,1.053,0,0,0,76.463-3.212ZM85.2-14.48v2.857h1.987v2.277H85.2v5.8a1.385,1.385,0,0,0,.247.924,1.241,1.241,0,0,0,.945.279,4.951,4.951,0,0,0,.913-.075V-.064a6.391,6.391,0,0,1-1.88.279q-3.266,0-3.33-3.3V-9.346h-1.7v-2.277h1.7V-14.48Z" transform="translate(14.385 25.42)" fill="#fff"/>
        </g>
      </g>
    </g>
  </g>
</svg>
