<svg xmlns="http://www.w3.org/2000/svg" xmlns:xlink="http://www.w3.org/1999/xlink" width="300" height="270" viewBox="0 0 300 270">
  <defs>
    <clipPath id="clip-path">
      <path id="Path_25967" data-name="Path 25967" d="M0,0H67.945V39.976H0Z" fill="none"/>
    </clipPath>
    <clipPath id="clip-path-2">
      <rect id="Rectangle_1026" data-name="Rectangle 1026" width="67.945" height="39.976" fill="none"/>
    </clipPath>
    <clipPath id="clip-path-3">
      <path id="Path_25968" data-name="Path 25968" d="M0,0H80.214V39.976H0Z" fill="none"/>
    </clipPath>
    <clipPath id="clip-path-4">
      <rect id="Rectangle_1024" data-name="Rectangle 1024" width="80.214" height="39.976" fill="none"/>
    </clipPath>
  </defs>
  <g id="Group_1171" data-name="Group 1171" transform="translate(-0.001 0.001)">
    <g id="Group_1173" data-name="Group 1173" transform="translate(0.001 -0.001)">
      <path id="Path_25958" data-name="Path 25958" d="M229.263,158.512l-18.389-30.464a5.4,5.4,0,0,1,4.619-8.185h46.021a5.4,5.4,0,0,1,4.619,8.185l-18.39,30.464a10.8,10.8,0,0,1-18.48,0" transform="translate(29.985 17.54)" fill="#ffd9e7"/>
      <path id="Path_25959" data-name="Path 25959" d="M292.272,135.332a8.491,8.491,0,0,0-4.388-1.225H268.2V83.954a35.486,35.486,0,0,0-35.422-35.477H207.34l-.446-1.717a62.269,62.269,0,0,0-120.605,0l-.446,1.717H54.308a29.406,29.406,0,0,0-29.248,27.1h6.229A23.17,23.17,0,0,1,54.308,54.693H84.7l-.206,2.473c-.138,1.649-.263,3.411-.263,5.209a62.361,62.361,0,1,0,124.72.538v-.538c0-1.8-.138-3.56-.274-5.209l-.207-2.473h24.311a29.279,29.279,0,0,1,29.227,29.261v50.154H241.936A8.5,8.5,0,0,0,234.667,147l18.369,30.475a13.859,13.859,0,0,0,23.75,0l18.356-30.463a8.5,8.5,0,0,0-2.869-11.677M146.59,8.42A53.954,53.954,0,1,1,92.712,62.374,53.91,53.91,0,0,1,146.59,8.42M287.884,142.613l-18.369,30.463a5.373,5.373,0,0,1-7.395,1.832,5.264,5.264,0,0,1-1.816-1.832l-18.369-30.463Z" transform="translate(3.628 0.001)"/>
      <path id="Path_25960" data-name="Path 25960" d="M138.5,5.355A56.244,56.244,0,1,0,194.748,61.6,56.245,56.245,0,0,0,138.5,5.355m0,107.909A51.665,51.665,0,1,1,190.169,61.6,51.667,51.667,0,0,1,138.5,113.264m91.446,26.285,20.48,33.932a7.557,7.557,0,0,0,3.583,3.125,7.854,7.854,0,0,0,6,0,7.6,7.6,0,0,0,3.583-3.114l20.492-33.943Zm28.666,32.627a3.106,3.106,0,0,1-4.259-1.053l-16.3-26.994h37.916l-16.3,26.994a3.194,3.194,0,0,1-1.053,1.053m-28.666-32.627,20.48,33.932a7.557,7.557,0,0,0,3.583,3.125,7.854,7.854,0,0,0,6,0,7.6,7.6,0,0,0,3.583-3.114l20.492-33.943Zm28.666,32.627a3.106,3.106,0,0,1-4.259-1.053l-16.3-26.994h37.916l-16.3,26.994a3.194,3.194,0,0,1-1.053,1.053M138.5,5.355A56.244,56.244,0,1,0,194.748,61.6,56.245,56.245,0,0,0,138.5,5.355m0,107.909A51.665,51.665,0,1,1,190.169,61.6,51.667,51.667,0,0,1,138.5,113.264m0-107.909A56.244,56.244,0,1,0,194.748,61.6,56.245,56.245,0,0,0,138.5,5.355m0,107.909A51.665,51.665,0,1,1,190.169,61.6,51.667,51.667,0,0,1,138.5,113.264m91.446,26.285,20.48,33.932a7.557,7.557,0,0,0,3.583,3.125,7.854,7.854,0,0,0,6,0,7.6,7.6,0,0,0,3.583-3.114l20.492-33.943Zm28.666,32.627a3.106,3.106,0,0,1-4.259-1.053l-16.3-26.994h37.916l-16.3,26.994a3.194,3.194,0,0,1-1.053,1.053m-28.666-32.627,20.48,33.932a7.557,7.557,0,0,0,3.583,3.125,7.854,7.854,0,0,0,6,0,7.6,7.6,0,0,0,3.583-3.114l20.492-33.943Zm28.666,32.627a3.106,3.106,0,0,1-4.259-1.053l-16.3-26.994h37.916l-16.3,26.994a3.194,3.194,0,0,1-1.053,1.053M138.5,5.355A56.244,56.244,0,1,0,194.748,61.6,56.245,56.245,0,0,0,138.5,5.355m0,107.909A51.665,51.665,0,1,1,190.169,61.6,51.667,51.667,0,0,1,138.5,113.264m91.446,26.285,20.48,33.932a7.557,7.557,0,0,0,3.583,3.125,7.854,7.854,0,0,0,6,0,7.6,7.6,0,0,0,3.583-3.114l20.492-33.943Zm28.666,32.627a3.106,3.106,0,0,1-4.259-1.053l-16.3-26.994h37.916l-16.3,26.994a3.194,3.194,0,0,1-1.053,1.053M138.5,5.355A56.244,56.244,0,1,0,194.748,61.6,56.245,56.245,0,0,0,138.5,5.355m0,107.909A51.665,51.665,0,1,1,190.169,61.6,51.667,51.667,0,0,1,138.5,113.264m0-107.909A56.244,56.244,0,1,0,194.748,61.6,56.245,56.245,0,0,0,138.5,5.355m0,107.909A51.665,51.665,0,1,1,190.169,61.6,51.667,51.667,0,0,1,138.5,113.264m91.446,26.285,20.48,33.932a7.557,7.557,0,0,0,3.583,3.125,7.854,7.854,0,0,0,6,0,7.6,7.6,0,0,0,3.583-3.114l20.492-33.943Zm28.666,32.627a3.106,3.106,0,0,1-4.259-1.053l-16.3-26.994h37.916l-16.3,26.994a3.194,3.194,0,0,1-1.053,1.053m-28.666-32.627,20.48,33.932a7.557,7.557,0,0,0,3.583,3.125,7.854,7.854,0,0,0,6,0,7.6,7.6,0,0,0,3.583-3.114l20.492-33.943Zm28.666,32.627a3.106,3.106,0,0,1-4.259-1.053l-16.3-26.994h37.916l-16.3,26.994a3.194,3.194,0,0,1-1.053,1.053M138.5,5.355A56.244,56.244,0,1,0,194.748,61.6,56.245,56.245,0,0,0,138.5,5.355m0,107.909A51.665,51.665,0,1,1,190.169,61.6,51.667,51.667,0,0,1,138.5,113.264m0-107.909A56.244,56.244,0,1,0,194.748,61.6,56.245,56.245,0,0,0,138.5,5.355m0,107.909A51.665,51.665,0,1,1,190.169,61.6,51.667,51.667,0,0,1,138.5,113.264m91.446,26.285,20.48,33.932a7.557,7.557,0,0,0,3.583,3.125,7.854,7.854,0,0,0,6,0,7.6,7.6,0,0,0,3.583-3.114l20.492-33.943Zm28.666,32.627a3.106,3.106,0,0,1-4.259-1.053l-16.3-26.994h37.916l-16.3,26.994a3.194,3.194,0,0,1-1.053,1.053m-28.666-32.627,20.48,33.932a7.557,7.557,0,0,0,3.583,3.125,7.854,7.854,0,0,0,6,0,7.6,7.6,0,0,0,3.583-3.114l20.492-33.943Zm28.666,32.627a3.106,3.106,0,0,1-4.259-1.053l-16.3-26.994h37.916l-16.3,26.994a3.194,3.194,0,0,1-1.053,1.053M138.5,5.355A56.244,56.244,0,1,0,194.748,61.6,56.245,56.245,0,0,0,138.5,5.355m0,107.909A51.665,51.665,0,1,1,190.169,61.6,51.667,51.667,0,0,1,138.5,113.264" transform="translate(11.473 0.776)" fill="#4869cb"/>
      <path id="Path_25962" data-name="Path 25962" d="M37.526,88.585a8.5,8.5,0,0,0-.7-.985c-.1-.114-.206-.229-.3-.343a7.684,7.684,0,0,0-2.587-1.8,7.889,7.889,0,0,0-6,0,7.591,7.591,0,0,0-3.572,3.125L3.88,122.517ZM29.34,89.9a3.109,3.109,0,0,1,4.27,1.042L49.9,117.938H12l16.29-26.994A3.058,3.058,0,0,1,29.34,89.9m120.513,55.019A56.3,56.3,0,1,0,206.1,201.165a56.252,56.252,0,0,0-56.244-56.244m50.806,65.654a51.693,51.693,0,1,1,.859-9.41,51.652,51.652,0,0,1-.859,9.41m-50.806-65.654A56.3,56.3,0,1,0,206.1,201.165a56.252,56.252,0,0,0-56.244-56.244m50.806,65.654a51.693,51.693,0,1,1,.859-9.41,51.652,51.652,0,0,1-.859,9.41M37.526,88.585a8.5,8.5,0,0,0-.7-.985c-.1-.114-.206-.229-.3-.343a7.684,7.684,0,0,0-2.587-1.8,7.889,7.889,0,0,0-6,0c-1.488.63-2.748,1.729-24.064,37.057ZM29.34,89.9a3.109,3.109,0,0,1,4.27,1.042L49.9,117.938H12l16.29-26.994A3.058,3.058,0,0,1,29.34,89.9m120.513,55.019A56.3,56.3,0,1,0,206.1,201.165a56.252,56.252,0,0,0-56.244-56.244m50.806,65.654a51.693,51.693,0,1,1,.859-9.41,51.652,51.652,0,0,1-.859,9.41M37.526,88.585a8.5,8.5,0,0,0-.7-.985c-.1-.114-.206-.229-.3-.343a7.684,7.684,0,0,0-2.587-1.8,7.889,7.889,0,0,0-6,0,7.591,7.591,0,0,0-3.572,3.125ZM29.34,89.9a3.109,3.109,0,0,1,4.27,1.042L49.9,117.938H12l16.29-26.994A3.058,3.058,0,0,1,29.34,89.9m8.185-1.317a8.5,8.5,0,0,0-.7-.985c-.1-.114-.206-.229-.3-.343a7.684,7.684,0,0,0-2.587-1.8,7.889,7.889,0,0,0-6,0,7.591,7.591,0,0,0-3.572,3.125ZM29.34,89.9a3.109,3.109,0,0,1,4.27,1.042L49.9,117.938H12l16.29-26.994A3.058,3.058,0,0,1,29.34,89.9m120.513,55.019A56.3,56.3,0,1,0,206.1,201.165a56.252,56.252,0,0,0-56.244-56.244m50.806,65.654a51.693,51.693,0,1,1,.859-9.41,51.652,51.652,0,0,1-.859,9.41m-50.806-65.654A56.3,56.3,0,1,0,206.1,201.165a56.252,56.252,0,0,0-56.244-56.244m50.806,65.654a51.693,51.693,0,1,1,.859-9.41,51.652,51.652,0,0,1-.859,9.41M37.526,88.585a8.5,8.5,0,0,0-.7-.985c-.1-.114-.206-.229-.3-.343a7.684,7.684,0,0,0-2.587-1.8,7.889,7.889,0,0,0-6,0,7.591,7.591,0,0,0-3.572,3.125ZM29.34,89.9a3.109,3.109,0,0,1,4.27,1.042L49.9,117.938H12l16.29-26.994A3.058,3.058,0,0,1,29.34,89.9" transform="translate(0.561 12.591)" fill="#4869cb"/>
      <path id="Path_25963" data-name="Path 25963" d="M138.662,3.136c31.292,0,56.658,26.056,56.658,58.2s-25.366,58.2-56.658,58.2S82,93.474,82,61.333s25.366-58.2,56.658-58.2" transform="translate(11.655 0.455)" fill="#10a861"/>
      <g id="Group_1169" data-name="Group 1169" transform="translate(116.556 45.172)" style="isolation: isolate">
        <g id="Group_1168" data-name="Group 1168">
          <g id="Mask_Group_70" data-name="Mask Group 70" clip-path="url(#clip-path)">
            <g id="Group_1166" data-name="Group 1166" style="isolation: isolate">
              <g id="Group_1165" data-name="Group 1165">
                <g id="Group_1164" data-name="Group 1164" clip-path="url(#clip-path-2)">
                  <text id="BUY" transform="translate(0 29.725)" font-size="34" font-family="Roboto-Bold, Roboto" font-weight="700"><tspan x="0" y="0">BUY</tspan></text>
                </g>
              </g>
            </g>
          </g>
        </g>
      </g>
      <g id="Group_1172" data-name="Group 1172" transform="translate(0 84.252)">
        <path id="Path_25961" data-name="Path 25961" d="M265.534,188.053a23.191,23.191,0,0,1-23.088,21.579H212.077l.217-2.473c.16-1.923.24-3.629.24-5.209a62.361,62.361,0,1,0-124.72-.538v.538c0,1.8.126,3.56.263,5.209l.206,2.473H63.972a29.28,29.28,0,0,1-29.226-29.261V129.519H54.439a8.5,8.5,0,0,0,7.258-12.89L43.341,86.166a13.853,13.853,0,0,0-23.751,0L1.223,116.629a8.5,8.5,0,0,0,7.269,12.89H28.551v50.852a35.487,35.487,0,0,0,35.42,35.477H89.426l.434,1.717a62.26,62.26,0,0,0,120.651,0l.446-1.717h31.489a29.4,29.4,0,0,0,29.306-27.8ZM54.439,121.014H8.492L26.848,90.551a5.382,5.382,0,0,1,7.395-1.832,5.587,5.587,0,0,1,1.829,1.832ZM97.083,192.23a53.926,53.926,0,1,1,43.284,62.9,53.931,53.931,0,0,1-43.284-62.9" transform="translate(0 -79.446)"/>
        <path id="Path_25964" data-name="Path 25964" d="M138.663,135.925c31.292,0,56.658,25.8,56.658,57.635s-25.366,57.635-56.658,57.635S82,225.391,82,193.56s25.366-57.635,56.658-57.635" transform="translate(11.616 -71.268)" fill="#d93872"/>
        <g id="Group_1163" data-name="Group 1163" transform="translate(110.227 105.67)" style="isolation: isolate">
          <g id="Group_1162" data-name="Group 1162">
            <g id="Mask_Group_71" data-name="Mask Group 71" clip-path="url(#clip-path-3)">
              <g id="Group_1160" data-name="Group 1160" style="isolation: isolate">
                <g id="Group_1159" data-name="Group 1159">
                  <g id="Group_1158" data-name="Group 1158" clip-path="url(#clip-path-4)">
                    <text id="SELL" transform="translate(0 29.726)" font-size="34" font-family="Roboto-Bold, Roboto" font-weight="700"><tspan x="0" y="0">SELL</tspan></text>
                  </g>
                </g>
              </g>
            </g>
          </g>
        </g>
        <path id="Path_25965" data-name="Path 25965" d="M3.471,123.165S9.168,113,15.439,102.757C20.494,94.5,25.191,85.371,28.591,84.2A14.456,14.456,0,0,1,32,84.043c3.719.537,9.94,10.02,15.557,19.241,5.941,9.754,11.4,19.882,11.4,19.882Z" transform="translate(0.502 -78.786)" fill="#d93872"/>
      </g>
      <path id="Path_25966" data-name="Path 25966" d="M266.163,122.541s-5.7,10.166-11.968,20.408c-5.055,8.257-9.753,17.386-13.153,18.558a14.455,14.455,0,0,1-3.408.156c-3.719-.537-9.94-10.02-15.557-19.241-5.941-9.754-11.4-19.882-11.4-19.882Z" transform="translate(30.069 17.928)" fill="#16a761"/>
    </g>
  </g>
</svg>
