<svg xmlns="http://www.w3.org/2000/svg" xmlns:xlink="http://www.w3.org/1999/xlink" width="153" height="50" viewBox="0 0 153 50">
  <defs>
    <clipPath id="clip-path">
      <rect id="Rectangle_17" data-name="Rectangle 17" width="153" height="50" fill="#fff"/>
    </clipPath>
  </defs>
  <g id="Mask_Group_6" data-name="Mask Group 6" clip-path="url(#clip-path)">
    <path id="Forbes_logo" d="M77.656,13.058c0-3.959.068-7.645.273-11.058L67.485,3.98v.956l1.024.137a1.883,1.883,0,0,1,1.5.751,6.04,6.04,0,0,1,.614,2.184c.137,1.98.273,6.485.2,13.584,0,7.031-.068,11.468-.2,13.174a43.131,43.131,0,0,0,8.874,1.16c4.1,0,7.3-1.16,9.625-3.55a13.152,13.152,0,0,0,3.549-9.625,12,12,0,0,0-2.662-7.986,8.369,8.369,0,0,0-6.689-3.14A13.354,13.354,0,0,0,77.656,13.058Zm.2,21.024c-.137-2.184-.273-8.737-.273-19.454a7.863,7.863,0,0,1,2.457-.341,4.3,4.3,0,0,1,3.891,2.526,12.663,12.663,0,0,1,1.433,6.348,17.52,17.52,0,0,1-1.638,7.986c-1.092,2.116-2.457,3.208-4.164,3.208A12.74,12.74,0,0,0,77.861,34.082ZM28.3,2.683H1V4.048l1.433.137A3.628,3.628,0,0,1,4.754,5.413a6.344,6.344,0,0,1,.819,3.276,129.725,129.725,0,0,1,0,20.614,8.079,8.079,0,0,1-.819,3.276,3.111,3.111,0,0,1-2.321,1.229L1,34.014v1.365H18.611V34.014l-1.843-.137a3.345,3.345,0,0,1-2.321-1.229,6.344,6.344,0,0,1-.819-3.276c-.2-2.73-.341-5.87-.341-9.352l3.686.068c1.98.068,3.345,1.57,4.027,4.573h1.365V13.536H21c-.683,2.935-1.98,4.437-4.027,4.505l-3.686.068c0-6.143.137-10.512.341-13.174h5.393c3.823,0,6.416,2.457,7.918,7.372l1.638-.478ZM25.1,23.707a13.114,13.114,0,0,0,3,8.806c1.98,2.321,4.915,3.413,8.6,3.413a11.473,11.473,0,0,0,8.874-3.55,12.291,12.291,0,0,0,3.208-8.806,13.114,13.114,0,0,0-3-8.806c-1.98-2.321-4.915-3.413-8.6-3.413A11.473,11.473,0,0,0,28.3,14.9,12.291,12.291,0,0,0,25.1,23.707Zm15.222-7.782a20.626,20.626,0,0,1,1.16,7.713c0,7.236-1.5,10.785-4.437,10.785q-2.253,0-3.481-3.072a21.1,21.1,0,0,1-1.16-7.713c0-7.167,1.5-10.717,4.437-10.717C38.338,12.853,39.5,13.877,40.318,15.925ZM98,32.512a11.629,11.629,0,0,0,8.532,3.413,11.486,11.486,0,0,0,5.6-1.3,10.275,10.275,0,0,0,3.823-3.072l-.683-.819a8.176,8.176,0,0,1-5.188,1.706,7.48,7.48,0,0,1-6.28-2.73,10.093,10.093,0,0,1-2.048-7.167h14.608a12.362,12.362,0,0,0-2.526-8.055,8.815,8.815,0,0,0-7.167-3.072c-3.823,0-6.758,1.229-8.874,3.618a12.779,12.779,0,0,0-3.14,8.806A11.676,11.676,0,0,0,98,32.512Zm5.051-17.133c.751-1.638,1.706-2.457,3-2.457,2.048,0,3.072,2.594,3.072,7.85l-7.236.137a14.269,14.269,0,0,1,1.16-5.529Zm31.673-2.73a17.123,17.123,0,0,0-6.962-1.3,10.237,10.237,0,0,0-6.826,2.184,6.72,6.72,0,0,0-2.594,5.324,5.83,5.83,0,0,0,1.57,4.3,12.934,12.934,0,0,0,4.778,2.662,12.98,12.98,0,0,1,3.959,1.98,3.388,3.388,0,0,1,0,4.983,3.658,3.658,0,0,1-2.867,1.092c-3,0-5.256-2.184-6.826-6.553l-1.16.341.273,6.826a22.43,22.43,0,0,0,8.191,1.433c3.14,0,5.529-.683,7.3-2.116a6.95,6.95,0,0,0,2.662-5.8,5.954,5.954,0,0,0-1.3-4.027,11.188,11.188,0,0,0-4.369-2.73A17.063,17.063,0,0,1,125.915,19a3.134,3.134,0,0,1-1.229-2.526,3.575,3.575,0,0,1,.887-2.526,2.9,2.9,0,0,1,2.321-.956c2.73,0,4.71,1.98,5.939,5.87l1.16-.341Zm-65.666-.614a6.835,6.835,0,0,0-3.14-.683A6.131,6.131,0,0,0,62.3,12.785a9.224,9.224,0,0,0-3,4.027l.068-5.461L48.987,13.4v.956l1.024.068c1.3.137,2.048,1.16,2.184,3a74.42,74.42,0,0,1,0,13.515c-.137,1.843-.887,2.8-2.184,3l-1.024.137v1.3H63.458v-1.3l-1.843-.137c-1.3-.137-2.048-1.16-2.184-3a69.732,69.732,0,0,1-.137-12.56,3.289,3.289,0,0,1,2.662-1.229,7.728,7.728,0,0,1,4.573,1.229Z" transform="translate(8 6)" fill="#33629a"/>
  </g>
</svg>
