<svg width="102" height="38" viewBox="0 0 102 38" fill="none" xmlns="http://www.w3.org/2000/svg">
<path d="M6.49045 37.7215C4.27867 37.7215 2.64157 37.1955 1.57915 36.1434C0.526383 35.0816 0 33.4456 0 31.2352V24.5463C0 22.3166 0.531212 20.6806 1.59364 19.6381C2.65606 18.586 4.28833 18.0696 6.49045 18.0889H9.96747C12.1889 18.0889 13.826 18.615 14.8788 19.6671C15.9315 20.7192 16.4579 22.3552 16.4579 24.5752V31.2352C16.4579 33.4456 15.9315 35.0816 14.8788 36.1434C13.826 37.1955 12.1889 37.7215 9.96747 37.7215H6.49045ZM6.49045 35.2892H9.96747C11.0009 35.2892 11.8122 35.1685 12.4014 34.9272C12.9906 34.6762 13.4059 34.2564 13.6473 33.6676C13.8984 33.0788 14.024 32.268 14.024 31.2352V24.5752C14.024 23.5521 13.8984 22.7461 13.6473 22.1573C13.4059 21.5686 12.9906 21.1487 12.4014 20.8977C11.8122 20.6468 11.0009 20.5213 9.96747 20.5213H6.49045C5.46666 20.5116 4.66018 20.6275 4.07102 20.8688C3.48186 21.1101 3.06171 21.5251 2.8106 22.1139C2.55948 22.7027 2.43392 23.5135 2.43392 24.5463V31.2352C2.43392 32.268 2.55465 33.0788 2.79611 33.6676C3.04723 34.2564 3.46737 34.6762 4.05653 34.9272C4.64569 35.1685 5.457 35.2892 6.49045 35.2892Z" fill="white"/>
<path d="M27.3818 37.7215C26.8796 37.7215 26.4836 37.403 26.1938 36.7659L19.0369 19.8263C18.8921 19.4885 18.8534 19.1893 18.921 18.9287C18.9886 18.6584 19.2108 18.4364 19.5875 18.2627C20.3795 17.8669 20.9396 18.0696 21.268 18.8708L28.0337 34.8838H27.1935L33.7853 18.8708C34.1041 18.0793 34.6642 17.8766 35.4659 18.2627C35.8039 18.4364 36.0116 18.6584 36.0889 18.9287C36.1758 19.1893 36.1516 19.4885 36.0164 19.8263L28.8016 36.7659C28.5022 37.403 28.0675 37.7215 27.4977 37.7215H27.3818Z" fill="white"/>
<path d="M45.9938 37.7215C45.5882 37.7215 45.284 37.6202 45.0811 37.4175C44.8783 37.2148 44.7769 36.9107 44.7769 36.5053V20.5503H39.1557C38.75 20.5503 38.4458 20.4489 38.243 20.2462C38.0402 20.0435 37.9387 19.7395 37.9387 19.3341C37.9387 18.9287 38.0402 18.6246 38.243 18.4219C38.4458 18.2192 38.75 18.1179 39.1557 18.1179H52.832C53.2377 18.1179 53.5419 18.2192 53.7447 18.4219C53.9475 18.6246 54.049 18.9287 54.049 19.3341C54.049 19.7395 53.9475 20.0435 53.7447 20.2462C53.5419 20.4489 53.2377 20.5503 52.832 20.5503H47.2108V36.5053C47.2108 36.8914 47.1046 37.1906 46.8921 37.403C46.6893 37.6153 46.3898 37.7215 45.9938 37.7215Z" fill="white"/>
<path d="M59.1271 37.7215C58.3158 37.7215 57.9101 37.3161 57.9101 36.5053V19.3051C57.9101 18.4943 58.3158 18.0889 59.1271 18.0889C59.9384 18.0889 60.3441 18.4943 60.3441 19.3051V35.2892H68.3702C69.1815 35.2892 69.5871 35.6946 69.5871 36.5053C69.5871 37.3161 69.1815 37.7215 68.3702 37.7215H59.1271Z" fill="white"/>
<path d="M76.4516 37.7215C75.6402 37.7215 75.2346 37.3161 75.2346 36.5053V30.5982L68.5993 20.029C68.1936 19.3341 68.3192 18.7646 68.9759 18.3206C69.6714 17.8959 70.2315 18.0214 70.6565 18.697L76.4516 27.9921L82.5363 18.697C82.7392 18.3785 82.9855 18.1903 83.2752 18.1324C83.565 18.0648 83.8692 18.1469 84.1879 18.3785C84.893 18.8129 85.0186 19.363 84.5646 20.029L77.6685 30.5982V36.5053C77.6685 37.3161 77.2629 37.7215 76.4516 37.7215Z" fill="white"/>
<path d="M101.16 37.7794C100.841 37.9821 100.537 38.0449 100.247 37.9676C99.9572 37.8904 99.711 37.6926 99.5081 37.374L95.017 29.9032H90.9604V36.5053C90.9604 37.3161 90.5548 37.7215 89.7435 37.7215C88.9322 37.7215 88.5265 37.3161 88.5265 36.5053V19.3051C88.5265 18.4943 88.9322 18.0889 89.7435 18.0889H96.5237C98.2912 18.0889 99.6433 18.5619 100.58 19.5078C101.527 20.4441 102 21.7954 102 23.5617V24.4304C102 25.9651 101.643 27.191 100.928 28.1079C100.213 29.0152 99.1797 29.5799 97.8276 29.8019L101.623 36.1289C101.99 36.8046 101.836 37.3547 101.16 37.7794ZM90.9604 27.4709H96.5237C97.6247 27.4709 98.4071 27.2392 98.8707 26.7759C99.3343 26.3126 99.5661 25.5308 99.5661 24.4304V23.5617C99.5661 22.471 99.3343 21.694 98.8707 21.2307C98.4071 20.7578 97.6247 20.5213 96.5237 20.5213H90.9604V27.4709Z" fill="white"/>
<path d="M58.3482 14.5578C57.333 12.0898 55.8451 9.84721 53.9693 7.95822C52.0936 6.06923 49.8667 4.5708 47.4159 3.54849C44.9651 2.52618 42.3384 2 39.6856 2C37.0329 2 34.4062 2.52618 31.9553 3.54849C29.5045 4.57081 27.2777 6.06923 25.4019 7.95822C23.5262 9.84721 22.0382 12.0898 21.0231 14.5578" stroke="#4285F4" stroke-width="2.26248" stroke-linecap="round" stroke-linejoin="round"/>
</svg>
