<svg width="477" height="77" viewBox="0 0 477 77" fill="none" xmlns="http://www.w3.org/2000/svg">
<circle cx="8" cy="8" r="8" transform="matrix(-1 0 0 1 16 61)" fill="#D0E0FA"/>
<circle cx="12" cy="12" r="12" transform="matrix(-1 0 0 1 43 39)" fill="#D0E0FA"/>
<rect x="43" width="434" height="41" rx="20.5" fill="#D0E0FA"/>
<path d="M73.824 26V15.904H70.48V14.8H78.512V15.904H75.168V26H73.824ZM80.0888 26V14.48H81.4328V19.296C81.6994 18.816 82.0728 18.4373 82.5528 18.16C83.0434 17.8827 83.5768 17.744 84.1528 17.744C84.7714 17.744 85.3101 17.872 85.7688 18.128C86.2274 18.3733 86.5794 18.752 86.8248 19.264C87.0701 19.776 87.1927 20.4213 87.1927 21.2V26H85.8648V21.344C85.8648 20.5333 85.6941 19.9253 85.3528 19.52C85.0114 19.104 84.5154 18.896 83.8648 18.896C83.4061 18.896 82.9901 19.008 82.6168 19.232C82.2541 19.456 81.9661 19.776 81.7528 20.192C81.5394 20.608 81.4328 21.12 81.4328 21.728V26H80.0888ZM91.9159 26.192C91.2652 26.192 90.7212 26.08 90.2839 25.856C89.8465 25.6213 89.5212 25.3173 89.3079 24.944C89.0945 24.56 88.9879 24.144 88.9879 23.696C88.9879 23.152 89.1265 22.6933 89.4039 22.32C89.6919 21.936 90.0919 21.648 90.6039 21.456C91.1265 21.2533 91.7399 21.152 92.4439 21.152H94.5719C94.5719 20.6507 94.4919 20.2347 94.3319 19.904C94.1825 19.5627 93.9585 19.3067 93.6599 19.136C93.3719 18.9653 93.0092 18.88 92.5719 18.88C92.0599 18.88 91.6172 19.008 91.2439 19.264C90.8705 19.52 90.6412 19.8987 90.5559 20.4H89.1799C89.2439 19.824 89.4359 19.344 89.7559 18.96C90.0865 18.5653 90.5025 18.2667 91.0039 18.064C91.5052 17.8507 92.0279 17.744 92.5719 17.744C93.3185 17.744 93.9372 17.8827 94.4279 18.16C94.9292 18.4267 95.3025 18.8053 95.5479 19.296C95.7932 19.776 95.9159 20.3467 95.9159 21.008V26H94.7159L94.6359 24.576C94.5292 24.8 94.3905 25.0133 94.2199 25.216C94.0599 25.408 93.8679 25.5787 93.6439 25.728C93.4199 25.8667 93.1639 25.9787 92.8759 26.064C92.5985 26.1493 92.2785 26.192 91.9159 26.192ZM92.1239 25.056C92.4972 25.056 92.8332 24.9813 93.1319 24.832C93.4412 24.672 93.7025 24.4587 93.9159 24.192C94.1292 23.9147 94.2892 23.6107 94.3959 23.28C94.5132 22.9493 94.5719 22.6027 94.5719 22.24V22.192H92.5559C92.0332 22.192 91.6119 22.256 91.2919 22.384C90.9719 22.5013 90.7425 22.672 90.6039 22.896C90.4652 23.1093 90.3959 23.3547 90.3959 23.632C90.3959 23.92 90.4599 24.1707 90.5879 24.384C90.7265 24.5973 90.9239 24.7627 91.1799 24.88C91.4465 24.9973 91.7612 25.056 92.1239 25.056ZM97.995 26V17.936H99.211L99.275 19.344C99.531 18.8427 99.8937 18.4533 100.363 18.176C100.843 17.888 101.387 17.744 101.995 17.744C102.624 17.744 103.168 17.872 103.627 18.128C104.086 18.3733 104.443 18.752 104.699 19.264C104.955 19.7653 105.083 20.4053 105.083 21.184V26H103.739V21.328C103.739 20.5173 103.558 19.9093 103.195 19.504C102.843 19.0987 102.342 18.896 101.691 18.896C101.243 18.896 100.843 19.008 100.491 19.232C100.139 19.4453 99.8563 19.76 99.643 20.176C99.4403 20.5813 99.339 21.088 99.339 21.696V26H97.995ZM112.143 26L108.303 21.584L111.807 17.936H113.455L109.439 22.064L109.455 21.104L113.855 26H112.143ZM107.183 26V14.48H108.527V26H107.183ZM117.816 26.192C117.144 26.192 116.558 26.08 116.056 25.856C115.566 25.632 115.171 25.3227 114.872 24.928C114.584 24.5227 114.408 24.048 114.344 23.504H115.72C115.774 23.7813 115.886 24.0373 116.056 24.272C116.227 24.5067 116.456 24.6987 116.744 24.848C117.043 24.9867 117.406 25.056 117.832 25.056C118.206 25.056 118.515 25.0027 118.76 24.896C119.006 24.7787 119.187 24.624 119.304 24.432C119.432 24.24 119.496 24.032 119.496 23.808C119.496 23.4773 119.416 23.2267 119.256 23.056C119.107 22.8853 118.883 22.752 118.584 22.656C118.286 22.5493 117.923 22.4587 117.496 22.384C117.144 22.32 116.798 22.2347 116.456 22.128C116.115 22.0213 115.811 21.8827 115.544 21.712C115.278 21.5307 115.064 21.312 114.904 21.056C114.755 20.8 114.68 20.4853 114.68 20.112C114.68 19.6533 114.798 19.248 115.032 18.896C115.267 18.5333 115.603 18.2507 116.04 18.048C116.488 17.8453 117.006 17.744 117.592 17.744C118.456 17.744 119.155 17.952 119.688 18.368C120.222 18.784 120.536 19.3867 120.632 20.176H119.304C119.251 19.7707 119.075 19.456 118.776 19.232C118.488 18.9973 118.088 18.88 117.576 18.88C117.075 18.88 116.691 18.9813 116.424 19.184C116.168 19.3867 116.04 19.6533 116.04 19.984C116.04 20.1973 116.11 20.3893 116.248 20.56C116.398 20.72 116.611 20.8587 116.888 20.976C117.176 21.0933 117.528 21.1893 117.944 21.264C118.478 21.36 118.963 21.488 119.4 21.648C119.838 21.808 120.19 22.048 120.456 22.368C120.734 22.6773 120.872 23.12 120.872 23.696C120.872 24.1973 120.744 24.6347 120.488 25.008C120.243 25.3813 119.891 25.6747 119.432 25.888C118.974 26.0907 118.435 26.192 117.816 26.192ZM127.506 26V16.688C127.506 16.176 127.591 15.76 127.762 15.44C127.932 15.1093 128.183 14.8693 128.514 14.72C128.855 14.56 129.271 14.48 129.762 14.48H130.674V15.632H129.97C129.575 15.632 129.287 15.712 129.106 15.872C128.935 16.032 128.85 16.3147 128.85 16.72V26H127.506ZM126.274 19.072V17.936H130.882V19.072H126.274ZM135.783 26.192C135.036 26.192 134.364 26.0213 133.767 25.68C133.169 25.328 132.7 24.8373 132.359 24.208C132.017 23.568 131.847 22.8267 131.847 21.984C131.847 21.12 132.017 20.3733 132.359 19.744C132.711 19.104 133.185 18.6133 133.783 18.272C134.391 17.92 135.068 17.744 135.815 17.744C136.583 17.744 137.26 17.92 137.847 18.272C138.444 18.6133 138.913 19.104 139.255 19.744C139.607 20.3733 139.783 21.1147 139.783 21.968C139.783 22.8213 139.607 23.568 139.255 24.208C138.903 24.8373 138.428 25.328 137.831 25.68C137.233 26.0213 136.551 26.192 135.783 26.192ZM135.799 25.04C136.257 25.04 136.684 24.928 137.079 24.704C137.473 24.4693 137.793 24.1227 138.039 23.664C138.284 23.2053 138.407 22.64 138.407 21.968C138.407 21.2853 138.284 20.72 138.039 20.272C137.804 19.8133 137.489 19.472 137.095 19.248C136.711 19.0133 136.284 18.896 135.815 18.896C135.367 18.896 134.94 19.0133 134.535 19.248C134.14 19.472 133.82 19.8133 133.575 20.272C133.34 20.72 133.223 21.2853 133.223 21.968C133.223 22.64 133.34 23.2053 133.575 23.664C133.82 24.1227 134.135 24.4693 134.519 24.704C134.913 24.928 135.34 25.04 135.799 25.04ZM141.667 26V17.936H142.883L142.979 19.472C143.16 19.1093 143.39 18.8 143.667 18.544C143.955 18.288 144.296 18.0907 144.691 17.952C145.096 17.8133 145.555 17.744 146.067 17.744V19.152H145.571C145.23 19.152 144.904 19.2 144.595 19.296C144.286 19.3813 144.008 19.5253 143.763 19.728C143.528 19.9307 143.342 20.208 143.203 20.56C143.075 20.9013 143.011 21.328 143.011 21.84V26H141.667ZM155.007 26C154.527 26 154.111 25.9253 153.759 25.776C153.407 25.6267 153.135 25.376 152.943 25.024C152.761 24.6613 152.671 24.176 152.671 23.568V19.072H151.263V17.936H152.671L152.847 15.984H154.015V17.936H156.351V19.072H154.015V23.568C154.015 24.0693 154.116 24.4107 154.319 24.592C154.521 24.7627 154.879 24.848 155.391 24.848H156.255V26H155.007ZM161.032 26.192C160.414 26.192 159.87 26.0693 159.4 25.824C158.942 25.5787 158.584 25.2 158.328 24.688C158.083 24.176 157.96 23.536 157.96 22.768V17.936H159.304V22.624C159.304 23.424 159.48 24.0267 159.832 24.432C160.184 24.8373 160.68 25.04 161.32 25.04C161.768 25.04 162.174 24.9333 162.536 24.72C162.899 24.496 163.182 24.1813 163.384 23.776C163.598 23.36 163.704 22.8533 163.704 22.256V17.936H165.048V26H163.832L163.752 24.592C163.507 25.0933 163.144 25.488 162.664 25.776C162.184 26.0533 161.64 26.192 161.032 26.192ZM167.276 26V17.936H168.492L168.556 19.344C168.812 18.8427 169.175 18.4533 169.644 18.176C170.124 17.888 170.668 17.744 171.276 17.744C171.906 17.744 172.45 17.872 172.908 18.128C173.367 18.3733 173.724 18.752 173.98 19.264C174.236 19.7653 174.364 20.4053 174.364 21.184V26H173.02V21.328C173.02 20.5173 172.839 19.9093 172.476 19.504C172.124 19.0987 171.623 18.896 170.972 18.896C170.524 18.896 170.124 19.008 169.772 19.232C169.42 19.4453 169.138 19.76 168.924 20.176C168.722 20.5813 168.62 21.088 168.62 21.696V26H167.276ZM176.592 26V17.936H177.936V26H176.592ZM177.264 16.224C176.997 16.224 176.773 16.1387 176.592 15.968C176.421 15.7867 176.336 15.5627 176.336 15.296C176.336 15.0293 176.421 14.816 176.592 14.656C176.773 14.4853 176.997 14.4 177.264 14.4C177.52 14.4 177.738 14.4853 177.92 14.656C178.101 14.816 178.192 15.0293 178.192 15.296C178.192 15.5627 178.101 15.7867 177.92 15.968C177.738 16.1387 177.52 16.224 177.264 16.224ZM180.308 26V17.936H181.524L181.588 19.344C181.844 18.8427 182.206 18.4533 182.676 18.176C183.156 17.888 183.7 17.744 184.308 17.744C184.937 17.744 185.481 17.872 185.94 18.128C186.398 18.3733 186.756 18.752 187.012 19.264C187.268 19.7653 187.396 20.4053 187.396 21.184V26H186.052V21.328C186.052 20.5173 185.87 19.9093 185.508 19.504C185.156 19.0987 184.654 18.896 184.004 18.896C183.556 18.896 183.156 19.008 182.804 19.232C182.452 19.4453 182.169 19.76 181.956 20.176C181.753 20.5813 181.652 21.088 181.652 21.696V26H180.308ZM192.679 29.712C191.954 29.712 191.308 29.616 190.743 29.424C190.188 29.2427 189.756 28.96 189.447 28.576C189.138 28.192 188.983 27.7173 188.983 27.152C188.983 26.9067 189.031 26.6453 189.127 26.368C189.234 26.0907 189.41 25.8187 189.655 25.552C189.911 25.2853 190.268 25.0453 190.727 24.832L191.655 25.376C191.09 25.6107 190.722 25.8773 190.551 26.176C190.38 26.4853 190.295 26.768 190.295 27.024C190.295 27.376 190.396 27.6693 190.599 27.904C190.802 28.1387 191.084 28.3147 191.447 28.432C191.81 28.5493 192.22 28.608 192.679 28.608C193.138 28.608 193.532 28.544 193.863 28.416C194.194 28.288 194.45 28.1067 194.631 27.872C194.812 27.6373 194.903 27.36 194.903 27.04C194.903 26.6667 194.764 26.352 194.487 26.096C194.21 25.8507 193.682 25.7067 192.903 25.664C192.274 25.6213 191.746 25.5627 191.319 25.488C190.892 25.4133 190.54 25.328 190.263 25.232C189.986 25.1253 189.751 25.008 189.559 24.88C189.378 24.752 189.212 24.6187 189.063 24.48V24.112L190.615 22.576L191.783 22.992L190.183 24.432L190.391 23.872C190.508 23.9573 190.62 24.0373 190.727 24.112C190.834 24.1867 190.978 24.2507 191.159 24.304C191.34 24.3573 191.591 24.4053 191.911 24.448C192.242 24.4907 192.674 24.5333 193.207 24.576C193.943 24.6293 194.53 24.7573 194.967 24.96C195.415 25.1627 195.735 25.4347 195.927 25.776C196.13 26.1173 196.231 26.5227 196.231 26.992C196.231 27.4507 196.103 27.8827 195.847 28.288C195.602 28.704 195.218 29.0453 194.695 29.312C194.172 29.5787 193.5 29.712 192.679 29.712ZM192.663 23.472C191.991 23.472 191.415 23.344 190.935 23.088C190.466 22.832 190.108 22.4907 189.863 22.064C189.618 21.6267 189.495 21.1413 189.495 20.608C189.495 20.0747 189.618 19.5947 189.863 19.168C190.119 18.7413 190.482 18.4 190.951 18.144C191.42 17.8773 191.991 17.744 192.663 17.744C193.335 17.744 193.906 17.8773 194.375 18.144C194.844 18.4 195.202 18.7413 195.447 19.168C195.692 19.5947 195.815 20.0747 195.815 20.608C195.815 21.1413 195.692 21.6267 195.447 22.064C195.202 22.4907 194.844 22.832 194.375 23.088C193.906 23.344 193.335 23.472 192.663 23.472ZM192.663 22.368C193.239 22.368 193.692 22.2187 194.023 21.92C194.354 21.6213 194.519 21.184 194.519 20.608C194.519 20.0427 194.354 19.6107 194.023 19.312C193.692 19.0133 193.239 18.864 192.663 18.864C192.098 18.864 191.639 19.0133 191.287 19.312C190.946 19.6107 190.775 20.0427 190.775 20.608C190.775 21.184 190.946 21.6213 191.287 21.92C191.628 22.2187 192.087 22.368 192.663 22.368ZM193.975 19.072L193.575 17.936H196.871V18.944L193.975 19.072ZM202.795 26V17.936H204.139V26H202.795ZM203.467 16.224C203.2 16.224 202.976 16.1387 202.795 15.968C202.624 15.7867 202.539 15.5627 202.539 15.296C202.539 15.0293 202.624 14.816 202.795 14.656C202.976 14.4853 203.2 14.4 203.467 14.4C203.723 14.4 203.942 14.4853 204.123 14.656C204.304 14.816 204.395 15.0293 204.395 15.296C204.395 15.5627 204.304 15.7867 204.123 15.968C203.942 16.1387 203.723 16.224 203.467 16.224ZM206.511 26V17.936H207.727L207.791 19.344C208.047 18.8427 208.409 18.4533 208.879 18.176C209.359 17.888 209.903 17.744 210.511 17.744C211.14 17.744 211.684 17.872 212.143 18.128C212.601 18.3733 212.959 18.752 213.215 19.264C213.471 19.7653 213.599 20.4053 213.599 21.184V26H212.255V21.328C212.255 20.5173 212.073 19.9093 211.711 19.504C211.359 19.0987 210.857 18.896 210.207 18.896C209.759 18.896 209.359 19.008 209.007 19.232C208.655 19.4453 208.372 19.76 208.159 20.176C207.956 20.5813 207.855 21.088 207.855 21.696V26H206.511ZM221.58 26L219.212 17.936H220.556L222.396 24.736H222.156L224.156 17.936H225.676L227.708 24.72L227.452 24.736L229.276 17.936H230.636L228.284 26H226.908L224.796 18.896H225.068L222.956 26H221.58ZM232.279 26V17.936H233.623V26H232.279ZM232.951 16.224C232.685 16.224 232.461 16.1387 232.279 15.968C232.109 15.7867 232.023 15.5627 232.023 15.296C232.023 15.0293 232.109 14.816 232.279 14.656C232.461 14.4853 232.685 14.4 232.951 14.4C233.207 14.4 233.426 14.4853 233.607 14.656C233.789 14.816 233.879 15.0293 233.879 15.296C233.879 15.5627 233.789 15.7867 233.607 15.968C233.426 16.1387 233.207 16.224 232.951 16.224ZM239.163 26C238.683 26 238.267 25.9253 237.915 25.776C237.563 25.6267 237.291 25.376 237.099 25.024C236.918 24.6613 236.827 24.176 236.827 23.568V19.072H235.419V17.936H236.827L237.003 15.984H238.171V17.936H240.507V19.072H238.171V23.568C238.171 24.0693 238.272 24.4107 238.475 24.592C238.678 24.7627 239.035 24.848 239.547 24.848H240.411V26H239.163ZM242.261 26V14.48H243.605V19.296C243.871 18.816 244.245 18.4373 244.725 18.16C245.215 17.8827 245.749 17.744 246.325 17.744C246.943 17.744 247.482 17.872 247.941 18.128C248.399 18.3733 248.751 18.752 248.997 19.264C249.242 19.776 249.365 20.4213 249.365 21.2V26H248.037V21.344C248.037 20.5333 247.866 19.9253 247.525 19.52C247.183 19.104 246.687 18.896 246.037 18.896C245.578 18.896 245.162 19.008 244.789 19.232C244.426 19.456 244.138 19.776 243.925 20.192C243.711 20.608 243.605 21.12 243.605 21.728V26H242.261ZM256.594 29.52L258.562 25.104H258.098L254.93 17.936H256.386L259.01 24.096L261.762 17.936H263.154L258.002 29.52H256.594ZM267.454 26.192C266.708 26.192 266.036 26.0213 265.438 25.68C264.841 25.328 264.372 24.8373 264.03 24.208C263.689 23.568 263.518 22.8267 263.518 21.984C263.518 21.12 263.689 20.3733 264.03 19.744C264.382 19.104 264.857 18.6133 265.454 18.272C266.062 17.92 266.74 17.744 267.486 17.744C268.254 17.744 268.932 17.92 269.518 18.272C270.116 18.6133 270.585 19.104 270.926 19.744C271.278 20.3733 271.454 21.1147 271.454 21.968C271.454 22.8213 271.278 23.568 270.926 24.208C270.574 24.8373 270.1 25.328 269.502 25.68C268.905 26.0213 268.222 26.192 267.454 26.192ZM267.47 25.04C267.929 25.04 268.356 24.928 268.75 24.704C269.145 24.4693 269.465 24.1227 269.71 23.664C269.956 23.2053 270.078 22.64 270.078 21.968C270.078 21.2853 269.956 20.72 269.71 20.272C269.476 19.8133 269.161 19.472 268.766 19.248C268.382 19.0133 267.956 18.896 267.486 18.896C267.038 18.896 266.612 19.0133 266.206 19.248C265.812 19.472 265.492 19.8133 265.246 20.272C265.012 20.72 264.894 21.2853 264.894 21.968C264.894 22.64 265.012 23.2053 265.246 23.664C265.492 24.1227 265.806 24.4693 266.19 24.704C266.585 24.928 267.012 25.04 267.47 25.04ZM276.267 26.192C275.648 26.192 275.104 26.0693 274.635 25.824C274.176 25.5787 273.819 25.2 273.563 24.688C273.317 24.176 273.195 23.536 273.195 22.768V17.936H274.539V22.624C274.539 23.424 274.715 24.0267 275.067 24.432C275.419 24.8373 275.915 25.04 276.555 25.04C277.003 25.04 277.408 24.9333 277.771 24.72C278.133 24.496 278.416 24.1813 278.619 23.776C278.832 23.36 278.939 22.8533 278.939 22.256V17.936H280.283V26H279.067L278.987 24.592C278.741 25.0933 278.379 25.488 277.899 25.776C277.419 26.0533 276.875 26.192 276.267 26.192ZM282.511 26V17.936H283.727L283.823 19.472C284.004 19.1093 284.233 18.8 284.511 18.544C284.799 18.288 285.14 18.0907 285.535 17.952C285.94 17.8133 286.399 17.744 286.911 17.744V19.152H286.415C286.073 19.152 285.748 19.2 285.439 19.296C285.129 19.3813 284.852 19.5253 284.607 19.728C284.372 19.9307 284.185 20.208 284.047 20.56C283.919 20.9013 283.855 21.328 283.855 21.84V26H282.511ZM292.683 26V14.48H294.027V19.296C294.293 18.816 294.667 18.4373 295.147 18.16C295.637 17.8827 296.171 17.744 296.747 17.744C297.365 17.744 297.904 17.872 298.363 18.128C298.821 18.3733 299.173 18.752 299.419 19.264C299.664 19.776 299.786 20.4213 299.786 21.2V26H298.459V21.344C298.459 20.5333 298.288 19.9253 297.947 19.52C297.605 19.104 297.109 18.896 296.459 18.896C296 18.896 295.584 19.008 295.211 19.232C294.848 19.456 294.56 19.776 294.347 20.192C294.133 20.608 294.027 21.12 294.027 21.728V26H292.683ZM305.486 26.192C304.739 26.192 304.067 26.0213 303.47 25.68C302.872 25.328 302.403 24.8373 302.062 24.208C301.72 23.568 301.55 22.8267 301.55 21.984C301.55 21.12 301.72 20.3733 302.062 19.744C302.414 19.104 302.888 18.6133 303.486 18.272C304.094 17.92 304.771 17.744 305.518 17.744C306.286 17.744 306.963 17.92 307.55 18.272C308.147 18.6133 308.616 19.104 308.958 19.744C309.31 20.3733 309.486 21.1147 309.486 21.968C309.486 22.8213 309.31 23.568 308.958 24.208C308.606 24.8373 308.131 25.328 307.534 25.68C306.936 26.0213 306.254 26.192 305.486 26.192ZM305.502 25.04C305.96 25.04 306.387 24.928 306.782 24.704C307.176 24.4693 307.496 24.1227 307.742 23.664C307.987 23.2053 308.11 22.64 308.11 21.968C308.11 21.2853 307.987 20.72 307.742 20.272C307.507 19.8133 307.192 19.472 306.798 19.248C306.414 19.0133 305.987 18.896 305.518 18.896C305.07 18.896 304.643 19.0133 304.238 19.248C303.843 19.472 303.523 19.8133 303.278 20.272C303.043 20.72 302.926 21.2853 302.926 21.968C302.926 22.64 303.043 23.2053 303.278 23.664C303.523 24.1227 303.838 24.4693 304.222 24.704C304.616 24.928 305.043 25.04 305.502 25.04ZM314.41 26.192C313.738 26.192 313.151 26.08 312.65 25.856C312.159 25.632 311.765 25.3227 311.466 24.928C311.178 24.5227 311.002 24.048 310.938 23.504H312.314C312.367 23.7813 312.479 24.0373 312.65 24.272C312.821 24.5067 313.05 24.6987 313.338 24.848C313.637 24.9867 313.999 25.056 314.426 25.056C314.799 25.056 315.109 25.0027 315.354 24.896C315.599 24.7787 315.781 24.624 315.898 24.432C316.026 24.24 316.09 24.032 316.09 23.808C316.09 23.4773 316.01 23.2267 315.85 23.056C315.701 22.8853 315.477 22.752 315.178 22.656C314.879 22.5493 314.517 22.4587 314.09 22.384C313.738 22.32 313.391 22.2347 313.05 22.128C312.709 22.0213 312.405 21.8827 312.138 21.712C311.871 21.5307 311.658 21.312 311.498 21.056C311.349 20.8 311.274 20.4853 311.274 20.112C311.274 19.6533 311.391 19.248 311.626 18.896C311.861 18.5333 312.197 18.2507 312.634 18.048C313.082 17.8453 313.599 17.744 314.186 17.744C315.05 17.744 315.749 17.952 316.282 18.368C316.815 18.784 317.13 19.3867 317.226 20.176H315.898C315.845 19.7707 315.669 19.456 315.37 19.232C315.082 18.9973 314.682 18.88 314.17 18.88C313.669 18.88 313.285 18.9813 313.018 19.184C312.762 19.3867 312.634 19.6533 312.634 19.984C312.634 20.1973 312.703 20.3893 312.842 20.56C312.991 20.72 313.205 20.8587 313.482 20.976C313.77 21.0933 314.122 21.1893 314.538 21.264C315.071 21.36 315.557 21.488 315.994 21.648C316.431 21.808 316.783 22.048 317.05 22.368C317.327 22.6773 317.466 23.12 317.466 23.696C317.466 24.1973 317.338 24.6347 317.082 25.008C316.837 25.3813 316.485 25.6747 316.026 25.888C315.567 26.0907 315.029 26.192 314.41 26.192ZM322.21 26C321.73 26 321.314 25.9253 320.962 25.776C320.61 25.6267 320.338 25.376 320.146 25.024C319.965 24.6613 319.874 24.176 319.874 23.568V19.072H318.466V17.936H319.874L320.05 15.984H321.218V17.936H323.554V19.072H321.218V23.568C321.218 24.0693 321.319 24.4107 321.522 24.592C321.725 24.7627 322.082 24.848 322.594 24.848H323.458V26H322.21ZM325.08 27.968L326.008 24.432H327.4L326.008 27.968H325.08ZM338.236 26.192C337.148 26.192 336.204 25.952 335.404 25.472C334.615 24.9813 334.007 24.304 333.58 23.44C333.153 22.5653 332.94 21.552 332.94 20.4C332.94 19.248 333.153 18.24 333.58 17.376C334.007 16.5013 334.615 15.824 335.404 15.344C336.204 14.8533 337.148 14.608 338.236 14.608C339.516 14.608 340.556 14.912 341.356 15.52C342.156 16.128 342.668 16.9867 342.892 18.096H341.404C341.233 17.4027 340.887 16.848 340.364 16.432C339.841 16.0053 339.132 15.792 338.236 15.792C337.436 15.792 336.743 15.9787 336.156 16.352C335.569 16.7147 335.116 17.2427 334.796 17.936C334.476 18.6187 334.316 19.44 334.316 20.4C334.316 21.36 334.476 22.1867 334.796 22.88C335.116 23.5627 335.569 24.0907 336.156 24.464C336.743 24.8267 337.436 25.008 338.236 25.008C339.132 25.008 339.841 24.8053 340.364 24.4C340.887 23.984 341.233 23.4347 341.404 22.752H342.892C342.668 23.8293 342.156 24.672 341.356 25.28C340.556 25.888 339.516 26.192 338.236 26.192ZM344.761 26V14.48H346.105V19.296C346.371 18.816 346.745 18.4373 347.225 18.16C347.715 17.8827 348.249 17.744 348.825 17.744C349.443 17.744 349.982 17.872 350.441 18.128C350.899 18.3733 351.251 18.752 351.497 19.264C351.742 19.776 351.865 20.4213 351.865 21.2V26H350.537V21.344C350.537 20.5333 350.366 19.9253 350.025 19.52C349.683 19.104 349.187 18.896 348.537 18.896C348.078 18.896 347.662 19.008 347.289 19.232C346.926 19.456 346.638 19.776 346.425 20.192C346.211 20.608 346.105 21.12 346.105 21.728V26H344.761ZM353.964 26V17.936H355.18L355.276 19.472C355.457 19.1093 355.686 18.8 355.964 18.544C356.252 18.288 356.593 18.0907 356.988 17.952C357.393 17.8133 357.852 17.744 358.364 17.744V19.152H357.868C357.526 19.152 357.201 19.2 356.892 19.296C356.582 19.3813 356.305 19.5253 356.06 19.728C355.825 19.9307 355.638 20.208 355.5 20.56C355.372 20.9013 355.308 21.328 355.308 21.84V26H353.964ZM360.014 26V17.936H361.358V26H360.014ZM360.686 16.224C360.419 16.224 360.195 16.1387 360.014 15.968C359.843 15.7867 359.758 15.5627 359.758 15.296C359.758 15.0293 359.843 14.816 360.014 14.656C360.195 14.4853 360.419 14.4 360.686 14.4C360.942 14.4 361.16 14.4853 361.342 14.656C361.523 14.816 361.614 15.0293 361.614 15.296C361.614 15.5627 361.523 15.7867 361.342 15.968C361.16 16.1387 360.942 16.224 360.686 16.224ZM366.769 26.192C366.097 26.192 365.511 26.08 365.009 25.856C364.519 25.632 364.124 25.3227 363.825 24.928C363.537 24.5227 363.361 24.048 363.297 23.504H364.673C364.727 23.7813 364.839 24.0373 365.009 24.272C365.18 24.5067 365.409 24.6987 365.697 24.848C365.996 24.9867 366.359 25.056 366.785 25.056C367.159 25.056 367.468 25.0027 367.713 24.896C367.959 24.7787 368.14 24.624 368.257 24.432C368.385 24.24 368.449 24.032 368.449 23.808C368.449 23.4773 368.369 23.2267 368.209 23.056C368.06 22.8853 367.836 22.752 367.537 22.656C367.239 22.5493 366.876 22.4587 366.449 22.384C366.097 22.32 365.751 22.2347 365.409 22.128C365.068 22.0213 364.764 21.8827 364.497 21.712C364.231 21.5307 364.017 21.312 363.857 21.056C363.708 20.8 363.633 20.4853 363.633 20.112C363.633 19.6533 363.751 19.248 363.985 18.896C364.22 18.5333 364.556 18.2507 364.993 18.048C365.441 17.8453 365.959 17.744 366.545 17.744C367.409 17.744 368.108 17.952 368.641 18.368C369.175 18.784 369.489 19.3867 369.585 20.176H368.257C368.204 19.7707 368.028 19.456 367.729 19.232C367.441 18.9973 367.041 18.88 366.529 18.88C366.028 18.88 365.644 18.9813 365.377 19.184C365.121 19.3867 364.993 19.6533 364.993 19.984C364.993 20.1973 365.063 20.3893 365.201 20.56C365.351 20.72 365.564 20.8587 365.841 20.976C366.129 21.0933 366.481 21.1893 366.897 21.264C367.431 21.36 367.916 21.488 368.353 21.648C368.791 21.808 369.143 22.048 369.409 22.368C369.687 22.6773 369.825 23.12 369.825 23.696C369.825 24.1973 369.697 24.6347 369.441 25.008C369.196 25.3813 368.844 25.6747 368.385 25.888C367.927 26.0907 367.388 26.192 366.769 26.192ZM374.569 26C374.089 26 373.673 25.9253 373.321 25.776C372.969 25.6267 372.697 25.376 372.505 25.024C372.324 24.6613 372.233 24.176 372.233 23.568V19.072H370.825V17.936H372.233L372.409 15.984H373.577V17.936H375.913V19.072H373.577V23.568C373.577 24.0693 373.679 24.4107 373.881 24.592C374.084 24.7627 374.441 24.848 374.953 24.848H375.817V26H374.569ZM381.048 26.192C380.301 26.192 379.629 26.0213 379.032 25.68C378.435 25.328 377.965 24.8373 377.624 24.208C377.283 23.568 377.112 22.8267 377.112 21.984C377.112 21.12 377.283 20.3733 377.624 19.744C377.976 19.104 378.451 18.6133 379.048 18.272C379.656 17.92 380.333 17.744 381.08 17.744C381.848 17.744 382.525 17.92 383.112 18.272C383.709 18.6133 384.179 19.104 384.52 19.744C384.872 20.3733 385.048 21.1147 385.048 21.968C385.048 22.8213 384.872 23.568 384.52 24.208C384.168 24.8373 383.693 25.328 383.096 25.68C382.499 26.0213 381.816 26.192 381.048 26.192ZM381.064 25.04C381.523 25.04 381.949 24.928 382.344 24.704C382.739 24.4693 383.059 24.1227 383.304 23.664C383.549 23.2053 383.672 22.64 383.672 21.968C383.672 21.2853 383.549 20.72 383.304 20.272C383.069 19.8133 382.755 19.472 382.36 19.248C381.976 19.0133 381.549 18.896 381.08 18.896C380.632 18.896 380.205 19.0133 379.8 19.248C379.405 19.472 379.085 19.8133 378.84 20.272C378.605 20.72 378.488 21.2853 378.488 21.968C378.488 22.64 378.605 23.2053 378.84 23.664C379.085 24.1227 379.4 24.4693 379.784 24.704C380.179 24.928 380.605 25.04 381.064 25.04ZM386.933 29.52V17.936H388.149L388.261 19.248C388.431 18.992 388.65 18.752 388.917 18.528C389.183 18.2933 389.503 18.1067 389.877 17.968C390.25 17.8187 390.677 17.744 391.157 17.744C391.946 17.744 392.629 17.9307 393.205 18.304C393.791 18.6773 394.245 19.184 394.565 19.824C394.895 20.4533 395.061 21.1733 395.061 21.984C395.061 22.7947 394.895 23.52 394.565 24.16C394.245 24.7893 393.791 25.2853 393.205 25.648C392.618 26.0107 391.93 26.192 391.141 26.192C390.49 26.192 389.914 26.0587 389.413 25.792C388.922 25.5253 388.543 25.152 388.277 24.672V29.52H386.933ZM390.997 25.024C391.519 25.024 391.983 24.896 392.389 24.64C392.794 24.384 393.109 24.032 393.333 23.584C393.567 23.1253 393.685 22.5867 393.685 21.968C393.685 21.36 393.567 20.8267 393.333 20.368C393.109 19.9093 392.794 19.552 392.389 19.296C391.983 19.04 391.519 18.912 390.997 18.912C390.463 18.912 389.994 19.04 389.589 19.296C389.183 19.552 388.869 19.9093 388.645 20.368C388.421 20.8267 388.309 21.36 388.309 21.968C388.309 22.5867 388.421 23.1253 388.645 23.584C388.869 24.032 389.183 24.384 389.589 24.64C389.994 24.896 390.463 25.024 390.997 25.024ZM396.948 26V14.48H398.292V19.296C398.559 18.816 398.932 18.4373 399.412 18.16C399.903 17.8827 400.436 17.744 401.012 17.744C401.631 17.744 402.169 17.872 402.628 18.128C403.087 18.3733 403.439 18.752 403.684 19.264C403.929 19.776 404.052 20.4213 404.052 21.2V26H402.724V21.344C402.724 20.5333 402.553 19.9253 402.212 19.52C401.871 19.104 401.375 18.896 400.724 18.896C400.265 18.896 399.849 19.008 399.476 19.232C399.113 19.456 398.825 19.776 398.612 20.192C398.399 20.608 398.292 21.12 398.292 21.728V26H396.948ZM409.687 26.192C408.93 26.192 408.258 26.016 407.671 25.664C407.095 25.312 406.642 24.8213 406.311 24.192C405.981 23.552 405.815 22.8107 405.815 21.968C405.815 21.1147 405.975 20.3733 406.295 19.744C406.626 19.1147 407.085 18.624 407.671 18.272C408.269 17.92 408.951 17.744 409.719 17.744C410.509 17.744 411.175 17.92 411.719 18.272C412.274 18.624 412.695 19.088 412.983 19.664C413.282 20.2293 413.431 20.8533 413.431 21.536C413.431 21.6427 413.431 21.7547 413.431 21.872C413.431 21.9893 413.426 22.1227 413.415 22.272H406.823V21.232H412.119C412.087 20.496 411.842 19.92 411.383 19.504C410.935 19.088 410.37 18.88 409.687 18.88C409.229 18.88 408.802 18.9867 408.407 19.2C408.023 19.4027 407.714 19.7067 407.479 20.112C407.245 20.5067 407.127 21.0027 407.127 21.6V22.048C407.127 22.7093 407.245 23.264 407.479 23.712C407.725 24.16 408.039 24.496 408.423 24.72C408.818 24.944 409.239 25.056 409.687 25.056C410.253 25.056 410.717 24.9333 411.079 24.688C411.453 24.432 411.719 24.0907 411.879 23.664H413.207C413.079 24.144 412.855 24.576 412.535 24.96C412.215 25.344 411.815 25.648 411.335 25.872C410.866 26.0853 410.317 26.192 409.687 26.192ZM415.245 26V17.936H416.461L416.557 19.472C416.738 19.1093 416.968 18.8 417.245 18.544C417.533 18.288 417.874 18.0907 418.269 17.952C418.674 17.8133 419.133 17.744 419.645 17.744V19.152H419.149C418.808 19.152 418.482 19.2 418.173 19.296C417.864 19.3813 417.586 19.5253 417.341 19.728C417.106 19.9307 416.92 20.208 416.781 20.56C416.653 20.9013 416.589 21.328 416.589 21.84V26H415.245ZM429.529 26.192C428.761 26.192 428.062 26.0373 427.433 25.728C426.814 25.4187 426.318 24.9493 425.945 24.32C425.572 23.68 425.385 22.864 425.385 21.872V14.8H426.729V21.888C426.729 22.6133 426.846 23.2053 427.081 23.664C427.326 24.1227 427.662 24.4587 428.089 24.672C428.516 24.8853 429.006 24.992 429.561 24.992C430.126 24.992 430.617 24.8853 431.033 24.672C431.449 24.4587 431.774 24.1227 432.009 23.664C432.244 23.2053 432.361 22.6133 432.361 21.888V14.8H433.705V21.872C433.705 22.864 433.518 23.68 433.145 24.32C432.772 24.9493 432.27 25.4187 431.641 25.728C431.012 26.0373 430.308 26.192 429.529 26.192ZM435.901 26V14.48H437.245V19.296C437.512 18.816 437.885 18.4373 438.365 18.16C438.856 17.8827 439.389 17.744 439.965 17.744C440.584 17.744 441.123 17.872 441.581 18.128C442.04 18.3733 442.392 18.752 442.637 19.264C442.883 19.776 443.005 20.4213 443.005 21.2V26H441.677V21.344C441.677 20.5333 441.507 19.9253 441.165 19.52C440.824 19.104 440.328 18.896 439.677 18.896C439.219 18.896 438.803 19.008 438.429 19.232C438.067 19.456 437.779 19.776 437.565 20.192C437.352 20.608 437.245 21.12 437.245 21.728V26H435.901ZM445.104 26V14.48H446.448V26H445.104Z" fill="black"/>
</svg>
