<?xml version="1.0" encoding="utf-8"?>
<!-- Generator: Adobe Illustrator 27.0.0, SVG Export Plug-In . SVG Version: 6.00 Build 0)  -->
<svg version="1.1" id="Layer_1" xmlns="http://www.w3.org/2000/svg" xmlns:xlink="http://www.w3.org/1999/xlink" x="0px" y="0px"
	 viewBox="0 0 2060.5 930.2" style="enable-background:new 0 0 2060.5 930.2;" xml:space="preserve">
<style type="text/css">
	.st0{enable-background:new    ;}
	.st1{opacity:0.9;}
	.st2{fill:#749DD3;}
	.st3{fill:none;stroke:#7F7F7F;stroke-width:3;stroke-miterlimit:10;stroke-dasharray:16,5;}
	.st4{fill:none;stroke:#000000;stroke-width:3;stroke-miterlimit:10;stroke-dasharray:16,5;}
	.st5{fill:#4971B7;stroke:#000000;stroke-width:2;stroke-miterlimit:10;}
	.st6{fill:#FFFFFF;}
</style>
<g>
	<g class="st0">
		<path d="M14.4,457.9c-1.1,0-2.3-0.2-3.4-0.6s-2.1-1-2.9-1.9s-1.6-2.1-2.1-3.6s-0.8-3.3-0.8-5.5c0-2.1,0.2-3.9,0.7-5.5
			s1.1-3,1.9-4.1s1.8-2,3-2.6s2.5-0.9,3.9-0.9c1.5,0,2.8,0.3,4,0.9s2.1,1.4,2.8,2.4s1.2,2.2,1.3,3.5h-4.3c-0.2-1-0.7-1.7-1.3-2.3
			s-1.5-0.8-2.6-0.8c-1.7,0-2.9,0.7-3.8,2.2s-1.3,3.5-1.4,6h0.2c0.4-0.7,0.9-1.3,1.5-1.8s1.3-0.9,2.1-1.1s1.6-0.4,2.4-0.4
			c1.4,0,2.7,0.3,3.8,1s2,1.6,2.7,2.8s1,2.5,1,4c0,1.6-0.4,3-1.1,4.2s-1.7,2.2-3,3S16.2,457.9,14.4,457.9z M14.4,454.4
			c0.9,0,1.6-0.2,2.3-0.6s1.2-1,1.6-1.7s0.6-1.5,0.6-2.4c0-0.9-0.2-1.6-0.6-2.3c-0.4-0.7-0.9-1.2-1.6-1.7s-1.4-0.6-2.3-0.6
			c-0.6,0-1.2,0.1-1.8,0.4s-1,0.6-1.4,1s-0.7,0.9-1,1.5c-0.2,0.6-0.3,1.2-0.4,1.8c0,0.8,0.2,1.6,0.6,2.3s0.9,1.3,1.6,1.7
			S13.6,454.4,14.4,454.4z"/>
		<path d="M29.7,457.8c-0.7,0-1.3-0.2-1.8-0.8s-0.8-1.1-0.8-1.8c0-0.7,0.2-1.3,0.8-1.8s1.1-0.8,1.8-0.8c0.7,0,1.3,0.2,1.8,0.8
			c0.5,0.5,0.8,1.1,0.8,1.8c0,0.5-0.1,0.9-0.4,1.3c-0.2,0.4-0.6,0.7-0.9,0.9S30.2,457.8,29.7,457.8z"/>
		<path d="M45.5,458c-1.9,0-3.6-0.5-5-1.5s-2.4-2.4-3.2-4.3s-1.1-4.1-1.1-6.7c0-2.6,0.4-4.8,1.1-6.7s1.8-3.2,3.2-4.2s3-1.5,5-1.5
			s3.6,0.5,5,1.5s2.4,2.4,3.2,4.2s1.1,4.1,1.1,6.7c0,2.6-0.4,4.9-1.1,6.7s-1.8,3.3-3.2,4.2S47.4,458,45.5,458z M45.5,454.3
			c1.5,0,2.7-0.7,3.6-2.2s1.3-3.7,1.3-6.5c0-1.9-0.2-3.5-0.6-4.8s-1-2.3-1.7-2.9s-1.6-1-2.6-1c-1.5,0-2.7,0.7-3.5,2.2
			s-1.3,3.7-1.3,6.5c0,1.9,0.2,3.5,0.6,4.8s1,2.3,1.7,2.9S44.5,454.3,45.5,454.3z"/>
		<path d="M67.5,458c-1.9,0-3.6-0.5-5-1.5s-2.4-2.4-3.2-4.3s-1.1-4.1-1.1-6.7c0-2.6,0.4-4.8,1.1-6.7s1.8-3.2,3.2-4.2s3-1.5,5-1.5
			s3.6,0.5,5,1.5s2.4,2.4,3.2,4.2s1.1,4.1,1.1,6.7c0,2.6-0.4,4.9-1.1,6.7s-1.8,3.3-3.2,4.2S69.4,458,67.5,458z M67.5,454.3
			c1.5,0,2.7-0.7,3.6-2.2s1.3-3.7,1.3-6.5c0-1.9-0.2-3.5-0.6-4.8s-1-2.3-1.7-2.9s-1.6-1-2.6-1c-1.5,0-2.7,0.7-3.5,2.2
			c-0.9,1.5-1.3,3.7-1.3,6.5c0,1.9,0.2,3.5,0.6,4.8s1,2.3,1.7,2.9S66.5,454.3,67.5,454.3z"/>
	</g>
</g>
<g>
	<g class="st0">
		<path d="M13.6,536.5c-1.6,0-3-0.3-4.2-0.9s-2.2-1.4-2.9-2.4s-1.1-2.2-1.2-3.5h4.2c0.1,1,0.5,1.8,1.3,2.4s1.7,0.9,2.8,0.9
			c0.9,0,1.6-0.2,2.3-0.6s1.2-0.9,1.6-1.6s0.6-1.5,0.6-2.4c0-0.9-0.2-1.7-0.6-2.4s-0.9-1.3-1.6-1.7s-1.5-0.6-2.3-0.6
			c-0.7,0-1.4,0.1-2.1,0.4s-1.2,0.6-1.7,1.1l-3.9-0.6L7,512.2h13.9v3.6H10.6l-0.7,6.4H10c0.4-0.5,1.1-1,1.9-1.3s1.7-0.5,2.7-0.5
			c1.5,0,2.8,0.3,3.9,1s2,1.6,2.7,2.8s1,2.6,1,4.1c0,1.6-0.4,3-1.1,4.2s-1.7,2.2-3,2.9S15.3,536.5,13.6,536.5z"/>
		<path d="M28.7,536.4c-0.7,0-1.3-0.2-1.8-0.8s-0.8-1.1-0.8-1.8c0-0.7,0.2-1.3,0.8-1.8s1.1-0.8,1.8-0.8c0.7,0,1.3,0.2,1.8,0.8
			s0.8,1.1,0.8,1.8c0,0.5-0.1,0.9-0.4,1.3s-0.6,0.7-0.9,0.9S29.2,536.4,28.7,536.4z"/>
		<path d="M44.5,536.6c-1.9,0-3.6-0.5-5-1.5s-2.4-2.4-3.2-4.3s-1.1-4.1-1.1-6.7c0-2.6,0.4-4.8,1.1-6.7s1.8-3.2,3.2-4.2s3-1.5,5-1.5
			s3.6,0.5,5,1.5s2.4,2.4,3.2,4.2s1.1,4.1,1.1,6.7c0,2.6-0.4,4.9-1.1,6.7s-1.8,3.3-3.2,4.2S46.5,536.6,44.5,536.6z M44.5,533
			c1.5,0,2.7-0.7,3.6-2.2s1.3-3.7,1.3-6.5c0-1.9-0.2-3.5-0.6-4.8s-1-2.3-1.7-2.9s-1.6-1-2.6-1c-1.5,0-2.7,0.7-3.5,2.2
			s-1.3,3.7-1.3,6.5c0,1.9,0.2,3.5,0.6,4.8s1,2.3,1.7,2.9S43.5,533,44.5,533z"/>
		<path d="M66.5,536.6c-1.9,0-3.6-0.5-5-1.5s-2.4-2.4-3.2-4.3s-1.1-4.1-1.1-6.7c0-2.6,0.4-4.8,1.1-6.7s1.8-3.2,3.2-4.2s3-1.5,5-1.5
			s3.6,0.5,5,1.5s2.4,2.4,3.2,4.2s1.1,4.1,1.1,6.7c0,2.6-0.4,4.9-1.1,6.7s-1.8,3.3-3.2,4.2S68.5,536.6,66.5,536.6z M66.5,533
			c1.5,0,2.7-0.7,3.6-2.2s1.3-3.7,1.3-6.5c0-1.9-0.2-3.5-0.6-4.8s-1-2.3-1.7-2.9s-1.6-1-2.6-1c-1.5,0-2.7,0.7-3.5,2.2
			s-1.3,3.7-1.3,6.5c0,1.9,0.2,3.5,0.6,4.8s1,2.3,1.7,2.9C64.7,532.6,65.5,533,66.5,533z"/>
	</g>
</g>
<g>
	<g class="st0">
		<path d="M5.3,610.4v-3.5l10.2-16.1h2.9v4.9h-1.8l-6.9,10.9v0.2h14.2v3.6H5.3z M16.7,614.8v-5.5l0-1.5v-16.9h4.1v24H16.7z"/>
		<path d="M30.3,615.1c-0.7,0-1.3-0.2-1.8-0.8s-0.8-1.1-0.8-1.8c0-0.7,0.2-1.3,0.8-1.8s1.1-0.8,1.8-0.8c0.7,0,1.3,0.2,1.8,0.8
			c0.5,0.5,0.8,1.1,0.8,1.8c0,0.5-0.1,0.9-0.4,1.3s-0.6,0.7-0.9,0.9S30.8,615.1,30.3,615.1z"/>
		<path d="M46.1,615.3c-1.9,0-3.6-0.5-5-1.5s-2.4-2.4-3.2-4.3s-1.1-4.1-1.1-6.7c0-2.6,0.4-4.8,1.1-6.7s1.8-3.2,3.2-4.2s3-1.5,5-1.5
			s3.6,0.5,5,1.5s2.4,2.4,3.2,4.2s1.1,4.1,1.1,6.7c0,2.6-0.4,4.9-1.1,6.7s-1.8,3.3-3.2,4.2S48.1,615.3,46.1,615.3z M46.1,611.6
			c1.5,0,2.7-0.7,3.6-2.2s1.3-3.7,1.3-6.5c0-1.9-0.2-3.5-0.6-4.8s-1-2.3-1.7-2.9s-1.6-1-2.6-1c-1.5,0-2.7,0.7-3.5,2.2
			s-1.3,3.7-1.3,6.5c0,1.9,0.2,3.5,0.6,4.8s1,2.3,1.7,2.9S45.1,611.6,46.1,611.6z"/>
		<path d="M68.1,615.3c-1.9,0-3.6-0.5-5-1.5c-1.4-1-2.4-2.4-3.2-4.3s-1.1-4.1-1.1-6.7c0-2.6,0.4-4.8,1.1-6.7s1.8-3.2,3.2-4.2
			c1.4-1,3-1.5,5-1.5s3.6,0.5,5,1.5s2.4,2.4,3.2,4.2s1.1,4.1,1.1,6.7c0,2.6-0.4,4.9-1.1,6.7s-1.8,3.3-3.2,4.2S70.1,615.3,68.1,615.3
			z M68.1,611.6c1.5,0,2.7-0.7,3.6-2.2s1.3-3.7,1.3-6.5c0-1.9-0.2-3.5-0.6-4.8s-1-2.3-1.7-2.9s-1.6-1-2.6-1c-1.5,0-2.7,0.7-3.5,2.2
			c-0.9,1.5-1.3,3.7-1.3,6.5c0,1.9,0.2,3.5,0.6,4.8c0.4,1.3,1,2.3,1.7,2.9S67.1,611.6,68.1,611.6z"/>
	</g>
</g>
<g>
	<g class="st0">
		<path d="M14.1,693.8c-1.7,0-3.2-0.3-4.5-0.9s-2.3-1.4-3.1-2.4s-1.2-2.2-1.2-3.6h4.4c0,0.6,0.3,1.2,0.6,1.7s0.9,0.9,1.6,1.1
			s1.4,0.4,2.2,0.4c0.9,0,1.6-0.2,2.3-0.5s1.2-0.7,1.6-1.3s0.6-1.2,0.6-1.9c0-0.7-0.2-1.4-0.6-1.9s-0.9-1-1.7-1.3s-1.6-0.5-2.6-0.5
			h-2.1v-3.4h2.1c0.8,0,1.6-0.1,2.2-0.4s1.1-0.7,1.5-1.2s0.5-1.1,0.5-1.8c0-0.7-0.1-1.3-0.5-1.8s-0.7-0.9-1.3-1.2s-1.2-0.4-2-0.4
			c-0.7,0-1.4,0.1-2,0.4s-1.1,0.6-1.5,1.1s-0.6,1.1-0.6,1.7H5.8c0-1.3,0.4-2.5,1.2-3.5s1.7-1.8,3-2.4s2.7-0.9,4.2-0.9
			c1.6,0,3,0.3,4.2,0.9s2.1,1.4,2.7,2.4s1,2.1,1,3.3c0,1.4-0.4,2.5-1.2,3.4s-1.8,1.5-3.1,1.8v0.2c1.7,0.2,3,0.9,3.9,1.9
			s1.3,2.3,1.3,3.8c0,1.3-0.4,2.5-1.1,3.6s-1.8,1.9-3.1,2.5S15.8,693.8,14.1,693.8z"/>
		<path d="M29.6,693.7c-0.7,0-1.3-0.2-1.8-0.8s-0.8-1.1-0.8-1.8c0-0.7,0.2-1.3,0.8-1.8s1.1-0.8,1.8-0.8c0.7,0,1.3,0.2,1.8,0.8
			s0.8,1.1,0.8,1.8c0,0.5-0.1,0.9-0.4,1.3c-0.2,0.4-0.6,0.7-0.9,0.9S30.1,693.7,29.6,693.7z"/>
		<path d="M45.4,693.9c-1.9,0-3.6-0.5-5-1.5s-2.4-2.4-3.2-4.3s-1.1-4.1-1.1-6.7c0-2.6,0.4-4.8,1.1-6.7s1.8-3.2,3.2-4.2s3-1.5,5-1.5
			s3.6,0.5,5,1.5s2.4,2.4,3.2,4.2s1.1,4.1,1.1,6.7c0,2.6-0.4,4.9-1.1,6.7s-1.8,3.3-3.2,4.2S47.3,693.9,45.4,693.9z M45.4,690.2
			c1.5,0,2.7-0.7,3.6-2.2s1.3-3.7,1.3-6.5c0-1.9-0.2-3.5-0.6-4.8s-1-2.3-1.7-2.9s-1.6-1-2.6-1c-1.5,0-2.7,0.7-3.5,2.2
			s-1.3,3.7-1.3,6.5c0,1.9,0.2,3.5,0.6,4.8s1,2.3,1.7,2.9S44.4,690.2,45.4,690.2z"/>
		<path d="M67.4,693.9c-1.9,0-3.6-0.5-5-1.5s-2.4-2.4-3.2-4.3s-1.1-4.1-1.1-6.7c0-2.6,0.4-4.8,1.1-6.7s1.8-3.2,3.2-4.2s3-1.5,5-1.5
			s3.6,0.5,5,1.5s2.4,2.4,3.2,4.2s1.1,4.1,1.1,6.7c0,2.6-0.4,4.9-1.1,6.7s-1.8,3.3-3.2,4.2S69.4,693.9,67.4,693.9z M67.4,690.2
			c1.5,0,2.7-0.7,3.6-2.2s1.3-3.7,1.3-6.5c0-1.9-0.2-3.5-0.6-4.8s-1-2.3-1.7-2.9s-1.6-1-2.6-1c-1.5,0-2.7,0.7-3.5,2.2
			c-0.9,1.5-1.3,3.7-1.3,6.5c0,1.9,0.2,3.5,0.6,4.8s1,2.3,1.7,2.9S66.4,690.2,67.4,690.2z"/>
	</g>
</g>
<g>
	<g class="st0">
		<path d="M5.4,772.1v-3.1l8.3-8.2c0.8-0.8,1.5-1.5,2-2.1s0.9-1.2,1.2-1.8s0.4-1.2,0.4-1.9c0-0.8-0.2-1.4-0.5-2s-0.8-1-1.4-1.3
			s-1.3-0.4-2.1-0.4c-0.8,0-1.5,0.2-2.1,0.5s-1.1,0.8-1.4,1.4s-0.5,1.3-0.5,2.1H5.3c0-1.5,0.3-2.8,1-4s1.7-2,2.9-2.6
			s2.6-0.9,4.2-0.9c1.6,0,3,0.3,4.2,0.9s2.2,1.4,2.8,2.5s1,2.2,1,3.6c0,0.9-0.2,1.8-0.5,2.6s-0.9,1.8-1.8,2.9s-2.1,2.3-3.6,3.8
			l-4.1,4.2v0.2h10.5v3.6H5.4z"/>
		<path d="M28.6,772.3c-0.7,0-1.3-0.2-1.8-0.8s-0.8-1.1-0.8-1.8c0-0.7,0.2-1.3,0.8-1.8s1.1-0.8,1.8-0.8c0.7,0,1.3,0.2,1.8,0.8
			s0.8,1.1,0.8,1.8c0,0.5-0.1,0.9-0.4,1.3s-0.6,0.7-0.9,0.9S29,772.3,28.6,772.3z"/>
		<path d="M44.4,772.5c-1.9,0-3.6-0.5-5-1.5s-2.4-2.4-3.2-4.3s-1.1-4.1-1.1-6.7c0-2.6,0.4-4.8,1.1-6.7s1.8-3.2,3.2-4.2s3-1.5,5-1.5
			s3.6,0.5,5,1.5s2.4,2.4,3.2,4.2s1.1,4.1,1.1,6.7c0,2.6-0.4,4.9-1.1,6.7s-1.8,3.3-3.2,4.2S46.3,772.5,44.4,772.5z M44.4,768.9
			c1.5,0,2.7-0.7,3.6-2.2s1.3-3.7,1.3-6.5c0-1.9-0.2-3.5-0.6-4.8s-1-2.3-1.7-2.9s-1.6-1-2.6-1c-1.5,0-2.7,0.7-3.5,2.2
			s-1.3,3.7-1.3,6.5c0,1.9,0.2,3.5,0.6,4.8s1,2.3,1.7,2.9S43.4,768.9,44.4,768.9z"/>
		<path d="M66.4,772.5c-1.9,0-3.6-0.5-5-1.5s-2.4-2.4-3.2-4.3s-1.1-4.1-1.1-6.7c0-2.6,0.4-4.8,1.1-6.7s1.8-3.2,3.2-4.2s3-1.5,5-1.5
			s3.6,0.5,5,1.5s2.4,2.4,3.2,4.2s1.1,4.1,1.1,6.7c0,2.6-0.4,4.9-1.1,6.7s-1.8,3.3-3.2,4.2S68.3,772.5,66.4,772.5z M66.4,768.9
			c1.5,0,2.7-0.7,3.6-2.2s1.3-3.7,1.3-6.5c0-1.9-0.2-3.5-0.6-4.8s-1-2.3-1.7-2.9s-1.6-1-2.6-1c-1.5,0-2.7,0.7-3.5,2.2
			s-1.3,3.7-1.3,6.5c0,1.9,0.2,3.5,0.6,4.8s1,2.3,1.7,2.9C64.5,768.5,65.4,768.9,66.4,768.9z"/>
	</g>
</g>
<g>
	<g class="st0">
		<path d="M15.4,826.7v24H11V831h-0.1l-5.6,3.6v-4l6-3.8H15.4z"/>
		<path d="M24.1,851c-0.7,0-1.3-0.2-1.8-0.8s-0.8-1.1-0.8-1.8c0-0.7,0.2-1.3,0.8-1.8s1.1-0.8,1.8-0.8c0.7,0,1.3,0.2,1.8,0.8
			s0.8,1.1,0.8,1.8c0,0.5-0.1,0.9-0.4,1.3s-0.6,0.7-0.9,0.9S24.6,851,24.1,851z"/>
		<path d="M39.9,851.2c-1.9,0-3.6-0.5-5-1.5s-2.4-2.4-3.2-4.3c-0.7-1.9-1.1-4.1-1.1-6.7c0-2.6,0.4-4.8,1.1-6.7
			c0.7-1.8,1.8-3.2,3.2-4.2s3-1.5,5-1.5s3.6,0.5,5,1.5s2.4,2.4,3.2,4.2s1.1,4.1,1.1,6.7c0,2.6-0.4,4.9-1.1,6.7s-1.8,3.3-3.2,4.2
			S41.9,851.2,39.9,851.2z M39.9,847.5c1.5,0,2.7-0.7,3.6-2.2s1.3-3.7,1.3-6.5c0-1.9-0.2-3.5-0.6-4.8s-1-2.3-1.7-2.9s-1.6-1-2.6-1
			c-1.5,0-2.7,0.7-3.5,2.2s-1.3,3.7-1.3,6.5c0,1.9,0.2,3.5,0.6,4.8s1,2.3,1.7,2.9S38.9,847.5,39.9,847.5z"/>
		<path d="M61.9,851.2c-1.9,0-3.6-0.5-5-1.5s-2.4-2.4-3.2-4.3s-1.1-4.1-1.1-6.7c0-2.6,0.4-4.8,1.1-6.7s1.8-3.2,3.2-4.2s3-1.5,5-1.5
			s3.6,0.5,5,1.5s2.4,2.4,3.2,4.2s1.1,4.1,1.1,6.7c0,2.6-0.4,4.9-1.1,6.7s-1.8,3.3-3.2,4.2S63.9,851.2,61.9,851.2z M61.9,847.5
			c1.5,0,2.7-0.7,3.6-2.2s1.3-3.7,1.3-6.5c0-1.9-0.2-3.5-0.6-4.8s-1-2.3-1.7-2.9c-0.7-0.7-1.6-1-2.6-1c-1.5,0-2.7,0.7-3.5,2.2
			s-1.3,3.7-1.3,6.5c0,1.9,0.2,3.5,0.6,4.8s1,2.3,1.7,2.9S60.9,847.5,61.9,847.5z"/>
	</g>
</g>
<g class="st1">
	<polygon class="st2" points="1874.8,130.7 1874.8,180.6 1871.1,180.6 1871.1,190 1867.1,190 1867.1,208.7 1863,208.7 1858.9,208.7 
		1858.9,221.1 1854.9,221.1 1854.9,224.3 1854.9,227.4 1854.9,230.6 1851.2,230.6 1851.2,233.7 1847.1,233.7 1847.1,242.9 
		1843.1,242.9 1843.1,252.4 1839,252.4 1839,261.8 1835,261.8 1831.3,261.8 1831.3,277.3 1827.2,277.3 1823.2,277.3 1823.2,292.9 
		1823.2,296.1 1823.2,299.2 1823.2,302.4 1823.2,305.4 1823.2,308.6 1815.1,308.6 1815.1,311.7 1811.3,311.7 1811.3,327.3 
		1807.3,327.3 1807.3,333.6 1803.3,333.6 1803.3,342.8 1799.2,342.8 1799.2,352.3 1795.1,352.3 1795.1,358.6 1791.4,358.6 
		1787.4,358.6 1787.4,364.7 1783.4,364.7 1783.4,367.9 1779.3,367.9 1779.3,371 1775.5,371 1775.5,374.1 1771.5,374.1 1771.5,377.2 
		1767.5,377.2 1767.5,380.4 1763.5,380.4 1763.5,383.6 1759.3,383.6 1759.3,399.1 1755.6,399.1 1751.6,399.1 1751.6,408.5 
		1747.6,408.5 1747.6,417.8 1743.6,417.8 1743.6,420.9 1739.4,420.9 1735.7,420.9 1735.7,424.1 1731.7,424.1 1731.7,427.2 
		1727.7,427.2 1727.7,430.4 1723.7,430.4 1723.7,433.6 1719.5,433.6 1719.5,436.7 1715.8,436.7 1715.8,439.6 1711.8,439.6 
		1711.8,442.7 1707.8,442.7 1707.8,445.9 1703.6,445.9 1703.6,449 1699.6,449 1699.6,452.2 1695.9,452.2 1695.9,455.4 1691.9,455.4 
		1691.9,458.5 1687.9,458.5 1687.9,461.7 1683.7,461.7 1683.7,464.6 1679.7,464.6 1679.7,467.8 1676,467.8 1676,470.9 1672,470.9 
		1672,474 1663.8,474 1663.8,477.2 1659.8,477.2 1659.8,480.3 1656.1,480.3 1656.1,483.5 1652.1,483.5 1652.1,486.6 1647.9,486.6 
		1647.9,489.6 1643.9,489.6 1643.9,495.9 1639.9,495.9 1639.9,499.1 1636.2,499.1 1636.2,502.2 1632,502.2 1632,505.4 1628,505.4 
		1628,508.4 1624,508.4 1624,511.6 1620,511.6 1620,514.5 1616.3,514.5 1616.3,517.7 1612.1,517.7 1612.1,520.8 1608.1,520.8 
		1608.1,524 1604.1,524 1604.1,527.2 1600.1,527.2 1600.1,530.3 1596.4,530.3 1596.4,533.5 1592.2,533.5 1592.2,536.4 1588.2,536.4 
		1588.2,539.6 1584.2,539.6 1580.2,539.6 1576.3,539.6 1572.3,539.6 1568.3,539.6 1568.3,542.6 1564.3,542.6 1564.3,545.8 
		1560.2,545.8 1556.4,545.8 1552.4,545.8 1552.4,549 1548.4,549 1548.4,552.1 1544.4,552.1 1544.4,558.4 1540.3,558.4 1540.3,561.4 
		1536.5,561.4 1532.5,561.4 1532.5,564.5 1528.5,564.5 1524.4,564.5 1524.4,567.7 1520.4,567.7 1520.4,570.9 1516.6,570.9 
		1516.6,574 1512.6,574 1508.6,574 1504.5,574 1504.5,577.1 1500.5,577.1 1500.5,580.2 1496.8,580.2 1496.8,583.4 1492.7,583.4 
		1492.7,586.3 1488.7,586.3 1484.6,586.3 1480.6,586.3 1480.6,589.5 1476.9,589.5 1472.8,589.5 1472.8,592.7 1468.7,592.7 
		1464.7,592.7 1460.7,592.7 1457,592.7 1457,595.8 1452.9,595.8 1448.8,595.8 1444.8,595.8 1444.8,599 1440.8,599 1437.1,599 
		1432.9,599 1432.9,602.1 1428.9,602.1 1424.9,602.1 1420.9,602.1 1420.9,605.3 1417.2,605.3 1413,605.3 1413,611.3 1409,611.3 
		1405,611.3 1405,614.4 1401,614.4 1401,617.6 1397.1,617.6 1393.1,617.6 1389.1,617.6 1389.1,620.8 1385.1,620.8 1381,620.8 
		1381,623.9 1377.2,623.9 1373.2,623.9 1369.2,623.9 1365.2,623.9 1365.2,627.1 1361.1,627.1 1357.3,627.1 1357.3,630.2 
		1353.3,630.2 1349.3,630.2 1345.3,630.2 1341.2,630.2 1341.2,633.4 1337.4,633.4 1333.4,633.4 1333.4,636.3 1329.4,636.3 
		1329.4,639.5 1325.3,639.5 1325.3,642.6 1321.3,642.6 1317.5,642.6 1313.5,642.6 1309.5,642.6 1305.4,642.6 1305.4,645.7 
		1301.6,645.7 1297.6,645.7 1293.6,645.7 1289.5,645.7 1285.5,645.7 1281.7,645.7 1277.7,645.7 1273.7,645.7 1269.6,645.7 
		1269.6,648.9 1265.6,648.9 1265.6,652 1261.8,652 1261.8,655.2 1257.8,655.2 1257.8,658.3 1253.7,658.3 1249.7,658.3 1245.7,658.3 
		1241.9,658.3 1237.9,658.3 1237.9,661.3 1233.8,661.3 1229.8,661.3 1225.8,661.3 1225.8,664.5 1222,664.5 1218,664.5 1218,667.6 
		1213.9,667.6 1209.9,667.6 1209.9,670.8 1205.9,670.8 1202.1,670.8 1198,670.8 1194,670.8 1194,673.9 1190,673.9 1186,673.9 
		1182.2,673.9 1178.1,673.9 1174.1,673.9 1174.1,677 1170.1,677 1166.1,677 1162.2,677 1162.2,680.1 1158.2,680.1 1154.2,680.1 
		1150.2,680.1 1150.2,683.3 1146.1,683.3 1142.3,683.3 1138.3,683.3 1134.3,683.3 1134.3,686.3 1130.3,686.3 1126.2,686.3 
		1126.2,689.4 1122.4,689.4 1118.4,689.4 1114.4,689.4 1110.4,689.4 1110.4,692.6 1106.3,692.6 1102.5,692.6 1098.5,692.6 
		1094.5,692.6 1090.4,692.6 1090.4,695.7 1086.4,695.7 1082.6,695.7 1078.6,695.7 1074.6,695.7 1070.5,695.7 1066.5,695.7 
		1066.5,698.9 1062.7,698.9 1058.7,698.9 1054.6,698.9 1050.6,698.9 1050.6,702 1046.6,702 1042.8,702 1038.8,702 1034.7,702 
		1030.7,702 1030.7,705.2 1026.7,705.2 1022.9,705.2 1018.8,705.2 1014.8,705.2 1014.8,708.3 1010.8,708.3 1006.8,708.3 1003,708.3 
		998.9,708.3 998.9,711.2 994.9,711.2 990.9,711.2 986.9,711.2 986.9,714.4 983.1,714.4 979,714.4 975,714.4 971,714.4 967,714.4 
		967,717.5 963.1,717.5 959.1,717.5 955.1,717.5 951.1,717.5 951.1,720.7 947,720.7 943.2,720.7 939.2,720.7 935.2,720.7 
		931.2,720.7 931.2,723.8 927.1,723.8 923.3,723.8 919.3,723.8 915.3,723.8 911.2,723.8 911.2,727 907.2,727 907.2,730.1 
		903.4,730.1 899.4,730.1 895.4,730.1 891.3,730.1 887.3,730.1 883.5,730.1 879.5,730.1 875.4,730.1 871.4,730.1 867.4,730.1 
		863.6,730.1 859.6,730.1 855.5,730.1 851.5,730.1 847.5,730.1 843.7,730.1 839.7,730.1 835.6,730.1 831.6,730.1 827.8,730.1 
		827.8,733.1 823.8,733.1 819.7,733.1 815.7,733.1 815.7,736.3 811.7,736.3 807.9,736.3 803.9,736.3 803.9,739.4 799.8,739.4 
		795.8,739.4 791.8,739.4 788,739.4 783.9,739.4 779.9,739.4 779.9,742.6 775.9,742.6 771.9,742.6 768.1,742.6 764,742.6 760,742.6 
		756,742.6 752,742.6 752,745.6 748.1,745.6 744.1,745.6 740.1,745.6 736.1,745.6 736.1,748.8 732.1,748.8 728.2,748.8 724.2,748.8 
		720.2,748.8 716.2,748.8 712.1,748.8 708.3,748.8 708.3,751.9 704.3,751.9 700.3,751.9 696.3,751.9 692.2,751.9 688.4,751.9 
		688.4,755.1 684.4,755.1 680.4,755.1 676.3,755.1 672.3,755.1 668.5,755.1 664.5,755.1 660.5,755.1 660.5,758.1 656.4,758.1 
		652.4,758.1 648.6,758.1 644.6,758.1 640.5,758.1 640.5,761.2 636.5,761.2 636.5,764.4 632.5,764.4 628.7,764.4 624.7,764.4 
		620.6,764.4 616.6,764.4 612.6,764.4 608.8,764.4 604.8,764.4 600.7,764.4 600.7,767.5 596.7,767.5 592.7,767.5 588.9,767.5 
		584.8,767.5 580.8,767.5 576.8,767.5 572.8,767.5 572.8,770.7 569,770.7 564.9,770.7 560.9,770.7 556.9,770.7 556.9,773.8 
		556.9,777 552.9,777 549,777 545,777 541,777 537,777 537,780.1 532.9,780.1 529.1,780.1 525.1,780.1 521.1,780.1 517.1,780.1 
		517.1,783 513,783 509.2,783 505.2,783 501.2,783 501.2,786.2 497.1,786.2 493.1,786.2 489.3,786.2 485.3,786.2 485.3,789.3 
		481.3,789.3 477.2,789.3 473.2,789.3 469.4,789.3 469.4,792.5 465.4,792.5 461.4,792.5 457.3,792.5 453.3,792.5 449.5,792.5 
		445.5,792.5 445.5,795.6 441.4,795.6 437.4,795.6 433.4,795.6 429.6,795.6 429.6,798.8 425.6,798.8 421.5,798.8 417.5,798.8 
		413.5,798.8 409.7,798.8 409.7,801.9 405.6,801.9 401.6,801.9 397.6,801.9 393.6,801.9 393.6,805.1 389.8,805.1 385.7,805.1 
		381.7,805.1 381.7,808.1 377.7,808.1 373.7,808.1 369.8,808.1 365.8,808.1 365.8,811.2 361.8,811.2 357.8,811.2 353.8,811.2 
		349.9,811.2 349.9,814.3 345.9,814.3 341.9,814.3 337.9,814.3 334.1,814.3 330,814.3 326,814.3 322,814.3 318,814.3 318,817.4 
		314.1,817.4 310.1,817.4 306.1,817.4 302.1,817.4 302.1,820.6 298,820.6 294.2,820.6 290.2,820.6 286.2,820.6 286.2,823.7 
		282.2,823.7 278.1,823.7 274.3,823.7 274.3,826.9 274.3,830.1 274.3,833 266.3,833 266.3,830.1 266.3,826.9 266.3,823.7 
		262.2,823.7 258.2,823.7 258.2,826.9 254.4,826.9 254.4,830.1 250.4,830.1 246.4,830.1 246.4,833 242.3,833 238.3,833 234.5,833 
		234.5,836.2 230.5,836.2 226.5,836.2 222.4,836.2 218.4,836.2 218.4,839.3 210.6,839.3 210.6,842.5 202.5,842.5 202.5,845.6 
		194.7,845.6 194.7,848.7 190.7,848.7 190.7,851.9 186.6,851.9 186.6,855 182.6,855 182.6,858 178.6,858 178.6,861.1 174.8,861.1 
		174.8,864.3 170.7,864.3 170.7,867.4 166.7,867.4 166.7,870.6 162.7,870.6 162.7,873.8 158.7,873.8 158.7,876.9 154.9,876.9 
		154.9,880 150.8,880 146.8,880 142.8,880 138.8,880 107,917.3 2060.2,917.3 2060.2,130.7 	"/>
</g>
<g>
	<g class="st0">
		<path d="M15.4,119v24H11v-19.8h-0.1l-5.6,3.6v-4l6-3.8H15.4z"/>
		<path d="M30.3,143.4c-1.9,0-3.6-0.5-5-1.5s-2.4-2.4-3.2-4.3s-1.1-4.1-1.1-6.7c0-2.6,0.4-4.8,1.1-6.7s1.8-3.2,3.2-4.2s3-1.5,5-1.5
			s3.6,0.5,5,1.5s2.4,2.4,3.2,4.2s1.1,4.1,1.1,6.7c0,2.6-0.4,4.9-1.1,6.7s-1.8,3.3-3.2,4.2S32.3,143.4,30.3,143.4z M30.3,139.8
			c1.5,0,2.7-0.7,3.6-2.2s1.3-3.7,1.3-6.5c0-1.9-0.2-3.5-0.6-4.8s-1-2.3-1.7-2.9s-1.6-1-2.6-1c-1.5,0-2.7,0.7-3.5,2.2
			s-1.3,3.7-1.3,6.5c0,1.9,0.2,3.5,0.6,4.8s1,2.3,1.7,2.9S29.3,139.8,30.3,139.8z"/>
		<path d="M46.1,143.2c-0.7,0-1.3-0.2-1.8-0.8s-0.8-1.1-0.8-1.8c0-0.7,0.2-1.3,0.8-1.8s1.1-0.8,1.8-0.8c0.7,0,1.3,0.2,1.8,0.8
			s0.8,1.1,0.8,1.8c0,0.5-0.1,0.9-0.4,1.3s-0.6,0.7-0.9,0.9S46.6,143.2,46.1,143.2z"/>
		<path d="M61.9,143.4c-1.9,0-3.6-0.5-5-1.5s-2.4-2.4-3.2-4.3s-1.1-4.1-1.1-6.7c0-2.6,0.4-4.8,1.1-6.7s1.8-3.2,3.2-4.2s3-1.5,5-1.5
			s3.6,0.5,5,1.5s2.4,2.4,3.2,4.2s1.1,4.1,1.1,6.7c0,2.6-0.4,4.9-1.1,6.7s-1.8,3.3-3.2,4.2S63.9,143.4,61.9,143.4z M61.9,139.8
			c1.5,0,2.7-0.7,3.6-2.2s1.3-3.7,1.3-6.5c0-1.9-0.2-3.5-0.6-4.8s-1-2.3-1.7-2.9c-0.7-0.7-1.6-1-2.6-1c-1.5,0-2.7,0.7-3.5,2.2
			s-1.3,3.7-1.3,6.5c0,1.9,0.2,3.5,0.6,4.8s1,2.3,1.7,2.9S60.9,139.8,61.9,139.8z"/>
		<path d="M84,143.4c-1.9,0-3.6-0.5-5-1.5s-2.4-2.4-3.2-4.3s-1.1-4.1-1.1-6.7c0-2.6,0.4-4.8,1.1-6.7s1.8-3.2,3.2-4.2s3-1.5,5-1.5
			s3.6,0.5,5,1.5s2.4,2.4,3.2,4.2s1.1,4.1,1.1,6.7c0,2.6-0.4,4.9-1.1,6.7s-1.8,3.3-3.2,4.2S85.9,143.4,84,143.4z M84,139.8
			c1.5,0,2.7-0.7,3.6-2.2s1.3-3.7,1.3-6.5c0-1.9-0.2-3.5-0.6-4.8s-1-2.3-1.7-2.9s-1.6-1-2.6-1c-1.5,0-2.7,0.7-3.5,2.2
			s-1.3,3.7-1.3,6.5c0,1.9,0.2,3.5,0.6,4.8s1,2.3,1.7,2.9S83,139.8,84,139.8z"/>
	</g>
</g>
<g>
	<g class="st0">
		<path d="M13.9,197.2c1.1,0,2.3,0.2,3.4,0.6s2.1,1,2.9,1.9s1.6,2.1,2.1,3.6s0.8,3.3,0.8,5.5c0,2.1-0.2,3.9-0.7,5.5s-1.1,3-1.9,4.1
			s-1.8,2-3,2.6s-2.5,0.9-3.9,0.9c-1.5,0-2.9-0.3-4-0.9s-2.1-1.4-2.8-2.4s-1.2-2.2-1.3-3.5h4.3c0.2,1,0.7,1.7,1.3,2.3
			s1.5,0.8,2.6,0.8c1.7,0,2.9-0.7,3.8-2.2s1.3-3.5,1.3-6h-0.2c-0.4,0.7-0.9,1.3-1.5,1.8s-1.3,0.9-2.1,1.1s-1.6,0.4-2.4,0.4
			c-1.4,0-2.7-0.3-3.8-1s-2-1.6-2.7-2.8s-1-2.5-1-4c0-1.6,0.4-3,1.1-4.2s1.7-2.2,3-3S12.2,197.2,13.9,197.2z M13.9,200.7
			c-0.8,0-1.6,0.2-2.3,0.6s-1.2,1-1.6,1.7s-0.6,1.5-0.6,2.4c0,0.9,0.2,1.6,0.6,2.3s0.9,1.3,1.6,1.7s1.4,0.6,2.3,0.6
			c0.6,0,1.2-0.1,1.8-0.4s1-0.6,1.4-1s0.7-0.9,1-1.5s0.3-1.1,0.3-1.8c0-0.8-0.2-1.6-0.6-2.3s-0.9-1.3-1.6-1.7S14.8,200.7,13.9,200.7
			z"/>
		<path d="M29.6,221.9c-0.7,0-1.3-0.2-1.8-0.8s-0.8-1.1-0.8-1.8c0-0.7,0.2-1.3,0.8-1.8s1.1-0.8,1.8-0.8c0.7,0,1.3,0.2,1.8,0.8
			s0.8,1.1,0.8,1.8c0,0.5-0.1,0.9-0.4,1.3c-0.2,0.4-0.6,0.7-0.9,0.9S30.1,221.9,29.6,221.9z"/>
		<path d="M45.4,222.1c-1.9,0-3.6-0.5-5-1.5s-2.4-2.4-3.2-4.3s-1.1-4.1-1.1-6.7c0-2.6,0.4-4.8,1.1-6.7s1.8-3.2,3.2-4.2s3-1.5,5-1.5
			s3.6,0.5,5,1.5s2.4,2.4,3.2,4.2s1.1,4.1,1.1,6.7c0,2.6-0.4,4.9-1.1,6.7s-1.8,3.3-3.2,4.2S47.4,222.1,45.4,222.1z M45.4,218.4
			c1.5,0,2.7-0.7,3.6-2.2s1.3-3.7,1.3-6.5c0-1.9-0.2-3.5-0.6-4.8s-1-2.3-1.7-2.9s-1.6-1-2.6-1c-1.5,0-2.7,0.7-3.5,2.2
			s-1.3,3.7-1.3,6.5c0,1.9,0.2,3.5,0.6,4.8s1,2.3,1.7,2.9S44.4,218.4,45.4,218.4z"/>
		<path d="M67.4,222.1c-1.9,0-3.6-0.5-5-1.5s-2.4-2.4-3.2-4.3s-1.1-4.1-1.1-6.7c0-2.6,0.4-4.8,1.1-6.7s1.8-3.2,3.2-4.2s3-1.5,5-1.5
			s3.6,0.5,5,1.5s2.4,2.4,3.2,4.2s1.1,4.1,1.1,6.7c0,2.6-0.4,4.9-1.1,6.7s-1.8,3.3-3.2,4.2S69.4,222.1,67.4,222.1z M67.4,218.4
			c1.5,0,2.7-0.7,3.6-2.2s1.3-3.7,1.3-6.5c0-1.9-0.2-3.5-0.6-4.8s-1-2.3-1.7-2.9s-1.6-1-2.6-1c-1.5,0-2.7,0.7-3.5,2.2
			c-0.9,1.5-1.3,3.7-1.3,6.5c0,1.9,0.2,3.5,0.6,4.8s1,2.3,1.7,2.9S66.4,218.4,67.4,218.4z"/>
	</g>
</g>
<g>
	<g class="st0">
		<path d="M14.2,300.6c-1.7,0-3.3-0.3-4.6-0.9s-2.4-1.4-3.2-2.4s-1.1-2.2-1.1-3.5c0-1,0.2-1.9,0.7-2.8s1-1.5,1.8-2.1
			s1.6-0.9,2.5-1.1v-0.2c-1.2-0.3-2.2-0.9-3-1.9s-1.1-2.1-1.1-3.4c0-1.2,0.3-2.3,1-3.3s1.6-1.7,2.9-2.3s2.6-0.8,4.1-0.8
			c1.5,0,2.9,0.3,4.1,0.8s2.2,1.3,2.9,2.3s1,2.1,1,3.3c0,1.3-0.4,2.4-1.2,3.4s-1.8,1.6-3,1.9v0.2c0.9,0.2,1.8,0.5,2.5,1.1
			s1.4,1.3,1.8,2.1s0.7,1.8,0.7,2.8c0,1.3-0.4,2.5-1.1,3.5s-1.8,1.8-3.2,2.4S15.9,300.6,14.2,300.6z M14.2,297.2
			c0.9,0,1.7-0.2,2.3-0.5s1.2-0.7,1.5-1.3s0.6-1.2,0.6-1.9c0-0.8-0.2-1.4-0.6-2s-0.9-1.1-1.6-1.4s-1.4-0.5-2.3-0.5
			c-0.9,0-1.6,0.2-2.3,0.5s-1.2,0.8-1.6,1.4s-0.6,1.3-0.6,2c0,0.7,0.2,1.4,0.5,1.9s0.9,1,1.6,1.3S13.3,297.2,14.2,297.2z
			 M14.2,286.3c0.7,0,1.4-0.1,2-0.4s1-0.7,1.3-1.2s0.5-1.1,0.5-1.8c0-0.7-0.2-1.3-0.5-1.8s-0.8-0.9-1.3-1.2s-1.2-0.4-2-0.4
			c-0.8,0-1.4,0.1-2,0.4s-1,0.7-1.3,1.2s-0.5,1.1-0.5,1.8c0,0.7,0.2,1.3,0.5,1.8s0.8,0.9,1.3,1.2S13.5,286.3,14.2,286.3z"/>
		<path d="M29.6,300.5c-0.7,0-1.3-0.2-1.8-0.8s-0.8-1.1-0.8-1.8c0-0.7,0.2-1.3,0.8-1.8s1.1-0.8,1.8-0.8c0.7,0,1.3,0.2,1.8,0.8
			s0.8,1.1,0.8,1.8c0,0.5-0.1,0.9-0.4,1.3c-0.2,0.4-0.6,0.7-0.9,0.9S30.1,300.5,29.6,300.5z"/>
		<path d="M45.4,300.7c-1.9,0-3.6-0.5-5-1.5s-2.4-2.4-3.2-4.3s-1.1-4.1-1.1-6.7c0-2.6,0.4-4.8,1.1-6.7s1.8-3.2,3.2-4.2s3-1.5,5-1.5
			s3.6,0.5,5,1.5s2.4,2.4,3.2,4.2s1.1,4.1,1.1,6.7c0,2.6-0.4,4.9-1.1,6.7s-1.8,3.3-3.2,4.2S47.4,300.7,45.4,300.7z M45.4,297.1
			c1.5,0,2.7-0.7,3.6-2.2s1.3-3.7,1.3-6.5c0-1.9-0.2-3.5-0.6-4.8s-1-2.3-1.7-2.9s-1.6-1-2.6-1c-1.5,0-2.7,0.7-3.5,2.2
			s-1.3,3.7-1.3,6.5c0,1.9,0.2,3.5,0.6,4.8s1,2.3,1.7,2.9S44.4,297.1,45.4,297.1z"/>
		<path d="M67.5,300.7c-1.9,0-3.6-0.5-5-1.5s-2.4-2.4-3.2-4.3s-1.1-4.1-1.1-6.7c0-2.6,0.4-4.8,1.1-6.7s1.8-3.2,3.2-4.2s3-1.5,5-1.5
			s3.6,0.5,5,1.5s2.4,2.4,3.2,4.2s1.1,4.1,1.1,6.7c0,2.6-0.4,4.9-1.1,6.7s-1.8,3.3-3.2,4.2S69.4,300.7,67.5,300.7z M67.5,297.1
			c1.5,0,2.7-0.7,3.6-2.2s1.3-3.7,1.3-6.5c0-1.9-0.2-3.5-0.6-4.8s-1-2.3-1.7-2.9s-1.6-1-2.6-1c-1.5,0-2.7,0.7-3.5,2.2
			c-0.9,1.5-1.3,3.7-1.3,6.5c0,1.9,0.2,3.5,0.6,4.8s1,2.3,1.7,2.9S66.5,297.1,67.5,297.1z"/>
	</g>
</g>
<g>
	<g class="st0">
		<path d="M6.9,378.9l10.2-20.2v-0.2H5.3v-3.6h16.3v3.7l-10.2,20.3H6.9z"/>
		<path d="M28.1,379.2c-0.7,0-1.3-0.2-1.8-0.8s-0.8-1.1-0.8-1.8c0-0.7,0.2-1.3,0.8-1.8s1.1-0.8,1.8-0.8c0.7,0,1.3,0.2,1.8,0.8
			s0.8,1.1,0.8,1.8c0,0.5-0.1,0.9-0.4,1.3s-0.6,0.7-0.9,0.9S28.5,379.2,28.1,379.2z"/>
		<path d="M43.9,379.4c-1.9,0-3.6-0.5-5-1.5s-2.4-2.4-3.2-4.3s-1.1-4.1-1.1-6.7c0-2.6,0.4-4.8,1.1-6.7s1.8-3.2,3.2-4.2s3-1.5,5-1.5
			s3.6,0.5,5,1.5s2.4,2.4,3.2,4.2s1.1,4.1,1.1,6.7c0,2.6-0.4,4.9-1.1,6.7s-1.8,3.3-3.2,4.2S45.8,379.4,43.9,379.4z M43.9,375.7
			c1.5,0,2.7-0.7,3.6-2.2s1.3-3.7,1.3-6.5c0-1.9-0.2-3.5-0.6-4.8s-1-2.3-1.7-2.9s-1.6-1-2.6-1c-1.5,0-2.7,0.7-3.5,2.2
			s-1.3,3.7-1.3,6.5c0,1.9,0.2,3.5,0.6,4.8s1,2.3,1.7,2.9S42.9,375.7,43.9,375.7z"/>
		<path d="M65.9,379.4c-1.9,0-3.6-0.5-5-1.5s-2.4-2.4-3.2-4.3s-1.1-4.1-1.1-6.7c0-2.6,0.4-4.8,1.1-6.7s1.8-3.2,3.2-4.2s3-1.5,5-1.5
			c1.9,0,3.6,0.5,5,1.5s2.4,2.4,3.2,4.2s1.1,4.1,1.1,6.7c0,2.6-0.4,4.9-1.1,6.7s-1.8,3.3-3.2,4.2S67.8,379.4,65.9,379.4z
			 M65.9,375.7c1.5,0,2.7-0.7,3.6-2.2s1.3-3.7,1.3-6.5c0-1.9-0.2-3.5-0.6-4.8s-1-2.3-1.7-2.9s-1.6-1-2.6-1c-1.5,0-2.7,0.7-3.5,2.2
			s-1.3,3.7-1.3,6.5c0,1.9,0.2,3.5,0.6,4.8s1,2.3,1.7,2.9C64,375.4,64.9,375.7,65.9,375.7z"/>
	</g>
</g>
<g>
	<g class="st0">
		<path d="M207.1,73.1V18.6h20.5c4.2,0,7.7,0.8,10.6,2.3c2.9,1.6,5,3.7,6.5,6.4s2.2,5.8,2.2,9.3c0,3.5-0.7,6.6-2.2,9.3
			c-1.5,2.7-3.6,4.9-6.5,6.4s-6.4,2.3-10.6,2.3h-13.6v-8.1h12.2c2.5,0,4.5-0.4,6-1.3s2.7-2,3.5-3.5c0.8-1.5,1.1-3.2,1.1-5.1
			c0-1.9-0.4-3.6-1.1-5.1c-0.8-1.5-1.9-2.6-3.5-3.4c-1.6-0.8-3.6-1.2-6.1-1.2H217v46.3H207.1z"/>
		<path d="M273.1,73.9c-4.1,0-7.6-0.9-10.6-2.6c-3-1.7-5.3-4.1-6.9-7.3c-1.6-3.2-2.4-6.9-2.4-11.1c0-4.2,0.8-7.9,2.4-11.1
			c1.6-3.2,3.9-5.7,6.8-7.5c2.9-1.8,6.3-2.7,10.2-2.7c2.5,0,4.9,0.4,7.2,1.2c2.2,0.8,4.2,2.1,6,3.7c1.7,1.7,3.1,3.8,4.1,6.4
			c1,2.6,1.5,5.7,1.5,9.3v3h-33.5v-6.5H282c0-1.8-0.4-3.5-1.2-4.9s-1.9-2.6-3.3-3.4c-1.4-0.8-3-1.3-4.9-1.3c-2,0-3.7,0.5-5.2,1.4
			c-1.5,1-2.6,2.2-3.5,3.7s-1.2,3.2-1.3,5V55c0,2.4,0.4,4.4,1.3,6.1c0.9,1.7,2.1,3,3.6,3.9c1.6,0.9,3.4,1.3,5.5,1.3
			c1.4,0,2.7-0.2,3.8-0.6s2.1-1,3-1.8c0.8-0.8,1.5-1.7,1.9-2.9l9,1c-0.6,2.4-1.6,4.5-3.2,6.2s-3.6,3.1-6.1,4.1
			C279.1,73.4,276.2,73.9,273.1,73.9z"/>
		<path d="M299.4,73.1V32.2h9.3V39h0.4c0.7-2.4,2-4.2,3.8-5.5c1.8-1.3,3.9-1.9,6.2-1.9c0.5,0,1.1,0,1.8,0.1c0.7,0,1.2,0.1,1.7,0.2
			v8.9c-0.4-0.1-1.1-0.3-1.9-0.4c-0.9-0.1-1.7-0.2-2.5-0.2c-1.8,0-3.3,0.4-4.7,1.1c-1.4,0.8-2.5,1.8-3.3,3.1
			c-0.8,1.3-1.2,2.9-1.2,4.6v24H299.4z"/>
		<path d="M349.9,32.2v7.5h-24.2v-7.5H349.9z M331.7,73.1V28.3c0-2.8,0.6-5,1.7-6.9c1.1-1.8,2.7-3.2,4.6-4.1
			c1.9-0.9,4.1-1.4,6.4-1.4c1.7,0,3.2,0.1,4.4,0.4c1.3,0.3,2.3,0.5,2.9,0.7l-1.9,7.5c-0.4-0.1-0.9-0.3-1.5-0.4
			c-0.6-0.1-1.3-0.2-2.1-0.2c-1.8,0-3.1,0.4-3.8,1.3s-1.1,2.1-1.1,3.7v44.1H331.7z"/>
		<path d="M375.3,73.9c-4,0-7.5-0.9-10.4-2.6s-5.2-4.2-6.8-7.4c-1.6-3.2-2.4-6.9-2.4-11.1c0-4.2,0.8-7.9,2.4-11.1
			c1.6-3.2,3.9-5.6,6.8-7.4s6.4-2.6,10.4-2.6s7.5,0.9,10.4,2.6s5.2,4.2,6.8,7.4c1.6,3.2,2.4,6.9,2.4,11.1c0,4.2-0.8,7.9-2.4,11.1
			s-3.9,5.6-6.8,7.4S379.3,73.9,375.3,73.9z M375.3,66.2c2.2,0,4-0.6,5.4-1.8s2.5-2.8,3.3-4.8s1.1-4.3,1.1-6.8
			c0-2.5-0.4-4.8-1.1-6.8s-1.8-3.7-3.3-4.9c-1.5-1.2-3.3-1.8-5.4-1.8c-2.2,0-4.1,0.6-5.5,1.8c-1.5,1.2-2.6,2.8-3.3,4.9
			c-0.7,2-1.1,4.3-1.1,6.8c0,2.5,0.4,4.7,1.1,6.8c0.7,2,1.8,3.6,3.3,4.8S373.1,66.2,375.3,66.2z"/>
		<path d="M403,73.1V32.2h9.3V39h0.4c0.7-2.4,2-4.2,3.8-5.5c1.8-1.3,3.9-1.9,6.2-1.9c0.5,0,1.1,0,1.8,0.1c0.7,0,1.2,0.1,1.7,0.2v8.9
			c-0.4-0.1-1.1-0.3-1.9-0.4c-0.9-0.1-1.7-0.2-2.5-0.2c-1.8,0-3.3,0.4-4.7,1.1c-1.4,0.8-2.5,1.8-3.3,3.1c-0.8,1.3-1.2,2.9-1.2,4.6
			v24H403z"/>
		<path d="M432.8,73.1V32.2h9.2v7h0.5c0.9-2.3,2.3-4.2,4.2-5.5c2-1.3,4.3-2,7.1-2c2.8,0,5.1,0.7,7,2s3.3,3.2,4,5.5h0.4
			c0.9-2.3,2.4-4.1,4.6-5.4c2.2-1.4,4.7-2,7.7-2c3.8,0,6.8,1.2,9.2,3.6c2.4,2.4,3.6,5.9,3.6,10.4v27.5h-9.7v-26c0-2.5-0.7-4.4-2-5.6
			c-1.3-1.2-3-1.8-5-1.8c-2.3,0-4.1,0.7-5.4,2.2s-2,3.3-2,5.6v25.5h-9.5V46.7c0-2.1-0.6-3.8-1.9-5.1s-2.9-1.9-5-1.9
			c-1.4,0-2.6,0.4-3.8,1.1c-1.1,0.7-2,1.7-2.7,3c-0.7,1.3-1,2.7-1,4.4v24.9H432.8z"/>
		<path d="M511.9,73.9c-2.6,0-4.9-0.5-7-1.4c-2.1-0.9-3.7-2.3-4.9-4.1s-1.8-4.1-1.8-6.8c0-2.3,0.4-4.2,1.3-5.7
			c0.9-1.5,2-2.7,3.5-3.6c1.5-0.9,3.1-1.6,5-2.1c1.9-0.5,3.8-0.8,5.8-1c2.4-0.2,4.3-0.5,5.8-0.7c1.5-0.2,2.6-0.5,3.3-1
			c0.7-0.4,1-1.1,1-2v-0.2c0-2-0.6-3.6-1.8-4.7c-1.2-1.1-2.9-1.7-5.1-1.7c-2.4,0-4.2,0.5-5.6,1.5c-1.4,1-2.3,2.2-2.8,3.6l-9-1.3
			c0.7-2.5,1.9-4.6,3.5-6.2s3.6-2.9,6-3.8c2.4-0.8,5-1.3,7.8-1.3c2,0,3.9,0.2,5.9,0.7s3.7,1.2,5.4,2.3c1.6,1.1,2.9,2.5,3.9,4.3
			c1,1.8,1.5,4.1,1.5,6.8v27.4h-9.3v-5.6h-0.3c-0.6,1.1-1.4,2.2-2.5,3.2c-1.1,1-2.4,1.8-4,2.4C515.9,73.6,514,73.9,511.9,73.9z
			 M514.4,66.8c1.9,0,3.6-0.4,5-1.2c1.4-0.8,2.5-1.8,3.3-3.1c0.8-1.3,1.2-2.7,1.2-4.2v-4.8c-0.3,0.2-0.8,0.5-1.5,0.7
			c-0.7,0.2-1.5,0.4-2.4,0.6c-0.9,0.2-1.8,0.3-2.6,0.4s-1.6,0.2-2.3,0.3c-1.4,0.2-2.7,0.5-3.9,1c-1.1,0.4-2,1.1-2.7,1.9
			c-0.7,0.8-1,1.8-1,3c0,1.8,0.6,3.1,1.9,4S512.4,66.8,514.4,66.8z"/>
		<path d="M552.8,49.1v24h-9.6V32.2h9.2v7h0.5c0.9-2.3,2.4-4.1,4.5-5.5c2.1-1.3,4.6-2,7.7-2c2.8,0,5.3,0.6,7.4,1.8
			c2.1,1.2,3.7,3,4.9,5.2c1.2,2.3,1.7,5.1,1.7,8.3v26h-9.6V48.5c0-2.7-0.7-4.9-2.1-6.4s-3.4-2.3-5.8-2.3c-1.7,0-3.2,0.4-4.5,1.1
			c-1.3,0.7-2.3,1.8-3.1,3.2C553.2,45.5,552.8,47.2,552.8,49.1z"/>
		<path d="M606.8,73.9c-4.1,0-7.6-0.9-10.5-2.7c-2.9-1.8-5.2-4.3-6.7-7.4c-1.6-3.2-2.4-6.8-2.4-11c0-4.2,0.8-7.8,2.4-11
			c1.6-3.2,3.9-5.7,6.8-7.5c2.9-1.8,6.4-2.7,10.4-2.7c3.3,0,6.3,0.6,8.8,1.8c2.6,1.2,4.6,2.9,6.1,5.1c1.5,2.2,2.4,4.8,2.6,7.7h-9.2
			c-0.4-2-1.3-3.6-2.6-4.9c-1.4-1.3-3.3-2-5.6-2c-2,0-3.7,0.5-5.2,1.6c-1.5,1.1-2.6,2.6-3.5,4.5s-1.2,4.3-1.2,7.1
			c0,2.8,0.4,5.2,1.2,7.2c0.8,2,2,3.5,3.4,4.6s3.2,1.6,5.2,1.6c1.4,0,2.7-0.3,3.8-0.8c1.1-0.5,2.1-1.3,2.8-2.4
			c0.8-1,1.3-2.3,1.6-3.8h9.2c-0.2,2.9-1.1,5.5-2.6,7.7s-3.5,4-6,5.2C613.2,73.3,610.2,73.9,606.8,73.9z"/>
		<path d="M650.3,73.9c-4.1,0-7.6-0.9-10.6-2.6c-3-1.7-5.3-4.1-6.9-7.3c-1.6-3.2-2.4-6.9-2.4-11.1c0-4.2,0.8-7.9,2.4-11.1
			c1.6-3.2,3.9-5.7,6.8-7.5c2.9-1.8,6.3-2.7,10.2-2.7c2.5,0,4.9,0.4,7.2,1.2c2.2,0.8,4.2,2.1,6,3.7c1.7,1.7,3.1,3.8,4.1,6.4
			c1,2.6,1.5,5.7,1.5,9.3v3H635v-6.5h24.3c0-1.8-0.4-3.5-1.2-4.9s-1.9-2.6-3.3-3.4c-1.4-0.8-3-1.3-4.9-1.3c-2,0-3.7,0.5-5.2,1.4
			c-1.5,1-2.6,2.2-3.5,3.7s-1.2,3.2-1.3,5V55c0,2.4,0.4,4.4,1.3,6.1c0.9,1.7,2.1,3,3.6,3.9c1.6,0.9,3.4,1.3,5.5,1.3
			c1.4,0,2.7-0.2,3.8-0.6s2.1-1,3-1.8c0.8-0.8,1.5-1.7,1.9-2.9l9,1c-0.6,2.4-1.6,4.5-3.2,6.2s-3.6,3.1-6.1,4.1
			C656.3,73.4,653.5,73.9,650.3,73.9z"/>
		<path d="M695.7,73.1V18.6h20.5c4.2,0,7.7,0.7,10.6,2.2s5,3.5,6.5,6.1s2.2,5.7,2.2,9.1c0,3.5-0.7,6.5-2.2,9.1s-3.7,4.5-6.5,5.9
			c-2.9,1.4-6.4,2.1-10.6,2.1h-14.6v-8.2h13.2c2.5,0,4.5-0.3,6-1c1.6-0.7,2.7-1.7,3.5-3c0.8-1.3,1.1-3,1.1-4.9c0-1.9-0.4-3.6-1.1-5
			c-0.8-1.4-1.9-2.4-3.5-3.1c-1.6-0.7-3.6-1.1-6-1.1h-9.1v46.3H695.7z M723.9,48.4l13.5,24.7h-11l-13.3-24.7H723.9z"/>
		<path d="M762.2,73.9c-4.1,0-7.6-0.9-10.6-2.6c-3-1.7-5.3-4.1-6.9-7.3c-1.6-3.2-2.4-6.9-2.4-11.1c0-4.2,0.8-7.9,2.4-11.1
			c1.6-3.2,3.9-5.7,6.8-7.5c2.9-1.8,6.3-2.7,10.2-2.7c2.5,0,4.9,0.4,7.2,1.2c2.2,0.8,4.2,2.1,6,3.7c1.7,1.7,3.1,3.8,4.1,6.4
			s1.5,5.7,1.5,9.3v3h-33.5v-6.5h24.3c0-1.8-0.4-3.5-1.2-4.9c-0.8-1.4-1.9-2.6-3.3-3.4c-1.4-0.8-3-1.3-4.9-1.3c-2,0-3.7,0.5-5.2,1.4
			s-2.6,2.2-3.5,3.7c-0.8,1.5-1.2,3.2-1.3,5V55c0,2.4,0.4,4.4,1.3,6.1c0.9,1.7,2.1,3,3.6,3.9s3.4,1.3,5.5,1.3c1.4,0,2.7-0.2,3.8-0.6
			c1.1-0.4,2.1-1,3-1.8c0.8-0.8,1.5-1.7,1.9-2.9l9,1c-0.6,2.4-1.6,4.5-3.2,6.2c-1.6,1.8-3.6,3.1-6.1,4.1
			C768.2,73.4,765.4,73.9,762.2,73.9z"/>
		<path d="M798.2,18.6v54.5h-9.6V18.6H798.2z"/>
		<path d="M819.9,73.9c-2.6,0-4.9-0.5-7-1.4c-2.1-0.9-3.7-2.3-4.9-4.1s-1.8-4.1-1.8-6.8c0-2.3,0.4-4.2,1.3-5.7s2-2.7,3.5-3.6
			c1.5-0.9,3.1-1.6,5-2.1c1.9-0.5,3.8-0.8,5.8-1c2.4-0.2,4.3-0.5,5.8-0.7s2.6-0.5,3.3-1c0.7-0.4,1-1.1,1-2v-0.2c0-2-0.6-3.6-1.8-4.7
			c-1.2-1.1-2.9-1.7-5.1-1.7c-2.4,0-4.2,0.5-5.6,1.5c-1.4,1-2.3,2.2-2.8,3.6l-9-1.3c0.7-2.5,1.9-4.6,3.5-6.2c1.6-1.7,3.6-2.9,6-3.8
			c2.4-0.8,5-1.3,7.8-1.3c2,0,3.9,0.2,5.9,0.7c2,0.5,3.7,1.2,5.4,2.3c1.6,1.1,2.9,2.5,3.9,4.3c1,1.8,1.5,4.1,1.5,6.8v27.4h-9.3v-5.6
			h-0.3c-0.6,1.1-1.4,2.2-2.5,3.2c-1.1,1-2.4,1.8-4,2.4C823.9,73.6,822,73.9,819.9,73.9z M822.4,66.8c1.9,0,3.6-0.4,5-1.2
			c1.4-0.8,2.5-1.8,3.3-3.1c0.8-1.3,1.2-2.7,1.2-4.2v-4.8c-0.3,0.2-0.8,0.5-1.5,0.7c-0.7,0.2-1.5,0.4-2.4,0.6
			c-0.9,0.2-1.8,0.3-2.6,0.4c-0.9,0.1-1.6,0.2-2.3,0.3c-1.4,0.2-2.7,0.5-3.9,1c-1.1,0.4-2,1.1-2.7,1.9s-1,1.8-1,3
			c0,1.8,0.6,3.1,1.9,4S820.4,66.8,822.4,66.8z"/>
		<path d="M871.6,32.2v7.5h-23.5v-7.5H871.6z M853.9,22.4h9.6v38.4c0,1.3,0.2,2.3,0.6,3s0.9,1.1,1.6,1.4c0.7,0.2,1.4,0.4,2.2,0.4
			c0.6,0,1.2,0,1.7-0.1c0.5-0.1,0.9-0.2,1.2-0.2l1.6,7.5c-0.5,0.2-1.2,0.4-2.2,0.6c-1,0.2-2.1,0.3-3.5,0.4c-2.4,0.1-4.6-0.3-6.5-1.1
			c-1.9-0.8-3.5-2.1-4.6-3.8c-1.1-1.7-1.7-3.8-1.7-6.4V22.4z"/>
		<path d="M884.5,26.4c-1.5,0-2.8-0.5-3.9-1.5c-1.1-1-1.6-2.3-1.6-3.7s0.5-2.7,1.7-3.7c1.1-1,2.4-1.5,3.9-1.5s2.8,0.5,3.9,1.5
			c1.1,1,1.6,2.3,1.6,3.7s-0.5,2.7-1.6,3.7C887.4,25.9,886,26.4,884.5,26.4z M879.7,73.1V32.2h9.6v40.9H879.7z"/>
		<path d="M935.8,32.2l-14.6,40.9h-10.7L896,32.2h10.3l9.4,30.4h0.4l9.4-30.4H935.8z"/>
		<path d="M960.5,73.9c-4.1,0-7.6-0.9-10.6-2.6c-3-1.7-5.3-4.1-6.9-7.3c-1.6-3.2-2.4-6.9-2.4-11.1c0-4.2,0.8-7.9,2.4-11.1
			c1.6-3.2,3.9-5.7,6.8-7.5c2.9-1.8,6.3-2.7,10.2-2.7c2.5,0,4.9,0.4,7.2,1.2c2.2,0.8,4.2,2.1,6,3.7c1.7,1.7,3.1,3.8,4.1,6.4
			s1.5,5.7,1.5,9.3v3h-33.5v-6.5h24.3c0-1.8-0.4-3.5-1.2-4.9c-0.8-1.4-1.9-2.6-3.3-3.4c-1.4-0.8-3-1.3-4.9-1.3c-2,0-3.7,0.5-5.2,1.4
			s-2.6,2.2-3.5,3.7c-0.8,1.5-1.2,3.2-1.3,5V55c0,2.4,0.4,4.4,1.3,6.1c0.9,1.7,2.1,3,3.6,3.9s3.4,1.3,5.5,1.3c1.4,0,2.7-0.2,3.8-0.6
			c1.1-0.4,2.1-1,3-1.8c0.8-0.8,1.5-1.7,1.9-2.9l9,1c-0.6,2.4-1.6,4.5-3.2,6.2c-1.6,1.8-3.6,3.1-6.1,4.1
			C966.5,73.4,963.7,73.9,960.5,73.9z"/>
		<path d="M1025.9,32.2v7.5h-23.5v-7.5H1025.9z M1008.2,22.4h9.6v38.4c0,1.3,0.2,2.3,0.6,3s0.9,1.1,1.6,1.4c0.7,0.2,1.4,0.4,2.2,0.4
			c0.6,0,1.2,0,1.7-0.1c0.5-0.1,0.9-0.2,1.2-0.2l1.6,7.5c-0.5,0.2-1.2,0.4-2.2,0.6c-1,0.2-2.1,0.3-3.5,0.4c-2.4,0.1-4.6-0.3-6.5-1.1
			c-1.9-0.8-3.5-2.1-4.6-3.8c-1.1-1.7-1.7-3.8-1.7-6.4V22.4z"/>
		<path d="M1051.8,73.9c-4,0-7.5-0.9-10.4-2.6s-5.2-4.2-6.8-7.4c-1.6-3.2-2.4-6.9-2.4-11.1c0-4.2,0.8-7.9,2.4-11.1
			c1.6-3.2,3.9-5.6,6.8-7.4s6.4-2.6,10.4-2.6c4,0,7.5,0.9,10.4,2.6s5.2,4.2,6.8,7.4c1.6,3.2,2.4,6.9,2.4,11.1
			c0,4.2-0.8,7.9-2.4,11.1c-1.6,3.2-3.9,5.6-6.8,7.4S1055.8,73.9,1051.8,73.9z M1051.9,66.2c2.2,0,4-0.6,5.4-1.8
			c1.5-1.2,2.5-2.8,3.3-4.8c0.7-2,1.1-4.3,1.1-6.8c0-2.5-0.4-4.8-1.1-6.8c-0.7-2-1.8-3.7-3.3-4.9c-1.5-1.2-3.3-1.8-5.4-1.8
			c-2.2,0-4.1,0.6-5.5,1.8c-1.5,1.2-2.6,2.8-3.3,4.9c-0.7,2-1.1,4.3-1.1,6.8c0,2.5,0.4,4.7,1.1,6.8c0.7,2,1.8,3.6,3.3,4.8
			S1049.7,66.2,1051.9,66.2z"/>
		<path d="M1096.2,26.8v-8.3h43.5v8.3h-16.9v46.3h-9.8V26.8H1096.2z"/>
		<path d="M1152.5,26.4c-1.5,0-2.8-0.5-3.9-1.5c-1.1-1-1.6-2.3-1.6-3.7s0.5-2.7,1.7-3.7c1.1-1,2.4-1.5,3.9-1.5s2.8,0.5,3.9,1.5
			c1.1,1,1.6,2.3,1.6,3.7s-0.5,2.7-1.6,3.7C1155.4,25.9,1154.1,26.4,1152.5,26.4z M1147.7,73.1V32.2h9.6v40.9H1147.7z"/>
		<path d="M1167.2,73.1V32.2h9.2v7h0.5c0.9-2.3,2.3-4.2,4.2-5.5c2-1.3,4.3-2,7.1-2c2.8,0,5.1,0.7,7,2c1.9,1.3,3.3,3.2,4,5.5h0.4
			c0.9-2.3,2.4-4.1,4.6-5.4s4.7-2,7.7-2c3.8,0,6.8,1.2,9.2,3.6c2.4,2.4,3.6,5.9,3.6,10.4v27.5h-9.7v-26c0-2.5-0.7-4.4-2-5.6
			c-1.3-1.2-3-1.8-5-1.8c-2.3,0-4.1,0.7-5.4,2.2s-2,3.3-2,5.6v25.5h-9.5V46.7c0-2.1-0.6-3.8-1.9-5.1c-1.3-1.3-2.9-1.9-5-1.9
			c-1.4,0-2.6,0.4-3.8,1.1c-1.1,0.7-2,1.7-2.7,3c-0.7,1.3-1,2.7-1,4.4v24.9H1167.2z"/>
		<path d="M1252.7,73.9c-4.1,0-7.6-0.9-10.6-2.6c-3-1.7-5.3-4.1-6.9-7.3c-1.6-3.2-2.4-6.9-2.4-11.1c0-4.2,0.8-7.9,2.4-11.1
			c1.6-3.2,3.9-5.7,6.8-7.5c2.9-1.8,6.3-2.7,10.2-2.7c2.5,0,4.9,0.4,7.2,1.2c2.2,0.8,4.2,2.1,6,3.7c1.7,1.7,3.1,3.8,4.1,6.4
			s1.5,5.7,1.5,9.3v3h-33.5v-6.5h24.3c0-1.8-0.4-3.5-1.2-4.9c-0.8-1.4-1.9-2.6-3.3-3.4c-1.4-0.8-3-1.3-4.9-1.3c-2,0-3.7,0.5-5.2,1.4
			s-2.6,2.2-3.5,3.7c-0.8,1.5-1.2,3.2-1.3,5V55c0,2.4,0.4,4.4,1.3,6.1c0.9,1.7,2.1,3,3.6,3.9s3.4,1.3,5.5,1.3c1.4,0,2.7-0.2,3.8-0.6
			c1.1-0.4,2.1-1,3-1.8c0.8-0.8,1.5-1.7,1.9-2.9l9,1c-0.6,2.4-1.6,4.5-3.2,6.2c-1.6,1.8-3.6,3.1-6.1,4.1
			C1258.7,73.4,1255.9,73.9,1252.7,73.9z"/>
		<path d="M1307.9,18.6v54.5h-9.9V18.6H1307.9z"/>
		<path d="M1327.9,49.1v24h-9.6V32.2h9.2v7h0.5c0.9-2.3,2.4-4.1,4.5-5.5c2.1-1.3,4.6-2,7.7-2c2.8,0,5.3,0.6,7.4,1.8
			c2.1,1.2,3.7,3,4.9,5.2c1.2,2.3,1.7,5.1,1.7,8.3v26h-9.6V48.5c0-2.7-0.7-4.9-2.1-6.4c-1.4-1.5-3.4-2.3-5.8-2.3
			c-1.7,0-3.2,0.4-4.5,1.1c-1.3,0.7-2.3,1.8-3.1,3.2C1328.3,45.5,1327.9,47.2,1327.9,49.1z"/>
		<path d="M1400.5,32.2L1386,73.1h-10.7l-14.6-40.9h10.3l9.4,30.4h0.4l9.4-30.4H1400.5z"/>
		<path d="M1425.3,73.9c-4.1,0-7.6-0.9-10.6-2.6c-3-1.7-5.3-4.1-6.9-7.3c-1.6-3.2-2.4-6.9-2.4-11.1c0-4.2,0.8-7.9,2.4-11.1
			c1.6-3.2,3.9-5.7,6.8-7.5c2.9-1.8,6.3-2.7,10.2-2.7c2.5,0,4.9,0.4,7.2,1.2c2.2,0.8,4.2,2.1,6,3.7c1.7,1.7,3.1,3.8,4.1,6.4
			s1.5,5.7,1.5,9.3v3h-33.5v-6.5h24.3c0-1.8-0.4-3.5-1.2-4.9c-0.8-1.4-1.9-2.6-3.3-3.4c-1.4-0.8-3-1.3-4.9-1.3c-2,0-3.7,0.5-5.2,1.4
			s-2.6,2.2-3.5,3.7c-0.8,1.5-1.2,3.2-1.3,5V55c0,2.4,0.4,4.4,1.3,6.1c0.9,1.7,2.1,3,3.6,3.9s3.4,1.3,5.5,1.3c1.4,0,2.7-0.2,3.8-0.6
			c1.1-0.4,2.1-1,3-1.8c0.8-0.8,1.5-1.7,1.9-2.9l9,1c-0.6,2.4-1.6,4.5-3.2,6.2c-1.6,1.8-3.6,3.1-6.1,4.1
			C1431.3,73.4,1428.5,73.9,1425.3,73.9z"/>
		<path d="M1484,43l-8.8,1c-0.2-0.9-0.7-1.7-1.3-2.5s-1.4-1.4-2.5-1.9c-1-0.5-2.3-0.7-3.8-0.7c-2,0-3.7,0.4-5,1.3
			c-1.4,0.9-2,2-2,3.4c0,1.2,0.4,2.2,1.3,2.9s2.4,1.4,4.5,1.8l7,1.5c3.9,0.8,6.8,2.2,8.6,4c1.9,1.8,2.8,4.2,2.9,7.1
			c0,2.6-0.8,4.8-2.3,6.8s-3.5,3.5-6.2,4.6c-2.6,1.1-5.6,1.7-9.1,1.7c-5,0-9-1.1-12.1-3.2c-3.1-2.1-4.9-5-5.5-8.8l9.4-0.9
			c0.4,1.8,1.3,3.2,2.7,4.2c1.4,0.9,3.2,1.4,5.4,1.4c2.3,0,4.1-0.5,5.5-1.4c1.4-0.9,2.1-2.1,2.1-3.5c0-1.2-0.4-2.1-1.3-2.9
			s-2.3-1.3-4.2-1.8l-7-1.5c-3.9-0.8-6.8-2.2-8.7-4.1c-1.9-1.9-2.8-4.4-2.8-7.4c0-2.5,0.7-4.7,2.1-6.6c1.4-1.9,3.3-3.3,5.8-4.3
			c2.5-1,5.4-1.5,8.6-1.5c4.8,0,8.6,1,11.3,3.1C1481.6,36.8,1483.3,39.5,1484,43z"/>
		<path d="M1513.2,32.2v7.5h-23.5v-7.5H1513.2z M1495.5,22.4h9.6v38.4c0,1.3,0.2,2.3,0.6,3s0.9,1.1,1.6,1.4c0.7,0.2,1.4,0.4,2.2,0.4
			c0.6,0,1.2,0,1.7-0.1c0.5-0.1,0.9-0.2,1.2-0.2l1.6,7.5c-0.5,0.2-1.2,0.4-2.2,0.6c-1,0.2-2.1,0.3-3.5,0.4c-2.4,0.1-4.6-0.3-6.5-1.1
			c-1.9-0.8-3.5-2.1-4.6-3.8c-1.1-1.7-1.7-3.8-1.7-6.4V22.4z"/>
		<path d="M1539.4,73.9c-4.1,0-7.6-0.9-10.6-2.6c-3-1.7-5.3-4.1-6.9-7.3c-1.6-3.2-2.4-6.9-2.4-11.1c0-4.2,0.8-7.9,2.4-11.1
			c1.6-3.2,3.9-5.7,6.8-7.5c2.9-1.8,6.3-2.7,10.2-2.7c2.5,0,4.9,0.4,7.2,1.2c2.2,0.8,4.2,2.1,6,3.7c1.7,1.7,3.1,3.8,4.1,6.4
			s1.5,5.7,1.5,9.3v3h-33.5v-6.5h24.3c0-1.8-0.4-3.5-1.2-4.9c-0.8-1.4-1.9-2.6-3.3-3.4c-1.4-0.8-3-1.3-4.9-1.3c-2,0-3.7,0.5-5.2,1.4
			s-2.6,2.2-3.5,3.7c-0.8,1.5-1.2,3.2-1.3,5V55c0,2.4,0.4,4.4,1.3,6.1c0.9,1.7,2.1,3,3.6,3.9s3.4,1.3,5.5,1.3c1.4,0,2.7-0.2,3.8-0.6
			c1.1-0.4,2.1-1,3-1.8c0.8-0.8,1.5-1.7,1.9-2.9l9,1c-0.6,2.4-1.6,4.5-3.2,6.2c-1.6,1.8-3.6,3.1-6.1,4.1
			C1545.4,73.4,1542.6,73.9,1539.4,73.9z"/>
		<path d="M1580.9,73.8c-3.2,0-6.1-0.8-8.6-2.5s-4.5-4-6-7.2c-1.5-3.1-2.2-7-2.2-11.5c0-4.5,0.7-8.4,2.2-11.5
			c1.5-3.1,3.5-5.5,6.1-7.1c2.6-1.6,5.4-2.4,8.5-2.4c2.4,0,4.4,0.4,5.9,1.2c1.5,0.8,2.8,1.8,3.7,2.9c0.9,1.1,1.6,2.2,2.1,3.2h0.4
			V18.6h9.7v54.5h-9.5v-6.4h-0.6c-0.5,1-1.2,2-2.2,3.2s-2.2,2.1-3.7,2.8C1585.2,73.4,1583.3,73.8,1580.9,73.8z M1583.6,65.9
			c2,0,3.8-0.6,5.2-1.7s2.5-2.7,3.3-4.6c0.7-2,1.1-4.3,1.1-7s-0.4-4.9-1.1-6.9c-0.7-2-1.8-3.5-3.2-4.6c-1.4-1.1-3.2-1.6-5.3-1.6
			c-2.1,0-3.9,0.6-5.4,1.7c-1.4,1.1-2.5,2.7-3.2,4.6c-0.7,2-1.1,4.2-1.1,6.8c0,2.6,0.4,4.8,1.1,6.8c0.7,2,1.8,3.6,3.3,4.7
			C1579.7,65.3,1581.5,65.9,1583.6,65.9z"/>
		<path d="M1632.1,18.6h12.1l16.2,39.5h0.6l16.2-39.5h12.1v54.5h-9.5V35.6h-0.5l-15.1,37.3h-7.1l-15.1-37.4h-0.5v37.6h-9.5V18.6z"/>
		<path d="M1725.7,55.9V32.2h9.6v40.9h-9.3v-7.3h-0.4c-0.9,2.3-2.4,4.2-4.5,5.6c-2.1,1.5-4.7,2.2-7.8,2.2c-2.7,0-5-0.6-7.1-1.8
			c-2.1-1.2-3.7-2.9-4.8-5.2s-1.7-5.1-1.7-8.3v-26h9.6v24.6c0,2.6,0.7,4.7,2.1,6.2s3.3,2.3,5.6,2.3c1.4,0,2.8-0.3,4.1-1
			c1.3-0.7,2.4-1.7,3.3-3.1C1725.3,59.7,1725.7,58,1725.7,55.9z"/>
		<path d="M1754.9,18.6v54.5h-9.6V18.6H1754.9z"/>
		<path d="M1785.2,32.2v7.5h-23.5v-7.5H1785.2z M1767.5,22.4h9.6v38.4c0,1.3,0.2,2.3,0.6,3s0.9,1.1,1.6,1.4c0.7,0.2,1.4,0.4,2.2,0.4
			c0.6,0,1.2,0,1.7-0.1c0.5-0.1,0.9-0.2,1.2-0.2l1.6,7.5c-0.5,0.2-1.2,0.4-2.2,0.6c-1,0.2-2.1,0.3-3.5,0.4c-2.4,0.1-4.6-0.3-6.5-1.1
			c-1.9-0.8-3.5-2.1-4.6-3.8c-1.1-1.7-1.7-3.8-1.7-6.4V22.4z"/>
		<path d="M1798.1,26.4c-1.5,0-2.8-0.5-3.9-1.5c-1.1-1-1.6-2.3-1.6-3.7s0.5-2.7,1.7-3.7c1.1-1,2.4-1.5,3.9-1.5s2.8,0.5,3.9,1.5
			c1.1,1,1.6,2.3,1.6,3.7s-0.5,2.7-1.6,3.7C1801,25.9,1799.6,26.4,1798.1,26.4z M1793.3,73.1V32.2h9.6v40.9H1793.3z"/>
		<path d="M1812.8,88.4V32.2h9.5V39h0.6c0.5-1,1.2-2.1,2.1-3.2c0.9-1.1,2.1-2.1,3.7-2.9c1.5-0.8,3.5-1.2,5.9-1.2
			c3.2,0,6,0.8,8.6,2.4c2.5,1.6,4.6,4,6.1,7.1c1.5,3.1,2.2,7,2.2,11.5c0,4.5-0.7,8.3-2.2,11.5c-1.5,3.1-3.5,5.5-6,7.2
			s-5.4,2.5-8.6,2.5c-2.3,0-4.3-0.4-5.8-1.2c-1.5-0.8-2.8-1.7-3.7-2.8c-0.9-1.1-1.7-2.2-2.2-3.2h-0.4v21.8H1812.8z M1822.3,52.6
			c0,2.6,0.4,5,1.1,7c0.8,2,1.8,3.5,3.3,4.6s3.2,1.7,5.2,1.7c2.1,0,3.9-0.6,5.4-1.7c1.4-1.1,2.5-2.7,3.3-4.7c0.7-2,1.1-4.3,1.1-6.8
			c0-2.5-0.4-4.8-1.1-6.8c-0.7-2-1.8-3.5-3.2-4.6c-1.4-1.1-3.2-1.7-5.4-1.7c-2.1,0-3.8,0.5-5.2,1.6c-1.4,1.1-2.5,2.6-3.3,4.6
			C1822.7,47.7,1822.3,50,1822.3,52.6z"/>
		<path d="M1869.3,18.6v54.5h-9.6V18.6H1869.3z"/>
		<path d="M1897.3,73.9c-4.1,0-7.6-0.9-10.6-2.6c-3-1.7-5.3-4.1-6.9-7.3c-1.6-3.2-2.4-6.9-2.4-11.1c0-4.2,0.8-7.9,2.4-11.1
			c1.6-3.2,3.9-5.7,6.8-7.5c2.9-1.8,6.3-2.7,10.2-2.7c2.5,0,4.9,0.4,7.2,1.2c2.2,0.8,4.2,2.1,6,3.7c1.7,1.7,3.1,3.8,4.1,6.4
			s1.5,5.7,1.5,9.3v3H1882v-6.5h24.3c0-1.8-0.4-3.5-1.2-4.9c-0.8-1.4-1.9-2.6-3.3-3.4c-1.4-0.8-3-1.3-4.9-1.3c-2,0-3.7,0.5-5.2,1.4
			s-2.6,2.2-3.5,3.7c-0.8,1.5-1.2,3.2-1.3,5V55c0,2.4,0.4,4.4,1.3,6.1c0.9,1.7,2.1,3,3.6,3.9s3.4,1.3,5.5,1.3c1.4,0,2.7-0.2,3.8-0.6
			c1.1-0.4,2.1-1,3-1.8c0.8-0.8,1.5-1.7,1.9-2.9l9,1c-0.6,2.4-1.6,4.5-3.2,6.2c-1.6,1.8-3.6,3.1-6.1,4.1
			C1903.3,73.4,1900.5,73.9,1897.3,73.9z"/>
	</g>
</g>
<g>
	<g>
		<g>
			<g>
				<line class="st3" x1="108.3" y1="131.4" x2="2058.9" y2="131.4"/>
			</g>
		</g>
	</g>
</g>
<g>
	<g>
		<g>
			<g>
				<line class="st3" x1="108.3" y1="210.2" x2="2058.9" y2="210.2"/>
			</g>
		</g>
	</g>
</g>
<g>
	<g>
		<g>
			<g>
				<line class="st3" x1="108.3" y1="288.9" x2="2058.9" y2="288.9"/>
			</g>
		</g>
	</g>
</g>
<g>
	<g>
		<g>
			<g>
				<line class="st3" x1="108.3" y1="367.8" x2="2058.9" y2="367.8"/>
			</g>
		</g>
	</g>
</g>
<g>
	<g>
		<g>
			<g>
				<line class="st3" x1="108.3" y1="604.5" x2="2058.9" y2="604.5"/>
			</g>
		</g>
	</g>
</g>
<g>
	<g>
		<g>
			<g>
				<line class="st3" x1="108.3" y1="683.4" x2="2058.9" y2="683.4"/>
			</g>
		</g>
	</g>
</g>
<g>
	<g>
		<g>
			<g>
				<line class="st3" x1="108.3" y1="762.1" x2="2058.9" y2="762.1"/>
			</g>
		</g>
	</g>
</g>
<g>
	<g>
		<g>
			<g>
				<line class="st3" x1="108.3" y1="841.1" x2="2058.9" y2="841.1"/>
			</g>
		</g>
	</g>
</g>
<g>
	<g>
		<g>
			<g>
				<line class="st3" x1="107" y1="917.8" x2="2061" y2="917.8"/>
			</g>
		</g>
	</g>
</g>
<g>
	<g>
		<g>
			<g>
				<line class="st3" x1="108.3" y1="446.7" x2="2058.9" y2="446.7"/>
			</g>
		</g>
	</g>
</g>
<g>
	<g>
		<g>
			<g>
				<line class="st3" x1="108.3" y1="525.6" x2="2058.9" y2="525.6"/>
			</g>
		</g>
	</g>
</g>
<g>
	<g class="st0">
		<path d="M14.5,929.8c-1.9,0-3.6-0.5-5-1.5s-2.4-2.4-3.2-4.3s-1.1-4.1-1.1-6.7c0-2.6,0.4-4.8,1.1-6.7s1.8-3.2,3.2-4.2s3-1.5,5-1.5
			s3.6,0.5,5,1.5s2.4,2.4,3.2,4.2s1.1,4.1,1.1,6.7c0,2.6-0.4,4.9-1.1,6.7s-1.8,3.3-3.2,4.2S16.4,929.8,14.5,929.8z M14.5,926.2
			c1.5,0,2.7-0.7,3.6-2.2s1.3-3.7,1.3-6.5c0-1.9-0.2-3.5-0.6-4.8s-1-2.3-1.7-2.9s-1.6-1-2.6-1c-1.5,0-2.7,0.7-3.5,2.2
			s-1.3,3.7-1.3,6.5c0,1.9,0.2,3.5,0.6,4.8s1,2.3,1.7,2.9S13.5,926.2,14.5,926.2z"/>
		<path d="M30.3,929.6c-0.7,0-1.3-0.2-1.8-0.8s-0.8-1.1-0.8-1.8c0-0.7,0.2-1.3,0.8-1.8s1.1-0.8,1.8-0.8c0.7,0,1.3,0.2,1.8,0.8
			c0.5,0.5,0.8,1.1,0.8,1.8c0,0.5-0.1,0.9-0.4,1.3s-0.6,0.7-0.9,0.9S30.8,929.6,30.3,929.6z"/>
		<path d="M46.1,929.8c-1.9,0-3.6-0.5-5-1.5s-2.4-2.4-3.2-4.3s-1.1-4.1-1.1-6.7c0-2.6,0.4-4.8,1.1-6.7s1.8-3.2,3.2-4.2s3-1.5,5-1.5
			s3.6,0.5,5,1.5s2.4,2.4,3.2,4.2s1.1,4.1,1.1,6.7c0,2.6-0.4,4.9-1.1,6.7s-1.8,3.3-3.2,4.2S48,929.8,46.1,929.8z M46.1,926.2
			c1.5,0,2.7-0.7,3.6-2.2s1.3-3.7,1.3-6.5c0-1.9-0.2-3.5-0.6-4.8s-1-2.3-1.7-2.9s-1.6-1-2.6-1c-1.5,0-2.7,0.7-3.5,2.2
			s-1.3,3.7-1.3,6.5c0,1.9,0.2,3.5,0.6,4.8s1,2.3,1.7,2.9S45.1,926.2,46.1,926.2z"/>
		<path d="M68.1,929.8c-1.9,0-3.6-0.5-5-1.5c-1.4-1-2.4-2.4-3.2-4.3s-1.1-4.1-1.1-6.7c0-2.6,0.4-4.8,1.1-6.7s1.8-3.2,3.2-4.2
			c1.4-1,3-1.5,5-1.5s3.6,0.5,5,1.5s2.4,2.4,3.2,4.2s1.1,4.1,1.1,6.7c0,2.6-0.4,4.9-1.1,6.7s-1.8,3.3-3.2,4.2S70,929.8,68.1,929.8z
			 M68.1,926.2c1.5,0,2.7-0.7,3.6-2.2s1.3-3.7,1.3-6.5c0-1.9-0.2-3.5-0.6-4.8s-1-2.3-1.7-2.9s-1.6-1-2.6-1c-1.5,0-2.7,0.7-3.5,2.2
			c-0.9,1.5-1.3,3.7-1.3,6.5c0,1.9,0.2,3.5,0.6,4.8c0.4,1.3,1,2.3,1.7,2.9S67.1,926.2,68.1,926.2z"/>
	</g>
</g>
<g>
	<line class="st4" x1="468.8" y1="710" x2="468.8" y2="920.9"/>
	<g>
		<path class="st5" d="M296.9,539.5h343.9c7.8,0,14.2,6.4,14.2,14.2v145.1c0,7.8-6.4,14.2-14.2,14.2H296.9
			c-7.8,0-14.2-6.4-14.2-14.2V553.7C282.7,545.8,289,539.5,296.9,539.5z"/>
		<g>
			<g>
				<g class="st0">
					<path class="st6" d="M333.2,575.4c0,2.6-0.5,4.9-1.5,6.8c-1,1.9-2.3,3.4-4,4.4c-1.7,1-3.6,1.5-5.7,1.5c-2.1,0-4.1-0.5-5.7-1.5
						c-1.7-1-3-2.5-4-4.4c-1-1.9-1.5-4.2-1.5-6.8c0-2.6,0.5-4.9,1.5-6.8c1-1.9,2.3-3.4,4-4.4c1.7-1,3.6-1.5,5.7-1.5
						c2.1,0,4,0.5,5.7,1.5c1.7,1,3,2.5,4,4.4C332.7,570.4,333.2,572.7,333.2,575.4z M329.5,575.4c0-2-0.3-3.7-1-5.1
						c-0.6-1.4-1.5-2.4-2.7-3.1c-1.1-0.7-2.4-1.1-3.8-1.1c-1.4,0-2.7,0.4-3.8,1.1c-1.1,0.7-2,1.8-2.7,3.1c-0.6,1.4-1,3.1-1,5.1
						c0,2,0.3,3.7,1,5.1c0.6,1.4,1.5,2.4,2.7,3.1c1.1,0.7,2.4,1.1,3.8,1.1c1.4,0,2.7-0.4,3.8-1.1c1.1-0.7,2-1.8,2.7-3.1
						C329.2,579.1,329.5,577.4,329.5,575.4z"/>
					<path class="st6" d="M340,563l6.9,20.2h0.3l6.9-20.2h4l-8.9,24.8h-4.3L336,563H340z"/>
					<path class="st6" d="M360.5,566.2V563h19.2v3.2H372v21.6h-3.7v-21.6H360.5z"/>
					<path class="st6" d="M383.9,587.8V563h3.7v21.6h11.2v3.2H383.9z"/>
					<path class="st6" d="M401.2,563h4.2l6.5,11.3h0.3l6.5-11.3h4.2l-9,15.1v9.7h-3.7V578L401.2,563z"/>
					<path class="st6" d="M426.5,587.8V563h8.8c1.9,0,3.5,0.3,4.8,1c1.3,0.7,2.2,1.6,2.9,2.7s0.9,2.5,0.9,4c0,1.5-0.3,2.9-1,4
						c-0.6,1.2-1.6,2-2.9,2.7c-1.3,0.6-2.9,1-4.8,1h-6.7v-3.2h6.4c1.2,0,2.2-0.2,3-0.5c0.8-0.3,1.3-0.9,1.7-1.5
						c0.4-0.7,0.5-1.5,0.5-2.4c0-0.9-0.2-1.7-0.5-2.4c-0.4-0.7-0.9-1.2-1.7-1.6s-1.8-0.6-3-0.6h-4.7v21.6H426.5z M438.7,576.6
						l6.1,11.2h-4.3l-6-11.2H438.7z"/>
					<path class="st6" d="M451.3,563v2.3c0,0.7-0.1,1.4-0.4,2.2c-0.3,0.8-0.6,1.5-1.1,2.2s-1,1.3-1.6,1.8l-1.8-1.3
						c0.5-0.7,0.9-1.4,1.2-2.2s0.5-1.6,0.5-2.6V563H451.3z"/>
					<path class="st6" d="M468.8,569.5c-0.1-1.1-0.7-2-1.6-2.7c-0.9-0.6-2.1-1-3.5-1c-1,0-1.9,0.2-2.6,0.5c-0.7,0.3-1.3,0.8-1.7,1.3
						c-0.4,0.6-0.6,1.2-0.6,1.9c0,0.6,0.1,1.1,0.4,1.5s0.6,0.8,1.1,1.1c0.5,0.3,0.9,0.5,1.5,0.7c0.5,0.2,1,0.3,1.5,0.5l2.4,0.6
						c0.8,0.2,1.6,0.5,2.4,0.8c0.8,0.3,1.6,0.8,2.3,1.3c0.7,0.5,1.3,1.2,1.7,2c0.4,0.8,0.7,1.8,0.7,2.9c0,1.4-0.4,2.7-1.1,3.7
						s-1.8,1.9-3.1,2.6c-1.4,0.6-3,0.9-5,0.9c-1.9,0-3.5-0.3-4.8-0.9c-1.4-0.6-2.4-1.4-3.2-2.5c-0.8-1.1-1.2-2.4-1.3-3.9h3.8
						c0.1,0.9,0.4,1.6,0.9,2.2c0.5,0.6,1.2,1,2,1.3c0.8,0.3,1.7,0.4,2.6,0.4c1.1,0,2-0.2,2.8-0.5c0.8-0.3,1.5-0.8,2-1.4
						c0.5-0.6,0.7-1.3,0.7-2.1c0-0.7-0.2-1.3-0.6-1.8c-0.4-0.5-1-0.9-1.7-1.2c-0.7-0.3-1.5-0.6-2.4-0.8l-2.9-0.8
						c-2-0.5-3.6-1.3-4.7-2.4c-1.2-1-1.7-2.4-1.7-4.2c0-1.4,0.4-2.7,1.2-3.7s1.8-1.9,3.1-2.5c1.3-0.6,2.8-0.9,4.5-0.9
						c1.7,0,3.2,0.3,4.4,0.9c1.3,0.6,2.3,1.4,3,2.4c0.7,1,1.1,2.2,1.2,3.5H468.8z"/>
					<path class="st6" d="M499.8,569.5c-0.1-1.1-0.7-2-1.6-2.7c-0.9-0.6-2.1-1-3.5-1c-1,0-1.9,0.2-2.6,0.5c-0.7,0.3-1.3,0.8-1.7,1.3
						c-0.4,0.6-0.6,1.2-0.6,1.9c0,0.6,0.1,1.1,0.4,1.5s0.6,0.8,1.1,1.1c0.5,0.3,0.9,0.5,1.5,0.7c0.5,0.2,1,0.3,1.5,0.5l2.4,0.6
						c0.8,0.2,1.6,0.5,2.4,0.8c0.8,0.3,1.6,0.8,2.3,1.3c0.7,0.5,1.3,1.2,1.7,2c0.4,0.8,0.7,1.8,0.7,2.9c0,1.4-0.4,2.7-1.1,3.7
						s-1.8,1.9-3.1,2.6c-1.4,0.6-3,0.9-5,0.9c-1.9,0-3.5-0.3-4.8-0.9c-1.4-0.6-2.4-1.4-3.2-2.5c-0.8-1.1-1.2-2.4-1.3-3.9h3.8
						c0.1,0.9,0.4,1.6,0.9,2.2c0.5,0.6,1.2,1,2,1.3c0.8,0.3,1.7,0.4,2.6,0.4c1.1,0,2-0.2,2.8-0.5c0.8-0.3,1.5-0.8,2-1.4
						c0.5-0.6,0.7-1.3,0.7-2.1c0-0.7-0.2-1.3-0.6-1.8c-0.4-0.5-1-0.9-1.7-1.2c-0.7-0.3-1.5-0.6-2.4-0.8l-2.9-0.8
						c-2-0.5-3.6-1.3-4.7-2.4c-1.2-1-1.7-2.4-1.7-4.2c0-1.4,0.4-2.7,1.2-3.7s1.8-1.9,3.1-2.5c1.3-0.6,2.8-0.9,4.5-0.9
						c1.7,0,3.2,0.3,4.4,0.9c1.3,0.6,2.3,1.4,3,2.4c0.7,1,1.1,2.2,1.2,3.5H499.8z"/>
					<path class="st6" d="M511.9,563v24.8h-3.7V563H511.9z"/>
					<path class="st6" d="M534.2,570.8c-0.2-0.7-0.5-1.4-0.9-2c-0.4-0.6-0.9-1.1-1.4-1.5c-0.5-0.4-1.2-0.7-1.8-1s-1.4-0.3-2.3-0.3
						c-1.4,0-2.7,0.4-3.8,1.1c-1.1,0.7-2,1.8-2.7,3.2c-0.6,1.4-1,3.1-1,5.1c0,2,0.3,3.7,1,5.1c0.7,1.4,1.5,2.4,2.7,3.2
						c1.1,0.7,2.4,1.1,3.9,1.1c1.3,0,2.5-0.3,3.5-0.8s1.8-1.3,2.3-2.3c0.6-1,0.8-2.2,0.8-3.6l1,0.2h-7.1v-3.1h9.7v2.8
						c0,2.1-0.4,3.9-1.3,5.4s-2.1,2.7-3.7,3.5c-1.6,0.8-3.3,1.2-5.3,1.2c-2.2,0-4.2-0.5-5.9-1.5s-3-2.5-4-4.4
						c-0.9-1.9-1.4-4.2-1.4-6.8c0-2,0.3-3.8,0.8-5.3c0.5-1.6,1.3-2.9,2.3-4c1-1.1,2.2-1.9,3.5-2.5c1.4-0.6,2.8-0.9,4.4-0.9
						c1.3,0,2.6,0.2,3.7,0.6c1.2,0.4,2.2,1,3.1,1.7c0.9,0.7,1.7,1.6,2.3,2.6c0.6,1,1,2.1,1.2,3.3H534.2z"/>
					<path class="st6" d="M562.9,563v24.8h-3.4l-12.6-18.2h-0.2v18.2h-3.7V563h3.5l12.6,18.2h0.2V563H562.9z"/>
					<path class="st6" d="M570.5,587.8h-4l8.9-24.8h4.3l8.9,24.8h-4l-7-20.3h-0.2L570.5,587.8z M571.1,578H584v3.1h-12.9V578z"/>
					<path class="st6" d="M592.2,587.8V563h3.7v21.6h11.2v3.2H592.2z"/>
					<path class="st6" d="M625,569.5c-0.1-1.1-0.7-2-1.6-2.7c-0.9-0.6-2.1-1-3.5-1c-1,0-1.9,0.2-2.6,0.5c-0.7,0.3-1.3,0.8-1.7,1.3
						c-0.4,0.6-0.6,1.2-0.6,1.9c0,0.6,0.1,1.1,0.4,1.5s0.6,0.8,1.1,1.1c0.5,0.3,0.9,0.5,1.5,0.7c0.5,0.2,1,0.3,1.5,0.5l2.4,0.6
						c0.8,0.2,1.6,0.5,2.4,0.8c0.8,0.3,1.6,0.8,2.3,1.3c0.7,0.5,1.3,1.2,1.7,2c0.4,0.8,0.7,1.8,0.7,2.9c0,1.4-0.4,2.7-1.1,3.7
						s-1.8,1.9-3.1,2.6c-1.4,0.6-3,0.9-5,0.9c-1.9,0-3.5-0.3-4.8-0.9c-1.4-0.6-2.4-1.4-3.2-2.5c-0.8-1.1-1.2-2.4-1.3-3.9h3.8
						c0.1,0.9,0.4,1.6,0.9,2.2c0.5,0.6,1.2,1,2,1.3c0.8,0.3,1.7,0.4,2.6,0.4c1.1,0,2-0.2,2.8-0.5c0.8-0.3,1.5-0.8,2-1.4
						c0.5-0.6,0.7-1.3,0.7-2.1c0-0.7-0.2-1.3-0.6-1.8c-0.4-0.5-1-0.9-1.7-1.2c-0.7-0.3-1.5-0.6-2.4-0.8l-2.9-0.8
						c-2-0.5-3.6-1.3-4.7-2.4c-1.2-1-1.7-2.4-1.7-4.2c0-1.4,0.4-2.7,1.2-3.7s1.8-1.9,3.1-2.5c1.3-0.6,2.8-0.9,4.5-0.9
						c1.7,0,3.2,0.3,4.4,0.9c1.3,0.6,2.3,1.4,3,2.4c0.7,1,1.1,2.2,1.2,3.5H625z"/>
				</g>
			</g>
			<g>
				<g class="st0">
					<path class="st6" d="M313.2,623.1c0,2.6-0.5,4.9-1.5,6.8c-1,1.9-2.3,3.4-4,4.4c-1.7,1-3.6,1.5-5.7,1.5c-2.1,0-4.1-0.5-5.7-1.5
						c-1.7-1-3-2.5-4-4.4c-1-1.9-1.5-4.2-1.5-6.8c0-2.6,0.5-4.9,1.5-6.8c1-1.9,2.3-3.4,4-4.4c1.7-1,3.6-1.5,5.7-1.5
						c2.1,0,4,0.5,5.7,1.5c1.7,1,3,2.5,4,4.4C312.7,618.2,313.2,620.5,313.2,623.1z M309.5,623.1c0-2-0.3-3.7-1-5.1
						c-0.6-1.4-1.5-2.4-2.7-3.1c-1.1-0.7-2.4-1.1-3.8-1.1c-1.4,0-2.7,0.4-3.8,1.1c-1.1,0.7-2,1.8-2.7,3.1c-0.6,1.4-1,3.1-1,5.1
						c0,2,0.3,3.7,1,5.1c0.6,1.4,1.5,2.4,2.7,3.1c1.1,0.7,2.4,1.1,3.8,1.1c1.4,0,2.7-0.4,3.8-1.1c1.1-0.7,2-1.8,2.7-3.1
						C309.2,626.8,309.5,625.1,309.5,623.1z"/>
					<path class="st6" d="M333.8,610.7h3.8V627c0,1.7-0.4,3.3-1.2,4.6c-0.8,1.3-2,2.4-3.4,3.1s-3.2,1.1-5.2,1.1
						c-2,0-3.7-0.4-5.2-1.1c-1.5-0.8-2.6-1.8-3.4-3.1c-0.8-1.3-1.2-2.9-1.2-4.6v-16.3h3.7v16c0,1.1,0.2,2.1,0.7,3
						c0.5,0.9,1.2,1.6,2.1,2.1s2,0.7,3.2,0.7c1.3,0,2.3-0.2,3.3-0.7s1.6-1.2,2.1-2.1c0.5-0.9,0.7-1.9,0.7-3V610.7z"/>
					<path class="st6" d="M341.8,613.9v-3.2H361v3.2h-7.7v21.6h-3.7v-21.6H341.8z"/>
					<path class="st6" d="M365.2,635.5v-24.8h8.8c1.9,0,3.5,0.4,4.8,1.1s2.2,1.7,2.8,2.9s0.9,2.6,0.9,4.1c0,1.5-0.3,2.9-1,4.1
						c-0.6,1.2-1.6,2.2-2.9,2.9c-1.3,0.7-2.9,1.1-4.8,1.1h-6.1v-3.2h5.7c1.2,0,2.2-0.2,3-0.6c0.8-0.4,1.3-1,1.7-1.7
						c0.4-0.7,0.5-1.6,0.5-2.5s-0.2-1.8-0.5-2.5c-0.4-0.7-0.9-1.3-1.7-1.7c-0.8-0.4-1.8-0.6-3-0.6h-4.7v21.6H365.2z"/>
					<path class="st6" d="M387,635.5v-24.8h15.5v3.2h-11.8v7.6h11v3.2h-11v7.6h11.9v3.2H387z"/>
					<path class="st6" d="M407.5,635.5v-24.8h8.8c1.9,0,3.5,0.3,4.8,1c1.3,0.7,2.2,1.6,2.9,2.7s0.9,2.5,0.9,4c0,1.5-0.3,2.9-1,4
						c-0.6,1.2-1.6,2-2.9,2.7c-1.3,0.6-2.9,1-4.8,1h-6.7v-3.2h6.4c1.2,0,2.2-0.2,3-0.5c0.8-0.3,1.3-0.9,1.7-1.5
						c0.4-0.7,0.5-1.5,0.5-2.4c0-0.9-0.2-1.7-0.5-2.4c-0.4-0.7-0.9-1.2-1.7-1.6s-1.8-0.6-3-0.6h-4.7v21.6H407.5z M419.8,624.3
						l6.1,11.2h-4.3l-6-11.2H419.8z"/>
					<path class="st6" d="M429.5,635.5v-24.8h15.4v3.2h-11.6v7.6h10.5v3.2h-10.5v10.8H429.5z"/>
					<path class="st6" d="M471,623.1c0,2.6-0.5,4.9-1.5,6.8c-1,1.9-2.3,3.4-4,4.4c-1.7,1-3.6,1.5-5.7,1.5c-2.1,0-4.1-0.5-5.7-1.5
						c-1.7-1-3-2.5-4-4.4c-1-1.9-1.5-4.2-1.5-6.8c0-2.6,0.5-4.9,1.5-6.8c1-1.9,2.3-3.4,4-4.4c1.7-1,3.6-1.5,5.7-1.5
						c2.1,0,4,0.5,5.7,1.5c1.7,1,3,2.5,4,4.4C470.5,618.2,471,620.5,471,623.1z M467.3,623.1c0-2-0.3-3.7-1-5.1
						c-0.6-1.4-1.5-2.4-2.7-3.1c-1.1-0.7-2.4-1.1-3.8-1.1c-1.4,0-2.7,0.4-3.8,1.1c-1.1,0.7-2,1.8-2.7,3.1c-0.6,1.4-1,3.1-1,5.1
						c0,2,0.3,3.7,1,5.1c0.6,1.4,1.5,2.4,2.7,3.1c1.1,0.7,2.4,1.1,3.8,1.1c1.4,0,2.7-0.4,3.8-1.1c1.1-0.7,2-1.8,2.7-3.1
						C467,626.8,467.3,625.1,467.3,623.1z"/>
					<path class="st6" d="M475.7,635.5v-24.8h8.8c1.9,0,3.5,0.3,4.8,1c1.3,0.7,2.2,1.6,2.9,2.7s0.9,2.5,0.9,4c0,1.5-0.3,2.9-1,4
						c-0.6,1.2-1.6,2-2.9,2.7c-1.3,0.6-2.9,1-4.8,1h-6.7v-3.2h6.4c1.2,0,2.2-0.2,3-0.5c0.8-0.3,1.3-0.9,1.7-1.5
						c0.4-0.7,0.5-1.5,0.5-2.4c0-0.9-0.2-1.7-0.5-2.4c-0.4-0.7-0.9-1.2-1.7-1.6s-1.8-0.6-3-0.6h-4.7v21.6H475.7z M487.9,624.3
						l6.1,11.2h-4.3l-6-11.2H487.9z"/>
					<path class="st6" d="M497.7,610.7h4.5l7.9,19.3h0.3l7.9-19.3h4.5v24.8h-3.6v-17.9H519l-7.3,17.9h-3l-7.3-17.9h-0.2v18h-3.6
						V610.7z"/>
					<path class="st6" d="M528.3,635.5v-24.8h15.5v3.2H532v7.6h11v3.2h-11v7.6H544v3.2H528.3z"/>
					<path class="st6" d="M556.9,635.5h-8v-24.8h8.3c2.4,0,4.5,0.5,6.3,1.5c1.7,1,3.1,2.4,4,4.2c0.9,1.8,1.4,4.1,1.4,6.6
						c0,2.6-0.5,4.8-1.4,6.7c-0.9,1.9-2.3,3.3-4.1,4.3C561.5,635,559.4,635.5,556.9,635.5z M552.6,632.2h4.1c1.9,0,3.5-0.4,4.7-1.1
						c1.3-0.7,2.2-1.8,2.8-3.1s0.9-3,0.9-5c0-1.9-0.3-3.6-0.9-5c-0.6-1.4-1.5-2.4-2.8-3.1c-1.2-0.7-2.7-1.1-4.5-1.1h-4.3V632.2z"/>
					<path class="st6" d="M583,635.5l10.8-21.4v-0.2h-12.5v-3.2h16.4v3.3l-10.8,21.5H583z"/>
					<path class="st6" d="M610.2,635.8c-1.7,0-3.3-0.3-4.6-0.9c-1.3-0.6-2.4-1.4-3.1-2.5c-0.8-1-1.1-2.2-1.1-3.6c0-1,0.2-2,0.6-2.9
						c0.4-0.9,1-1.6,1.8-2.2c0.8-0.6,1.6-1,2.5-1.1v-0.1c-1.2-0.3-2.2-1-3-2c-0.7-1-1.1-2.2-1.1-3.5c0-1.3,0.3-2.4,1-3.4
						s1.6-1.8,2.8-2.4c1.2-0.6,2.6-0.9,4.1-0.9c1.5,0,2.9,0.3,4.1,0.9c1.2,0.6,2.1,1.4,2.8,2.4c0.7,1,1,2.1,1,3.4
						c0,1.3-0.4,2.5-1.1,3.5c-0.8,1-1.7,1.7-2.9,2v0.1c0.9,0.2,1.8,0.5,2.5,1.1c0.7,0.6,1.3,1.3,1.8,2.2c0.4,0.9,0.7,1.9,0.7,2.9
						c0,1.3-0.4,2.5-1.1,3.6c-0.8,1-1.8,1.9-3.1,2.5C613.5,635.5,612,635.8,610.2,635.8z M610.2,632.8c1,0,1.9-0.2,2.7-0.5
						c0.8-0.3,1.3-0.8,1.7-1.4c0.4-0.6,0.6-1.3,0.6-2.2c0-0.9-0.2-1.6-0.7-2.3c-0.4-0.7-1-1.2-1.8-1.6c-0.8-0.4-1.6-0.6-2.6-0.6
						c-1,0-1.8,0.2-2.6,0.6c-0.8,0.4-1.4,0.9-1.8,1.6c-0.4,0.7-0.6,1.4-0.6,2.3c0,0.8,0.2,1.6,0.6,2.2c0.4,0.6,1,1.1,1.7,1.4
						C608.3,632.6,609.2,632.8,610.2,632.8z M610.2,621.2c0.8,0,1.6-0.2,2.2-0.5s1.1-0.8,1.5-1.4c0.4-0.6,0.6-1.3,0.6-2.1
						c0-0.8-0.2-1.5-0.6-2c-0.4-0.6-0.9-1-1.5-1.4c-0.6-0.3-1.4-0.5-2.2-0.5c-0.9,0-1.6,0.2-2.2,0.5c-0.6,0.3-1.1,0.8-1.5,1.4
						c-0.4,0.6-0.5,1.3-0.5,2c0,0.8,0.2,1.5,0.5,2.1c0.4,0.6,0.9,1,1.5,1.4C608.7,621.1,609.4,621.2,610.2,621.2z"/>
					<path class="st6" d="M623.9,616.7v-1.3c0-0.9,0.2-1.8,0.6-2.6c0.4-0.8,1-1.4,1.7-1.9c0.8-0.5,1.7-0.7,2.7-0.7
						c1.1,0,2,0.2,2.8,0.7c0.7,0.5,1.3,1.1,1.7,1.9c0.4,0.8,0.6,1.6,0.6,2.6v1.3c0,0.9-0.2,1.8-0.6,2.6c-0.4,0.8-0.9,1.4-1.7,1.9
						c-0.7,0.5-1.7,0.7-2.7,0.7c-1.1,0-2-0.2-2.8-0.7c-0.7-0.5-1.3-1.1-1.7-1.9C624.1,618.5,623.9,617.6,623.9,616.7z M624.9,635.5
						l17-24.8h2.9l-17,24.8H624.9z M626.7,615.4v1.3c0,0.7,0.2,1.3,0.5,1.9c0.3,0.6,0.9,0.8,1.7,0.8c0.8,0,1.4-0.3,1.7-0.8
						c0.3-0.6,0.5-1.2,0.5-1.9v-1.3c0-0.7-0.2-1.3-0.5-1.9c-0.3-0.6-0.9-0.8-1.7-0.8c-0.8,0-1.4,0.3-1.7,0.8
						C626.9,614,626.7,614.7,626.7,615.4z M636.3,630.9v-1.3c0-0.9,0.2-1.8,0.6-2.6c0.4-0.8,1-1.4,1.7-1.9c0.8-0.5,1.7-0.7,2.7-0.7
						c1.1,0,2,0.2,2.8,0.7c0.7,0.5,1.3,1.1,1.7,1.9c0.4,0.8,0.6,1.6,0.6,2.6v1.3c0,0.9-0.2,1.8-0.6,2.6c-0.4,0.8-1,1.4-1.7,1.9
						c-0.7,0.5-1.7,0.7-2.7,0.7c-1.1,0-2-0.2-2.8-0.7c-0.8-0.5-1.3-1.1-1.7-1.9C636.5,632.6,636.3,631.8,636.3,630.9z M639.1,629.5
						v1.3c0,0.7,0.2,1.3,0.5,1.9c0.3,0.6,0.9,0.8,1.7,0.8c0.8,0,1.4-0.3,1.7-0.8c0.3-0.6,0.5-1.2,0.5-1.9v-1.3
						c0-0.7-0.2-1.3-0.5-1.9c-0.3-0.6-0.9-0.8-1.7-0.8c-0.8,0-1.4,0.3-1.7,0.8C639.3,628.2,639.2,628.9,639.1,629.5z"/>
				</g>
			</g>
			<g>
				<g class="st0">
					<path class="st6" d="M395.5,670.8c0,2.6-0.5,4.9-1.5,6.8c-1,1.9-2.3,3.4-4,4.4c-1.7,1-3.6,1.5-5.7,1.5c-2.1,0-4.1-0.5-5.7-1.5
						c-1.7-1-3-2.5-4-4.4c-1-1.9-1.5-4.2-1.5-6.8c0-2.6,0.5-4.9,1.5-6.8c1-1.9,2.3-3.4,4-4.4c1.7-1,3.6-1.5,5.7-1.5
						c2.1,0,4,0.5,5.7,1.5c1.7,1,3,2.5,4,4.4C395,665.9,395.5,668.1,395.5,670.8z M391.8,670.8c0-2-0.3-3.7-1-5.1
						c-0.6-1.4-1.5-2.4-2.7-3.1c-1.1-0.7-2.4-1.1-3.8-1.1c-1.4,0-2.7,0.4-3.8,1.1c-1.1,0.7-2,1.8-2.7,3.1c-0.6,1.4-1,3.1-1,5.1
						c0,2,0.3,3.7,1,5.1c0.6,1.4,1.5,2.4,2.7,3.1c1.1,0.7,2.4,1.1,3.8,1.1c1.4,0,2.7-0.4,3.8-1.1c1.1-0.7,2-1.8,2.7-3.1
						C391.5,674.5,391.8,672.8,391.8,670.8z"/>
					<path class="st6" d="M400.2,683.2v-24.8h15.4v3.2h-11.6v7.6h10.5v3.2h-10.5v10.8H400.2z"/>
					<path class="st6" d="M442.7,664.9c-0.1-1.1-0.7-2-1.6-2.7c-0.9-0.6-2.1-1-3.5-1c-1,0-1.9,0.2-2.6,0.5c-0.7,0.3-1.3,0.8-1.7,1.3
						c-0.4,0.6-0.6,1.2-0.6,1.9c0,0.6,0.1,1.1,0.4,1.5s0.6,0.8,1.1,1.1c0.5,0.3,0.9,0.5,1.5,0.7c0.5,0.2,1,0.3,1.5,0.5l2.4,0.6
						c0.8,0.2,1.6,0.5,2.4,0.8c0.8,0.3,1.6,0.8,2.3,1.3c0.7,0.5,1.3,1.2,1.7,2c0.4,0.8,0.7,1.8,0.7,2.9c0,1.4-0.4,2.7-1.1,3.7
						s-1.8,1.9-3.1,2.6c-1.4,0.6-3,0.9-5,0.9c-1.9,0-3.5-0.3-4.8-0.9c-1.4-0.6-2.4-1.4-3.2-2.5c-0.8-1.1-1.2-2.4-1.3-3.9h3.8
						c0.1,0.9,0.4,1.6,0.9,2.2c0.5,0.6,1.2,1,2,1.3c0.8,0.3,1.7,0.4,2.6,0.4c1.1,0,2-0.2,2.8-0.5c0.8-0.3,1.5-0.8,2-1.4
						c0.5-0.6,0.7-1.3,0.7-2.1c0-0.7-0.2-1.3-0.6-1.8c-0.4-0.5-1-0.9-1.7-1.2c-0.7-0.3-1.5-0.6-2.4-0.8l-2.9-0.8
						c-2-0.5-3.6-1.3-4.7-2.4c-1.2-1-1.7-2.4-1.7-4.2c0-1.4,0.4-2.7,1.2-3.7s1.8-1.9,3.1-2.5c1.3-0.6,2.8-0.9,4.5-0.9
						c1.7,0,3.2,0.3,4.4,0.9c1.3,0.6,2.3,1.4,3,2.4c0.7,1,1.1,2.2,1.2,3.5H442.7z"/>
					<path class="st6" d="M449.9,661.6v-3.2h19.2v3.2h-7.7v21.6h-3.7v-21.6H449.9z"/>
					<path class="st6" d="M494.9,670.8c0,2.6-0.5,4.9-1.5,6.8c-1,1.9-2.3,3.4-4,4.4c-1.7,1-3.6,1.5-5.7,1.5c-2.1,0-4.1-0.5-5.7-1.5
						c-1.7-1-3-2.5-4-4.4c-1-1.9-1.5-4.2-1.5-6.8c0-2.6,0.5-4.9,1.5-6.8c1-1.9,2.3-3.4,4-4.4c1.7-1,3.6-1.5,5.7-1.5
						c2.1,0,4,0.5,5.7,1.5c1.7,1,3,2.5,4,4.4C494.4,665.9,494.9,668.1,494.9,670.8z M491.1,670.8c0-2-0.3-3.7-1-5.1
						c-0.6-1.4-1.5-2.4-2.7-3.1c-1.1-0.7-2.4-1.1-3.8-1.1c-1.4,0-2.7,0.4-3.8,1.1c-1.1,0.7-2,1.8-2.7,3.1c-0.6,1.4-1,3.1-1,5.1
						c0,2,0.3,3.7,1,5.1c0.6,1.4,1.5,2.4,2.7,3.1c1.1,0.7,2.4,1.1,3.8,1.1c1.4,0,2.7-0.4,3.8-1.1c1.1-0.7,2-1.8,2.7-3.1
						C490.8,674.5,491.1,672.8,491.1,670.8z"/>
					<path class="st6" d="M520.1,666.4h-3.8c-0.1-0.8-0.4-1.5-0.8-2.1s-0.9-1.1-1.5-1.6c-0.6-0.4-1.2-0.8-1.9-1
						c-0.7-0.2-1.5-0.3-2.2-0.3c-1.4,0-2.7,0.4-3.8,1.1c-1.1,0.7-2,1.8-2.7,3.2c-0.6,1.4-1,3.1-1,5.1c0,2,0.3,3.7,1,5.1
						c0.6,1.4,1.5,2.4,2.7,3.1c1.1,0.7,2.4,1.1,3.8,1.1c0.8,0,1.5-0.1,2.2-0.3c0.7-0.2,1.3-0.5,1.9-1s1.1-0.9,1.5-1.5
						c0.4-0.6,0.7-1.3,0.8-2.1l3.8,0c-0.2,1.2-0.6,2.3-1.2,3.4c-0.6,1-1.3,1.9-2.2,2.6s-1.9,1.3-3.1,1.7c-1.2,0.4-2.4,0.6-3.8,0.6
						c-2.1,0-4.1-0.5-5.7-1.5c-1.7-1-3-2.5-4-4.4c-1-1.9-1.4-4.2-1.4-6.8c0-2.6,0.5-4.9,1.5-6.8c1-1.9,2.3-3.4,4-4.4
						c1.7-1,3.6-1.5,5.7-1.5c1.3,0,2.5,0.2,3.7,0.6c1.1,0.4,2.2,0.9,3.1,1.6c0.9,0.7,1.7,1.6,2.3,2.6S519.9,665.1,520.1,666.4z"/>
					<path class="st6" d="M524.6,683.2v-24.8h3.7v11.8h0.3l10.4-11.8h4.7l-10,11.2l10,13.6h-4.5l-8-11.1l-2.9,3.4v7.7H524.6z"/>
					<path class="st6" d="M560.7,664.9c-0.1-1.1-0.7-2-1.6-2.7c-0.9-0.6-2.1-1-3.5-1c-1,0-1.9,0.2-2.6,0.5c-0.7,0.3-1.3,0.8-1.7,1.3
						c-0.4,0.6-0.6,1.2-0.6,1.9c0,0.6,0.1,1.1,0.4,1.5s0.6,0.8,1.1,1.1c0.5,0.3,0.9,0.5,1.5,0.7c0.5,0.2,1,0.3,1.5,0.5l2.4,0.6
						c0.8,0.2,1.6,0.5,2.4,0.8c0.8,0.3,1.6,0.8,2.3,1.3c0.7,0.5,1.3,1.2,1.7,2c0.4,0.8,0.7,1.8,0.7,2.9c0,1.4-0.4,2.7-1.1,3.7
						s-1.8,1.9-3.1,2.6c-1.4,0.6-3,0.9-5,0.9c-1.9,0-3.5-0.3-4.8-0.9c-1.4-0.6-2.4-1.4-3.2-2.5c-0.8-1.1-1.2-2.4-1.3-3.9h3.8
						c0.1,0.9,0.4,1.6,0.9,2.2c0.5,0.6,1.2,1,2,1.3c0.8,0.3,1.7,0.4,2.6,0.4c1.1,0,2-0.2,2.8-0.5c0.8-0.3,1.5-0.8,2-1.4
						c0.5-0.6,0.7-1.3,0.7-2.1c0-0.7-0.2-1.3-0.6-1.8c-0.4-0.5-1-0.9-1.7-1.2c-0.7-0.3-1.5-0.6-2.4-0.8l-2.9-0.8
						c-2-0.5-3.6-1.3-4.7-2.4c-1.2-1-1.7-2.4-1.7-4.2c0-1.4,0.4-2.7,1.2-3.7s1.8-1.9,3.1-2.5c1.3-0.6,2.8-0.9,4.5-0.9
						c1.7,0,3.2,0.3,4.4,0.9c1.3,0.6,2.3,1.4,3,2.4c0.7,1,1.1,2.2,1.2,3.5H560.7z"/>
				</g>
			</g>
		</g>
	</g>
</g>
<g>
	<line class="st4" x1="1944.6" y1="403.5" x2="2061" y2="403.5"/>
	<g>
		<path class="st5" d="M1586.4,336.5h343.9c7.8,0,14.2,6.4,14.2,14.2v105.6c0,7.8-6.4,14.2-14.2,14.2h-343.9
			c-7.8,0-14.2-6.4-14.2-14.2V350.7C1572.2,342.9,1578.6,336.5,1586.4,336.5z"/>
		<g>
			<g>
				<g>
					<g>
						<path class="st6" d="M1682,389c-1.5,0-2.9-0.3-4.1-0.8s-2.2-1.4-2.9-2.4c-0.7-1-1.1-2.2-1.2-3.5l3.6,0
							c0.1,1.1,0.6,1.9,1.4,2.6s1.9,1,3.1,1c1,0,1.8-0.2,2.5-0.7c0.7-0.4,1.3-1.1,1.7-1.8c0.4-0.8,0.6-1.7,0.6-2.7
							c0-1-0.2-1.9-0.7-2.7c-0.4-0.8-1-1.4-1.8-1.8c-0.8-0.4-1.6-0.7-2.6-0.7c-0.8,0-1.5,0.1-2.3,0.4s-1.4,0.6-1.8,1l-3.4-0.5
							l1.3-12.5l13.6-0.1l0,3.2l-10.5,0.1l-0.7,6.9l0.1,0c0.5-0.5,1.1-0.9,1.9-1.2c0.8-0.3,1.7-0.5,2.6-0.5c1.5,0,2.9,0.3,4,1
							s2.1,1.7,2.8,2.9s1,2.7,1,4.3c0,1.6-0.3,3-1,4.3c-0.7,1.3-1.7,2.3-3,3C1685.2,388.7,1683.7,389,1682,389z"/>
						<path class="st6" d="M1697.4,388.8c-0.7,0-1.2-0.2-1.7-0.7c-0.5-0.5-0.7-1-0.7-1.7c0-0.7,0.2-1.2,0.7-1.7
							c0.5-0.5,1-0.7,1.7-0.7c0.7,0,1.2,0.2,1.7,0.7c0.5,0.5,0.7,1,0.7,1.7c0,0.4-0.1,0.9-0.3,1.2s-0.5,0.7-0.9,0.9
							C1698.3,388.7,1697.9,388.8,1697.4,388.8z"/>
						<path class="st6" d="M1713.3,388.8c-1.7,0-3.1-0.3-4.5-0.8s-2.3-1.4-3.1-2.4c-0.8-1-1.2-2.2-1.2-3.5l3.8,0
							c0.1,0.7,0.3,1.4,0.8,1.9c0.5,0.5,1,0.9,1.8,1.2c0.7,0.3,1.5,0.4,2.4,0.4c1,0,1.8-0.2,2.6-0.5c0.8-0.3,1.3-0.8,1.8-1.4
							c0.4-0.6,0.6-1.3,0.6-2.1c0-0.8-0.2-1.6-0.7-2.2c-0.4-0.6-1-1.1-1.9-1.5c-0.8-0.4-1.8-0.5-2.9-0.5l-2.1,0l0-3.1l2.1,0
							c0.9,0,1.7-0.2,2.4-0.5c0.7-0.3,1.2-0.8,1.6-1.4c0.4-0.6,0.6-1.3,0.6-2.1c0-0.8-0.2-1.4-0.5-2c-0.3-0.6-0.8-1-1.5-1.3
							c-0.6-0.3-1.4-0.5-2.2-0.5c-0.8,0-1.6,0.2-2.3,0.5c-0.7,0.3-1.3,0.7-1.7,1.3c-0.4,0.5-0.7,1.2-0.7,2l-3.6,0
							c0-1.3,0.4-2.5,1.2-3.5c0.7-1,1.7-1.8,3-2.4c1.2-0.6,2.6-0.9,4.1-0.9c1.6,0,3,0.3,4.1,0.9c1.2,0.6,2.1,1.4,2.7,2.4
							c0.6,1,1,2.1,1,3.4c0,1.4-0.4,2.6-1.1,3.5c-0.8,1-1.8,1.6-3.1,2l0,0.2c1.6,0.2,2.9,0.9,3.8,1.9s1.4,2.4,1.4,3.9
							c0,1.4-0.3,2.6-1.1,3.7s-1.8,1.9-3.1,2.6C1716.5,388.4,1715,388.8,1713.3,388.8z"/>
						<path class="st6" d="M1734.8,388.6c-1.5,0-2.9-0.3-4.1-0.8s-2.2-1.4-2.9-2.4c-0.7-1-1.1-2.2-1.2-3.5l3.6,0
							c0.1,1.1,0.6,1.9,1.4,2.6s1.9,1,3.1,1c1,0,1.8-0.2,2.5-0.7c0.7-0.4,1.3-1.1,1.7-1.8c0.4-0.8,0.6-1.7,0.6-2.7
							c0-1-0.2-1.9-0.7-2.7c-0.4-0.8-1-1.4-1.8-1.8c-0.8-0.4-1.6-0.7-2.6-0.7c-0.8,0-1.5,0.1-2.3,0.4s-1.4,0.6-1.8,1l-3.4-0.5
							l1.3-12.5l13.6-0.1l0,3.2l-10.5,0.1l-0.7,6.9l0.1,0c0.5-0.5,1.1-0.9,1.9-1.2c0.8-0.3,1.7-0.5,2.6-0.5c1.5,0,2.9,0.3,4,1
							s2.1,1.7,2.8,2.9s1,2.7,1,4.3c0,1.6-0.3,3-1,4.3c-0.7,1.3-1.7,2.3-3,3C1737.9,388.2,1736.5,388.6,1734.8,388.6z"/>
						<path class="st6" d="M1750.5,363.3l6,9.6l0.2,0l5.9-9.7l4.3,0l-7.6,12.5l7.9,12.3l-4.4,0l-6-9.5l-0.2,0l-5.9,9.6l-4.4,0
							l7.8-12.5l-8-12.3L1750.5,363.3z"/>
						<path class="st6" d="M1781.9,387.9l-4,0l8.7-24.9l4.3,0l9.1,24.7l-4,0l-7.2-20.2l-0.2,0L1781.9,387.9z M1782.5,378.2l12.9-0.1
							l0,3.1l-12.9,0.1L1782.5,378.2z"/>
						<path class="st6" d="M1805.7,362.9l7.1,20.1l0.3,0l6.7-20.3l4,0l-8.7,24.9l-4.3,0l-9.1-24.7L1805.7,362.9z"/>
						<path class="st6" d="M1844.2,370.4c-0.2-0.7-0.6-1.4-1-2c-0.4-0.6-0.9-1.1-1.4-1.5c-0.5-0.4-1.2-0.7-1.9-0.9
							c-0.7-0.2-1.5-0.3-2.3-0.3c-1.4,0-2.7,0.4-3.8,1.1c-1.1,0.7-2,1.8-2.6,3.2c-0.6,1.4-0.9,3.1-0.9,5.1c0,2,0.4,3.7,1,5.1
							c0.7,1.4,1.6,2.4,2.7,3.1c1.1,0.7,2.4,1.1,3.9,1c1.3,0,2.5-0.3,3.5-0.9c1-0.6,1.8-1.3,2.3-2.4c0.5-1,0.8-2.2,0.8-3.6l1,0.2
							l-7.1,0.1l0-3.1l9.7-0.1l0,2.8c0,2.1-0.4,3.9-1.3,5.4c-0.9,1.5-2.1,2.7-3.6,3.6c-1.5,0.8-3.3,1.3-5.3,1.3
							c-2.2,0-4.2-0.5-5.9-1.5c-1.7-1-3-2.5-4-4.4c-1-1.9-1.5-4.1-1.5-6.8c0-2,0.2-3.8,0.8-5.3c0.5-1.6,1.3-2.9,2.3-4
							c1-1.1,2.2-2,3.5-2.6c1.3-0.6,2.8-0.9,4.4-0.9c1.3,0,2.6,0.2,3.8,0.6c1.2,0.4,2.2,0.9,3.1,1.7c0.9,0.7,1.7,1.6,2.3,2.6
							s1,2.1,1.2,3.3L1844.2,370.4z"/>
					</g>
				</g>
			</g>
			<g>
				<g>
					<g>
						<path class="st6" d="M1616.8,425.6c0,2.6-0.4,4.9-1.4,6.8c-1,1.9-2.3,3.4-3.9,4.4c-1.7,1-3.6,1.6-5.7,1.6
							c-2.1,0-4.1-0.5-5.8-1.5c-1.7-1-3-2.5-4-4.4c-1-1.9-1.5-4.2-1.5-6.8c0-2.6,0.4-4.9,1.4-6.8c1-1.9,2.3-3.4,3.9-4.4
							c1.7-1,3.6-1.6,5.7-1.6c2.1,0,4.1,0.5,5.7,1.5c1.7,1,3,2.5,4,4.3C1616.3,420.7,1616.8,423,1616.8,425.6z M1613.1,425.6
							c0-2-0.4-3.7-1-5.1c-0.7-1.4-1.6-2.4-2.7-3.1s-2.4-1.1-3.8-1c-1.4,0-2.7,0.4-3.8,1.1s-2,1.8-2.6,3.2c-0.6,1.4-0.9,3.1-0.9,5.1
							c0,2,0.4,3.7,1,5.1c0.7,1.4,1.6,2.4,2.7,3.1c1.1,0.7,2.4,1,3.8,1c1.4,0,2.7-0.4,3.8-1.1c1.1-0.7,2-1.8,2.6-3.2
							C1612.8,429.4,1613.1,427.7,1613.1,425.6z"/>
						<path class="st6" d="M1637.3,413l3.8,0l0.1,16.3c0,1.7-0.4,3.3-1.2,4.6c-0.8,1.3-1.9,2.4-3.4,3.2c-1.5,0.8-3.2,1.2-5.2,1.2
							c-2,0-3.7-0.4-5.2-1.1c-1.5-0.8-2.6-1.8-3.5-3.1c-0.8-1.3-1.2-2.9-1.3-4.6l-0.1-16.3l3.7,0l0.1,16c0,1.1,0.3,2.1,0.8,3
							c0.5,0.9,1.2,1.5,2.1,2c0.9,0.5,2,0.7,3.3,0.7c1.3,0,2.3-0.3,3.3-0.8c0.9-0.5,1.6-1.2,2.1-2.1c0.5-0.9,0.7-1.9,0.7-3
							L1637.3,413z"/>
						<path class="st6" d="M1645.3,416.2l0-3.2l19.2-0.2l0,3.2l-7.7,0.1l0.2,21.6l-3.7,0l-0.2-21.6L1645.3,416.2z"/>
						<path class="st6" d="M1668.9,437.6l-0.2-24.8l8.8-0.1c1.9,0,3.5,0.3,4.8,1c1.3,0.7,2.2,1.6,2.9,2.9c0.6,1.2,1,2.6,1,4.1
							c0,1.5-0.3,2.9-0.9,4.1c-0.6,1.2-1.6,2.2-2.8,2.9c-1.3,0.7-2.9,1.1-4.8,1.1l-6.1,0.1l0-3.2l5.7,0c1.2,0,2.2-0.2,3-0.7
							c0.8-0.4,1.3-1,1.7-1.8s0.5-1.6,0.5-2.5s-0.2-1.8-0.6-2.5c-0.4-0.7-0.9-1.3-1.7-1.7c-0.8-0.4-1.8-0.6-3-0.6l-4.7,0l0.2,21.6
							L1668.9,437.6z"/>
						<path class="st6" d="M1690.7,437.4l-0.2-24.8l15.5-0.1l0,3.2l-11.8,0.1l0.1,7.6l11-0.1l0,3.2l-11,0.1l0.1,7.6l12-0.1l0,3.2
							L1690.7,437.4z"/>
						<path class="st6" d="M1711.3,437.2l-0.2-24.8l8.8-0.1c1.9,0,3.5,0.3,4.8,1s2.2,1.6,2.9,2.7s1,2.5,1,4c0,1.5-0.3,2.9-0.9,4
							s-1.6,2.1-2.8,2.7c-1.3,0.6-2.9,1-4.8,1l-6.7,0.1l0-3.2l6.4-0.1c1.2,0,2.2-0.2,3-0.5s1.3-0.9,1.7-1.5s0.5-1.5,0.5-2.4
							c0-0.9-0.2-1.7-0.6-2.4c-0.4-0.7-0.9-1.2-1.7-1.6c-0.8-0.4-1.8-0.5-3-0.5l-4.7,0l0.2,21.6L1711.3,437.2z M1723.4,425.9
							l6.2,11.1l-4.3,0l-6.1-11.1L1723.4,425.9z"/>
						<path class="st6" d="M1733.2,437.1l-0.2-24.8l15.4-0.1l0,3.2l-11.6,0.1l0.1,7.6l10.5-0.1l0,3.2l-10.5,0.1l0.1,10.8
							L1733.2,437.1z"/>
						<path class="st6" d="M1774.7,424.3c0,2.6-0.4,4.9-1.4,6.8c-1,1.9-2.3,3.4-3.9,4.4c-1.7,1-3.6,1.6-5.7,1.6
							c-2.1,0-4.1-0.5-5.8-1.5c-1.7-1-3-2.5-4-4.4s-1.5-4.2-1.5-6.8c0-2.6,0.4-4.9,1.4-6.8c1-1.9,2.3-3.4,3.9-4.4
							c1.7-1,3.6-1.6,5.7-1.6c2.1,0,4.1,0.5,5.7,1.5c1.7,1,3,2.5,4,4.3C1774.1,419.4,1774.6,421.7,1774.7,424.3z M1771,424.3
							c0-2-0.4-3.7-1-5.1c-0.7-1.4-1.6-2.4-2.7-3.1s-2.4-1.1-3.8-1c-1.4,0-2.7,0.4-3.8,1.1s-2,1.8-2.6,3.2c-0.6,1.4-0.9,3.1-0.9,5.1
							c0,2,0.4,3.7,1,5.1c0.7,1.4,1.6,2.4,2.7,3.1s2.4,1.1,3.8,1c1.4,0,2.7-0.4,3.8-1.1c1.1-0.7,2-1.8,2.6-3.2
							C1770.7,428.1,1771,426.4,1771,424.3z"/>
						<path class="st6" d="M1779.4,436.7l-0.2-24.8l8.8-0.1c1.9,0,3.5,0.3,4.8,1c1.3,0.7,2.2,1.6,2.9,2.7c0.6,1.2,1,2.5,1,4
							c0,1.5-0.3,2.9-0.9,4c-0.6,1.2-1.6,2.1-2.8,2.7c-1.3,0.6-2.9,1-4.8,1l-6.7,0.1l0-3.2l6.4-0.1c1.2,0,2.2-0.2,3-0.5
							s1.3-0.9,1.7-1.5s0.5-1.5,0.5-2.4c0-0.9-0.2-1.7-0.6-2.4c-0.4-0.7-0.9-1.2-1.7-1.6c-0.8-0.4-1.8-0.5-3-0.5l-4.7,0l0.2,21.6
							L1779.4,436.7z M1791.6,425.4l6.2,11.1l-4.3,0l-6.1-11.1L1791.6,425.4z"/>
						<path class="st6" d="M1801.2,411.7l4.5,0l8.1,19.2l0.3,0l7.7-19.3l4.5,0l0.2,24.8l-3.6,0l-0.1-17.9l-0.2,0l-7.2,18l-3,0
							l-7.5-17.9l-0.2,0l0.1,18l-3.6,0L1801.2,411.7z"/>
						<path class="st6" d="M1834.1,436.2l-4,0l8.7-24.9l4.3,0l9.1,24.7l-4,0l-7.2-20.2l-0.2,0L1834.1,436.2z M1834.7,426.5l12.9-0.1
							l0,3.1l-12.9,0.1L1834.7,426.5z"/>
						<path class="st6" d="M1875.7,411.1l0.2,24.8l-3.4,0l-12.8-18.1l-0.2,0l0.2,18.2l-3.7,0l-0.2-24.8l3.5,0l12.8,18.1l0.2,0
							l-0.2-18.2L1875.7,411.1z"/>
						<path class="st6" d="M1901.8,418.9l-3.8,0c-0.2-0.8-0.4-1.5-0.8-2.1c-0.4-0.6-0.9-1.1-1.5-1.5c-0.6-0.4-1.2-0.7-1.9-1
							c-0.7-0.2-1.5-0.3-2.2-0.3c-1.4,0-2.7,0.4-3.8,1.1c-1.1,0.7-2,1.8-2.6,3.2c-0.6,1.4-0.9,3.1-0.9,5.1c0,2,0.4,3.7,1,5.1
							s1.6,2.4,2.7,3.1c1.1,0.7,2.4,1,3.8,1c0.8,0,1.5-0.1,2.2-0.3c0.7-0.2,1.3-0.5,1.9-1c0.6-0.4,1.1-0.9,1.4-1.6
							c0.4-0.6,0.7-1.3,0.8-2.1l3.8,0c-0.2,1.2-0.6,2.3-1.1,3.4c-0.6,1-1.3,1.9-2.2,2.7c-0.9,0.7-1.9,1.3-3.1,1.7s-2.4,0.6-3.8,0.6
							c-2.1,0-4.1-0.5-5.8-1.5c-1.7-1-3-2.5-4-4.4c-1-1.9-1.5-4.2-1.5-6.8c0-2.6,0.4-4.9,1.4-6.8c1-1.9,2.3-3.4,3.9-4.4
							s3.6-1.6,5.7-1.6c1.3,0,2.5,0.2,3.7,0.5c1.1,0.4,2.2,0.9,3.1,1.6c0.9,0.7,1.7,1.6,2.3,2.6S1901.6,417.6,1901.8,418.9z"/>
						<path class="st6" d="M1906.4,435.6l-0.2-24.8l15.5-0.1l0,3.2L1910,414l0.1,7.6l11-0.1l0,3.2l-11,0.1l0.1,7.6l11.9-0.1l0,3.2
							L1906.4,435.6z"/>
					</g>
				</g>
			</g>
		</g>
	</g>
</g>
</svg>
