<?xml version="1.0" encoding="utf-8"?>
<!-- Generator: Adobe Illustrator 27.0.0, SVG Export Plug-In . SVG Version: 6.00 Build 0)  -->
<svg version="1.1" id="Layer_1" xmlns="http://www.w3.org/2000/svg" xmlns:xlink="http://www.w3.org/1999/xlink" x="0px" y="0px"
	 viewBox="0 0 514.9 499.4" style="enable-background:new 0 0 514.9 499.4;" xml:space="preserve">
<style type="text/css">
	.st0{fill:none;stroke:#7F7F7F;stroke-width:2;stroke-miterlimit:10;stroke-dasharray:9,3;}
	.st1{enable-background:new    ;}
	.st2{fill:#252947;}
	.st3{fill:#D93A73;}
	.st4{fill:#557EBF;}
</style>
<line id="Line_57" class="st0" x1="78.8" y1="440.9" x2="508.5" y2="440.9"/>
<line id="Line_58" class="st0" x1="78.8" y1="385.5" x2="508.5" y2="385.5"/>
<line id="Line_59" class="st0" x1="78.8" y1="330.1" x2="508.5" y2="330.1"/>
<line id="Line_60" class="st0" x1="78.8" y1="274.7" x2="508.5" y2="274.7"/>
<line id="Line_61" class="st0" x1="78.8" y1="219.3" x2="508.5" y2="219.3"/>
<line id="Line_62" class="st0" x1="78.8" y1="163.9" x2="508.5" y2="163.9"/>
<line id="Line_63" class="st0" x1="78.8" y1="108.5" x2="508.5" y2="108.5"/>
<line id="Line_64" class="st0" x1="78.8" y1="53.1" x2="508.5" y2="53.1"/>
<g>
	<g class="st1">
		<path class="st2" d="M6.9,446c-1,0-1.9-0.3-2.6-0.7c-0.7-0.5-1.3-1.2-1.7-2.1c-0.4-0.9-0.6-2.1-0.6-3.4c0-1.3,0.2-2.4,0.6-3.3
			c0.4-0.9,0.9-1.6,1.7-2.1c0.7-0.5,1.6-0.7,2.6-0.7c1,0,1.9,0.2,2.6,0.7c0.7,0.5,1.3,1.2,1.7,2.1c0.4,0.9,0.6,2,0.6,3.3
			c0,1.3-0.2,2.4-0.6,3.4c-0.4,0.9-0.9,1.6-1.7,2.1C8.8,445.7,7.9,446,6.9,446z M6.9,443.9c0.7,0,1.2-0.3,1.6-1
			c0.4-0.7,0.6-1.7,0.6-3.1c0-0.9-0.1-1.7-0.3-2.3c-0.2-0.6-0.4-1.1-0.8-1.4c-0.3-0.3-0.7-0.5-1.2-0.5c-0.7,0-1.2,0.3-1.6,1
			s-0.6,1.7-0.6,3.1c0,0.9,0.1,1.7,0.3,2.3c0.2,0.6,0.4,1.1,0.8,1.4C6.1,443.7,6.5,443.9,6.9,443.9z"/>
		<path class="st2" d="M15,445.9c-0.4,0-0.7-0.1-1-0.4c-0.3-0.3-0.4-0.6-0.4-1c0-0.4,0.1-0.7,0.4-1c0.3-0.3,0.6-0.4,1-0.4
			c0.4,0,0.7,0.1,1,0.4c0.3,0.3,0.4,0.6,0.4,1c0,0.3-0.1,0.5-0.2,0.7c-0.1,0.2-0.3,0.4-0.5,0.5C15.5,445.8,15.2,445.9,15,445.9z"/>
		<path class="st2" d="M23.1,446c-1,0-1.9-0.3-2.6-0.7c-0.7-0.5-1.3-1.2-1.7-2.1c-0.4-0.9-0.6-2.1-0.6-3.4c0-1.3,0.2-2.4,0.6-3.3
			c0.4-0.9,0.9-1.6,1.7-2.1c0.7-0.5,1.6-0.7,2.6-0.7c1,0,1.9,0.2,2.6,0.7c0.7,0.5,1.3,1.2,1.7,2.1c0.4,0.9,0.6,2,0.6,3.3
			c0,1.3-0.2,2.4-0.6,3.4c-0.4,0.9-0.9,1.6-1.7,2.1C24.9,445.7,24.1,446,23.1,446z M23.1,443.9c0.7,0,1.2-0.3,1.6-1
			c0.4-0.7,0.6-1.7,0.6-3.1c0-0.9-0.1-1.7-0.3-2.3c-0.2-0.6-0.4-1.1-0.8-1.4c-0.3-0.3-0.7-0.5-1.2-0.5c-0.7,0-1.2,0.3-1.6,1
			s-0.6,1.7-0.6,3.1c0,0.9,0.1,1.7,0.3,2.3c0.2,0.6,0.4,1.1,0.8,1.4C22.2,443.7,22.6,443.9,23.1,443.9z"/>
		<path class="st2" d="M34.4,446c-1,0-1.9-0.3-2.6-0.7c-0.7-0.5-1.3-1.2-1.7-2.1c-0.4-0.9-0.6-2.1-0.6-3.4c0-1.3,0.2-2.4,0.6-3.3
			c0.4-0.9,0.9-1.6,1.7-2.1c0.7-0.5,1.6-0.7,2.6-0.7c1,0,1.9,0.2,2.6,0.7c0.7,0.5,1.3,1.2,1.7,2.1c0.4,0.9,0.6,2,0.6,3.3
			c0,1.3-0.2,2.4-0.6,3.4c-0.4,0.9-0.9,1.6-1.7,2.1C36.2,445.7,35.4,446,34.4,446z M34.4,443.9c0.7,0,1.2-0.3,1.6-1
			c0.4-0.7,0.6-1.7,0.6-3.1c0-0.9-0.1-1.7-0.3-2.3c-0.2-0.6-0.4-1.1-0.8-1.4c-0.3-0.3-0.7-0.5-1.2-0.5c-0.7,0-1.2,0.3-1.6,1
			s-0.6,1.7-0.6,3.1c0,0.9,0.1,1.7,0.3,2.3c0.2,0.6,0.4,1.1,0.8,1.4C33.5,443.7,33.9,443.9,34.4,443.9z"/>
		<path class="st2" d="M41.4,436.6v-0.6c0-0.5,0.1-1,0.3-1.4c0.2-0.4,0.5-0.8,1-1c0.4-0.3,0.9-0.4,1.5-0.4c0.6,0,1.1,0.1,1.6,0.4
			c0.4,0.3,0.7,0.6,1,1c0.2,0.4,0.3,0.9,0.3,1.4v0.6c0,0.5-0.1,1-0.3,1.4s-0.5,0.8-1,1c-0.4,0.3-0.9,0.4-1.6,0.4
			c-0.6,0-1.1-0.1-1.5-0.4c-0.4-0.3-0.7-0.6-0.9-1C41.5,437.5,41.4,437.1,41.4,436.6z M42,445.7l8.2-12h1.7l-8.2,12H42z M43.4,435.9
			v0.6c0,0.2,0.1,0.5,0.2,0.7c0.1,0.2,0.3,0.3,0.6,0.3c0.3,0,0.5-0.1,0.6-0.3s0.2-0.4,0.1-0.7v-0.6c0-0.2,0-0.5-0.1-0.7
			s-0.3-0.3-0.7-0.3c-0.3,0-0.5,0.1-0.6,0.3S43.4,435.7,43.4,435.9z M47.6,443.4v-0.6c0-0.5,0.1-1,0.3-1.4c0.2-0.4,0.5-0.8,1-1
			c0.4-0.3,0.9-0.4,1.5-0.4c0.6,0,1.1,0.1,1.6,0.4c0.4,0.3,0.7,0.6,1,1c0.2,0.4,0.3,0.9,0.3,1.4v0.6c0,0.5-0.1,1-0.3,1.4
			c-0.2,0.4-0.5,0.8-1,1c-0.4,0.3-0.9,0.4-1.6,0.4s-1.1-0.1-1.5-0.4c-0.4-0.3-0.7-0.6-0.9-1C47.7,444.4,47.6,444,47.6,443.4z
			 M49.7,442.8v0.6c0,0.2,0.1,0.4,0.2,0.7c0.1,0.2,0.3,0.3,0.6,0.3c0.3,0,0.5-0.1,0.6-0.3c0.1-0.2,0.2-0.4,0.1-0.7v-0.6
			c0-0.2,0-0.5-0.1-0.7c-0.1-0.2-0.3-0.3-0.7-0.3c-0.3,0-0.5,0.1-0.6,0.3C49.7,442.4,49.7,442.6,49.7,442.8z"/>
	</g>
</g>
<g>
	<g class="st1">
		<path class="st2" d="M2.2,390.5v-1.8l4.2-4c0.4-0.4,0.7-0.7,0.9-1c0.2-0.3,0.4-0.6,0.6-0.8c0.1-0.3,0.2-0.6,0.2-0.9
			c0-0.4-0.1-0.7-0.2-0.9c-0.2-0.3-0.4-0.5-0.7-0.6c-0.3-0.1-0.6-0.2-0.9-0.2c-0.4,0-0.7,0.1-1,0.2c-0.3,0.1-0.5,0.4-0.6,0.6
			c-0.1,0.3-0.2,0.6-0.2,1H2.1c0-0.8,0.2-1.5,0.5-2c0.4-0.6,0.8-1,1.5-1.3c0.6-0.3,1.4-0.5,2.2-0.5c0.9,0,1.6,0.2,2.2,0.5
			c0.6,0.3,1.1,0.7,1.5,1.3c0.4,0.5,0.5,1.2,0.5,1.8c0,0.5-0.1,0.9-0.3,1.3c-0.2,0.4-0.5,0.9-0.9,1.5c-0.5,0.5-1.1,1.2-1.9,1.9
			l-1.7,1.7v0.1h5v2.1H2.2z"/>
		<path class="st2" d="M17.2,390.7c-1,0-1.9-0.3-2.6-0.7c-0.7-0.5-1.3-1.2-1.7-2.1c-0.4-0.9-0.6-2.1-0.6-3.4c0-1.3,0.2-2.4,0.6-3.3
			c0.4-0.9,0.9-1.6,1.7-2.1c0.7-0.5,1.6-0.7,2.6-0.7c1,0,1.9,0.2,2.6,0.7c0.7,0.5,1.3,1.2,1.7,2.1c0.4,0.9,0.6,2,0.6,3.3
			c0,1.3-0.2,2.4-0.6,3.4c-0.4,0.9-0.9,1.6-1.7,2.1C19.1,390.5,18.2,390.7,17.2,390.7z M17.2,388.6c0.7,0,1.2-0.3,1.6-1
			c0.4-0.7,0.6-1.7,0.6-3.1c0-0.9-0.1-1.7-0.3-2.3c-0.2-0.6-0.4-1.1-0.8-1.4c-0.3-0.3-0.7-0.5-1.2-0.5c-0.7,0-1.2,0.3-1.6,1
			s-0.6,1.7-0.6,3.1c0,0.9,0.1,1.7,0.3,2.3c0.2,0.6,0.4,1.1,0.8,1.4C16.4,388.5,16.8,388.6,17.2,388.6z"/>
		<path class="st2" d="M25.3,390.6c-0.4,0-0.7-0.1-1-0.4c-0.3-0.3-0.4-0.6-0.4-1c0-0.4,0.1-0.7,0.4-1c0.3-0.3,0.6-0.4,1-0.4
			c0.4,0,0.7,0.1,1,0.4c0.3,0.3,0.4,0.6,0.4,1c0,0.3-0.1,0.5-0.2,0.7c-0.1,0.2-0.3,0.4-0.5,0.5C25.8,390.6,25.6,390.6,25.3,390.6z"
			/>
		<path class="st2" d="M33.4,390.7c-1,0-1.9-0.3-2.6-0.7c-0.7-0.5-1.3-1.2-1.7-2.1c-0.4-0.9-0.6-2.1-0.6-3.4c0-1.3,0.2-2.4,0.6-3.3
			c0.4-0.9,0.9-1.6,1.7-2.1c0.7-0.5,1.6-0.7,2.6-0.7c1,0,1.9,0.2,2.6,0.7c0.7,0.5,1.3,1.2,1.7,2.1c0.4,0.9,0.6,2,0.6,3.3
			c0,1.3-0.2,2.4-0.6,3.4c-0.4,0.9-0.9,1.6-1.7,2.1C35.3,390.5,34.4,390.7,33.4,390.7z M33.4,388.6c0.7,0,1.2-0.3,1.6-1
			c0.4-0.7,0.6-1.7,0.6-3.1c0-0.9-0.1-1.7-0.3-2.3c-0.2-0.6-0.4-1.1-0.8-1.4c-0.3-0.3-0.7-0.5-1.2-0.5c-0.7,0-1.2,0.3-1.6,1
			c-0.4,0.7-0.6,1.7-0.6,3.1c0,0.9,0.1,1.7,0.3,2.3c0.2,0.6,0.4,1.1,0.8,1.4C32.5,388.5,32.9,388.6,33.4,388.6z"/>
		<path class="st2" d="M44.7,390.7c-1,0-1.9-0.3-2.6-0.7c-0.7-0.5-1.3-1.2-1.7-2.1c-0.4-0.9-0.6-2.1-0.6-3.4c0-1.3,0.2-2.4,0.6-3.3
			c0.4-0.9,0.9-1.6,1.7-2.1c0.7-0.5,1.6-0.7,2.6-0.7c1,0,1.9,0.2,2.6,0.7c0.7,0.5,1.3,1.2,1.7,2.1c0.4,0.9,0.6,2,0.6,3.3
			c0,1.3-0.2,2.4-0.6,3.4c-0.4,0.9-0.9,1.6-1.7,2.1C46.5,390.5,45.7,390.7,44.7,390.7z M44.7,388.6c0.7,0,1.2-0.3,1.6-1
			c0.4-0.7,0.6-1.7,0.6-3.1c0-0.9-0.1-1.7-0.3-2.3c-0.2-0.6-0.4-1.1-0.8-1.4c-0.3-0.3-0.7-0.5-1.2-0.5c-0.7,0-1.2,0.3-1.6,1
			s-0.6,1.7-0.6,3.1c0,0.9,0.1,1.7,0.3,2.3c0.2,0.6,0.4,1.1,0.8,1.4C43.8,388.5,44.2,388.6,44.7,388.6z"/>
		<path class="st2" d="M51.7,381.3v-0.6c0-0.5,0.1-1,0.3-1.4c0.2-0.4,0.5-0.8,1-1c0.4-0.3,0.9-0.4,1.5-0.4c0.6,0,1.1,0.1,1.6,0.4
			c0.4,0.3,0.7,0.6,1,1c0.2,0.4,0.3,0.9,0.3,1.4v0.6c0,0.5-0.1,1-0.3,1.4s-0.5,0.8-1,1c-0.4,0.3-0.9,0.4-1.6,0.4
			c-0.6,0-1.1-0.1-1.5-0.4c-0.4-0.3-0.7-0.6-0.9-1C51.8,382.3,51.7,381.8,51.7,381.3z M52.4,390.5l8.2-12h1.7l-8.2,12H52.4z
			 M53.8,380.7v0.6c0,0.2,0.1,0.5,0.2,0.7c0.1,0.2,0.3,0.3,0.6,0.3c0.3,0,0.5-0.1,0.6-0.3s0.2-0.4,0.1-0.7v-0.6c0-0.2,0-0.5-0.1-0.7
			s-0.3-0.3-0.7-0.3c-0.3,0-0.5,0.1-0.6,0.3S53.8,380.5,53.8,380.7z M57.9,388.2v-0.6c0-0.5,0.1-1,0.3-1.4c0.2-0.4,0.5-0.8,1-1
			c0.4-0.3,0.9-0.4,1.5-0.4c0.6,0,1.1,0.1,1.6,0.4c0.4,0.3,0.7,0.6,1,1c0.2,0.4,0.3,0.9,0.3,1.4v0.6c0,0.5-0.1,1-0.3,1.4
			c-0.2,0.4-0.5,0.8-1,1c-0.4,0.3-0.9,0.4-1.6,0.4s-1.1-0.1-1.5-0.4c-0.4-0.3-0.7-0.6-0.9-1C58.1,389.2,58,388.7,57.9,388.2z
			 M60,387.6v0.6c0,0.2,0.1,0.4,0.2,0.7c0.1,0.2,0.3,0.3,0.6,0.3c0.3,0,0.5-0.1,0.6-0.3c0.1-0.2,0.2-0.4,0.1-0.7v-0.6
			c0-0.2,0-0.5-0.1-0.7c-0.1-0.2-0.3-0.3-0.7-0.3c-0.3,0-0.5,0.1-0.6,0.3C60,387.1,60,387.3,60,387.6z"/>
	</g>
</g>
<g>
	<g class="st1">
		<path class="st2" d="M2.1,333.1v-2l5-7.9h1.7v2.8h-1l-3.1,5v0.1h7.1v2H2.1z M7.8,335.2v-2.7l0-0.9v-8.4h2.4v12H7.8z"/>
		<path class="st2" d="M18.1,335.5c-1,0-1.9-0.3-2.6-0.7c-0.7-0.5-1.3-1.2-1.7-2.1c-0.4-0.9-0.6-2.1-0.6-3.4c0-1.3,0.2-2.4,0.6-3.3
			c0.4-0.9,0.9-1.6,1.7-2.1c0.7-0.5,1.6-0.7,2.6-0.7c1,0,1.9,0.2,2.6,0.7c0.7,0.5,1.3,1.2,1.7,2.1c0.4,0.9,0.6,2,0.6,3.3
			c0,1.3-0.2,2.4-0.6,3.4c-0.4,0.9-0.9,1.6-1.7,2.1C19.9,335.2,19.1,335.5,18.1,335.5z M18.1,333.4c0.7,0,1.2-0.3,1.6-1
			c0.4-0.7,0.6-1.7,0.6-3.1c0-0.9-0.1-1.7-0.3-2.3c-0.2-0.6-0.4-1.1-0.8-1.4c-0.3-0.3-0.7-0.5-1.2-0.5c-0.7,0-1.2,0.3-1.6,1
			s-0.6,1.7-0.6,3.1c0,0.9,0.1,1.7,0.3,2.3c0.2,0.6,0.4,1.1,0.8,1.4C17.2,333.2,17.6,333.4,18.1,333.4z"/>
		<path class="st2" d="M26.2,335.4c-0.4,0-0.7-0.1-1-0.4c-0.3-0.3-0.4-0.6-0.4-1c0-0.4,0.1-0.7,0.4-1c0.3-0.3,0.6-0.4,1-0.4
			c0.4,0,0.7,0.1,1,0.4c0.3,0.3,0.4,0.6,0.4,1c0,0.3-0.1,0.5-0.2,0.7c-0.1,0.2-0.3,0.4-0.5,0.5C26.6,335.3,26.4,335.4,26.2,335.4z"
			/>
		<path class="st2" d="M34.2,335.5c-1,0-1.9-0.3-2.6-0.7c-0.7-0.5-1.3-1.2-1.7-2.1c-0.4-0.9-0.6-2.1-0.6-3.4c0-1.3,0.2-2.4,0.6-3.3
			c0.4-0.9,0.9-1.6,1.7-2.1c0.7-0.5,1.6-0.7,2.6-0.7c1,0,1.9,0.2,2.6,0.7c0.7,0.5,1.3,1.2,1.7,2.1c0.4,0.9,0.6,2,0.6,3.3
			c0,1.3-0.2,2.4-0.6,3.4c-0.4,0.9-0.9,1.6-1.7,2.1C36.1,335.2,35.2,335.5,34.2,335.5z M34.2,333.4c0.7,0,1.2-0.3,1.6-1
			c0.4-0.7,0.6-1.7,0.6-3.1c0-0.9-0.1-1.7-0.3-2.3c-0.2-0.6-0.4-1.1-0.8-1.4c-0.3-0.3-0.7-0.5-1.2-0.5c-0.7,0-1.2,0.3-1.6,1
			s-0.6,1.7-0.6,3.1c0,0.9,0.1,1.7,0.3,2.3c0.2,0.6,0.4,1.1,0.8,1.4C33.4,333.2,33.8,333.4,34.2,333.4z"/>
		<path class="st2" d="M45.5,335.5c-1,0-1.9-0.3-2.6-0.7c-0.7-0.5-1.3-1.2-1.7-2.1c-0.4-0.9-0.6-2.1-0.6-3.4c0-1.3,0.2-2.4,0.6-3.3
			c0.4-0.9,0.9-1.6,1.7-2.1c0.7-0.5,1.6-0.7,2.6-0.7c1,0,1.9,0.2,2.6,0.7c0.7,0.5,1.3,1.2,1.7,2.1c0.4,0.9,0.6,2,0.6,3.3
			c0,1.3-0.2,2.4-0.6,3.4c-0.4,0.9-0.9,1.6-1.7,2.1C47.4,335.2,46.5,335.5,45.5,335.5z M45.5,333.4c0.7,0,1.2-0.3,1.6-1
			c0.4-0.7,0.6-1.7,0.6-3.1c0-0.9-0.1-1.7-0.3-2.3c-0.2-0.6-0.4-1.1-0.8-1.4c-0.3-0.3-0.7-0.5-1.2-0.5c-0.7,0-1.2,0.3-1.6,1
			s-0.6,1.7-0.6,3.1c0,0.9,0.1,1.7,0.3,2.3c0.2,0.6,0.4,1.1,0.8,1.4C44.7,333.2,45.1,333.4,45.5,333.4z"/>
		<path class="st2" d="M52.6,326.1v-0.6c0-0.5,0.1-1,0.3-1.4c0.2-0.4,0.5-0.8,1-1c0.4-0.3,0.9-0.4,1.5-0.4c0.6,0,1.1,0.1,1.6,0.4
			c0.4,0.3,0.7,0.6,1,1c0.2,0.4,0.3,0.9,0.3,1.4v0.6c0,0.5-0.1,1-0.3,1.4s-0.5,0.8-1,1c-0.4,0.3-0.9,0.4-1.6,0.4
			c-0.6,0-1.1-0.1-1.5-0.4c-0.4-0.3-0.7-0.6-0.9-1C52.7,327.1,52.6,326.6,52.6,326.1z M53.2,335.2l8.2-12h1.7l-8.2,12H53.2z
			 M54.6,325.5v0.6c0,0.2,0.1,0.5,0.2,0.7c0.1,0.2,0.3,0.3,0.6,0.3c0.3,0,0.5-0.1,0.6-0.3s0.2-0.4,0.1-0.7v-0.6c0-0.2,0-0.5-0.1-0.7
			s-0.3-0.3-0.7-0.3c-0.3,0-0.5,0.1-0.6,0.3S54.6,325.2,54.6,325.5z M58.8,333v-0.6c0-0.5,0.1-1,0.3-1.4c0.2-0.4,0.5-0.8,1-1
			c0.4-0.3,0.9-0.4,1.5-0.4c0.6,0,1.1,0.1,1.6,0.4c0.4,0.3,0.7,0.6,1,1c0.2,0.4,0.3,0.9,0.3,1.4v0.6c0,0.5-0.1,1-0.3,1.4
			c-0.2,0.4-0.5,0.8-1,1c-0.4,0.3-0.9,0.4-1.6,0.4s-1.1-0.1-1.5-0.4c-0.4-0.3-0.7-0.6-0.9-1C58.9,333.9,58.8,333.5,58.8,333z
			 M60.8,332.3v0.6c0,0.2,0.1,0.4,0.2,0.7c0.1,0.2,0.3,0.3,0.6,0.3c0.3,0,0.5-0.1,0.6-0.3c0.1-0.2,0.2-0.4,0.1-0.7v-0.6
			c0-0.2,0-0.5-0.1-0.7c-0.1-0.2-0.3-0.3-0.7-0.3c-0.3,0-0.5,0.1-0.6,0.3C60.9,331.9,60.8,332.1,60.8,332.3z"/>
	</g>
</g>
<g>
	<g class="st1">
		<path class="st2" d="M6.9,280.2c-0.6,0-1.2-0.1-1.8-0.3c-0.6-0.2-1.1-0.5-1.5-1c-0.4-0.5-0.8-1.1-1.1-1.8s-0.4-1.7-0.4-2.8
			c0-1,0.1-1.9,0.3-2.7c0.2-0.8,0.6-1.5,1-2s0.9-1,1.5-1.3c0.6-0.3,1.3-0.4,2-0.4c0.8,0,1.5,0.2,2.1,0.5c0.6,0.3,1.1,0.7,1.5,1.3
			c0.4,0.5,0.6,1.1,0.7,1.8H8.7c-0.1-0.4-0.3-0.8-0.6-1c-0.3-0.2-0.7-0.4-1.2-0.4c-0.8,0-1.4,0.3-1.8,1c-0.4,0.7-0.6,1.6-0.6,2.8
			h0.1c0.2-0.4,0.4-0.7,0.7-0.9c0.3-0.3,0.7-0.4,1-0.6s0.8-0.2,1.2-0.2c0.7,0,1.3,0.2,1.9,0.5c0.6,0.3,1,0.8,1.3,1.4
			c0.3,0.6,0.5,1.2,0.5,2c0,0.8-0.2,1.5-0.6,2.2c-0.4,0.6-0.9,1.1-1.6,1.5C8.5,280,7.7,280.2,6.9,280.2z M6.8,278.2
			c0.4,0,0.7-0.1,1-0.3c0.3-0.2,0.5-0.4,0.7-0.8c0.2-0.3,0.3-0.7,0.3-1.1c0-0.4-0.1-0.8-0.3-1.1c-0.2-0.3-0.4-0.6-0.7-0.8
			c-0.3-0.2-0.6-0.3-1-0.3c-0.3,0-0.6,0.1-0.8,0.2c-0.2,0.1-0.5,0.3-0.6,0.5c-0.2,0.2-0.3,0.4-0.4,0.7c-0.1,0.3-0.2,0.5-0.2,0.8
			c0,0.4,0.1,0.7,0.3,1.1c0.2,0.3,0.4,0.6,0.7,0.8S6.5,278.2,6.8,278.2z"/>
		<path class="st2" d="M17.8,280.3c-1,0-1.9-0.3-2.6-0.7c-0.7-0.5-1.3-1.2-1.7-2.1c-0.4-0.9-0.6-2.1-0.6-3.4c0-1.3,0.2-2.4,0.6-3.3
			c0.4-0.9,0.9-1.6,1.7-2.1c0.7-0.5,1.6-0.7,2.6-0.7c1,0,1.9,0.2,2.6,0.7c0.7,0.5,1.3,1.2,1.7,2.1c0.4,0.9,0.6,2,0.6,3.3
			c0,1.3-0.2,2.4-0.6,3.4c-0.4,0.9-0.9,1.6-1.7,2.1C19.6,280,18.8,280.3,17.8,280.3z M17.8,278.1c0.7,0,1.2-0.3,1.6-1
			c0.4-0.7,0.6-1.7,0.6-3.1c0-0.9-0.1-1.7-0.3-2.3c-0.2-0.6-0.4-1.1-0.8-1.4c-0.3-0.3-0.7-0.5-1.2-0.5c-0.7,0-1.2,0.3-1.6,1
			s-0.6,1.7-0.6,3.1c0,0.9,0.1,1.7,0.3,2.3c0.2,0.6,0.4,1.1,0.8,1.4C16.9,278,17.3,278.1,17.8,278.1z"/>
		<path class="st2" d="M25.9,280.1c-0.4,0-0.7-0.1-1-0.4c-0.3-0.3-0.4-0.6-0.4-1c0-0.4,0.1-0.7,0.4-1c0.3-0.3,0.6-0.4,1-0.4
			c0.4,0,0.7,0.1,1,0.4c0.3,0.3,0.4,0.6,0.4,1c0,0.3-0.1,0.5-0.2,0.7c-0.1,0.2-0.3,0.4-0.5,0.5C26.4,280.1,26.1,280.1,25.9,280.1z"
			/>
		<path class="st2" d="M34,280.3c-1,0-1.9-0.3-2.6-0.7c-0.7-0.5-1.3-1.2-1.7-2.1c-0.4-0.9-0.6-2.1-0.6-3.4c0-1.3,0.2-2.4,0.6-3.3
			c0.4-0.9,0.9-1.6,1.7-2.1c0.7-0.5,1.6-0.7,2.6-0.7c1,0,1.9,0.2,2.6,0.7c0.7,0.5,1.3,1.2,1.7,2.1c0.4,0.9,0.6,2,0.6,3.3
			c0,1.3-0.2,2.4-0.6,3.4c-0.4,0.9-0.9,1.6-1.7,2.1C35.8,280,35,280.3,34,280.3z M34,278.1c0.7,0,1.2-0.3,1.6-1
			c0.4-0.7,0.6-1.7,0.6-3.1c0-0.9-0.1-1.7-0.3-2.3c-0.2-0.6-0.4-1.1-0.8-1.4c-0.3-0.3-0.7-0.5-1.2-0.5c-0.7,0-1.2,0.3-1.6,1
			c-0.4,0.7-0.6,1.7-0.6,3.1c0,0.9,0.1,1.7,0.3,2.3c0.2,0.6,0.4,1.1,0.8,1.4C33.1,278,33.5,278.1,34,278.1z"/>
		<path class="st2" d="M45.2,280.3c-1,0-1.9-0.3-2.6-0.7c-0.7-0.5-1.3-1.2-1.7-2.1c-0.4-0.9-0.6-2.1-0.6-3.4c0-1.3,0.2-2.4,0.6-3.3
			c0.4-0.9,0.9-1.6,1.7-2.1c0.7-0.5,1.6-0.7,2.6-0.7c1,0,1.9,0.2,2.6,0.7c0.7,0.5,1.3,1.2,1.7,2.1c0.4,0.9,0.6,2,0.6,3.3
			c0,1.3-0.2,2.4-0.6,3.4c-0.4,0.9-0.9,1.6-1.7,2.1C47.1,280,46.2,280.3,45.2,280.3z M45.2,278.1c0.7,0,1.2-0.3,1.6-1
			c0.4-0.7,0.6-1.7,0.6-3.1c0-0.9-0.1-1.7-0.3-2.3c-0.2-0.6-0.4-1.1-0.8-1.4c-0.3-0.3-0.7-0.5-1.2-0.5c-0.7,0-1.2,0.3-1.6,1
			S43,272.6,43,274c0,0.9,0.1,1.7,0.3,2.3c0.2,0.6,0.4,1.1,0.8,1.4C44.4,278,44.8,278.1,45.2,278.1z"/>
		<path class="st2" d="M52.3,270.9v-0.6c0-0.5,0.1-1,0.3-1.4c0.2-0.4,0.5-0.8,1-1c0.4-0.3,0.9-0.4,1.5-0.4c0.6,0,1.1,0.1,1.6,0.4
			c0.4,0.3,0.7,0.6,1,1c0.2,0.4,0.3,0.9,0.3,1.4v0.6c0,0.5-0.1,1-0.3,1.4s-0.5,0.8-1,1c-0.4,0.3-0.9,0.4-1.6,0.4
			c-0.6,0-1.1-0.1-1.5-0.4c-0.4-0.3-0.7-0.6-0.9-1C52.4,271.8,52.3,271.4,52.3,270.9z M52.9,280l8.2-12h1.7l-8.2,12H52.9z
			 M54.3,270.2v0.6c0,0.2,0.1,0.5,0.2,0.7c0.1,0.2,0.3,0.3,0.6,0.3c0.3,0,0.5-0.1,0.6-0.3s0.2-0.4,0.1-0.7v-0.6c0-0.2,0-0.5-0.1-0.7
			s-0.3-0.3-0.7-0.3c-0.3,0-0.5,0.1-0.6,0.3S54.3,270,54.3,270.2z M58.5,277.7v-0.6c0-0.5,0.1-1,0.3-1.4c0.2-0.4,0.5-0.8,1-1
			c0.4-0.3,0.9-0.4,1.5-0.4c0.6,0,1.1,0.1,1.6,0.4c0.4,0.3,0.7,0.6,1,1c0.2,0.4,0.3,0.9,0.3,1.4v0.6c0,0.5-0.1,1-0.3,1.4
			c-0.2,0.4-0.5,0.8-1,1c-0.4,0.3-0.9,0.4-1.6,0.4s-1.1-0.1-1.5-0.4c-0.4-0.3-0.7-0.6-0.9-1C58.6,278.7,58.5,278.2,58.5,277.7z
			 M60.5,277.1v0.6c0,0.2,0.1,0.4,0.2,0.7c0.1,0.2,0.3,0.3,0.6,0.3c0.3,0,0.5-0.1,0.6-0.3c0.1-0.2,0.2-0.4,0.1-0.7v-0.6
			c0-0.2,0-0.5-0.1-0.7c-0.1-0.2-0.3-0.3-0.7-0.3c-0.3,0-0.5,0.1-0.6,0.3C60.6,276.6,60.5,276.9,60.5,277.1z"/>
	</g>
</g>
<g>
	<g class="st1">
		<path class="st2" d="M6.7,224.9c-0.9,0-1.7-0.1-2.4-0.4c-0.7-0.3-1.2-0.7-1.6-1.2c-0.4-0.5-0.6-1.1-0.6-1.7c0-0.5,0.1-1,0.3-1.4
			c0.2-0.4,0.5-0.8,0.9-1c0.4-0.3,0.8-0.5,1.3-0.5v-0.1c-0.6-0.1-1.2-0.4-1.5-0.9c-0.4-0.5-0.6-1.1-0.6-1.7c0-0.6,0.2-1.2,0.5-1.7
			s0.9-0.9,1.5-1.2c0.6-0.3,1.3-0.4,2.2-0.4c0.8,0,1.5,0.1,2.2,0.4c0.6,0.3,1.1,0.7,1.5,1.2c0.4,0.5,0.5,1,0.5,1.7
			c0,0.7-0.2,1.2-0.6,1.7c-0.4,0.5-0.9,0.8-1.5,0.9v0.1c0.5,0.1,0.9,0.3,1.3,0.5c0.4,0.3,0.7,0.6,0.9,1c0.2,0.4,0.3,0.9,0.4,1.4
			c0,0.6-0.2,1.2-0.6,1.7c-0.4,0.5-0.9,0.9-1.6,1.2C8.4,224.8,7.6,224.9,6.7,224.9z M6.7,223c0.4,0,0.7-0.1,1-0.2
			c0.3-0.1,0.5-0.3,0.7-0.6c0.2-0.3,0.3-0.6,0.3-0.9c0-0.3-0.1-0.7-0.3-0.9c-0.2-0.3-0.4-0.5-0.7-0.6c-0.3-0.2-0.6-0.2-1-0.2
			c-0.4,0-0.7,0.1-1,0.2c-0.3,0.2-0.5,0.4-0.7,0.6c-0.2,0.3-0.3,0.6-0.3,0.9c0,0.3,0.1,0.6,0.3,0.9c0.2,0.3,0.4,0.5,0.7,0.6
			C6,223,6.3,223,6.7,223z M6.7,217.7c0.3,0,0.6-0.1,0.9-0.2c0.3-0.1,0.5-0.3,0.6-0.6c0.1-0.2,0.2-0.5,0.2-0.8
			c0-0.3-0.1-0.6-0.2-0.8c-0.1-0.2-0.3-0.4-0.6-0.6c-0.3-0.1-0.6-0.2-0.9-0.2c-0.3,0-0.6,0.1-0.9,0.2c-0.3,0.1-0.5,0.3-0.6,0.6
			c-0.1,0.2-0.2,0.5-0.2,0.8c0,0.3,0.1,0.6,0.2,0.8c0.1,0.2,0.4,0.4,0.6,0.6C6.1,217.6,6.4,217.7,6.7,217.7z"/>
		<path class="st2" d="M17.8,225c-1,0-1.9-0.3-2.6-0.7c-0.7-0.5-1.3-1.2-1.7-2.1c-0.4-0.9-0.6-2.1-0.6-3.4c0-1.3,0.2-2.4,0.6-3.3
			c0.4-0.9,0.9-1.6,1.7-2.1c0.7-0.5,1.6-0.7,2.6-0.7c1,0,1.9,0.2,2.6,0.7c0.7,0.5,1.3,1.2,1.7,2.1c0.4,0.9,0.6,2,0.6,3.3
			c0,1.3-0.2,2.4-0.6,3.4c-0.4,0.9-0.9,1.6-1.7,2.1C19.6,224.8,18.8,225,17.8,225z M17.8,222.9c0.7,0,1.2-0.3,1.6-1
			c0.4-0.7,0.6-1.7,0.6-3.1c0-0.9-0.1-1.7-0.3-2.3c-0.2-0.6-0.4-1.1-0.8-1.4c-0.3-0.3-0.7-0.5-1.2-0.5c-0.7,0-1.2,0.3-1.6,1
			s-0.6,1.7-0.6,3.1c0,0.9,0.1,1.7,0.3,2.3c0.2,0.6,0.4,1.1,0.8,1.4C16.9,222.8,17.3,222.9,17.8,222.9z"/>
		<path class="st2" d="M25.9,224.9c-0.4,0-0.7-0.1-1-0.4c-0.3-0.3-0.4-0.6-0.4-1c0-0.4,0.1-0.7,0.4-1c0.3-0.3,0.6-0.4,1-0.4
			c0.4,0,0.7,0.1,1,0.4c0.3,0.3,0.4,0.6,0.4,1c0,0.3-0.1,0.5-0.2,0.7c-0.1,0.2-0.3,0.4-0.5,0.5C26.4,224.8,26.1,224.9,25.9,224.9z"
			/>
		<path class="st2" d="M34,225c-1,0-1.9-0.3-2.6-0.7c-0.7-0.5-1.3-1.2-1.7-2.1c-0.4-0.9-0.6-2.1-0.6-3.4c0-1.3,0.2-2.4,0.6-3.3
			c0.4-0.9,0.9-1.6,1.7-2.1c0.7-0.5,1.6-0.7,2.6-0.7c1,0,1.9,0.2,2.6,0.7c0.7,0.5,1.3,1.2,1.7,2.1c0.4,0.9,0.6,2,0.6,3.3
			c0,1.3-0.2,2.4-0.6,3.4c-0.4,0.9-0.9,1.6-1.7,2.1C35.8,224.8,35,225,34,225z M34,222.9c0.7,0,1.2-0.3,1.6-1
			c0.4-0.7,0.6-1.7,0.6-3.1c0-0.9-0.1-1.7-0.3-2.3c-0.2-0.6-0.4-1.1-0.8-1.4c-0.3-0.3-0.7-0.5-1.2-0.5c-0.7,0-1.2,0.3-1.6,1
			c-0.4,0.7-0.6,1.7-0.6,3.1c0,0.9,0.1,1.7,0.3,2.3c0.2,0.6,0.4,1.1,0.8,1.4C33.1,222.8,33.5,222.9,34,222.9z"/>
		<path class="st2" d="M45.2,225c-1,0-1.9-0.3-2.6-0.7c-0.7-0.5-1.3-1.2-1.7-2.1c-0.4-0.9-0.6-2.1-0.6-3.4c0-1.3,0.2-2.4,0.6-3.3
			c0.4-0.9,0.9-1.6,1.7-2.1c0.7-0.5,1.6-0.7,2.6-0.7c1,0,1.9,0.2,2.6,0.7c0.7,0.5,1.3,1.2,1.7,2.1c0.4,0.9,0.6,2,0.6,3.3
			c0,1.3-0.2,2.4-0.6,3.4c-0.4,0.9-0.9,1.6-1.7,2.1C47.1,224.8,46.2,225,45.2,225z M45.2,222.9c0.7,0,1.2-0.3,1.6-1
			c0.4-0.7,0.6-1.7,0.6-3.1c0-0.9-0.1-1.7-0.3-2.3c-0.2-0.6-0.4-1.1-0.8-1.4c-0.3-0.3-0.7-0.5-1.2-0.5c-0.7,0-1.2,0.3-1.6,1
			s-0.6,1.7-0.6,3.1c0,0.9,0.1,1.7,0.3,2.3c0.2,0.6,0.4,1.1,0.8,1.4C44.4,222.8,44.8,222.9,45.2,222.9z"/>
		<path class="st2" d="M52.3,215.6V215c0-0.5,0.1-1,0.3-1.4c0.2-0.4,0.5-0.8,1-1c0.4-0.3,0.9-0.4,1.5-0.4c0.6,0,1.1,0.1,1.6,0.4
			c0.4,0.3,0.7,0.6,1,1c0.2,0.4,0.3,0.9,0.3,1.4v0.6c0,0.5-0.1,1-0.3,1.4s-0.5,0.8-1,1c-0.4,0.3-0.9,0.4-1.6,0.4
			c-0.6,0-1.1-0.1-1.5-0.4c-0.4-0.3-0.7-0.6-0.9-1C52.4,216.6,52.3,216.1,52.3,215.6z M52.9,224.8l8.2-12h1.7l-8.2,12H52.9z
			 M54.3,215v0.6c0,0.2,0.1,0.5,0.2,0.7c0.1,0.2,0.3,0.3,0.6,0.3c0.3,0,0.5-0.1,0.6-0.3s0.2-0.4,0.1-0.7V215c0-0.2,0-0.5-0.1-0.7
			s-0.3-0.3-0.7-0.3c-0.3,0-0.5,0.1-0.6,0.3S54.3,214.8,54.3,215z M58.5,222.5v-0.6c0-0.5,0.1-1,0.3-1.4c0.2-0.4,0.5-0.8,1-1
			c0.4-0.3,0.9-0.4,1.5-0.4c0.6,0,1.1,0.1,1.6,0.4c0.4,0.3,0.7,0.6,1,1c0.2,0.4,0.3,0.9,0.3,1.4v0.6c0,0.5-0.1,1-0.3,1.4
			c-0.2,0.4-0.5,0.8-1,1c-0.4,0.3-0.9,0.4-1.6,0.4s-1.1-0.1-1.5-0.4c-0.4-0.3-0.7-0.6-0.9-1C58.6,223.5,58.5,223,58.5,222.5z
			 M60.5,221.9v0.6c0,0.2,0.1,0.4,0.2,0.7c0.1,0.2,0.3,0.3,0.6,0.3c0.3,0,0.5-0.1,0.6-0.3c0.1-0.2,0.2-0.4,0.1-0.7v-0.6
			c0-0.2,0-0.5-0.1-0.7c-0.1-0.2-0.3-0.3-0.7-0.3c-0.3,0-0.5,0.1-0.6,0.3C60.6,221.4,60.5,221.6,60.5,221.9z"/>
	</g>
</g>
<g>
	<g class="st1">
		<path class="st2" d="M7.4,157.5v12H4.9v-9.6H4.8l-2.7,1.7v-2.3l3-1.9H7.4z"/>
		<path class="st2" d="M14.9,169.8c-1,0-1.9-0.3-2.6-0.7c-0.7-0.5-1.3-1.2-1.7-2.1c-0.4-0.9-0.6-2.1-0.6-3.4c0-1.3,0.2-2.4,0.6-3.3
			c0.4-0.9,0.9-1.6,1.7-2.1c0.7-0.5,1.6-0.7,2.6-0.7c1,0,1.9,0.2,2.6,0.7c0.7,0.5,1.3,1.2,1.7,2.1c0.4,0.9,0.6,2,0.6,3.3
			c0,1.3-0.2,2.4-0.6,3.4c-0.4,0.9-0.9,1.6-1.7,2.1C16.8,169.5,15.9,169.8,14.9,169.8z M14.9,167.7c0.7,0,1.2-0.3,1.6-1
			c0.4-0.7,0.6-1.7,0.6-3.1c0-0.9-0.1-1.7-0.3-2.3c-0.2-0.6-0.4-1.1-0.8-1.4c-0.3-0.3-0.7-0.5-1.2-0.5c-0.7,0-1.2,0.3-1.6,1
			s-0.6,1.7-0.6,3.1c0,0.9,0.1,1.7,0.3,2.3c0.2,0.6,0.4,1.1,0.8,1.4C14.1,167.5,14.5,167.7,14.9,167.7z"/>
		<path class="st2" d="M26.2,169.8c-1,0-1.9-0.3-2.6-0.7c-0.7-0.5-1.3-1.2-1.7-2.1c-0.4-0.9-0.6-2.1-0.6-3.4c0-1.3,0.2-2.4,0.6-3.3
			c0.4-0.9,0.9-1.6,1.7-2.1c0.7-0.5,1.6-0.7,2.6-0.7c1,0,1.9,0.2,2.6,0.7c0.7,0.5,1.3,1.2,1.7,2.1c0.4,0.9,0.6,2,0.6,3.3
			c0,1.3-0.2,2.4-0.6,3.4c-0.4,0.9-0.9,1.6-1.7,2.1C28.1,169.5,27.2,169.8,26.2,169.8z M26.2,167.7c0.7,0,1.2-0.3,1.6-1
			c0.4-0.7,0.6-1.7,0.6-3.1c0-0.9-0.1-1.7-0.3-2.3c-0.2-0.6-0.4-1.1-0.8-1.4c-0.3-0.3-0.7-0.5-1.2-0.5c-0.7,0-1.2,0.3-1.6,1
			s-0.6,1.7-0.6,3.1c0,0.9,0.1,1.7,0.3,2.3c0.2,0.6,0.4,1.1,0.8,1.4C25.4,167.5,25.8,167.7,26.2,167.7z"/>
		<path class="st2" d="M34.3,169.7c-0.4,0-0.7-0.1-1-0.4c-0.3-0.3-0.4-0.6-0.4-1c0-0.4,0.1-0.7,0.4-1c0.3-0.3,0.6-0.4,1-0.4
			c0.4,0,0.7,0.1,1,0.4c0.3,0.3,0.4,0.6,0.4,1c0,0.3-0.1,0.5-0.2,0.7c-0.1,0.2-0.3,0.4-0.5,0.5C34.8,169.6,34.6,169.7,34.3,169.7z"
			/>
		<path class="st2" d="M42.4,169.8c-1,0-1.9-0.3-2.6-0.7c-0.7-0.5-1.3-1.2-1.7-2.1c-0.4-0.9-0.6-2.1-0.6-3.4c0-1.3,0.2-2.4,0.6-3.3
			c0.4-0.9,0.9-1.6,1.7-2.1c0.7-0.5,1.6-0.7,2.6-0.7c1,0,1.9,0.2,2.6,0.7c0.7,0.5,1.3,1.2,1.7,2.1c0.4,0.9,0.6,2,0.6,3.3
			c0,1.3-0.2,2.4-0.6,3.4c-0.4,0.9-0.9,1.6-1.7,2.1C44.3,169.5,43.4,169.8,42.4,169.8z M42.4,167.7c0.7,0,1.2-0.3,1.6-1
			c0.4-0.7,0.6-1.7,0.6-3.1c0-0.9-0.1-1.7-0.3-2.3c-0.2-0.6-0.4-1.1-0.8-1.4c-0.3-0.3-0.7-0.5-1.2-0.5c-0.7,0-1.2,0.3-1.6,1
			s-0.6,1.7-0.6,3.1c0,0.9,0.1,1.7,0.3,2.3c0.2,0.6,0.4,1.1,0.8,1.4C41.5,167.5,41.9,167.7,42.4,167.7z"/>
		<path class="st2" d="M53.7,169.8c-1,0-1.9-0.3-2.6-0.7c-0.7-0.5-1.3-1.2-1.7-2.1c-0.4-0.9-0.6-2.1-0.6-3.4c0-1.3,0.2-2.4,0.6-3.3
			c0.4-0.9,0.9-1.6,1.7-2.1c0.7-0.5,1.6-0.7,2.6-0.7c1,0,1.9,0.2,2.6,0.7c0.7,0.5,1.3,1.2,1.7,2.1c0.4,0.9,0.6,2,0.6,3.3
			c0,1.3-0.2,2.4-0.6,3.4c-0.4,0.9-0.9,1.6-1.7,2.1C55.5,169.5,54.7,169.8,53.7,169.8z M53.7,167.7c0.7,0,1.2-0.3,1.6-1
			c0.4-0.7,0.6-1.7,0.6-3.1c0-0.9-0.1-1.7-0.3-2.3c-0.2-0.6-0.4-1.1-0.8-1.4c-0.3-0.3-0.7-0.5-1.2-0.5c-0.7,0-1.2,0.3-1.6,1
			s-0.6,1.7-0.6,3.1c0,0.9,0.1,1.7,0.3,2.3c0.2,0.6,0.4,1.1,0.8,1.4C52.8,167.5,53.2,167.7,53.7,167.7z"/>
		<path class="st2" d="M60.7,160.4v-0.6c0-0.5,0.1-1,0.3-1.4c0.2-0.4,0.5-0.8,1-1c0.4-0.3,0.9-0.4,1.5-0.4c0.6,0,1.1,0.1,1.6,0.4
			c0.4,0.3,0.7,0.6,1,1c0.2,0.4,0.3,0.9,0.3,1.4v0.6c0,0.5-0.1,1-0.3,1.4s-0.5,0.8-1,1c-0.4,0.3-0.9,0.4-1.6,0.4
			c-0.6,0-1.1-0.1-1.5-0.4c-0.4-0.3-0.7-0.6-0.9-1C60.8,161.4,60.7,160.9,60.7,160.4z M61.4,169.5l8.2-12h1.7l-8.2,12H61.4z
			 M62.8,159.7v0.6c0,0.2,0.1,0.5,0.2,0.7c0.1,0.2,0.3,0.3,0.6,0.3c0.3,0,0.5-0.1,0.6-0.3s0.2-0.4,0.1-0.7v-0.6c0-0.2,0-0.5-0.1-0.7
			s-0.3-0.3-0.7-0.3c-0.3,0-0.5,0.1-0.6,0.3S62.8,159.5,62.8,159.7z M66.9,167.3v-0.6c0-0.5,0.1-1,0.3-1.4c0.2-0.4,0.5-0.8,1-1
			c0.4-0.3,0.9-0.4,1.5-0.4c0.6,0,1.1,0.1,1.6,0.4c0.4,0.3,0.7,0.6,1,1c0.2,0.4,0.3,0.9,0.3,1.4v0.6c0,0.5-0.1,1-0.3,1.4
			c-0.2,0.4-0.5,0.8-1,1c-0.4,0.3-0.9,0.4-1.6,0.4s-1.1-0.1-1.5-0.4c-0.4-0.3-0.7-0.6-0.9-1C67.1,168.2,67,167.8,66.9,167.3z
			 M69,166.6v0.6c0,0.2,0.1,0.4,0.2,0.7c0.1,0.2,0.3,0.3,0.6,0.3c0.3,0,0.5-0.1,0.6-0.3c0.1-0.2,0.2-0.4,0.1-0.7v-0.6
			c0-0.2,0-0.5-0.1-0.7c-0.1-0.2-0.3-0.3-0.7-0.3c-0.3,0-0.5,0.1-0.6,0.3C69,166.2,69,166.4,69,166.6z"/>
	</g>
</g>
<g>
	<g class="st1">
		<path class="st2" d="M7.4,102.3v12H4.9v-9.6H4.8l-2.7,1.7v-2.3l3-1.9H7.4z"/>
		<path class="st2" d="M10.3,114.3v-1.8l4.2-4c0.4-0.4,0.7-0.7,0.9-1c0.2-0.3,0.4-0.6,0.6-0.8c0.1-0.3,0.2-0.6,0.2-0.9
			c0-0.4-0.1-0.7-0.2-0.9c-0.2-0.3-0.4-0.5-0.7-0.6c-0.3-0.1-0.6-0.2-0.9-0.2c-0.4,0-0.7,0.1-1,0.2c-0.3,0.1-0.5,0.4-0.6,0.6
			c-0.1,0.3-0.2,0.6-0.2,1h-2.4c0-0.8,0.2-1.5,0.5-2c0.4-0.6,0.8-1,1.5-1.3c0.6-0.3,1.4-0.5,2.2-0.5c0.9,0,1.6,0.2,2.2,0.5
			c0.6,0.3,1.1,0.7,1.5,1.3c0.4,0.5,0.5,1.2,0.5,1.8c0,0.5-0.1,0.9-0.3,1.3c-0.2,0.4-0.5,0.9-0.9,1.5c-0.5,0.5-1.1,1.2-1.9,1.9
			l-1.7,1.7v0.1h5v2.1H10.3z"/>
		<path class="st2" d="M25.3,114.5c-1,0-1.9-0.3-2.6-0.7c-0.7-0.5-1.3-1.2-1.7-2.1c-0.4-0.9-0.6-2.1-0.6-3.4c0-1.3,0.2-2.4,0.6-3.3
			c0.4-0.9,0.9-1.6,1.7-2.1c0.7-0.5,1.6-0.7,2.6-0.7c1,0,1.9,0.2,2.6,0.7c0.7,0.5,1.3,1.2,1.7,2.1c0.4,0.9,0.6,2,0.6,3.3
			c0,1.3-0.2,2.4-0.6,3.4c-0.4,0.9-0.9,1.6-1.7,2.1C27.1,114.3,26.3,114.5,25.3,114.5z M25.3,112.4c0.7,0,1.2-0.3,1.6-1
			c0.4-0.7,0.6-1.7,0.6-3.1c0-0.9-0.1-1.7-0.3-2.3c-0.2-0.6-0.4-1.1-0.8-1.4c-0.3-0.3-0.7-0.5-1.2-0.5c-0.7,0-1.2,0.3-1.6,1
			s-0.6,1.7-0.6,3.1c0,0.9,0.1,1.7,0.3,2.3c0.2,0.6,0.4,1.1,0.8,1.4C24.4,112.3,24.8,112.4,25.3,112.4z"/>
		<path class="st2" d="M33.3,114.4c-0.4,0-0.7-0.1-1-0.4c-0.3-0.3-0.4-0.6-0.4-1c0-0.4,0.1-0.7,0.4-1c0.3-0.3,0.6-0.4,1-0.4
			c0.4,0,0.7,0.1,1,0.4c0.3,0.3,0.4,0.6,0.4,1c0,0.3-0.1,0.5-0.2,0.7c-0.1,0.2-0.3,0.4-0.5,0.5C33.8,114.4,33.6,114.4,33.3,114.4z"
			/>
		<path class="st2" d="M41.4,114.5c-1,0-1.9-0.3-2.6-0.7c-0.7-0.5-1.3-1.2-1.7-2.1c-0.4-0.9-0.6-2.1-0.6-3.4c0-1.3,0.2-2.4,0.6-3.3
			c0.4-0.9,0.9-1.6,1.7-2.1c0.7-0.5,1.6-0.7,2.6-0.7c1,0,1.9,0.2,2.6,0.7c0.7,0.5,1.3,1.2,1.7,2.1c0.4,0.9,0.6,2,0.6,3.3
			c0,1.3-0.2,2.4-0.6,3.4c-0.4,0.9-0.9,1.6-1.7,2.1C43.3,114.3,42.4,114.5,41.4,114.5z M41.4,112.4c0.7,0,1.2-0.3,1.6-1
			c0.4-0.7,0.6-1.7,0.6-3.1c0-0.9-0.1-1.7-0.3-2.3c-0.2-0.6-0.4-1.1-0.8-1.4c-0.3-0.3-0.7-0.5-1.2-0.5c-0.7,0-1.2,0.3-1.6,1
			s-0.6,1.7-0.6,3.1c0,0.9,0.1,1.7,0.3,2.3c0.2,0.6,0.4,1.1,0.8,1.4C40.6,112.3,41,112.4,41.4,112.4z"/>
		<path class="st2" d="M52.7,114.5c-1,0-1.9-0.3-2.6-0.7c-0.7-0.5-1.3-1.2-1.7-2.1c-0.4-0.9-0.6-2.1-0.6-3.4c0-1.3,0.2-2.4,0.6-3.3
			c0.4-0.9,0.9-1.6,1.7-2.1c0.7-0.5,1.6-0.7,2.6-0.7c1,0,1.9,0.2,2.6,0.7c0.7,0.5,1.3,1.2,1.7,2.1c0.4,0.9,0.6,2,0.6,3.3
			c0,1.3-0.2,2.4-0.6,3.4c-0.4,0.9-0.9,1.6-1.7,2.1C54.6,114.3,53.7,114.5,52.7,114.5z M52.7,112.4c0.7,0,1.2-0.3,1.6-1
			c0.4-0.7,0.6-1.7,0.6-3.1c0-0.9-0.1-1.7-0.3-2.3c-0.2-0.6-0.4-1.1-0.8-1.4c-0.3-0.3-0.7-0.5-1.2-0.5c-0.7,0-1.2,0.3-1.6,1
			s-0.6,1.7-0.6,3.1c0,0.9,0.1,1.7,0.3,2.3c0.2,0.6,0.4,1.1,0.8,1.4C51.9,112.3,52.3,112.4,52.7,112.4z"/>
		<path class="st2" d="M59.7,105.1v-0.6c0-0.5,0.1-1,0.3-1.4c0.2-0.4,0.5-0.8,1-1c0.4-0.3,0.9-0.4,1.5-0.4c0.6,0,1.1,0.1,1.6,0.4
			c0.4,0.3,0.7,0.6,1,1c0.2,0.4,0.3,0.9,0.3,1.4v0.6c0,0.5-0.1,1-0.3,1.4s-0.5,0.8-1,1c-0.4,0.3-0.9,0.4-1.6,0.4
			c-0.6,0-1.1-0.1-1.5-0.4c-0.4-0.3-0.7-0.6-0.9-1C59.9,106.1,59.8,105.7,59.7,105.1z M60.4,114.3l8.2-12h1.7l-8.2,12H60.4z
			 M61.8,104.5v0.6c0,0.2,0.1,0.5,0.2,0.7c0.1,0.2,0.3,0.3,0.6,0.3c0.3,0,0.5-0.1,0.6-0.3s0.2-0.4,0.1-0.7v-0.6c0-0.2,0-0.5-0.1-0.7
			s-0.3-0.3-0.7-0.3c-0.3,0-0.5,0.1-0.6,0.3S61.8,104.3,61.8,104.5z M66,112v-0.6c0-0.5,0.1-1,0.3-1.4c0.2-0.4,0.5-0.8,1-1
			c0.4-0.3,0.9-0.4,1.5-0.4c0.6,0,1.1,0.1,1.6,0.4c0.4,0.3,0.7,0.6,1,1c0.2,0.4,0.3,0.9,0.3,1.4v0.6c0,0.5-0.1,1-0.3,1.4
			c-0.2,0.4-0.5,0.8-1,1c-0.4,0.3-0.9,0.4-1.6,0.4s-1.1-0.1-1.5-0.4c-0.4-0.3-0.7-0.6-0.9-1C66.1,113,66,112.5,66,112z M68,111.4
			v0.6c0,0.2,0.1,0.4,0.2,0.7c0.1,0.2,0.3,0.3,0.6,0.3c0.3,0,0.5-0.1,0.6-0.3c0.1-0.2,0.2-0.4,0.1-0.7v-0.6c0-0.2,0-0.5-0.1-0.7
			c-0.1-0.2-0.3-0.3-0.7-0.3c-0.3,0-0.5,0.1-0.6,0.3C68.1,110.9,68,111.2,68,111.4z"/>
	</g>
</g>
<g>
	<g class="st1">
		<path class="st2" d="M7.4,47v12H4.9v-9.6H4.8l-2.7,1.7v-2.3L5,47H7.4z"/>
		<path class="st2" d="M10.1,56.9v-2l5-7.9h1.7v2.8h-1l-3.1,5v0.1h7.1v2H10.1z M15.8,59v-2.7l0-0.9V47h2.4v12H15.8z"/>
		<path class="st2" d="M26.1,59.3c-1,0-1.9-0.3-2.6-0.7c-0.7-0.5-1.3-1.2-1.7-2.1c-0.4-0.9-0.6-2.1-0.6-3.4c0-1.3,0.2-2.4,0.6-3.3
			c0.4-0.9,0.9-1.6,1.7-2.1c0.7-0.5,1.6-0.7,2.6-0.7c1,0,1.9,0.2,2.6,0.7c0.7,0.5,1.3,1.2,1.7,2.1c0.4,0.9,0.6,2,0.6,3.3
			c0,1.3-0.2,2.4-0.6,3.4c-0.4,0.9-0.9,1.6-1.7,2.1C27.9,59.1,27.1,59.3,26.1,59.3z M26.1,57.2c0.7,0,1.2-0.3,1.6-1
			c0.4-0.7,0.6-1.7,0.6-3.1c0-0.9-0.1-1.7-0.3-2.3c-0.2-0.6-0.4-1.1-0.8-1.4c-0.3-0.3-0.7-0.5-1.2-0.5c-0.7,0-1.2,0.3-1.6,1
			s-0.6,1.7-0.6,3.1c0,0.9,0.1,1.7,0.3,2.3c0.2,0.6,0.4,1.1,0.8,1.4C25.2,57,25.6,57.2,26.1,57.2z"/>
		<path class="st2" d="M34.1,59.2c-0.4,0-0.7-0.1-1-0.4c-0.3-0.3-0.4-0.6-0.4-1c0-0.4,0.1-0.7,0.4-1c0.3-0.3,0.6-0.4,1-0.4
			c0.4,0,0.7,0.1,1,0.4c0.3,0.3,0.4,0.6,0.4,1c0,0.3-0.1,0.5-0.2,0.7c-0.1,0.2-0.3,0.4-0.5,0.5C34.6,59.1,34.4,59.2,34.1,59.2z"/>
		<path class="st2" d="M42.2,59.3c-1,0-1.9-0.3-2.6-0.7c-0.7-0.5-1.3-1.2-1.7-2.1c-0.4-0.9-0.6-2.1-0.6-3.4c0-1.3,0.2-2.4,0.6-3.3
			c0.4-0.9,0.9-1.6,1.7-2.1c0.7-0.5,1.6-0.7,2.6-0.7c1,0,1.9,0.2,2.6,0.7c0.7,0.5,1.3,1.2,1.7,2.1c0.4,0.9,0.6,2,0.6,3.3
			c0,1.3-0.2,2.4-0.6,3.4c-0.4,0.9-0.9,1.6-1.7,2.1C44.1,59.1,43.2,59.3,42.2,59.3z M42.2,57.2c0.7,0,1.2-0.3,1.6-1
			c0.4-0.7,0.6-1.7,0.6-3.1c0-0.9-0.1-1.7-0.3-2.3c-0.2-0.6-0.4-1.1-0.8-1.4c-0.3-0.3-0.7-0.5-1.2-0.5c-0.7,0-1.2,0.3-1.6,1
			S40,51.7,40,53c0,0.9,0.1,1.7,0.3,2.3c0.2,0.6,0.4,1.1,0.8,1.4C41.4,57,41.8,57.2,42.2,57.2z"/>
		<path class="st2" d="M53.5,59.3c-1,0-1.9-0.3-2.6-0.7c-0.7-0.5-1.3-1.2-1.7-2.1c-0.4-0.9-0.6-2.1-0.6-3.4c0-1.3,0.2-2.4,0.6-3.3
			c0.4-0.9,0.9-1.6,1.7-2.1c0.7-0.5,1.6-0.7,2.6-0.7c1,0,1.9,0.2,2.6,0.7c0.7,0.5,1.3,1.2,1.7,2.1c0.4,0.9,0.6,2,0.6,3.3
			c0,1.3-0.2,2.4-0.6,3.4c-0.4,0.9-0.9,1.6-1.7,2.1C55.4,59.1,54.5,59.3,53.5,59.3z M53.5,57.2c0.7,0,1.2-0.3,1.6-1
			c0.4-0.7,0.6-1.7,0.6-3.1c0-0.9-0.1-1.7-0.3-2.3c-0.2-0.6-0.4-1.1-0.8-1.4c-0.3-0.3-0.7-0.5-1.2-0.5c-0.7,0-1.2,0.3-1.6,1
			s-0.6,1.7-0.6,3.1c0,0.9,0.1,1.7,0.3,2.3c0.2,0.6,0.4,1.1,0.8,1.4C52.7,57,53.1,57.2,53.5,57.2z"/>
		<path class="st2" d="M60.5,49.9v-0.6c0-0.5,0.1-1,0.3-1.4c0.2-0.4,0.5-0.8,1-1c0.4-0.3,0.9-0.4,1.5-0.4c0.6,0,1.1,0.1,1.6,0.4
			c0.4,0.3,0.7,0.6,1,1c0.2,0.4,0.3,0.9,0.3,1.4v0.6c0,0.5-0.1,1-0.3,1.4s-0.5,0.8-1,1c-0.4,0.3-0.9,0.4-1.6,0.4
			c-0.6,0-1.1-0.1-1.5-0.4c-0.4-0.3-0.7-0.6-0.9-1C60.6,50.9,60.5,50.4,60.5,49.9z M61.2,59l8.2-12H71l-8.2,12H61.2z M62.6,49.3v0.6
			c0,0.2,0.1,0.5,0.2,0.7c0.1,0.2,0.3,0.3,0.6,0.3c0.3,0,0.5-0.1,0.6-0.3s0.2-0.4,0.1-0.7v-0.6c0-0.2,0-0.5-0.1-0.7
			s-0.3-0.3-0.7-0.3c-0.3,0-0.5,0.1-0.6,0.3S62.6,49.1,62.6,49.3z M66.8,56.8v-0.6c0-0.5,0.1-1,0.3-1.4c0.2-0.4,0.5-0.8,1-1
			c0.4-0.3,0.9-0.4,1.5-0.4c0.6,0,1.1,0.1,1.6,0.4c0.4,0.3,0.7,0.6,1,1c0.2,0.4,0.3,0.9,0.3,1.4v0.6c0,0.5-0.1,1-0.3,1.4
			c-0.2,0.4-0.5,0.8-1,1c-0.4,0.3-0.9,0.4-1.6,0.4s-1.1-0.1-1.5-0.4c-0.4-0.3-0.7-0.6-0.9-1C66.9,57.8,66.8,57.3,66.8,56.8z
			 M68.8,56.2v0.6c0,0.2,0.1,0.4,0.2,0.7c0.1,0.2,0.3,0.3,0.6,0.3c0.3,0,0.5-0.1,0.6-0.3c0.1-0.2,0.2-0.4,0.1-0.7v-0.6
			c0-0.2,0-0.5-0.1-0.7c-0.1-0.2-0.3-0.3-0.7-0.3c-0.3,0-0.5,0.1-0.6,0.3C68.9,55.7,68.8,55.9,68.8,56.2z"/>
	</g>
</g>
<g>
	<rect id="Rectangle_854" x="83.2" y="162.7" class="st3" width="51.2" height="278.2"/>
	<rect id="Rectangle_855" x="134.4" y="218.2" class="st4" width="51.2" height="222.6"/>
</g>
<g>
	<g class="st1">
		<path class="st2" d="M115.8,474.2v-13.9h5.2c1.1,0,2,0.2,2.7,0.6c0.7,0.4,1.3,0.9,1.6,1.6c0.4,0.7,0.6,1.4,0.6,2.3
			c0,0.9-0.2,1.7-0.6,2.3c-0.4,0.7-0.9,1.2-1.7,1.5s-1.6,0.5-2.7,0.5h-3.7V467h3.4c0.6,0,1.1-0.1,1.5-0.3s0.7-0.4,0.9-0.8
			c0.2-0.3,0.3-0.8,0.3-1.2s-0.1-0.9-0.3-1.3c-0.2-0.4-0.5-0.6-0.9-0.8c-0.4-0.2-0.9-0.3-1.5-0.3h-2.3v11.8H115.8z M122.9,467.9
			l3.4,6.3h-2.8l-3.4-6.3H122.9z"/>
		<path class="st2" d="M132.7,474.4c-1,0-1.9-0.2-2.7-0.7c-0.8-0.4-1.3-1.1-1.7-1.9c-0.4-0.8-0.6-1.8-0.6-2.8c0-1.1,0.2-2,0.6-2.8
			c0.4-0.8,1-1.5,1.7-1.9s1.6-0.7,2.6-0.7c0.6,0,1.2,0.1,1.8,0.3c0.6,0.2,1.1,0.5,1.5,1c0.4,0.4,0.8,1,1,1.6
			c0.3,0.7,0.4,1.5,0.4,2.4v0.8h-8.5V468h6.2c0-0.5-0.1-0.9-0.3-1.3s-0.5-0.7-0.8-0.9c-0.4-0.2-0.8-0.3-1.2-0.3
			c-0.5,0-0.9,0.1-1.3,0.4c-0.4,0.2-0.7,0.6-0.9,1s-0.3,0.8-0.3,1.3v1.5c0,0.6,0.1,1.1,0.3,1.6c0.2,0.4,0.5,0.8,0.9,1
			c0.4,0.2,0.9,0.3,1.4,0.3c0.4,0,0.7-0.1,1-0.2c0.3-0.1,0.5-0.3,0.8-0.5c0.2-0.2,0.4-0.4,0.5-0.7l2.3,0.3c-0.1,0.6-0.4,1.1-0.8,1.6
			c-0.4,0.5-0.9,0.8-1.5,1S133.5,474.4,132.7,474.4z"/>
		<path class="st2" d="M144.5,463.8v1.9h-6v-1.9H144.5z M140,461.3h2.4v9.8c0,0.3,0.1,0.6,0.2,0.8s0.2,0.3,0.4,0.4
			c0.2,0.1,0.4,0.1,0.6,0.1c0.2,0,0.3,0,0.4,0c0.1,0,0.2,0,0.3-0.1l0.4,1.9c-0.1,0-0.3,0.1-0.6,0.2s-0.5,0.1-0.9,0.1
			c-0.6,0-1.2-0.1-1.7-0.3c-0.5-0.2-0.9-0.5-1.2-1s-0.4-1-0.4-1.6V461.3z"/>
		<path class="st2" d="M153.2,469.8v-6.1h2.4v10.5h-2.4v-1.9h-0.1c-0.2,0.6-0.6,1.1-1.2,1.4c-0.5,0.4-1.2,0.6-2,0.6
			c-0.7,0-1.3-0.2-1.8-0.5s-0.9-0.8-1.2-1.3s-0.4-1.3-0.4-2.1v-6.7h2.4v6.3c0,0.7,0.2,1.2,0.5,1.6c0.4,0.4,0.8,0.6,1.4,0.6
			c0.4,0,0.7-0.1,1-0.3s0.6-0.4,0.8-0.8C153.1,470.8,153.2,470.4,153.2,469.8z"/>
		<path class="st2" d="M158.2,474.2v-10.5h2.4v1.7h0.1c0.2-0.6,0.5-1.1,1-1.4s1-0.5,1.6-0.5c0.1,0,0.3,0,0.5,0c0.2,0,0.3,0,0.4,0.1
			v2.3c-0.1,0-0.3-0.1-0.5-0.1c-0.2,0-0.4,0-0.6,0c-0.4,0-0.8,0.1-1.2,0.3c-0.4,0.2-0.6,0.5-0.8,0.8c-0.2,0.3-0.3,0.7-0.3,1.2v6.1
			H158.2z"/>
		<path class="st2" d="M168.2,468.1v6.1h-2.4v-10.5h2.3v1.8h0.1c0.2-0.6,0.6-1,1.1-1.4c0.5-0.3,1.2-0.5,2-0.5c0.7,0,1.3,0.2,1.9,0.5
			c0.5,0.3,0.9,0.8,1.2,1.3c0.3,0.6,0.4,1.3,0.4,2.1v6.7h-2.4V468c0-0.7-0.2-1.2-0.5-1.6c-0.4-0.4-0.9-0.6-1.5-0.6
			c-0.4,0-0.8,0.1-1.1,0.3s-0.6,0.5-0.8,0.8S168.2,467.6,168.2,468.1z"/>
		<path class="st2" d="M185.5,466.6l-2.2,0.2c-0.1-0.2-0.2-0.4-0.3-0.6c-0.2-0.2-0.4-0.4-0.6-0.5c-0.3-0.1-0.6-0.2-1-0.2
			c-0.5,0-0.9,0.1-1.3,0.3c-0.3,0.2-0.5,0.5-0.5,0.9c0,0.3,0.1,0.6,0.3,0.7c0.2,0.2,0.6,0.3,1.1,0.5l1.8,0.4c1,0.2,1.7,0.6,2.2,1
			s0.7,1.1,0.7,1.8c0,0.7-0.2,1.2-0.6,1.7c-0.4,0.5-0.9,0.9-1.6,1.2c-0.7,0.3-1.4,0.4-2.3,0.4c-1.3,0-2.3-0.3-3.1-0.8
			s-1.2-1.3-1.4-2.2l2.4-0.2c0.1,0.5,0.3,0.8,0.7,1.1c0.4,0.2,0.8,0.4,1.4,0.4c0.6,0,1-0.1,1.4-0.4c0.4-0.2,0.5-0.5,0.5-0.9
			c0-0.3-0.1-0.5-0.3-0.7s-0.6-0.3-1.1-0.4l-1.8-0.4c-1-0.2-1.7-0.6-2.2-1.1c-0.5-0.5-0.7-1.1-0.7-1.9c0-0.6,0.2-1.2,0.5-1.7
			c0.4-0.5,0.8-0.8,1.5-1.1c0.6-0.3,1.4-0.4,2.2-0.4c1.2,0,2.2,0.3,2.9,0.8C184.9,465,185.4,465.7,185.5,466.6z"/>
	</g>
</g>
<g>
	<rect id="Rectangle_862" x="235" y="162.7" class="st3" width="51.2" height="278.2"/>
	<rect id="Rectangle_863" x="286.2" y="288.9" class="st4" width="51.2" height="152"/>
</g>
<g>
	<g class="st1">
		<path class="st2" d="M235,463.1V461h11v2.1h-4.3v11.8h-2.5v-11.8H235z"/>
		<path class="st2" d="M249.3,463c-0.4,0-0.7-0.1-1-0.4c-0.3-0.3-0.4-0.6-0.4-0.9c0-0.4,0.1-0.7,0.4-0.9s0.6-0.4,1-0.4
			c0.4,0,0.7,0.1,1,0.4c0.3,0.3,0.4,0.6,0.4,0.9c0,0.4-0.1,0.7-0.4,0.9C250,462.8,249.7,463,249.3,463z M248.1,474.9v-10.5h2.4v10.5
			H248.1z"/>
		<path class="st2" d="M253,474.9v-10.5h2.3v1.8h0.1c0.2-0.6,0.6-1.1,1.1-1.4s1.1-0.5,1.8-0.5c0.7,0,1.3,0.2,1.8,0.5s0.8,0.8,1,1.4
			h0.1c0.2-0.6,0.6-1,1.2-1.4c0.5-0.3,1.2-0.5,2-0.5c1,0,1.7,0.3,2.3,0.9c0.6,0.6,0.9,1.5,0.9,2.7v7h-2.5v-6.6
			c0-0.6-0.2-1.1-0.5-1.4s-0.8-0.5-1.3-0.5c-0.6,0-1.1,0.2-1.4,0.6c-0.3,0.4-0.5,0.8-0.5,1.4v6.5h-2.4v-6.7c0-0.5-0.2-1-0.5-1.3
			c-0.3-0.3-0.7-0.5-1.3-0.5c-0.4,0-0.7,0.1-1,0.3c-0.3,0.2-0.5,0.4-0.7,0.8c-0.2,0.3-0.3,0.7-0.3,1.1v6.4H253z"/>
		<path class="st2" d="M274.7,475.1c-1,0-1.9-0.2-2.7-0.7c-0.8-0.4-1.3-1.1-1.7-1.9c-0.4-0.8-0.6-1.8-0.6-2.8c0-1.1,0.2-2,0.6-2.8
			c0.4-0.8,1-1.5,1.7-1.9s1.6-0.7,2.6-0.7c0.6,0,1.2,0.1,1.8,0.3c0.6,0.2,1.1,0.5,1.5,1c0.4,0.4,0.8,1,1,1.6
			c0.3,0.7,0.4,1.5,0.4,2.4v0.8h-8.5v-1.7h6.2c0-0.5-0.1-0.9-0.3-1.3s-0.5-0.7-0.8-0.9c-0.4-0.2-0.8-0.3-1.2-0.3
			c-0.5,0-0.9,0.1-1.3,0.4c-0.4,0.2-0.7,0.6-0.9,1s-0.3,0.8-0.3,1.3v1.5c0,0.6,0.1,1.1,0.3,1.6c0.2,0.4,0.5,0.8,0.9,1
			c0.4,0.2,0.9,0.3,1.4,0.3c0.4,0,0.7-0.1,1-0.2c0.3-0.1,0.5-0.3,0.8-0.5c0.2-0.2,0.4-0.4,0.5-0.7l2.3,0.3c-0.1,0.6-0.4,1.1-0.8,1.6
			c-0.4,0.5-0.9,0.8-1.5,1S275.5,475.1,274.7,475.1z"/>
		<path class="st2" d="M287.3,463c-0.4,0-0.7-0.1-1-0.4c-0.3-0.3-0.4-0.6-0.4-0.9c0-0.4,0.1-0.7,0.4-0.9s0.6-0.4,1-0.4
			c0.4,0,0.7,0.1,1,0.4c0.3,0.3,0.4,0.6,0.4,0.9c0,0.4-0.1,0.7-0.4,0.9C288.1,462.8,287.7,463,287.3,463z M286.1,474.9v-10.5h2.4
			v10.5H286.1z"/>
		<path class="st2" d="M293.5,468.8v6.1h-2.4v-10.5h2.3v1.8h0.1c0.2-0.6,0.6-1,1.1-1.4c0.5-0.3,1.2-0.5,2-0.5c0.7,0,1.3,0.2,1.9,0.5
			c0.5,0.3,0.9,0.8,1.2,1.3c0.3,0.6,0.4,1.3,0.4,2.1v6.7h-2.4v-6.3c0-0.7-0.2-1.2-0.5-1.6c-0.4-0.4-0.9-0.6-1.5-0.6
			c-0.4,0-0.8,0.1-1.1,0.3s-0.6,0.5-0.8,0.8S293.5,468.3,293.5,468.8z"/>
		<path class="st2" d="M312.6,464.5v1.9h-6v-1.9H312.6z M308.1,462h2.4v9.8c0,0.3,0.1,0.6,0.2,0.8s0.2,0.3,0.4,0.4
			c0.2,0.1,0.4,0.1,0.6,0.1c0.2,0,0.3,0,0.4,0c0.1,0,0.2,0,0.3-0.1l0.4,1.9c-0.1,0-0.3,0.1-0.6,0.2s-0.5,0.1-0.9,0.1
			c-0.6,0-1.2-0.1-1.7-0.3c-0.5-0.2-0.9-0.5-1.2-1s-0.4-1-0.4-1.6V462z"/>
		<path class="st2" d="M317.1,468.8v6.1h-2.4V461h2.4v5.3h0.1c0.2-0.6,0.6-1.1,1.1-1.4c0.5-0.3,1.2-0.5,2-0.5c0.7,0,1.3,0.2,1.9,0.5
			c0.5,0.3,1,0.7,1.2,1.3s0.4,1.3,0.4,2.1v6.7h-2.4v-6.3c0-0.7-0.2-1.3-0.5-1.6c-0.4-0.4-0.9-0.6-1.5-0.6c-0.4,0-0.8,0.1-1.2,0.3
			c-0.3,0.2-0.6,0.5-0.8,0.8S317.1,468.3,317.1,468.8z"/>
		<path class="st2" d="M330.9,475.1c-1,0-1.9-0.2-2.7-0.7c-0.8-0.4-1.3-1.1-1.7-1.9c-0.4-0.8-0.6-1.8-0.6-2.8c0-1.1,0.2-2,0.6-2.8
			c0.4-0.8,1-1.5,1.7-1.9c0.7-0.5,1.6-0.7,2.6-0.7c0.6,0,1.2,0.1,1.8,0.3c0.6,0.2,1.1,0.5,1.5,1c0.4,0.4,0.8,1,1,1.6
			c0.3,0.7,0.4,1.5,0.4,2.4v0.8H327v-1.7h6.2c0-0.5-0.1-0.9-0.3-1.3s-0.5-0.7-0.8-0.9c-0.4-0.2-0.8-0.3-1.2-0.3
			c-0.5,0-0.9,0.1-1.3,0.4c-0.4,0.2-0.7,0.6-0.9,1s-0.3,0.8-0.3,1.3v1.5c0,0.6,0.1,1.1,0.3,1.6s0.5,0.8,0.9,1
			c0.4,0.2,0.9,0.3,1.4,0.3c0.4,0,0.7-0.1,1-0.2c0.3-0.1,0.5-0.3,0.8-0.5c0.2-0.2,0.4-0.4,0.5-0.7l2.3,0.3c-0.1,0.6-0.4,1.1-0.8,1.6
			c-0.4,0.5-0.9,0.8-1.5,1C332.4,475,331.7,475.1,330.9,475.1z"/>
		<path class="st2" d="M235.6,484h3.1l4.1,10.1h0.2l4.1-10.1h3.1v13.9h-2.4v-9.6h-0.1l-3.8,9.5H242l-3.8-9.6H238v9.6h-2.4V484z"/>
		<path class="st2" d="M255.7,498.1c-0.7,0-1.2-0.1-1.8-0.4s-0.9-0.6-1.2-1.1c-0.3-0.5-0.5-1-0.5-1.7c0-0.6,0.1-1.1,0.3-1.5
			s0.5-0.7,0.9-0.9s0.8-0.4,1.3-0.5s1-0.2,1.5-0.3c0.6-0.1,1.1-0.1,1.5-0.2c0.4-0.1,0.7-0.1,0.8-0.2s0.3-0.3,0.3-0.5v0
			c0-0.5-0.2-0.9-0.5-1.2c-0.3-0.3-0.7-0.4-1.3-0.4c-0.6,0-1.1,0.1-1.4,0.4c-0.3,0.3-0.6,0.6-0.7,0.9l-2.3-0.3
			c0.2-0.6,0.5-1.2,0.9-1.6s0.9-0.8,1.5-1c0.6-0.2,1.3-0.3,2-0.3c0.5,0,1,0.1,1.5,0.2c0.5,0.1,0.9,0.3,1.4,0.6
			c0.4,0.3,0.7,0.6,1,1.1s0.4,1,0.4,1.7v7h-2.4v-1.4h-0.1c-0.1,0.3-0.4,0.6-0.6,0.8s-0.6,0.5-1,0.6
			C256.8,498.1,256.3,498.1,255.7,498.1z M256.4,496.3c0.5,0,0.9-0.1,1.3-0.3s0.6-0.5,0.8-0.8c0.2-0.3,0.3-0.7,0.3-1.1v-1.2
			c-0.1,0.1-0.2,0.1-0.4,0.2s-0.4,0.1-0.6,0.1c-0.2,0-0.4,0.1-0.7,0.1c-0.2,0-0.4,0.1-0.6,0.1c-0.4,0.1-0.7,0.1-1,0.2
			c-0.3,0.1-0.5,0.3-0.7,0.5s-0.2,0.5-0.2,0.8c0,0.5,0.2,0.8,0.5,1C255.4,496.2,255.9,496.3,256.4,496.3z"/>
		<path class="st2" d="M263.7,497.9v-10.5h2.4v1.7h0.1c0.2-0.6,0.5-1.1,1-1.4s1-0.5,1.6-0.5c0.1,0,0.3,0,0.5,0c0.2,0,0.3,0,0.4,0.1
			v2.3c-0.1,0-0.3-0.1-0.5-0.1c-0.2,0-0.4,0-0.6,0c-0.4,0-0.8,0.1-1.2,0.3c-0.4,0.2-0.6,0.5-0.8,0.8c-0.2,0.3-0.3,0.7-0.3,1.2v6.1
			H263.7z"/>
		<path class="st2" d="M271.2,497.9V484h2.4v13.9H271.2z M273.5,494.6l0-3h0.4l3.7-4.2h2.9l-4.6,5.1h-0.5L273.5,494.6z M277.8,497.9
			l-3.4-4.8l1.6-1.7l4.7,6.5H277.8z"/>
		<path class="st2" d="M286.7,498.1c-1,0-1.9-0.2-2.7-0.7c-0.8-0.4-1.3-1.1-1.7-1.9c-0.4-0.8-0.6-1.8-0.6-2.8c0-1.1,0.2-2,0.6-2.8
			c0.4-0.8,1-1.5,1.7-1.9s1.6-0.7,2.6-0.7c0.6,0,1.2,0.1,1.8,0.3c0.6,0.2,1.1,0.5,1.5,1c0.4,0.4,0.8,1,1,1.6
			c0.3,0.7,0.4,1.5,0.4,2.4v0.8h-8.5v-1.7h6.2c0-0.5-0.1-0.9-0.3-1.3s-0.5-0.7-0.8-0.9c-0.4-0.2-0.8-0.3-1.2-0.3
			c-0.5,0-0.9,0.1-1.3,0.4c-0.4,0.2-0.7,0.6-0.9,1s-0.3,0.8-0.3,1.3v1.5c0,0.6,0.1,1.1,0.3,1.6c0.2,0.4,0.5,0.8,0.9,1
			c0.4,0.2,0.9,0.3,1.4,0.3c0.4,0,0.7-0.1,1-0.2c0.3-0.1,0.5-0.3,0.8-0.5c0.2-0.2,0.4-0.4,0.5-0.7l2.3,0.3c-0.1,0.6-0.4,1.1-0.8,1.6
			c-0.4,0.5-0.9,0.8-1.5,1S287.5,498.1,286.7,498.1z"/>
		<path class="st2" d="M298.5,487.5v1.9h-6v-1.9H298.5z M294,485h2.4v9.8c0,0.3,0.1,0.6,0.2,0.8s0.2,0.3,0.4,0.4
			c0.2,0.1,0.4,0.1,0.6,0.1c0.2,0,0.3,0,0.4,0c0.1,0,0.2,0,0.3-0.1l0.4,1.9c-0.1,0-0.3,0.1-0.6,0.2s-0.5,0.1-0.9,0.1
			c-0.6,0-1.2-0.1-1.7-0.3c-0.5-0.2-0.9-0.5-1.2-1s-0.4-1-0.4-1.6V485z"/>
	</g>
</g>
<g>
	<g>
		<path id="Rectangle_865" class="st3" d="M260.6,4.6h18.3c1.2,0,2.4,1,2.4,2.3v18.3c0,1.2-1,2.3-2.4,2.3h-18.3
			c-1.2,0-2.4-1-2.4-2.3V6.9C258.2,5.7,259.4,4.6,260.6,4.6z"/>
		<g>
			<g>
				<g>
					<path class="st2" d="M287.4,21.2V7.2h5.3c1,0,1.8,0.2,2.5,0.5s1.2,0.7,1.5,1.3c0.3,0.5,0.5,1.2,0.5,1.9c0,0.6-0.1,1.1-0.3,1.5
						s-0.5,0.7-0.9,1c-0.4,0.2-0.8,0.4-1.2,0.5V14c0.5,0,1,0.2,1.4,0.5c0.5,0.3,0.8,0.7,1.1,1.2c0.3,0.5,0.4,1.1,0.4,1.8
						c0,0.7-0.2,1.4-0.5,1.9c-0.3,0.6-0.9,1-1.6,1.4c-0.7,0.3-1.6,0.5-2.6,0.5H287.4z M289.9,13.2h2.5c0.4,0,0.8-0.1,1.2-0.2
						c0.3-0.2,0.6-0.4,0.8-0.7c0.2-0.3,0.3-0.7,0.3-1.1c0-0.5-0.2-1-0.6-1.3c-0.4-0.3-0.9-0.5-1.7-0.5h-2.5V13.2z M289.9,19.1h2.7
						c0.9,0,1.6-0.2,2-0.5c0.4-0.4,0.6-0.8,0.6-1.4c0-0.4-0.1-0.8-0.3-1.1c-0.2-0.3-0.5-0.6-0.9-0.8c-0.4-0.2-0.8-0.3-1.3-0.3h-2.8
						V19.1z"/>
					<path class="st2" d="M306.4,16.8v-6.1h2.4v10.5h-2.4v-1.9h-0.1c-0.2,0.6-0.6,1.1-1.2,1.4c-0.5,0.4-1.2,0.6-2,0.6
						c-0.7,0-1.3-0.2-1.8-0.5s-0.9-0.8-1.2-1.3s-0.4-1.3-0.4-2.1v-6.7h2.4V17c0,0.7,0.2,1.2,0.5,1.6c0.4,0.4,0.8,0.6,1.4,0.6
						c0.4,0,0.7-0.1,1-0.3s0.6-0.4,0.8-0.8C306.3,17.8,306.4,17.3,306.4,16.8z"/>
					<path class="st2" d="M312.9,25.1c-0.3,0-0.6,0-0.9-0.1c-0.3-0.1-0.5-0.1-0.7-0.2l0.6-1.9c0.5,0.2,1,0.2,1.3,0.1
						c0.4-0.1,0.7-0.4,0.9-1l0.2-0.6l-3.8-10.7h2.6l2.4,7.9h0.1l2.4-7.9l2.6,0l-4.2,11.7c-0.2,0.5-0.5,1-0.8,1.4
						c-0.3,0.4-0.7,0.7-1.2,0.9C314.1,25,313.5,25.1,312.9,25.1z"/>
					<path class="st2" d="M331.2,21.4c-0.9,0-1.8-0.2-2.4-0.5c-0.7-0.3-1.2-0.8-1.6-1.4c-0.4-0.6-0.6-1.3-0.6-2
						c0-0.6,0.1-1.1,0.3-1.5c0.2-0.4,0.5-0.8,0.9-1.2c0.4-0.4,0.9-0.7,1.4-1.1l2.5-1.7c0.4-0.2,0.6-0.5,0.8-0.7
						c0.2-0.3,0.3-0.6,0.3-0.9c0-0.3-0.1-0.6-0.4-0.9c-0.2-0.3-0.6-0.4-1-0.4c-0.3,0-0.6,0.1-0.8,0.2s-0.4,0.3-0.5,0.5
						s-0.2,0.5-0.2,0.7c0,0.3,0.1,0.6,0.3,0.9s0.4,0.6,0.7,1c0.3,0.3,0.6,0.7,0.9,1.1l6.5,7.7h-2.6l-5.4-6.2
						c-0.4-0.5-0.8-0.9-1.2-1.4s-0.7-0.9-0.9-1.4c-0.2-0.5-0.4-1-0.4-1.6c0-0.7,0.2-1.2,0.5-1.8s0.7-0.9,1.3-1.2s1.2-0.4,1.9-0.4
						c0.7,0,1.4,0.1,1.9,0.4c0.5,0.3,0.9,0.7,1.2,1.2c0.3,0.5,0.4,1,0.4,1.6c0,0.7-0.2,1.2-0.5,1.8c-0.3,0.5-0.8,1-1.4,1.4l-2.8,2.1
						c-0.5,0.3-0.8,0.7-1,1c-0.2,0.3-0.3,0.6-0.3,0.9c0,0.4,0.1,0.7,0.3,1s0.4,0.5,0.8,0.7c0.3,0.2,0.7,0.3,1.2,0.3
						c0.5,0,1-0.1,1.5-0.3c0.5-0.2,0.9-0.5,1.3-1c0.4-0.4,0.7-0.9,0.9-1.5c0.2-0.6,0.4-1.2,0.4-1.9h2.1c0,0.9-0.1,1.6-0.3,2.3
						s-0.4,1.2-0.8,1.6s-0.6,0.8-1,1.1c-0.1,0.1-0.2,0.2-0.3,0.2c-0.1,0.1-0.2,0.2-0.3,0.2c-0.5,0.4-1.1,0.8-1.7,1
						C332.4,21.3,331.8,21.4,331.2,21.4z"/>
					<path class="st2" d="M344.5,21.2V7.2h2.5v5.9h6.4V7.2h2.5v13.9h-2.5v-5.9H347v5.9H344.5z"/>
					<path class="st2" d="M363.1,21.4c-1,0-1.9-0.2-2.6-0.7c-0.7-0.4-1.3-1.1-1.7-1.9s-0.6-1.8-0.6-2.8s0.2-2,0.6-2.8s1-1.4,1.7-1.9
						c0.7-0.4,1.6-0.7,2.6-0.7s1.9,0.2,2.6,0.7s1.3,1.1,1.7,1.9c0.4,0.8,0.6,1.8,0.6,2.8s-0.2,2-0.6,2.8c-0.4,0.8-1,1.4-1.7,1.9
						S364.1,21.4,363.1,21.4z M363.1,19.4c0.5,0,1-0.2,1.4-0.5c0.4-0.3,0.6-0.7,0.8-1.2s0.3-1.1,0.3-1.7c0-0.6-0.1-1.2-0.3-1.7
						c-0.2-0.5-0.5-0.9-0.8-1.2c-0.4-0.3-0.8-0.5-1.4-0.5c-0.6,0-1,0.2-1.4,0.5c-0.4,0.3-0.6,0.7-0.8,1.2c-0.2,0.5-0.3,1.1-0.3,1.7
						c0,0.6,0.1,1.2,0.3,1.7s0.5,0.9,0.8,1.2C362.1,19.3,362.5,19.4,363.1,19.4z"/>
					<path class="st2" d="M372.6,7.2v13.9h-2.4V7.2H372.6z"/>
					<path class="st2" d="M378.9,21.4c-0.8,0-1.5-0.2-2.2-0.6c-0.6-0.4-1.2-1-1.5-1.8c-0.4-0.8-0.6-1.8-0.6-2.9
						c0-1.2,0.2-2.1,0.6-2.9s0.9-1.4,1.5-1.8c0.6-0.4,1.4-0.6,2.2-0.6c0.6,0,1.1,0.1,1.5,0.3c0.4,0.2,0.7,0.5,0.9,0.7
						c0.2,0.3,0.4,0.6,0.5,0.8h0.1V7.2h2.5v13.9h-2.4v-1.6h-0.1c-0.1,0.3-0.3,0.5-0.5,0.8c-0.2,0.3-0.6,0.5-0.9,0.7
						C380,21.3,379.5,21.4,378.9,21.4z M379.6,19.3c0.5,0,1-0.1,1.3-0.4c0.4-0.3,0.6-0.7,0.8-1.2s0.3-1.1,0.3-1.8
						c0-0.7-0.1-1.3-0.3-1.8c-0.2-0.5-0.5-0.9-0.8-1.2c-0.4-0.3-0.8-0.4-1.3-0.4c-0.5,0-1,0.1-1.4,0.4s-0.6,0.7-0.8,1.2
						c-0.2,0.5-0.3,1.1-0.3,1.7c0,0.7,0.1,1.2,0.3,1.7c0.2,0.5,0.5,0.9,0.8,1.2C378.6,19.2,379.1,19.3,379.6,19.3z"/>
				</g>
			</g>
		</g>
	</g>
	<g>
		<path id="Rectangle_866" class="st4" d="M412,3.8h18.3c1.2,0,2.4,1,2.4,2.3v18.3c0,1.2-1,2.3-2.4,2.3H412c-1.2,0-2.4-1-2.4-2.3
			V6.1C409.8,4.9,410.7,3.8,412,3.8z"/>
		<g>
			<g>
				<g>
					<path class="st2" d="M451.1,15.3c0,1.5-0.3,2.8-0.8,3.9s-1.3,1.9-2.3,2.5c-1,0.6-2,0.9-3.3,0.9c-1.2,0-2.3-0.3-3.3-0.9
						c-1-0.6-1.7-1.4-2.3-2.5c-0.6-1.1-0.8-2.4-0.8-3.8c0-1.5,0.3-2.8,0.8-3.9c0.6-1.1,1.3-1.9,2.3-2.5c1-0.6,2-0.9,3.3-0.9
						c1.2,0,2.3,0.3,3.3,0.9c1,0.6,1.7,1.4,2.3,2.5C450.8,12.5,451.1,13.8,451.1,15.3z M448.6,15.3c0-1.1-0.2-2-0.5-2.7
						c-0.3-0.7-0.8-1.3-1.4-1.7c-0.6-0.4-1.2-0.6-2-0.6c-0.8,0-1.4,0.2-2,0.6c-0.6,0.4-1,0.9-1.4,1.7c-0.3,0.7-0.5,1.6-0.5,2.7
						s0.2,2,0.5,2.7c0.3,0.7,0.8,1.3,1.4,1.7s1.2,0.6,2,0.6c0.8,0,1.4-0.2,2-0.6c0.6-0.4,1-0.9,1.4-1.7
						C448.4,17.2,448.6,16.3,448.6,15.3z"/>
					<path class="st2" d="M455.3,8.3l3.6,11h0.1l3.6-11h2.8l-4.9,13.9h-3.1l-4.9-13.9H455.3z"/>
					<path class="st2" d="M466.6,10.4V8.3h11v2.1h-4.3v11.8h-2.5V10.4H466.6z"/>
					<path class="st2" d="M479.8,22.2V8.3h2.5v11.8h6.1v2.1H479.8z"/>
					<path class="st2" d="M489.6,8.3h2.8l3.4,6.2h0.1l3.4-6.2h2.8l-5,8.7v5.2h-2.5V17L489.6,8.3z"/>
					<path class="st2" d="M504,22.2V8.3h5.2c1.1,0,2,0.2,2.7,0.6c0.7,0.4,1.3,0.9,1.6,1.6c0.4,0.7,0.6,1.4,0.6,2.3
						c0,0.9-0.2,1.7-0.6,2.3c-0.4,0.7-0.9,1.2-1.7,1.5c-0.7,0.4-1.6,0.5-2.7,0.5h-3.7V15h3.4c0.6,0,1.1-0.1,1.5-0.3s0.7-0.4,0.9-0.8
						s0.3-0.8,0.3-1.2s-0.1-0.9-0.3-1.3c-0.2-0.4-0.5-0.6-0.9-0.8c-0.4-0.2-0.9-0.3-1.5-0.3h-2.3v11.8H504z M511.1,15.9l3.4,6.3
						h-2.8l-3.4-6.3H511.1z"/>
				</g>
			</g>
		</g>
	</g>
</g>
<g>
	<rect id="Rectangle_864" x="386.8" y="162.7" class="st3" width="51.4" height="278.2"/>
	<rect id="Rectangle_859" x="437.9" y="51.9" class="st4" width="51.4" height="389"/>
</g>
<g>
	<g>
		<path d="M218.1,466.8v2.8h-14.2v-2.8H218.1z M211,464.6c-0.4,0-0.8-0.1-1.1-0.3c-0.3-0.2-0.6-0.5-0.8-0.8
			c-0.2-0.3-0.3-0.7-0.3-1.1c0-0.6,0.2-1.1,0.6-1.5c0.4-0.4,0.9-0.6,1.5-0.6c0.6,0,1.1,0.2,1.5,0.6c0.4,0.4,0.6,0.9,0.6,1.5
			c0,0.6-0.2,1.1-0.6,1.5C212.1,464.4,211.6,464.6,211,464.6z M211,476.1c-0.6,0-1.1-0.2-1.5-0.6c-0.4-0.4-0.6-0.9-0.6-1.5
			c0-0.6,0.2-1.1,0.6-1.5c0.4-0.4,0.9-0.6,1.5-0.6c0.6,0,1.1,0.2,1.5,0.6s0.6,0.9,0.6,1.5c0,0.6-0.2,1.1-0.6,1.5
			S211.6,476.1,211,476.1z"/>
	</g>
</g>
<g>
	<g>
		<path d="M356.3,463.1v-2.8h13.4v2.8H356.3z M356.3,469.5v-2.8h13.4v2.8H356.3z"/>
	</g>
</g>
<g>
	<g class="st1">
		<path class="st2" d="M386.8,474.9V461h5.2c1.1,0,2,0.2,2.7,0.6c0.7,0.4,1.3,0.9,1.6,1.6c0.4,0.7,0.6,1.4,0.6,2.3
			c0,0.9-0.2,1.7-0.6,2.3c-0.4,0.7-0.9,1.2-1.7,1.5c-0.7,0.4-1.6,0.5-2.7,0.5h-3.7v-2.1h3.4c0.6,0,1.1-0.1,1.5-0.3s0.7-0.4,0.9-0.8
			s0.3-0.8,0.3-1.2s-0.1-0.9-0.3-1.3c-0.2-0.4-0.5-0.6-0.9-0.8c-0.4-0.2-0.9-0.3-1.5-0.3h-2.3v11.8H386.8z M394,468.6l3.4,6.3h-2.8
			l-3.4-6.3H394z"/>
		<path class="st2" d="M400.3,463c-0.4,0-0.7-0.1-1-0.4c-0.3-0.3-0.4-0.6-0.4-0.9c0-0.4,0.1-0.7,0.4-0.9c0.3-0.3,0.6-0.4,1-0.4
			s0.7,0.1,1,0.4c0.3,0.3,0.4,0.6,0.4,0.9c0,0.4-0.1,0.7-0.4,0.9S400.7,463,400.3,463z M399.1,474.9v-10.5h2.4v10.5H399.1z"/>
		<path class="st2" d="M412.3,467.2l-2.2,0.2c-0.1-0.2-0.2-0.4-0.3-0.6c-0.2-0.2-0.4-0.4-0.6-0.5c-0.3-0.1-0.6-0.2-1-0.2
			c-0.5,0-0.9,0.1-1.3,0.3c-0.3,0.2-0.5,0.5-0.5,0.9c0,0.3,0.1,0.6,0.3,0.7c0.2,0.2,0.6,0.3,1.1,0.5l1.8,0.4c1,0.2,1.7,0.6,2.2,1
			s0.7,1.1,0.7,1.8c0,0.7-0.2,1.2-0.6,1.7c-0.4,0.5-0.9,0.9-1.6,1.2s-1.4,0.4-2.3,0.4c-1.3,0-2.3-0.3-3.1-0.8
			c-0.8-0.5-1.2-1.3-1.4-2.2l2.4-0.2c0.1,0.5,0.3,0.8,0.7,1.1c0.4,0.2,0.8,0.4,1.4,0.4c0.6,0,1-0.1,1.4-0.4c0.4-0.2,0.5-0.5,0.5-0.9
			c0-0.3-0.1-0.5-0.3-0.7s-0.6-0.3-1.1-0.4l-1.8-0.4c-1-0.2-1.7-0.6-2.2-1.1c-0.5-0.5-0.7-1.1-0.7-1.9c0-0.6,0.2-1.2,0.5-1.7
			c0.4-0.5,0.8-0.8,1.5-1.1c0.6-0.3,1.4-0.4,2.2-0.4c1.2,0,2.2,0.3,2.9,0.8C411.7,465.6,412.1,466.3,412.3,467.2z"/>
		<path class="st2" d="M414.5,474.9V461h2.4v13.9H414.5z M416.7,471.6l0-3h0.4l3.7-4.2h2.9l-4.6,5.1h-0.5L416.7,471.6z M421,474.9
			l-3.4-4.8l1.6-1.7l4.7,6.5H421z"/>
		<path class="st2" d="M431.6,468.1v2h-6.2v-2H431.6z"/>
		<path class="st2" d="M436.1,474.9h-2.7l4.9-13.9h3.1l4.9,13.9h-2.7l-3.7-11.1h-0.1L436.1,474.9z M436.2,469.5h7.3v2h-7.3V469.5z"
			/>
		<path class="st2" d="M451.8,475.1c-0.8,0-1.5-0.2-2.2-0.6s-1.2-1-1.5-1.8c-0.4-0.8-0.6-1.8-0.6-2.9c0-1.2,0.2-2.1,0.6-2.9
			s0.9-1.4,1.5-1.8c0.6-0.4,1.4-0.6,2.2-0.6c0.6,0,1.1,0.1,1.5,0.3c0.4,0.2,0.7,0.5,0.9,0.7s0.4,0.6,0.5,0.8h0.1V461h2.5v13.9h-2.4
			v-1.6h-0.1c-0.1,0.3-0.3,0.5-0.5,0.8c-0.2,0.3-0.6,0.5-0.9,0.7C452.9,475,452.4,475.1,451.8,475.1z M452.5,473.1
			c0.5,0,1-0.1,1.3-0.4c0.4-0.3,0.6-0.7,0.8-1.2s0.3-1.1,0.3-1.8c0-0.7-0.1-1.3-0.3-1.8c-0.2-0.5-0.5-0.9-0.8-1.2
			c-0.4-0.3-0.8-0.4-1.3-0.4c-0.5,0-1,0.1-1.4,0.4c-0.4,0.3-0.6,0.7-0.8,1.2s-0.3,1.1-0.3,1.7c0,0.7,0.1,1.2,0.3,1.7
			c0.2,0.5,0.5,0.9,0.8,1.2C451.5,472.9,452,473.1,452.5,473.1z"/>
		<path class="st2" d="M460,464.5h2.4v11c0,0.8-0.1,1.4-0.4,1.9c-0.3,0.5-0.7,0.9-1.2,1.1c-0.5,0.2-1.2,0.4-2,0.3
			c-0.1,0-0.1,0-0.2,0s-0.2,0-0.2,0v-2c0.1,0,0.1,0,0.2,0c0.1,0,0.1,0,0.2,0c0.5,0,0.8-0.1,1-0.3c0.2-0.2,0.3-0.6,0.3-1V464.5z
			 M461.2,463c-0.4,0-0.7-0.1-1-0.4c-0.3-0.3-0.4-0.6-0.4-0.9c0-0.4,0.1-0.7,0.4-0.9s0.6-0.4,1-0.4s0.7,0.1,1,0.4
			c0.3,0.3,0.4,0.6,0.4,0.9c0,0.4-0.1,0.7-0.4,0.9S461.6,463,461.2,463z"/>
		<path class="st2" d="M471.5,470.5v-6.1h2.4v10.5h-2.4v-1.9h-0.1c-0.2,0.6-0.6,1.1-1.2,1.4c-0.5,0.4-1.2,0.6-2,0.6
			c-0.7,0-1.3-0.2-1.8-0.5c-0.5-0.3-0.9-0.8-1.2-1.3s-0.4-1.3-0.4-2.1v-6.7h2.4v6.3c0,0.7,0.2,1.2,0.5,1.6c0.4,0.4,0.8,0.6,1.4,0.6
			c0.4,0,0.7-0.1,1-0.3s0.6-0.4,0.8-0.8C471.4,471.5,471.5,471.1,471.5,470.5z"/>
		<path class="st2" d="M484.7,467.2l-2.2,0.2c-0.1-0.2-0.2-0.4-0.3-0.6c-0.2-0.2-0.4-0.4-0.6-0.5c-0.3-0.1-0.6-0.2-1-0.2
			c-0.5,0-0.9,0.1-1.3,0.3c-0.3,0.2-0.5,0.5-0.5,0.9c0,0.3,0.1,0.6,0.3,0.7c0.2,0.2,0.6,0.3,1.1,0.5l1.8,0.4c1,0.2,1.7,0.6,2.2,1
			s0.7,1.1,0.7,1.8c0,0.7-0.2,1.2-0.6,1.7c-0.4,0.5-0.9,0.9-1.6,1.2s-1.4,0.4-2.3,0.4c-1.3,0-2.3-0.3-3.1-0.8
			c-0.8-0.5-1.2-1.3-1.4-2.2l2.4-0.2c0.1,0.5,0.3,0.8,0.7,1.1c0.4,0.2,0.8,0.4,1.4,0.4c0.6,0,1-0.1,1.4-0.4c0.4-0.2,0.5-0.5,0.5-0.9
			c0-0.3-0.1-0.5-0.3-0.7s-0.6-0.3-1.1-0.4l-1.8-0.4c-1-0.2-1.7-0.6-2.2-1.1c-0.5-0.5-0.7-1.1-0.7-1.9c0-0.6,0.2-1.2,0.5-1.7
			c0.4-0.5,0.8-0.8,1.5-1.1c0.6-0.3,1.4-0.4,2.2-0.4c1.2,0,2.2,0.3,2.9,0.8C484.1,465.6,484.5,466.3,484.7,467.2z"/>
		<path class="st2" d="M492.1,464.5v1.9h-6v-1.9H492.1z M487.6,462h2.4v9.8c0,0.3,0.1,0.6,0.2,0.8c0.1,0.2,0.2,0.3,0.4,0.4
			s0.4,0.1,0.6,0.1c0.2,0,0.3,0,0.4,0c0.1,0,0.2,0,0.3-0.1l0.4,1.9c-0.1,0-0.3,0.1-0.6,0.2c-0.2,0.1-0.5,0.1-0.9,0.1
			c-0.6,0-1.2-0.1-1.7-0.3c-0.5-0.2-0.9-0.5-1.2-1s-0.4-1-0.4-1.6V462z"/>
		<path class="st2" d="M498.8,475.1c-1,0-1.9-0.2-2.7-0.7c-0.8-0.4-1.3-1.1-1.7-1.9c-0.4-0.8-0.6-1.8-0.6-2.8c0-1.1,0.2-2,0.6-2.8
			c0.4-0.8,1-1.5,1.7-1.9s1.6-0.7,2.6-0.7c0.6,0,1.2,0.1,1.8,0.3c0.6,0.2,1.1,0.5,1.5,1c0.4,0.4,0.8,1,1,1.6
			c0.3,0.7,0.4,1.5,0.4,2.4v0.8h-8.5v-1.7h6.2c0-0.5-0.1-0.9-0.3-1.3s-0.5-0.7-0.8-0.9c-0.4-0.2-0.8-0.3-1.2-0.3
			c-0.5,0-0.9,0.1-1.3,0.4c-0.4,0.2-0.7,0.6-0.9,1s-0.3,0.8-0.3,1.3v1.5c0,0.6,0.1,1.1,0.3,1.6s0.5,0.8,0.9,1
			c0.4,0.2,0.9,0.3,1.4,0.3c0.4,0,0.7-0.1,1-0.2c0.3-0.1,0.5-0.3,0.8-0.5c0.2-0.2,0.4-0.4,0.5-0.7l2.3,0.3c-0.1,0.6-0.4,1.1-0.8,1.6
			c-0.4,0.5-0.9,0.8-1.5,1C500.3,475,499.6,475.1,498.8,475.1z"/>
		<path class="st2" d="M509.3,475.1c-0.8,0-1.5-0.2-2.2-0.6s-1.2-1-1.5-1.8c-0.4-0.8-0.6-1.8-0.6-2.9c0-1.2,0.2-2.1,0.6-2.9
			s0.9-1.4,1.5-1.8c0.6-0.4,1.4-0.6,2.2-0.6c0.6,0,1.1,0.1,1.5,0.3c0.4,0.2,0.7,0.5,0.9,0.7s0.4,0.6,0.5,0.8h0.1V461h2.5v13.9h-2.4
			v-1.6h-0.1c-0.1,0.3-0.3,0.5-0.5,0.8c-0.2,0.3-0.6,0.5-0.9,0.7C510.4,475,509.9,475.1,509.3,475.1z M510,473.1
			c0.5,0,1-0.1,1.3-0.4c0.4-0.3,0.6-0.7,0.8-1.2c0.2-0.5,0.3-1.1,0.3-1.8c0-0.7-0.1-1.3-0.3-1.8c-0.2-0.5-0.5-0.9-0.8-1.2
			c-0.4-0.3-0.8-0.4-1.3-0.4c-0.5,0-1,0.1-1.4,0.4c-0.4,0.3-0.6,0.7-0.8,1.2s-0.3,1.1-0.3,1.7c0,0.7,0.1,1.2,0.3,1.7
			c0.2,0.5,0.5,0.9,0.8,1.2C509,472.9,509.5,473.1,510,473.1z"/>
		<path class="st2" d="M386.8,497.9V484h5.2c1.1,0,2,0.2,2.7,0.6c0.7,0.4,1.3,0.9,1.6,1.6c0.4,0.7,0.6,1.4,0.6,2.3
			c0,0.9-0.2,1.7-0.6,2.3c-0.4,0.7-0.9,1.2-1.7,1.5c-0.7,0.4-1.6,0.5-2.7,0.5h-3.7v-2.1h3.4c0.6,0,1.1-0.1,1.5-0.3s0.7-0.4,0.9-0.8
			s0.3-0.8,0.3-1.2s-0.1-0.9-0.3-1.3c-0.2-0.4-0.5-0.6-0.9-0.8c-0.4-0.2-0.9-0.3-1.5-0.3h-2.3v11.8H386.8z M394,491.6l3.4,6.3h-2.8
			l-3.4-6.3H394z"/>
		<path class="st2" d="M403.7,498.1c-1,0-1.9-0.2-2.7-0.7c-0.8-0.4-1.3-1.1-1.7-1.9c-0.4-0.8-0.6-1.8-0.6-2.8c0-1.1,0.2-2,0.6-2.8
			c0.4-0.8,1-1.5,1.7-1.9s1.6-0.7,2.6-0.7c0.6,0,1.2,0.1,1.8,0.3c0.6,0.2,1.1,0.5,1.5,1c0.4,0.4,0.8,1,1,1.6
			c0.3,0.7,0.4,1.5,0.4,2.4v0.8h-8.5v-1.7h6.2c0-0.5-0.1-0.9-0.3-1.3s-0.5-0.7-0.8-0.9c-0.4-0.2-0.8-0.3-1.2-0.3
			c-0.5,0-0.9,0.1-1.3,0.4c-0.4,0.2-0.7,0.6-0.9,1s-0.3,0.8-0.3,1.3v1.5c0,0.6,0.1,1.1,0.3,1.6s0.5,0.8,0.9,1
			c0.4,0.2,0.9,0.3,1.4,0.3c0.4,0,0.7-0.1,1-0.2c0.3-0.1,0.5-0.3,0.8-0.5c0.2-0.2,0.4-0.4,0.5-0.7l2.3,0.3c-0.1,0.6-0.4,1.1-0.8,1.6
			c-0.4,0.5-0.9,0.8-1.5,1C405.2,498,404.5,498.1,403.7,498.1z"/>
		<path class="st2" d="M415.6,487.5v1.9h-6v-1.9H415.6z M411.1,485h2.4v9.8c0,0.3,0.1,0.6,0.2,0.8c0.1,0.2,0.2,0.3,0.4,0.4
			s0.4,0.1,0.6,0.1c0.2,0,0.3,0,0.4,0c0.1,0,0.2,0,0.3-0.1l0.4,1.9c-0.1,0-0.3,0.1-0.6,0.2c-0.2,0.1-0.5,0.1-0.9,0.1
			c-0.6,0-1.2-0.1-1.7-0.3c-0.5-0.2-0.9-0.5-1.2-1s-0.4-1-0.4-1.6V485z"/>
		<path class="st2" d="M424.2,493.5v-6.1h2.4v10.5h-2.4v-1.9h-0.1c-0.2,0.6-0.6,1.1-1.2,1.4c-0.5,0.4-1.2,0.6-2,0.6
			c-0.7,0-1.3-0.2-1.8-0.5c-0.5-0.3-0.9-0.8-1.2-1.3s-0.4-1.3-0.4-2.1v-6.7h2.4v6.3c0,0.7,0.2,1.2,0.5,1.6c0.4,0.4,0.8,0.6,1.4,0.6
			c0.4,0,0.7-0.1,1-0.3s0.6-0.4,0.8-0.8C424.1,494.5,424.2,494.1,424.2,493.5z"/>
		<path class="st2" d="M429.2,497.9v-10.5h2.4v1.7h0.1c0.2-0.6,0.5-1.1,1-1.4s1-0.5,1.6-0.5c0.1,0,0.3,0,0.5,0c0.2,0,0.3,0,0.4,0.1
			v2.3c-0.1,0-0.3-0.1-0.5-0.1c-0.2,0-0.4,0-0.6,0c-0.4,0-0.8,0.1-1.2,0.3c-0.4,0.2-0.6,0.5-0.8,0.8c-0.2,0.3-0.3,0.7-0.3,1.2v6.1
			H429.2z"/>
		<path class="st2" d="M439.2,491.8v6.1h-2.4v-10.5h2.3v1.8h0.1c0.2-0.6,0.6-1,1.1-1.4c0.5-0.3,1.2-0.5,1.9-0.5
			c0.7,0,1.3,0.2,1.9,0.5s0.9,0.8,1.2,1.3c0.3,0.6,0.4,1.3,0.4,2.1v6.7h-2.4v-6.3c0-0.7-0.2-1.2-0.5-1.6s-0.9-0.6-1.5-0.6
			c-0.4,0-0.8,0.1-1.1,0.3s-0.6,0.5-0.8,0.8C439.3,490.9,439.2,491.3,439.2,491.8z"/>
	</g>
</g>
</svg>
