<?xml version="1.0" encoding="utf-8"?>
<!-- Generator: Adobe Illustrator 27.0.0, SVG Export Plug-In . SVG Version: 6.00 Build 0)  -->
<svg version="1.1" id="Layer_1" xmlns="http://www.w3.org/2000/svg" xmlns:xlink="http://www.w3.org/1999/xlink" x="0px" y="0px"
	 viewBox="0 0 208 133" style="enable-background:new 0 0 208 133;" xml:space="preserve">
<style type="text/css">
	.st0{fill:#FFFFFF;}
	.st1{fill:#4285F4;}
</style>
<g>
	<path class="st0" d="M11.8,74.7c-4.5,0-7.8-1.1-10-3.2c-2.1-2.2-3.2-5.5-3.2-10V48c0-4.5,1.1-7.8,3.2-10c2.2-2.1,5.5-3.2,9.9-3.1
		h7.1c4.5,0,7.8,1.1,10,3.2c2.1,2.1,3.2,5.4,3.2,10v13.5c0,4.5-1.1,7.8-3.2,10c-2.1,2.1-5.4,3.2-10,3.2H11.8L11.8,74.7z M11.8,69.8
		h7.1c1.7,0.1,3.4-0.2,4.9-0.7c1.2-0.5,2.1-1.4,2.5-2.6c0.6-1.6,0.8-3.3,0.8-4.9V48.1c0.1-1.7-0.2-3.3-0.8-4.9
		c-0.5-1.2-1.4-2.1-2.5-2.6c-1.6-0.6-3.3-0.8-4.9-0.8h-7.1c-1.7-0.1-3.3,0.2-4.9,0.7c-1.2,0.4-2.1,1.4-2.6,2.5
		c-0.6,1.6-0.8,3.3-0.8,4.9v13.6c-0.1,1.7,0.2,3.3,0.7,4.9c0.5,1.2,1.4,2.1,2.6,2.6C8.4,69.7,10.1,69.9,11.8,69.8L11.8,69.8z"/>
	<path class="st0" d="M54.2,74.7c-1,0-1.8-0.7-2.4-1.9L37.3,38.4c-0.3-0.6-0.4-1.2-0.2-1.8c0.6-1.3,2.1-1.9,3.5-1.3
		c0.6,0.2,1,0.7,1.3,1.2L55.5,69h-1.7l13.4-32.5c0.3-1.2,1.5-1.9,2.6-1.6c0.3,0.1,0.5,0.2,0.8,0.4c0.6,0.2,1.1,0.7,1.3,1.3
		c0.2,0.6,0.1,1.3-0.2,1.8L57.1,72.8c-0.4,1.1-1.4,1.9-2.6,1.9L54.2,74.7L54.2,74.7z"/>
	<path class="st0" d="M92,74.7c-1.2,0.2-2.3-0.7-2.5-1.8c0-0.2,0-0.4,0-0.6V39.9H78.1c-1.4,0.1-2.6-0.9-2.7-2.3
		c-0.1-1.4,0.9-2.6,2.3-2.7c0.1,0,0.3,0,0.4,0h27.7c1.4-0.1,2.6,0.9,2.7,2.3c0.1,1.4-0.9,2.6-2.3,2.7c-0.1,0-0.3,0-0.4,0H94.4v32.4
		c0,0.7-0.2,1.3-0.7,1.8C93.3,74.6,92.6,74.8,92,74.7L92,74.7z"/>
	<path class="st0" d="M118.6,74.7c-1.2,0.2-2.3-0.7-2.5-1.8c0-0.2,0-0.4,0-0.6V37.4c0-1.4,1.1-2.5,2.5-2.5s2.5,1.1,2.5,2.5v32.4
		h16.3c1.4,0,2.5,1.1,2.5,2.5c0,1.4-1.1,2.5-2.5,2.5H118.6L118.6,74.7z"/>
	<path class="st0" d="M153.7,74.7c-1.2,0.2-2.3-0.7-2.5-1.8c0-0.2,0-0.4,0-0.6v-12l-13.5-21.4c-0.8-1-0.6-2.5,0.4-3.2
		c0.1-0.1,0.2-0.2,0.4-0.2c0.9-0.8,2.3-0.7,3.1,0.3c0.1,0.1,0.2,0.3,0.3,0.5L153.7,55l12.3-18.9c0.3-0.6,0.9-1,1.5-1.1
		c0.7-0.1,1.3,0.1,1.9,0.5c1.1,0.4,1.6,1.6,1.2,2.7c-0.1,0.2-0.2,0.4-0.4,0.6l-14,21.4v12c0.2,1.2-0.7,2.3-1.9,2.5
		C154.2,74.8,154,74.8,153.7,74.7L153.7,74.7z"/>
	<path class="st0" d="M203.9,74.9c-0.5,0.4-1.2,0.5-1.9,0.4c-0.6-0.2-1.2-0.6-1.5-1.2l-9.1-15.2h-8.2v13.4c0,1.4-1.1,2.5-2.5,2.5
		c-1.4,0-2.5-1.1-2.5-2.5V37.4c-0.2-1.2,0.7-2.3,1.9-2.5c0.2,0,0.4,0,0.6,0h13.8c5.5-0.6,10.5,3.3,11.1,8.9c0.1,0.7,0.1,1.5,0,2.2
		v1.8c0.1,2.7-0.6,5.3-2.2,7.5c-1.6,1.9-3.8,3.1-6.3,3.4l7.7,12.8c0.7,1,0.4,2.4-0.6,3.1C204.1,74.7,204,74.8,203.9,74.9L203.9,74.9
		z M183.2,54h11.3c2.8,0.6,5.6-1.2,6.2-4c0.2-0.7,0.2-1.5,0-2.2V46c0.6-2.8-1.3-5.6-4.1-6.2c-0.7-0.1-1.4-0.1-2.1,0h-11.3L183.2,54
		L183.2,54z"/>
	<path class="st1" d="M117,30c-0.9,0-1.8-0.6-2.1-1.4C111,19.1,103.5,11.5,94,7.5c-14.5-6-31.1-2.7-42.1,8.4
		c-3.6,3.6-6.5,7.9-8.4,12.6c-0.5,1.2-1.8,1.7-3,1.3c-1.2-0.5-1.7-1.8-1.3-3C43.6,16.2,52,7.8,62.6,3.3c16.2-6.7,34.8-3,47.2,9.4
		c4,4,7.2,8.9,9.4,14.1c0.5,1.2-0.1,2.5-1.3,3C117.6,30,117.4,30.1,117,30L117,30z"/>
</g>
<path class="st0" d="M33.3,108c0,2.5-0.4,4.6-1.3,6.4c-0.9,1.8-2.1,3.2-3.6,4.1c-1.5,1-3.3,1.5-5.3,1.5c-2,0-3.7-0.5-5.3-1.5
	c-1.5-1-2.8-2.3-3.6-4.1c-0.9-1.8-1.3-3.9-1.3-6.4c0-2.5,0.4-4.6,1.3-6.4c0.9-1.8,2.1-3.2,3.6-4.1c1.5-1,3.3-1.5,5.3-1.5
	c2,0,3.8,0.5,5.3,1.5c1.5,1,2.8,2.3,3.6,4.1S33.3,105.5,33.3,108z M30.6,108c0-2-0.3-3.7-1-5.1c-0.7-1.4-1.6-2.4-2.7-3.1
	c-1.1-0.7-2.4-1.1-3.8-1.1c-1.4,0-2.7,0.4-3.8,1.1c-1.1,0.7-2,1.8-2.7,3.1c-0.7,1.4-1,3.1-1,5.1c0,2,0.3,3.7,1,5.1
	c0.7,1.4,1.6,2.4,2.7,3.1c1.1,0.7,2.4,1.1,3.8,1.1c1.4,0,2.7-0.4,3.8-1.1c1.1-0.7,2-1.8,2.7-3.1C30.3,111.7,30.6,110,30.6,108z
	 M48.7,112.5v-10.3h2.7v17.5h-2.7v-3h-0.2c-0.4,0.9-1,1.6-1.9,2.3c-0.9,0.6-2,0.9-3.3,0.9c-1.1,0-2.1-0.2-2.9-0.7
	c-0.8-0.5-1.5-1.2-2-2.2c-0.5-1-0.7-2.2-0.7-3.7v-11.1h2.7V113c0,1.3,0.4,2.3,1.1,3c0.7,0.8,1.6,1.1,2.8,1.1c0.7,0,1.3-0.2,2-0.5
	c0.7-0.3,1.3-0.9,1.8-1.6C48.5,114.4,48.7,113.5,48.7,112.5z M63.9,102.1v2.3h-9v-2.3H63.9z M57.5,98h2.7v16.6
	c0,0.8,0.1,1.3,0.3,1.7c0.2,0.4,0.5,0.6,0.9,0.8c0.4,0.1,0.7,0.2,1.1,0.2c0.3,0,0.5,0,0.7,0c0.2,0,0.3-0.1,0.5-0.1l0.5,2.4
	c-0.2,0.1-0.4,0.1-0.8,0.2c-0.3,0.1-0.7,0.1-1.2,0.1c-0.8,0-1.5-0.2-2.2-0.5c-0.7-0.3-1.3-0.8-1.8-1.5c-0.5-0.7-0.7-1.5-0.7-2.5V98z
	 M71,96.3v23.3h-2.7V96.3H71z M75.9,119.6v-17.5h2.7v17.5H75.9z M77.2,99.2c-0.5,0-1-0.2-1.4-0.5c-0.4-0.4-0.6-0.8-0.6-1.3
	s0.2-0.9,0.6-1.3c0.4-0.4,0.8-0.5,1.4-0.5s1,0.2,1.3,0.5c0.4,0.4,0.6,0.8,0.6,1.3s-0.2,0.9-0.6,1.3C78.2,99,77.8,99.2,77.2,99.2z
	 M90.8,120c-1.7,0-3.1-0.4-4.4-1.1c-1.2-0.8-2.1-1.8-2.8-3.1c-0.7-1.3-1-2.9-1-4.7s0.3-3.4,1-4.7c0.7-1.4,1.6-2.4,2.8-3.2
	c1.2-0.8,2.6-1.2,4.1-1.2c0.9,0,1.8,0.2,2.7,0.5c0.9,0.3,1.7,0.8,2.4,1.5c0.7,0.7,1.3,1.6,1.7,2.7c0.4,1.1,0.6,2.5,0.6,4.1v1.1H84.6
	v-2.3h10.7c0-1-0.2-1.9-0.6-2.6c-0.4-0.8-0.9-1.4-1.7-1.8c-0.7-0.4-1.6-0.7-2.5-0.7c-1.1,0-2,0.3-2.8,0.8c-0.8,0.5-1.4,1.2-1.8,2
	c-0.4,0.8-0.6,1.7-0.6,2.7v1.5c0,1.3,0.2,2.4,0.7,3.4c0.5,0.9,1.1,1.6,1.9,2.1c0.8,0.5,1.8,0.7,2.9,0.7c0.7,0,1.3-0.1,1.9-0.3
	c0.6-0.2,1.1-0.5,1.5-0.9c0.4-0.4,0.7-0.9,1-1.5l2.6,0.7c-0.3,0.9-0.7,1.7-1.4,2.3c-0.6,0.7-1.4,1.2-2.4,1.5
	C93,119.8,92,120,90.8,120z M102.1,119.6v-17.5h2.6v2.6h0.2c0.3-0.9,0.9-1.6,1.7-2.1c0.8-0.5,1.8-0.8,2.8-0.8c0.2,0,0.4,0,0.7,0
	c0.3,0,0.5,0,0.7,0v2.7c-0.1,0-0.3-0.1-0.6-0.1c-0.3-0.1-0.7-0.1-1-0.1c-0.8,0-1.6,0.2-2.3,0.5c-0.7,0.3-1.2,0.8-1.6,1.5
	c-0.4,0.6-0.6,1.3-0.6,2.1v11H102.1z M126.4,106l-2.4,0.7c-0.2-0.4-0.4-0.8-0.7-1.2c-0.3-0.4-0.7-0.7-1.2-1s-1.1-0.4-1.9-0.4
	c-1.1,0-2,0.2-2.7,0.7c-0.7,0.5-1.1,1.1-1.1,1.9c0,0.7,0.2,1.2,0.7,1.6c0.5,0.4,1.2,0.7,2.3,1l2.6,0.6c1.6,0.4,2.7,1,3.5,1.7
	c0.8,0.8,1.1,1.8,1.1,3c0,1-0.3,1.9-0.9,2.7c-0.6,0.8-1.4,1.4-2.4,1.9c-1,0.5-2.2,0.7-3.6,0.7c-1.8,0-3.3-0.4-4.4-1.2
	c-1.2-0.8-1.9-1.9-2.2-3.4l2.5-0.6c0.2,0.9,0.7,1.6,1.4,2.1c0.7,0.5,1.6,0.7,2.7,0.7c1.2,0,2.2-0.3,3-0.8c0.7-0.5,1.1-1.2,1.1-1.9
	c0-0.6-0.2-1.1-0.6-1.5c-0.4-0.4-1.1-0.7-2-0.9l-2.9-0.7c-1.6-0.4-2.8-1-3.5-1.8c-0.7-0.8-1.1-1.8-1.1-3c0-1,0.3-1.9,0.8-2.6
	c0.6-0.8,1.3-1.4,2.3-1.8c1-0.4,2.1-0.6,3.3-0.6c1.7,0,3.1,0.4,4.1,1.1C125.2,103.8,126,104.8,126.4,106z M144.3,119.6L138,96.3h2.9
	l4.9,19h0.2l5-19h3.2l5,19h0.2l4.9-19h2.9l-6.4,23.3h-2.9l-5.1-18.5h-0.2l-5.1,18.5H144.3z M170.1,119.6v-17.5h2.7v17.5H170.1z
	 M171.5,99.2c-0.5,0-1-0.2-1.4-0.5c-0.4-0.4-0.6-0.8-0.6-1.3s0.2-0.9,0.6-1.3c0.4-0.4,0.8-0.5,1.4-0.5c0.5,0,1,0.2,1.3,0.5
	c0.4,0.4,0.6,0.8,0.6,1.3s-0.2,0.9-0.6,1.3C172.4,99,172,99.2,171.5,99.2z M180.4,109.1v10.5h-2.7v-17.5h2.6v2.7h0.2
	c0.4-0.9,1-1.6,1.9-2.1c0.8-0.5,1.9-0.8,3.2-0.8c1.2,0,2.2,0.2,3.1,0.7c0.9,0.5,1.6,1.2,2.1,2.2c0.5,1,0.7,2.2,0.7,3.7v11.1h-2.7
	v-10.9c0-1.4-0.4-2.4-1.1-3.2c-0.7-0.8-1.7-1.2-2.9-1.2c-0.9,0-1.6,0.2-2.3,0.6c-0.7,0.4-1.2,0.9-1.6,1.6S180.4,108.1,180.4,109.1z"
	/>
</svg>
