<svg xmlns="http://www.w3.org/2000/svg" xmlns:xlink="http://www.w3.org/1999/xlink" width="290" height="50" viewBox="0 0 290 50">
  <defs>
    <clipPath id="clip-path">
      <rect id="Rectangle_20" data-name="Rectangle 20" width="290" height="50" transform="translate(-12)" fill="#fff"/>
    </clipPath>
  </defs>
  <g id="Mask_Group_7" data-name="Mask Group 7" transform="translate(12)" clip-path="url(#clip-path)">
    <g id="XMLID_1_" transform="translate(-31.8 -218.01)">
      <path id="XMLID_37_" d="M124.624,273.144h-6.87l.429-2.515h-.123c-1.595,2.269-4.662,3.312-7.361,3.312-7.3,0-10.489-5.766-9.262-12.452,1.349-7.606,7.667-12.39,13.862-12.39,3.742,0,5.52,1.84,6.134,3.251h.123l.429-2.454h6.87l-4.232,23.247ZM113.031,267.5c4.355,0,6.44-3.68,6.87-5.888.491-2.822-.8-5.888-4.723-5.888s-6.318,3.374-6.747,5.95C107.94,263.821,108.86,267.5,113.031,267.5Z" transform="translate(-30.691 -10.323)" fill="#333" fill-rule="evenodd"/>
      <path id="XMLID_36_" d="M149.81,250h6.5l-.429,2.454H156a7.028,7.028,0,0,1,6.379-3.251l-1.288,6.993c-3.19.123-5.52.736-6.2,4.294l-2.331,12.758H145.7Z" transform="translate(-47.903 -10.361)" fill="#333" fill-rule="evenodd"/>
      <path id="XMLID_35_" d="M176.588,235.8h6.87l-3.19,17.42h.123l7.913-8.4h8.158L185.912,255l6.011,13h-7.79l-4.416-11.163h-.123L177.57,268H170.7Z" transform="translate(-57.568 -5.181)" fill="#333" fill-rule="evenodd"/>
      <path id="XMLID_32_" d="M230.3,265.945a17.12,17.12,0,0,1-5.766,5.888,13.227,13.227,0,0,1-6.931,2.086c-6.624,0-11.225-5.4-9.937-12.268,1.165-6.44,7.361-12.452,14.353-12.452s11.1,5.582,9.814,12.7a7.734,7.734,0,0,1-.491,1.84H214.1c-.123,2.76,1.9,4.355,4.6,4.355a5.944,5.944,0,0,0,4.6-2.208H230.3Zm-4.846-6.931a4.105,4.105,0,0,0-4.478-3.987,6.383,6.383,0,0,0-5.95,3.987Z" transform="translate(-71.775 -10.361)" fill="#333" fill-rule="evenodd"/>
      <path id="XMLID_29_" d="M363.124,273.144h-6.87l.429-2.515h-.123c-1.595,2.269-4.662,3.312-7.361,3.312-7.3,0-10.489-5.766-9.262-12.452,1.349-7.606,7.667-12.39,13.862-12.39,3.742,0,5.52,1.84,6.134,3.251h.123l.429-2.454h6.87l-4.232,23.247ZM351.531,267.5c4.355,0,6.44-3.68,6.87-5.888.491-2.822-.8-5.888-4.723-5.888s-6.318,3.374-6.747,5.95C346.5,263.821,347.422,267.5,351.531,267.5Z" transform="translate(-122.9 -10.323)" fill="#44b549" fill-rule="evenodd"/>
      <path id="XMLID_28_" d="M434.39,264.35c-2.208,5.275-7.606,9.569-13.862,9.569-6.992,0-11.286-5.52-10.059-12.39,1.288-6.809,7.545-12.329,14.414-12.329,6.134,0,10.3,4.048,10.366,9.753h-6.992A4.094,4.094,0,0,0,423.9,255.7c-3.251-.123-5.95,2.576-6.563,5.888-.613,3.374,1.1,5.888,4.355,5.888a6.487,6.487,0,0,0,5.52-3.128Z" transform="translate(-150.187 -10.361)" fill="#44b549" fill-rule="evenodd"/>
      <path id="XMLID_27_" d="M456.566,235.8h6.87l-2.024,11.163h.123a7.784,7.784,0,0,1,6.44-2.883c2.208,0,4.662.8,5.827,2.576,1.533,2.27,1.349,4.355.613,8.465l-2.392,12.942h-6.87l2.331-12.636c.184-1.1.859-4.846-2.822-4.846-3.864,0-4.478,3.435-4.662,4.6l-2.331,12.881H450.8Z" transform="translate(-165.861 -5.181)" fill="#44b549" fill-rule="evenodd"/>
      <path id="XMLID_26_" d="M61.424,235.7,49.218,254.04V235.7H43.33L21.8,267.964h8.342l12.206-18.34v18.34H48.3L60.5,249.624v18.34h6.87V235.7Z" transform="translate(0 -5.142)" fill="#333" fill-rule="evenodd"/>
      <path id="XMLID_25_" d="M265.7,246.208h-4.355l1.288-6.809h-6.072l-.491,2.638c-.552,3.006-2.392,3.926-4.968,4.171h-.123L250,251.484h3.374l-3.312,17.911h6.87l3.312-17.911H264.6Z" transform="translate(-88.227 -6.573)" fill="#333" fill-rule="evenodd"/>
      <path id="XMLID_24_" d="M326.8,222.4l-13.249,8.219h3.68L305.026,248.9v-18.34h-5.95L286.87,248.9v-18.34H280v32.264h5.95l12.206-18.34v18.34h5.888l21.53-32.2h3.312Z" transform="translate(-99.826 0)" fill="#44b549" fill-rule="evenodd"/>
      <path id="XMLID_23_" d="M403.1,246.208h-4.355l1.288-6.809h-6.072l-.491,2.638c-.552,3.006-2.392,3.926-4.968,4.171h-.123l-.981,5.275h3.374l-3.312,17.911h6.87l3.312-17.911H402Z" transform="translate(-141.349 -6.573)" fill="#44b549" fill-rule="evenodd"/>
    </g>
  </g>
</svg>
