<svg xmlns="http://www.w3.org/2000/svg" width="297.225" height="330.728" viewBox="0 0 297.225 330.728">
  <g id="Group_95" data-name="Group 95" transform="translate(-18303.498 -8194.847) rotate(22)">
    <line id="Line_26" data-name="Line 26" y2="250.818" transform="translate(20086.875 808.987) rotate(-22)" fill="none" stroke="#000" stroke-width="5"/>
    <line id="Line_27" data-name="Line 27" x2="297.225" transform="translate(20158.234 1032.797) rotate(-22)" fill="none" stroke="#000" stroke-width="5"/>
    <path id="Path_263" data-name="Path 263" d="M196.387,9.885a4.564,4.564,0,0,0-3.77,1.985L147.363,77.846l-15.2-23.013a4.176,4.176,0,0,0-3.966-2.045,4.564,4.564,0,0,0-3.811,2.282L85.421,123.7,64.385,95.884a4.564,4.564,0,0,0-7.677.621L16.3,172.819a4.564,4.564,0,1,0,8.066,4.273l37.056-69.984,20.9,27.627a4.651,4.651,0,0,0,3.939,1.826,4.564,4.564,0,0,0,3.651-2.282l38.732-68.185L143.5,88.55a4.564,4.564,0,0,0,3.766,2.049h.041a4.564,4.564,0,0,0,3.765-1.985l49.075-71.586a4.564,4.564,0,0,0-3.761-7.143Z" transform="translate(20114.59 698.165)" stroke="#425daf" stroke-width="4"/>
    <path id="Path_261" data-name="Path 261" d="M90.734,8.552a4.408,4.408,0,0,0-.844.082L50.382,16.1a4.564,4.564,0,1,0,1.693,8.969l34.889-6.6L92.322,52.3a4.564,4.564,0,1,0,9.015-1.429L95.244,12.422A4.564,4.564,0,0,0,90.734,8.57Z" transform="translate(20228.77 687.345)" stroke="#425daf" stroke-width="4"/>
    <path id="Path_255" data-name="Path 255" d="M4.221,92.868h8.442v12.664a4.221,4.221,0,1,0,8.442,0V92.868h8.442a4.18,4.18,0,0,0,4.221-4.221V21.106a4.18,4.18,0,0,0-4.221-4.221H21.106V4.221a4.221,4.221,0,1,0-8.442,0V16.885H4.221A4.18,4.18,0,0,0,0,21.106V88.647A4.18,4.18,0,0,0,4.221,92.868ZM8.442,25.328H25.327v59.1H8.442Z" transform="translate(20151.273 907.782) rotate(-22)" fill="#ffd9e7"/>
    <path id="Path_256" data-name="Path 256" d="M4.247,93.436h8.494v12.741a4.247,4.247,0,1,0,8.494,0V93.436h8.494a4.206,4.206,0,0,0,4.247-4.247V21.236a4.206,4.206,0,0,0-4.247-4.247H21.235V4.247a4.247,4.247,0,1,0-8.494,0V16.988H4.247A4.206,4.206,0,0,0,0,21.236V89.189A4.206,4.206,0,0,0,4.247,93.436ZM8.494,25.483H25.482V84.942H8.494Z" transform="translate(20182.59 849.677) rotate(-22)" fill="#c1ffe2"/>
    <path id="Path_257" data-name="Path 257" d="M4.168,91.688H12.5v12.5a4.168,4.168,0,1,0,8.335,0v-12.5h8.335a4.127,4.127,0,0,0,4.168-4.168V20.838a4.127,4.127,0,0,0-4.168-4.168H20.838V4.168a4.168,4.168,0,1,0-8.335,0v12.5H4.168A4.127,4.127,0,0,0,0,20.838V87.521A4.127,4.127,0,0,0,4.168,91.688ZM8.335,25.006h16.67V83.353H8.335Z" transform="translate(20249.969 864.771) rotate(-22)" fill="#ffd9e7"/>
    <path id="Path_258" data-name="Path 258" d="M29.207,16.69H20.862V4.173a4.172,4.172,0,1,0-8.345,0V16.69H4.172A4.132,4.132,0,0,0,0,20.863V87.623A4.132,4.132,0,0,0,4.172,91.8h8.345v12.518a4.172,4.172,0,1,0,8.345,0V91.8h8.345a4.132,4.132,0,0,0,4.172-4.173V20.863A4.132,4.132,0,0,0,29.207,16.69ZM25.035,83.451H8.345V25.035h16.69Z" transform="translate(20274.262 812.64) rotate(-22)" fill="#c1ffe2"/>
    <path id="Path_259" data-name="Path 259" d="M29.578,16.9H21.127V4.226a4.225,4.225,0,1,0-8.451,0V16.9H4.225A4.184,4.184,0,0,0,0,21.128V88.736a4.184,4.184,0,0,0,4.225,4.226h8.451v12.677a4.225,4.225,0,1,0,8.451,0V92.961h8.451A4.184,4.184,0,0,0,33.8,88.736V21.128A4.184,4.184,0,0,0,29.578,16.9ZM25.353,84.51H8.451V25.353h16.9Z" transform="translate(20336.355 814.646) rotate(-22)" fill="#ffd9e7"/>
    <rect id="Rectangle_93" data-name="Rectangle 93" width="19.336" height="61.964" transform="translate(20167.07 927.615) rotate(-22)" fill="#ffd9e7"/>
    <rect id="Rectangle_94" data-name="Rectangle 94" width="19.336" height="61.246" transform="translate(20198.789 870.227) rotate(-22)" fill="#c1ffe2"/>
    <rect id="Rectangle_95" data-name="Rectangle 95" width="19.336" height="61.932" transform="translate(20265.451 884.401) rotate(-22)" fill="#ffd9e7"/>
    <rect id="Rectangle_96" data-name="Rectangle 96" width="20" height="62" transform="translate(20289.443 831.566) rotate(-22)" fill="#c1ffe2"/>
    <rect id="Rectangle_97" data-name="Rectangle 97" width="20" height="62.189" transform="translate(20351.414 833.492) rotate(-22)" fill="#ffd9e7"/>
  </g>
</svg>
