<svg xmlns="http://www.w3.org/2000/svg" width="113.481" height="58.447" viewBox="0 0 113.481 58.447">
  <g id="Group_1202" data-name="Group 1202" transform="translate(-16 -116.053)">
    <g id="Logo_1_" data-name="Logo (1)" transform="translate(15.822 115.227)">
      <path id="Path_42" data-name="Path 42" d="M7.4,112.419q-3.691,0-5.464-1.756Q.178,108.891.178,105.2V97.76q0-3.721,1.773-5.461Q3.724,90.544,7.4,90.576h3.868q3.707,0,5.464,1.756t1.757,5.461v7.41q0,3.689-1.757,5.461-1.757,1.756-5.464,1.756Zm0-2.706h3.868a7.337,7.337,0,0,0,2.708-.4,2.5,2.5,0,0,0,1.386-1.4,7.069,7.069,0,0,0,.419-2.706v-7.41a7.016,7.016,0,0,0-.419-2.69,2.5,2.5,0,0,0-1.386-1.4,7.082,7.082,0,0,0-2.708-.419H7.4a7.1,7.1,0,0,0-2.692.387,2.5,2.5,0,0,0-1.4,1.385,7.07,7.07,0,0,0-.419,2.706V105.2a7.326,7.326,0,0,0,.4,2.706,2.564,2.564,0,0,0,1.4,1.4A7.338,7.338,0,0,0,7.4,109.713Z" transform="translate(0 -70.591)" fill="#fff"/>
      <path id="Path_43" data-name="Path 43" d="M108.073,112.329q-.838,0-1.322-1.063L98.789,92.419a1.544,1.544,0,0,1-.129-1,1.443,1.443,0,0,1,2.611-.064l7.527,17.816h-.935L115.2,91.356a1.2,1.2,0,0,1,1.87-.677,1.248,1.248,0,0,1,.693.741,1.434,1.434,0,0,1-.081,1l-8.027,18.846a1.573,1.573,0,0,1-1.451,1.063Z" transform="translate(-77.432 -70.501)" fill="#fff"/>
      <path id="Path_44" data-name="Path 44" d="M206.873,112.54a1.2,1.2,0,0,1-1.354-1.353V93.436h-6.254a1.358,1.358,0,1,1,0-2.706h15.216a1.358,1.358,0,1,1,0,2.706h-6.254v17.751a1.35,1.35,0,0,1-.355,1A1.319,1.319,0,0,1,206.873,112.54Z" transform="translate(-155.524 -70.712)" fill="#fff"/>
      <path id="Path_45" data-name="Path 45" d="M303.354,112.421A1.2,1.2,0,0,1,302,111.068V91.931a1.354,1.354,0,0,1,2.708,0v17.783h8.929a1.353,1.353,0,1,1,0,2.706Z" transform="translate(-237.394 -70.594)" fill="#fff"/>
      <path id="Path_46" data-name="Path 46" d="M365.495,112.363a1.2,1.2,0,0,1-1.354-1.353v-6.572l-7.382-11.759a1.268,1.268,0,0,1,.419-1.9,1.207,1.207,0,0,1,1.87.419l6.448,10.341,6.77-10.341a1.283,1.283,0,0,1,.822-.628,1.229,1.229,0,0,1,1.015.274,1.146,1.146,0,0,1,.419,1.836l-7.672,11.759v6.572A1.2,1.2,0,0,1,365.495,112.363Z" transform="translate(-280.26 -70.535)" fill="#fff"/>
      <path id="Path_47" data-name="Path 47" d="M475.625,112.485a1.25,1.25,0,0,1-1.015.209,1.417,1.417,0,0,1-.822-.66l-5-8.312h-4.513v7.345a1.354,1.354,0,0,1-2.708,0V91.931a1.2,1.2,0,0,1,1.354-1.353h7.543a5.509,5.509,0,0,1,6.093,6.089v.967a6.478,6.478,0,0,1-1.193,4.091,5.281,5.281,0,0,1-3.449,1.885l4.223,7.039A1.24,1.24,0,0,1,475.625,112.485Zm-11.347-11.469h6.189a2.853,2.853,0,0,0,3.385-3.383v-.967a2.867,2.867,0,0,0-3.385-3.383h-6.189Z" transform="translate(-362.901 -70.594)" fill="#fff"/>
      <path id="Path_48" data-name="Path 48" d="M146.637,17.315a1.259,1.259,0,0,1-1.164-.78A21.3,21.3,0,0,0,133.989,4.969,21.113,21.113,0,0,0,110.874,9.6a21.281,21.281,0,0,0-4.6,6.934,1.259,1.259,0,1,1-2.328-.958A23.812,23.812,0,0,1,116.788,2.646a23.63,23.63,0,0,1,25.87,5.181,23.782,23.782,0,0,1,5.143,7.751,1.259,1.259,0,0,1-1.163,1.738Z" transform="translate(-81.542)" fill="#4285f4"/>
    </g>
    <g id="Group_1200" data-name="Group 1200">
      <rect id="Rectangle_1055" data-name="Rectangle 1055" width="113.48" height="12.5" rx="3" transform="translate(16 162)" fill="#4285f4"/>
      <path id="Path_26007" data-name="Path 26007" d="M3.12.1A2.768,2.768,0,0,1,1.692-.268,2.566,2.566,0,0,1,.72-1.284,3.143,3.143,0,0,1,.368-2.8,3.125,3.125,0,0,1,.72-4.308a2.594,2.594,0,0,1,.972-1.02A2.744,2.744,0,0,1,3.12-5.7a2.8,2.8,0,0,1,1.448.368,2.53,2.53,0,0,1,.968,1.02A3.184,3.184,0,0,1,5.88-2.8a3.2,3.2,0,0,1-.344,1.516A2.5,2.5,0,0,1,4.568-.268,2.821,2.821,0,0,1,3.12.1Zm.008-.864a1.762,1.762,0,0,0,.936-.244,1.6,1.6,0,0,0,.616-.7A2.522,2.522,0,0,0,4.9-2.8,2.522,2.522,0,0,0,4.68-3.888a1.6,1.6,0,0,0-.616-.7,1.762,1.762,0,0,0-.936-.244,1.762,1.762,0,0,0-.936.244,1.622,1.622,0,0,0-.62.7A2.482,2.482,0,0,0,1.352-2.8a2.482,2.482,0,0,0,.22,1.088,1.622,1.622,0,0,0,.62.7A1.762,1.762,0,0,0,3.128-.768ZM13.552.1a2.476,2.476,0,0,1-1.1-.24,1.827,1.827,0,0,1-.784-.736,2.428,2.428,0,0,1-.292-1.248V-5.6h.96v3.48a1.641,1.641,0,0,0,.152.752,1.014,1.014,0,0,0,.428.444,1.36,1.36,0,0,0,.652.148,1.378,1.378,0,0,0,.66-.148.992.992,0,0,0,.424-.444A1.678,1.678,0,0,0,14.8-2.12V-5.6h.96v3.472a2.4,2.4,0,0,1-.3,1.248,1.836,1.836,0,0,1-.8.736A2.553,2.553,0,0,1,13.552.1ZM22.76,0V-4.824H21.112V-5.6H25.36v.776H23.712V0Zm8.008,0V-5.6h.96V-.752h2.5V0Zm9.008,0V-5.6h.96V0Zm6.7,0V-5.6H50.1v.776H47.44v1.608h2.416v.76H47.44v1.68H50.1V0Zm9.24,0V-5.6h2.008a2.361,2.361,0,0,1,1.1.228,1.526,1.526,0,0,1,.648.608,1.735,1.735,0,0,1,.212.86,1.719,1.719,0,0,1-.208.832,1.512,1.512,0,0,1-.648.616,2.41,2.41,0,0,1-1.128.232H56.68V0Zm2.92,0L57.464-2.472H58.5L59.736,0ZM56.68-2.936h.984a1.055,1.055,0,0,0,.788-.26A.941.941,0,0,0,58.7-3.88a.911.911,0,0,0-.248-.668,1.073,1.073,0,0,0-.792-.252H56.68ZM67.176.1A2.569,2.569,0,0,1,66.1-.12a1.711,1.711,0,0,1-.736-.616,1.736,1.736,0,0,1-.272-.952H66.1a.953.953,0,0,0,.132.5A.945.945,0,0,0,66.6-.84a1.185,1.185,0,0,0,.572.128,1.249,1.249,0,0,0,.5-.092A.738.738,0,0,0,68-1.068a.705.705,0,0,0,.116-.4A.727.727,0,0,0,68-1.908a1.021,1.021,0,0,0-.34-.292,2.859,2.859,0,0,0-.5-.212l-.592-.2a2.465,2.465,0,0,1-1-.572,1.285,1.285,0,0,1-.336-.932,1.492,1.492,0,0,1,.232-.84,1.538,1.538,0,0,1,.652-.548,2.275,2.275,0,0,1,.972-.2,2.256,2.256,0,0,1,.98.2,1.641,1.641,0,0,1,.664.556,1.515,1.515,0,0,1,.252.852H67.96a.828.828,0,0,0-.112-.388.819.819,0,0,0-.3-.3.919.919,0,0,0-.476-.116.959.959,0,0,0-.428.076.7.7,0,0,0-.3.24.666.666,0,0,0-.108.388.65.65,0,0,0,.1.372.773.773,0,0,0,.292.248,3.288,3.288,0,0,0,.448.188l.56.192a4,4,0,0,1,.756.332,1.545,1.545,0,0,1,.54.508,1.475,1.475,0,0,1,.2.808,1.531,1.531,0,0,1-.224.8,1.631,1.631,0,0,1-.656.6A2.3,2.3,0,0,1,67.176.1ZM82.384,0,80.9-5.6H81.92l1.048,4.5,1.216-4.5h1.064l1.176,4.512L87.48-5.6h1.032L86.984,0H85.848L84.7-4.24,83.512,0ZM93.9,0V-5.6h.96V0Zm6.7,0V-5.6h.96l2.7,4.048V-5.6h.96V0h-.96l-2.7-4.04V0Z" transform="translate(20 171.1)" fill="#fff"/>
    </g>
  </g>
</svg>
