<?xml version="1.0" encoding="utf-8"?>
<!-- Generator: Adobe Illustrator 27.0.0, SVG Export Plug-In . SVG Version: 6.00 Build 0)  -->
<svg version="1.1" id="Layer_1" xmlns="http://www.w3.org/2000/svg" xmlns:xlink="http://www.w3.org/1999/xlink" x="0px" y="0px"
	 viewBox="0 0 999.3 950.9" style="enable-background:new 0 0 999.3 950.9;" xml:space="preserve">
<style type="text/css">
	.st0{clip-path:url(#SVGID_00000064354556894286011280000009157859458959549343_);}
	.st1{clip-path:url(#SVGID_00000103943537449012195110000001215110607829337755_);}
</style>
<g id="Group_535" transform="translate(0.729)">
	<g id="Group_532" transform="translate(0 0.002)">
		<g>
			<defs>
				<rect id="SVGID_1_" x="-0.7" y="0" width="999.3" height="950.9"/>
			</defs>
			<clipPath id="SVGID_00000014606615969967675630000017844494877113878925_">
				<use xlink:href="#SVGID_1_"  style="overflow:visible;"/>
			</clipPath>
			<g id="Group_531" style="clip-path:url(#SVGID_00000014606615969967675630000017844494877113878925_);">
				<path id="Path_19566" d="M931,302.9H695.7V67.5C695.6,30.3,665.4,0.1,628.2,0H66.8C29.5,0.1-0.6,30.3-0.7,67.5v407
					c0.1,37.2,30.3,67.4,67.5,67.5h43.9v94.6c0,6.3,5.1,11.4,11.4,11.4h0c2.8,0,5.4-1,7.5-2.8L246.7,542h55.4v235.4
					c0.1,37.2,30.3,67.4,67.5,67.5h381.4l117.1,103.2c4.7,4.1,11.9,3.7,16-1c1.8-2.1,2.8-4.7,2.8-7.5v-94.6H931
					c37.2-0.1,67.4-30.3,67.5-67.5v-407C998.4,333.2,968.3,303,931,302.9 M302.2,370.4v148.9h-59.7c-2.8,0-5.5,1-7.5,2.8
					l-101.5,89.3v-80.8c0-6.3-5.1-11.3-11.3-11.4H66.8c-24.7-0.1-44.7-20.1-44.8-44.8v-407c0.1-24.7,20.1-44.7,44.8-44.7h561.4
					c24.7,0,44.7,20,44.8,44.7v235.4H369.7C332.4,303,302.3,333.2,302.2,370.4 M975.8,777.4c-0.1,24.7-20.1,44.7-44.8,44.8h-55.3
					c-6.3,0-11.3,5.1-11.4,11.3v80.8L763,825c-2.1-1.8-4.8-2.8-7.5-2.8H369.7c-24.7-0.1-44.7-20.1-44.8-44.8v-407
					c0.1-24.7,20.1-44.7,44.8-44.7h561.4c24.7,0,44.7,20,44.8,44.7L975.8,777.4z"/>
			</g>
		</g>
	</g>
	<g id="Group_534">
		<g>
			<defs>
				<rect id="SVGID_00000141442527931911236230000004584378688044582069_" x="-0.7" width="999.3" height="950.9"/>
			</defs>
			<clipPath id="SVGID_00000122691942650734563620000005261614562456379536_">
				<use xlink:href="#SVGID_00000141442527931911236230000004584378688044582069_"  style="overflow:visible;"/>
			</clipPath>
			<g id="Group_533" style="clip-path:url(#SVGID_00000122691942650734563620000005261614562456379536_);">
				<path id="Path_19567" d="M575.2,273.8c0,7.8-5.8,11.3-11.1,11.8c-5.6,0.6-12.5-1.9-13.6-10.7l-5.1-47.6l-102.8,91.7l-11.9,3.4
					c-1.6,0.8-11.1-6.3-22.9-7.5c-9.9-1-21.5,4.1-32.4,4c-23.4-0.2-29.6,1.5-32.1,0l-76.9-56.3L138.7,379c-2.3,2.1-5.3,3.2-8.3,3.2
					h-1.6c-6.4-0.5-9.1-6.2-9.7-7.9c-1.6-4-1.6-9.6,2.8-13.4L258.1,237c2.3-2.1,5.2-3.2,8.3-3.2c3,0,5.9,1.1,8.1,3.1l90.1,69.5
					l29.1,12.8c0,0-1.1,18.2,32.8-16.2s101.6-92.7,101.6-92.7l-51.1,5.5c-8.4,0.6-12.8-5.1-13.4-11.1c-0.6-5.5,1.9-12.3,10.7-13.5
					l78.8-8.4c3.3-0.3,6.6,0.6,9.1,2.7c2.6,2.1,4.2,5,4.5,8.3l8.4,78.7C575.2,272.8,575.2,273.3,575.2,273.8"/>
				<path id="Path_19568" d="M888.4,504L752.2,627.9c-4.6,4.2-11.7,4.3-16.4,0.2l-126.9-110L484.7,654.5l48.5-5.2
					c8.4-0.7,12.8,5.1,13.4,11.1c0.6,5.5-1.9,12.3-10.7,13.5l-78.8,8.4c-3.3,0.3-6.6-0.6-9.1-2.7c-2.5-2-4.2-5-4.5-8.3l-8.4-78.7
					c-0.8-9,5.4-12.8,11-13.4c0.5-0.1,1.1-0.1,1.6-0.1c2.5,0,10.7,0.8,12,10.8l5.3,49.5l133.7-146.7c4.5-4.9,12.1-5.4,17.2-1
					l127.2,110.2l0.5,0.5l127.9-116.3c2.3-2.1,5.2-3.2,8.3-3.2l1.6,0c6.3,0.5,9.1,6.2,9.7,8C892.8,494.6,892.9,500.2,888.4,504"/>
			</g>
		</g>
	</g>
</g>
</svg>
