<svg width="291" height="214" viewBox="0 0 291 214" fill="none" xmlns="http://www.w3.org/2000/svg">
<g clip-path="url(#clip0_425_1033)">
<path d="M276.138 0H38.7234C30.5153 0 23.8613 6.65239 23.8613 14.8585V199.141C23.8613 207.348 30.5153 214 38.7234 214H276.138C284.346 214 291 207.348 291 199.141V14.8585C291 6.65239 284.346 0 276.138 0Z" fill="#D0E0FA"/>
<path d="M127.747 38.3201H51.9578C50.3531 38.3201 49.0522 39.6206 49.0522 41.2249C49.0522 42.8292 50.3531 44.1298 51.9578 44.1298H127.747C129.352 44.1298 130.653 42.8292 130.653 41.2249C130.653 39.6206 129.352 38.3201 127.747 38.3201Z" fill="white"/>
<path d="M159.158 22.845H53.5406C51.0618 22.845 49.0522 24.854 49.0522 27.3322C49.0522 29.8105 51.0618 31.8195 53.5406 31.8195H159.158C161.637 31.8195 163.646 29.8105 163.646 27.3322C163.646 24.854 161.637 22.845 159.158 22.845Z" fill="white"/>
<path d="M127.747 87.7991H51.9578C50.3531 87.7991 49.0522 89.0996 49.0522 90.7039C49.0522 92.3082 50.3531 93.6088 51.9578 93.6088H127.747C129.352 93.6088 130.653 92.3082 130.653 90.7039C130.653 89.0996 129.352 87.7991 127.747 87.7991Z" fill="white"/>
<path d="M159.158 72.3313H53.5406C51.0618 72.3313 49.0522 74.3403 49.0522 76.8186C49.0522 79.2968 51.0618 81.3059 53.5406 81.3059H159.158C161.637 81.3059 163.646 79.2968 163.646 76.8186C163.646 74.3403 161.637 72.3313 159.158 72.3313Z" fill="white"/>
<path d="M127.747 137.285H51.9578C50.3531 137.285 49.0522 138.586 49.0522 140.19C49.0522 141.795 50.3531 143.095 51.9578 143.095H127.747C129.352 143.095 130.653 141.795 130.653 140.19C130.653 138.586 129.352 137.285 127.747 137.285Z" fill="white"/>
<path d="M159.158 121.81H53.5406C51.0618 121.81 49.0522 123.819 49.0522 126.298C49.0522 128.776 51.0618 130.785 53.5406 130.785H159.158C161.637 130.785 163.646 128.776 163.646 126.298C163.646 123.819 161.637 121.81 159.158 121.81Z" fill="white"/>
<path d="M127.747 186.764H51.9578C50.3531 186.764 49.0522 188.065 49.0522 189.669C49.0522 191.274 50.3531 192.574 51.9578 192.574H127.747C129.352 192.574 130.653 191.274 130.653 189.669C130.653 188.065 129.352 186.764 127.747 186.764Z" fill="white"/>
<path d="M159.158 171.289H53.5406C51.0618 171.289 49.0522 173.298 49.0522 175.776C49.0522 178.255 51.0618 180.264 53.5406 180.264H159.158C161.637 180.264 163.646 178.255 163.646 175.776C163.646 173.298 161.637 171.289 159.158 171.289Z" fill="white"/>
<path d="M20.6284 102.628C31.4877 102.628 40.2909 93.8268 40.2909 82.9701C40.2909 72.1134 31.4877 63.3123 20.6284 63.3123C9.76905 63.3123 0.96582 72.1134 0.96582 82.9701C0.96582 93.8268 9.76905 102.628 20.6284 102.628Z" fill="#D93872"/>
<path d="M20.6285 62.3538C16.553 62.3596 12.5708 63.5731 9.18496 65.8409C5.79912 68.1087 3.16163 71.3289 1.60576 75.0948C0.0498938 78.8606 -0.354522 83.003 0.443615 86.9986C1.24175 90.9941 3.20662 94.6635 6.08994 97.543C8.97326 100.423 12.6456 102.383 16.643 103.177C20.6404 103.97 24.7834 103.561 28.5484 102.002C32.3135 100.442 35.5317 97.802 37.7963 94.4145C40.061 91.027 41.2704 87.0444 41.2719 82.97C41.264 77.5008 39.0859 72.2582 35.2155 68.3929C31.3452 64.5277 26.099 62.3557 20.6285 62.3538ZM20.6285 101.669C16.4261 101.671 12.3458 100.257 9.04565 97.6563C5.74554 95.0552 3.41816 91.4185 2.43899 87.3328C1.45982 83.2471 1.88595 78.9508 3.64865 75.1369C5.41135 71.323 8.40781 68.2141 12.1546 66.3116C15.9014 64.4091 20.18 63.8241 24.3002 64.6509C28.4203 65.4777 32.1418 67.668 34.8641 70.8686C37.5863 74.0692 39.1507 78.0934 39.3048 82.2919C39.459 86.4904 38.1938 90.6184 35.7135 94.0099C33.9809 96.385 31.7112 98.3169 29.0896 99.648C26.468 100.979 23.5688 101.672 20.6285 101.669Z" fill="#D93872"/>
<path d="M28.498 75.7562C27.0242 75.0762 25.4679 74.5917 23.8685 74.3149C23.8537 74.3118 23.8384 74.3138 23.8249 74.3205C23.8114 74.3273 23.8006 74.3384 23.7942 74.352C23.5826 74.7354 23.3916 75.1297 23.222 75.5333C21.4979 75.2725 19.7444 75.2725 18.0203 75.5333C17.847 75.1288 17.651 74.7344 17.4332 74.352C17.4268 74.3384 17.416 74.3273 17.4025 74.3205C17.389 74.3138 17.3737 74.3118 17.3589 74.3149C15.7617 74.587 14.2075 75.0691 12.7368 75.7487C10.1056 79.5169 8.91385 84.1037 9.37794 88.6757C9.37794 88.6757 9.37794 88.7202 9.37794 88.7277C11.094 89.9985 13.0139 90.9682 15.0553 91.5954C15.0663 91.6027 15.0792 91.6066 15.0924 91.6066C15.1056 91.6066 15.1186 91.6027 15.1296 91.5954C15.5688 90.9989 15.9589 90.3678 16.2963 89.7083C16.3037 89.6886 16.3032 89.6668 16.2949 89.6474C16.2866 89.628 16.2711 89.6126 16.2517 89.6043C15.6539 89.372 15.0751 89.0938 14.5202 88.7723C14.5095 88.7656 14.5006 88.7563 14.4945 88.7452C14.4883 88.7342 14.4851 88.7217 14.4851 88.7091C14.4851 88.6965 14.4883 88.684 14.4945 88.673C14.5006 88.6619 14.5095 88.6526 14.5202 88.6459C14.6391 88.5568 14.758 88.4676 14.8695 88.3711C14.8805 88.3637 14.8934 88.3598 14.9066 88.3598C14.9199 88.3598 14.9328 88.3637 14.9438 88.3711C16.7299 89.2078 18.6783 89.6416 20.6508 89.6416C22.6234 89.6416 24.5717 89.2078 26.3579 88.3711C26.3689 88.3637 26.3818 88.3598 26.3951 88.3598C26.4083 88.3598 26.4212 88.3637 26.4322 88.3711L26.7889 88.6459C26.7982 88.6536 26.8057 88.6633 26.8109 88.6742C26.8161 88.6851 26.8188 88.697 26.8188 88.7091C26.8188 88.7212 26.8161 88.7331 26.8109 88.744C26.8057 88.7549 26.7982 88.7646 26.7889 88.7723C26.2221 89.1025 25.6279 89.3834 25.0129 89.6118C25.0008 89.6264 24.9942 89.6448 24.9942 89.6638C24.9942 89.6827 25.0008 89.7011 25.0129 89.7158C25.3559 90.3704 25.7432 91.0009 26.1721 91.6028C26.1845 91.61 26.1986 91.6138 26.213 91.6138C26.2273 91.6138 26.2414 91.61 26.2539 91.6028C28.2965 90.9788 30.2169 90.0088 31.9312 88.7351C31.9358 88.7272 31.9382 88.7182 31.9382 88.7091C31.9382 88.7 31.9358 88.691 31.9312 88.6831C32.3868 84.1181 31.1753 79.5425 28.5203 75.8008L28.498 75.7562ZM16.8536 86.1571C16.3898 86.2098 15.921 86.1204 15.5092 85.9008C15.0974 85.6812 14.7621 85.3417 14.5476 84.9273C14.3331 84.5129 14.2495 84.0431 14.308 83.5802C14.3665 83.1172 14.5643 82.683 14.8751 82.3349C15.186 81.9868 15.5952 81.7414 16.0487 81.6311C16.5022 81.5207 16.9785 81.5507 17.4146 81.717C17.8507 81.8833 18.2259 82.1781 18.4907 82.5624C18.7554 82.9467 18.8971 83.4023 18.8971 83.8689C18.9195 84.4378 18.7182 84.9928 18.3362 85.4149C17.9542 85.8371 17.422 86.0929 16.8536 86.1274V86.1571ZM24.4035 86.1571C23.9398 86.2098 23.471 86.1204 23.0592 85.9008C22.6474 85.6812 22.312 85.3417 22.0975 84.9273C21.883 84.5129 21.7995 84.0431 21.858 83.5802C21.9165 83.1172 22.1142 82.683 22.4251 82.3349C22.7359 81.9868 23.1452 81.7414 23.5987 81.6311C24.0522 81.5207 24.5285 81.5507 24.9646 81.717C25.4006 81.8833 25.7759 82.1781 26.0406 82.5624C26.3054 82.9467 26.4471 83.4023 26.4471 83.8689C26.4676 84.4373 26.2656 84.9912 25.8839 85.413C25.5023 85.8347 24.9712 86.091 24.4035 86.1274V86.1571Z" fill="white"/>
<path d="M20.6284 150.688C31.4877 150.688 40.2909 141.887 40.2909 131.03C40.2909 120.173 31.4877 111.372 20.6284 111.372C9.76905 111.372 0.96582 120.173 0.96582 131.03C0.96582 141.887 9.76905 150.688 20.6284 150.688Z" fill="#10A861"/>
<path d="M20.6285 110.414C16.553 110.42 12.5708 111.633 9.18496 113.901C5.79912 116.169 3.16163 119.389 1.60576 123.155C0.0498938 126.921 -0.354522 131.063 0.443615 135.059C1.24175 139.054 3.20662 142.724 6.08994 145.603C8.97326 148.483 12.6456 150.443 16.643 151.237C20.6404 152.03 24.7834 151.621 28.5484 150.062C32.3135 148.502 35.5317 145.862 37.7963 142.475C40.061 139.087 41.2704 135.104 41.2719 131.03C41.266 125.56 39.0885 120.316 35.2177 116.451C31.347 112.585 26.0996 110.414 20.6285 110.414ZM20.6285 149.722C16.4261 149.724 12.3458 148.31 9.04565 145.709C5.74554 143.108 3.41816 139.471 2.43899 135.385C1.45982 131.3 1.88595 127.003 3.64865 123.19C5.41135 119.376 8.40781 116.267 12.1546 114.364C15.9014 112.462 20.18 111.877 24.3002 112.704C28.4203 113.53 32.1418 115.721 34.8641 118.921C37.5863 122.122 39.1507 126.146 39.3048 130.345C39.459 134.543 38.1938 138.671 35.7135 142.062C33.9813 144.438 31.7117 146.37 29.09 147.701C26.4684 149.033 23.5689 149.725 20.6285 149.722Z" fill="#10A861"/>
<path d="M28.498 123.809C27.0226 123.135 25.4667 122.653 23.8685 122.375C23.854 122.374 23.8397 122.378 23.8267 122.384C23.8138 122.391 23.8026 122.4 23.7942 122.412C23.5935 122.769 23.378 123.229 23.222 123.593C21.4979 123.332 19.7444 123.332 18.0203 123.593C17.8455 123.189 17.6496 122.795 17.4332 122.412C17.4248 122.4 17.4136 122.391 17.4006 122.384C17.3877 122.378 17.3734 122.374 17.3589 122.375C15.7633 122.654 14.21 123.136 12.7368 123.809C10.1056 127.577 8.91385 132.164 9.37794 136.736C9.3741 136.753 9.3741 136.77 9.37794 136.788C11.0937 138.072 13.0162 139.055 15.0627 139.692C15.0732 139.701 15.0863 139.705 15.0999 139.705C15.1134 139.705 15.1265 139.701 15.137 139.692C15.5778 139.097 15.9681 138.466 16.3037 137.805C16.3072 137.796 16.3089 137.786 16.3085 137.776C16.3082 137.766 16.3059 137.757 16.3017 137.748C16.2976 137.739 16.2917 137.731 16.2844 137.724C16.277 137.717 16.2684 137.712 16.2591 137.709C15.6573 137.46 15.0759 137.164 14.5202 136.825C14.5093 136.819 14.5002 136.811 14.4938 136.8C14.4874 136.79 14.484 136.778 14.484 136.765C14.484 136.753 14.4874 136.741 14.4938 136.73C14.5002 136.72 14.5093 136.711 14.5202 136.706C14.6391 136.617 14.758 136.528 14.8695 136.431C14.8805 136.424 14.8934 136.42 14.9066 136.42C14.9199 136.42 14.9328 136.424 14.9438 136.431C16.7299 137.268 18.6783 137.701 20.6508 137.701C22.6234 137.701 24.5717 137.268 26.3579 136.431C26.3684 136.423 26.3815 136.418 26.3951 136.418C26.4086 136.418 26.4217 136.423 26.4322 136.431L26.7889 136.706C26.7981 136.713 26.8056 136.722 26.8108 136.732C26.8159 136.742 26.8186 136.754 26.8186 136.765C26.8186 136.777 26.8159 136.788 26.8108 136.798C26.8056 136.809 26.7981 136.818 26.7889 136.825C26.2223 137.157 25.6281 137.441 25.0129 137.672C25.0014 137.685 24.995 137.702 24.995 137.72C24.995 137.738 25.0014 137.755 25.0129 137.768C25.3263 138.434 25.6864 139.077 26.0904 139.692C26.1025 139.7 26.1167 139.705 26.1312 139.705C26.1458 139.705 26.16 139.7 26.1721 139.692C28.2148 139.068 30.1351 138.098 31.8494 136.825C31.8534 136.817 31.8554 136.808 31.8554 136.799C31.8554 136.79 31.8534 136.781 31.8494 136.773C32.3311 132.199 31.1378 127.607 28.4906 123.846C28.4906 123.846 28.5055 123.816 28.498 123.809ZM16.8536 134.21C16.3879 134.264 15.9168 134.175 15.5027 133.956C15.0886 133.736 14.7511 133.395 14.5351 132.979C14.319 132.564 14.2346 132.092 14.293 131.627C14.3514 131.162 14.5499 130.725 14.8622 130.376C15.1744 130.026 15.5856 129.78 16.0412 129.669C16.4967 129.559 16.9752 129.589 17.4129 129.757C17.8507 129.925 18.2271 130.222 18.4922 130.608C18.7573 130.995 18.8985 131.453 18.8971 131.921C18.9196 132.491 18.7185 133.047 18.3367 133.47C17.9548 133.894 17.4226 134.151 16.8536 134.187V134.21ZM24.4035 134.21C23.9379 134.264 23.4668 134.175 23.0527 133.956C22.6386 133.736 22.3011 133.395 22.085 132.979C21.869 132.564 21.7846 132.092 21.843 131.627C21.9014 131.162 22.0999 130.725 22.4121 130.376C22.7243 130.026 23.1355 129.78 23.5911 129.669C24.0467 129.559 24.5251 129.589 24.9629 129.757C25.4006 129.925 25.777 130.222 26.0421 130.608C26.3072 130.995 26.4484 131.453 26.4471 131.921C26.4696 132.491 26.2684 133.047 25.8866 133.47C25.5048 133.894 24.9726 134.151 24.4035 134.187V134.21Z" fill="white"/>
<path d="M20.6284 198.74C31.4877 198.74 40.2909 189.939 40.2909 179.082C40.2909 168.226 31.4877 159.425 20.6284 159.425C9.76905 159.425 0.96582 168.226 0.96582 179.082C0.96582 189.939 9.76905 198.74 20.6284 198.74Z" fill="#2A353D"/>
<path d="M20.6287 158.474C16.5545 158.481 12.5738 159.696 9.18985 161.964C5.80589 164.233 3.17052 167.453 1.61679 171.219C0.0630597 174.984 -0.33928 179.126 0.460612 183.12C1.2605 187.114 3.22673 190.781 6.11079 193.658C8.99485 196.535 12.6673 198.493 16.664 199.284C20.6607 200.075 24.8023 199.664 28.5653 198.102C32.3283 196.541 35.5439 193.899 37.8056 190.511C40.0673 187.123 41.2737 183.141 41.2722 179.068C41.2604 173.602 39.0802 168.364 35.2101 164.503C31.34 160.642 26.096 158.474 20.6287 158.474ZM20.6287 197.782C16.4264 197.784 12.346 196.37 9.04592 193.769C5.74582 191.168 3.41844 187.531 2.43926 183.445C1.46009 179.36 1.88623 175.063 3.64893 171.249C5.41163 167.435 8.40809 164.327 12.1549 162.424C15.9017 160.522 20.1803 159.937 24.3005 160.763C28.4206 161.59 32.142 163.78 34.8643 166.981C37.5866 170.182 39.151 174.206 39.3051 178.404C39.4592 182.603 38.1941 186.731 35.7138 190.122C33.9812 192.497 31.7115 194.429 29.0899 195.76C26.4683 197.092 23.5691 197.784 20.6287 197.782Z" fill="#2A353D"/>
<path d="M28.4983 171.869C27.0228 171.195 25.4669 170.713 23.8687 170.435C23.854 170.432 23.8386 170.434 23.8251 170.44C23.8116 170.447 23.8008 170.458 23.7944 170.472C23.5938 170.829 23.3783 171.289 23.2222 171.653C21.4981 171.392 19.7446 171.392 18.0205 171.653C17.8458 171.249 17.6498 170.855 17.4334 170.472C17.4262 170.459 17.4152 170.449 17.402 170.442C17.3887 170.435 17.3738 170.433 17.3591 170.435C15.7636 170.714 14.2103 171.196 12.737 171.869C10.1053 175.636 8.91342 180.223 9.37818 184.796C9.37574 184.813 9.37574 184.83 9.37818 184.848C11.096 186.116 13.0153 187.085 15.0555 187.715C15.0668 187.722 15.0796 187.725 15.0927 187.725C15.1057 187.725 15.1185 187.722 15.1298 187.715C15.5706 187.12 15.9609 186.489 16.2965 185.828C16.3 185.819 16.3017 185.809 16.3014 185.799C16.301 185.789 16.2987 185.78 16.2946 185.771C16.2904 185.762 16.2845 185.753 16.2772 185.747C16.2698 185.74 16.2613 185.735 16.2519 185.732C15.6538 185.494 15.0749 185.211 14.5205 184.885C14.5096 184.879 14.5004 184.871 14.494 184.86C14.4876 184.85 14.4842 184.838 14.4842 184.825C14.4842 184.813 14.4876 184.801 14.494 184.79C14.5004 184.78 14.5096 184.771 14.5205 184.766L14.8697 184.491C14.881 184.484 14.8938 184.481 14.9069 184.481C14.9199 184.481 14.9327 184.484 14.944 184.491C16.7288 185.333 18.6777 185.769 20.6511 185.769C22.6245 185.769 24.5734 185.333 26.3581 184.491C26.3696 184.485 26.3824 184.482 26.3953 184.482C26.4082 184.482 26.4209 184.485 26.4324 184.491L26.7891 184.773C26.7984 184.78 26.8059 184.789 26.811 184.799C26.8162 184.81 26.8189 184.821 26.8189 184.833C26.8189 184.844 26.8162 184.856 26.811 184.866C26.8059 184.876 26.7984 184.885 26.7891 184.892C26.2088 185.232 25.5996 185.521 24.9685 185.754C24.9564 185.769 24.9498 185.787 24.9498 185.806C24.9498 185.825 24.9564 185.843 24.9685 185.858C25.3099 186.514 25.6973 187.144 26.1278 187.745C26.1404 187.751 26.1544 187.755 26.1686 187.755C26.1829 187.755 26.1969 187.751 26.2095 187.745C28.2509 187.118 30.1707 186.148 31.8868 184.877C31.8903 184.869 31.8921 184.86 31.8921 184.851C31.8921 184.842 31.8903 184.833 31.8868 184.825C32.3692 180.252 31.1758 175.659 28.528 171.898C28.528 171.898 28.5057 171.876 28.4983 171.869ZM16.8538 182.27C16.3901 182.322 15.9213 182.233 15.5095 182.013C15.0977 181.794 14.7623 181.454 14.5478 181.04C14.3333 180.625 14.2498 180.156 14.3083 179.693C14.3668 179.23 14.5645 178.795 14.8754 178.447C15.1862 178.099 15.5955 177.854 16.049 177.743C16.5025 177.633 16.9788 177.663 17.4148 177.829C17.8509 177.996 18.2262 178.291 18.4909 178.675C18.7556 179.059 18.8974 179.515 18.8974 179.981C18.9198 180.55 18.7184 181.105 18.3364 181.527C17.9544 181.95 17.4222 182.205 16.8538 182.24V182.27ZM24.4038 182.27C23.94 182.322 23.4712 182.233 23.0594 182.013C22.6476 181.794 22.3123 181.454 22.0978 181.04C21.8833 180.625 21.7997 180.156 21.8582 179.693C21.9167 179.23 22.1145 178.795 22.4253 178.447C22.7362 178.099 23.1454 177.854 23.5989 177.743C24.0524 177.633 24.5287 177.663 24.9648 177.829C25.4009 177.996 25.7761 178.291 26.0409 178.675C26.3056 179.059 26.4473 179.515 26.4473 179.981C26.4678 180.55 26.2658 181.104 25.8842 181.525C25.5026 181.947 24.9715 182.203 24.4038 182.24V182.27Z" fill="white"/>
<path d="M20.6284 54.5754C31.4877 54.5754 40.2909 45.7743 40.2909 34.9176C40.2909 24.0609 31.4877 15.2598 20.6284 15.2598C9.76905 15.2598 0.96582 24.0609 0.96582 34.9176C0.96582 45.7743 9.76905 54.5754 20.6284 54.5754Z" fill="#3E7FDD"/>
<path d="M20.6287 14.3013C16.5563 14.3086 12.5774 15.5222 9.19446 17.7887C5.81146 20.0552 3.17607 23.2731 1.62103 27.036C0.0659977 30.7989 -0.338943 34.938 0.45734 38.9308C1.25362 42.9236 3.21542 46.591 6.09503 49.4699C8.97463 52.3489 12.6429 54.3102 16.6367 55.1063C20.6304 55.9024 24.7706 55.4975 28.5344 53.9429C32.2982 52.3882 35.5168 49.7534 37.7839 46.3713C40.051 42.9891 41.2648 39.0112 41.2722 34.9398C41.2722 29.4661 39.0972 24.2166 35.2258 20.3461C31.3544 16.4757 26.1037 14.3013 20.6287 14.3013ZM20.6287 53.6095C16.4264 53.6112 12.346 52.1975 9.04589 49.5964C5.74579 46.9953 3.41841 43.3585 2.43923 39.2729C1.46006 35.1872 1.8862 30.8908 3.6489 27.077C5.41159 23.2631 8.40806 20.1542 12.1549 18.2517C15.9016 16.3492 20.1803 15.7642 24.3004 16.591C28.4206 17.4177 32.142 19.6081 34.8643 22.8087C37.5866 26.0093 39.151 30.0335 39.3051 34.232C39.4592 38.4305 38.194 42.5585 35.7137 45.9499C33.9812 48.325 31.7115 50.257 29.0899 51.5881C26.4683 52.9193 23.569 53.6119 20.6287 53.6095Z" fill="#3E7FDD"/>
<path d="M28.4983 27.6963C27.0228 27.0222 25.4669 26.5404 23.8687 26.2624C23.854 26.2593 23.8386 26.2613 23.8251 26.268C23.8116 26.2748 23.8008 26.2859 23.7944 26.2996C23.5938 26.6562 23.3783 27.1168 23.2222 27.4808C21.4981 27.2201 19.7446 27.2201 18.0205 27.4808C17.8458 27.077 17.6498 26.6827 17.4334 26.2996C17.4262 26.2867 17.4152 26.2762 17.402 26.2696C17.3887 26.263 17.3738 26.2605 17.3591 26.2624C15.7636 26.5414 14.2103 27.0232 12.737 27.6963C10.1053 31.4641 8.91342 36.0511 9.37818 40.6232C9.37574 40.6404 9.37574 40.6579 9.37818 40.6752C11.096 41.9432 13.0153 42.9127 15.0555 43.5429C15.0668 43.5494 15.0796 43.5528 15.0927 43.5528C15.1057 43.5528 15.1185 43.5494 15.1298 43.5429C15.5746 42.9383 15.9674 42.297 16.3039 41.6261C16.3075 41.6169 16.3091 41.607 16.3088 41.5971C16.3085 41.5872 16.3061 41.5774 16.302 41.5684C16.2978 41.5594 16.2919 41.5514 16.2846 41.5447C16.2773 41.538 16.2687 41.5329 16.2593 41.5296C15.6596 41.3022 15.0782 41.029 14.5205 40.7123C14.5096 40.7067 14.5004 40.6982 14.494 40.6877C14.4876 40.6772 14.4842 40.6652 14.4842 40.6529C14.4842 40.6406 14.4876 40.6286 14.494 40.6181C14.5004 40.6076 14.5096 40.5991 14.5205 40.5935L14.8697 40.3186C14.881 40.3121 14.8938 40.3086 14.9069 40.3086C14.9199 40.3086 14.9327 40.3121 14.944 40.3186C16.7288 41.1603 18.6777 41.5969 20.6511 41.5969C22.6245 41.5969 24.5734 41.1603 26.3581 40.3186C26.3696 40.3127 26.3824 40.3097 26.3953 40.3097C26.4082 40.3097 26.4209 40.3127 26.4324 40.3186L26.7891 40.6009C26.7984 40.6078 26.8059 40.6168 26.811 40.6271C26.8162 40.6374 26.8189 40.6488 26.8189 40.6603C26.8189 40.6719 26.8162 40.6832 26.811 40.6935C26.8059 40.7039 26.7984 40.7128 26.7891 40.7198C26.2223 41.05 25.6281 41.3309 25.0131 41.5593C25.001 41.5739 24.9944 41.5923 24.9944 41.6113C24.9944 41.6303 25.001 41.6486 25.0131 41.6633C25.3545 42.3189 25.7418 42.9495 26.1724 43.5503C26.185 43.5568 26.199 43.5602 26.2132 43.5602C26.2274 43.5602 26.2415 43.5568 26.2541 43.5503C28.2955 42.9232 30.2153 41.9535 31.9314 40.6826C31.9349 40.6744 31.9367 40.6655 31.9367 40.6566C31.9367 40.6477 31.9349 40.6388 31.9314 40.6306C32.4138 36.0572 31.2204 31.4642 28.5726 27.7037C28.5726 27.7037 28.5057 27.7037 28.4983 27.6963ZM16.8538 38.0972C16.3901 38.1499 15.9213 38.0605 15.5095 37.8409C15.0977 37.6213 14.7623 37.2818 14.5478 36.8674C14.3333 36.453 14.2498 35.9832 14.3083 35.5202C14.3668 35.0573 14.5645 34.6231 14.8754 34.275C15.1862 33.9269 15.5955 33.6815 16.049 33.5711C16.5025 33.4608 16.9788 33.4908 17.4148 33.6571C17.8509 33.8234 18.2262 34.1182 18.4909 34.5025C18.7556 34.8868 18.8974 35.3424 18.8974 35.809C18.9198 36.3779 18.7184 36.9329 18.3364 37.355C17.9544 37.7772 17.4222 38.033 16.8538 38.0675V38.0972ZM24.4038 38.0972C23.94 38.1499 23.4712 38.0605 23.0594 37.8409C22.6476 37.6213 22.3123 37.2818 22.0978 36.8674C21.8833 36.453 21.7997 35.9832 21.8582 35.5202C21.9167 35.0573 22.1145 34.6231 22.4253 34.275C22.7362 33.9269 23.1454 33.6815 23.5989 33.5711C24.0524 33.4608 24.5287 33.4908 24.9648 33.6571C25.4009 33.8234 25.7761 34.1182 26.0409 34.5025C26.3056 34.8868 26.4473 35.3424 26.4473 35.809C26.4678 36.3774 26.2658 36.9313 25.8842 37.3531C25.5026 37.7748 24.9715 38.0311 24.4038 38.0675V38.0972Z" fill="white"/>
<path d="M195.882 8.20923H273.232C274.456 8.20923 275.669 8.45045 276.8 8.9191C277.931 9.38775 278.959 10.0746 279.824 10.9405C280.689 11.8064 281.376 12.8343 281.843 13.9655C282.311 15.0966 282.552 16.3089 282.551 17.533V196.474C282.551 197.698 282.31 198.909 281.841 200.039C281.373 201.17 280.687 202.197 279.821 203.062C278.956 203.927 277.929 204.613 276.798 205.081C275.668 205.55 274.456 205.791 273.232 205.791H195.882V8.20923Z" fill="white"/>
<path d="M266.089 23H212.911C210.751 23 209 25.0147 209 27.5C209 29.9853 210.751 32 212.911 32H266.089C268.249 32 270 29.9853 270 27.5C270 25.0147 268.249 23 266.089 23Z" fill="#D0E0FA"/>
<path d="M267.404 43H211.596C210.162 43 209 44.3431 209 46C209 47.6569 210.162 49 211.596 49H267.404C268.838 49 270 47.6569 270 46C270 44.3431 268.838 43 267.404 43Z" fill="#D0E0FA"/>
<path d="M267.404 54H211.596C210.162 54 209 55.3431 209 57C209 58.6569 210.162 60 211.596 60H267.404C268.838 60 270 58.6569 270 57C270 55.3431 268.838 54 267.404 54Z" fill="#D0E0FA"/>
<path d="M267.404 72H211.596C210.162 72 209 73.3431 209 75C209 76.6569 210.162 78 211.596 78H267.404C268.838 78 270 76.6569 270 75C270 73.3431 268.838 72 267.404 72Z" fill="#D0E0FA"/>
<path d="M267.404 83H211.596C210.162 83 209 84.3431 209 86C209 87.6569 210.162 89 211.596 89H267.404C268.838 89 270 87.6569 270 86C270 84.3431 268.838 83 267.404 83Z" fill="#D0E0FA"/>
<path d="M267.404 101H211.596C210.162 101 209 102.343 209 104C209 105.657 210.162 107 211.596 107H267.404C268.838 107 270 105.657 270 104C270 102.343 268.838 101 267.404 101Z" fill="#D0E0FA"/>
<path d="M267.404 112H211.596C210.162 112 209 113.119 209 114.5C209 115.881 210.162 117 211.596 117H267.404C268.838 117 270 115.881 270 114.5C270 113.119 268.838 112 267.404 112Z" fill="#D0E0FA"/>
<path d="M267.404 130H211.596C210.162 130 209 131.343 209 133C209 134.657 210.162 136 211.596 136H267.404C268.838 136 270 134.657 270 133C270 131.343 268.838 130 267.404 130Z" fill="#D0E0FA"/>
<path d="M267.404 140H211.596C210.162 140 209 141.343 209 143C209 144.657 210.162 146 211.596 146H267.404C268.838 146 270 144.657 270 143C270 141.343 268.838 140 267.404 140Z" fill="#D0E0FA"/>
<path d="M267.404 159H211.596C210.162 159 209 160.343 209 162C209 163.657 210.162 165 211.596 165H267.404C268.838 165 270 163.657 270 162C270 160.343 268.838 159 267.404 159Z" fill="#D0E0FA"/>
<path d="M267.404 169H211.596C210.162 169 209 170.343 209 172C209 173.657 210.162 175 211.596 175H267.404C268.838 175 270 173.657 270 172C270 170.343 268.838 169 267.404 169Z" fill="#D0E0FA"/>
<path d="M267.404 187H211.596C210.162 187 209 188.343 209 190C209 191.657 210.162 193 211.596 193H267.404C268.838 193 270 191.657 270 190C270 188.343 268.838 187 267.404 187Z" fill="#D0E0FA"/>
</g>
<defs>
<clipPath id="clip0_425_1033">
<rect width="291" height="214" fill="white"/>
</clipPath>
</defs>
</svg>
